<?xml version="1.0" encoding="UTF-8"?>
<svg xmlns="http://www.w3.org/2000/svg" viewBox="0 0 198.18 209.1">
  <defs>
    <style>
      .cls-1 {
        fill: aqua;
        mix-blend-mode: hard-light;
      }

      .cls-2 {
        isolation: isolate;
      }
    </style>
  </defs>
  <g class="cls-2">
    <g id="Layer_2" data-name="Layer 2">
      <g id="Layer_1-2" data-name="Layer 1">
        <path class="cls-1" d="M195.59,2.7l-1-2.58-23.31,19.17,2.99-13.82-3.67-1.45-12.18,20.28c-4,6.67-8.82,12.46-13.92,18.59-.9,1.08-1.8,2.16-2.69,3.25-.69.84-1.18,1-1.8,1-.3,0-.66-.05-1.06-.14l-1.05-.24-9.86,9.36c-.06,0-.12,0-.18,0-1.67,0-2.62.18-3.29.63l-7.89,5.29c-.84.56-1.26,1.45-1.67,2.32-.1.22-.25.54-.4.81l-1.41-6.88-.05-.14c-1.53-4.25-4.02-7.86-6.43-11.36-.79-1.16-1.59-2.31-2.35-3.49l-.58-.9-9.01-.16-1.68,2.42c-2.9,4.18-5.9,8.5-8.07,13.58-.46,1.09-.57,2.54-.68,4.07-.06.89-.18,2.43-.4,3.13-.43-.27-1.21-1.36-1.54-2.48l-.21-.71-9.69-6.36-2.4.18-9.44-9.12-3.11.17-.02-.02c-6.45-7.38-12.54-14.36-17.47-22.52L27.61,3.99l-3.66,1.46,3.03,13.79L3.71,0l-1,2.6C.98,7.12.21,10.84.02,15.42l-.02.58,40.11,69.19-3.19,6.58,2.98,1.47c-2.84,5.16-3.5,13.38-2.12,16.51l9.1,20.51c1.32,2.97,4.56,4.89,8.25,4.89,1.22,0,2.39-.23,3.38-.66l1.46-.64-1.93-10.36.89-.36c1.75-.71,1.46-2.58,1.35-3.29-.18-1.15-.36-2.35,1.28-3.81,1.32-1.18,3.54-3.14,5.3-3.14.09,0,.19,0,.28.02,4.39.55,7.72,4.53,7.92,9.47.31,7.71-2.06,15.55-6.85,22.66l-.57.84,8.59,23.53,2.37-2.43,1.27,6.41-5.18-1,9.38,24.13,14.5,12.57-5.94-22.14,2.87,3.66.2-7.68c1.03.56,2.18.92,3.52.92h.21c1.17-.04,2.19-.38,3.12-.91l-.1,7.14,3.38-3.53-5.84,21.77,4.72-3.7c.5-.39,1.03-.79,1.57-1.21,2.88-2.2,6.15-4.69,7.9-7.51l.09-.15,9.47-23.42-5.07,1.01c.52-2.01.92-4.01,1.29-6.32l2.22,2.04,8.52-23.2-.59-.85c-5.97-8.59-8.51-20.42-5.79-26.92,1.24-2.95,3.4-4.66,6.63-5.22.19-.03.39-.05.58-.05,2.42,0,4.32,2.54,4.85,3.31l.43.63.74.19s.47.11.53.12l.17,4.27c.05,1.29.99,1.94,1.98,2.36l-1.82,10.64,1.81.44c.91.22,1.84.33,2.78.33,3.9,0,7.2-1.96,8.6-5.13l8.95-20.15c2.14-4.82-.39-12.66-1.9-16.5l2.95-1.07-3.41-7.03,39.67-68.49.06-.34c.87-4.83-.75-9.63-2.35-13.74Z"/>
      </g>
    </g>
  </g>
</svg>