<?xml version="1.0" encoding="UTF-8"?>
<svg id="Layer_2" data-name="Layer 2" xmlns="http://www.w3.org/2000/svg" viewBox="0 0 300 308.75">
  <g id="Layer_1-2" data-name="Layer 1">
    <path d="M124.43,77.33c5.62-19.2-10.04-23.59,2.9-42.96,4.6-6.88,0-16.72,14.86-34.27l.53,38.11,14.61.03.53-38.25c8.14,10.53,10.65,20.07,13.2,30.46,1.22,4.98,8.56,14.6,7.13,19.42-2.82,9.5-4.96,17.33-3.14,25.88,24.49-19.24,69.01-17.3,70.97,5.91-12.48,1.52-22.6,2.69-26.95,15.09l79.83-25.14c2.67,7.53.46,16.25-6.53,21.21-20.61,14.59-41.42,27.7-64.94,37.39-14.41,5.93-30.15,12.74-35.2,28.97-5.49,17.64-2.85,38.18,9.77,52.9l-11.62,29.2c-5.78,5.12-11.13,13.89-4.39,22.31l-11.47,33.11-14.7,11.31,7.43-38.66,8.19-6.52c1.48-1.18.07-7.35-2.04-7.62l-9.47-1.23c-1.09-.14-3.87-1.37-4.94-1.88-3.95-1.91-.24,8.99-7.85,13.75-2.38,1.48-7.68-4.7-7.72-7.48-.02-1.49-.02-7.41-1.06-6.87-1.38.72-5.1,2.58-6.69,2.61l-7.92.13c-2.21.04-4.89,5.76-3.87,7.72,1.02,1.95,4.67,3.89,8.65,5.74l8.39,41.06-15.17-11.73-12.54-33.82c6.2-8.81,2.74-17.96-5.79-24.75l-9.34-25.44c6.57-10.05,10.32-19.21,11.99-31.13,2.64-18.88-5.76-37.55-24.17-45.52-29.17-12.63-56.75-26.25-82.02-46.79-4.31-3.5-4.81-13.21-2.58-17.8l79.01,24.87c-3.01-11.4-13.39-13.61-26.55-14.98,1.85-21.16,39.16-23.73,61.31-11.98l9.37,7.67Z"/>
  </g>
</svg>