<?xml version="1.0" encoding="UTF-8"?>
<svg id="Layer_2" data-name="Layer 2" xmlns="http://www.w3.org/2000/svg" viewBox="0 0 53.32 46.18">
  <defs>
    <style>
      .cls-1 {
        fill: #44ffe9;
      }

      .cls-2 {
        fill: #44b7e9;
      }
    </style>
  </defs>
  <g id="Layer_1-2" data-name="Layer 1">
    <g id="demon_Missile">
      <path class="cls-1" d="M39.99,0H13.33l13.33,23.09L39.99,0ZM25.69,17.56L17.5,3.38c-.43-.75.11-1.68.97-1.68h16.37c.86,0,1.4.93.97,1.68l-8.19,14.18c-.43.75-1.51.75-1.94,0Z"/>
      <path class="cls-1" d="M26.66,23.09h0L13.33,0h0S0,23.09,0,23.09h26.66ZM21.39,21.16H5.01c-.86,0-1.4-.93-.97-1.68L12.23,5.3c.43-.75,1.51-.75,1.94,0l8.19,14.18c.43.75-.11,1.68-.97,1.68Z"/>
      <path class="cls-1" d="M53.32,23.09L39.99,0l-13.33,23.09h26.66ZM30.97,19.48l8.19-14.18c.43-.75,1.51-.75,1.94,0l8.19,14.18c.43.75-.11,1.68-.97,1.68h-16.37c-.86,0-1.4-.93-.97-1.68Z"/>
      <path class="cls-1" d="M13.33,46.18h26.66l-13.33-23.09-13.33,23.09ZM35.82,42.8c.43.75-.11,1.68-.97,1.68h-16.37c-.86,0-1.4-.93-.97-1.68l8.19-14.18c.43-.75,1.51-.75,1.94,0l8.19,14.18Z"/>
      <path class="cls-1" d="M53.32,23.09h-26.66l13.33,23.09h0s13.33-23.09,13.33-23.09ZM31.94,25.01h16.37c.86,0,1.4.93.97,1.68l-8.19,14.18c-.43.75-1.51.75-1.94,0l-8.19-14.18c-.43-.75.11-1.68.97-1.68Z"/>
      <path class="cls-1" d="M0,23.09l13.33,23.09,13.33-23.09H0ZM22.36,26.7l-8.19,14.18c-.43.75-1.51.75-1.94,0l-8.19-14.18c-.43-.75.11-1.68.97-1.68h16.37c.86,0,1.4.93.97,1.68Z"/>
      <path class="cls-2" d="M27.63,17.56l8.19-14.18c.43-.75-.11-1.68-.97-1.68h-16.37c-.86,0-1.4.93-.97,1.68l8.19,14.18c.43.75,1.51.75,1.94,0Z"/>
      <path class="cls-2" d="M14.17,5.3c-.43-.75-1.51-.75-1.94,0l-8.19,14.18c-.43.75.11,1.68.97,1.68h16.37c.86,0,1.4-.93.97-1.68L14.17,5.3Z"/>
      <path class="cls-2" d="M21.39,25.01H5.01c-.86,0-1.4.93-.97,1.68l8.19,14.18c.43.75,1.51.75,1.94,0l8.19-14.18c.43-.75-.11-1.68-.97-1.68Z"/>
      <path class="cls-2" d="M25.69,28.62l-8.19,14.18c-.43.75.11,1.68.97,1.68h16.37c.86,0,1.4-.93.97-1.68l-8.19-14.18c-.43-.75-1.51-.75-1.94,0Z"/>
      <path class="cls-2" d="M39.15,40.87c.43.75,1.51.75,1.94,0l8.19-14.18c.43-.75-.11-1.68-.97-1.68h-16.37c-.86,0-1.4.93-.97,1.68l8.19,14.18Z"/>
      <path class="cls-2" d="M31.94,21.16h16.37c.86,0,1.4-.93.97-1.68l-8.19-14.18c-.43-.75-1.51-.75-1.94,0l-8.19,14.18c-.43.75.11,1.68.97,1.68Z"/>
    </g>
  </g>
</svg>