<?xml version="1.0" encoding="UTF-8"?>
<svg xmlns="http://www.w3.org/2000/svg" xmlns:xlink="http://www.w3.org/1999/xlink" viewBox="0 0 53.32 46.18">
  <defs>
    <style>
      .cls-1 {
        fill: url(#Blue_Green_Radial);
      }

      .cls-2 {
        fill: aqua;
        mix-blend-mode: hard-light;
      }

      .cls-3 {
        isolation: isolate;
      }

      .cls-4 {
        fill: url(#Blue_Green_Radial-5);
      }

      .cls-5 {
        fill: url(#Blue_Green_Radial-6);
      }

      .cls-6 {
        fill: url(#Blue_Green_Radial-3);
      }

      .cls-7 {
        fill: url(#Blue_Green_Radial-4);
      }

      .cls-8 {
        fill: url(#Blue_Green_Radial-2);
      }
    </style>
    <radialGradient id="Blue_Green_Radial" data-name="Blue Green Radial" cx="26.66" cy="9.91" fx="26.66" fy="9.91" r="8.78" gradientUnits="userSpaceOnUse">
      <stop offset="0" stop-color="#fff"/>
      <stop offset=".12" stop-color="#d5ebef"/>
      <stop offset=".26" stop-color="#acd8df"/>
      <stop offset=".4" stop-color="#89c9d2"/>
      <stop offset=".54" stop-color="#6fbcc8"/>
      <stop offset=".69" stop-color="#5cb3c1"/>
      <stop offset=".84" stop-color="#50aebd"/>
      <stop offset="1" stop-color="#4dadbc"/>
    </radialGradient>
    <radialGradient id="Blue_Green_Radial-2" data-name="Blue Green Radial" cx="13.2" cy="12.95" fx="13.2" fy="12.95" r="8.78" xlink:href="#Blue_Green_Radial"/>
    <radialGradient id="Blue_Green_Radial-3" data-name="Blue Green Radial" cx="13.2" cy="33.22" fx="13.2" fy="33.22" r="8.78" xlink:href="#Blue_Green_Radial"/>
    <radialGradient id="Blue_Green_Radial-4" data-name="Blue Green Radial" cx="26.66" cy="36.27" fx="26.66" fy="36.27" r="8.78" xlink:href="#Blue_Green_Radial"/>
    <radialGradient id="Blue_Green_Radial-5" data-name="Blue Green Radial" cx="40.12" cy="33.22" fx="40.12" fy="33.22" r="8.78" xlink:href="#Blue_Green_Radial"/>
    <radialGradient id="Blue_Green_Radial-6" data-name="Blue Green Radial" cx="40.12" cy="12.95" fx="40.12" fy="12.95" r="8.78" xlink:href="#Blue_Green_Radial"/>
  </defs>
  <g class="cls-3">
    <g id="Layer_2" data-name="Layer 2">
      <g id="Layer_1-2" data-name="Layer 1">
        <g id="demon_Missile">
          <path class="cls-2" d="M39.99,0H13.33l13.33,23.09L39.99,0ZM25.69,17.56L17.5,3.38c-.43-.75.11-1.68.97-1.68h16.37c.86,0,1.4.93.97,1.68l-8.19,14.18c-.43.75-1.51.75-1.94,0Z"/>
          <path class="cls-2" d="M26.66,23.09h0L13.33,0h0S0,23.09,0,23.09h26.66ZM21.39,21.16H5.01c-.86,0-1.4-.93-.97-1.68L12.23,5.3c.43-.75,1.51-.75,1.94,0l8.19,14.18c.43.75-.11,1.68-.97,1.68Z"/>
          <path class="cls-2" d="M53.32,23.09L39.99,0l-13.33,23.09h26.66ZM30.97,19.48l8.19-14.18c.43-.75,1.51-.75,1.94,0l8.19,14.18c.43.75-.11,1.68-.97,1.68h-16.37c-.86,0-1.4-.93-.97-1.68Z"/>
          <path class="cls-2" d="M13.33,46.18h26.66l-13.33-23.09-13.33,23.09ZM35.82,42.8c.43.75-.11,1.68-.97,1.68h-16.37c-.86,0-1.4-.93-.97-1.68l8.19-14.18c.43-.75,1.51-.75,1.94,0l8.19,14.18Z"/>
          <path class="cls-2" d="M53.32,23.09h-26.66l13.33,23.09h0s13.33-23.09,13.33-23.09ZM31.94,25.01h16.37c.86,0,1.4.93.97,1.68l-8.19,14.18c-.43.75-1.51.75-1.94,0l-8.19-14.18c-.43-.75.11-1.68.97-1.68Z"/>
          <path class="cls-2" d="M0,23.09l13.33,23.09,13.33-23.09H0ZM22.36,26.7l-8.19,14.18c-.43.75-1.51.75-1.94,0l-8.19-14.18c-.43-.75.11-1.68.97-1.68h16.37c.86,0,1.4.93.97,1.68Z"/>
          <path class="cls-1" d="M27.63,17.56l8.19-14.18c.43-.75-.11-1.68-.97-1.68h-16.37c-.86,0-1.4.93-.97,1.68l8.19,14.18c.43.75,1.51.75,1.94,0Z"/>
          <path class="cls-8" d="M14.17,5.3c-.43-.75-1.51-.75-1.94,0l-8.19,14.18c-.43.75.11,1.68.97,1.68h16.37c.86,0,1.4-.93.97-1.68L14.17,5.3Z"/>
          <path class="cls-6" d="M21.39,25.01H5.01c-.86,0-1.4.93-.97,1.68l8.19,14.18c.43.75,1.51.75,1.94,0l8.19-14.18c.43-.75-.11-1.68-.97-1.68Z"/>
          <path class="cls-7" d="M25.69,28.62l-8.19,14.18c-.43.75.11,1.68.97,1.68h16.37c.86,0,1.4-.93.97-1.68l-8.19-14.18c-.43-.75-1.51-.75-1.94,0Z"/>
          <path class="cls-4" d="M39.15,40.87c.43.75,1.51.75,1.94,0l8.19-14.18c.43-.75-.11-1.68-.97-1.68h-16.37c-.86,0-1.4.93-.97,1.68l8.19,14.18Z"/>
          <path class="cls-5" d="M31.94,21.16h16.37c.86,0,1.4-.93.97-1.68l-8.19-14.18c-.43-.75-1.51-.75-1.94,0l-8.19,14.18c-.43.75.11,1.68.97,1.68Z"/>
        </g>
      </g>
    </g>
  </g>
</svg>