<?xml version="1.0" encoding="UTF-8"?>
<svg id="Layer_2" data-name="Layer 2" xmlns="http://www.w3.org/2000/svg" viewBox="0 0 53.32 46.18">
  <defs>
    <style>
      .cls-1 {
        fill: #44ffe9;
      }

      .cls-2 {
        fill: #44b7e9;
      }
    </style>
  </defs>
  <g id="Layer_1-2" data-name="Layer 1">
    <g>
      <polygon class="cls-1" points="39.99 0 26.66 23.09 13.33 0 39.99 0"/>
      <polygon class="cls-1" points="0 23.09 13.33 0 26.66 23.09 0 23.09"/>
      <polygon class="cls-1" points="26.66 23.09 39.99 0 53.32 23.09 26.66 23.09"/>
      <polygon class="cls-1" points="13.33 46.18 26.66 23.09 39.99 46.18 13.33 46.18"/>
      <polygon class="cls-1" points="53.32 23.09 39.99 46.18 26.66 23.09 53.32 23.09"/>
      <polygon class="cls-1" points="26.66 23.09 13.33 46.18 0 23.09 26.66 23.09"/>
      <path class="cls-2" d="M27.63,17.56l8.19-14.18c.43-.75-.11-1.68-.97-1.68h-16.37c-.86,0-1.4.93-.97,1.68l8.19,14.18c.43.75,1.51.75,1.94,0Z"/>
      <path class="cls-2" d="M22.36,19.48L14.17,5.3c-.43-.75-1.51-.75-1.94,0l-8.19,14.18c-.43.75.11,1.68.97,1.68h16.37c.86,0,1.4-.93.97-1.68Z"/>
      <path class="cls-2" d="M21.39,25.01H5.01c-.86,0-1.4.93-.97,1.68l8.19,14.18c.43.75,1.51.75,1.94,0l8.19-14.18c.43-.75-.11-1.68-.97-1.68Z"/>
      <path class="cls-2" d="M25.69,28.62l-8.19,14.18c-.43.75.11,1.68.97,1.68h16.37c.86,0,1.4-.93.97-1.68l-8.19-14.18c-.43-.75-1.51-.75-1.94,0Z"/>
      <path class="cls-2" d="M30.97,26.7l8.19,14.18c.43.75,1.51.75,1.94,0l8.19-14.18c.43-.75-.11-1.68-.97-1.68h-16.37c-.86,0-1.4.93-.97,1.68Z"/>
      <path class="cls-2" d="M31.94,21.16h16.37c.86,0,1.4-.93.97-1.68l-8.19-14.18c-.43-.75-1.51-.75-1.94,0l-8.19,14.18c-.43.75.11,1.68.97,1.68Z"/>
    </g>
  </g>
</svg>