<?xml version="1.0" encoding="UTF-8"?>
<svg xmlns="http://www.w3.org/2000/svg" viewBox="0 0 220.32 400">
  <defs>
    <style>
      .cls-1 {
        fill: aqua;
        mix-blend-mode: hard-light;
      }

      .cls-2 {
        isolation: isolate;
      }
    </style>
  </defs>
  <g class="cls-2">
    <g id="Layer_2" data-name="Layer 2">
      <g id="Layer_1-2" data-name="Layer 1">
        <path class="cls-1" d="M219.58,101.07c-.47-12.57-10.07-12.93-11.16-12.93-2.48,0-4.56.77-6.43,2.05l-10.84-11.71c0-.26-.02-.53-.04-.8-.02-.26-.02-.51,0-.73.68.1,1.46.2,2.32.2,3.76,0,7.15-1.83,9.05-4.91,1.98-3.2,2.09-7.22.3-11.04-.42-.9-.92-1.73-1.49-2.47-.67-1.35-1.45-2.32-1.9-2.88l-.11-.14-13.62-22.43c-1.09-1.8-.82-4.32-.31-7.69.4-2.66.81-5.4-.08-8.36-.45-1.5-1.87-4.85-5.82-6.68-.35-.44-.81-1.11-1.15-1.6-1.72-2.5-4.3-6.26-9.12-8.04-.97-.41-2.42-.9-4.3-.9-3.82,0-7.23,2.02-9.12,5.4-.04.08-.09.16-.13.24l-3.06,2.81-2.12,2.2c-3.39-1.04-6.65-1.15-9.56-1.15l-11.84.02c-1.54,0-9.1.51-10.68,10.03-.54,1.43-.78,3.05-.57,4.83v.99c-1.49-.92-3.85-2.04-6.92-2.04-.18,0-.37,0-.55.01-3.37.15-5.76,1.77-7.03,2.8.07-1.41-.12-2.64-.34-3.59.21-1.85-.04-3.77-.75-5.74-1.65-4.58-5.63-7.43-10.39-7.43-.42,0-.86.02-1.42.07l-15.82.37c-1.88.04-3.51.49-4.85.98l-4.38-4.51c-2.47-3.74-5.69-5.64-9.58-5.64-1.38,0-2.73.27-4.02.79l-1.07.44-.94.68c-3.13,2.25-4.95,4.75-6.16,6.4-.28.39-.66.9-.88,1.16-8.11,2.69-7.61,11.38-7.34,16.05.11,1.93.32,5.51-.06,6.69l-.94,2.82c-.1.29-.31.68-.74,1.35l-1.84,2.85-12.56,20.82-.76,1.99c-1.29,3.37-.87,7.1,1.12,10,1.91,2.78,5.07,4.45,8.45,4.45h.56s1.18-.12,1.18-.12c-.02.45-.09.86-.18,1.13l-11.29,6.73,10.52,8.82c.31.26.65.53.99.79,0,1.33-.06,2.74-.12,4.19-.04.78-.07,1.55-.1,2.32l-.08,2.46c-.28-.39-.53-.78-.77-1.18l-.19-.32-5.4-7.69c-3.74-5.33-7.9-6.45-10.73-6.45-2.04,0-4.01.58-5.72,1.68l-1.7,1.09-1.13,1.68c-2.88,4.3-2.83,8.77-2.8,11.44v.1c.01,1.17-.05,2.35-.12,3.6-.06,1.16-.13,2.36-.13,3.64l-.12,18.55c-.01,2.11.46,3.7.91,4.82.92,3.3,2.79,5.76,5.55,7.31.86.48,1.85,1.49,3.07,2.75l.32.33c.55.57,1.2,1.24,1.54,1.68l.13,3.98c.02.62-.03,1.01-.07,1.22l-12.15,6.84,10.84,9.06c.73.61,1.18,1.02,1.45,1.29-.21.57-.38,1.13-.49,1.67l-1.75,3.22c-1.31,1.94-1.95,4.06-1.92,6.31.03,2.32.82,4.49,2.2,6.23,1.47,2.26,3.45,3.51,4.38,4.09l.43.28c1.21.8,2.53,1.67,3.37,2.42-.12,3.59-.12,10.06,4.19,17.07,0,.03,0,.06,0,.1h.05c.46.74.97,1.49,1.53,2.24.18.24.36.46.56.68l3.69-3.18.58-.03-4.12,3.39c3.75,4.55,9.27,7.73,15.54,8.95,1.13.22,1.65.66,1.7.72.01.04.03.22,0,.54-.04.3-.2.93-.38,1.43-.27.74-.59,1.42-.94,2.03l-4.71-2.82-4.81-3.45c-1.79-1.28-3.87-1.96-6.01-1.96-4.4,0-8.24,2.83-9.6,7.05-1.55,4.71-1.55,9.13-1.54,13.02,0,1.09,0,2.12-.03,3.08l-.44,12.3-.63,24.26c-.1,4.03,1.73,7.95,5.04,10.76l8.78,7.45,4.05,3.8,4.35,4.46v4.94s-.41,7.04-.41,7.04l-.84,6.02-.53,2.71-.3.87c-.76,2.21-2.38,9.85,8.46,15.39l9.4,4.8c.22.11.73.5,1.1.78.6.45,1.32.99,2.19,1.51l3.05,3.34,1.25,1.85c3.25,4.81,4.64,11.23,6.11,18.02l1.04,4.79c1.33,6.15,3.96,10.78,8.04,14.15l2.17,1.79c.06.06.13.13.19.2.63.66,1.69,1.75,3.2,2.7.66.59,1.39,1.09,2.17,1.49,2.04,1.51,4.47,2.4,6.91,2.44h.19c4.84,0,9.16-3.29,11.01-8.38l3.75-10.34c2.48-6.85,5.2-14.98,6.81-23.99.99,7.23,2.64,14.14,5.04,21.11l4.74,13.74c1.7,4.93,5.85,7.99,10.82,7.99h.26s.18,0,.18,0c4.07-.15,6.52-2.18,7.56-3.04l7.34-5.94c5.12-4.14,6.91-9.26,8-13.73l1.79-7.38.85-3.68c1.55-6.69,5.28-13.32,9.72-17.31,3.13-2.81,7.01-5.11,12.21-7.26,5.75-2.37,9.16-8.28,8.12-14.05l-.9-5.01-.85-5.43c-.49-3.1-.43-6.72-.37-10.56l.02-1.14c0-.11,0-.21,0-.29l5-4.95,9.97-8.9c7.2-6.42,8.32-9.14,8.02-19.41l-.61-21.55c-.06-2.1-.06-4.19-.06-6.4,0-5.04,0-10.26-.73-15.7-.7-5.27-5.28-9.24-10.64-9.24h-.61s-.56.07-.56.07c-1.19.14-2.97.56-4.73,1.77-1.32.6-2.36,1.3-3.08,1.78-.14.09-.27.19-.4.27l-2.85,1.79c-1.07.67-2.28,1.32-3.81,2.02l-.47.22c-.7-1.15-1.07-2.07-1.3-3.14-.05-.25.57-1.2,1.53-1.41,7.37-1.66,13.04-5.18,16.84-10.46,3.89-5.4,5.78-12.11,5.35-19.07l5.24-3.87c5.02-3.72,6-10.68,2.24-15.85-.82-1.13-1.29-3.07-1.41-4.38l8.99-9.83-8.65-6.65-.07-5.9c.54-.87,1.04-1.39,1.61-1.86l2.93-2.4c.16-.13.35-.25.53-.38,2.07-1.45,6.92-4.85,7.03-11.38l.08-4.53.13-4.82-.74-19.94ZM155.95,276.39c-.68-.08-1.46-.16-2.22-.19-.23,0-.46-.01-.68-.01h-.34s-.29.01-.29.01c-3.81.16-7.09,1.97-9.02,4.99-2,3.13-2.47,7-1.26,10.31l2.95,8.13c.02.76-.05,2.08-.11,3.1-.22,4.01-.53,9.48,1.52,15,.01.26.02.7.02,1.04,0,.35,0,.7.02,1.06.02.88,0,1.54-.04,2.03-.61.27-1.3.61-2.04,1.07-1.98,1.24-3.7,2.78-5.13,4.56-.81-1.69-1.87-3.4-3.29-5.11-.58-.69-.57-4.94-.57-6.33l.1-67.1.14-16.11,22.48,34.75c1.14,1.76,2.75,3.09,4.62,3.89l-4.94,5.06s-.1,0-.16,0c-.48,0-1.1-.07-1.76-.14ZM148.06,180.85l-.26.83-.23,1.72-1.37,3.06c-.26.58-.5,1.16-.73,1.74-.18.46-.43,1.08-.51,1.22-.54.73-1.44,2.08-2.05,3.86l-2.35,3.47v-9.15s.18-16.03.18-16.03l.35-5.47.05-.56c1.1-.97,2.08-2.06,2.93-3.27,1.68,2.83,2.93,5.57,3.71,8.16l.38,1.7c.23,1.02.38,2.01.45,2.96l.12,1.54c-.02,1.48-.24,2.87-.67,4.22ZM201.19,90.77c-2.65,2.08-4.91,5.19-7.35,8.56-.72.99-1.6,2.2-2.47,3.34l-.06-7.78,9.88-4.11ZM74.46,303.29c-.23-1.12-.26-2.52-.07-3.42l.04-.19c.41-.91.7-1.91.84-3.01.02-.05.04-.1.07-.16,1.1-2.6,2.78-6.53,2.2-11.42v-9.03l-1.14.05h0s-9.85.41-9.85.41c-.92.04-1.75.08-2.53.08-.27,0-.53,0-.74-.02-.05,0-.09,0-.12-.01-.08-.06-.19-.16-.33-.31l-4.09-4.19,26.45-39.55.11,17.57h.07s.2,30.75.2,30.75v5.95s-.03-.02-.03-.02v21.04l.08.03.02,11.01c0,1.03-.31,2.1-.51,2.48-1.69,2.14-3.04,4.38-4.09,6.78-2-2.62-4.64-4.88-7.34-6.15,0-.03,0-.06-.01-.09-.26-1.72.06-3.53.47-5.81.61-3.41,1.37-7.66.32-12.77ZM71.53,174.65c.05-2.2.91-4.82,2.63-7.98.39-.71.65-1.38.83-1.93l1.33-2.05c.73,1.1,1.59,2.1,2.54,2.97.05.61.08,1.19.09,1.7l.23,18.77c-.31.94-.49,1.93-.51,2.96-.01.55.02,1.1.09,1.64,0,.03,0,.07-.01.1h-.07c-.17,1.49-.15,2.83-.11,3.95l-.12-.17-1.03-1.9c-.44-.81-.94-1.53-1.44-2.14l-3.95-8.91c-.41-.92-.62-2.33-.58-3.88l.07-3.12Z"/>
      </g>
    </g>
  </g>
</svg>