<?xml version="1.0" encoding="UTF-8"?>
<svg id="Layer_2" data-name="Layer 2" xmlns="http://www.w3.org/2000/svg" viewBox="0 0 303.99 319.38">
  <defs>
    <style>
      .cls-1 {
        fill: aqua;
        opacity: .69;
      }
    </style>
  </defs>
  <g id="Layer_1-2" data-name="Layer 1">
    <path class="cls-1" d="M302.76,76.71l-.64-1.82-77.37,24.36c4.51-7.52,12.61-8.51,23.28-9.81l2.13-.26-.16-1.92c-1.07-12.66-14.06-20.84-33.1-20.84-13.74,0-27.83,4.27-38.4,11.54-.67-6.65,1.04-13.13,3.59-21.75,1.13-3.81-1.55-8.95-4.15-13.93-1.32-2.53-2.56-4.92-2.96-6.53-2.41-9.84-4.91-20.02-13.56-31.21l-3.5-4.53-.58,41.99-10.66-.02-.58-41.48-3.45,4.08c-10.02,11.83-11.53,20.44-12.63,26.72-.56,3.17-1,5.67-2.37,7.73-7.81,11.68-5.78,18.68-3.83,25.45,1.26,4.35,2.55,8.84,1.39,15.05l-7.06-5.78-.18-.09c-8.62-4.57-19.77-7.2-30.6-7.2-19.63,0-32.52,7.96-33.64,20.77l-.17,1.96,1.96.21c12.43,1.3,19.95,3.33,23.42,9.85L2.22,75.09l-.75,1.56c-2.42,4.99-2.17,15.93,3.12,20.23,26.3,21.38,55.19,35.26,82.49,47.08,16.64,7.2,25.66,24.24,22.98,43.41-1.57,11.24-4.96,20.03-11.68,30.32l-.55.84,9.88,26.91.44.35c4.03,3.21,12.63,11.77,5.4,22.03l-.61.86,13.1,35.34,19.89,15.38-9.67-47.32-.91-.42c-1.69-.79-6.85-3.18-7.7-4.8-.3-1.03,1.23-4.35,2.21-4.85l7.81-.12c1.17-.02,3.04-.63,5.57-1.83.07.83.12,2.05.14,3.86v.26c.05,3.59,5.11,9.68,8.89,9.68.69,0,1.33-.18,1.89-.53,5.04-3.15,5.88-8.58,6.39-11.83.07-.46.16-1.02.25-1.48,1.19.54,3.57,1.57,4.84,1.73l9.27,1.21c.67.65,1.33,3.29,1.06,4.25l-8.59,6.83-8.56,44.56,19.36-14.89,12.03-34.72-.69-.86c-1.74-2.18-6.6-10.04,4.16-19.56l.36-.32,12.24-30.76-.79-.92c-11.43-13.34-15.02-32.88-9.38-51.01,4.89-15.71,21.06-22.37,34.05-27.72,25.73-10.59,47.47-24.95,65.34-37.6,7.45-5.28,10.37-14.72,7.26-23.5Z"/>
  </g>
</svg>