<?xml version="1.0" encoding="UTF-8"?>
<svg id="Layer_2" data-name="Layer 2" xmlns="http://www.w3.org/2000/svg" viewBox="0 0 194.16 200">
  <g id="Layer_1-2" data-name="Layer 1">
    <path d="M67.36,54.83l2.61-.2,8.5,5.58c.51,1.76,2.49,5.22,4.83,3.53,1.3-1.44.77-6.18,1.55-8.02,2.34-5.5,5.7-10.07,8.95-14.78l6.88.12c3.04,4.71,6.64,9.08,8.58,14.44l1.73,8.41c3.38,1.65,3.57-2.73,4.8-3.55l7.9-5.29c.55-.37,2.5-.3,3.14-.28l9.68-9.18c2.17.5,3.56.03,4.86-1.54,5.96-7.24,11.97-14.08,16.78-22.09l12.18-20.28-4.23,19.56c2.26-1.35,2.92-2.29,4.27-3.61L191.7.1c1.73,4.48,2.98,8.6,2.24,12.67l-40.03,69.11,2.91,5.99-2.82,1.02s5.15,11.38,2.72,16.86l-8.95,20.15c-1.49,3.35-5.48,4.54-9.07,3.66l1.79-10.45c-.9-.34-2.21-.67-2.23-1.13l-.12-2.95-.1-2.43c-.02-.47-1.35-.7-1.99-.86-1.59-2.35-4.3-4.65-7.43-4.11-13.76,2.39-10.54,23.16-2.14,35.25l-7.14,19.42-2.8-2.57c-.7,4.98-1.32,8.64-2.72,12.94l4.68-.93-8.02,19.82c-1.87,3.02-5.99,5.84-9.01,8.2l6.49-24.21.57-5.91c.05-.47-1.03-1.4-1.51-1.46-2.78-.33,1.5,7.27-4.51,13.55l.09-6.32c-1.99,1.9-3.36,3.09-5.24,3.15-2.21.06-3.75-1.19-5.57-3.01l-.16,6.17c-2.73-3.47-3.3-6.71-3.38-10.52l-.05-2.63c-.01-.51-1.83-.28-2.42-.13l.6,7.14,6.55,24.42-9.19-7.97-7.88-20.29,4.55.88-2.59-13.06-2.8,2.87-7.15-19.58c4.77-7.09,7.52-15.41,7.19-23.86-.22-5.63-4.03-10.68-9.67-11.38-2.66-.33-5.28,1.95-7.16,3.62-3.63,3.23-1.18,6.38-2.06,6.73l-2.4.98,1.94,10.4c-2.72,1.19-7.46.26-9-3.21l-9.1-20.5c-1.28-2.89-.22-12.47,3.23-16.48l-3.25-1.61,2.78-5.75L0,12.18C.17,7.78.93,4.27,2.56,0l21.23,17.56,4.38,3.67L23.88,1.71l12.47,20.6c5.2,8.59,11.71,15.96,18.34,23.56l3.21-.18,9.46,9.14Z"/>
  </g>
</svg>