<?xml version="1.0" encoding="UTF-8"?>
<svg id="Layer_2" data-name="Layer 2" xmlns="http://www.w3.org/2000/svg" viewBox="0 0 205.1 390">
  <g id="Layer_1-2" data-name="Layer 1">
    <g>
      <path d="M80.02,158.38s-.04-.03-.06-.04c0,0,0,0,0,0,.02.01.04.03.06.04Z"/>
      <path d="M204.35,93.97c-.43-11.46-9.22,7.43-15.74,12.59l-3.59,2.83c-.93.74-2.22,1.41-3.47,1.72-2.7.67-5.4-1.16-5.6-3.94l-.48-6.54-.14-17.79c-.01-1.89,2.37-3.22,4.08-3.93l-3.57-3.86c-.7-1.71-.56-3.21-.66-4.81-.25-4.07.86-7.83,4.03-10.36,3.63-2.9,8.35.1,9.1-1.1.44-.71-.55-2.97-1.46-3.09.13-1.2-1.04-2.04-1.74-3.19l-14.09-23.2c-4.54-7.47-.6-15.98-1.43-18.76-.26-.88-1.09-.69-1.63-1.04-3.89-2.59-5.08-7.92-8.88-9.23-.36-.12-1.01-.58-1.43.18-.17.31-.33.66-.35,1.12l-4.65,4.27-3.6,3.74c-1.94,2.01-4.01,2.99-6.65,1.66-3.14-1.58-6.59-1.48-9.99-1.48h-10.84c-1.45.02-.95,3.61-1.54,3.8-.19.06-.01.5-.01.68l.03,4.61c.05,6.99,5.17,3.07,11.13,8.25,5.71,4.96,10.86,12.79,11.96,19.34,1.13,6.75.11,14.1-5.3,17.61-3.35,2.18-10.78-3.94-12.06-13.06-.91-6.49,2.7-10.18-1.96-11.78-3.54-1.21-7.05-3.52-9.92-6.34-1.12-1.1-2.38-1.87-3.35-3.17-.84-1.11-1.48-2.22-2.54-2.95l-2.19-1.52c-.87-.6-1.76-1.36-3.01-1.3-1.02.05-1.82,1.26-2.64,1.66-2.05.99-3.34,2.85-4.69,4.69-9.12,8.73-15.31,9.23-15.47,9.36-.58.46-.64.85-.6,1.67l.44,7.85c.37,6.59-5.61,14.92-11.93,15.68-.07-.26-.19-.63-.38-.67l-1.04-.19c-2.45-2.19-5.17-5.56-5.34-9.13-.12-2.5-.51-5.05.04-7.34,1.87-7.77,6.37-14.91,12.34-20.13,5.43-4.74,11.02-2.37,11.28-6.01l.35-4.98c.1-1.36-.98-2.78-.47-3.84.37-.77.11-1.41-.07-1.91-.49-1.35-1.26-.96-2.31-.94l-16.36.38c-2.56.06-5.42,3-8.69,1.76l-8.75-9c-.55-.57-1.26-2.56-2.42-2.09-4.52,3.25-4.59,7.38-9.89,9.11-2.12.69.7,11.09-1.25,16.98l-.96,2.88c-.46,1.37-1.11,2.51-1.85,3.65l-1.8,2.8-12.33,20.45-.47,1.23c-.2.53-.07,1.28.55,1.22l2.58-.26c3.25-.88,6.48.79,7.86,3.83,2.46,5.4,1.34,12.99-3.29,15.75,1.69,1.41,4.19,2.77,4.41,4.85.39,3.63.07,7.2-.05,10.64l-.43,12.86c-.08,2.52-2.21,4.48-4.39,4.61-.12,0-.24-.05-.32-.06l-1.78-.09c-4.94-2.24-9.58-6.23-12.56-11.25l-5.31-7.57c-.75-1.07-2.29-2.85-3.27-2.22-1.25,1.86-1.2,4.15-1.18,6.16.03,2.74-.24,5.19-.26,7.6L0,122.94c0,.91.29,1.25.43,1.68.17.52.24,1.5,1.11,1.98,2.1,1.18,3.73,2.82,5.44,4.6,2.01,2.09,3.86,3.89,4.64,6.93l.19,5.82c.13,4.19-1.07,7.99-5,10.2,4.35,3.63,5.87,5.93,4.8,11.56-.13.68-.77,1.29-.38,1.96l-3.09,5.69c-.18.32-.52.58-.51,1.1,0,.27.17.46.43.58.18.87,1.2,1.39,2.03,1.93,3.1,2.04,6.27,4.08,7.95,7.48,1.13,2.28-1.93,9.26,4.16,17.41.04.05.09.1.13.15.05.85.11,1.71.2,2.6,0,0,0-.84.11-2.24,2.55,3.09,6.23,4.96,10.11,5.71,5.99,1.16,10.64,5.61,9.74,12.42-.16,1.2-.54,2.58-.92,3.61-1.29,3.49-3.33,6.69-6.36,9.03-2.81.95-5.72.11-8.51-1.47l-5.79-3.46-5.25-3.77c-.33-.24-.57-.17-.68.18-1.48,4.44-.96,9.18-1.13,13.78l-.46,12.61-.64,24.76c-.03,1.33.78,2.41,1.64,3.14l9.19,7.8,4.5,4.22,6.33,6.49c.48.5,1.12,1.51,1.12,2.25v8.31s-.46,7.92-.46,7.92l-.95,6.82-.72,3.72-.53,1.54c-.35,1.02,1.65,2.55,3.76,3.63l9.63,4.92c2.18,1.11,3.65,2.84,4.83,3l4.99,5.47,1.69,2.5c4.52,6.69,6.16,14.64,7.87,22.53l.94,4.33c.73,3.36,2.02,6.58,4.84,8.91l2.36,1.95c1.08.89,2.02,2.45,3.51,2.49-.15.7.38.85.8.7.54.8,1.44,1.39,2.14,1.41.82.01,1.58-1.12,1.9-2l3.84-10.6c2.98-8.22,5.53-16.34,6.88-24.98l1.44-9.24c.63-4.05,1.59-7.94,3.78-11.52,1.65-2.69,2.94-5.34,3.51-8.47.16-.9.03-1.49.16-2.27.78.02.85-1.1,1.7-.89-.34,3.81,1.17,7.71,3.23,11.17,2.48,4.17,3.6,8.57,4.24,13.38l1.3,9.84c.91,6.9,2.48,13.51,4.78,20.18l4.86,14.08c.36,1.03.9,1.49,1.71,1.46.9-.04,1.28-.44,2.02-1.05l7.35-5.94c2.83-2.29,3.93-5.22,4.77-8.66l1.81-7.46.88-3.77c1.89-8.15,6.47-17.05,13.02-22.93,4.58-4.11,9.81-6.95,15.38-9.25,1.39-.57,2.54-2.02,2.29-3.38l-.95-5.24-.89-5.68c-.69-4.4-.55-9.12-.48-13.69.04-2.72.56-4.88,2.53-6.82l5.76-5.7,9.93-8.86c5.8-5.18,5.59-4.73,5.34-13.49l-.6-21.18c-.21-7.26.22-14.43-.73-21.62-.07-.51-.75-.82-1.05-.79-.41.05-.61.39-.76.67-1.17.08-2.42,1.1-3.48,1.77l-2.92,1.84c-1.57.99-3.23,1.85-5.05,2.69l-1.94.89c-2.57,1.19-5.43,1.61-7.59.25-.72-.53-1.82-1.85-2.36-2.71l-.96-1.51c-1.36-2.14-2.37-4.28-2.93-6.94-1.27-6.03,3.18-11.92,9.15-13.27,4.46-1.01,8.56-2.94,11.35-6.81,2.83-3.92,4-8.68,3.58-13.53-.3-3.52,1.05-5.97,3.73-7.95l5.71-4.23c.89-.66.59-1.72.16-2.32-3.63-4.98-4.26-13.27-2.27-15.46l3.39-3.7-2.59-1.99c-1.24-.95-1.05-3.16-1.54-4.87l-.12-9.64c1.34-2.97,2.9-5.3,5.35-7.3l3.02-2.47c1.47-1.2,4.03-2.4,4.06-4.47l.08-4.69.13-4.67-.75-20.11ZM68.51,343.36l-2.67-8.39c-.75-2.36-3.52-5.21-5.47-6-3.4-1.37-4.91-3.9-5.46-7.56-1.05-6.96,2.25-11.96.9-18.53-.49-2.4-.56-5.21-.06-7.55l.4-2.05c.65-.14.26-1.03.39-1.38,1-2.7,2.65-5.42,2.29-8.51-.02,0-.04,0-.07,0h0c-2.07.08-3.8.19-5.36.08-2.5-.19-4.57-.95-6.88-3.32l-8.55-8.75-3.61-4.57c.03-3.56.45-7.2-.22-10.67-.23-1.18-.05-2.33.86-2.98l6.1,4.16c.96.65,2.08.87,3.28,1.17l27.92-41.75c.87-1.3,1.35-2.27.9-3.41l-.89-2.23-11.19-16.43-1.3-2.4c-.27-.5-.78-1.07-1.14-1.38l-4.72-10.65c-1.1-2.47-1.52-5.36-1.45-8.27l.08-3.2c.11-4.52,1.82-8.87,3.9-12.71.25-.47.34-1.24.58-1.62l4.21-6.48,2.83-3.55,3.24-3.75,3.75-4.17c1.24.73,1.15,1.59,1.37,2.53l2.18,9.42c.65,2.82,2.61,5.04,5.32,5.56-.28,2.39.18,4.83.21,7.41l.27,22.02c-.71.22-.78.99,0,1.27-.32.7-.47,1.43-.55,2.18-.01-.03-.02-.06-.04-.1,0-.02-.01-.03-.02-.04-.19,1.68.07,3.47,0,5.22-.15,3.45.54,6.31,2.79,8.95,1.03,1.21,1.92,2.58,2.59,4.07-.02-.09-.04-.18-.06-.27.84,1.79,1.37,3.78,1.38,5.92l.02,2.98c-.02-.23-.05-.45-.07-.68l.1,15.42c.02-.16.04-.33.07-.51v2.12s-.05.05-.05.05l.05,7.12s.05,0,.07,0l.26,40.68.04,21.12s-.05-.02-.07-.03h0s.05.03.07.04l.03,17.83c0,2.9-.87,6.49-2.61,8.67-2.25,2.83-3.67,5.9-4.38,9.46l-3.59,18.11c-3.25-.16-6.8-6.03-7.96-9.69ZM128.67,352.41c-.91.29-1.34-1.46-1.47-2.09l-1.37-6.4c-1.38-6.42-.41-11.84-4.79-17.11-2.8-3.36-2.9-7.97-2.89-12.9l.11-68.85.31-36.32c.04-4.98,4.79-8.56,4.8-14.41v-12.11s.19-16.74.19-16.74l.38-5.97.48-5.61c3.21-1.22,5.23-3.74,6.05-7.2l1.43-6.02,1.31-4.13c.1.07.32.19.6-.07l4.89,5.17c.3.35.59.72.89,1.08-.01.01-.03.02-.04.04,0,0,0,0,0,0,.01-.01.03-.03.04-.04,4.95,6.1,9.62,13.62,11.39,21.51-.02,0-.05,0-.07,0,.33,1.48.57,2.98.68,4.48.02,0,.05,0,.07,0,.24,3.22-.06,6.47-1.09,9.68l-.31,2.33-1.99,4.46c-.76,1.71-1.22,3.37-2.4,4.95-.48.64-.87,1.59-.78,2.12l-1.94,2.87s-.01-.05-.02-.08l-2.85,4.21s.02.04.02.07l-4.46,6.59-3.98,6.13c-.32.49-.93,1.6-.71,2.49l28.66,44.31c.54.84,2.53-.48,3.23-.91l5.36-3.29c.9-.55,1.1-1.38,2.31-1.06l-.14,12.67-1.23,2.76c-.79.25-1.28,1.26-1.87,1.96l-9.41,9.62c-4.01,4.1-8.99,2.6-11.64,2.51-.15,0-.29,0-.42,0-.02,0-.04,0-.06,0-.6.02-1.04.15-1.27.51-.21.32-.55,1.15-.32,1.78l.15.41s.03-.03.05-.04l2.93,8.06c1.5,4.11-1.2,11.96,1.38,18.61.64,1.65.53,3.3.58,5.15.28,10.89-4.3,10.33-6.82,11.91-2.08,1.3-3.66,3.18-4.56,5.74l-2.15,6.11c-.64,1.82-1.21,3.46-1.99,5.01-1.16,2.31-2.55,5.19-5.29,6.08Z"/>
    </g>
  </g>
</svg>