<?xml version="1.0" encoding="UTF-8"?>
<svg id="Layer_2" data-name="Layer 2" xmlns="http://www.w3.org/2000/svg" xmlns:xlink="http://www.w3.org/1999/xlink" viewBox="0 0 1005.76 1655.69">
  <defs>
    <style>
      .cls-1 {
        fill: url(#linear-gradient);
      }

      .cls-2 {
        fill: red;
      }
    </style>
    <linearGradient id="linear-gradient" x1=".14" y1="818.46" x2="1005.76" y2="818.46" gradientTransform="translate(1005.76 1655.69) rotate(-180)" gradientUnits="userSpaceOnUse">
      <stop offset="0" stop-color="#e30000" stop-opacity=".9"/>
      <stop offset=".2" stop-color="#e30000" stop-opacity=".8"/>
      <stop offset=".3" stop-color="#ba0000" stop-opacity=".4"/>
      <stop offset=".6" stop-color="#000" stop-opacity="0"/>
    </linearGradient>
  </defs>
  <g id="Layer_1-2" data-name="Layer 1">
    <path class="cls-2" d="M998.31,1646.5c-.73-.83-1.97-1.5-2.77-1.5h-145.49c-1.1,0-2.57-.16-3.26-.36s-2.44-1.98-3.09-2.87l-37.5-51.65c-.65-.89-1.32-2.15-1.5-2.79s.68-2.56,1.12-3.16,1.26-1.46,1.83-1.91,3.04-.81,4.14-.81h6.74c1.1,0,2.55-.18,3.22-.39s2.23-2.12,2.78-3.07l17.86-30.94c.55-.95,1.12-2.3,1.27-2.99s-.72-2.99-1.28-3.94l-.03-.06c-.55-.95-1.11-2.29-1.24-2.96s.94-2.85,1.59-3.74l.99-1.37c.65-.89,1.64-1.98,2.21-2.43s3.04-.81,4.14-.81h143.85c.05,0,.09-.46.09-1.02v-149.28c0-1.1-.05-2.9-.1-4,0,0,0-.05-.13-.1-.13-.05-.23-.11-.23-.11-.96-.54-2.53-1.42-3.49-1.96l-9.21-5.21c-.96-.54-2.13-1.41-2.61-1.93s-.87-2.94-.87-4.04v-11.31c0-1.1-.18-2.55-.39-3.22s-2.12-2.23-3.07-2.78l-30.94-17.86c-.95-.55-2.3-1.12-2.99-1.28s-2.99.73-3.94,1.28l-10.33,5.96c-.95.55-2.3,1.13-2.99,1.28s-3-.71-3.96-1.25l-7.15-4.05c-.96-.54-2.13-1.41-2.61-1.93s-.87-2.94-.87-4.04v-254.9c0-1.1.18-2.55.39-3.22s2.12-2.23,3.07-2.78l16.14-9.32c.95-.55,2.12-1.43,2.6-1.95s.87-2.95.87-4.05v-30.39c0-.55.18-1.1.39-1.22s2.12-1.23,3.07-1.78l30.94-17.86c.95-.55,2.12-1.43,2.6-1.95s.87-2.95.87-4.05v-35.73c0-1.1-.18-2.55-.39-3.22s-2.12-2.23-3.07-2.78l-22.48-12.98c-.95-.55-2.12-1.43-2.6-1.95s-.87-2.95-.87-4.05v-211.89c0-1.1.18-2.55.39-3.22s2.12-2.23,3.07-2.78l22.48-12.98c.95-.55,2.12-1.43,2.6-1.95s.87-2.95.87-4.05v-35.73c0-1.1-.18-2.55-.39-3.22s-2.12-2.23-3.07-2.78l-6.3-3.64c-.95-.55-2.12-1.43-2.6-1.95s-.87-2.95-.87-4.05v-55.01c0-1.1-.18-2.55-.39-3.22s-2.12-2.23-3.07-2.78l-26.77-15.46c-.95-.55-2.12-1.43-2.6-1.95s-.87-2.95-.87-4.05v-133.27c0-1.1.18-2.55.39-3.22s2.12-2.23,3.07-2.78l9.3-5.37c.95-.55,2.12-1.43,2.6-1.95s.87-2.95.87-4.05v-35.73c0-1.1-.18-2.55-.39-3.22s-2.12-2.23-3.07-2.78l-9.3-5.37c-.95-.55-2.12-1.43-2.6-1.95s-.87-2.95-.87-4.05v-30.68c0-1.1.18-2.55.39-3.22s2.12-2.23,3.07-2.78l26.77-15.46c.95-.55,2.12-1.43,2.6-1.95s.87-2.95.87-4.05v-35.73c0-1.1-.18-2.55-.39-3.22s-2.12-2.23-3.07-2.78l-4.62-2.67c-.95-.55-2.12-1.43-2.6-1.95s-.87-2.95-.87-4.05v-112.5c0-1.1,0-2.9,0-4,0,0,0-.45.01-1,.01-.55-.03-.56-.03-.56-1.07-.24-2.85-.44-3.95-.44h-221.74c-1.1,0-2.38-.19-2.84-.42s-.14-2.29.24-3.33l18.92-50.63c.39-1.03.79-2.48.89-3.23s-.51-3.23-.89-4.26l-18.92-50.63c-.39-1.03-.66-2.3-.6-2.81s2.1-.94,3.2-.94h286.2c.55,0,.56.05.56.05.24,1.07.44,1.05.44-.05V2c0-1.1-.9-2-2-2h-299.61c-1.1,0-2.38.19-2.84.42s-.14,2.3.24,3.33l22.66,60.63c.39,1.03.79,2.48.89,3.23s-.51,3.23-.89,4.26l-22.66,60.63c-.39,1.03-.66,2.29-.6,2.81s2.1.94,3.2.94h226.11c1.1,0,2.45.2,3,.45s1,2.45,1,3.55v110.28c0,1.1.18,2.55.39,3.22s2.12,2.23,3.07,2.78l4.62,2.67c.95.55,2.12,1.43,2.6,1.95s.87,2.95.87,4.05v24.18c0,1.1-.18,2.55-.39,3.22s-2.12,2.23-3.07,2.78l-26.77,15.46c-.95.55-2.12,1.43-2.6,1.95s-.87,2.95-.87,4.05v42.23c0,1.1.18,2.55.39,3.22s2.12,2.23,3.07,2.78l9.3,5.37c.95.55,2.12,1.43,2.6,1.95s.87,2.95.87,4.05v24.18c0,1.1-.18,2.55-.39,3.22s-2.12,2.23-3.07,2.78l-9.3,5.37c-.95.55-2.12,1.43-2.6,1.95s-.87,2.95-.87,4.05v144.82c0,1.1.18,2.55.39,3.22s2.12,2.23,3.07,2.78l26.77,15.46c.95.55,2.12,1.43,2.6,1.95s.87,2.95.87,4.05v55.01c0,1.1.18,2.55.39,3.22s2.12,2.23,3.07,2.78l6.3,3.64c.95.55,2.12,1.43,2.6,1.95s.87,2.95.87,4.05v24.18c0,1.1-.18,2.55-.39,3.22s-2.12,2.23-3.07,2.78l-22.48,12.98c-.95.55-2.12,1.43-2.6,1.95s-.87,2.95-.87,4.05v223.43c0,1.1.18,2.55.39,3.22s2.12,2.23,3.07,2.78l22.48,12.98c.95.55,2.12,1.43,2.6,1.95s.87,2.95.87,4.05v24.18c0,1.1-.18,2.55-.39,3.22s-2.12,2.23-3.07,2.78l-30.94,17.86c-.95.55-2.12,1.43-2.6,1.95s-.87,2.95-.87,4.05v27.39c0,1.1-.18,2.55-.39,3.22s-2.12,2.23-3.07,2.78l-16.14,9.32c-.95.55-2.12,1.43-2.6,1.95s-.87,2.95-.87,4.05v266.5c0,1.1.18,2.55.39,3.22s2.13,2.21,3.09,2.75l17.2,9.74c.96.54,2.31,1.11,3,1.25s2.99-.73,3.94-1.28l10.28-5.94c.95-.55,2.3-1.12,2.99-1.28s2.99.73,3.94,1.28l20.94,12.09c.95.55,2.12,1.43,2.6,1.95s.87,2.95.87,4.05v11.36c0,1.1.18,2.55.39,3.22s2.13,2.21,3.09,2.75l9.67,5.48c.96.54,2.13,1.41,2.61,1.93s.87,2.94.87,4.04v130.39c0,1.1-.2,2.45-.45,3s-2.45,1-3.55,1h-135.04c-1.1,0-2.57.16-3.26.36s-2.44,1.98-3.09,2.87l-7.8,10.75c-.65.89-1.34,2.16-1.54,2.82s.64,2.93,1.19,3.88l.39.68c.55.95,1.12,2.3,1.28,2.99s-.73,2.99-1.28,3.94l-12.09,20.94c-.55.95-1.43,2.12-1.95,2.6s-2.95.87-4.05.87h-6.06c-1.1,0-2.57.16-3.26.36s-2.44,1.98-3.09,2.87l-6.5,8.95c-.65.89-1.32,2.15-1.5,2.79s.85,2.79,1.5,3.68l44.76,61.65c.65.89,1.64,1.98,2.21,2.43s3.04.81,4.14.81h158.81c1.1,0,1.41-.68.68-1.5l-6.13-6.99Z"/>
    <path class="cls-1" d="M1005.62,1655.69v-.69h-158.81c-1.1,0-3.57-.36-4.14-.81-.57-.45-1.57-1.54-2.21-2.43l-7.28-10.03h-19.56v-26.95l-11-15.15v42.1h-79v-79h79v11.43c.79-.93,2.09-2.19,2.67-2.36.7-.2,2.16-.36,3.26-.36h5.07v-8.71h10.03l6.35-11h-16.38v-79h79v46.01h11v-46.01h79v45.96c1.14-.13,2.58-.5,2.78-.95.25-.55.45-1.9.45-3v-130.39c0-1.1-.39-3.52-.87-4.04s-1.65-1.39-2.61-1.93l-9.67-5.48c-.43-.25-1.06-.69-1.64-1.17h-67.44v-37.93l-.17-.09c-.96-.54-2.87-2.08-3.09-2.75s-.39-2.12-.39-3.22v-266.5c0-1.1.39-3.53.87-4.05.48-.52,1.65-1.4,2.6-1.95l.18-.11v-32.4h19.42v-10.2c0-.22.02-.5.05-.8h-19.46v-79h27.88v-11h-27.88v-79h27.88v-11h-27.88v-79h27.88v-11h-27.88v-79h57.29v-1.82c0-1.1-.39-3.53-.87-4.05-.48-.52-1.65-1.4-2.6-1.95l-5.5-3.18h-48.32v-79h20.62l-6.81-3.93c-.95-.55-2.86-2.1-3.07-2.77s-.39-2.12-.39-3.23v-1.07h-10.35v-79h10.35v-11h-10.35v-79h26.58v-11h-26.58v-79h27.85l12.74-7.36c.95-.55,2.86-2.1,3.07-2.77.07-.22.13-.52.19-.87h-43.86v-79h32.51v-11h-32.51v-65.48h-11v65.48h-79v-65.48h-11v65.48h-79v-65.48h-11v65.48h-79v-79h73.45l4.11-11h-77.56V32.73h79v75.14l11-29.44v-20.62l-14.59-39.03H0v1636.91h1005.62ZM903.61,1382.73h79v79h-79v-79ZM813.61,212.73h79v79h-79v-79ZM813.61,302.73h79v79h-79v-79ZM813.61,392.73h79v79h-79v-79ZM813.61,482.73h79v79h-79v-79ZM813.61,572.73h79v79h-79v-79ZM813.61,662.73h79v79h-79v-79ZM813.61,752.73h79v79h-79v-79ZM813.61,842.73h79v79h-79v-79ZM813.61,932.73h79v79h-79v-79ZM813.61,1022.73h79v79h-79v-79ZM813.61,1112.73h79v79h-79v-79ZM813.61,1202.73h79v79h-79v-79ZM813.61,1292.73h79v79h-79v-79ZM813.61,1382.73h79v79h-79v-79ZM723.61,212.73h79v79h-79v-79ZM723.61,302.73h79v79h-79v-79ZM723.61,392.73h79v79h-79v-79ZM723.61,482.73h79v79h-79v-79ZM723.61,572.73h79v79h-79v-79ZM723.61,662.73h79v79h-79v-79ZM723.61,752.73h79v79h-79v-79ZM723.61,842.73h79v79h-79v-79ZM723.61,932.73h79v79h-79v-79ZM723.61,1022.73h79v79h-79v-79ZM723.61,1112.73h79v79h-79v-79ZM723.61,1202.73h79v79h-79v-79ZM723.61,1292.73h79v79h-79v-79ZM723.61,1382.73h79v79h-79v-79ZM723.61,1472.73h79v79h-79v-79ZM633.61,212.73h79v79h-79v-79ZM633.61,302.73h79v79h-79v-79ZM633.61,392.73h79v79h-79v-79ZM633.61,482.73h79v79h-79v-79ZM633.61,572.73h79v79h-79v-79ZM633.61,662.73h79v79h-79v-79ZM633.61,752.73h79v79h-79v-79ZM633.61,842.73h79v79h-79v-79ZM633.61,932.73h79v79h-79v-79ZM633.61,1022.73h79v79h-79v-79ZM633.61,1112.73h79v79h-79v-79ZM633.61,1202.73h79v79h-79v-79ZM633.61,1292.73h79v79h-79v-79ZM633.61,1382.73h79v79h-79v-79ZM633.61,1472.73h79v79h-79v-79ZM633.61,1562.73h79v79h-79v-79ZM543.61,32.73h79v79h-79V32.73ZM543.61,122.73h79v79h-79v-79ZM543.61,212.73h79v79h-79v-79ZM543.61,302.73h79v79h-79v-79ZM543.61,392.73h79v79h-79v-79ZM543.61,482.73h79v79h-79v-79ZM543.61,572.73h79v79h-79v-79ZM543.61,662.73h79v79h-79v-79ZM543.61,752.73h79v79h-79v-79ZM543.61,842.73h79v79h-79v-79ZM543.61,932.73h79v79h-79v-79ZM543.61,1022.73h79v79h-79v-79ZM543.61,1112.73h79v79h-79v-79ZM543.61,1202.73h79v79h-79v-79ZM543.61,1292.73h79v79h-79v-79ZM543.61,1382.73h79v79h-79v-79ZM543.61,1472.73h79v79h-79v-79ZM543.61,1562.73h79v79h-79v-79ZM453.61,32.73h79v79h-79V32.73ZM453.61,122.73h79v79h-79v-79ZM453.61,212.73h79v79h-79v-79ZM453.61,302.73h79v79h-79v-79ZM453.61,392.73h79v79h-79v-79ZM453.61,482.73h79v79h-79v-79ZM453.61,572.73h79v79h-79v-79ZM453.61,662.73h79v79h-79v-79ZM453.61,752.73h79v79h-79v-79ZM453.61,842.73h79v79h-79v-79ZM453.61,932.73h79v79h-79v-79ZM453.61,1022.73h79v79h-79v-79ZM453.61,1112.73h79v79h-79v-79ZM453.61,1202.73h79v79h-79v-79ZM453.61,1292.73h79v79h-79v-79ZM453.61,1382.73h79v79h-79v-79ZM453.61,1472.73h79v79h-79v-79ZM453.61,1562.73h79v79h-79v-79ZM363.61,32.73h79v79h-79V32.73ZM363.61,122.73h79v79h-79v-79ZM363.61,212.73h79v79h-79v-79ZM363.61,302.73h79v79h-79v-79ZM363.61,392.73h79v79h-79v-79ZM363.61,482.73h79v79h-79v-79ZM363.61,572.73h79v79h-79v-79ZM363.61,662.73h79v79h-79v-79ZM363.61,752.73h79v79h-79v-79ZM363.61,842.73h79v79h-79v-79ZM363.61,932.73h79v79h-79v-79ZM363.61,1022.73h79v79h-79v-79ZM363.61,1112.73h79v79h-79v-79ZM363.61,1202.73h79v79h-79v-79ZM363.61,1292.73h79v79h-79v-79ZM363.61,1382.73h79v79h-79v-79ZM363.61,1472.73h79v79h-79v-79ZM363.61,1562.73h79v79h-79v-79ZM273.61,32.73h79v79h-79V32.73ZM273.61,122.73h79v79h-79v-79ZM273.61,212.73h79v79h-79v-79ZM273.61,302.73h79v79h-79v-79ZM273.61,392.73h79v79h-79v-79ZM273.61,482.73h79v79h-79v-79ZM273.61,572.73h79v79h-79v-79ZM273.61,662.73h79v79h-79v-79ZM273.61,752.73h79v79h-79v-79ZM273.61,842.73h79v79h-79v-79ZM273.61,932.73h79v79h-79v-79ZM273.61,1022.73h79v79h-79v-79ZM273.61,1112.73h79v79h-79v-79ZM273.61,1202.73h79v79h-79v-79ZM273.61,1292.73h79v79h-79v-79ZM273.61,1382.73h79v79h-79v-79ZM273.61,1472.73h79v79h-79v-79ZM273.61,1562.73h79v79h-79v-79ZM183.61,32.73h79v79h-79V32.73ZM183.61,122.73h79v79h-79v-79ZM183.61,212.73h79v79h-79v-79ZM183.61,302.73h79v79h-79v-79ZM183.61,392.73h79v79h-79v-79ZM183.61,482.73h79v79h-79v-79ZM183.61,572.73h79v79h-79v-79ZM183.61,662.73h79v79h-79v-79ZM183.61,752.73h79v79h-79v-79ZM183.61,842.73h79v79h-79v-79ZM183.61,932.73h79v79h-79v-79ZM183.61,1022.73h79v79h-79v-79ZM183.61,1112.73h79v79h-79v-79ZM183.61,1202.73h79v79h-79v-79ZM183.61,1292.73h79v79h-79v-79ZM183.61,1382.73h79v79h-79v-79ZM183.61,1472.73h79v79h-79v-79ZM183.61,1562.73h79v79h-79v-79ZM93.61,32.73h79v79h-79V32.73ZM93.61,122.73h79v79h-79v-79ZM93.61,212.73h79v79h-79v-79ZM93.61,302.73h79v79h-79v-79ZM93.61,392.73h79v79h-79v-79ZM93.61,482.73h79v79h-79v-79ZM93.61,572.73h79v79h-79v-79ZM93.61,662.73h79v79h-79v-79ZM93.61,752.73h79v79h-79v-79ZM93.61,842.73h79v79h-79v-79ZM93.61,932.73h79v79h-79v-79ZM93.61,1022.73h79v79h-79v-79ZM93.61,1112.73h79v79h-79v-79ZM93.61,1202.73h79v79h-79v-79ZM93.61,1292.73h79v79h-79v-79ZM93.61,1382.73h79v79h-79v-79ZM93.61,1472.73h79v79h-79v-79ZM93.61,1562.73h79v79h-79v-79ZM3.61,32.73h79v79H3.61V32.73ZM3.61,122.73h79v79H3.61v-79ZM3.61,212.73h79v79H3.61v-79ZM3.61,302.73h79v79H3.61v-79ZM3.61,392.73h79v79H3.61v-79ZM3.61,482.73h79v79H3.61v-79ZM3.61,572.73h79v79H3.61v-79ZM3.61,662.73h79v79H3.61v-79ZM3.61,752.73h79v79H3.61v-79ZM3.61,842.73h79v79H3.61v-79ZM3.61,932.73h79v79H3.61v-79ZM3.61,1022.73h79v79H3.61v-79ZM3.61,1112.73h79v79H3.61v-79ZM3.61,1202.73h79v79H3.61v-79ZM3.61,1292.73h79v79H3.61v-79ZM3.61,1382.73h79v79H3.61v-79ZM3.61,1472.73h79v79H3.61v-79ZM3.61,1562.73h79v79H3.61v-79Z"/>
  </g>
</svg>