<?xml version="1.0" encoding="UTF-8"?>
<svg id="Layer_2" data-name="Layer 2" xmlns="http://www.w3.org/2000/svg" viewBox="0 0 1446 573.61">
  <defs>
    <style>
      .cls-1 {
        fill: red;
      }
    </style>
  </defs>
  <g id="Layer_1-2" data-name="Layer 1">
    <g>
      <path class="cls-1" d="M330.2,255.22c-10.69,7.09-21.31,14.28-31.85,21.57,5.36,7.75,8.04,11.62,13.39,19.37,15.77-10.83,31.66-21.47,47.67-31.94,5.02,7.74,7.53,11.61,12.56,19.35-23.26,15.2-46.22,30.81-68.9,46.85-21.39-30.03-42.78-60.07-64.16-90.1,23.98-16.97,48.26-33.47,72.85-49.54,5.02,7.74,7.53,11.61,12.56,19.35-16.58,10.76-33.01,21.74-49.25,33,4.85,7.02,7.28,10.53,12.13,17.55,10.65-7.37,21.38-14.63,32.17-21.78,4.33,6.53,6.5,9.8,10.83,16.33Z"/>
      <path class="cls-1" d="M344.65,169.88c17.95-11.09,36.02-21.95,54.25-32.59,10.46,18.05,20.92,36.09,31.39,54.14,4.65,8.02,7.09,15.52,7.38,22.49.28,6.97-1.17,13.53-4.34,19.69-3.17,6.16-7.79,11.97-13.87,17.44-6.08,5.48-13.18,10.75-21.33,15.84-7.73,4.84-11.58,7.28-19.25,12.21-4.99-7.76-7.49-11.64-12.48-19.41,1.96-1.26,4.46-2.8,7.47-4.59,3.01-1.79,6.17-3.76,9.48-5.9,3.3-2.14,6.64-4.41,10.01-6.8,3.36-2.39,6.41-4.85,9.12-7.38,2.71-2.52,4.95-5.08,6.69-7.68,1.75-2.59,2.52-5.22,2.51-7.69-.01-1.82-.27-3.77-.93-5.71-.65-1.94-1.47-3.85-2.45-5.72-.97-1.87-2-3.71-3.09-5.52-1.08-1.81-2.08-3.48-3-5.02-2.6-4.34-5.26-8.67-7.99-12.99-2.73-4.32-5.42-8.69-8.08-13.12-9.8,5.91-19.57,11.87-29.31,17.88-4.87-7.84-7.31-11.75-12.19-19.59Z"/>
      <path class="cls-1" d="M496.74,156.2c-11.35,6.02-22.64,12.14-33.87,18.38,4.57,8.23,6.86,12.35,11.43,20.59,16.79-9.25,33.67-18.3,50.67-27.17,4.24,8.2,6.36,12.3,10.6,20.49-24.68,12.86-49.1,26.17-73.29,39.95-18.34-31.99-36.68-63.97-55.03-95.96,25.58-14.56,51.39-28.64,77.49-42.24,4.24,8.2,6.36,12.3,10.6,20.49-17.58,9.1-35.05,18.44-52.35,28.06,4.14,7.46,6.21,11.19,10.36,18.65,11.34-6.3,22.75-12.49,34.21-18.56,3.67,6.93,5.51,10.39,9.18,17.31Z"/>
      <path class="cls-1" d="M535.64,126.41c2.96,5.94,6.4,10.23,10.29,12.88,3.89,2.65,8.09,4.16,12.61,4.52,4.52.36,9.24-.18,14.17-1.62,4.93-1.44,9.95-3.32,15.08-5.62,5.12-2.31,10.28-4.77,15.46-7.4,5.18-2.63,10.22-4.98,15.11-7.07,3.82,8.47,5.73,12.7,9.56,21.17-6.66,3.35-13.29,6.54-19.78,9.59-9.09,4.27-18.72,8.19-28.27,11.33-9.11,2.98-17.77,4.39-26,4.09-8.23-.3-15.96-2.72-23.16-7.14-7.93-4.86-15.29-14.43-19.54-22.29-3.81-7.04-6.33-14.43-6.62-21.92-.29-7.49,1.08-14.76,4.12-21.79,3.04-7.02,7.63-13.57,13.78-19.59,6.14-6.02,13.54-11.1,22.16-15.21,1.51-.72,3.08-1.41,4.7-2.06,1.62-.65,3.29-1.26,5.02-1.84,13.55-.8,27.12-1.46,40.69-1.98-1.28,9.57-1.89,14.36-3.05,23.92-11.38.51-22.74,1.09-34.11,1.74-5.76,2.15-10.6,4.88-14.52,8.19-3.92,3.3-6.83,6.99-8.73,11.03-1.9,4.05-2.8,8.37-2.7,12.97.1,4.6,1.36,9.3,3.76,14.11Z"/>
      <path class="cls-1" d="M694.34,115.28c-9.93,4.04-14.88,6.1-24.74,10.27-11.38-26.87-22.76-53.74-34.13-80.62-10.46,4.47-20.89,8.99-31.3,13.57-3.74-8.44-5.61-12.65-9.35-21.09,29.79-13.1,59.81-25.57,90.12-37.42,3.33,8.61,5,12.91,8.33,21.51-10.67,4.17-21.31,8.4-31.94,12.69,11,27.03,22.01,54.06,33.01,81.08Z"/>
    </g>
    <g>
      <path class="cls-1" d="M196.72,430.76c-10.11-1.91-20.25-3.73-30.4-5.44-10.21-33.26-20.43-66.52-30.64-99.78,7.98-7.29,16-14.53,24.07-21.73-9.58-32.9-19.16-65.81-28.74-98.71,78.92-66.98,162.33-127.91,249.94-183.03C349.53,14.07,317.97,6.72,286.25,0c-27.2,18.38-54.02,37.27-80.47,56.71,1.9,10.95,3.81,21.89,5.72,32.84-35.34,24.6-69.96,50.13-103.89,76.64-10.67-1.76-21.34-3.46-32.02-5.1C49.89,183.55,24.71,206.53,0,230.08c3.96,10.99,7.91,21.97,11.87,32.96,20.09,1.66,40.15,3.52,60.18,5.75,10.92,33.04,21.84,66.07,32.76,99.11-13.69,13.36-27.22,26.86-40.59,40.54,11.59,32.19,23.18,64.38,34.77,96.57,10.07,1.32,15.08,2.02,25.07,3.49,11.82-12.4,23.77-24.66,35.87-36.78,37.05,6.37,73.82,13.82,110.43,22.4,3.95,15.22,7.9,30.45,11.85,45.67,39.07,9.95,77.68,21.19,115.97,33.81,19.78-16.8,39.87-33.16,60.32-49.14-83.22-30.3-168.3-53.82-255.17-71.01-2.64-9.08-3.97-13.62-6.61-22.7Z"/>
      <path class="cls-1" d="M1308.38,227.79c8.43,7.31,16.82,14.66,25.18,22.06-10.21,33.26-20.43,66.52-30.64,99.78-10.51,1.6-21.02,3.3-31.5,5.11-9.58,32.9-19.16,65.81-28.74,98.71-86.87,17.19-171.95,40.71-255.17,71.01,20.45,15.98,40.54,32.34,60.32,49.14,24.95-8.22,50.03-15.9,75.31-23.06,3.07-10.67,6.15-21.34,9.24-32,35.6-7.79,71.36-14.5,107.36-20.17,6.43,6.83,12.8,13.72,19.11,20.66,29.29-5.36,58.66-10.03,88.17-14.02,3.96-10.99,7.91-21.97,11.87-32.96-12.81-13.48-25.77-26.79-38.91-39.96,10.92-33.04,21.84-66.07,32.76-99.11,19.46-2.44,38.97-4.54,58.5-6.34,11.59-32.19,23.18-64.38,34.77-96.57-6.89-6.62-13.84-13.19-20.83-19.7-19.23,1.68-38.43,3.58-57.61,5.71-31.99-28.5-64.74-56.04-98.29-82.7,3.95-15.22,7.9-30.45,11.85-45.67-39.54-30.53-79.98-59.74-121.37-87.71-31.72,6.72-63.28,14.07-94.71,22.06,87.61,55.12,171.03,116.04,249.94,183.03-2.64,9.08-3.97,13.62-6.61,22.7Z"/>
    </g>
  </g>
</svg>