<?xml version="1.0" encoding="UTF-8"?>
<svg id="Layer_2" data-name="Layer 2" xmlns="http://www.w3.org/2000/svg" viewBox="0 0 55.4 64">
  <defs>
    <style>
      .cls-1 {
        fill: red;
      }
    </style>
  </defs>
  <g id="Layer_1-2" data-name="Layer 1">
    <g>
      <path class="cls-1" d="M55.4,27.24v-11.24l-2.21-1.27-4.47,2.58-9.9-5.72v-5.17l-3.9-2.25h.01S27.71,0,27.71,0h-.01s-.01,0-.01,0l-7.21,4.17h.01s-.06.04-.06.04l-.17,3.64-9.98,5.17-2.43-1.56L0,16v3.84l4.76,2.75v11.43l-4.76,2.75v11.24l2.21,1.27,4.47-2.58,9.9,5.72v5.17l3.9,2.25h-.01s7.21,4.17,7.21,4.17h.01s.01,0,.01,0l7.21-4.17h-.01s.06-.04.06-.04l.17-3.64,9.98-5.17,2.43,1.56,7.84-4.53v-3.84l-4.76-2.75v-11.43l4.76-2.75ZM46.79,33.38l-2.64,1.52v11.26l-16.45,9.5-16.45-9.5v-2.59l-2.64-1.52v-11.43l2.64-1.52v-11.26l16.45-9.5,16.45,9.5v2.59l2.64,1.52v11.43Z"/>
      <path class="cls-1" d="M36.4,19.96c-1.62-.59-3.41.26-4,1.88-.59,1.62.26,3.41,1.88,4,1.62.59,3.41-.26,4-1.88.59-1.62-.26-3.41-1.88-4Z"/>
      <polygon class="cls-1" points="27.94 36.83 34.08 27.45 31.43 25.71 27.02 32.45 20.28 28.05 14.14 37.44 16.79 39.17 21.2 32.43 27.94 36.83"/>
      <polygon class="cls-1" points="28.41 39.21 21.67 34.81 18.21 40.09 27.6 46.23 35.34 41.86 35.46 34.2 32.81 32.47 28.41 39.21"/>
    </g>
  </g>
</svg>