<?xml version="1.0" encoding="UTF-8"?>
<svg id="Layer_2" data-name="Layer 2" xmlns="http://www.w3.org/2000/svg" viewBox="0 0 1446 573.61">
  <defs>
    <style>
      .cls-1 {
        fill: red;
      }
    </style>
  </defs>
  <g id="Layer_1-2" data-name="Layer 1">
    <g>
      <g>
        <path class="cls-1" d="M212.78,288.88c-2.34-8.93-3.51-13.39-5.84-22.32,31.14-8.05,62.41-15.45,93.85-22.21,7.02,7,14,14.05,20.91,21.16-7.58,20.8-14.91,41.69-21.99,62.67-11.44,2.59-22.86,5.28-34.25,8.08,2.24,9.32,4.48,18.64,6.73,27.96-10.42,2.51-15.63,3.8-26.02,6.45-7.28-28.26-14.56-56.52-21.84-84.78-4.61,1.18-6.92,1.78-11.53,2.98ZM260.06,313.83c7.32-1.82,10.98-2.72,18.31-4.47,4.06-12.37,8.23-24.7,12.5-36.99-.79-.73-1.18-1.1-1.97-1.83-12.42,2.74-24.82,5.6-37.19,8.58,2.78,11.57,5.57,23.15,8.35,34.72Z"/>
        <path class="cls-1" d="M374.37,342.55c-10.66,1.96-15.98,2.98-26.62,5.09-7.18-36.17-14.36-72.33-21.53-108.5,9.37-1.87,18.75-3.66,28.15-5.38,6.67,36.26,13.34,72.53,20.01,108.79Z"/>
        <path class="cls-1" d="M385.18,340.59c-6.46-36.3-12.92-72.6-19.39-108.9,9.27-1.66,18.55-3.24,27.84-4.76,4.72,28.8,9.43,57.6,14.15,86.39,21.8-3.5,43.63-6.69,65.52-9.59,1.18,9.15,1.77,13.73,2.95,22.88-30.46,4.04-60.8,8.69-91.07,13.97Z"/>
        <path class="cls-1" d="M582.42,263.61c.51,7.15-.22,14.06-2.15,20.75-1.93,6.69-5,12.68-9.19,17.97-4.19,5.3-9.56,9.7-16.1,13.23-6.54,3.53-14.26,5.72-23.21,6.62-8.83.88-16.81.25-23.98-1.91-7.17-2.16-13.34-5.41-18.5-9.77-5.16-4.36-9.36-9.62-12.57-15.8-3.22-6.18-5.3-12.81-6.21-19.92-.32-2.51-.48-3.76-.81-6.27-.91-7.1-.57-14.05,1.06-20.84,1.63-6.79,4.52-12.91,8.69-18.35,4.17-5.44,9.7-10.02,16.6-13.71,6.89-3.69,15.04-6.02,24.39-6.96,9.48-.95,17.96-.27,25.38,1.99,7.42,2.26,13.71,5.66,18.87,10.17,5.16,4.51,9.2,9.94,12.14,16.28,2.94,6.34,4.64,13.08,5.15,20.22.18,2.52.27,3.78.45,6.3ZM497.87,271.46c1.09,9.53,4.46,16.74,10.04,21.69,5.58,4.95,12.75,6.95,21.56,6.07,8.81-.88,15.44-4.26,19.93-10.21,4.49-5.95,6.36-13.69,5.55-23.25-.21-2.52-.32-3.78-.54-6.3-.81-9.55-3.99-16.82-9.58-21.77-5.59-4.95-12.99-7-22.11-6.09-9.12.91-15.97,4.38-20.47,10.34-4.51,5.96-6.19,13.71-5.1,23.23.29,2.51.43,3.77.72,6.28Z"/>
        <path class="cls-1" d="M646.04,312.3c-10.64.43-15.96.67-26.6,1.25-1.57-29.14-3.14-58.28-4.7-87.42-11.3.64-22.59,1.34-33.88,2.11-.65-9.21-.98-13.81-1.63-23.01,32.27-2.18,64.55-3.7,96.88-4.54.21,9.23.32,13.84.53,23.06-11.37.3-22.74.65-34.1,1.07,1.17,29.16,2.33,58.32,3.5,87.47Z"/>
        <path class="cls-1" d="M795.58,265.48c-12.81-.47-25.63-.82-38.46-1.04-.16,9.42-.24,14.13-.41,23.54,19.13.39,38.24,1,57.36,1.84-.43,9.22-.65,13.83-1.08,23.05-27.76-1.21-55.51-1.91-83.3-2.09.13-36.87.26-73.74.38-110.61,29.38.19,58.72.93,88.08,2.21-.43,9.22-.65,13.83-1.08,23.05-19.74-.92-39.49-1.57-59.25-1.9-.15,8.53-.22,12.8-.37,21.33,12.95.22,25.9.57,38.84,1.05-.29,7.83-.43,11.75-.72,19.58Z"/>
        <path class="cls-1" d="M857.06,204.56c21.05,1.45,42.06,3.16,63.07,5.14-2.02,20.76-4.03,41.52-6.05,62.28-.9,9.23-3.29,16.75-7.12,22.57-3.83,5.83-8.84,10.31-15,13.47-6.17,3.16-13.31,5.18-21.44,6.09-8.13.91-16.98,1.05-26.56.44-9.1-.57-13.65-.83-22.76-1.3.47-9.22.71-13.82,1.18-23.04,2.33.12,5.25.32,8.75.62,3.49.3,7.21.54,11.14.73,3.93.19,7.96.29,12.1.3,4.13.02,8.03-.21,11.71-.68,3.68-.47,6.98-1.24,9.91-2.34,2.93-1.09,5.09-2.77,6.52-4.79,1.05-1.48,1.97-3.22,2.57-5.18.6-1.96,1.05-3.98,1.35-6.07.3-2.09.54-4.18.71-6.28.17-2.1.34-4.04.49-5.83.42-5.04.78-10.11,1.08-15.21.3-5.1.66-10.22,1.09-15.37-11.41-.91-22.82-1.76-34.24-2.55.61-9.21.91-13.81,1.52-23.02Z"/>
        <path class="cls-1" d="M988.62,282.09c-12.73-1.73-25.48-3.33-38.24-4.81-1.08,9.36-1.63,14.03-2.71,23.39,19.04,2.27,38.03,4.76,57.01,7.46-1.33,9.13-2,13.7-3.33,22.83-27.56-3.93-55.15-7.35-82.83-10.26,3.74-36.68,7.48-73.36,11.22-110.05,29.27,3.07,58.45,6.69,87.59,10.85-1.33,9.13-2,13.7-3.33,22.83-19.59-2.86-39.23-5.45-58.89-7.71-.98,8.48-1.47,12.71-2.46,21.19,12.89,1.49,25.76,3.11,38.62,4.86-1.05,7.77-1.58,11.65-2.64,19.42Z"/>
        <path class="cls-1" d="M1037.6,280.57c-1.05,6.55-.76,12.04.85,16.46,1.61,4.42,4.15,8.1,7.62,11.03,3.46,2.93,7.62,5.24,12.46,6.94,4.84,1.7,10.02,3.1,15.53,4.22,5.51,1.11,11.13,2.12,16.88,3,5.74.89,11.21,1.91,16.4,3.06-1.83,9.11-2.75,13.66-4.58,22.77-7.37-1.16-14.61-2.44-21.66-3.74-9.87-1.83-19.98-4.25-29.57-7.28-9.14-2.88-17-6.79-23.51-11.83-6.52-5.04-11.38-11.51-14.66-19.3-3.61-8.58-4.02-20.64-2.89-29.5,1.01-7.94,3.27-15.42,7.4-21.67,4.13-6.25,9.48-11.37,16.05-15.3,6.57-3.94,14.11-6.58,22.62-7.89,8.5-1.31,17.48-1.13,26.88.56,1.65.3,3.33.65,5.02,1.07,1.69.42,3.41.89,5.15,1.43,11.48,7.25,22.89,14.62,34.21,22.11-6.62,7.04-9.9,10.57-16.42,17.65-9.54-6.21-19.12-12.37-28.73-18.47-5.93-1.61-11.46-2.21-16.57-1.81-5.11.4-9.63,1.7-13.53,3.88-3.91,2.18-7.16,5.17-9.75,8.97-2.6,3.8-4.32,8.35-5.17,13.65Z"/>
        <path class="cls-1" d="M1173.03,364.03c-10.42-2.5-15.64-3.72-26.09-6.07,6.42-28.47,12.84-56.93,19.25-85.4-11.1-2.47-22.21-4.87-33.34-7.22,1.88-9.04,2.82-13.55,4.69-22.59,31.84,6.72,63.51,14.09,95.04,22.13-2.31,8.94-3.46,13.4-5.77,22.34-11.1-2.83-22.21-5.6-33.35-8.31-6.81,28.38-13.63,56.75-20.44,85.12Z"/>
      </g>
      <g>
        <path class="cls-1" d="M196.72,430.76c-10.11-1.91-20.25-3.73-30.4-5.44-10.21-33.26-20.43-66.52-30.64-99.78,7.98-7.29,16-14.53,24.07-21.73-9.58-32.9-19.16-65.81-28.74-98.71,78.92-66.98,162.33-127.91,249.94-183.03C349.53,14.07,317.97,6.72,286.25,0c-27.2,18.38-54.02,37.27-80.47,56.71,1.9,10.95,3.81,21.89,5.72,32.84-35.34,24.6-69.96,50.13-103.89,76.64-10.67-1.76-21.34-3.46-32.02-5.1C49.89,183.55,24.71,206.53,0,230.08c3.96,10.99,7.91,21.97,11.87,32.96,20.09,1.66,40.15,3.52,60.18,5.75,10.92,33.04,21.84,66.07,32.76,99.11-13.69,13.36-27.22,26.86-40.59,40.54,11.59,32.19,23.18,64.38,34.77,96.57,10.07,1.32,15.08,2.02,25.07,3.49,11.82-12.4,23.77-24.66,35.87-36.78,37.05,6.37,73.82,13.82,110.43,22.4,3.95,15.22,7.9,30.45,11.85,45.67,39.07,9.95,77.68,21.19,115.97,33.81,19.78-16.8,39.87-33.16,60.32-49.14-83.22-30.3-168.3-53.82-255.17-71.01-2.64-9.08-3.97-13.62-6.61-22.7Z"/>
        <path class="cls-1" d="M1308.38,227.79c8.43,7.31,16.82,14.66,25.18,22.06-10.21,33.26-20.43,66.52-30.64,99.78-10.51,1.6-21.02,3.3-31.5,5.11-9.58,32.9-19.16,65.81-28.74,98.71-86.87,17.19-171.95,40.71-255.17,71.01,20.45,15.98,40.54,32.34,60.32,49.14,24.95-8.22,50.03-15.9,75.31-23.06,3.07-10.67,6.15-21.34,9.24-32,35.6-7.79,71.36-14.5,107.36-20.17,6.43,6.83,12.8,13.72,19.11,20.66,29.29-5.36,58.66-10.03,88.17-14.02,3.96-10.99,7.91-21.97,11.87-32.96-12.81-13.48-25.77-26.79-38.91-39.96,10.92-33.04,21.84-66.07,32.76-99.11,19.46-2.44,38.97-4.54,58.5-6.34,11.59-32.19,23.18-64.38,34.77-96.57-6.89-6.62-13.84-13.19-20.83-19.7-19.23,1.68-38.43,3.58-57.61,5.71-31.99-28.5-64.74-56.04-98.29-82.7,3.95-15.22,7.9-30.45,11.85-45.67-39.54-30.53-79.98-59.74-121.37-87.71-31.72,6.72-63.28,14.07-94.71,22.06,87.61,55.12,171.03,116.04,249.94,183.03-2.64,9.08-3.97,13.62-6.61,22.7Z"/>
      </g>
    </g>
  </g>
</svg>