<?xml version="1.0" encoding="UTF-8"?>
<svg id="Layer_2" data-name="Layer 2" xmlns="http://www.w3.org/2000/svg" viewBox="0 0 55.4 64">
  <defs>
    <style>
      .cls-1 {
        fill: red;
      }
    </style>
  </defs>
  <g id="Layer_1-2" data-name="Layer 1">
    <g>
      <path class="cls-1" d="M55.4,27.24v-11.24l-2.21-1.27-4.47,2.58-9.9-5.72v-5.17l-3.9-2.25h.01S27.71,0,27.71,0h-.01s-.01,0-.01,0l-7.21,4.17h.01s-.06.04-.06.04l-.17,3.64-9.98,5.17-2.43-1.56L0,16v3.84l4.76,2.75v11.43l-4.76,2.75v11.24l2.21,1.27,4.47-2.58,9.9,5.72v5.17l3.9,2.25h-.01s7.21,4.17,7.21,4.17h.01s.01,0,.01,0l7.21-4.17h-.01s.06-.04.06-.04l.17-3.64,9.98-5.17,2.43,1.56,7.84-4.53v-3.84l-4.76-2.75v-11.43l4.76-2.75ZM46.79,33.38l-2.64,1.52v11.26l-16.45,9.5-16.45-9.5v-2.59l-2.64-1.52v-11.43l2.64-1.52v-11.26l16.45-9.5,16.45,9.5v2.59l2.64,1.52v11.43Z"/>
      <path class="cls-1" d="M32.5,22.52c-2.91-1.53-6.5-2.21-9.74-1.33-2.74.74-5.17,2.56-6.29,5.26-.44.99-.88,1.98-1.32,2.97-.44.99-.13,2.2.48,3.01.5.66.31,1.96.27,2.78-.01.19-.02.37-.02.52,0,0,0,0,0,0-.03,1.05.62,2.08,1.56,2.54.45.23.9.47,1.35.7.39-.74.79-1.48,1.18-2.21.13-.24.46-.33.73-.18.27.15.38.46.25.71-.4.73-.8,1.47-1.2,2.2.74.41,1.47.82,2.19,1.24.42-.72.84-1.45,1.26-2.17.14-.24.47-.31.73-.15s.36.48.22.71c-.43.72-.86,1.44-1.28,2.16.72.43,1.44.87,2.15,1.32.45-.71.89-1.41,1.34-2.12.15-.23.48-.29.74-.13s.35.49.2.72l-1.36,2.11c.43.28.86.56,1.28.84.86.56,2.07.68,2.96.13.14-.08.3-.18.47-.28.72-.43,1.71-1.19,2.61-1.13,0,0,0,0,0,0,1.02.17,2.19-.15,2.8-1.04.71-.94,1.42-1.88,2.13-2.83,1.88-2.48,2.14-5.66,1.23-8.54-1.08-3.4-3.8-6.2-6.89-7.83ZM26.94,37.34c-.07.11-.19.19-.33.22-.14.02-.29,0-.42-.08,0,0,0,0,0,0-.85-.51-1.7-1.01-2.55-1.5-.13-.07-.23-.19-.28-.32-.05-.13-.04-.28.03-.39.54-.95,2-1.72,3.04-1.11,1.03.61,1.07,2.26.51,3.19ZM27.61,30.58l-.03.05c-.04.07-.09.13-.14.19-1.1,1.49-3.13,1.91-4.86,1.5h0c-.33-.07-.7-.19-.99-.36-.46-.26-.86-.58-1.15-1.05-.5-1.03-.67-2.16-.14-3.22.66-1.48,2.55-1.71,3.9-1.13.07.03.11.05.18.09.3.13.61.28.9.44.94.51,2.11,1.19,2.49,2.27,0,0,0,0,0,0,.14.41.1.87-.15,1.23ZM35.07,36.37c-.63.99-1.77,1.38-2.89,1.45-.55-.03-1.03-.23-1.48-.5-.28-.17-.57-.44-.79-.7,0,0,0,0,0,0,0,0,0,0,0,0-1.2-1.29-1.83-3.24-1.09-4.92.03-.09.07-.18.12-.26.01-.02.02-.03.03-.06.2-.38.58-.64,1-.72,1.12-.2,2.29.5,3.19,1.07.28.18.55.37.82.57.06.04.09.07.15.11,0,0,0,0,0,0,0,0,0,0,0,0,1.17.89,1.89,2.65.91,3.95Z"/>
    </g>
  </g>
</svg>