<?xml version="1.0" encoding="UTF-8"?>
<svg id="Layer_2" data-name="Layer 2" xmlns="http://www.w3.org/2000/svg" xmlns:xlink="http://www.w3.org/1999/xlink" viewBox="0 0 1005.76 1655.69">
  <defs>
    <style>
      .cls-1 {
        fill: url(#linear-gradient);
      }

      .cls-2 {
        fill: red;
      }
    </style>
    <linearGradient id="linear-gradient" x1=".14" y1="818.46" x2="1005.76" y2="818.46" gradientUnits="userSpaceOnUse">
      <stop offset="0" stop-color="#e30000" stop-opacity=".9"/>
      <stop offset=".2" stop-color="#e30000" stop-opacity=".8"/>
      <stop offset=".3" stop-color="#ba0000" stop-opacity=".4"/>
      <stop offset=".6" stop-color="#000" stop-opacity="0"/>
    </linearGradient>
  </defs>
  <g id="Layer_1-2" data-name="Layer 1">
    <path class="cls-2" d="M7.45,9.19c.73.83,1.97,1.5,2.77,1.5h145.49c1.1,0,2.57.16,3.26.36s2.44,1.98,3.09,2.87l37.5,51.65c.65.89,1.32,2.15,1.5,2.79s-.68,2.56-1.12,3.16-1.26,1.46-1.83,1.91-3.04.81-4.14.81h-6.74c-1.1,0-2.55.18-3.22.39s-2.23,2.12-2.78,3.07l-17.86,30.94c-.55.95-1.12,2.3-1.27,2.99s.72,2.99,1.28,3.94l.03.06c.55.95,1.11,2.29,1.24,2.96s-.94,2.85-1.59,3.74l-.99,1.37c-.65.89-1.64,1.98-2.21,2.43s-3.04.81-4.14.81H11.86c-.05,0-.09.46-.09,1.02v149.28c0,1.1.05,2.9.1,4,0,0,0,.05.13.1.13.05.23.11.23.11.96.54,2.53,1.42,3.49,1.96l9.21,5.21c.96.54,2.13,1.41,2.61,1.93s.87,2.94.87,4.04v11.31c0,1.1.18,2.55.39,3.22s2.12,2.23,3.07,2.78l30.94,17.86c.95.55,2.3,1.12,2.99,1.28s2.99-.73,3.94-1.28l10.33-5.96c.95-.55,2.3-1.13,2.99-1.28s3,.71,3.96,1.25l7.15,4.05c.96.54,2.13,1.41,2.61,1.93s.87,2.94.87,4.04v254.9c0,1.1-.18,2.55-.39,3.22s-2.12,2.23-3.07,2.78l-16.14,9.32c-.95.55-2.12,1.43-2.6,1.95s-.87,2.95-.87,4.05v30.39c0,.55-.18,1.1-.39,1.22s-2.12,1.23-3.07,1.78l-30.94,17.86c-.95.55-2.12,1.43-2.6,1.95s-.87,2.95-.87,4.05v35.73c0,1.1.18,2.55.39,3.22s2.12,2.23,3.07,2.78l22.48,12.98c.95.55,2.12,1.43,2.6,1.95s.87,2.95.87,4.05v211.89c0,1.1-.18,2.55-.39,3.22s-2.12,2.23-3.07,2.78l-22.48,12.98c-.95.55-2.12,1.43-2.6,1.95s-.87,2.95-.87,4.05v35.73c0,1.1.18,2.55.39,3.22s2.12,2.23,3.07,2.78l6.3,3.64c.95.55,2.12,1.43,2.6,1.95s.87,2.95.87,4.05v55.01c0,1.1.18,2.55.39,3.22s2.12,2.23,3.07,2.78l26.77,15.46c.95.55,2.12,1.43,2.6,1.95s.87,2.95.87,4.05v133.27c0,1.1-.18,2.55-.39,3.22s-2.12,2.23-3.07,2.78l-9.3,5.37c-.95.55-2.12,1.43-2.6,1.95s-.87,2.95-.87,4.05v35.73c0,1.1.18,2.55.39,3.22s2.12,2.23,3.07,2.78l9.3,5.37c.95.55,2.12,1.43,2.6,1.95s.87,2.95.87,4.05v30.68c0,1.1-.18,2.55-.39,3.22s-2.12,2.23-3.07,2.78l-26.77,15.46c-.95.55-2.12,1.43-2.6,1.95s-.87,2.95-.87,4.05v35.73c0,1.1.18,2.55.39,3.22s2.12,2.23,3.07,2.78l4.62,2.67c.95.55,2.12,1.43,2.6,1.95s.87,2.95.87,4.05v112.5c0,1.1,0,2.9,0,4,0,0,0,.45-.01,1-.01.55.03.56.03.56,1.07.24,2.85.44,3.95.44h221.74c1.1,0,2.38.19,2.84.42s.14,2.29-.24,3.33l-18.92,50.63c-.39,1.03-.79,2.48-.89,3.23s.51,3.23.89,4.26l18.92,50.63c.39,1.03.66,2.3.6,2.81s-2.1.94-3.2.94H1c-.55,0-.56-.05-.56-.05-.24-1.07-.44-1.05-.44.05v8c0,1.1.9,2,2,2h299.61c1.1,0,2.38-.19,2.84-.42s.14-2.3-.24-3.33l-22.66-60.63c-.39-1.03-.79-2.48-.89-3.23s.51-3.23.89-4.26l22.66-60.63c.39-1.03.66-2.29.6-2.81s-2.1-.94-3.2-.94H75.5c-1.1,0-2.45-.2-3-.45s-1-2.45-1-3.55v-110.28c0-1.1-.18-2.55-.39-3.22s-2.12-2.23-3.07-2.78l-4.62-2.67c-.95-.55-2.12-1.43-2.6-1.95s-.87-2.95-.87-4.05v-24.18c0-1.1.18-2.55.39-3.22s2.12-2.23,3.07-2.78l26.77-15.46c.95-.55,2.12-1.43,2.6-1.95s.87-2.95.87-4.05v-42.23c0-1.1-.18-2.55-.39-3.22s-2.12-2.23-3.07-2.78l-9.3-5.37c-.95-.55-2.12-1.43-2.6-1.95s-.87-2.95-.87-4.05v-24.18c0-1.1.18-2.55.39-3.22s2.12-2.23,3.07-2.78l9.3-5.37c.95-.55,2.12-1.43,2.6-1.95s.87-2.95.87-4.05v-144.82c0-1.1-.18-2.55-.39-3.22s-2.12-2.23-3.07-2.78l-26.77-15.46c-.95-.55-2.12-1.43-2.6-1.95s-.87-2.95-.87-4.05v-55.01c0-1.1-.18-2.55-.39-3.22s-2.12-2.23-3.07-2.78l-6.3-3.64c-.95-.55-2.12-1.43-2.6-1.95s-.87-2.95-.87-4.05v-24.18c0-1.1.18-2.55.39-3.22s2.12-2.23,3.07-2.78l22.48-12.98c.95-.55,2.12-1.43,2.6-1.95s.87-2.95.87-4.05v-223.43c0-1.1-.18-2.55-.39-3.22s-2.12-2.23-3.07-2.78l-22.48-12.98c-.95-.55-2.12-1.43-2.6-1.95s-.87-2.95-.87-4.05v-24.18c0-1.1.18-2.55.39-3.22s2.12-2.23,3.07-2.78l30.94-17.86c.95-.55,2.12-1.43,2.6-1.95s.87-2.95.87-4.05v-27.39c0-1.1.18-2.55.39-3.22s2.12-2.23,3.07-2.78l16.14-9.32c.95-.55,2.12-1.43,2.6-1.95s.87-2.95.87-4.05v-266.5c0-1.1-.18-2.55-.39-3.22s-2.13-2.21-3.09-2.75l-17.2-9.74c-.96-.54-2.31-1.11-3-1.25s-2.99.73-3.94,1.28l-10.28,5.94c-.95.55-2.3,1.12-2.99,1.28s-2.99-.73-3.94-1.28l-20.94-12.09c-.95-.55-2.12-1.43-2.6-1.95s-.87-2.95-.87-4.05v-11.36c0-1.1-.18-2.55-.39-3.22s-2.13-2.21-3.09-2.75l-9.67-5.48c-.96-.54-2.13-1.41-2.61-1.93s-.87-2.94-.87-4.04v-130.39c0-1.1.2-2.45.45-3s2.45-1,3.55-1h135.04c1.1,0,2.57-.16,3.26-.36s2.44-1.98,3.09-2.87l7.8-10.75c.65-.89,1.34-2.16,1.54-2.82s-.64-2.93-1.19-3.88l-.39-.68c-.55-.95-1.12-2.3-1.28-2.99s.73-2.99,1.28-3.94l12.09-20.94c.55-.95,1.43-2.12,1.95-2.6s2.95-.87,4.05-.87h6.06c1.1,0,2.57-.16,3.26-.36s2.44-1.98,3.09-2.87l6.5-8.95c.65-.89,1.32-2.15,1.5-2.79s-.85-2.79-1.5-3.68L167.16,3.93c-.65-.89-1.64-1.98-2.21-2.43s-3.04-.81-4.14-.81H2c-1.1,0-1.41.68-.68,1.5l6.13,6.99Z"/>
    <path class="cls-1" d="M.14,0v.69h158.81c1.1,0,3.57.36,4.14.81.57.45,1.57,1.54,2.21,2.43l7.28,10.03h19.56v26.95l11,15.15V13.96h79v79h-79v-11.43c-.79.93-2.09,2.19-2.67,2.36-.7.2-2.16.36-3.26.36h-5.07v8.71h-10.03l-6.35,11h16.38v79h-79v-46.01h-11v46.01H23.14v-45.96c-1.14.13-2.58.5-2.78.95-.25.55-.45,1.9-.45,3v130.39c0,1.1.39,3.52.87,4.04s1.65,1.39,2.61,1.93l9.67,5.48c.43.25,1.06.69,1.64,1.17h67.44v37.93l.17.09c.96.54,2.87,2.08,3.09,2.75s.39,2.12.39,3.22v266.5c0,1.1-.39,3.53-.87,4.05-.48.52-1.65,1.4-2.6,1.95l-.18.11v32.4h-19.42v10.2c0,.22-.02.5-.05.8h19.46v79h-27.88v11h27.88v79h-27.88v11h27.88v79h-27.88v11h27.88v79h-57.29v1.82c0,1.1.39,3.53.87,4.05.48.52,1.65,1.4,2.6,1.95l5.5,3.18h48.32v79h-20.62l6.81,3.93c.95.55,2.86,2.1,3.07,2.77s.39,2.12.39,3.23v1.07h10.35v79h-10.35v11h10.35v79h-26.58v11h26.58v79h-27.85l-12.74,7.36c-.95.55-2.86,2.1-3.07,2.77-.07.22-.13.52-.19.87h43.86v79h-32.51v11h32.51v65.48h11v-65.48h79v65.48h11v-65.48h79v65.48h11v-65.48h79v79h-73.45l-4.11,11h77.56v79h-79v-75.14l-11,29.44v20.62l14.59,39.03h709.03V0H.14ZM102.14,272.96H23.14v-79h79v79ZM192.14,1442.96h-79v-79h79v79ZM192.14,1352.96h-79v-79h79v79ZM192.14,1262.96h-79v-79h79v79ZM192.14,1172.96h-79v-79h79v79ZM192.14,1082.96h-79v-79h79v79ZM192.14,992.96h-79v-79h79v79ZM192.14,902.96h-79v-79h79v79ZM192.14,812.96h-79v-79h79v79ZM192.14,722.96h-79v-79h79v79ZM192.14,632.96h-79v-79h79v79ZM192.14,542.96h-79v-79h79v79ZM192.14,452.96h-79v-79h79v79ZM192.14,362.96h-79v-79h79v79ZM192.14,272.96h-79v-79h79v79ZM282.14,1442.96h-79v-79h79v79ZM282.14,1352.96h-79v-79h79v79ZM282.14,1262.96h-79v-79h79v79ZM282.14,1172.96h-79v-79h79v79ZM282.14,1082.96h-79v-79h79v79ZM282.14,992.96h-79v-79h79v79ZM282.14,902.96h-79v-79h79v79ZM282.14,812.96h-79v-79h79v79ZM282.14,722.96h-79v-79h79v79ZM282.14,632.96h-79v-79h79v79ZM282.14,542.96h-79v-79h79v79ZM282.14,452.96h-79v-79h79v79ZM282.14,362.96h-79v-79h79v79ZM282.14,272.96h-79v-79h79v79ZM282.14,182.96h-79v-79h79v79ZM372.14,1442.96h-79v-79h79v79ZM372.14,1352.96h-79v-79h79v79ZM372.14,1262.96h-79v-79h79v79ZM372.14,1172.96h-79v-79h79v79ZM372.14,1082.96h-79v-79h79v79ZM372.14,992.96h-79v-79h79v79ZM372.14,902.96h-79v-79h79v79ZM372.14,812.96h-79v-79h79v79ZM372.14,722.96h-79v-79h79v79ZM372.14,632.96h-79v-79h79v79ZM372.14,542.96h-79v-79h79v79ZM372.14,452.96h-79v-79h79v79ZM372.14,362.96h-79v-79h79v79ZM372.14,272.96h-79v-79h79v79ZM372.14,182.96h-79v-79h79v79ZM372.14,92.96h-79V13.96h79v79ZM462.14,1622.96h-79v-79h79v79ZM462.14,1532.96h-79v-79h79v79ZM462.14,1442.96h-79v-79h79v79ZM462.14,1352.96h-79v-79h79v79ZM462.14,1262.96h-79v-79h79v79ZM462.14,1172.96h-79v-79h79v79ZM462.14,1082.96h-79v-79h79v79ZM462.14,992.96h-79v-79h79v79ZM462.14,902.96h-79v-79h79v79ZM462.14,812.96h-79v-79h79v79ZM462.14,722.96h-79v-79h79v79ZM462.14,632.96h-79v-79h79v79ZM462.14,542.96h-79v-79h79v79ZM462.14,452.96h-79v-79h79v79ZM462.14,362.96h-79v-79h79v79ZM462.14,272.96h-79v-79h79v79ZM462.14,182.96h-79v-79h79v79ZM462.14,92.96h-79V13.96h79v79ZM552.14,1622.96h-79v-79h79v79ZM552.14,1532.96h-79v-79h79v79ZM552.14,1442.96h-79v-79h79v79ZM552.14,1352.96h-79v-79h79v79ZM552.14,1262.96h-79v-79h79v79ZM552.14,1172.96h-79v-79h79v79ZM552.14,1082.96h-79v-79h79v79ZM552.14,992.96h-79v-79h79v79ZM552.14,902.96h-79v-79h79v79ZM552.14,812.96h-79v-79h79v79ZM552.14,722.96h-79v-79h79v79ZM552.14,632.96h-79v-79h79v79ZM552.14,542.96h-79v-79h79v79ZM552.14,452.96h-79v-79h79v79ZM552.14,362.96h-79v-79h79v79ZM552.14,272.96h-79v-79h79v79ZM552.14,182.96h-79v-79h79v79ZM552.14,92.96h-79V13.96h79v79ZM642.14,1622.96h-79v-79h79v79ZM642.14,1532.96h-79v-79h79v79ZM642.14,1442.96h-79v-79h79v79ZM642.14,1352.96h-79v-79h79v79ZM642.14,1262.96h-79v-79h79v79ZM642.14,1172.96h-79v-79h79v79ZM642.14,1082.96h-79v-79h79v79ZM642.14,992.96h-79v-79h79v79ZM642.14,902.96h-79v-79h79v79ZM642.14,812.96h-79v-79h79v79ZM642.14,722.96h-79v-79h79v79ZM642.14,632.96h-79v-79h79v79ZM642.14,542.96h-79v-79h79v79ZM642.14,452.96h-79v-79h79v79ZM642.14,362.96h-79v-79h79v79ZM642.14,272.96h-79v-79h79v79ZM642.14,182.96h-79v-79h79v79ZM642.14,92.96h-79V13.96h79v79ZM732.14,1622.96h-79v-79h79v79ZM732.14,1532.96h-79v-79h79v79ZM732.14,1442.96h-79v-79h79v79ZM732.14,1352.96h-79v-79h79v79ZM732.14,1262.96h-79v-79h79v79ZM732.14,1172.96h-79v-79h79v79ZM732.14,1082.96h-79v-79h79v79ZM732.14,992.96h-79v-79h79v79ZM732.14,902.96h-79v-79h79v79ZM732.14,812.96h-79v-79h79v79ZM732.14,722.96h-79v-79h79v79ZM732.14,632.96h-79v-79h79v79ZM732.14,542.96h-79v-79h79v79ZM732.14,452.96h-79v-79h79v79ZM732.14,362.96h-79v-79h79v79ZM732.14,272.96h-79v-79h79v79ZM732.14,182.96h-79v-79h79v79ZM732.14,92.96h-79V13.96h79v79ZM822.14,1622.96h-79v-79h79v79ZM822.14,1532.96h-79v-79h79v79ZM822.14,1442.96h-79v-79h79v79ZM822.14,1352.96h-79v-79h79v79ZM822.14,1262.96h-79v-79h79v79ZM822.14,1172.96h-79v-79h79v79ZM822.14,1082.96h-79v-79h79v79ZM822.14,992.96h-79v-79h79v79ZM822.14,902.96h-79v-79h79v79ZM822.14,812.96h-79v-79h79v79ZM822.14,722.96h-79v-79h79v79ZM822.14,632.96h-79v-79h79v79ZM822.14,542.96h-79v-79h79v79ZM822.14,452.96h-79v-79h79v79ZM822.14,362.96h-79v-79h79v79ZM822.14,272.96h-79v-79h79v79ZM822.14,182.96h-79v-79h79v79ZM822.14,92.96h-79V13.96h79v79ZM912.14,1622.96h-79v-79h79v79ZM912.14,1532.96h-79v-79h79v79ZM912.14,1442.96h-79v-79h79v79ZM912.14,1352.96h-79v-79h79v79ZM912.14,1262.96h-79v-79h79v79ZM912.14,1172.96h-79v-79h79v79ZM912.14,1082.96h-79v-79h79v79ZM912.14,992.96h-79v-79h79v79ZM912.14,902.96h-79v-79h79v79ZM912.14,812.96h-79v-79h79v79ZM912.14,722.96h-79v-79h79v79ZM912.14,632.96h-79v-79h79v79ZM912.14,542.96h-79v-79h79v79ZM912.14,452.96h-79v-79h79v79ZM912.14,362.96h-79v-79h79v79ZM912.14,272.96h-79v-79h79v79ZM912.14,182.96h-79v-79h79v79ZM912.14,92.96h-79V13.96h79v79ZM1002.14,1622.96h-79v-79h79v79ZM1002.14,1532.96h-79v-79h79v79ZM1002.14,1442.96h-79v-79h79v79ZM1002.14,1352.96h-79v-79h79v79ZM1002.14,1262.96h-79v-79h79v79ZM1002.14,1172.96h-79v-79h79v79ZM1002.14,1082.96h-79v-79h79v79ZM1002.14,992.96h-79v-79h79v79ZM1002.14,902.96h-79v-79h79v79ZM1002.14,812.96h-79v-79h79v79ZM1002.14,722.96h-79v-79h79v79ZM1002.14,632.96h-79v-79h79v79ZM1002.14,542.96h-79v-79h79v79ZM1002.14,452.96h-79v-79h79v79ZM1002.14,362.96h-79v-79h79v79ZM1002.14,272.96h-79v-79h79v79ZM1002.14,182.96h-79v-79h79v79ZM1002.14,92.96h-79V13.96h79v79Z"/>
  </g>
</svg>