<?xml version="1.0" encoding="UTF-8"?>
<svg id="Layer_2" data-name="Layer 2" xmlns="http://www.w3.org/2000/svg" viewBox="0 0 67.27 64.02">
  <defs>
    <style>
      .cls-1 {
        fill: red;
      }
    </style>
  </defs>
  <g id="Layer_1-2" data-name="Layer 1">
    <g>
      <polygon class="cls-1" points="11.25 43.59 8.61 42.07 8.61 30.63 11.25 29.11 11.25 17.84 34.94 4.17 27.72 0 20.43 4.21 20.26 7.86 10.28 13.03 7.85 11.48 0 16.01 0 19.84 4.76 22.59 4.76 34.03 0 36.77 0 48.02 2.21 49.29 6.69 46.71 16.59 52.43 16.59 57.6 27.72 64.02 34.94 59.86 11.25 46.18 11.25 43.59"/>
      <path class="cls-1" d="M66.73,30.72l-13.32-13.32-2.43.63-6.73-6.83.64-2.31-1.96-1.96c-1.15-1.15-3.12-.34-3.12,1.29v28.29l2.55,1.47v9.59l-2.55,1.47v6.76c0,1.63,1.97,2.45,3.12,1.29l23.79-23.79c.71-.71.71-1.87,0-2.59Z"/>
      <path class="cls-1" d="M27.1,22.52l-1.58.41-4.37-4.44.41-1.5-1.27-1.27c-.75-.75-2.03-.22-2.03.84v18.37l1.65.96v6.23l-1.65.96v4.39c0,1.06,1.28,1.59,2.03.84l15.45-15.45c.46-.46.46-1.22,0-1.68l-8.65-8.65Z"/>
    </g>
  </g>
</svg>