<?xml version="1.0" encoding="UTF-8"?>
<svg id="Layer_2" data-name="Layer 2" xmlns="http://www.w3.org/2000/svg" viewBox="0 0 1446 573.61">
  <defs>
    <style>
      .cls-1 {
        fill: red;
      }
    </style>
  </defs>
  <g id="Layer_1-2" data-name="Layer 1">
    <g>
      <g>
        <path class="cls-1" d="M330.2,255.22c-10.69,7.09-21.31,14.28-31.85,21.57,5.36,7.75,8.04,11.62,13.39,19.37,15.77-10.83,31.66-21.47,47.67-31.94,5.02,7.74,7.53,11.61,12.56,19.35-23.26,15.2-46.22,30.81-68.9,46.85-21.39-30.03-42.78-60.07-64.16-90.1,23.98-16.97,48.26-33.47,72.85-49.54,5.02,7.74,7.53,11.61,12.56,19.35-16.58,10.76-33.01,21.74-49.25,33,4.85,7.02,7.28,10.53,12.13,17.55,10.65-7.37,21.38-14.63,32.17-21.78,4.33,6.53,6.5,9.8,10.83,16.33Z"/>
        <path class="cls-1" d="M344.65,169.88c17.95-11.09,36.02-21.95,54.25-32.59,10.46,18.05,20.92,36.09,31.39,54.14,4.65,8.02,7.09,15.52,7.38,22.49.28,6.97-1.17,13.53-4.34,19.69-3.17,6.16-7.79,11.97-13.87,17.44-6.08,5.48-13.18,10.75-21.33,15.84-7.73,4.84-11.58,7.28-19.25,12.21-4.99-7.76-7.49-11.64-12.48-19.41,1.96-1.26,4.46-2.8,7.47-4.59,3.01-1.79,6.17-3.76,9.48-5.9,3.3-2.14,6.64-4.41,10.01-6.8,3.36-2.39,6.41-4.85,9.12-7.38,2.71-2.52,4.95-5.08,6.69-7.68,1.75-2.59,2.52-5.22,2.51-7.69-.01-1.82-.27-3.77-.93-5.71-.65-1.94-1.47-3.85-2.45-5.72-.97-1.87-2-3.71-3.09-5.52-1.08-1.81-2.08-3.48-3-5.02-2.6-4.34-5.26-8.67-7.99-12.99-2.73-4.32-5.42-8.69-8.08-13.12-9.8,5.91-19.57,11.87-29.31,17.88-4.87-7.84-7.31-11.75-12.19-19.59Z"/>
        <path class="cls-1" d="M496.74,156.2c-11.35,6.02-22.64,12.14-33.87,18.38,4.57,8.23,6.86,12.35,11.43,20.59,16.79-9.25,33.67-18.3,50.67-27.17,4.24,8.2,6.36,12.3,10.6,20.49-24.68,12.86-49.1,26.17-73.29,39.95-18.34-31.99-36.68-63.97-55.03-95.96,25.58-14.56,51.39-28.64,77.49-42.24,4.24,8.2,6.36,12.3,10.6,20.49-17.58,9.1-35.05,18.44-52.35,28.06,4.14,7.46,6.21,11.19,10.36,18.65,11.34-6.3,22.75-12.49,34.21-18.56,3.67,6.93,5.51,10.39,9.18,17.31Z"/>
        <path class="cls-1" d="M535.64,126.41c2.96,5.94,6.4,10.23,10.29,12.88,3.89,2.65,8.09,4.16,12.61,4.52,4.52.36,9.24-.18,14.17-1.62,4.93-1.44,9.95-3.32,15.08-5.62,5.12-2.31,10.28-4.77,15.46-7.4,5.18-2.63,10.22-4.98,15.11-7.07,3.82,8.47,5.73,12.7,9.56,21.17-6.66,3.35-13.29,6.54-19.78,9.59-9.09,4.27-18.72,8.19-28.27,11.33-9.11,2.98-17.77,4.39-26,4.09-8.23-.3-15.96-2.72-23.16-7.14-7.93-4.86-15.29-14.43-19.54-22.29-3.81-7.04-6.33-14.43-6.62-21.92-.29-7.49,1.08-14.76,4.12-21.79,3.04-7.02,7.63-13.57,13.78-19.59,6.14-6.02,13.54-11.1,22.16-15.21,1.51-.72,3.08-1.41,4.7-2.06,1.62-.65,3.29-1.26,5.02-1.84,13.55-.8,27.12-1.46,40.69-1.98-1.28,9.57-1.89,14.36-3.05,23.92-11.38.51-22.74,1.09-34.11,1.74-5.76,2.15-10.6,4.88-14.52,8.19-3.92,3.3-6.83,6.99-8.73,11.03-1.9,4.05-2.8,8.37-2.7,12.97.1,4.6,1.36,9.3,3.76,14.11Z"/>
        <path class="cls-1" d="M694.34,115.28c-9.93,4.04-14.88,6.1-24.74,10.27-11.38-26.87-22.76-53.74-34.13-80.62-10.46,4.47-20.89,8.99-31.3,13.57-3.74-8.44-5.61-12.65-9.35-21.09,29.79-13.1,59.81-25.57,90.12-37.42,3.33,8.61,5,12.91,8.33,21.51-10.67,4.17-21.31,8.4-31.94,12.69,11,27.03,22.01,54.06,33.01,81.08Z"/>
      </g>
      <g>
        <path class="cls-1" d="M196.72,430.76c-10.11-1.91-20.25-3.73-30.4-5.44-10.21-33.26-20.43-66.52-30.64-99.78,7.98-7.29,16-14.53,24.07-21.73-9.58-32.9-19.16-65.81-28.74-98.71,78.92-66.98,162.33-127.91,249.94-183.03C349.53,14.07,317.97,6.72,286.25,0c-27.2,18.38-54.02,37.27-80.47,56.71,1.9,10.95,3.81,21.89,5.72,32.84-35.34,24.6-69.96,50.13-103.89,76.64-10.67-1.76-21.34-3.46-32.02-5.1C49.89,183.55,24.71,206.53,0,230.08c3.96,10.99,7.91,21.97,11.87,32.96,20.09,1.66,40.15,3.52,60.18,5.75,10.92,33.04,21.84,66.07,32.76,99.11-13.69,13.36-27.22,26.86-40.59,40.54,11.59,32.19,23.18,64.38,34.77,96.57,10.07,1.32,15.08,2.02,25.07,3.49,11.82-12.4,23.77-24.66,35.87-36.78,37.05,6.37,73.82,13.82,110.43,22.4,3.95,15.22,7.9,30.45,11.85,45.67,39.07,9.95,77.68,21.19,115.97,33.81,19.78-16.8,39.87-33.16,60.32-49.14-83.22-30.3-168.3-53.82-255.17-71.01-2.64-9.08-3.97-13.62-6.61-22.7Z"/>
        <path class="cls-1" d="M1308.38,227.79c8.43,7.31,16.82,14.66,25.18,22.06-10.21,33.26-20.43,66.52-30.64,99.78-10.51,1.6-21.02,3.3-31.5,5.11-9.58,32.9-19.16,65.81-28.74,98.71-86.87,17.19-171.95,40.71-255.17,71.01,20.45,15.98,40.54,32.34,60.32,49.14,24.95-8.22,50.03-15.9,75.31-23.06,3.07-10.67,6.15-21.34,9.24-32,35.6-7.79,71.36-14.5,107.36-20.17,6.43,6.83,12.8,13.72,19.11,20.66,29.29-5.36,58.66-10.03,88.17-14.02,3.96-10.99,7.91-21.97,11.87-32.96-12.81-13.48-25.77-26.79-38.91-39.96,10.92-33.04,21.84-66.07,32.76-99.11,19.46-2.44,38.97-4.54,58.5-6.34,11.59-32.19,23.18-64.38,34.77-96.57-6.89-6.62-13.84-13.19-20.83-19.7-19.23,1.68-38.43,3.58-57.61,5.71-31.99-28.5-64.74-56.04-98.29-82.7,3.95-15.22,7.9-30.45,11.85-45.67-39.54-30.53-79.98-59.74-121.37-87.71-31.72,6.72-63.28,14.07-94.71,22.06,87.61,55.12,171.03,116.04,249.94,183.03-2.64,9.08-3.97,13.62-6.61,22.7Z"/>
      </g>
      <g>
        <path class="cls-1" d="M957.8.26c22.31,2.04,47.66,19.86,38.77,45.24-8.55,24.42-41.44,35.36-63.63,31.88-19.14-3.01-47.55-17.4-39.65-42.45,7.75-24.57,40.11-36.89,64.51-34.66Z"/>
        <path class="cls-1" d="M744.28,298.83c39.47,13,77.17,29.07,113.85,48.61-35.13,25.93-69.61,52.67-103.58,80.1-3.35-42.91-6.77-85.81-10.26-128.7ZM771.41,390.81c16.61-13.27,33.35-26.38,50.21-39.33-17.55-8.72-35.52-16.69-53.82-23.71,1.22,21.01,2.42,42.03,3.61,63.04Z"/>
        <path class="cls-1" d="M668.67,264.18c14.1,2.62,28.08,5.55,42.04,8.82,12.16-27.94,24.84-55.6,38.02-83.07,37.26,8.2,73.5,18.84,109.26,32.15,23.66-42.26,48.56-83.74,74.6-124.59-15.27-5.2-30.73-9.86-46.28-14.14-17.92,29.62-35.27,59.54-52.03,89.83-37.67-10.97-75.66-19.19-114.48-24.83-18.05,38.19-35.12,76.76-51.13,115.84Z"/>
        <path class="cls-1" d="M921.47,161.46c14.36,5.77,28.54,11.83,42.64,18.24-32.87,50.67-63.86,102.41-92.73,155.46-44.36-23.69-90.29-42.33-138.58-56.37,9.8-21.86,19.92-43.56,30.35-65.13,36.38,9.52,71.65,21.43,106.33,35.97,16.74-29.74,34.08-59.11,51.99-88.16Z"/>
      </g>
      <g>
        <path class="cls-1" d="M493.03,481.3c-2.29-6.71-3.41-10.06-5.57-16.72,38.92,2.26,77.76,2.98,116.72,1.67,8.38,6.71,16.72,13.48,25,20.3-9,16.06-18.18,31.99-27.61,47.81-14.59-.83-29.16-2.04-43.71-3.48,2.58,7.65,5.22,15.35,7.92,23.1-11.39-1.6-22.74-3.31-34.1-5.13-8.16-22.03-16.11-44.12-23.76-66.33-5.93-.45-8.91-.7-14.89-1.22ZM551.76,512.6c9.36.71,14.01,1.01,23.28,1.5,5.57-8.79,11.06-17.63,16.48-26.52-.95-.73-1.43-1.09-2.38-1.82-15.46-.14-30.89-.51-46.34-1.1,2.95,9.32,5.94,18.63,8.96,27.93Z"/>
        <path class="cls-1" d="M695.4,561.95c-11.06.17-22.15.14-33.22-.1-9.38-32.42-18.62-64.88-27.56-97.43,11.09-.82,22.2-1.9,33.24-3.23,9.01,33.63,18.24,67.2,27.54,100.76Z"/>
        <path class="cls-1" d="M708.79,561.58c-9.28-34-18.52-68-27.57-102.06,10.79-1.41,21.58-3.09,32.28-5.02,7.22,27.59,14.5,55.16,21.77,82.74,26.53-3.06,52.7-7.3,78.84-12.78,2.42,9.48,3.63,14.25,6.06,23.84-36.88,7.11-73.87,11.46-111.39,13.28Z"/>
        <path class="cls-1" d="M937.54,448.78c2.07,7.81,2.63,15.98,1.68,24.42-.95,8.44-3.46,16.58-7.5,24.28-4.05,7.71-9.85,14.75-17.08,21-7.41,6.41-17.99,11.63-27.18,14.52-8.84,2.78-20.1,4.55-29.5,3.51-8.95-.99-16.94-3.38-23.72-7.21-6.78-3.83-12.45-8.8-17-14.83-4.55-6.03-7.76-12.66-9.62-19.92-.66-2.56-.99-3.84-1.64-6.39-1.86-7.23-2.22-14.46-1.09-21.78,1.13-7.32,3.77-14.2,7.88-20.76,4.12-6.56,9.9-12.61,17.14-18.33,7.63-6.02,17.65-11.11,26.5-14.6,8.61-3.39,19.37-6.5,28.86-6.93,8.72-.4,16.48.64,23.21,3.37,6.73,2.72,12.43,6.89,17.11,12.58,4.67,5.69,8.06,12.42,10.13,20.21.73,2.75,1.1,4.12,1.82,6.88ZM839.62,485.85c2.55,9.92,7.49,16.98,14.86,21.06,7.36,4.09,16.49,4.23,26.74,1.16,8.23-2.46,18.14-9.93,22.19-17.61,3.99-7.58,5.11-19.57,2.46-27.91-.71-2.72-1.06-4.07-1.77-6.78-2.69-10.26-7.7-17-15-20.33-7.3-3.34-16.25-2.51-26.36.99-7.89,2.73-17.72,9.41-22,16.95-4.24,7.46-5.32,16.05-2.77,25.94.67,2.61,1.01,3.91,1.68,6.53Z"/>
        <path class="cls-1" d="M1024.19,470.84c-10.56,5.8-21.16,11.45-31.85,17-8.33-32.57-17.03-65.03-26.13-97.4-12.47,6.83-25.09,13.38-37.87,19.62-2.7-9.86-4.05-14.76-6.77-24.49,36.62-18.7,71.74-39.63,105.82-62.62,3.13,9.99,4.67,15.02,7.75,25.17-12.52,8.33-25.11,16.52-37.94,24.37,9.45,32.67,18.42,65.45,26.99,98.36Z"/>
      </g>
    </g>
  </g>
</svg>