<?xml version="1.0" encoding="UTF-8"?>
<svg id="Layer_2" data-name="Layer 2" xmlns="http://www.w3.org/2000/svg" viewBox="0 0 436.25 174.47">
  <defs>
    <style>
      .cls-1 {
        fill: red;
      }
    </style>
  </defs>
  <g id="Layer_1-2" data-name="Layer 1">
    <path class="cls-1" d="M436.09.4c-.44-.22-1.7-.4-2.8-.4h-48.12c-1.1,0-2.53.72-3.19,1.61l-5.01,6.78c-.65.88-.29,1.61.81,1.61h39.18c1.1,0,2.36.18,2.8.4s-.11,2.18-.62,3.16l-39.15,76.63c-.5.98-1.32,2.18-1.81,2.67s-2.9.89-4,.89h-4.07c-1.1,0-2.55.18-3.23.39s-2.22,2.12-2.77,3.07l-17.86,30.94c-.55.95-1.12,2.3-1.27,2.99s.72,2.99,1.27,3.94l3.74,6.48c.55.95,1.13,2.3,1.3,3s-.61,3.05-1.11,4.03l-6.3,12.32c-.5.98-1.32,2.18-1.81,2.67s-2.9.89-4,.89h-157.21c-1.1,0-2.55-.18-3.22-.39s-2.23-2.12-2.78-3.07l-2.52-4.36c-.55-.95-1.43-2.12-1.95-2.6s-2.95-.87-4.05-.87h-35.73c-1.1,0-2.55.18-3.22.39s-2.23,2.12-2.78,3.07l-2.52,4.36c-.55.95-1.43,2.12-1.95,2.6s-2.95.87-4.05.87h-16.38c-1.1,0-2.54-.18-3.21-.4s-2.13-2.17-2.64-3.15l-42.09-81c-.51-.98-1.03-2.35-1.16-3.05s.76-3.01,1.31-3.96l5.24-9.07c.55-.95,1.12-2.3,1.28-2.99s-.73-2.99-1.28-3.94l-17.86-30.94c-.55-.95-1.43-2.12-1.95-2.6s-2.95-.87-4.05-.87h-7.37c-1.1,0-2.54-.18-3.21-.4s-2.13-2.17-2.64-3.15l-2.81-5.4c-.51-.98-.93-2.17-.93-2.66s1.99-.89,3.09-.89h39.06c1.1,0,1.51-.76.92-1.68l-4.25-6.63c-.59-.93-1.98-1.68-3.08-1.68H2.95C1.85,0,.59.18.16.4s.13,2.17.64,3.15l13.2,25.4c.51.98,1.33,2.17,1.83,2.66s2.91.89,4.01.89h7.67c1.1,0,2.55.18,3.23.39s2.22,2.12,2.77,3.07l12.09,20.94c.55.95,1.12,2.3,1.28,2.99s-.73,2.99-1.28,3.94l-5.09,8.82c-.55.95-1.13,2.3-1.29,3s.63,3.04,1.14,4.02l47.42,91.25c.51.98,1.33,2.17,1.83,2.66s2.91.89,4.01.89h28.23c1.1,0,2.55-.18,3.23-.39s2.22-2.12,2.77-3.07l2.52-4.36c.55-.95,1.43-2.12,1.95-2.6s2.95-.87,4.05-.87h24.18c1.1,0,2.55.18,3.23.39s2.22,2.12,2.77,3.07l2.52,4.36c.55.95,1.43,2.12,1.95,2.6s2.95.87,4.05.87h169.1c1.1,0,2.54-.18,3.2-.4s2.11-2.18,2.62-3.16l11.55-22.61c.5-.98,1.01-2.36,1.14-3.06s-.77-3.01-1.32-3.96l-3.57-6.18c-.55-.95-1.12-2.3-1.28-2.99s.72-2.99,1.27-3.94l12.09-20.94c.55-.95,1.43-2.12,1.95-2.6s2.95-.87,4.05-.87h4.42c1.1,0,2.54-.18,3.2-.4s2.11-2.18,2.62-3.16L435.48,3.56c.5-.98,1.05-2.94.61-3.16Z"/>
  </g>
</svg>