<?xml version="1.0" encoding="UTF-8"?>
<svg id="Layer_2" data-name="Layer 2" xmlns="http://www.w3.org/2000/svg" viewBox="0 0 1446 573.61">
  <defs>
    <style>
      .cls-1 {
        fill: red;
      }
    </style>
  </defs>
  <g id="Layer_1-2" data-name="Layer 1">
    <g>
      <g>
        <path class="cls-1" d="M282,249.65l-7.5-33.83c47.67-10.41,95.58-19.28,143.82-26.6,10.91,12.1,21.71,24.3,32.35,36.64-11.37,11.94-22.55,24.06-33.6,36.29,6.41.45,12.56,1.45,18.43,2.99,5.86,1.54,11.21,3.91,16.03,7.08,4.81,3.17,8.82,7.22,12.02,12.15,3.2,4.93,5.25,10.92,6.17,17.98,2.03,15.53,4.06,31.07,6.1,46.6-40.04,5.37-79.85,11.87-119.53,19.52-11.54-7.29-23.17-14.44-34.87-21.46.09-.12.13-.17.22-.29l-21.43-101.01c-7.29,1.55-10.93,2.34-18.2,3.95ZM350.18,281.16c15.44-18.13,31.14-35.99,47.15-53.61-18.54,3.06-37.03,6.32-55.5,9.78,2.78,14.61,5.57,29.22,8.35,43.84ZM429.6,308.49c-.64-4.22-2.39-7.4-5.27-9.52-2.87-2.12-6.32-3.59-10.32-4.39-4.01-.81-8.33-1.11-12.94-.91-4.62.2-8.98.58-13.06,1.12-9.12,10.72-18.14,21.52-27.07,32.4,2.44,1.57,3.66,2.35,6.1,3.93,21.41-3.93,42.85-7.56,64.36-10.89-.71-4.69-1.07-7.04-1.78-11.73Z"/>
        <path class="cls-1" d="M646.92,255.97c.59,9.99-1.24,21.71-4.22,31.05-2.87,8.97-8.48,19.31-14.53,26.56-6.21,7.43-15.72,14.88-24.46,19.2-10.69,5.28-22.75,8.19-34.66,9.15-11.88.96-24.2-.02-35.56-3.46-9.35-2.83-20.04-8.63-27.39-14.99-7.15-6.17-14.36-15.47-18.65-23.86-4.46-8.73-8.16-20-9.19-29.96-.47-3.77-.7-5.65-1.17-9.42-1.45-9.89-.57-21.81,1.77-31.31,2.26-9.2,7.51-20.07,13.41-27.5,6.87-8.67,16.13-15.21,25.52-20.38,11.01-6.06,24.53-8.89,37.39-9.94,12.9-1.05,26.78-.49,38.64,3.77,10.04,3.6,20.16,8.59,28.3,16.01,7.01,6.39,13.94,16.27,17.65,24.98,3.83,9,6.63,20.62,6.79,30.61.15,3.79.22,5.69.36,9.49ZM519.49,264.98c1.09,12.17,5.56,24.38,14.67,32.76,8.63,7.94,20.72,10.57,32.08,9.65,11.36-.92,22.86-5.46,30.09-14.7,7.64-9.74,10.07-22.52,9.19-34.7-.22-3.79-.34-5.69-.56-9.48-.54-12.18-4.55-24.64-13.65-33.04-8.91-8.23-21.58-10.77-33.32-9.82-11.75.95-23.84,5.51-31.32,15.07-7.63,9.76-9.59,22.7-8.15,34.81.39,3.78.58,5.67.97,9.44Z"/>
        <path class="cls-1" d="M811.51,334.9c-13.16-.61-26.33-1.09-39.51-1.43-8.05-20.54-17.29-40.28-28.35-59.15-11.33-19.34-25.39-37.05-40.43-53.89.37,37.5.74,75,1.1,112.51-13.18.13-26.35.4-39.52.8-1.69-55.36-3.38-110.72-5.08-166.08,14.42-.4,28.84-.69,43.26-.87,13.86,12.22,27.25,24.94,39.37,38.92,11.72,13.52,22.57,27.95,31.82,43.29.7-27.21,1.4-54.42,2.1-81.63,14.32.41,28.64.93,42.95,1.55-2.57,55.33-5.14,110.65-7.72,165.98Z"/>
        <path class="cls-1" d="M907.15,341.76c-11.89-1.1-23.76-4.26-34.3-9.68-8.71-4.48-18.15-12.08-24.33-19.6-5.98-7.27-11.49-17.76-14.13-26.78-2.76-9.41-4.34-21.12-3.6-31.11,1.54-28.28,3.07-56.57,4.61-84.85,14.21.81,28.41,1.73,42.61,2.76-2.02,28.25-4.05,56.51-6.08,84.76.04,10.63.59,21.33,5.78,30.68,4.1,7.38,13.26,14.87,21.63,17.09,13.35-6.56,26.74-13,40.21-19.32,3.93-35.47,7.87-70.93,11.8-106.4,14.26,1.62,28.5,3.35,42.73,5.19-7.25,54.91-14.49,109.82-21.74,164.73-13.08-1.73-26.19-3.32-39.31-4.77.72-6.51,1.08-9.77,1.81-16.28-9.27,4.44-18.51,8.97-27.69,13.59Z"/>
        <path class="cls-1" d="M999.36,253.48c1.16-7.51,1.74-11.26,2.9-18.77.81-5.8,2.75-11.4,5.86-16.8,3.11-5.39,7.17-10.09,12.19-14.08,5.02-3.98,10.91-6.91,17.65-8.75,6.74-1.84,14.02-2.13,21.79-.85,36.66,6.15,73.11,13.17,109.43,21.07-2.49,11.28-4.98,22.56-7.46,33.84-16.91-3.68-33.89-7.3-50.82-10.65-16.81-3.33-33.81-6.42-50.73-9.29-4.96-.84-8.69-.24-11.17,1.76-2.48,2-4.26,4.6-5.36,7.79,36.27,23.34,71.76,47.72,106.53,73.23-1.86,7.37-2.8,11.05-4.66,18.42-1.52,5.99-4.04,11.59-7.55,16.81-3.51,5.22-7.8,9.59-12.85,13.12-5.06,3.53-10.85,6.03-17.37,7.51-6.53,1.49-13.5,1.49-20.98.04-32.65-6.24-65.4-11.72-98.31-16.46,1.61-11.44,3.22-22.88,4.83-34.32,9.74,1.37,14.61,2.09,24.33,3.58,16.11,2.57,32.2,5.3,48.24,8.28,9.69,1.74,14.54,2.64,24.21,4.51,4.53.87,7.97.34,10.34-1.61,2.37-1.95,4.15-4.5,5.35-7.65-34.77-24.67-70.21-48.22-106.41-70.73Z"/>
      </g>
      <g>
        <path class="cls-1" d="M196.72,430.76c-10.11-1.91-20.25-3.73-30.4-5.44-10.21-33.26-20.43-66.52-30.64-99.78,7.99-7.29,16-14.53,24.07-21.73l-28.74-98.71c78.92-66.98,162.33-127.91,249.94-183.03-31.43-8-62.98-15.34-94.71-22.06-27.2,18.38-54.02,37.27-80.47,56.71,1.9,10.95,3.81,21.89,5.72,32.84-35.35,24.6-69.96,50.13-103.89,76.64-10.67-1.76-21.34-3.46-32.02-5.1C49.89,183.55,24.71,206.53,0,230.08c3.96,10.99,7.91,21.97,11.87,32.96,20.09,1.66,40.15,3.52,60.18,5.75,10.92,33.04,21.84,66.07,32.76,99.11-13.69,13.36-27.22,26.86-40.59,40.54,11.59,32.19,23.18,64.38,34.77,96.57,10.07,1.32,15.08,2.02,25.07,3.49,11.82-12.4,23.77-24.66,35.87-36.78,37.05,6.37,73.82,13.82,110.43,22.4l11.85,45.67c39.07,9.95,77.68,21.19,115.97,33.81,19.78-16.8,39.87-33.16,60.32-49.14-83.22-30.3-168.3-53.82-255.17-71.01-2.64-9.08-3.97-13.62-6.61-22.7Z"/>
        <path class="cls-1" d="M1308.38,227.79c8.43,7.31,16.82,14.66,25.18,22.06-10.21,33.26-20.43,66.52-30.64,99.78-10.52,1.6-21.02,3.3-31.5,5.11-9.58,32.9-19.16,65.81-28.74,98.71-86.87,17.19-171.95,40.71-255.17,71.01,20.45,15.98,40.54,32.34,60.32,49.14,24.96-8.22,50.03-15.9,75.31-23.06,3.07-10.67,6.15-21.34,9.24-32,35.6-7.79,71.36-14.5,107.36-20.17,6.43,6.83,12.8,13.72,19.11,20.66,29.29-5.36,58.66-10.03,88.17-14.02,3.96-10.99,7.91-21.97,11.87-32.96-12.81-13.48-25.77-26.79-38.91-39.96,10.92-33.04,21.84-66.07,32.76-99.11,19.46-2.44,38.97-4.54,58.5-6.34,11.59-32.19,23.18-64.38,34.77-96.57-6.89-6.62-13.84-13.19-20.83-19.7-19.23,1.68-38.43,3.58-57.61,5.71-31.99-28.5-64.74-56.04-98.29-82.7,3.95-15.22,7.9-30.45,11.85-45.67C1241.58,57.18,1201.15,27.97,1159.75,0c-31.72,6.72-63.28,14.07-94.71,22.06,87.61,55.11,171.03,116.04,249.94,183.03-2.64,9.08-3.96,13.62-6.61,22.7Z"/>
      </g>
    </g>
  </g>
</svg>