<?xml version="1.0" encoding="UTF-8"?>
<svg id="Layer_2" data-name="Layer 2" xmlns="http://www.w3.org/2000/svg" viewBox="0 0 1446 573.61">
  <defs>
    <style>
      .cls-1 {
        fill: red;
      }
    </style>
  </defs>
  <g id="Layer_1-2" data-name="Layer 1">
    <g>
      <g>
        <path class="cls-1" d="M330.36,179.07c-1.04-.98-3.11-1.43-4.61-1.01-31.37,9.07-62.41,19.03-93.2,29.9-1.48.53-2.3,2.03-1.83,3.33l7.43,20.64c.47,1.3,2.04,1.94,3.48,1.42,2.68-.96,4.03-1.44,6.71-2.38,1.45-.51,3.01.14,3.47,1.45,10.78,30.6,21.56,61.19,32.33,91.79.46,1.31,1.94,1.99,3.29,1.52,8.55-2.97,12.83-4.42,21.41-7.25,1.35-.45,2.11-1.89,1.68-3.2-2.96-9.06-5.92-18.12-8.89-27.17-.43-1.32.35-2.77,1.74-3.23,9.96-3.31,19.98-6.49,30.02-9.54,1.4-.43,2.77-1.89,3.05-3.27,4.87-23.02,10.13-45.92,15.8-68.76.35-1.37-.2-3.31-1.21-4.3-6.83-6.72-13.74-13.37-20.71-19.95ZM320.04,212.65c-2.89,12.81-5.63,25.66-8.23,38.54-.28,1.38-1.66,2.88-3.08,3.34-5.5,1.78-8.25,2.69-13.73,4.52-1.41.47-2.92-.21-3.35-1.53-3.8-11.63-7.61-23.27-11.41-34.9-.43-1.32.41-2.78,1.87-3.26,11.13-3.62,22.31-7.1,33.53-10.44,1.47-.44,3.19-.34,3.82.22.63.55.89,2.14.58,3.52Z"/>
        <path class="cls-1" d="M760.43,122.04c-9.78-.2-14.67-.27-24.45-.31-1.54,0-3.6.87-4.56,1.95-16.34,18.49-32.24,37.29-47.75,56.48-.89,1.11-2.29,1.08-3.12-.06-13.17-18.1-26.64-35.92-40.45-53.53-.89-1.12-2.88-1.96-4.42-1.86-9.77.62-14.65.97-24.41,1.76-1.54.12-2.71,1.36-2.59,2.74,3.4,41.29,6.8,82.58,10.2,123.87.11,1.38,1.36,2.41,2.76,2.3,8.9-.72,13.36-1.04,22.27-1.6,1.41-.09,2.49-1.29,2.4-2.67-1.51-24.39-3.02-48.77-4.53-73.16-.09-1.38.55-1.6,1.41-.47,14.64,19.21,28.86,38.68,42.7,58.48.8,1.15,2.41,1.45,3.58.67,7.39-4.9,11.11-7.32,18.63-12.12,1.2-.76,1.55-2.34.78-3.51-3.43-5.18-5.17-7.77-8.67-12.93-.79-1.16-.71-3.01.17-4.12,10.12-12.57,20.42-24.99,30.97-37.2.93-1.08,1.7-.83,1.69.55-.07,27.08-.13,54.16-.2,81.24,0,1.38,1.15,2.52,2.55,2.53,8.92.04,13.39.1,22.31.28,1.41.03,2.59-1.08,2.62-2.46.94-41.42,1.89-82.84,2.84-124.26.03-1.38-1.2-2.55-2.75-2.58Z"/>
        <path class="cls-1" d="M486.14,247.61c-2.78-5.69-5.84-11.12-9.16-16.26-3.33-5.14-7.06-9.81-11.19-13.97-4.13-4.16-12.08-8.46-12.08-8.46-1.27-.68-1.61-2.19-.75-3.34,6.93-9.22,13.92-18.38,21-27.48.9-1.14.89-2.96-.02-4.05-6.76-8.06-13.61-16.06-20.54-23.98-.93-1.07-2.95-1.71-4.47-1.41-31.85,6.31-63.44,13.52-94.88,21.66-1.5.4-2.45,1.82-2.09,3.16,2.25,8.48,3.38,12.72,5.63,21.21.35,1.34,1.85,2.11,3.33,1.72,2.82-.74,4.23-1.11,7.05-1.84,1.48-.38,2.97.41,3.32,1.75,8.1,31.41,16.2,62.82,24.3,94.24.35,1.34,1.75,2.15,3.13,1.8,8.72-2.21,13.08-3.28,21.82-5.34,1.38-.33,2.25-1.69,1.94-3.04-2.27-9.7-3.4-14.54-5.67-24.24-.32-1.35.08-3.41.88-4.59,5.83-8.57,8.79-12.84,14.83-21.34.83-1.17,2.65-1.8,4.05-1.42,0,0,6.16,1.72,9.65,5.4,3.48,3.68,6.63,7.91,9.44,12.68,2.81,4.77,5.33,9.57,7.59,14.39,2.26,4.82,5.18,9.38,5.18,9.38.75,1.17,2.39,1.61,3.66.98,8.05-4.02,12.1-6,20.24-9.89,1.28-.61,1.8-2.12,1.16-3.35,0,0-4.54-8.67-7.32-14.36ZM436.64,180.23c-9.39,12.62-18.52,25.43-27.47,38.36-.82,1.19-1.74,1.05-2.06-.3-2.28-9.76-4.57-19.52-6.85-29.28-.32-1.35.64-2.74,2.13-3.08,11.03-2.51,22.05-4.93,33.12-7.27,1.49-.31,2,.4,1.13,1.56Z"/>
        <path class="cls-1" d="M889.74,167.61c-1.75-7.88-4.84-14.95-9.32-21.17-4.48-6.22-10.39-11.4-17.73-15.46-7.34-4.07-16.13-6.51-26.28-7.24-10.02-.73-19.02.42-26.94,3.38-7.91,2.96-14.54,7.23-19.86,12.74-5.32,5.51-9.4,12.06-12.26,19.6-2.86,7.55-4.37,21.38-4.37,21.38-.15,1.38-.31,3.64-.35,5.02-.03.94-.04,1.41-.07,2.35-.04,1.38-.02,3.65.04,5.03,0,0,.66,13.9,2.91,21.61,2.26,7.72,5.66,14.55,10.17,20.53,4.51,5.98,10.22,10.86,17.11,14.69,6.9,3.83,14.86,6.04,23.97,6.7,9.23.67,17.47-.37,24.79-3.17,7.32-2.8,13.64-6.81,18.97-12.07,5.33-5.26,9.69-11.54,13.04-18.85,3.35-7.31,6.01-20.96,6.01-20.96.26-1.36.61-3.6.77-4.97l.27-2.34c.16-1.38.33-3.63.38-5.02,0,0,.5-13.9-1.25-21.79ZM861.55,193.56c-.13,1.38-.49,3.61-.8,4.96,0,0-3.94,17.25-9.7,23.23-5.76,5.98-13.16,8.6-22.33,7.94-9.17-.66-16.11-4.32-20.94-11.07-4.83-6.75-6.24-24.39-6.24-24.39-.11-1.38-.14-3.64-.07-5.03.05-.94.07-1.41.12-2.35.07-1.38.34-3.63.59-4.99,0,0,3.23-17.35,9.02-23.38,5.78-6.02,13.58-8.73,23.28-8.03,9.7.7,17.03,4.51,21.88,11.3,4.86,6.8,5.56,24.43,5.56,24.43.05,1.39,0,3.65-.14,5.02-.09.94-.13,1.41-.22,2.34Z"/>
        <path class="cls-1" d="M596.6,164.83c-3.31-7.36-7.77-13.65-13.42-18.84-5.64-5.19-12.49-9.05-20.5-11.55-8.02-2.49-17.12-3.1-27.23-1.76-9.97,1.32-18.58,4.27-25.74,8.78-7.17,4.51-12.81,10.03-16.92,16.51-4.11,6.48-6.79,13.72-8.07,21.69-1.28,7.97.04,21.82.04,21.82.13,1.38.44,3.62.67,4.99.16.93.24,1.39.41,2.32.24,1.36.72,3.58,1.06,4.92,0,0,3.47,13.47,7.25,20.57,3.78,7.1,8.51,13.1,14.16,18.04,5.65,4.94,12.24,8.56,19.78,10.91,7.54,2.35,15.81,2.9,24.88,1.7,9.19-1.22,17.05-3.91,23.66-8.13,6.6-4.22,11.98-9.43,16.14-15.67,4.16-6.24,7.15-13.26,8.94-21.1,1.79-7.83,1.63-21.75,1.63-21.75-.02-1.39-.13-3.65-.26-5.03-.08-.94-.13-1.41-.21-2.35-.12-1.38-.42-3.62-.65-4.99,0,0-2.33-13.72-5.64-21.08ZM574.27,195.95c.15,1.38.25,3.64.22,5.02,0,0-.37,17.69-4.79,24.71-4.43,7.03-11.15,11.09-20.28,12.3-9.12,1.21-16.68-.96-22.79-6.59-6.11-5.63-11.08-22.61-11.08-22.61-.39-1.33-.88-3.54-1.09-4.91-.14-.93-.22-1.4-.36-2.33-.21-1.37-.41-3.62-.43-5.01,0,0-.35-17.65,4.11-24.72,4.45-7.07,11.55-11.31,21.21-12.59,9.65-1.28,17.61.96,23.75,6.63,6.14,5.67,10.4,22.8,10.4,22.8.33,1.35.73,3.57.89,4.95.1.94.16,1.4.26,2.34Z"/>
        <path class="cls-1" d="M1218.37,238.28s1.56-7.02.62-11.74c-.94-4.72-2.85-9.15-5.72-13.29-2.88-4.14-6.45-7.82-10.72-11.02-4.27-3.2-11.32-6.18-11.32-6.18-1.44-.61-3.83-1.5-5.32-1.98-22.25-7.15-44.61-13.83-67.13-20.09-1.5-.41-3.03.35-3.39,1.69-2.3,8.47-3.45,12.7-5.75,21.17-.36,1.34.55,2.76,2.02,3.16,2.89.79,4.34,1.19,7.22,2,1.47.41,2.37,1.84,2,3.17-8.78,31.23-17.56,62.46-26.34,93.69-.37,1.33.44,2.74,1.81,3.13,16.42,4.72,32.74,9.69,49.01,14.9,1.36.44,3.46.23,4.68-.47,15.91-9.05,31.95-17.82,48.15-26.33,1.26-.66,2.68-2.26,3.15-3.56,5.21-14.47,10.42-28.94,15.63-43.41.47-1.3,1.1-3.48,1.4-4.83ZM1177.4,267.42c-.44,1.31-1.83,2.94-3.09,3.62-9.4,5.08-18.75,10.29-28.01,15.62-1.23.71-3.36.92-4.75.49-4.27-1.34-6.41-2.01-10.69-3.31-1.39-.42-2.2-1.85-1.79-3.18,6.81-22.44,13.62-44.87,20.43-67.31.4-1.32,1.93-2.05,3.4-1.6,5.92,1.81,8.88,2.73,14.79,4.61,1.46.46,3.85,1.24,5.3,1.72,0,0,.49.16,2.88,1,2.38.84,4.66,2,6.82,3.49,2.16,1.49,3.85,3.35,5.04,5.57,1.19,2.22.62,5.57.62,5.57-.23,1.37-.79,3.56-1.23,4.87-3.24,9.61-6.48,19.23-9.72,28.84Z"/>
        <path class="cls-1" d="M998.78,146.49c-32.24-5.84-64.58-10.74-97.12-14.7-1.54-.18-2.92.8-3.08,2.18-1.01,8.72-1.51,13.08-2.52,21.79-.16,1.38.94,2.64,2.45,2.82,10.11,1.18,20.21,2.47,30.29,3.88,1.5.21,2.58,1.5,2.38,2.88-4.52,32.12-9.05,64.24-13.57,96.37-.19,1.37.79,2.65,2.19,2.85,8.86,1.26,13.28,1.93,22.12,3.35,1.4.22,2.72-.71,2.94-2.08,5.18-32.02,10.36-64.05,15.54-96.07.22-1.37,1.63-2.29,3.13-2.04,10.13,1.65,20.24,3.41,30.33,5.3,1.5.28,2.93-.61,3.18-1.97,1.62-8.62,2.43-12.94,4.04-21.56.26-1.36-.78-2.71-2.31-2.99Z"/>
        <path class="cls-1" d="M1101.27,169.31c-28.78-7.36-57.68-13.96-86.8-19.82-1.52-.3-2.98.57-3.25,1.93-7.92,40.67-15.85,81.33-23.77,122-.26,1.36.65,2.69,2.04,2.97,26.57,5.36,52.92,11.38,79.19,18.09,1.37.36,2.78-.44,3.14-1.78,2.23-8.49,3.34-12.73,5.57-21.22.35-1.34-.51-2.74-1.91-3.1-17.69-4.52-35.42-8.76-53.24-12.73-1.41-.31-2.33-1.67-2.03-3.02,1.9-8.79,2.85-13.19,4.75-21.98.29-1.35,1.71-2.21,3.15-1.89,11.45,2.5,22.87,5.14,34.26,7.93,1.43.35,2.88-.46,3.21-1.81,1.71-6.94,2.57-10.41,4.28-17.35.33-1.34-.59-2.74-2.04-3.09-11.57-2.83-23.18-5.52-34.82-8.06-1.46-.32-2.42-1.69-2.13-3.04,1.68-7.78,2.52-11.67,4.21-19.46.29-1.35,1.75-2.2,3.24-1.87,18.8,4.19,37.5,8.66,56.16,13.43,1.48.38,2.97-.39,3.33-1.73l5.57-21.22c.35-1.34-.59-2.76-2.1-3.15Z"/>
      </g>
      <g>
        <path class="cls-1" d="M196.72,430.76c-10.11-1.91-20.25-3.73-30.4-5.44-10.21-33.26-20.43-66.52-30.64-99.78,7.98-7.29,16-14.53,24.07-21.73-9.58-32.9-19.16-65.81-28.74-98.71,78.92-66.98,162.33-127.91,249.94-183.03C349.53,14.07,317.97,6.72,286.25,0c-27.2,18.38-54.02,37.27-80.47,56.71,1.9,10.95,3.81,21.89,5.72,32.84-35.34,24.6-69.96,50.13-103.89,76.64-10.67-1.76-21.34-3.46-32.02-5.1C49.89,183.55,24.71,206.53,0,230.08c3.96,10.99,7.91,21.97,11.87,32.96,20.09,1.66,40.15,3.52,60.18,5.75,10.92,33.04,21.84,66.07,32.76,99.11-13.69,13.36-27.22,26.86-40.59,40.54,11.59,32.19,23.18,64.38,34.77,96.57,10.07,1.32,15.08,2.02,25.07,3.49,11.82-12.4,23.77-24.66,35.87-36.78,37.05,6.37,73.82,13.82,110.43,22.4,3.95,15.22,7.9,30.45,11.85,45.67,39.07,9.95,77.68,21.19,115.97,33.81,19.78-16.8,39.87-33.16,60.32-49.14-83.22-30.3-168.3-53.82-255.17-71.01-2.64-9.08-3.97-13.62-6.61-22.7Z"/>
        <path class="cls-1" d="M1308.38,227.79c8.43,7.31,16.82,14.66,25.18,22.06-10.21,33.26-20.43,66.52-30.64,99.78-10.51,1.6-21.02,3.3-31.5,5.11-9.58,32.9-19.16,65.81-28.74,98.71-86.87,17.19-171.95,40.71-255.17,71.01,20.45,15.98,40.54,32.34,60.32,49.14,24.95-8.22,50.03-15.9,75.31-23.06,3.07-10.67,6.15-21.34,9.24-32,35.6-7.79,71.36-14.5,107.36-20.17,6.43,6.83,12.8,13.72,19.11,20.66,29.29-5.36,58.66-10.03,88.17-14.02,3.96-10.99,7.91-21.97,11.87-32.96-12.81-13.48-25.77-26.79-38.91-39.96,10.92-33.04,21.84-66.07,32.76-99.11,19.46-2.44,38.97-4.54,58.5-6.34,11.59-32.19,23.18-64.38,34.77-96.57-6.89-6.62-13.84-13.19-20.83-19.7-19.23,1.68-38.43,3.58-57.61,5.71-31.99-28.5-64.74-56.04-98.29-82.7,3.95-15.22,7.9-30.45,11.85-45.67-39.54-30.53-79.98-59.74-121.37-87.71-31.72,6.72-63.28,14.07-94.71,22.06,87.61,55.12,171.03,116.04,249.94,183.03-2.64,9.08-3.97,13.62-6.61,22.7Z"/>
      </g>
      <g>
        <path class="cls-1" d="M732.71,278.88c12.1,15.16,23.71,30.59,34.91,46.43,20.38,5.7,40.44,12.07,60.37,19.18-14.77,12.18-29.05,24.75-42.99,37.87-.25,18.09-.58,36.18-.96,54.27-16.89-7.84-33.93-15.03-51.32-21.67-17.39,6.65-34.43,13.83-51.32,21.67-.39-18.09-.71-36.18-.96-54.27-13.94-13.12-28.22-25.69-42.99-37.87,19.93-7.11,39.99-13.48,60.37-19.18,11.2-15.84,22.81-31.27,34.91-46.43Z"/>
        <g>
          <path class="cls-1" d="M534.82,337.42c11.09,7.36,21.98,15.03,32.64,23,14.36-.63,28.67-.94,43.04-.94-6.58,11.23-12.85,22.64-18.8,34.21,3.99,11.79,7.9,23.6,11.73,35.44-13.03-1.37-26.1-2.33-39.18-2.9-10.37,7.93-20.49,16.17-30.36,24.72-3.74-11.86-7.48-23.71-11.22-35.57-11.76-6.02-23.7-11.68-35.8-16.97,11.7-8.21,23.54-16.12,35.59-23.82,3.82-12.49,7.94-24.89,12.36-37.18Z"/>
          <path class="cls-1" d="M936.61,339.81c2.69,12.54,5.13,25.14,7.31,37.78,11.02,8.75,21.8,17.71,32.43,26.94-12.71,4.01-25.3,8.42-37.73,13.23-5.13,11.34-10.18,22.71-15.16,34.11-8.89-9.42-18.08-18.57-27.53-27.43-13.16-.72-26.34-1.05-39.52-.97,5.12-11.39,10.38-22.71,15.79-33.97-4.58-12.03-9.46-23.94-14.63-35.73,14.44,1.46,28.79,3.22,43.15,5.31,11.77-6.78,23.75-13.21,35.91-19.28Z"/>
        </g>
      </g>
    </g>
  </g>
</svg>