<?xml version="1.0" encoding="UTF-8"?>
<svg id="Layer_2" data-name="Layer 2" xmlns="http://www.w3.org/2000/svg" viewBox="0 0 1446 573.61">
  <defs>
    <style>
      .cls-1 {
        fill: red;
      }
    </style>
  </defs>
  <g id="Layer_1-2" data-name="Layer 1">
    <g>
      <g>
        <path class="cls-1" d="M196.72,430.76c-10.11-1.91-20.25-3.73-30.4-5.44-10.21-33.26-20.43-66.52-30.64-99.78,7.98-7.29,16-14.53,24.07-21.73-9.58-32.9-19.16-65.81-28.74-98.71,78.92-66.98,162.33-127.91,249.94-183.03C349.53,14.07,317.97,6.72,286.25,0c-27.2,18.38-54.02,37.27-80.47,56.71,1.9,10.95,3.81,21.89,5.72,32.84-35.34,24.6-69.96,50.13-103.89,76.64-10.67-1.76-21.34-3.46-32.02-5.1C49.89,183.55,24.71,206.53,0,230.08c3.96,10.99,7.91,21.97,11.87,32.96,20.09,1.66,40.15,3.52,60.18,5.75,10.92,33.04,21.84,66.07,32.76,99.11-13.69,13.36-27.22,26.86-40.59,40.54,11.59,32.19,23.18,64.38,34.77,96.57,10.07,1.32,15.08,2.02,25.07,3.49,11.82-12.4,23.77-24.66,35.87-36.78,37.05,6.37,73.82,13.82,110.43,22.4,3.95,15.22,7.9,30.45,11.85,45.67,39.07,9.95,77.68,21.19,115.97,33.81,19.78-16.8,39.87-33.16,60.32-49.14-83.22-30.3-168.3-53.82-255.17-71.01-2.64-9.08-3.97-13.62-6.61-22.7Z"/>
        <path class="cls-1" d="M1308.38,227.79c8.43,7.31,16.82,14.66,25.18,22.06-10.21,33.26-20.43,66.52-30.64,99.78-10.51,1.6-21.02,3.3-31.5,5.11-9.58,32.9-19.16,65.81-28.74,98.71-86.87,17.19-171.95,40.71-255.17,71.01,20.45,15.98,40.54,32.34,60.32,49.14,24.95-8.22,50.03-15.9,75.31-23.06,3.07-10.67,6.15-21.34,9.24-32,35.6-7.79,71.36-14.5,107.36-20.17,6.43,6.83,12.8,13.72,19.11,20.66,29.29-5.36,58.66-10.03,88.17-14.02,3.96-10.99,7.91-21.97,11.87-32.96-12.81-13.48-25.77-26.79-38.91-39.96,10.92-33.04,21.84-66.07,32.76-99.11,19.46-2.44,38.97-4.54,58.5-6.34,11.59-32.19,23.18-64.38,34.77-96.57-6.89-6.62-13.84-13.19-20.83-19.7-19.23,1.68-38.43,3.58-57.61,5.71-31.99-28.5-64.74-56.04-98.29-82.7,3.95-15.22,7.9-30.45,11.85-45.67-39.54-30.53-79.98-59.74-121.37-87.71-31.72,6.72-63.28,14.07-94.71,22.06,87.61,55.12,171.03,116.04,249.94,183.03-2.64,9.08-3.97,13.62-6.61,22.7Z"/>
      </g>
      <g>
        <path class="cls-1" d="M316.26,320.26c-9.52,3.21-19.01,6.5-28.48,9.87-13.74-38.17-27.49-76.34-41.23-114.52,10.38-3.74,20.81-7.35,31.27-10.83,12.81,38.49,25.62,76.99,38.44,115.48Z"/>
        <path class="cls-1" d="M433.76,287.46c-9.59,2.22-19.16,4.51-28.71,6.87-9.47-13.02-20.44-25.01-32.18-35.98-12.2-11.4-25.87-20.91-40.06-29.68,7.79,26.34,15.58,52.69,23.38,79.03-9.47,2.84-18.91,5.76-28.33,8.75-12.43-38.62-24.87-77.24-37.3-115.86,10.4-3.35,20.84-6.57,31.32-9.67,12.52,5.78,24.72,11.95,36.39,19.31,11.22,7.08,21.84,15.13,31.65,24.06-4.87-19.33-9.74-38.67-14.61-58,10.48-2.64,20.99-5.15,31.53-7.54,8.97,39.57,17.94,79.13,26.91,118.7Z"/>
        <path class="cls-1" d="M462.17,219.34c1.38,7.17,3.77,12.73,7.14,16.69,3.37,3.96,7.42,6.8,12.15,8.54,4.73,1.74,9.94,2.58,15.64,2.56,5.7-.02,11.64-.46,17.82-1.29,6.18-.84,12.44-1.81,18.79-2.93,6.34-1.12,12.45-1.97,18.31-2.59,1.05,8.46,2.1,16.91,3.15,25.36-8.08,1.35-16.09,2.67-23.88,3.73-11.07,1.51-22.52,2.9-33.39,3.16-9.47.22-19.58-.61-28.87-3.46-7.89-2.42-17.08-8.11-22.67-14.3-7.33-8.1-11.71-19.02-14.5-29.26-2.02-7.42-2.56-17.6-.61-25.21,2.03-7.94,5.78-15.43,11.19-22.03,5.43-6.62,13.81-12.93,21.28-16.84,9.1-4.76,19.26-7.66,29.2-9.5,1.84-.34,3.84-.55,5.82-.74,1.98-.19,4.01-.32,6.09-.4,15.02,3.34,29.99,6.91,44.88,10.79-3.88,8.02-7.67,16.09-11.39,24.19-12.45-3.1-24.93-6.05-37.45-8.86-6.95.51-13.11,1.94-18.43,4.26-5.32,2.32-9.66,5.37-13.01,9.1-3.35,3.73-5.67,8.07-6.99,12.97-1.32,4.91-1.4,10.27-.29,16.07Z"/>
        <path class="cls-1" d="M683.2,199.6c.15,7.88-1.07,15.44-3.59,22.68-2.52,7.25-6.26,13.66-11.17,19.26-4.91,5.61-11.12,10.15-18.4,13.77-7.53,3.74-17.64,5.8-25.81,6.36-8.14.55-18.39-.16-26.34-2.82-7.77-2.6-14.58-6.26-20.21-11.15-5.63-4.89-10.2-10.73-13.69-17.57-3.48-6.84-5.72-14.16-6.63-21.99-.32-2.76-.48-4.14-.81-6.91-.92-7.83-.42-15.47,1.54-22.93,1.97-7.46,5.37-14.17,10.24-20.09,4.87-5.93,11.38-10.85,19.28-14.79,8.84-4.41,18.87-6.37,28.11-7,9.26-.63,19.52-.08,28.9,3.13,8.28,2.84,15.35,6.84,20.97,12.05,5.62,5.21,9.89,11.4,12.84,18.52,2.95,7.12,4.47,14.63,4.63,22.51.05,2.78.08,4.17.13,6.95ZM588.14,204.93c.29,8.15,4.71,18.6,10.63,24.1,5.63,5.23,16.49,7.82,23.75,7.32,7.26-.49,17.67-4.52,22.54-10.47,5.11-6.25,8.08-17.2,7.27-25.31-.12-2.78-.18-4.17-.3-6.95.16-8.13-3.86-18.82-9.78-24.35-5.87-5.48-17.26-8.02-24.79-7.51-7.54.51-18.48,4.57-23.56,10.8-5.12,6.28-7.66,17.41-6.4,25.45.26,2.77.39,4.15.64,6.92Z"/>
        <path class="cls-1" d="M846.19,264.43c-9.74-1.05-19.46-2.02-29.22-2.92,2.37-26.96,4.74-53.92,7.12-80.89-13.54,11.57-26.85,23.43-39.86,35.59,4.43,6.81,6.61,10.23,10.91,17.08-8.6,3.91-17.16,7.94-25.66,12.08-14.09-21.12-28.69-41.84-43.82-62.24-.33,24.57-.65,49.14-.98,73.72-9.78-.09-19.55-.1-29.33-.04-.42-40.57-.84-81.14-1.26-121.7,10.73-.11,21.47-.1,32.2.05,14.42,18.84,28.39,37.96,41.96,57.42,19.33-17.98,39.11-35.39,59.39-52.3,10.71.94,21.4,2.01,32.08,3.2-4.51,40.32-9.02,80.64-13.53,120.96Z"/>
        <path class="cls-1" d="M887.71,269.79c-9.84-1.4-19.67-2.71-29.53-3.95,4.9-40.27,9.8-80.55,14.71-120.82,10.83,1.32,21.63,2.76,32.42,4.34-5.87,40.14-11.73,80.29-17.6,120.43Z"/>
        <path class="cls-1" d="M1006.87,293.21c-9.56-2.33-19.13-4.58-28.73-6.76-2.6-15.88-6.99-31.52-12.52-46.59-5.71-15.56-13.43-30.48-22.3-44.48-4.88,27.03-9.76,54.07-14.64,81.1-9.66-1.7-19.33-3.33-29.02-4.88,6.26-40.08,12.52-80.17,18.77-120.25,10.71,1.67,21.41,3.47,32.08,5.4,8.53,10.79,16.6,21.77,23.69,33.58,6.82,11.37,12.66,23.32,17.4,35.71,4.34-19.46,8.67-38.92,13.01-58.38,10.55,2.35,21.06,4.82,31.55,7.42-9.76,39.38-19.52,78.76-29.29,118.14Z"/>
        <path class="cls-1" d="M1028.46,255.63c3.8-14.76,7.61-29.52,11.41-44.28,1.07-4.15,3.13-7.96,6.22-11.41,3.08-3.45,6.85-6.24,11.29-8.35,4.45-2.11,9.33-3.46,14.64-4.03,5.3-.57,10.76-.05,16.32,1.56,25.43,7.5,50.61,15.62,75.63,24.38-3.4,9.57-5.09,14.35-8.49,23.92-20.9-7.32-41.92-14.2-63.11-20.65-5.45-1.63-9.62-2.55-12.51-2.78s-5.07.23-6.53,1.38c-1.46,1.15-2.54,2.96-3.23,5.41-.7,2.45-1.58,5.58-2.65,9.37-2.35,8.31-4.71,16.62-7.06,24.93,6.27,10.47,12.39,21.04,18.35,31.69,9.67,2.96,14.49,4.49,24.12,7.64,2.94-8.74,5.87-17.47,8.81-26.2-9.51-3.12-14.28-4.63-23.83-7.57,2.98-9.71,4.47-14.56,7.45-24.27,20.11,6.27,40.07,12.92,59.92,19.97-3.44,9.55-5.16,14.33-8.6,23.89-2.32-.84-3.48-1.25-5.8-2.07-5.91,16.66-11.82,33.32-17.73,49.98-21.26-7.43-42.63-14.37-64.2-20.82-9.79-17.44-19.92-34.65-30.41-51.68Z"/>
        <path class="cls-1" d="M466.63,309.78c9.46-1.94,18.95-3.75,28.45-5.43.47,2.63.76,5.19.88,7.7.12,2.51.4,5.02.85,7.53.37,2.05,1.17,5.24,2.4,9.55,1.23,4.31,2.73,9.11,4.51,14.39,1.77,5.28,3.74,10.79,5.88,16.53,2.15,5.74,4.32,11.05,6.53,15.9,2.21,4.85,4.36,8.96,6.46,12.31,2.1,3.35,4.08,5.34,5.88,5.99,1.29.47,3.48.67,6.52.54,2.15-23.72,4.6-47.4,7.34-71.06-.81-3.86-1.54-7.48-2.22-10.84-.67-3.36-1.2-6.36-1.57-9-.29-2.07-.4-4.22-.32-6.45,9.53-1.36,19.1-2.6,28.66-3.71.31,2.65.45,5.23.42,7.74-.03,2.51.1,5.04.4,7.57.25,2.07.86,5.3,1.82,9.68.97,4.38,2.18,9.26,3.63,14.63,1.45,5.37,3.08,10.99,4.88,16.85,1.8,5.86,3.65,11.29,5.56,16.26,1.91,4.98,3.81,9.2,5.71,12.67,1.9,3.47,3.72,5.58,5.5,6.33.77.39,1.79.63,3.08.74,1.28.11,2.78.19,4.48.26,6.27-25.65,13.01-51.14,20.23-76.54-.3-4.16-.58-7.54-.83-10.14-.25-2.59-.46-5.02-.62-7.28s-.26-3.55-.28-3.9c9.39-.69,18.81-1.26,28.22-1.71.13,2.66.36,5.32.68,7.98.32,2.65.55,5.37.69,8.15.16,3.36-.06,6.68-.67,9.96-.61,3.28-1.37,6.54-2.28,9.78-.91,3.24-1.94,6.49-3.09,9.74-1.15,3.26-2.19,6.48-3.13,9.67-4.28,14.73-8.34,29.52-12.25,44.35.67,9.37,1,14.05,1.67,23.41-6.41.46-9.62.71-16.03,1.26-6.81.59-12.68.78-17.62.53-4.95-.25-9.3-1.29-13.09-3.13s-7.25-4.58-10.41-8.22c-3.16-3.64-6.4-8.52-9.76-14.63-.48,2.52-.72,3.78-1.19,6.29,1.29,9.79,1.93,14.69,3.22,24.48-6.38.84-9.57,1.28-15.95,2.22-2.45.36-4.99.71-7.63,1.06-2.63.35-5.29.56-7.97.64-2.68.08-5.31-.04-7.88-.37s-5.03-.99-7.38-1.99c-4.44-1.93-8.65-5.14-12.66-9.64-4.01-4.5-7.78-9.8-11.32-15.91-3.54-6.1-6.8-12.67-9.78-19.7-2.98-7.03-5.66-14.03-8.04-21-2.37-6.97-4.4-13.57-6.06-19.79-1.66-6.23-2.94-11.5-3.82-15.81-.42-2.04-.65-4.18-.7-6.42Z"/>
        <path class="cls-1" d="M672.83,407.75c-8.7.27-17.41.66-26.1,1.16-.52-9.14-1.03-18.28-1.55-27.43,6.04-17.62,12.31-35.14,18.84-52.58-.12-3.13-.18-4.69-.3-7.82,9.33-.36,18.67-.61,28.01-.73.07,5.01.11,7.51.18,12.52-3.34,8.32-6.61,16.67-9.8,25.05,6.79-.16,10.19-.21,16.98-.26,6.9,4.33,10.32,6.52,17.09,10.95-.95-3.48-2.09-7.29-3.43-11.41-1.34-4.12-2.87-9.25-4.62-15.4-1.25-4.4-2.29-8.49-3.12-12.25-.83-3.76-2.11-7.01-3.84-9.72-1.73-2.71-4.24-4.84-7.51-6.37-3.28-1.52-8.13-2.24-14.53-2.08-1.54.04-2.3.06-3.84.1-3.07.22-4.6.34-7.67.59-1.54.05-2.3.08-3.84.14-.38-10.15-.57-15.22-.95-25.37,4.69-.52,9.52-.79,14.3-.97,8.09-.31,17.8.25,25.72,2.74,6.53,2.06,11.83,5.21,15.87,9.42,4.04,4.21,7.19,9.42,9.45,15.6,2.26,6.18,4.43,13.42,6.51,21.69.58,2.22,1.56,5.6,2.94,10.16,1.38,4.56,2.76,9.29,4.15,14.2,1.39,4.91,2.59,9.5,3.6,13.77,1.01,4.27,1.49,7.1,1.44,8.49-.3,8.63-.6,17.26-.9,25.89-8.58-.31-17.18-.5-25.77-.59.02-1.74.04-3.39.05-4.95.02-1.56-.03-3.1-.13-4.61-9.13-6.22-18.36-12.29-27.68-18.21-7.38.1-11.08.19-18.46.41-.73,2.04-1.1,3.06-1.83,5.1.3,9.11.44,13.66.74,22.76Z"/>
        <path class="cls-1" d="M819.25,290.56c9.39.85,18.78,1.83,28.14,2.92-.33,2.88-.56,5.71-.69,8.5-.13,2.79-.36,5.68-.71,8.67-.41,3.57-1.21,7.04-2.37,10.4-1.16,3.37-2.47,6.66-3.91,9.88-1.45,3.22-3.02,6.46-4.7,9.71-1.69,3.26-3.26,6.5-4.73,9.72-5.45,12.18-10.81,24.39-16.08,36.65,1.68.16,3.15.28,4.42.34,1.26.07,2.32.14,3.16.23-1.03,10.1-1.55,15.15-2.58,25.25-6.4-.65-9.6-.96-16.01-1.52-2.46-.21-5.02-.46-7.65-.73-2.64-.27-5.26-.67-7.88-1.21-2.62-.54-5.14-1.27-7.56-2.18-2.42-.91-4.65-2.13-6.7-3.64-3.86-2.9-7.2-7-10.05-12.3-2.85-5.3-5.29-11.33-7.31-18.09-2.02-6.76-3.68-13.9-4.94-21.43-1.27-7.53-2.26-14.96-2.95-22.29-.7-7.33-1.14-14.22-1.32-20.66-.18-6.44-.2-11.86-.06-16.27.07-2.09.33-4.22.79-6.41,9.61.3,19.22.73,28.82,1.28-.15,2.66-.46,5.23-.92,7.7-.46,2.47-.76,4.98-.91,7.53-.12,2.08-.07,5.31.14,9.67.21,4.36.53,9.32.97,14.86.44,5.54,1.05,11.29,1.82,17.26.77,5.97,1.66,11.57,2.69,16.8,1.02,5.23,2.17,9.75,3.43,13.55,1.27,3.8,2.63,6.34,4.12,7.6,9.49-23.21,19.37-46.23,29.65-69.1.41-4.5.72-8.11.9-10.83.18-2.71.39-5.26.6-7.63.22-2.37.35-3.78.39-4.24Z"/>
        <path class="cls-1" d="M912.61,374.33c-12.54-2.22-25.1-4.29-37.69-6.21-1.26,8.54-2.52,17.09-3.78,25.63,18.59,2.83,37.08,6.04,55.54,9.63-1.99,9.96-2.98,14.94-4.97,24.89-26.51-5.15-53.09-9.43-79.87-12.88,4.97-40.26,9.94-80.53,14.91-120.79,29.77,3.82,59.33,8.58,88.79,14.32-1.99,9.96-2.98,14.94-4.97,24.89-19.63-3.82-39.3-7.24-59.07-10.25-1.37,9.29-2.06,13.93-3.43,23.22,12.83,1.95,25.62,4.06,38.4,6.32-1.54,8.48-2.32,12.73-3.86,21.21Z"/>
      </g>
    </g>
  </g>
</svg>