<?xml version="1.0" encoding="UTF-8"?>
<svg id="Layer_2" data-name="Layer 2" xmlns="http://www.w3.org/2000/svg" xmlns:xlink="http://www.w3.org/1999/xlink" viewBox="0 0 1446 573.6">
  <defs>
    <style>
      .cls-1 {
        fill: url(#radial-gradient-3);
      }

      .cls-2 {
        fill: url(#radial-gradient-2);
      }

      .cls-3 {
        fill: url(#radial-gradient);
      }
    </style>
    <radialGradient id="radial-gradient" cx="229.25" cy="286.8" fx="229.25" fy="286.8" r="259.62" gradientUnits="userSpaceOnUse">
      <stop offset="0" stop-color="#fff"/>
      <stop offset=".14" stop-color="#f7f4cc"/>
      <stop offset=".29" stop-color="#f0ea9e"/>
      <stop offset=".43" stop-color="#eae279"/>
      <stop offset=".58" stop-color="#e6dc5c"/>
      <stop offset=".72" stop-color="#e3d747"/>
      <stop offset=".86" stop-color="#e1d43b"/>
      <stop offset="1" stop-color="#e1d437"/>
    </radialGradient>
    <radialGradient id="radial-gradient-2" cx="1216.75" cy="286.8" fx="1216.75" fy="286.8" r="259.62" xlink:href="#radial-gradient"/>
    <radialGradient id="radial-gradient-3" cx="723.07" cy="251.5" fx="723.07" fy="251.5" r="210.29" xlink:href="#radial-gradient"/>
  </defs>
  <g id="Layer_1-2" data-name="Layer 1">
    <g>
      <path class="cls-3" d="M159.75,303.8c-9.58-32.9-19.16-65.81-28.74-98.71,78.8-67.04,162.31-128.04,249.94-183.03-31.42-8.03-62.98-15.38-94.71-22.06-27.22,18.35-54.04,37.24-80.47,56.71,1.9,10.95,3.81,21.89,5.72,32.84-35.36,24.56-69.99,50.1-103.89,76.64-10.66-1.79-21.33-3.48-32.02-5.1C49.87,183.52,24.68,206.51,0,230.08c3.96,10.99,7.91,21.97,11.87,32.96,20.09,1.64,40.15,3.56,60.18,5.75,10.92,33.04,21.84,66.07,32.76,99.11-13.71,13.34-27.24,26.85-40.59,40.54,11.59,32.19,23.18,64.38,34.77,96.57,8.37,1.1,16.73,2.26,25.07,3.49,11.81-12.41,23.76-24.67,35.87-36.78,37.05,6.31,73.85,13.77,110.43,22.4,3.95,15.22,7.9,30.45,11.85,45.67,39.07,9.89,77.72,21.14,115.97,33.81,19.76-16.82,39.86-33.19,60.32-49.14-83.12-30.4-168.33-53.96-255.17-71.01-2.2-7.57-4.41-15.13-6.61-22.7-10.11-1.91-20.25-3.71-30.4-5.44-10.21-33.26-20.42-66.52-30.64-99.78,7.97-7.31,15.98-14.56,24.07-21.73Z"/>
      <path class="cls-2" d="M1411.23,326.65c11.59-32.19,23.18-64.38,34.77-96.57-6.91-6.6-13.85-13.17-20.83-19.7-19.23,1.66-38.43,3.56-57.61,5.71-31.96-28.53-64.72-56.08-98.29-82.7,3.95-15.22,7.9-30.45,11.85-45.67C1241.63,57.14,1201.17,27.92,1159.75,0c-31.73,6.69-63.29,14.04-94.71,22.06,87.63,54.99,171.14,115.99,249.94,183.03-2.2,7.57-4.41,15.13-6.61,22.7,8.44,7.3,16.83,14.65,25.18,22.06-10.21,33.26-20.43,66.52-30.64,99.78-10.52,1.6-21.02,3.32-31.5,5.11-9.58,32.9-19.16,65.81-28.74,98.71-86.84,17.05-172.05,40.61-255.17,71.01,20.47,15.95,40.57,32.32,60.32,49.14,24.94-8.26,50.03-15.94,75.31-23.06,3.07-10.67,6.15-21.34,9.24-32,35.59-7.83,71.36-14.54,107.36-20.17,6.41,6.85,12.78,13.74,19.11,20.66,29.28-5.4,58.66-10.06,88.17-14.02,3.96-10.99,7.91-21.97,11.87-32.96-12.79-13.49-25.76-26.81-38.91-39.96,10.92-33.04,21.84-66.07,32.76-99.11,19.47-2.38,38.97-4.49,58.5-6.34Z"/>
      <path class="cls-1" d="M949.23,262.91c6.44-55.89-18.56-107.83-59.17-144.2-48.09-43.07-116-61.79-179.03-58.84-59.37,2.78-121.49,25.05-163.99,68.54-35.88,36.72-57.03,87.14-49.68,139.54,2.23,19.45,4.46,38.91,6.68,58.36,2.15,19.48,18.13,35.4,34.99,42.48,13.81,5.8,22.78,27.62,29.66,40.87,1.56,3.01,3.15,5.92,4.41,8.37,0-.01.01-.02.02-.03,9.26,16.65,28.66,26.75,47.66,25.29,9.14-.5,18.27-.95,27.42-1.35-.63-15.1-1.26-30.2-1.89-45.29-.21-5,4.12-9.25,9.67-9.45,5.55-.2,10.17,3.72,10.33,8.73.46,15.1.93,30.21,1.39,45.31,15.17-.44,30.35-.71,45.53-.82-.08-15.11-.16-30.22-.25-45.33-.03-5.01,4.45-9.09,10-9.09s10.03,4.09,10,9.09c-.08,15.11-.16,30.22-.25,45.33,15.18.11,30.35.39,45.53.82.46-15.1.93-30.21,1.39-45.31.15-5,4.78-8.93,10.33-8.73,5.55.2,9.88,4.45,9.67,9.45-.63,15.1-1.26,30.2-1.88,45.29,9.23.4,18.47.86,27.7,1.37,18.54.86,38.46-8.32,47.36-25.05,1.36-2.55,3.04-5.48,4.72-8.59,7.24-13.36,15.7-34.19,30.29-41.42-.01,0-.02,0-.03,0,17.41-6.76,32.83-22.39,34.13-41.83,2.42-21.17,4.85-42.35,7.27-63.52ZM646.23,303.25s0,0,0,0c-5.84,2.02-12.72,3.41-18.77,3.51-9.55.15-18.76-1.15-27.57-5.73-17.16-11.46-30.23-27.55-31.73-48.88-3.27-29.17,23.99-50.06,50.4-53.29,1.42-.12,2.12-.18,3.54-.3,5.96-.69,12.04-1.24,18-1.42,19.26-.58,43.77-.81,59.56,12.59,0,0,0,.01,0,.02,5.88,5.11,9.45,12.61,8.95,20.46,0,.39,0,.58,0,.97-.02,1.42-.15,2.83-.39,4.23-3.45,33.32-31.29,58.4-62.01,67.83ZM757.07,347.98c-1.95,1.67-4.58,2.59-7.28,2.53-.01,0-.02,0-.03,0-17.85-.22-35.7-.22-53.55,0-2.69.04-5.32-.86-7.28-2.53-1.95-1.67-3.11-3.97-3.15-6.36-.26-19.7,15.5-45.08,37.21-45.08,21.65,0,37.47,25.38,37.21,45.08-.03,2.39-1.19,4.7-3.14,6.36ZM846.12,301.04c-8.82,4.55-18.07,5.91-27.57,5.73-5.98-.11-12.83-1.58-18.62-3.62-.01,0-.02,0-.03,0,.01,0,.02,0,.03,0-30.48-9.11-58.23-33.71-62.01-66.64-.33-1.73-.51-3.45-.53-5.2,0-.48,0-.72,0-1.2-.41-7.8,3.16-15.37,8.95-20.34,15.55-13.35,40.2-13.19,59.56-12.59,5.96.18,12.03.76,18,1.43,1.36.11,2.04.17,3.4.29.06,0,.09,0,.14,0,0,0,0-.01,0-.02,26.39,3.17,53.69,23.99,50.41,53.17-.83,21.16-14.95,37.77-31.74,49Z"/>
    </g>
  </g>
</svg>