<?xml version="1.0" encoding="UTF-8"?>
<svg id="Layer_2" data-name="Layer 2" xmlns="http://www.w3.org/2000/svg" viewBox="0 0 304.82 1655">
  <defs>
    <style>
      .cls-1 {
        fill: red;
      }
    </style>
  </defs>
  <g id="Layer_1-2" data-name="Layer 1">
    <path class="cls-1" d="M7.45,8.5c.73.83,1.97,1.5,2.77,1.5h145.49c1.1,0,2.57.16,3.26.36s2.44,1.98,3.09,2.87l37.5,51.65c.65.89,1.32,2.15,1.5,2.79s-.68,2.56-1.12,3.16-1.26,1.46-1.83,1.91-3.04.81-4.14.81h-6.74c-1.1,0-2.55.18-3.22.39s-2.23,2.12-2.78,3.07l-17.86,30.94c-.55.95-1.12,2.3-1.27,2.99s.72,2.99,1.28,3.94l.03.06c.55.95,1.11,2.29,1.24,2.96s-.94,2.85-1.59,3.74l-.99,1.37c-.65.89-1.64,1.98-2.21,2.43s-3.04.81-4.14.81H11.86c-.05,0-.09.46-.09,1.02v149.28c0,1.1.05,2.9.1,4,0,0,0,.05.13.1.13.05.23.11.23.11.96.54,2.53,1.42,3.49,1.96l9.21,5.21c.96.54,2.13,1.41,2.61,1.93s.87,2.94.87,4.04v11.31c0,1.1.18,2.55.39,3.22s2.12,2.23,3.07,2.78l30.94,17.86c.95.55,2.3,1.12,2.99,1.28s2.99-.73,3.94-1.28l10.33-5.96c.95-.55,2.3-1.13,2.99-1.28s3,.71,3.96,1.25l7.15,4.05c.96.54,2.13,1.41,2.61,1.93s.87,2.94.87,4.04v254.9c0,1.1-.18,2.55-.39,3.22s-2.12,2.23-3.07,2.78l-16.14,9.32c-.95.55-2.12,1.43-2.6,1.95s-.87,2.95-.87,4.05v30.39c0,.55-.18,1.1-.39,1.22s-2.12,1.23-3.07,1.78l-30.94,17.86c-.95.55-2.12,1.43-2.6,1.95s-.87,2.95-.87,4.05v35.73c0,1.1.18,2.55.39,3.22s2.12,2.23,3.07,2.78l22.48,12.98c.95.55,2.12,1.43,2.6,1.95s.87,2.95.87,4.05v211.89c0,1.1-.18,2.55-.39,3.22s-2.12,2.23-3.07,2.78l-22.48,12.98c-.95.55-2.12,1.43-2.6,1.95s-.87,2.95-.87,4.05v35.73c0,1.1.18,2.55.39,3.22s2.12,2.23,3.07,2.78l6.3,3.64c.95.55,2.12,1.43,2.6,1.95s.87,2.95.87,4.05v55.01c0,1.1.18,2.55.39,3.22s2.12,2.23,3.07,2.78l26.77,15.46c.95.55,2.12,1.43,2.6,1.95s.87,2.95.87,4.05v133.27c0,1.1-.18,2.55-.39,3.22s-2.12,2.23-3.07,2.78l-9.3,5.37c-.95.55-2.12,1.43-2.6,1.95s-.87,2.95-.87,4.05v35.73c0,1.1.18,2.55.39,3.22s2.12,2.23,3.07,2.78l9.3,5.37c.95.55,2.12,1.43,2.6,1.95s.87,2.95.87,4.05v30.68c0,1.1-.18,2.55-.39,3.22s-2.12,2.23-3.07,2.78l-26.77,15.46c-.95.55-2.12,1.43-2.6,1.95s-.87,2.95-.87,4.05v35.73c0,1.1.18,2.55.39,3.22s2.12,2.23,3.07,2.78l4.62,2.67c.95.55,2.12,1.43,2.6,1.95s.87,2.95.87,4.05v112.5c0,1.1,0,2.9,0,4,0,0,0,.45-.01,1-.01.55.03.56.03.56,1.07.24,2.85.44,3.95.44h221.74c1.1,0,2.38.19,2.84.42s.14,2.29-.24,3.33l-18.92,50.63c-.39,1.03-.79,2.48-.89,3.23s.51,3.23.89,4.26l18.92,50.63c.39,1.03.66,2.3.6,2.81s-2.1.94-3.2.94H1c-.55,0-.56-.05-.56-.05-.24-1.07-.44-1.05-.44.05v8c0,1.1.9,2,2,2h299.61c1.1,0,2.38-.19,2.84-.42s.14-2.3-.24-3.33l-22.66-60.63c-.39-1.03-.79-2.48-.89-3.23s.51-3.23.89-4.26l22.66-60.63c.39-1.03.66-2.29.6-2.81s-2.1-.94-3.2-.94H75.5c-1.1,0-2.45-.2-3-.45s-1-2.45-1-3.55v-110.28c0-1.1-.18-2.55-.39-3.22s-2.12-2.23-3.07-2.78l-4.62-2.67c-.95-.55-2.12-1.43-2.6-1.95s-.87-2.95-.87-4.05v-24.18c0-1.1.18-2.55.39-3.22s2.12-2.23,3.07-2.78l26.77-15.46c.95-.55,2.12-1.43,2.6-1.95s.87-2.95.87-4.05v-42.23c0-1.1-.18-2.55-.39-3.22s-2.12-2.23-3.07-2.78l-9.3-5.37c-.95-.55-2.12-1.43-2.6-1.95s-.87-2.95-.87-4.05v-24.18c0-1.1.18-2.55.39-3.22s2.12-2.23,3.07-2.78l9.3-5.37c.95-.55,2.12-1.43,2.6-1.95s.87-2.95.87-4.05v-144.82c0-1.1-.18-2.55-.39-3.22s-2.12-2.23-3.07-2.78l-26.77-15.46c-.95-.55-2.12-1.43-2.6-1.95s-.87-2.95-.87-4.05v-55.01c0-1.1-.18-2.55-.39-3.22s-2.12-2.23-3.07-2.78l-6.3-3.64c-.95-.55-2.12-1.43-2.6-1.95s-.87-2.95-.87-4.05v-24.18c0-1.1.18-2.55.39-3.22s2.12-2.23,3.07-2.78l22.48-12.98c.95-.55,2.12-1.43,2.6-1.95s.87-2.95.87-4.05v-223.43c0-1.1-.18-2.55-.39-3.22s-2.12-2.23-3.07-2.78l-22.48-12.98c-.95-.55-2.12-1.43-2.6-1.95s-.87-2.95-.87-4.05v-24.18c0-1.1.18-2.55.39-3.22s2.12-2.23,3.07-2.78l30.94-17.86c.95-.55,2.12-1.43,2.6-1.95s.87-2.95.87-4.05v-27.39c0-1.1.18-2.55.39-3.22s2.12-2.23,3.07-2.78l16.14-9.32c.95-.55,2.12-1.43,2.6-1.95s.87-2.95.87-4.05v-266.5c0-1.1-.18-2.55-.39-3.22s-2.13-2.21-3.09-2.75l-17.2-9.74c-.96-.54-2.31-1.11-3-1.25s-2.99.73-3.94,1.28l-10.28,5.94c-.95.55-2.3,1.12-2.99,1.28s-2.99-.73-3.94-1.28l-20.94-12.09c-.95-.55-2.12-1.43-2.6-1.95s-.87-2.95-.87-4.05v-11.36c0-1.1-.18-2.55-.39-3.22s-2.13-2.21-3.09-2.75l-9.67-5.48c-.96-.54-2.13-1.41-2.61-1.93s-.87-2.94-.87-4.04v-130.39c0-1.1.2-2.45.45-3s2.45-1,3.55-1h135.04c1.1,0,2.57-.16,3.26-.36s2.44-1.98,3.09-2.87l7.8-10.75c.65-.89,1.34-2.16,1.54-2.82s-.64-2.93-1.19-3.88l-.39-.68c-.55-.95-1.12-2.3-1.28-2.99s.73-2.99,1.28-3.94l12.09-20.94c.55-.95,1.43-2.12,1.95-2.6s2.95-.87,4.05-.87h6.06c1.1,0,2.57-.16,3.26-.36s2.44-1.98,3.09-2.87l6.5-8.95c.65-.89,1.32-2.15,1.5-2.79s-.85-2.79-1.5-3.68L167.16,3.24c-.65-.89-1.64-1.98-2.21-2.43s-3.04-.81-4.14-.81H2C.9,0,.59.68,1.32,1.5l6.13,6.99Z"/>
  </g>
</svg>