<?xml version="1.0" encoding="UTF-8"?>
<svg id="Layer_2" data-name="Layer 2" xmlns="http://www.w3.org/2000/svg" viewBox="0 0 55.42 64.02">
  <defs>
    <style>
      .cls-1 {
        fill: red;
      }
    </style>
  </defs>
  <g id="Layer_1-2" data-name="Layer 1">
    <path class="cls-1" d="M54.04,28.05l1.38-.8v-11.24l-2.21-1.28-4.48,2.58-4.94-2.85-3.6,3.6-2.63-1.52,3.6-3.6-2.34-1.35v-5.17l-3.9-2.25h.01S27.72,0,27.72,0h-.01s-.01,0-.01,0l-1.02.59v10.86l-2.93,1.69V2.28l-3.27,1.89h.01s-.06.04-.06.04l-.17,3.65-9.98,5.17-2.43-1.56-1.35.78,6.87,6.87-.37.21v3.56L3.87,13.77,0,16.01v3.84l4.76,2.75v9.42h5.88v3.96H1.38l-1.38.8v11.24l2.21,1.28,4.48-2.58,4.01,2.32,3.6-3.6,3.55,2.05-3.6,3.6,2.34,1.35v5.17l3.9,2.25h-.01s7.22,4.17,7.22,4.17h.01s.01,0,.01,0l.95-.55h-.96v-10.3h0s3.96-2.29,3.96-2.29v10.86l3.27-1.89h-.01s.06-.04.06-.04l.17-3.65,9.98-5.17,2.43,1.56.43-.25-6.87-6.87,1.3-.75v-3.56l9.13,9.13,3.87-2.23v-3.84l-4.76-2.75v-10.45h-5.88v-2.93h9.25ZM38.1,32.76l-1.44.83v6.13l-8.95,5.17-8.95-5.17v-1.41l-1.44-.83v-6.22l1.44-.83v-6.13l8.95-5.17,8.95,5.17v1.41l1.44.83v6.22Z"/>
  </g>
</svg>