<?xml version="1.0" encoding="UTF-8"?>
<svg id="Layer_2" data-name="Layer 2" xmlns="http://www.w3.org/2000/svg" viewBox="0 0 38.63 102.59">
  <g id="Layer_1-2" data-name="Layer 1">
    <path d="M30.44,84.04l-.44-.24v-10.86c0-.57-.3-1.1-.8-1.39l-1.41-.81c-.54-.31-.88-.89-.88-1.52v-26.77c0-.63.33-1.2.87-1.52l1.41-.81c.49-.29.8-.81.8-1.39v-12.48s-1.13-4.85-1.87-6.48l-5.03-13.22-1.5-5.26c-.22-.78-.93-1.31-1.74-1.31h-1.09c-.81,0-1.52.54-1.74,1.31l-1.5,5.26-5.03,13.22c-.74,1.62-1.87,6.48-1.87,6.48v12.48c0,.57.3,1.1.8,1.39l1.41.81c.54.31.87.89.87,1.52v26.77c0,.63-.33,1.2-.88,1.52l-1.41.81c-.5.29-.8.81-.8,1.39v10.86l-.44.24c-.52.28-.94.72-1.2,1.24L.14,98.96c-.2.39-.18.85.04,1.23l1.01,1.74c.23.4.66.65,1.13.65h8.82v-.05c.17.03.35.05.53.05h15.31c.18,0,.36-.02.53-.05v.05h8.82c.46,0,.89-.25,1.13-.65l1.01-1.74c.22-.38.23-.84.04-1.23l-6.85-13.68c-.26-.53-.68-.96-1.2-1.24Z"/>
  </g>
</svg>