<?xml version="1.0" encoding="UTF-8"?>
<svg id="Layer_2" data-name="Layer 2" xmlns="http://www.w3.org/2000/svg" xmlns:xlink="http://www.w3.org/1999/xlink" viewBox="0 0 189.4 390">
  <defs>
    <style>
      .cls-1 {
        fill: #03060b;
      }

      .cls-2 {
        fill: #ce4d50;
      }

      .cls-3 {
        fill: #f63e4b;
      }

      .cls-4 {
        fill: #716463;
      }

      .cls-5 {
        fill: #f24127;
      }

      .cls-6 {
        fill: #f34228;
      }

      .cls-7 {
        fill: #9a172a;
      }

      .cls-8 {
        fill: #ff6060;
      }

      .cls-9 {
        fill: #776a55;
      }

      .cls-10 {
        fill: #3d3940;
      }

      .cls-11 {
        fill: #4e2a37;
      }

      .cls-12 {
        fill: #968d8d;
      }

      .cls-13 {
        fill: #bb5553;
      }

      .cls-14 {
        fill: #ff6260;
      }

      .cls-15 {
        fill: #ce5053;
      }

      .cls-16 {
        fill: #4a2037;
      }

      .cls-17 {
        fill: #f6462a;
      }

      .cls-18 {
        fill: #d6a577;
      }

      .cls-19 {
        fill: #462f23;
      }

      .cls-20 {
        fill: #ff4b52;
      }

      .cls-21 {
        fill: #cc9b89;
      }

      .cls-22 {
        fill: #ff394f;
      }

      .cls-23 {
        fill: #373a44;
      }

      .cls-24 {
        fill: #ff4d51;
      }

      .cls-25 {
        fill: #4a2835;
      }

      .cls-26 {
        fill: #ff3f67;
      }

      .cls-27 {
        fill: #957e67;
      }

      .cls-28 {
        fill: #552f41;
      }

      .cls-29 {
        fill: #a91313;
      }

      .cls-30 {
        fill: #cf5558;
      }

      .cls-31 {
        fill: #05090b;
      }

      .cls-32 {
        fill: #574e50;
      }

      .cls-33 {
        fill: #f14027;
      }

      .cls-34 {
        fill: url(#linear-gradient);
      }

      .cls-35 {
        fill: #bbae95;
      }

      .cls-36 {
        fill: #c09d7a;
      }

      .cls-37 {
        fill: #341924;
      }

      .cls-38 {
        fill: #fe4655;
      }

      .cls-39 {
        fill: #938166;
      }

      .cls-40 {
        fill: #0d1216;
      }

      .cls-41 {
        fill: #00030c;
      }

      .cls-42 {
        fill: #dc2743;
      }

      .cls-43 {
        fill: #9a9391;
      }

      .cls-44 {
        fill: #817a68;
      }

      .cls-45 {
        fill: #71582d;
      }

      .cls-46 {
        fill: #cd5156;
      }

      .cls-47 {
        fill: #e5352a;
      }

      .cls-48 {
        fill: #9c816c;
      }

      .cls-49 {
        fill: #c2b297;
      }

      .cls-50 {
        fill: #3e3841;
      }

      .cls-51 {
        fill: #0d121a;
      }

      .cls-52 {
        fill: #0d1516;
      }

      .cls-53 {
        fill: #000307;
      }

      .cls-54 {
        fill: #9c9693;
      }

      .cls-55 {
        fill: #020711;
      }

      .cls-56 {
        fill: #020710;
      }

      .cls-57 {
        fill: #ff9c74;
      }

      .cls-58 {
        fill: #7d5010;
      }

      .cls-59 {
        fill: #f54329;
      }

      .cls-60 {
        fill: #ff6561;
      }

      .cls-61 {
        fill: #39373b;
      }

      .cls-62 {
        fill: #66364d;
      }

      .cls-63 {
        fill: #4a4243;
      }

      .cls-64 {
        fill: #11161f;
      }

      .cls-65 {
        fill: #f0802f;
      }

      .cls-66 {
        fill: #020306;
      }

      .cls-67 {
        fill: #8f7e63;
      }

      .cls-68 {
        fill: #0d1117;
      }

      .cls-69 {
        fill: #908685;
      }

      .cls-70 {
        fill: #d4bc9b;
      }

      .cls-71 {
        fill: #cf5f62;
      }

      .cls-72 {
        fill: #f54529;
      }

      .cls-73 {
        fill: #beb19d;
      }

      .cls-74 {
        fill: #961629;
      }

      .cls-75 {
        fill: #4c4445;
      }

      .cls-76 {
        fill: #ff5457;
      }

      .cls-77 {
        fill: #ff5359;
      }

      .cls-78 {
        fill: #c79d8e;
      }

      .cls-79 {
        fill: #f44429;
      }

      .cls-80 {
        fill: #e8ccab;
      }

      .cls-81 {
        fill: #db2644;
      }

      .cls-82 {
        fill: #e8c69d;
      }

      .cls-83 {
        fill: #0d1316;
      }

      .cls-84 {
        fill: #020305;
      }

      .cls-85 {
        fill: #eedfbe;
      }

      .cls-86 {
        fill: #3c1927;
      }

      .cls-87 {
        fill: #bbb097;
      }

      .cls-88 {
        fill: #ff4953;
      }

      .cls-89 {
        fill: #cd2c35;
      }

      .cls-90 {
        fill: #ff5152;
      }

      .cls-91 {
        fill: #0a0c10;
      }

      .cls-92 {
        fill: #ff3a52;
      }

      .cls-93 {
        fill: #080809;
      }

      .cls-94 {
        fill: #473b3d;
      }

      .cls-95 {
        fill: #383c44;
      }

      .cls-96 {
        fill: #f44529;
      }

      .cls-97 {
        fill: #373a43;
      }

      .cls-98 {
        fill: #b12627;
      }

      .cls-99 {
        fill: #4c4551;
      }

      .cls-100 {
        fill: #c16f75;
      }

      .cls-101 {
        fill: #f6452a;
      }

      .cls-102 {
        fill: #ca5155;
      }

      .cls-103 {
        fill: #2c2727;
      }

      .cls-104 {
        fill: #8f7871;
      }

      .cls-105 {
        fill: #8d5b14;
      }

      .cls-106 {
        fill: #b38a79;
      }

      .cls-107 {
        fill: #00030b;
      }

      .cls-108 {
        fill: #c92b32;
      }

      .cls-109 {
        fill: #931729;
      }

      .cls-110 {
        fill: #c6a383;
      }

      .cls-111 {
        fill: #a19f9c;
      }

      .cls-112 {
        fill: #02060f;
      }

      .cls-113 {
        fill: #e46966;
      }

      .cls-114 {
        fill: #928065;
      }

      .cls-115 {
        fill: #aa1313;
      }

      .cls-116 {
        fill: #2d161e;
      }

      .cls-117 {
        fill: #391a2c;
      }

      .cls-118 {
        fill: #cb6269;
      }

      .cls-119 {
        fill: #e9d3b9;
      }

      .cls-120 {
        fill: #a48a71;
      }

      .cls-121 {
        fill: #373942;
      }

      .cls-122 {
        fill: #38353a;
      }

      .cls-123 {
        fill: #ff6860;
      }

      .cls-124 {
        fill: #c75f62;
      }

      .cls-125 {
        fill: #f3ca8f;
      }

      .cls-126 {
        fill: #010305;
      }

      .cls-127 {
        fill: #030405;
      }

      .cls-128 {
        fill: #13151d;
      }

      .cls-129 {
        fill: #9e182c;
      }

      .cls-130 {
        fill: #775e4c;
      }

      .cls-131 {
        fill: #97162a;
      }

      .cls-132 {
        fill: #931627;
      }

      .cls-133 {
        fill: #f24228;
      }

      .cls-134 {
        fill: #cb4f53;
      }

      .cls-135 {
        fill: #383b45;
      }

      .cls-136 {
        fill: #cfa799;
      }

      .cls-137 {
        fill: #010304;
      }

      .cls-138 {
        fill: #907e63;
      }
    </style>
    <linearGradient id="linear-gradient" x1="-548.23" y1="-332.86" x2="-591.13" y2="-332.12" gradientTransform="translate(338.97 333.59) scale(.43 .51)" gradientUnits="userSpaceOnUse">
      <stop offset="0" stop-color="#71582d"/>
      <stop offset="1" stop-color="#931627"/>
    </linearGradient>
  </defs>
  <g id="Layer_1-2" data-name="Layer 1">
    <g>
      <g>
        <path d="M11.15,254.68l-4-64.33-6.33-8.93-.03-17.76,4.44-.27.69-62.65-5.91-1.55,12.04-5.81,8.72-36.42,8.97,38.26-.77,4.56,8.71.49.06,43.83,33.66-21.1,5.44-30.73,3.73-52.96c-1.21-2.76-3.53-7.18-2.7-9.86,1.58-5.07,4.8-9.45,4.3-14.92-.3-3.34-5.73-5.98-8.97-6.44l-.03-8.08,9.85,4.81,1.49-3.95,19.91-.09,2.05,4.03L116.31,0l-.27,7.74c-3.06,1.04-7.48,3.3-8.91,6.12-.3,11.13,8.77,14.17,1.77,25.3l3.71,53.22,5.38,30.61,33.64,21.06.09-43.79,8.98-.43-1.03-4.7,8.98-38.06,8.84,36.81c4.73,1.45,7.67,2.69,11.92,5.72l-5.92,1.02.7,63.04,4.35-.11.06,17.7-6.34,9.19-3.89,63.94,3.51,15.6-1.87,8.98-.09,22.3-3.33-11.37-6.8,99.95-3.3.12-8.54-134.06-4.1,15.75.96-44.9-.57-27.32-12.96-19.82c-2.29,1.54-4.41,2.85-6.13,2.99-1.63.13-3.89-3.39-3.8-5.02l.66-12.67c.17-3.25,1.49-7.26,4.27-8.94,4.81,2.1,1.5,8.41,6,8.39,1.38,0,2.63-1.59,2.88-3.07.19-1.08.32-1.96.74-2.01l2.65-.31-31.26-28.8.38,20.71-2.58,11.65c-.57,2.56.21,6.01.58,8.72.97,5.36.44,10.08-2.11,14.9l-10.15,107.65c-.3,3.2-1.74,5.22-4.45,6.74l-.26,5.98-3.73-5.51-4.68,5.41.58-5.47c-2.97-1.78-4.61-4.03-4.95-7.64l-10.04-106.87c-2.7-5.2-3.35-10.32-1.94-16.04.59-4.42.54-8.55-.89-12.66-1.39-3.98-1.2-8.17-1.2-12.37v-15.01s-30.89,28.51-30.89,28.51l2.51.55c.41.09.59,1.03.84,2.15.29,1.3,1.74,2.79,3.03,2.81,4.09.07,2.22-9.22,5.68-8.26,2.63.73,4.07,4.92,4.21,7.34l.83,14.18c.1,1.73-2.14,4.7-3.73,4.96s-3.79-1.05-6.02-3.18l-13.57,20.63.9,49.06.11,20.85c.25,1.4-.02,1.46-.77.5-1.1-4.9-1.76-9.18-3.6-13.88l-8.45,133.19-3.29.24-6.8-100.09-3.43,11.56.26-21.18c-3.11-8.23-2.19-16.84,1.48-25.61Z"/>
        <g id="Generative_Object" data-name="Generative Object">
          <g>
            <path class="cls-55" d="M99.09,306.59c-.22-.4-1.2-.43-1.32.04l-2.27,9.43c-.12.51-.98,1.36-1.21.78-2.1-5.35-1.72-10.57-3.52-10.61s-.97,4.38-3.36,5.8l-6.44-7.44-1.57-10.65-1-2.87-3.97-39.73-6.08-59.95-1.8-20.8.58-10.41-3.47-8.63-.27-14.8-12.95,12.07.19,10.14,2.52,5.4.07,16.73-6.18,5.98c-.42.41-1.03.45-1.43.32-.35-.11-.61-.67-.84-1.2l-2.46-5.88c-1.21.54-1.86,1.89-2.58,3.12l-7.39,12.67.02,37.79c0,8.31.1,16.22.68,24.37l-2.71,6.8-.84,11.38-.91,13.93-.76,11.19-.89,13.28-.85,12.95-.86,12.44-.83,12.5-.83,13.47-.8,12.62-.48,7.64c-.11,1.81-.83,2.96-2.15,3.4-1.04.35-2.83-.23-3-1.95l-.34-3.63-.82-17.59-.82-16.46-.88-17.27-.82-17.98-.81-27.4c-1.85,2.95-2.34,6.16-4.62,8.58l-.31-28.37-2.08-7.94,1.68-18.5.1-48.36-6.82-12.08.16-19.25c.2-1.25,2.56-1.15,3.85-1.01l.04-65.6-4.6-.39,11.17-10.19,6.27-32.01,2.37-10.67c.13-.56.37-1.23.81-1.33.58-.14,1.05.59,1.22,1.47l8.51,43.54,9.06,8.89c-1.06.86-2.12.56-3.61.55l.03,48.93c2.96-2.81,4.99-5.84,8-7.96.55-.39,1.41.93,2.01,1.52l27.45-25.61,3.03-30.98,4.1-40.34-2.86-6.94,2.63-8.19.33-7.48-7.72-6.47-.04-8.84c0-.64.42-.99.66-1.03.58-.08.89.3,1.39.65l7.94,5.68L84.81.07l20.47-.07,1.96,7.63c3.2-1.8,7.08-5.79,8.48-6.1,1.56-.35,1.64,5.28,1.32,9.74l-7.99,6.8c-.4,6.17.88,9.9,3.44,15.19l-2.98,7.65,2.45,24.17,4.54,46.4,28.12,25.92c.63-.56,1.1-1.46,1.87-1.74l7.9,8.03.02-48.58-3.93-.44,9.65-9.2,4.67-24.12,4.1-19.73c.15-.74.38-1.24.93-1.24s1.1.63,1.26,1.49l8.16,42.74,10.17,9.75c-1.31,1.09-2.55.36-3.78.74v65.55c.97-.2,3.23-.22,3.24,1l.18,19.01-7.17,13.04.1,45.14.95,10.67,1.05,9.87-1.95,7.16-.69,28.62c0,.4-.17.65-.32.82s-.57.08-.78-.38l-3.36-7.45-.72,25.35-.88,16.78-.81,15.12-.69,12.65-1.02,17.74-.78,11.97c-.11,1.76-1.9,2.43-2.99,2.18-1.19-.27-2.32-1.15-2.44-3.01l-.54-8.14-.87-15.41-.81-13.65-.83-14.47-.86-13.45-.82-12.98-.85-12.45-.86-13.34c-.41-6.29-.3-12.6-1.43-18.79l-2.21-5.89c-.32-2.71.14-5.3.24-7.88l.46-12.13.03-42.65-9.19-15.62-3.59,7.31c-.5,1.03-2-.3-2.6-.9l-5.41-5.42v-16.79s2.26-5.18,2.26-5.18l.14-10.89-12.47-11.59-.41,13.54c-.08,2.77-5.06,6.43-3.79,13.96.76,4.54.29,8.93-.16,13.44l-2.82,28-8.15,83.11c-.23,2.35-.56,3.6-1.36,5.66l-1.26,9.51c-1.06,2.78-3.64,4.3-5.41,6.52-.41.52-1.51,1.98-2.19,1.14-.94-1.15-.86-3.45-1.66-4.91ZM86.49,19.15c1.29.04,2.85-.09,4.03.33.69,2.28.64,5.07.16,7.52l-8.14-.03-2.39,6.16,10.04-.3,14.17.16,5.59.14-2.48-6.1-2.96-.02-6.34-.17.13-7.61,3.86-.18c1.39-.06,2.83.18,4.6-.03l-1.87-10.95c-.27-1.56-.64-3.27-1.09-4.43,0-.34-.05-.64-.14-.8-.12-.21-.46-.45-.83-.47l-3.38-.16-.11,7.68-9.37-.08.1-7.44c-1.09-.17-2.43-.27-3.68.1l-3.68,16.56,3.8.13ZM98.36,8.77c.15-2.49.18-4.15-.08-6.48h-6.99s-.03,6.61-.03,6.61l7.11-.12ZM108.03,15.06c2.65-1.81,4.82-3.48,7.01-5.58.01-1.5.09-2.93-.31-4.43l-7.81,5.87c.34,1.64.36,2.84,1.1,4.15ZM81.21,15.05c.87-1.63,1.06-2.97,1.01-4.39l-7.23-5.11-.32,4.12,6.54,5.39ZM85.32,25.76l4.81.2-.27-5.63-3.9-.06-3.24.03-.28,5.38,2.87.07ZM106.82,25.73c.07-1.73.12-3.33-.21-5.42l-7.4-.08-.2,5.55,7.81-.05ZM84.71,42.47c.72,1.34,2.35,3.02,2.27,4.91l-.29,7.15c-.05,1.13-.83,2.43-.24,3.87l-2.06.09-3.39-.16c-.46,2.5-.73,5-.73,7.5,0,.12-.06.22-.18.24l-4.7,47.08,5.05.08c.51.41.84.19.89-.45l2.13-23.44c.21-2.34.35-4.61.52-6.75l.59-7.23c.03-.35-.23-.61-.3-.74s.17-.47.26-.57c.14-.17.87.11.84.5l-.58,7.45-.33,5.73-1.52,15.58-.16,3.86-.91,6.98-6.43.05c-.12,4.42-.57,8.26-1.1,12.85,1.29-.14,2.66-.06,3.59.67l-.5.02c-.91.04-1.83-.32-2.98-.07l-1.69,17.01-1.55,17.66c1.06.4,2.24.45,3.02-.02.11.08.84.64,1.04.16.47-1.12.52-2.51.67-3.72l3.14-27.02c.17-1.48-.11-2.85.41-4.02.33,0,.59.05.78.29.43.52-.21.92-.23,1.24l-.29,3.91-2.91,25.31-.93,5.24-6.39.17-.83,6.7,1.36,15.24,4.5-5.96,3.52-4.2c.17.18.32.32.3.3-1.05,2.39-2.8,4.13-4.37,5.99l-3.87,4.59.94,9.56,5.11,50.79,4.42,44.03c.06.57.2,1.99.73,2.27,1.16.61,2.56.18,3.61.18l3.37.02,6.18-12.3,3.24,6.2,3.06,6.09,6.26-.15c1.03-.03,1.41-2.12,1.52-3.32l8.14-82.31,2.25-22.55-7.26-9.46c.18-.21.2-.61.2-.74l7.06,8.77c.66-5.79,1.74-11.4,1.05-16.96l-7.12-.49c-.56-1.82-.36-3.6-.55-5.37l-2.22-20.72-.39-7.49c-.1-1.85-.02-3.63-.53-5.59h3.83c-.84,1.06-1.62.7-2.93.56l.48,6.03.39,6.51,2.56,24.85c1.24.35,2.34.22,3.66.16.13-3.71-.15-7.19-.41-10.94l-1.73-25.4c-.32-4.77-1.13-9.18-.79-13.85-.34-.11-.49-.31-.59-.62l-5.33-.15c-.43-1.85-.69-3.3-.45-4.8.22-1.38-.41-2.26-.44-3.06l-.18-5.85-1.38-15.67-.35-4.75-.43-6.32-.62-8.79c-.11-1.6.22-3.15-.49-4.43.16-.08.57-.16.69-.01.19.24.37,1.01.4,1.37l.91,12.17.36,5.72.39,5.52.88,9.43.42,5.98.47,6.39c.16,2.17-.2,4.5.64,6.71l5.27-.28-5.56-56.13-1.45-15.56c-.91,2.08-2.7,3.63-3.05,5.77-.52,3.11.07,6.29.12,9.2-.5.28-.4.69-.46.92-.11.46-.62.24-.91.25l-10.82.54c-.74-.58-.35-1.3.27-.95,3.82-.34,7.31-.38,11.1-.36l-.36-10.19.21-1.03c.93-.19,1.42-1.31,1.91-2.33l4.63-9.58h-4.69s-19.88,0-19.88,0l-5.27-.02c1.34,3.22,2.98,5.7,4.48,8.49ZM84.29,57.58c.34-.21.45.19.6.36,1.5,1.65.63-5.67,1.37-9.58.28-1.52-.49-2.16-1-3.1l-2.64-4.82-1.66,17.24c1.12.33,2.42.47,3.33-.1ZM15.76,85.86h5.38c2.22,0,4.43.06,6.85.18l-6.13-31.28c-.08-.38-.29-.82-.62-.87.31-2-.19-4.09-.59-5.94l-7.3,37.72c.58.59,1.58.18,2.4.18ZM168.72,85.74c.38.32.84.44,1.29.19.17-.09.29-.02.46-.02l6.54.02-5.73-30.47c-.08-.41.02-.77-.27-.94-.14-.08-.42-.09-.57-.09,0-2.07.04-4.12-.69-6.05l-7.47,37.59,6.42-.23ZM9.47,93.94c3.92-.02,7.92.53,11.72-.3.21-.05.54-.07.85.37l12.65-.15c-1.99-2.66-6.24-6.83-7.01-6.86l-5.47-.17h-1.39s-5.33.14-5.33.14c-.74.02-2.25-.73-3.04-.02l-7.5,6.7c1.84.63,3.16.28,4.53.27ZM159.41,94.03l10.92.02.84-.1,13.9-.08-6.87-6.51c-.86-.81-5.37-.79-7.7-.11-1.22-.83-2.74-.38-4.12-.3-1.01,0-2.89-.7-3.79.15l-6.98,6.55c1.44.72,2.61.38,3.8.38ZM10.02,138.81c.61.58.72-.13.95-.05.33.13.56.86.56,1.42l-.02,20.95-1.92,2.47v16.52s7.62,8.71,7.62,8.71c-.36,2.94-.15,5.29,0,7.92,2.77.4,5.25.04,7.83-.09l4.11-.21,11.35-18.72,6.08-.15v-9.96s-4.89-.08-4.89-.08l-7.18-8.47c-.75.86-1.17,1.36-1.38,2.11l-6.16,6.35-4.9.07c-.02-.23-.06-.55.07-.97l4.74-.04,6.61-7.87v-63.05s-12.44-.02-12.44-.02l-12.33.06c-.44,0-1.4-.29-1.86.18v65.73c1.18.84,2.43-.02,3.33-1.32l-.19-21.49ZM158.4,160.84l5.08,5.97c1.73,2.03,4.6.23,6.69.46.93.1,1.99.36,2.84,1.1l-7.61.11-.07,28.13,7.63.19.08-8.49,8.25-9.2c.16-5.29.32-10.08-.12-15.1l-1.86-2.41.02-22.78c.53-.3.94.07,1.09.33.2.34.14.96.14,1.51l.09,19.67,1.19,1.5c.29.37,1.54-.35,1.54-.86v-65.33s-12.76.07-12.76.07c-.08,0-.3.18-.49-.07l-11.09.04c-.76,0-1.57-.22-2.54.14l.02,62.53,1.9,2.47ZM48.74,141.63l24.19-22.7c.02-1.29.11-2.11-.18-3.13l-25.25,23.43c-.25.66.54,2.3,1.24,2.4ZM142.97,139.5l-18.3-17.08-6.98-6.18-.02,3.44,23.75,22.36c.51.48,2.12-2,1.54-2.54ZM66.57,130.37c2.16-2.06,4.55-3.6,6.4-6.08.12-.56.17-1.5-.28-2.39l-4.05,3.96-19.59,18.19c.35.91.74,1.52,1.28,1.79l16.24-15.47ZM140.86,144.07l-11-10.33-12.16-11.14c-.37.76-.36,2.11.05,2.5l21.92,21.11c.53-.12.89-.79,1.19-2.14ZM65.57,134.1l.06,16.41,3.91,9.3c.26.61-.15,1.64.62,2.35l.85-7.55,2.39-28.05-7.84,7.54ZM119.84,158.57l3.88-8.93.32-15.41-7.72-7.25.68,13.87.88,13.45,1.05,10.83.67-.02.24-6.54ZM143.22,144.42c-.58.95-1.5,1.85-1.93,3.18l10.24,14.51,2.54-3.42c.36-.48.28-1.42.28-1.99l-.07-9.47-7.84-8.1-3.22,5.3ZM35.93,155.63c-.02.32-.18,1.06.01,1.52.71,1.43,1.81,2.4,3.1,3.29l8.91-12.87c-.4-1.61-1.36-2.68-2.11-3.9l-2.34-3.83-7.25,7.25c.27,1.19.03,2.26-.03,3.33l-.3,5.23ZM141.53,155.88l6.99,9.79,2.06-2.36-8.6-12.06c-.52,1.62-.21,2.99-.45,4.63ZM41.58,163.94c2.11-2.61,4.21-4.9,5.93-7.8.25-1.38.35-3.18-.08-4.82-2.67,3.64-4.76,7.05-7.85,10.35.47,1,1.14,1.48,2,2.27ZM45.35,179.5l1.39,4.97,4.28-4.3v-15.56c-1.27-1.78-2.02-3.46-2.92-5.47l-5.42,6.95,4.77.19-.06,12.85c-.34.53-1.45.55-2.05.37ZM142.39,183.8l.06-17.19,4.51-.47-5.51-7.11-2.78,5.52-.11,15.58,3.84,3.67ZM158.79,193.5c.73,1.2,1.65,2.62,2.43,3.28,1.12.55,2.49-.13,3.73-.17v-28.07c-.62,0-1.39.04-1.61-.49l-7.43-8.64-6.77,8.11-5.76.02v10.02s5.71.11,5.71.11l9.69,15.82ZM8.56,180.05v-16.49s-5.91,0-5.91,0v16.49s5.91,0,5.91,0ZM186.78,179.8l-.05-16.23-4.37.04v16.23c1.54.27,2.94.43,4.42-.04ZM9.62,192.27l-.31,50.56-1.53,16.53,1.89,6.15.51,21.44c.91-.58.94-1.92,1.3-2.5l2.95-5.79.54,21.08.44,8.56c.53-1.34,1.74-2.54,1.91-4.02.79-7.12.77-13.92,1.1-20.98.33-7.09.77-13.86.8-20.97.01-2.67.73-5.17.27-8.07l1.83-.8c.64.32,1.36.59,2.6.38l-.23,10c-.06,2.5-.62,4.76-.17,6.97,2.42-4.41,5.72-7.97,7.09-12.66.41-3.09-.31-6.79-.34-9.93l-.18-22.06c-1.07.13-1.83.91-2.68,1.32-.12-.18-.24-.31-.22-.29.79-.95,1.85-1.4,2.95-2.18l-.02-27.02c-1.81-.78-3.83-.64-5.41-.1-2.27-.86-4.68-.14-7.4-.38l-.33,6.06c-.32-.32-.54-.57-.79-.55l.15-14.03-6.85-7.59-4.74.18c-.24,0-.57.36-.8.69l5.69,10.01ZM166.52,197.67l-5.38-.09c-.52-.32-.82-.85-1.63-1.74l-.07,26.53,1.6,1.6,2.91,2.68c-1.15.38-1.71-.67-2.31-1.24l-2.16-2.02-.14,18-.64,16.89c.61,2.45,2.25,4.68,3.31,6.58.29,1.41,1.31,2.5,2.41,4.03l-.39-15.22,4.13.23c.61,3.52.5,7.06.69,10.95l1.81,37.19c.11,1.48,1.55,2.81,2.25,3.83l.14-32.78,6.48,14.68.33-22.29,1.92-5.65-1.82-16.97-.12-50.16,6.06-11.1-5.33-.23-6.77,7.47.03,13.53c-.33.33-.49.54-.84.64l-.03-5.46-6.44.13ZM18.68,304.54l-3.36,6.13,1.46,29.77.9,18.28.24,6.32,1.27,21.49c.97-.59.88-1.77.96-3.01l2.14-32.19,1.98-29.16.98-14.34,2.59-41.66-4.39,6.27c-.3.43-.61.94-1.11.86l.22-8.97.34-9.1c-.84-.09-1.65-.1-2.35.12l-.38,10.63-.83,18.96-.66,19.61ZM165.63,272.92l-4.46-6.75.59,8.95.51,8.68.22,3.95,2.1,32.41.56,7.87,3.33,55.74c.06.99-.1,2.19,1.08,3.05l1.14-12.81.31-6.83.89-15.96,2.25-40.94-4.69-7.44-.16-5.63-.9-21.9-1.03-19.97c-.73-.23-1.59-.19-2.34-.11-.31,1.6.18,2.8.22,4.16l.39,13.54ZM173.86,307.76c.38-.13.4-.42.41-.8l.19-6.46.18-19.24c-.17-.06-.39.12-.39.28l-.23,12.86-.16,13.37ZM92.06,288.12l-3.49,6.47-6.61.33c.55,3.09.07,6.22,1.07,8.69.82,1.89,2.86,2.94,4,4.43l1.27-4.59,4.86.09h7.55s.86,3.39.86,3.39c-.28,2.2,2.4-.46,4.86-3.45l.51-6.12.07-2.6-6.61-.03-5.75-11.64-2.59,5.05ZM95.57,306c-.05-.53-1.69-.48-1.7-.03-.07,1.71.59,3.7.65,6.29.57-1.91,1.27-3.82,1.06-6.26Z"/>
            <path class="cls-34" d="M105.38,34.01l-1.85,11.9-.21,1.03.36,10.19c-3.79-.02-7.28.02-11.1.36-.62-.34-1.01.37-.27.95l10.82-.54.9,2.55c.71,1.28.38,2.83.49,4.43l.62,8.79.43,6.32.35,4.75,1.38,15.67.18,5.85c-.66.26-.92,1.06-1.04,1.88l-2.09,14.93c-.23,1.62-.62,3.06-1.54,4.26l-2.21-3.07h-10.73s-4.26,5.1-4.26,5.1l-.29,9.18-.87,15.95-.91,18.75,5.37,6.77.07,92.99,11.65-.15c-2.55,4.47.2,10.4-2.89,14.41l-3.24-6.2-6.18,12.3-3.37-.02c-.55-3.05-.18-6.22-.49-9.37l-.92-9.33-1.88-16.3-.59-9.32-2.09-25.52-2.17-18.23-2.79-23.34c1.57-1.86,3.31-3.61,4.37-5.99.02.02-.13-.13-.3-.3l-3.52,4.2,1.36-16.14.93-5.24,2.91-25.31c.5.26,1-.39.53-1.15.23-1.02.55-.69,1.18.37l2.09-12.34c.71-4.17.23-12.36-.61-16.72l1.52-15.58.33-5.73.58-7.45c.03-.39-.69-.67-.84-.5-.1.11-.33.44-.26.57s.33.39.3.74l-.59,7.23c-.17,2.14-.31,4.42-.52,6.75l-2.13,23.44-1.85.04.94-11.54,2.11-28.61-2-4.48-.44-2.13c.13-.02.17-.12.18-.24l2.51,4.66,1.61-11.99,2.06-.09c-.59-1.43.19-2.73.24-3.87l.29-7.15c.08-1.89-1.55-3.56-2.27-4.91l.79-8.47h19.88ZM99.68,109.46l-.49-15.17-.7-30.21h-6.19c-.53,4.28-.42,7.89-.51,11.8l-.45,17.93c-.14,5.42-.53,10.52-.34,15.9l8.69-.25ZM82.42,255.36c.03.39.05.82.33.98.23.14.5.03.63-.24.17-.34-.21-.73-.36-.93l-.29-5.97-.37-7.2-.45-8.74-.36-8.23-.95-18.15-.36-10.02c-.11-3.04-.46-6.1-.66-9.32-.1-1.63.27-3.14-1.04-4.53-.64.62.05,1.41.09,1.93l.8,12.22.39,9.03.49,9.94.37,8.96.39,8.19.46,8.25.37,6.71.55,7.14Z"/>
            <path class="cls-40" d="M97.75,287.26c3.09-4.01.34-9.94,2.89-14.41l.07-93.11c0-.22-.33-.31-.44-.2l5.7-7.7-1.48-38.59c-.1-2.48-.32-4.06-1.67-5.93.92-1.2,1.31-2.63,1.54-4.26l2.09-14.93c.11-.82.38-1.62,1.04-1.88.02.8.66,1.68.44,3.06-.24,1.5.02,2.95.45,4.8l5.33.15c.1.32.24.51.59.62-.34,4.67.46,9.08.79,13.85l1.73,25.4c.26,3.75.53,7.22.41,10.94-1.32.06-2.42.19-3.66-.16l-2.56-24.85-.39-6.51-.48-6.03c1.31.14,2.09.5,2.93-.56h-3.83c.52,1.97.44,3.74.53,5.59l.39,7.49,2.22,20.72c.19,1.77,0,3.55.55,5.37l7.12.49c.7,5.57-.39,11.17-1.05,16.96l-7.06-8.77c0,.13-.02.53-.2.74l7.26,9.46-2.25,22.55-8.14,82.31c-.12,1.2-.49,3.3-1.52,3.32l-6.26.15-3.06-6.09ZM106.07,256.37c.34.09.72-.1.85-.44l.35-8.72.41-10.13.45-7.77.37-5.74.46-7.26.39-7.64.46-5.85.38-7.55.3-3.75c.14-1.74.64-3.43.21-5-1.16,1.57-.72,3.33-.85,4.76l-.5,5.43-.38,7.12-.46,6.31-.38,7.16-.46,6.77-.37,5.74-.45,7.77-.39,11.11c-.09,2.62-.4,5.24-.38,7.67Z"/>
            <path class="cls-138" d="M21.07,95.65l.03,71.81c.53.25.78.14.98.14l4.9-.07,6.16-6.35c-.89,3.21-2.87,6.04-4.98,8.56-.78-.75-1.31.17-.93.82l-2.01,22.1-.17,3.99c-2.58.13-5.06.49-7.83.09-.16-2.63-.36-4.98,0-7.92l-7.62-8.71v-16.52s1.92-2.47,1.92-2.47l.02-20.95c0-.56-.23-1.29-.56-1.42-.23-.09-.34.63-.95.05l-.22,20.82c0,.73-.64,1.36-1.23,1.45l.16-65.37,12.33-.06ZM10.95,119.74h4.71s-.08-17.21-.08-17.21l-5.86.2.04,24.51c0,.52.77.63,1.05.33.35-.38-.29-4.09.14-7.83Z"/>
            <path class="cls-83" d="M168.15,253.89l-.31-11-.44-12.48-.52-18.87-.37-13.88,6.44-.13.03,5.46c.34-.1.51-.31.84-.64l-.03-13.53,6.77-7.47,5.33.23-6.06,11.1.12,50.16,1.82,16.97-1.92,5.65-.33,22.29-6.48-14.68-.14,32.78c-.7-1.01-2.14-2.34-2.25-3.83l-1.81-37.19c-.19-3.9-.08-7.43-.69-10.95ZM173.49,255.36s.48.11.74-.26v-40.62c0-.51-.46-.96-.82-.96l-.1,35.8c0,2.18-.5,4.21.17,6.05Z"/>
            <path class="cls-121" d="M170.16,167.27l.44-71.54,12.76-.07v65.33c0,.51-1.24,1.23-1.53.86l-1.19-1.5-.09-19.67c0-.56.06-1.18-.14-1.51-.15-.26-.56-.63-1.09-.33l-.02,22.78,1.86,2.41c.44,5.02.27,9.81.12,15.1l-8.25,9.2-.08,8.49-7.63-.19.07-28.13,7.61-.11c-.86-.74-1.91-1-2.84-1.1ZM179.38,124.39c.03.62.8.62.97.38.13-.18.16-.49.16-1.04l.02-20.33c-.2-.45-.79-.9-1.08-.89l-4.98.19-.06,16.94,4.77.18.2,4.57Z"/>
            <path class="cls-7" d="M16.17,203.01c.25-.02.47.23.79.55l.33-6.06c2.71.24,5.13-.48,7.4.38l-3.39,55.57-1.83.8c.46,2.89-.26,5.4-.27,8.07-.03,7.11-.46,13.88-.8,20.97-.33,7.06-.31,13.86-1.1,20.98-.16,1.48-1.38,2.69-1.91,4.02l-.44-8.56-.54-21.08-2.95,5.79c-.47-.41-.5-.98-.42-1.66l.63-5.38.63-11.08-1.11-10.99-.28-9.37-.29-50.06,5.13.22-.03,6.39c0,.44.26.5.44.49ZM14.15,214.37l-.08,40.43c.72-.17.88.46,1.03.54.18.09.43-.42.48-.51.18.08.6.08.6-.5l-.05-40.33c-.76.24-.92-.72-1.03-.54-.16.26-.36.9-.95.92Z"/>
            <path class="cls-97" d="M22.09,167.6c-.2,0-.45.11-.98-.14l-.03-71.81,12.42.02v63.05s-6.6,7.87-6.6,7.87l-4.74.04c-.12.42-.08.74-.07.97ZM28.62,126.41v-23.73c-.01-.37-1.03-.33-1.03.08l.02,24.3c0,.18.54.77.64.64s.37-.66.37-1.28ZM32.89,140.41c.43-1.54.12-3.74.14-5.54l-3.96-.59c-.15,2.16-.47,3.92-.09,5.92.28,1.47,1.91,2.57,3.22,2.46-.02-.9-.17-1.64.69-2.25Z"/>
            <path class="cls-27" d="M170.11,95.66l-.1,70.9-6.54.25-5.08-5.97.63-65.14,11.09-.04ZM161.61,127.64c.34.17.67.1.96-.15l.03-24.72c-.57-.07-1.03.57-1.03,1.01l.04,23.86Z"/>
            <path class="cls-13" d="M84.96,293.34c-1.05,0-2.46.43-3.61-.18-.53-.28-.67-1.7-.73-2.27l-4.42-44.03-5.11-50.79-.94-9.56,3.87-4.59,2.79,23.34,2.17,18.23,2.09,25.52.59,9.32,1.88,16.3.92,9.33c.31,3.15-.06,6.32.49,9.37Z"/>
            <path class="cls-51" d="M21.3,253.45l3.39-55.57c1.58-.54,3.61-.68,5.41.1l.02,27.02c-1.09.78-2.16,1.23-2.95,2.18-.02-.02.1.11.22.29.85-.41,1.61-1.19,2.68-1.32l.18,22.06c.03,3.14.75,6.84.34,9.93-1.37,4.69-4.68,8.25-7.09,12.66-.45-2.2.11-4.46.17-6.97l.23-10c-1.24.21-1.96-.06-2.6-.38Z"/>
            <path class="cls-130" d="M158.79,193.5l-9.69-15.82-5.71-.11v-10.02s5.76-.02,5.76-.02l6.77-8.11,7.43,8.64c.22.53.98.48,1.62.49v28.07c-1.25.04-2.63.72-3.75.17-.79-.66-1.7-2.08-2.43-3.28Z"/>
            <path class="cls-10" d="M25.06,196.66l.17-3.99,2.01-22.1c-.38-.65.15-1.58.93-.82,2.1-2.52,4.08-5.35,4.98-8.56.21-.75.63-1.26,1.38-2.11l7.18,8.47,4.89.08v9.96s-6.08.15-6.08.15l-11.35,18.72-4.11.21Z"/>
            <path class="cls-26" d="M169.46,302.84l-.13,17.87.25,57.84c1.09-1.91-.22-5.27,1.11-4.54l-1.14,12.81c-1.19-.86-1.02-2.06-1.08-3.05l-3.33-55.74-.56-7.87.75-5.79.46-25.1-.03-10.06c-.82-2.07-.77-4.29-.14-6.29l-.39-13.54c-.04-1.36-.53-2.56-.22-4.16.76-.08,1.62-.12,2.34.11l1.03,19.97.9,21.9.16,5.63Z"/>
            <path class="cls-129" d="M166.52,197.67l.37,13.88.52,18.87.44,12.48.31,11-4.13-.23.39,15.22c-1.09-1.53-2.12-2.62-2.41-4.03-.12-.61-.17-1.16-.82-1.86l-.06-36.92c.44-.14.52-.53.51-.67.6.57,1.17,1.61,2.31,1.24l-2.91-2.68.09-26.39,5.38.09Z"/>
            <path class="cls-64" d="M104.05,60.45l-.9-2.55c.29-.01.8.2.91-.25.06-.23-.05-.64.46-.92-.05-2.91-.63-6.09-.12-9.2.36-2.13,2.14-3.69,3.05-5.77l1.45,15.56,5.56,56.13-5.27.28c-.84-2.21-.48-4.54-.64-6.71l-.47-6.39-.42-5.98-.88-9.43-.39-5.52-.36-5.72-.91-12.17c-.03-.36-.21-1.13-.4-1.37-.12-.15-.53-.07-.69.01Z"/>
            <path class="cls-26" d="M22.34,273.3l-.46,11.15-.5,12.79-.44,12.99.38,45.37c.52-1.34.48-2.71.32-4.14-.12-.35.44-.51.65-.13l-2.14,32.19c-.08,1.24,0,2.42-.96,3.01l-1.27-21.49c.36-.1.37-.46.39-.97l.32-8.03.04-51.49.66-19.61.83-18.96.38-10.63c.7-.21,1.51-.2,2.35-.12l-.34,9.1-.22,8.97Z"/>
            <path class="cls-115" d="M22.3,351.32c-.2-.38-.77-.21-.65.13.16,1.43.2,2.8-.32,4.14l-.38-45.37.44-12.99.5-12.79.46-11.15c.51.08.81-.44,1.11-.86l4.39-6.27-2.59,41.66-.98,14.34-1.98,29.16Z"/>
            <path class="cls-29" d="M170.69,374c-1.33-.73-.02,2.63-1.11,4.54l-.25-57.84.13-17.87,4.69,7.44-2.25,40.94-.89,15.96-.31,6.83Z"/>
            <polygon class="cls-117" points="119.84 158.57 119.59 165.11 118.92 165.13 117.87 154.3 116.99 140.85 116.31 126.98 124.03 134.22 123.72 149.64 119.84 158.57"/>
            <path class="cls-124" d="M10.63,195.91l.29,50.06.28,9.37,1.11,10.99-.63,11.08-.63,5.38c-.08.69-.06,1.26.42,1.66-.36.59-.38,1.92-1.3,2.5l-.51-21.44-1.89-6.15,1.53-16.53.31-50.56c.23.41.02,1.5.56,1.71.87.34.45,1.41.46,1.93Z"/>
            <path class="cls-132" d="M103.79,3.63c-.64-.7-2.15-.75-2.74-.32,1.25,5.58.65,10.93,1.1,15.74l-3.86.18-6.9-.2c-.47-.01-.72.11-.89.45-1.17-.42-2.74-.28-4.03-.33l.87-6.94,1.93-9.57.67,7.16,9.37.08.11-7.68,3.38.16c.37.02.71.26.83.47.1.17.14.47.14.8Z"/>
            <path class="cls-44" d="M98.3,19.22l-.13,7.61,6.34.17-.15,5.98-14.17-.16c-1.27-.01-2.72-.69-4.33-.13l.6-5.23c1.56.05,3.11.23,4.83-.15l.12-8.28,6.9.2Z"/>
            <path class="cls-94" d="M65.63,150.51c.15.22.47.09.42-.34v-15.86c-.22-.14-.36-.12-.47-.21l7.84-7.54-2.39,28.05-.85,7.55c-.78-.71-.37-1.74-.62-2.35l-3.91-9.3Z"/>
            <path class="cls-15" d="M81.35,112.77c-.06.64-.38.86-.89.45l-5.05-.08,4.7-47.08.44,2.13,2,4.48-2.11,28.61-.94,11.54,1.85-.04Z"/>
            <path class="cls-49" d="M159.02,95.7l-.63,65.14-1.9-2.47-.02-62.53c.97-.36,1.78-.14,2.54-.14Z"/>
            <path class="cls-33" d="M106.93,297.34c.04-.48-.76-1.02-.23-2.13l-5.14-.03c-.38,4.54.93,8.56,0,11.73l-.86-3.38h-7.55c-.55-3.32-.2-6.74-.49-10.31l-.62-5.1,2.59-5.05,5.75,11.64,6.61.03-.07,2.6Z"/>
            <path class="cls-106" d="M79.76,133.14l.29-3.91c.02-.33.66-.72.23-1.24-.19-.23-.45-.29-.78-.29h-1.56c-.93-.72-2.31-.81-3.59-.67.53-4.59.99-8.44,1.1-12.85l6.43-.05.91-6.98.16-3.86c.84,4.37,1.31,12.56.61,16.72l-2.09,12.34c-.62-1.06-.94-1.39-1.18-.37.47.76-.03,1.41-.53,1.15Z"/>
            <path class="cls-3" d="M165.63,272.92c-.63,2-.68,4.22.14,6.29l.03,10.06-.46,25.1-.75,5.79-2.1-32.41c.51-.97.6-3.12-.22-3.95l-.51-8.68-.59-8.95,4.46,6.75Z"/>
            <path class="cls-119" d="M8.74,95.71l-.16,65.37c.59-.09,1.22-.71,1.23-1.45l.22-20.82.19,21.49c-.91,1.3-2.15,2.15-3.34,1.32v-65.73c.46-.47,1.43-.18,1.86-.18Z"/>
            <path class="cls-47" d="M17.92,365.03l-.24-6.32-.9-18.28-1.46-29.77,3.36-6.13-.04,51.49-.32,8.03c-.02.51-.04.87-.39.97Z"/>
            <path class="cls-6" d="M93.16,303.54l-4.86-.09-1.27,4.59c-1.14-1.49-3.18-2.54-4-4.43-1-2.47-.52-5.59-1.07-8.69l6.61-.33,3.49-6.47.62,5.1c.29,3.58-.07,6.99.49,10.31Z"/>
            <path class="cls-95" d="M21.15,85.87v-29.44c0-.88-.05-1.59.1-2.53.34.05.55.48.62.87l6.13,31.28c-2.42-.11-4.63-.17-6.85-.17Z"/>
            <path class="cls-95" d="M170.47,85.9l-.02-31.48c.14,0,.43,0,.57.09.29.17.2.53.27.94l5.73,30.47-6.54-.02Z"/>
            <path class="cls-46" d="M77.45,127.73c.78,1.53.51,3.57-.08,5.4.33,1.72-.43,3.1-.51,4.48l-1.94,17.05c-.12,1.02-.35,2.1-.45,3.49l-.22,4.16c-.77.47-1.95.42-3.02.02l1.55-17.66,1.69-17.01c1.15-.25,2.07.11,2.98.07Z"/>
            <polygon class="cls-134" points="75.92 163.69 74.56 179.83 70.06 185.79 68.7 170.56 69.53 163.86 75.92 163.69"/>
            <path class="cls-104" d="M16.17,203.01c-.18.02-.44-.05-.44-.49l.03-6.39-5.13-.22c0-.53.42-1.59-.46-1.93-.54-.21-.33-1.3-.56-1.71l-5.69-10.01c.23-.33.56-.68.8-.69l4.74-.18,6.85,7.59-.15,14.03Z"/>
            <polygon class="cls-76" points="8.56 180.05 2.65 180.05 2.65 163.56 8.57 163.56 8.56 180.05"/>
            <path class="cls-42" d="M142.97,139.5c.58.54-1.03,3.02-1.54,2.54l-23.75-22.36.02-3.44,6.98,6.18,18.3,17.08Z"/>
            <path class="cls-52" d="M45.35,179.5c.6.18,1.71.16,2.05-.37l.06-12.85-4.77-.19,5.42-6.95c.9,2.01,1.65,3.69,2.91,5.47v15.56s-4.27,4.3-4.27,4.3l-1.39-4.97Z"/>
            <path class="cls-39" d="M21.14,56.43v29.44s-5.38,0-5.38,0c-.21-1.14.15-2.21.38-3.53l4.43-25.41c-.22-.54.33-.68.57-.5Z"/>
            <polygon class="cls-2" points="142.39 183.8 138.55 180.12 138.66 164.55 141.44 159.03 146.96 166.13 142.44 166.6 142.39 183.8"/>
            <path class="cls-90" d="M48.74,141.63c-.7-.11-1.49-1.75-1.24-2.4l25.25-23.43c.29,1.02.2,1.83.18,3.13l-24.19,22.7Z"/>
            <path class="cls-9" d="M154.34,156.7c-.21-.06-.44.13-.61.15,0,0-6.72-9.53-10.51-12.43l3.22-5.3,7.84,8.1.07,9.47Z"/>
            <path class="cls-78" d="M170.45,54.43l.02,31.48c-.17,0-.29-.07-.46.02l-.12-30.07-5.13,29.26c1.29.71,2.87-.31,3.95.62l-6.42.23,7.47-37.59c.72,1.93.69,3.98.69,6.05Z"/>
            <path class="cls-114" d="M170.01,85.93c-.45.24-.92.13-1.29-.19-1.08-.93-2.67.09-3.95-.62l5.13-29.26.12,30.07Z"/>
            <path class="cls-99" d="M154.34,156.7c0,.57.08,1.51-.28,1.99l-2.54,3.42-10.24-14.51c.43-1.33,1.35-2.24,1.93-3.18,3.79,2.9,10.52,12.43,10.51,12.43.17-.03.4-.21.61-.15Z"/>
            <path class="cls-122" d="M35.93,155.63l9.92-11.97c.75,1.22,1.71,2.3,2.11,3.9l-8.91,12.87c-1.3-.89-2.4-1.86-3.1-3.29-.19-.46-.03-1.2-.01-1.52Z"/>
            <path class="cls-81" d="M186.78,179.8c-1.48.46-2.88.31-4.43.04v-16.23s4.37-.04,4.37-.04l.05,16.23Z"/>
            <path class="cls-73" d="M161.63,225.4c.02.14-.06.53-.51.67l.06,36.92c.65.7.69,1.25.82,1.86-1.06-1.9-2.7-4.13-3.31-6.58l.64-16.89.14-18,2.16,2.02Z"/>
            <path class="cls-87" d="M21.24,53.9c-.15.94-.11,1.65-.11,2.53-.24-.18-.78-.04-.57.5l-4.43,25.41c-.23,1.32-.6,2.39-.38,3.53-.83,0-1.82.41-2.4-.18l7.3-37.72c.39,1.85.9,3.94.59,5.94Z"/>
            <path class="cls-16" d="M140.86,144.07c-.31,1.35-.66,2.02-1.19,2.14l-21.92-21.11c-.41-.39-.42-1.74-.05-2.5l12.16,11.14,11,10.33Z"/>
            <path class="cls-28" d="M66.57,130.37l-16.24,15.47c-.54-.27-.93-.88-1.28-1.79l19.59-18.19,4.05-3.96c.45.9.4,1.84.28,2.39-1.85,2.48-4.23,4.02-6.4,6.08Z"/>
            <path class="cls-19" d="M45.85,143.66l-9.92,11.97.3-5.23c.06-1.07.3-2.13.03-3.33l7.25-7.25,2.34,3.83Z"/>
            <path class="cls-67" d="M20.81,86.84c.47.7.43,1.39.39,2.51v4.29c-3.81.83-7.81.28-11.73.3,1.4-2.95,4.79-4.27,6.01-6.96l5.33-.14Z"/>
            <path class="cls-30" d="M89.96,9.79l-.67-7.16-1.93,9.57-.87,6.94-3.8-.13,3.68-16.56c1.25-.37,2.59-.27,3.68-.1l-.1,7.44Z"/>
            <path class="cls-37" d="M103.79,3.63c.46,1.16.83,2.87,1.09,4.43l1.87,10.95c-1.77.21-3.21-.03-4.6.03-.45-4.81.14-10.16-1.1-15.74.59-.43,2.09-.38,2.74.32Z"/>
            <path class="cls-114" d="M170.5,87.26l-.17,6.8-10.92-.02c-.02-1.26.76-1.78,1.52-2.52l4.18-4.04c.26-.25,1.2-.12,1.27-.52,1.38-.07,2.9-.52,4.12.3Z"/>
            <path class="cls-98" d="M106.93,297.34l-.51,6.12c-2.46,2.99-5.14,5.66-4.86,3.45.93-3.17-.39-7.2,0-11.73l5.14.03c-.53,1.11.27,1.64.23,2.13Z"/>
            <path class="cls-91" d="M22.2,86.84c-.86,1.69-.47,3.74-.45,6.02l3.88-3.41c.84-.74,1.7-1.34,2.05-2.45.78.02,5.02,4.19,7.01,6.86l-12.65.15c-.31-.44-.64-.41-.85-.37v-4.29c.05-1.12.09-1.8-.38-2.51h1.39Z"/>
            <path class="cls-108" d="M79.51,127.71c-.52,1.18-.24,2.54-.41,4.02l-3.14,27.02c-.14,1.21-.19,2.61-.67,3.72-.2.48-.93-.08-1.04-.16l.22-4.16c.1-1.39.33-2.47.45-3.49l1.94-17.05c.08-1.37.84-2.76.51-4.48.59-1.84.86-3.87.08-5.4l.5-.02h1.56Z"/>
            <path class="cls-86" d="M171.17,93.95l6.25-6.55c.38.82.78.12.78-.04l6.87,6.51-13.9.08Z"/>
            <path class="cls-118" d="M85.26,45.26c-.35.13-.54.31-.55.72l-.15,6.46c-.04,1.8-.54,3.38-.27,5.14-.91.57-2.2.43-3.33.1l1.66-17.24,2.64,4.82Z"/>
            <path class="cls-70" d="M161.13,197.58l-.09,26.39-1.6-1.6.07-26.53c.8.89,1.1,1.42,1.63,1.74Z"/>
            <path class="cls-74" d="M98.36,8.77l-7.11.12.03-6.6h6.99c.27,2.32.24,3.98.08,6.47Z"/>
            <path class="cls-128" d="M106.82,25.73l-7.81.05.2-5.55,7.4.08c.33,2.09.28,3.69.21,5.42Z"/>
            <path class="cls-109" d="M141.53,155.88c1.14-1.2.46-2.97.45-4.63l8.6,12.06-2.06,2.36-6.99-9.79Z"/>
            <path class="cls-6" d="M108.03,15.06c-.74-1.31-.76-2.5-1.1-4.15l7.81-5.87c.4,1.5.33,2.93.31,4.43-2.19,2.1-4.36,3.77-7.01,5.58Z"/>
            <path class="cls-100" d="M91.4,19.02l-.12,8.28c-1.72.38-3.27.21-4.83.15l-.6,5.23c1.61-.57,3.07.11,4.33.13l-10.04.3,2.39-6.16,8.14.03c.49-2.45.54-5.24-.16-7.52.16-.34.41-.46.89-.45Z"/>
            <path class="cls-120" d="M170.16,167.27c-2.09-.23-4.96,1.58-6.69-.46l6.54-.25.1-70.9c.2.25.42.07.49.07l-.44,71.54Z"/>
            <path class="cls-11" d="M41.58,163.94c-.86-.79-1.53-1.27-2-2.27,3.09-3.3,5.18-6.71,7.85-10.35.43,1.64.34,3.44.08,4.82-1.72,2.91-3.82,5.19-5.93,7.8Z"/>
            <path class="cls-8" d="M81.21,15.05l-6.54-5.39.32-4.12,7.23,5.11c.05,1.42-.14,2.76-1.01,4.39Z"/>
            <path class="cls-68" d="M103.54,45.91l1.85-11.9h4.69s-4.63,9.57-4.63,9.57c-.49,1.02-.98,2.14-1.91,2.33Z"/>
            <path class="cls-71" d="M84.4,58.49l-1.61,11.99-2.51-4.66c0-2.5.27-4.99.73-7.5l3.39.16Z"/>
            <path class="cls-135" d="M178.2,87.37c0,.16-.4.86-.78.04l-6.25,6.55-.84.1.17-6.8c2.32-.69,6.84-.71,7.7.11Z"/>
            <path class="cls-21" d="M15.48,86.98c-1.22,2.69-4.61,4.01-6.01,6.96-1.37,0-2.69.36-4.53-.27l7.5-6.7c.79-.71,2.31.04,3.04.02Z"/>
            <polygon class="cls-25" points="104.35 32.98 104.5 27 107.46 27.02 109.94 33.12 104.35 32.98"/>
            <path class="cls-102" d="M85.5,34l-.79,8.47c-1.5-2.8-3.14-5.27-4.48-8.49l5.27.02Z"/>
            <path class="cls-35" d="M166.38,86.95c-.07.4-1.01.27-1.27.52l-4.18,4.04c-.76.74-1.54,1.26-1.52,2.52-1.19,0-2.36.34-3.8-.38l6.98-6.55c.9-.85,2.78-.15,3.79-.15Z"/>
            <path class="cls-131" d="M85.32,25.76c.37-1.87.72-3.63.65-5.48l3.9.06.27,5.63-4.81-.2Z"/>
            <path class="cls-61" d="M27.67,87.01c-.35,1.11-1.22,1.71-2.05,2.45l-3.88,3.41c-.02-2.29-.41-4.33.45-6.02l5.47.17Z"/>
            <path class="cls-89" d="M84.29,57.58c-.27-1.76.22-3.34.27-5.14l.15-6.46c0-.41.2-.59.55-.72.51.94,1.28,1.58,1,3.1-.74,3.91.13,11.22-1.37,9.58-.15-.16-.26-.57-.6-.36Z"/>
            <path class="cls-110" d="M85.96,20.28c.08,1.85-.28,3.62-.65,5.48l-2.87-.07.28-5.38,3.24-.03Z"/>
            <path class="cls-26" d="M173.86,307.76l.16-13.37.23-12.86c0-.16.22-.34.39-.28l-.18,19.24-.19,6.46c-.01.38-.03.67-.41.8Z"/>
            <path class="cls-62" d="M95.57,306c.21,2.45-.49,4.35-1.06,6.26-.06-2.59-.72-4.59-.65-6.29.02-.46,1.66-.5,1.7.03Z"/>
            <path class="cls-36" d="M65.63,150.51l-.06-16.41c.11.09.25.07.47.21v15.86c.06.43-.26.56-.41.34Z"/>
            <path class="cls-125" d="M141.98,151.25c.01,1.66.69,3.43-.45,4.63.24-1.64-.07-3.01.45-4.63Z"/>
            <path class="cls-38" d="M162.49,287.74l-.22-3.95c.82.83.73,2.98.22,3.95Z"/>
            <path class="cls-127" d="M102.82,127.32c1.35,1.88,1.58,3.45,1.67,5.93l1.48,38.59-5.7,7.7.37,93.32-11.65.15-.07-92.99-5.37-6.77.91-18.75.87-15.95.29-9.18,4.26-5.09h10.73s2.21,3.05,2.21,3.05ZM91.74,134.69h11.71s-.06-5.05-.06-5.05l-3.18-4.38-8.17-.06c-1.64-.01-2.1.5-3.35,1.85-1.89,2.05-2.97,4.53-2.02,7.57l5.06.07ZM92.25,143.17l10.98-.09c.07.11.29.13.41,0v-7.38s-17.34-.16-17.34-.16l-.35,7.31,6.3.33ZM94,178.53l5.47-.15c1.34-.04,2.25-2.56,3.06-3.56l2.56-3.17-.34-8.4-.76-10.54.07-8.53-11.63.04h-6.48s-1.51,28.5-1.51,28.5l4.52,5.76,5.03.05ZM93.06,188.5l6.06.02.09-8.5c-.08-.29-.27-.48-.6-.48l-8.61-.03c-.33,3.09-.34,5.95.05,9.02l3.01-.04ZM99.14,198.58l.05-9.02-9.15.03c-.4,3.01-.36,5.9-.04,9.01h9.13ZM99.15,212.42l-.03-11.87-.25-.93c-1.66-.33-4.29-.06-5.8.13-.82.11-2.53-.71-3.06.19-.49,4.71-.37,9.08.02,13.55l8.88-.05c.06-.31.09-.81.25-1.02ZM92.81,233.51l6.18-.09.1-4.57.08-14.31-.84.03-5.62-.02-2.68-.04-.23,5.46.2,13.51,2.81.03ZM92.59,250.79l6.6-.2.07-15.8c-1.09-.14-1.85-.17-2.35.2l-6.94-.25-.04,15.84c.91.39,1.83.24,2.67.22ZM99.1,259.82l.04-7.47c-.06-.19-.21-.51-.53-.51l-8.7.02.05,9.57,9.02-.09.11-1.51ZM96.41,272.06l2.69.07.05-9.87c-2.47.31-4.44.04-6.51.11l-2.61.09-.15,9.59h6.53Z"/>
            <path class="cls-84" d="M99.68,109.46l-8.69.25c-.19-5.38.2-10.48.34-15.9l.45-17.93c.1-3.91-.01-7.53.51-11.81h6.19s.7,30.22.7,30.22l.49,15.17ZM94.03,77.25h3.7c-.04-3.9.19-7.67-.3-11.38-1.2-.8-2.77-.7-4.39-.58-.03,3.94-.06,7.32-.37,11.12-.08.98.96.84,1.36.84ZM94.19,89.97l3.93.04.03-6.14c-.27-1.78-.61-3.42-.36-5.51h-5.12s-.31,11.38-.31,11.38c.3.48,1.41.21,1.83.22ZM97.32,108.77l1.28-.08c-.12-3.37.22-6.78-.54-9.83l.09-7.53-5.98-.12c.07,5.9-.15,11.24-.44,17.29l5.58.27Z"/>
            <path class="cls-137" d="M82.42,255.36l-.55-7.14-.37-6.71-.46-8.25-.39-8.19-.37-8.96-.49-9.94-.39-9.03-.8-12.22c-.03-.52-.73-1.31-.09-1.93,1.32,1.39.94,2.89,1.04,4.53.2,3.22.55,6.28.66,9.32l.36,10.02.95,18.15.36,8.23.45,8.74.37,7.2.29,5.97c.15.2.53.59.36.93-.13.26-.39.37-.63.24-.28-.16-.3-.59-.33-.98Z"/>
            <path class="cls-126" d="M106.07,256.37c-.02-2.43.29-5.06.38-7.67l.39-11.11.45-7.77.37-5.74.46-6.77.38-7.16.46-6.31.38-7.12.5-5.43c.13-1.43-.31-3.2.85-4.76.43,1.57-.07,3.26-.21,5l-.3,3.75-.38,7.55-.46,5.85-.39,7.64-.46,7.26-.37,5.74-.45,7.77-.41,10.13-.35,8.72c-.13.34-.52.54-.85.44Z"/>
            <path class="cls-45" d="M100.64,272.85l-.37-93.32c.11-.11.44-.01.44.2l-.07,93.11Z"/>
            <path class="cls-56" d="M10.95,119.74c-.43,3.74.21,7.45-.14,7.83-.28.3-1.05.19-1.05-.33l-.04-24.51,5.86-.2.08,17.23h-4.71ZM14.57,118.71l.05-15.01h-3.88s.03,15.1.03,15.1c1.22.13,2.45.27,3.8-.1Z"/>
            <path class="cls-107" d="M173.49,255.36c-.67-1.84-.18-3.86-.17-6.05l.1-35.8c.36,0,.82.45.82.96v40.62c-.26.37-.71.27-.75.26Z"/>
            <path class="cls-112" d="M179.38,124.39l-.2-4.57-4.77-.18.06-16.94,4.98-.19c.29-.01.89.44,1.08.89l-.02,20.33c0,.55-.04.86-.16,1.04-.17.24-.94.24-.97-.38ZM179.31,118.83v-15.08s-3.84-.06-3.84-.06v15.21s3.84-.06,3.84-.06Z"/>
            <path class="cls-53" d="M16.14,214l-.55,40.84c-.05.09-.3.6-.48.51-.15-.08-.32-.71-1.03-.54l.08-40.43c.59-.02.79-.66.95-.92.11-.18.28.78,1.03.54Z"/>
            <path class="cls-113" d="M15.58,254.83l.55-40.84.05,40.33c0,.59-.41.59-.6.5Z"/>
            <path class="cls-57" d="M14.07,254.8l.08-40.43-.08,40.43Z"/>
            <path class="cls-41" d="M28.62,126.41c0,.62-.27,1.15-.37,1.28s-.64-.46-.64-.64l-.02-24.3c0-.41,1.02-.45,1.02-.08v23.73Z"/>
            <path class="cls-116" d="M32.89,140.41c-.86.61-.71,1.35-.69,2.25-1.31.11-2.94-1-3.22-2.46-.38-2-.06-3.76.09-5.92l3.96.59c-.02,1.8.29,3.99-.14,5.54Z"/>
            <path class="cls-1" d="M161.61,127.64l-.04-23.86c0-.43.46-1.08,1.03-1.01l-.03,24.72c-.29.26-.62.32-.96.15Z"/>
            <path class="cls-20" d="M92.43,144.21c-.12.47-.3.4-.42.47-.27.15.11.71.21.94-.04.89-.07,2.27.07,2.94-.64-.03-1.31-.07-2.22.13l-.07,19.23,8.39.39c-1.72.55-3.39.24-5.29.23v9.54c.45-.1.81-.03.9.44l-5.03-.05-4.52-5.76,1.51-28.52h6.48Z"/>
            <path class="cls-17" d="M104,152.71c-.19-2.57-.24-5.13-.34-8l-2.92-.03.78,20.43.08,9.46c.07.24.83.25.93.26-.81,1-1.71,3.53-3.06,3.56l-5.47.15c-.09-.47-.45-.55-.9-.44v-9.54c1.9,0,3.57.32,5.29-.23-.27-6.44-.37-12.61-.02-19.47l-6.08-.28c-.14-.68-.11-2.05-.07-2.94-.09-.23-.48-.79-.21-.94.12-.07.3,0,.42-.47l11.63-.04-.07,8.53Z"/>
            <polygon class="cls-79" points="91.74 134.69 92.04 125.2 100.21 125.26 103.39 129.64 103.45 134.69 91.74 134.69"/>
            <path class="cls-6" d="M92.59,250.79l.16-15.41c1.45-.09,2.96.47,4.15-.4.51-.37,1.27-.34,2.35-.2l-.07,15.8-6.6.2Z"/>
            <path class="cls-22" d="M104,152.71l.76,10.54.34,8.4-2.56,3.17c-.09-.01-.86-.02-.93-.26l-.08-9.46-.78-20.43,2.92.03c.09,2.87.15,5.43.34,8Z"/>
            <path class="cls-17" d="M99.14,198.58h-9.13c-.32-3.1-.36-5.99.04-9l9.15-.03-.05,9.02Z"/>
            <path class="cls-5" d="M103.23,143.09l-10.98.09c-.08-2.16.26-4.39-.34-6.88l11.31-.1v6.9Z"/>
            <path class="cls-79" d="M98.33,214.56c-.37.53-1.14.48-1.81.4l.15,17.93,1.97.16c0-1.61-.5-3.22.46-4.22l-.1,4.57-6.18.09.21-16.05c.02-1.1.16-2.12-.31-2.91l5.62.02Z"/>
            <path class="cls-6" d="M96.41,272.06c.17-.64-.19-.86-.73-.82l-3.03.2-.02-9.07c2.08-.07,4.05.2,6.51-.11l-.05,9.87-2.69-.07Z"/>
            <path class="cls-20" d="M92.71,214.54c.47.79.33,1.81.31,2.91l-.21,16.05-2.81-.03-.2-13.51.23-5.46,2.68.04Z"/>
            <path class="cls-20" d="M103.23,143.09v-6.9s-11.32.1-11.32.1c.6,2.5.26,4.73.34,6.88l-6.3-.33.35-7.31,17.34.16v7.38c-.12.13-.34.12-.41,0Z"/>
            <path class="cls-133" d="M99.14,252.36l-.04,7.47c-.43-.03-.67.37-.57,1l-5.86.02v-8.51s6.47.03,6.47.03Z"/>
            <polygon class="cls-96" points="99.21 180.03 99.12 188.52 93.06 188.5 93.09 180.05 99.21 180.03"/>
            <path class="cls-24" d="M93.07,199.76l-.07,13.23,3.48.02c.93,0,1.8.03,2.67-.58-.16.21-.18.71-.25,1.02l-8.88.05c-.38-4.47-.5-8.83-.02-13.55.53-.9,2.24-.08,3.06-.19Z"/>
            <path class="cls-72" d="M99.12,200.56c-.64-.65-2.06-.82-2.61-.1l-.02,12.54-3.48-.02.07-13.23c1.51-.19,4.13-.46,5.8-.13l.25.93Z"/>
            <path class="cls-88" d="M96.9,234.98c-1.2.87-2.7.31-4.15.4l-.16,15.41c-.84.03-1.75.17-2.67-.22l.04-15.84,6.94.25Z"/>
            <path class="cls-8" d="M92.04,125.2l-.31,9.49-5.06-.07c-.96-3.04.13-5.52,2.02-7.57,1.25-1.36,1.72-1.86,3.35-1.85Z"/>
            <path class="cls-92" d="M99.09,228.84c-.96,1-.47,2.62-.46,4.22l-1.97-.16-.15-17.93c.67.07,1.44.12,1.81-.4l.84-.03-.08,14.31Z"/>
            <path class="cls-24" d="M99.21,180.03l-6.12.03-.03,8.45-3.01.04c-.39-3.07-.38-5.93-.05-9.02l8.61.03c.33,0,.51.19.6.48Z"/>
            <path class="cls-6" d="M99.12,200.56l.03,11.87c-.87.61-1.75.58-2.67.58l.02-12.54c.56-.72,1.97-.56,2.61.1Z"/>
            <path class="cls-8" d="M99.14,252.36l-6.46-.03v8.51s5.85-.02,5.85-.02c-.1-.63.14-1.03.57-1l-.11,1.51-9.02.09-.05-9.57,8.7-.02c.32,0,.47.32.53.51Z"/>
            <path class="cls-77" d="M92.64,262.37l.02,9.07,3.03-.2c.54-.04.9.18.73.82h-6.53s.15-9.6.15-9.6l2.61-.09Z"/>
            <path class="cls-101" d="M98.06,98.87c.76,3.05.42,6.45.54,9.83l-1.28.08c.16-.41,0-1.08-.27-1.01l-.93.26-2.22-.09.05-16.13,3.81.05c.03,2.57-.24,4.8.31,7.02Z"/>
            <path class="cls-59" d="M98.15,83.88l-.03,6.14-3.93-.04-.26-11.12,3.38.03.03,4.87c.27.17.65.15.81.12Z"/>
            <path class="cls-59" d="M97.43,65.87c.5,3.71.27,7.48.3,11.39h-3.7s.13-11.43.13-11.43l3.27.03Z"/>
            <path class="cls-14" d="M98.06,98.87c-.55-2.23-.28-4.46-.31-7.02l-3.81-.05-.05,16.13,2.22.09.93-.26c.26-.07.43.6.27,1.01l-5.58-.27c.28-6.04.51-11.38.44-17.29l5.98.12-.09,7.53Z"/>
            <path class="cls-123" d="M98.15,83.88c-.16.02-.54.04-.81-.12l-.03-4.87-3.38-.03.26,11.12c-.42,0-1.52.26-1.83-.22l.31-11.38h5.12c-.25,2.08.08,3.72.36,5.5Z"/>
            <path class="cls-60" d="M97.43,65.87l-3.27-.03-.13,11.41c-.4,0-1.44.14-1.36-.84.31-3.8.34-7.18.37-11.12,1.62-.11,3.19-.22,4.39.58Z"/>
            <path class="cls-48" d="M14.57,118.71c-1.35.37-2.59.22-3.8.1l-.03-15.1h3.88s-.05,15-.05,15Z"/>
            <polygon class="cls-23" points="179.31 118.83 175.48 118.89 175.47 103.69 179.31 103.75 179.31 118.83"/>
            <path class="cls-66" d="M92.29,148.57l6.08.28c-.35,6.87-.25,13.04.02,19.47l-8.39-.39.07-19.23c.9-.2,1.58-.16,2.22-.13ZM97.33,166.63v-16.97s-6.34.02-6.34.02v17.08s6.34-.12,6.34-.12Z"/>
            <polygon class="cls-50" points="97.33 166.63 90.98 166.75 90.98 149.67 97.31 149.66 97.33 166.63"/>
          </g>
        </g>
        <g id="Generative_Object-2" data-name="Generative Object">
          <g>
            <path class="cls-93" d="M90.23,139.68c-.87,1.32-1.5,2.81-1.91,4.44-.65,2.56-1.04,5.11-1.32,7.76l-.2,6.7c-.04,1.44.28,2.76.61,4.13.37,1.53.91,2.83,1.73,4.17.47.78.45,1.9.52,2.82.16,2.1.79,4,1.86,5.84h6.57c.76-1.32,1.32-2.75,1.6-4.19.34-1.79.06-3.54.93-5.02,1.19-2.04,1.88-4.28,2.16-6.56.48-3.82-.03-9.32-.83-13.33-.36-1.8-1.58-5.67-2.03-5.73-1.39-2.8-3.52-3.45-6.65-2.98-1.29.19-2.34.92-3.04,1.97Z"/>
            <path class="cls-63" d="M90.95,140.22c-.94,1.25-1.3,2.77-1.75,4.33-.95,3.35-1.31,6.98-1.42,10.57-.15,4.76-.08,8.89,3.51,12.3.07.97.23,1.8.55,2.59-.55.51.73.76,2.05.7l3.68-.18c.17-.05.19-.6.53-.54.28.04.73-.17.83.42-.02.09.26.21.46,0l.31.94c-.28,1.44-.84,2.87-1.6,4.18h-6.57c-1.07-1.83-1.7-3.73-1.86-5.83-.07-.92-.05-2.04-.52-2.82-.82-1.34-1.36-2.64-1.73-4.17-.33-1.36-.66-2.68-.61-4.13l.2-6.7c.27-2.65.67-5.21,1.32-7.76.41-1.63,1.04-3.12,1.91-4.44.38-.02.55.25.71.54ZM93.96,173.25c.27-.1.56.03.81-.11.07-.04.25-.19,0-.28l.16-.24c.11-.17-.48-.99.18-.95-.1-.24-.43-.37-.56-.48.14-.27-.14-.26-.18-.08-.02.1-.02.16.16.38-.68.06-.79.4-.98,1.01l.42.73Z"/>
            <path class="cls-4" d="M99.92,140.69c.46.06,1.67,3.93,2.03,5.73.8,4.01,1.31,9.5.83,13.33-.4-.07-.14-.74-.71-.63l.03.78-.24,1.33-.47,1.25c-.35.95-.81,2.49-1.27,2.53,1.03-1.97,1.68-4.13,1.82-6.47.32-5.31-.35-11.7-2.31-16.48-.45-1.09-1.03-2.27-2-2.89.07-.16.27-.09.39-.35,1.18.45,1.31,1.8,1.89,1.87Z"/>
            <path class="cls-32" d="M102.78,159.75c-.29,2.29-.97,4.52-2.16,6.56-.87,1.49-.58,3.24-.93,5.02l-.31-.94c-.2.21-.48.08-.46,0-.09-.59-.54-.37-.83-.42-.04-.17-.06-.41-.22-.43.25-.81.28-1.7.66-2.44.41-.15.88-.53.86-.97-.02-.27.27-.44.38-.65.15.09.23.03.33-.1.07-.09.15-.21.02-.36.46-.05.92-1.58,1.27-2.53l.47-1.25.24-1.33-.03-.78c.57-.11.31.55.71.63Z"/>
            <path class="cls-69" d="M99.92,140.69c-.58-.07-.7-1.43-1.89-1.87-.12.26-.32.19-.39.35-1.48-.95-3.54-.85-5.27-.26-.56.19-1.1.89-1.42,1.31-.16-.3-.33-.56-.71-.54.69-1.05,1.75-1.77,3.04-1.97,3.13-.47,5.26.18,6.65,2.98Z"/>
            <path class="cls-31" d="M97.64,139.16c.97.62,1.56,1.8,2,2.89,1.96,4.79,2.62,11.17,2.31,16.48-.14,2.35-.79,4.5-1.82,6.47-.15.08-.26.28-.35.46-.11.21-.39.39-.38.65-.3.3-.66.57-.86.97-.37.74-.41,1.63-.66,2.44-.11.37-.34.59-.72.95l-4.81-.04c-.23,0-.51-.3-.52-.45-.33-.78-.48-1.62-.55-2.59-3.59-3.42-3.66-7.54-3.51-12.3.11-3.59.46-7.22,1.42-10.57.44-1.56.81-3.07,1.75-4.33.32-.43.86-1.12,1.42-1.31,1.73-.59,3.79-.69,5.27.26ZM97.67,163.6c.2.41.45.74.53,1.29l.17,1.16c2.21-2.16,2.87-5.61,2.92-8.86.09-5.15-.64-10.55-2.52-15.05-.76-1.83-2.57-2.93-4.52-2.65-1.44.21-2.67.85-3.28,2.25-2.12,4.84-2.64,11.2-2.57,16.73.04,2.86.78,5.56,2.65,7.73l.39-1.84c.13-.62.55-.88,1.17-.88l4.67.03.39.08ZM92.26,164.24l-.25,2.08c-.13,1.1.37,3.24,1.05,3.27,1.21.05,2.76.28,3.99-.18.8-.89.67-4.18.44-4.59-.11-.2-.11-.43-.1-.74h-5.06s-.07.13-.07.16Z"/>
            <path class="cls-103" d="M94.76,172.87c-.24.08-.63.15-.8.39l-.42-.73c.19-.61.3-.95.98-1.01-.17-.22-.18-.28-.16-.38.04-.19.32-.19.18.08.14.11.46.25.56.48-.66-.04-.07.78-.18.95l-.16.24Z"/>
            <path class="cls-111" d="M98.1,169.97c-.34-.05-.36.49-.53.54l-3.68.18c-1.32.07-2.6-.18-2.05-.7,0,.15.3.45.52.45l4.81.04c.38-.36.61-.59.72-.95.16.02.18.26.22.43Z"/>
            <path class="cls-12" d="M94.76,172.87c.25.09.08.24,0,.28-.25.13-.54,0-.81.11.17-.24.56-.31.8-.39Z"/>
            <path class="cls-54" d="M98.54,167.1c.2-.4.56-.67.86-.97.02.44-.45.82-.86.97Z"/>
            <path class="cls-43" d="M99.78,165.47c.09-.18.2-.38.35-.46.12.15.05.28-.02.36-.1.13-.18.19-.33.1Z"/>
            <path class="cls-58" d="M98.78,142.14c-.1.04-.18.08-.24.06-.14-.06-.09-.27-.11-.38-.65.82-.26-.49-1.77-.77-.04.2-.01.33,0,.44-.06.02-.12.01-.18,0-.68-.87-3.26-.16-3.8,1.03-1.41,3.11-1.02,12.2-.77,16.47.07,1.25.91,2.11,2.02,2.27,1.47.22,3.25.16,3.99-.93.24-.35.45-.74.87-.74.04.24-.13.5-.23.79l.5.19c-.18,1.19-.9,2.12-1.95,2.57-.13-.14-.21-.33-.28-.35s-.17.26-.25.27c-.17.04-.3-.06-.38-.09s-.29.13-.24.3h1.27c.1,0,.26,0,.29.06l.12.25-.39-.08-4.67-.03c-.62,0-1.03.26-1.17.88l-.39,1.84c-1.87-2.17-2.61-4.86-2.65-7.73-.08-5.53.45-11.89,2.57-16.73.61-1.4,1.84-2.04,3.28-2.25,1.95-.28,3.76.82,4.52,2.65ZM90.29,155.24c.33.14.34-.15.32-.21s-.16-.12-.23-.08c-.05.03-.06.18-.31.15-.23.17,0,.47.22.15Z"/>
            <path class="cls-105" d="M98.78,142.14c1.87,4.5,2.61,9.9,2.52,15.05-.06,3.25-.71,6.69-2.92,8.86l-.17-1.16c-.08-.56-.33-.89-.53-1.29l-.12-.25c-.03-.06-.19-.05-.29-.05h-1.27c-.04-.17.16-.33.24-.3s.21.13.38.09c.07-.02.17-.29.25-.27s.15.21.28.35c1.05-.46,1.77-1.39,1.95-2.57l-.5-.19c.1-.29.26-.55.23-.79-.02-.16.16-.42.21-.59l.24-3.52c.31.15.38-.19.21-.21-.53-.31-.12-.84-.1-1.18.21-3.47-.04-6.88-.72-10.38-.17-.09-.34.02-.47.02-.19-.91-.78-1.69-1.5-2.24-.02-.12-.05-.24,0-.44,1.51.29,1.12,1.6,1.77.77.02.11-.03.32.11.38.06.03.14-.02.24-.06Z"/>
            <path class="cls-75" d="M97.49,164.83c.23.41.36,3.7-.44,4.59-1.23.46-2.78.23-3.99.18-.68-.03-1.18-2.17-1.05-3.27l.25-2.08h4.78s.24.34.24.34c-.17.19.04.4.2.24Z"/>
            <path class="cls-136" d="M97.49,164.83c-.16.16-.37-.06-.2-.24l-.24-.33h-4.78s.03-.14.07-.15h5.06c-.02.3-.01.53.1.73Z"/>
            <path class="cls-65" d="M96.49,141.5c.1.31-.33.35-.45.49-.32.38-.18.92-.19,1.28-.02,1.53,0,3.04.17,4.64l.92.5c.4.22,1.12-.03,1.14-.52l.06-1.87h.26c.15.02.23-.12.18-.34l-.41-1.94c.14,0,.31-.11.47-.02.68,3.5.92,6.92.72,10.38-.02.34-.43.87.1,1.18.17.02.1.36-.21.21l-.24,3.52c-.04.18-.23.44-.21.59-.43,0-.63.38-.87.74-.74,1.08-2.52,1.14-3.99.93-1.11-.16-1.95-1.02-2.02-2.27-.25-4.27-.63-13.36.77-16.47.54-1.19,3.11-1.9,3.8-1.03ZM98.42,158.59l.1-3.16-.04-4.64c0-.34-.26-.65-.47-.57-.9.32-.63,1.09-.54,2.57l.29,4.93.15-.12c-.02-.1-.1-.27.03-.39h.18c.14.4-.19.93.31,1.39Z"/>
            <path class="cls-80" d="M98.17,143.73l.41,1.94c.05.21-.04.36-.18.35h-.26c0-.21.04-.55-.06-.76l-.63-1.41c-.27.06-.24.41-.2.57-.22.27-.71.25-1.18.11-.12-.68.04-1.26-.22-1.27,0-.36-.13-.9.19-1.28.12-.14.55-.18.45-.49.06,0,.12,0,.18,0,.72.55,1.31,1.33,1.5,2.24Z"/>
            <path class="cls-18" d="M90.29,155.24c-.23.32-.45.02-.22-.15.26.04.26-.12.31-.15.07-.04.21.03.23.08s0,.35-.32.21Z"/>
            <path class="cls-85" d="M98.14,146.01l-.06,1.87c-.02.48-.74.73-1.14.52l-.92-.5c-.18-1.6-.19-3.1-.17-4.64.26,0,.09.58.22,1.27.47.14.96.15,1.18-.11-.05-.16-.07-.51.2-.57l.63,1.41c.09.21.06.55.06.75Z"/>
            <path class="cls-82" d="M98.42,158.59c-.5-.46-.17-.98-.31-1.37h-.18c-.13.1-.06.27-.03.38l-.15.12-.29-4.93c-.09-1.48-.36-2.24.54-2.57.21-.07.46.23.47.57l.04,4.64-.1,3.16Z"/>
          </g>
        </g>
      </g>
      <g id="Generative_Object-3" data-name="Generative Object">
        <g>
          <path class="cls-93" d="M90.9,5.71c-.75,1.13-1.29,2.41-1.64,3.81-.55,2.19-.9,4.38-1.13,6.66l-.17,5.75c-.04,1.24.24,2.37.52,3.54.32,1.31.78,2.43,1.48,3.58.41.67.38,1.63.44,2.42.14,1.8.68,3.43,1.6,5.01h5.64c.65-1.13,1.13-2.36,1.37-3.6.3-1.53.05-3.04.8-4.31,1.02-1.75,1.61-3.67,1.86-5.63.41-3.28-.03-8-.71-11.44-.31-1.55-1.35-4.87-1.75-4.92-1.19-2.41-3.02-2.96-5.71-2.56-1.1.16-2.01.79-2.61,1.69Z"/>
          <path class="cls-63" d="M91.51,6.17c-.81,1.07-1.12,2.37-1.5,3.71-.82,2.87-1.12,5.99-1.22,9.07-.13,4.09-.07,7.63,3.01,10.56.06.83.19,1.55.48,2.22-.47.44.63.65,1.76.6l3.16-.16c.15-.04.16-.51.46-.47.24.04.63-.14.71.36-.01.08.22.18.39,0l.26.8c-.24,1.23-.72,2.46-1.37,3.59h-5.64c-.92-1.57-1.46-3.2-1.6-5-.06-.79-.04-1.75-.44-2.42-.7-1.15-1.17-2.27-1.48-3.58-.28-1.17-.56-2.3-.52-3.54l.17-5.75c.23-2.28.57-4.47,1.13-6.66.35-1.4.9-2.68,1.64-3.81.33-.02.47.21.61.47ZM94.1,34.53c.23-.09.48.02.69-.09.06-.03.22-.16,0-.24l.14-.2c.1-.14-.41-.85.16-.81-.09-.2-.37-.32-.48-.41.12-.23-.12-.23-.16-.07-.02.09-.02.13.13.32-.59.06-.68.34-.84.87l.36.63Z"/>
          <path class="cls-4" d="M99.21,6.58c.39.05,1.44,3.37,1.75,4.92.69,3.44,1.13,8.16.71,11.44-.34-.06-.12-.63-.61-.54l.02.67-.2,1.14-.4,1.07c-.3.82-.69,2.13-1.09,2.17.89-1.69,1.44-3.54,1.56-5.56.27-4.56-.3-10.04-1.98-14.15-.38-.94-.89-1.95-1.72-2.48.06-.13.23-.08.34-.3,1.02.38,1.13,1.55,1.62,1.61Z"/>
          <path class="cls-32" d="M101.67,22.93c-.25,1.96-.83,3.88-1.86,5.63-.74,1.27-.5,2.78-.8,4.31l-.26-.8c-.17.18-.41.07-.39,0-.08-.5-.47-.32-.71-.36-.03-.14-.05-.35-.19-.37.21-.7.24-1.46.56-2.1.35-.13.76-.46.73-.83-.01-.23.23-.38.33-.56.13.08.2.03.28-.08.06-.07.12-.18.02-.31.4-.04.79-1.36,1.09-2.17l.4-1.07.2-1.14-.02-.67c.49-.09.27.48.61.54Z"/>
          <path class="cls-69" d="M99.21,6.58c-.5-.06-.61-1.22-1.62-1.61-.11.22-.28.16-.34.3-1.27-.82-3.04-.73-4.52-.22-.48.16-.94.76-1.22,1.13-.14-.25-.29-.48-.61-.47.59-.9,1.5-1.52,2.61-1.69,2.69-.4,4.51.15,5.71,2.56Z"/>
          <path class="cls-31" d="M97.25,5.27c.83.53,1.34,1.55,1.72,2.48,1.68,4.11,2.25,9.59,1.98,14.15-.12,2.01-.67,3.86-1.56,5.56-.13.07-.22.24-.3.39-.09.18-.34.33-.33.56-.26.26-.56.49-.73.83-.32.64-.35,1.4-.56,2.1-.1.31-.29.51-.62.82l-4.12-.03c-.19,0-.44-.26-.45-.39-.28-.67-.41-1.39-.48-2.22-3.08-2.93-3.14-6.47-3.01-10.56.1-3.08.4-6.2,1.22-9.07.38-1.34.69-2.64,1.5-3.71.28-.37.73-.96,1.22-1.13,1.49-.51,3.25-.6,4.52.22ZM97.28,26.24c.17.35.39.63.46,1.11l.15.99c1.9-1.86,2.46-4.81,2.51-7.6.08-4.42-.55-9.05-2.16-12.92-.65-1.57-2.21-2.51-3.88-2.27-1.24.18-2.29.73-2.82,1.93-1.82,4.16-2.27,9.62-2.2,14.36.03,2.46.67,4.77,2.27,6.63l.34-1.58c.11-.53.47-.76,1-.76l4.01.03.33.07ZM92.64,26.79l-.22,1.79c-.11.94.32,2.78.9,2.81,1.04.04,2.37.24,3.42-.16.69-.76.58-3.59.38-3.94-.1-.17-.1-.37-.08-.64h-4.34s-.06.11-.06.14Z"/>
          <path class="cls-103" d="M94.79,34.2c-.21.07-.54.13-.69.33l-.36-.63c.16-.53.26-.81.84-.87-.15-.19-.16-.24-.13-.32.04-.16.27-.17.16.07.12.09.4.21.48.41-.57-.04-.06.67-.16.81l-.14.2Z"/>
          <path class="cls-111" d="M97.65,31.71c-.3-.05-.31.42-.46.47l-3.16.16c-1.13.06-2.23-.16-1.76-.6,0,.13.26.39.45.39l4.12.03c.32-.31.52-.51.62-.82.13.02.15.23.19.37Z"/>
          <path class="cls-12" d="M94.79,34.2c.22.08.06.21,0,.24-.22.12-.46,0-.69.09.15-.21.48-.26.69-.33Z"/>
          <path class="cls-54" d="M98.03,29.24c.17-.34.48-.58.73-.83.02.38-.39.7-.73.83Z"/>
          <path class="cls-43" d="M99.09,27.85c.08-.15.17-.33.3-.39.11.13.04.24-.02.31-.09.11-.15.16-.28.08Z"/>
          <path class="cls-58" d="M98.23,7.82c-.08.03-.15.07-.2.05-.12-.05-.08-.23-.1-.33-.56.71-.23-.42-1.52-.66-.04.18-.01.28,0,.38-.05.01-.11.01-.16,0-.59-.75-2.8-.14-3.26.88-1.21,2.67-.87,10.47-.66,14.13.06,1.07.78,1.81,1.74,1.95,1.27.18,2.79.13,3.43-.8.21-.3.38-.64.75-.63.03.21-.11.43-.2.68l.43.16c-.16,1.02-.77,1.82-1.68,2.21-.11-.12-.18-.28-.24-.3s-.15.22-.21.24c-.15.03-.26-.05-.33-.07s-.24.11-.21.26h1.09c.09,0,.22,0,.25.05l.11.22-.33-.07-4.01-.03c-.53,0-.89.22-1,.76l-.34,1.58c-1.61-1.86-2.24-4.17-2.27-6.63-.06-4.75.38-10.21,2.2-14.36.53-1.2,1.58-1.75,2.82-1.93,1.68-.24,3.23.7,3.88,2.27ZM90.94,19.07c.28.12.29-.13.27-.18s-.14-.1-.2-.07c-.05.03-.05.16-.27.12-.19.15,0,.4.19.13Z"/>
          <path class="cls-105" d="M98.23,7.82c1.61,3.87,2.24,8.5,2.16,12.92-.05,2.79-.61,5.74-2.51,7.6l-.15-.99c-.07-.48-.29-.76-.46-1.11l-.11-.22c-.03-.05-.16-.05-.25-.05h-1.09c-.04-.15.14-.28.21-.26s.18.11.33.07c.06-.01.15-.25.21-.24s.13.18.24.3c.9-.39,1.52-1.19,1.68-2.21l-.43-.16c.08-.25.23-.47.2-.68-.02-.14.14-.36.18-.51l.21-3.02c.26.13.32-.16.18-.18-.46-.26-.1-.72-.09-1.01.18-2.97-.03-5.91-.61-8.91-.14-.07-.29.02-.41.02-.17-.78-.67-1.45-1.29-1.92-.02-.1-.04-.2,0-.38,1.29.25.96,1.37,1.52.66.02.09-.02.28.1.33.05.02.12-.01.2-.05Z"/>
          <path class="cls-75" d="M97.13,27.29c.2.35.31,3.17-.38,3.94-1.05.4-2.38.2-3.42.16-.58-.03-1.01-1.86-.9-2.81l.22-1.79h4.11s.21.29.21.29c-.14.16.04.35.18.21Z"/>
          <path class="cls-136" d="M97.13,27.29c-.14.14-.32-.05-.18-.21l-.21-.29h-4.11s.03-.12.06-.13h4.34c-.01.26-.01.46.08.63Z"/>
          <path class="cls-65" d="M96.27,7.27c.09.27-.28.3-.38.42-.27.33-.16.79-.16,1.1-.02,1.31,0,2.61.15,3.98l.79.43c.34.18.96-.03.97-.45l.05-1.6h.22c.13.02.2-.11.16-.29l-.36-1.67c.12,0,.26-.09.41-.02.58,3,.79,5.94.61,8.91-.02.29-.37.75.09,1.01.14.02.08.31-.18.18l-.21,3.02c-.04.15-.2.37-.18.51-.37,0-.54.33-.75.63-.64.93-2.16.98-3.43.8-.96-.14-1.68-.88-1.74-1.95-.21-3.66-.54-11.47.66-14.13.46-1.02,2.67-1.63,3.26-.88ZM97.93,21.94l.09-2.71-.04-3.98c0-.29-.22-.56-.4-.49-.77.28-.54.94-.47,2.2l.25,4.23.13-.11c-.02-.09-.08-.24.03-.33h.15c.12.35-.16.8.26,1.19Z"/>
          <path class="cls-80" d="M97.71,9.19l.36,1.67c.04.18-.03.31-.16.3h-.22c0-.18.03-.47-.05-.65l-.54-1.21c-.23.05-.21.35-.17.49-.19.23-.61.22-1.02.1-.1-.59.04-1.08-.19-1.09,0-.31-.11-.77.16-1.1.1-.12.47-.15.38-.42.05,0,.1,0,.16,0,.62.48,1.12,1.14,1.29,1.92Z"/>
          <path class="cls-18" d="M90.94,19.07c-.2.28-.39.02-.19-.13.22.03.22-.1.27-.12.06-.03.18.02.2.07s0,.3-.27.18Z"/>
          <path class="cls-85" d="M97.69,11.14l-.05,1.6c-.01.42-.63.63-.97.45l-.79-.43c-.15-1.37-.17-2.66-.15-3.98.22,0,.08.5.19,1.09.4.12.83.13,1.02-.1-.04-.14-.06-.44.17-.49l.54,1.21c.08.18.05.47.05.64Z"/>
          <path class="cls-82" d="M97.93,21.94c-.43-.39-.15-.84-.26-1.18h-.15c-.11.09-.05.23-.03.32l-.13.11-.25-4.23c-.07-1.27-.31-1.93.47-2.2.18-.06.4.2.4.49l.04,3.98-.09,2.71Z"/>
        </g>
      </g>
    </g>
  </g>
</svg>