<?xml version="1.0" encoding="UTF-8"?>
<svg id="Layer_2" data-name="Layer 2" xmlns="http://www.w3.org/2000/svg" viewBox="0 0 151.04 300">
  <defs>
    <style>
      .cls-1 {
        fill: #4f5b5f;
      }

      .cls-2 {
        fill: #fb4657;
      }

      .cls-3 {
        fill: #716463;
      }

      .cls-4 {
        fill: #2c2116;
      }

      .cls-5 {
        fill: #2d3138;
      }

      .cls-6 {
        fill: #fe5f63;
      }

      .cls-7 {
        fill: #ff6364;
      }

      .cls-8 {
        fill: #96846a;
      }

      .cls-9 {
        fill: #cc274c;
      }

      .cls-10 {
        fill: #080101;
      }

      .cls-11 {
        fill: #515d61;
      }

      .cls-12 {
        fill: #b43039;
      }

      .cls-13 {
        fill: #546063;
      }

      .cls-14 {
        fill: #968d8d;
      }

      .cls-15 {
        fill: #282b32;
      }

      .cls-16 {
        fill: #383d46;
      }

      .cls-17 {
        fill: #ff595c;
      }

      .cls-18 {
        fill: #2a2e33;
      }

      .cls-19 {
        fill: #ff5e5c;
      }

      .cls-20 {
        fill: #6d6a65;
      }

      .cls-21 {
        fill: #2e2c2e;
      }

      .cls-22 {
        fill: #b14645;
      }

      .cls-23 {
        fill: #ff3c4b;
      }

      .cls-24 {
        fill: #32363c;
      }

      .cls-25 {
        fill: #250803;
      }

      .cls-26 {
        fill: #d2bd9c;
      }

      .cls-27 {
        fill: #fa202c;
      }

      .cls-28 {
        fill: #4d585c;
      }

      .cls-29 {
        fill: #d6a577;
      }

      .cls-30 {
        fill: #ff2b30;
      }

      .cls-31 {
        fill: #331d1b;
      }

      .cls-32 {
        fill: #111012;
      }

      .cls-33 {
        fill: #d03029;
      }

      .cls-34 {
        fill: #f6322f;
      }

      .cls-35 {
        fill: #505b5f;
      }

      .cls-36 {
        fill: #2e323a;
      }

      .cls-37 {
        fill: #0b0606;
      }

      .cls-38 {
        fill: #ed4c4b;
      }

      .cls-39 {
        fill: #373c43;
      }

      .cls-40 {
        fill: #fb4b42;
      }

      .cls-41 {
        fill: #892733;
      }

      .cls-42 {
        fill: #a12331;
      }

      .cls-43 {
        fill: #05090b;
      }

      .cls-44 {
        fill: #fd262d;
      }

      .cls-45 {
        fill: #222429;
      }

      .cls-46 {
        fill: #aea9a3;
      }

      .cls-47 {
        fill: #574e50;
      }

      .cls-48 {
        fill: #0e1012;
      }

      .cls-49 {
        fill: #8f2a31;
      }

      .cls-50 {
        fill: #505c60;
      }

      .cls-51 {
        fill: #d23129;
      }

      .cls-52 {
        fill: #333840;
      }

      .cls-53 {
        fill: #ff585d;
      }

      .cls-54 {
        fill: #373b42;
      }

      .cls-55 {
        fill: #0d0c0d;
      }

      .cls-56 {
        fill: #c6ae98;
      }

      .cls-57 {
        fill: #1f1212;
      }

      .cls-58 {
        fill: #c9b496;
      }

      .cls-59 {
        fill: #ff4f54;
      }

      .cls-60 {
        fill: #968666;
      }

      .cls-61 {
        fill: #9a9391;
      }

      .cls-62 {
        fill: #566266;
      }

      .cls-63 {
        fill: #d22a48;
      }

      .cls-64 {
        fill: #f61832;
      }

      .cls-65 {
        fill: #030203;
      }

      .cls-66 {
        fill: #f43131;
      }

      .cls-67 {
        fill: #9c9693;
      }

      .cls-68 {
        fill: #292d34;
      }

      .cls-69 {
        fill: #74262c;
      }

      .cls-70 {
        fill: #7d5010;
      }

      .cls-71 {
        fill: #ff6868;
      }

      .cls-72 {
        fill: #f23131;
      }

      .cls-73 {
        fill: #cc2f29;
      }

      .cls-74 {
        fill: #66635e;
      }

      .cls-75 {
        fill: #4a4243;
      }

      .cls-76 {
        fill: #c42b2b;
      }

      .cls-77 {
        fill: #f0802f;
      }

      .cls-78 {
        fill: #b12a3f;
      }

      .cls-79 {
        fill: #c52b2b;
      }

      .cls-80 {
        fill: #cb2c52;
      }

      .cls-81 {
        fill: #908685;
      }

      .cls-82 {
        fill: #4c4445;
      }

      .cls-83 {
        fill: #ff4952;
      }

      .cls-84 {
        fill: #ec2f2f;
      }

      .cls-85 {
        fill: #fa372e;
      }

      .cls-86 {
        fill: #fb2631;
      }

      .cls-87 {
        fill: #e8ccab;
      }

      .cls-88 {
        fill: #c72c2b;
      }

      .cls-89 {
        fill: #af252d;
      }

      .cls-90 {
        fill: #aa222a;
      }

      .cls-91 {
        fill: #e8c69d;
      }

      .cls-92 {
        fill: #3b2423;
      }

      .cls-93 {
        fill: #cdb89a;
      }

      .cls-94 {
        fill: #eedfbe;
      }

      .cls-95 {
        fill: #ffad89;
      }

      .cls-96 {
        fill: #ff9f82;
      }

      .cls-97 {
        fill: #292c33;
      }

      .cls-98 {
        fill: #ff635e;
      }

      .cls-99 {
        fill: #73262b;
      }

      .cls-100 {
        fill: #080809;
      }

      .cls-101 {
        fill: #34383f;
      }

      .cls-102 {
        fill: #ca2e2a;
      }

      .cls-103 {
        fill: #434953;
      }

      .cls-104 {
        fill: #fb463f;
      }

      .cls-105 {
        fill: #832633;
      }

      .cls-106 {
        fill: #605d59;
      }

      .cls-107 {
        fill: #2e3138;
      }

      .cls-108 {
        fill: #2c2727;
      }

      .cls-109 {
        fill: #f14a5a;
      }

      .cls-110 {
        fill: #3c424c;
      }

      .cls-111 {
        fill: #8d5b14;
      }

      .cls-112 {
        fill: #c3274c;
      }

      .cls-113 {
        fill: #0f1111;
      }

      .cls-114 {
        fill: #4e595d;
      }

      .cls-115 {
        fill: #060202;
      }

      .cls-116 {
        fill: #040304;
      }

      .cls-117 {
        fill: #aba6a0;
      }

      .cls-118 {
        fill: #a19f9c;
      }

      .cls-119 {
        fill: #95908d;
      }

      .cls-120 {
        fill: #f0322f;
      }

      .cls-121 {
        fill: #3e444e;
      }

      .cls-122 {
        fill: #f04858;
      }

      .cls-123 {
        fill: #070201;
      }

      .cls-124 {
        fill: #060102;
      }

      .cls-125 {
        fill: #ff5353;
      }

      .cls-126 {
        fill: #1a2129;
      }

      .cls-127 {
        fill: #ff7169;
      }

      .cls-128 {
        fill: #cd3029;
      }

      .cls-129 {
        fill: #525d61;
      }

      .cls-130 {
        fill: #23262a;
      }

      .cls-131 {
        fill: #9a4252;
      }

      .cls-132 {
        fill: #343942;
      }

      .cls-133 {
        fill: #cd2e2b;
      }

      .cls-134 {
        fill: #951926;
      }

      .cls-135 {
        fill: #cfa799;
      }

      .cls-136 {
        fill: #290903;
      }
    </style>
  </defs>
  <g id="Layer_1-2" data-name="Layer 1">
    <g>
      <path d="M147.51,234.3l-44.96-48.98c-2.64-2.88-11.73-2.63-11.86.28l-.65,14.88,13.1,2.14c6.56,1.07,1.84,13.85,8.82,27.22,10.88,20.85,22.91,29.59,19.17,42.92-14.18-17.93-24.13-32.89-44.94-44.59l-9.6,71.82-9.94-71.25c-19.83,10.32-32.46,26.09-44.83,44.49-4.05-14.51,7.35-21.23,18.78-42.73,7.78-14.63,2.68-23.65,7.45-26.58,2.57-1.58,7.89-2.42,13.83-3.45l.81-14.69c.16-2.91-9.55-3.57-11.56-1.39L0,240.17l24.49-55.8c2.19-1.77,7.82-6.03,8.92-8.51l13.5-30.61c1.09-2.47,8.96-6.36,7.58-8.51-2.59-4.04-5.87-10.38-4.55-13.14,1.32-2.76,6.66-6.43,10.19-9.32l2-59.24c.24-7.23,2.93-16.14,4.98-22.91L76.84,0c2.02,10.1,4.8,20.19,8.54,30.64,6.35,17.73,5.54,36.07,6.36,55.19l1.25,28.81,8.92,6.94c5.6,4.36-11.05,18.39,3.6,22.84l14.39,32.57,8.62,7.8,21.27,48.12,1.12,1.91.12,3.32-3.53-3.84Z"/>
      <g id="Generative_Object" data-name="Generative Object">
        <g>
          <path class="cls-116" d="M68.51,247.88l-2.08-21.03c-.05-.48-.1-1.42-.45-1.53-.31-.1-1.13.15-1.23.63l-1.93,9.55c-8.46,7.06-16.69,13.97-24.67,21.67-5.22,5.04-9.38,10.74-13.26,17.6-2.1-4.2-3.49-8.29-4.37-12.62-1.25-6.12,2.15-12.73,5.14-18.06l15.65-27.85,1.94-8.12-20.72,17.69c-7.3,6.24-14.52,11.92-22.53,17.47,1.82-6.94,4.19-13.09,6.85-19.46l12.47-29.88,9.02-21.93c.69-1.69,1.63-2.95,2.86-4.1l3.99-3.73c1.01-.94,1.56-2.04,2.08-3.38l8.17-21.44c.62-1.63.92-3.69,2.13-4.57l4.46-3.27c.78-.57,1.64-.93,2.08-1.95l-3.3-10.51c-.67-2.14-.46-3.92,1.2-5.24l7.38-5.84.22-6.17.61-19.53.53-17.5.56-13.82c.11-2.69.67-4.98,1.42-7.58l9.89-34.23,2.93-9.14,13.37,46.06.3,1.51c.68,5.57.87,11.02,1.08,16.74l1.6,43.76,7.41,5.88c.75.59,1.7,1.82,1.34,2.96l-4.1,13.05,6.76,4.68c1.11.77,1.41,2.6,1.89,3.88l6.33,16.92,2.74,7.33c.67,1.79,6.02,4.55,7.71,8.52l18.97,44.67c3.75,8.98,7.35,17.59,10.08,27.5-9.87-7.04-19.15-14.67-28.46-22.7l-14.45-12.46,1.74,8.55,12.8,22.45c2.46,4.31,4.77,8.36,6.79,13.01,3.22,7.44.36,14-2.63,21.31-.13.32-.26.65-.43.75-.28.16-.65-.04-.88-.45-3.73-6.42-8.03-12.01-13.21-16.96-7.85-7.48-15.82-14.35-24.09-21.42l-1.86-9.6c-.09-.44-1.42-.71-1.47-.22l-3.71,33.25-1.7,14.3c-1.07,9-2.18,17.85-4.09,26.75-2.36-11.27-3.67-22.1-4.86-33.23l-2.01-18.89ZM74.38,10.47l-.91,3.01c-.29.97-.25,1.75-.45,2.47-.31-.04-.35.22-.44.54l-8.81,30.85c-1.07,3.76-.98,15.48-1.2,21.46l-.28,7.81-.26,10.86-.26,5.78-.22,12.61.87-1.36c.65-1.03,1.93-2.29,2.15-3.78.59-4.08.39-8,.57-12l.79-18.08.38-7.25c.29-5.49,1.68-10.39,4.36-14.64.68-1.08,1.56-2.27,2.4-3.27.56-.67,1.76-2.39,2.76-1.67,2.04,1.49,3.56,3.94,4.85,6.08,3.3,5.46,3.44,9.15,3.91,15.74l.58,8.08.93,17.83.29,7.11c.09,2.22.57,3.74,1.85,5.17.55.61.8,1.76,1.7,2.37-.25-2.83-.21-5.44-.32-8.2l-.56-14.93-1.01-24.96c-.14-3.43.05-6.93-.87-10.28l-5.25-19.09-5.85-19.96c-.15-.51-.07-1.09-.67-1.8l-1.02,3.52ZM66.98,84.75l-.48,16.2c-.82,2.83-2.95,5.08-4.34,7.46l-1.14,18.45c-1.01,1.37-2.23,2.3-3.57,3.45l1.08,10.51c.13,1.28-.05,3.38.83,4.09l3.16,2.54.12,13.93.22,9.83c.03,1.36.74,2.28.8,3.44l.75,13.86c.08,1.5.02,2.77.75,3.84l4.55,6.72.05-8.42c-.59-.7-1.14-1.66-1.2-2.82l-.83-16.26c-.06-1.12-1.81-1.41-3.17-2.27-.03-1.08-.27-2.51-.34-3.67l-.3-5.04-.22-8.9-.22-3.89c.61-.04.3.81.33,1.13l.45,6.91.31,7.72c.07,1.66-.19,3.61.65,4.98.61.99,3.17.61,3.34,3.3l1,16.37c.05.75.79,1.87,1.3,1.82l2.11-.22c1.4-.15,2.77,0,4.32.04l2.86.06c.58.01.64-.75.88-.93.46-.34.51-1.01.56-1.82l.93-16.17c.09-1.65,3.73-1.57,3.67-3.49-.03-.93.05-1.95.11-2.98l.3-4.93.28-6.19.26-4.04c.04-.69.24-1.24.11-1.89.13.06.33.09.41.05-.36,2.85-.33,5.76-.42,8.66l-.35,5.38c-.16,2.47.08,5.04-.52,7.53-.16.16-.39.43-.39.59-.78.41-2.29.76-2.73,1.86l-.73,15.27c-.09,1.88-.83,2.75-1.35,4.18-.66,2.34-.04,5.22-.16,7.87l4.81-6.8c.25-.36.52-.69.47-1.39l.74-15.35c.06-1.15.29-2.16,1.09-2.83l.29-10.08.2-14.65,3.11-2.48c.72-1.44.69-3.47.86-5.14l1.03-9.94-3.83-3.69-.89-17.72-3.32-5.72c-.42-.72-.78-1.42-.81-2.42-.5-13.24-1.03-26.27-2.2-39.36-.54-5.99-3.31-10.5-6.59-14.53-.18-.22-.45-.9-.7-.82-2.02,2.33-3.52,4.85-4.95,7.53-2.13,3.98-2.47,10.29-2.68,15.46l-.66,15.83ZM91.17,116.01l.23,7.4c.09,2.73.75,2.78,2.27,3.72l1.25.78,3.37-10.24c.17-.52.5-1.28-.09-1.77l-7.47-6.15c.07,2.32.44,4.21.44,6.27ZM56.95,127.77c.63-.47,1.71-.87,2.2-1.67.55-.89.36-2.32.41-3.35l.49-10.49c.03-.57.16-1.12,0-1.94l-6.49,5.34c-.99.82-1.1,1.67-.67,3.01l2.99,9.5c.34-.07.81-.21,1.08-.41ZM95.3,132.91l-.64,7.1-.58,4.8c-.06,1.16-.54,2.16-1.39,2.96l-2.23,2.08.06,22.16c6.27,1.37,7.54,1.29,11.31,6.81l7.51,11c5.13,7.52,10.94,14.68,16.71,22.08l1.47-2.07-6.95-9.12c-2.07-2.72-6.72-8.44-6.89-9.79.44.1.79.9,1.15,1.36l3.17,3.95,3.56-4.7c-3.17-6.85-6.06-13.56-9.99-19.87-.76-.95-2.57-1.37-3.52-1.34l-4.47,3.59c1.34,3.47,4.83,7.52,4.93,8.87-.56-.21-.74-.87-1.09-1.4l-1.28-1.94-3.14-5.26c-.49.48-.9,1.11-1.47,1.08l2.37-2.67,3.2-3.11c-.28-1.97.18-4.29-.55-6.09l-5.1-12.6c-.93-2.31-3.28-1.8-5.95-1.06-.72.2-1.58.78-1.58,1.85l.12,17.33,4.55,1.47c.21.18.09.77.03.63-2.03-.27-3.62-.63-5.43-1.47l-.15-17.62c-.01-1.16.27-2.04.95-2.63,3.91-1.15,6.73-2.52,8.35,1.45l5.05,12.36c.76,1.87.2,4.1.52,5.99l3.72,1.18.5-5.91c.51.42.46,1.02.44,1.72l-.14,5.2c3.86,6.52,6.92,13.22,9.94,20.33.63,1.48,2.15,2.06,3.34,3.18l1.49-1.9c.18-.02.16-.11.15-.19-.03-.19.15-.44.43-.38l.26.96-2.35,2.87-3.73-3.52c-1.27,1.42-2.32,2.73-3.33,4.43l9.27,12.36,4.13-4.86c.61-.34,1.08-1.04,1.32-1.65l-12.55-29.21c-.67-1.55-1.09-2.83-2.23-3.9l-5.86-5.54-5.77-15.22-4.57-12.3c-1.77-2.12-4.57-2.99-6.66-4.6-.2-.27-.43-.15-.43-.04v.81ZM17.97,204.49l4.96,5.28,8.91-12.44-2.94-4.24-3.05,2.89-2.5-3.05c-.32-.39.21-1.03.52-.8l2.08,2.64,2.57-2.58c2.92-7.01,6.05-13.72,9.79-20.21.56-.97.09-2.16.08-3.1l-.11-3.47c.34-.37.44-1.11.88-1.44l.12,6.38,3.88-1.22v-3.31c0-1.84.23-3.45.92-5.07l4.13-9.66c.49-1.14,1.22-2.58,2.42-2.81,2.61-.51,5.09.5,7.38,1.61l.09,19.73c-2.03.98-4.13,1.24-6.28,1.32-.09-.36-.05-.54-.13-.71.5.31.56.31,1.04.15,1.51-.49,3.02-.67,4.52-1.43.32-6.25.46-12.2-.04-18.39-2.04-1.1-4.31-1.63-6.52-1.24-.76.13-1.29,1.13-1.59,1.83l-4.49,10.62c-1.07,2.52-1,5.37-.57,8.07l3.93,3.42,1.68-2.46c.17,1.45-1.95,2.6-1.35,3.86-.02,0-.17.02-.42-.17-3.09,5.52-6.51,10.66-10,15.91-2.1,3.15-4.23,5.96-6.5,8.97l-8.03,10.61,1.87,2.19,14.93-20.04,10.2-14.69c.68-.98,1.48-2.48,2.56-3.13,2.39-1.46,5.07-1.63,7.85-2.44l-.12-22.29c-1.03-1.2-2.87-2-3.15-3.78l-1.42-9.14-.4-3.14c-.05-.4.13-1.44-.34-1.31l-5.32,3.36c-.65.41-1.34.92-1.68,1.79l-10.28,27.1-7.33,7.06-13.33,32.16.58.83ZM32.72,196.51c5.48-7.32,10.13-14.71,14.75-22.47l-4.42-3.7c-.91-.03-2.53.48-3.37,1.16-3.24,5.07-5.71,10.43-8.24,16.01-.74,1.64-1.53,3.01-2,4.79,1.08,1.37,1.77,2.98,3.28,4.21ZM95.18,182.24c.42-2.22.74-4.48.36-6.8-1.43,0-2.58-.59-3.97-.77-.65-.08-2.19.58-2.43,1.36-.46,1.52-.26,3.18-.04,4.43,2.31.24,3.91,1.15,6.09,1.78ZM59.84,180.81c.6-.17,1.28-.02,1.96-.41l-.07-4.22-3.66-1.14-2.58.28.1,6.72,4.26-1.23ZM49.35,191.48l4.79-1.94c0-2.87-.09-5.6-.4-8.46.02-1.55.23-2.99-.3-4.71-3.6,5.59-7.08,10.87-10.85,16.14l1.58,12.02,2.15-9.24c-.19-2.24,1.29-3.66,3.02-3.8ZM105,195.56l1.94,8.66,1.56-12.03-7.43-10.77-3.47-5.03-.42,5.14-.36,8.15,6.55,2.89c1.12.49,1.33,1.64,1.63,2.99ZM91.77,187.65l3.23,1.26.04-5.87-3.2-1.28-2.79-1-.17,5.85,2.89,1.04ZM61.94,186.82l-.18-5.93-4.26,1.28c-.54.16-1.04.68-1.72.62l.34,5.8c1.88-.84,3.64-1.31,5.82-1.77ZM29.32,243.66l2.84,3.22c3.47-5.53,6.52-11.05,10.54-15.82l6.74-7.99c1.36-1.62,3.26-2.8,4.32-4.63l3.84-14.2,1.9-1.47,2.71-1.64-.07-10.45c0-.52.2-1.09-.08-2.02l-7.81,2.46c-2.07.65-4,1.55-5.82,3.04l-5.03,22.91-14.27,24.99c-.19.33-.31.64-.29.88.02.27.31.52.47.7ZM88.98,190.55l-.06,10.66,2.6,1.73c1.37.91,1.79,1.83,2.23,3.47,1.09,4.02,1.65,8.31,3.26,12.02.69,1.58,2.34,2.53,3.48,3.72,5.55,5.8,10.32,12.2,14.75,19.13l3.47,5.41c.14.22.37.13.42.02.05-.09.16-.38.24-.47l2.16-2.38c.22-.24.56-.35.66-.65.2-.61-.14-.8-.38-1.22l-9.53-16.85-4.31-7.47-5.31-23.08c-1.4-1.55-3.08-2.28-4.83-2.88l-8.81-3c-.25.77-.05,1.28-.05,1.83ZM75.41,221.93c1.72-2.12,3.47-4.21,4.74-6.89l-.02-22.42c0-.59-.24-1.12-.37-1.65l-8.21-.06c-.7,0-.92.59-.92,1.37l.04,22.77,4.74,6.88ZM80.93,215l-.5,2-4.61,6.09v25.48s0,6.68,0,6.68l-.04,23.48c0,2.37.09,4.53-.42,6.64l-.32-11.42-.02-50.88-4.25-6.01c-.37-.52-.95-1.2-.96-2.07l-.11-13.82-2.27-3.59-3.06-4.41-.08,7.72c1.79,1.3,2.56,3.31,3.04,5.32l.6,1.39c.37,4.77.45,9.38.36,13.97-.06,3.09.21,6.09.52,9.36l2.05,21.1,2.41,22.19,1.55,12.76c.11.87.17,1.72.57,2.36l1.42-9.83,3.85-33.99,2.05-19.69v-3.4s.09-3.74.09-3.74l.45-5.08c.28-3.17.16-6.24.72-9.25.68-1.35,1.14-2.7,2.64-3.32l-.07-8.23-5.58,7.77-.06,14.39ZM136.6,230.25c.72.6,1.36,1.41,2.35,1.36-1.12-2.2-2.58-3.72-4.03-5.5l-10.4-12.8-14.82-18.43-1.32,10.6c.76,1.05,1.56,1.61,2.47,2.36l17.5,15.54,8.26,6.88ZM30.91,215.95l11.83-10.41c-.29-3.61-.78-6.94-1.45-10.34-5.97,7.79-11.71,14.99-17.84,22.21-3.9,4.72-7.64,9.11-11.22,14.27,6.46-4.94,12.41-10.17,18.67-15.72ZM60.36,203.69c-.73.22-1.96.66-2.25,1.8l-3.47,13.38,3.54,4.94,3.36-3.3c1.41-1.38,2.99-2.43,4.91-3.22l-.13-8.74c-.03-1.99-.71-3.52-1.63-5.12-.54-.95-1.26-1.42-2.27-.87l-2.07,1.13ZM91.26,222.17l1.26,1.39,3.54-4.8-2.94-11.26c-.28-1.06-.38-2.46-1.12-2.94-1.37-.89-2.59-1.65-4.16-2.21l-2.22,2.91c-.61,4-.68,7.96-.64,12.12,1.49.47,2.6,1.34,3.73,2.41l2.54,2.4ZM129.97,208.72l-1.48,1.56,5.94,8.47,9.15,13.31c.91,1.33,1.86,2.58,2.44,4.28l-2.26-2.72-10.54-15.3-5.26-7.29c-.6.38-.97.89-1.42,1.54l14.81,20.21,6.18,5.82c-2.92-9.03-6.28-17.01-9.8-25.28l-2.89-6.8c-.29-.69-.46-1.61-.98-2.12l-3.9,4.31ZM3.81,236.95c-.14,0-.1.26-.17.4l-.27.55c-.06.13.45.25.56.16,2.17-1.84,4.4-3.59,6.32-6.12l14.29-18.84-1.23-1.37-11.28,15.21-6.1,8.22c2.39-4.69,5.43-8.28,8.31-12.37l8.49-11.81-5.03-5.15c-.25-.25-.41-.77-.8-1l-4.45,10.5c-3.08,7.28-6.03,14.36-8.63,21.62ZM34.62,249.5l8.28-9.43,14.54-15.73-3.22-4.7c-8.65,7.67-15.09,17.09-21.47,27.59l1.87,2.27ZM116.5,249.75l1.97-2.31c-4.35-7.2-9.07-13.81-14.3-20.15-2.48-2.8-4.88-5.27-7.71-7.65l-3.45,4.42,10.14,10.85,13.34,14.83ZM32.82,254.31c-1.87,2.77-3.42,5.57-4.58,8.81-.7,1.97-1.97,3.55-1.89,5.92,1.41-2.97,3.27-5.27,5.28-7.71s3.81-5.5,6.27-7.1c2.19-1.42,3.91-3.21,5.86-4.94l4.77-4.25,12.36-10.78,2.2-11.94c-2.04,1.28-3.47,2.83-5.05,4.55l-.13,7.49-4.97,4.37-8.23,7.55-4.92,5.04c-.99,1.02-2.04,1.82-2.74,3.03l-2.36-2.81-1.86,2.75ZM88.8,227.5l1.1,6.48,8.76,7.93,12.99,11.76c5.35,4.85,9.85,10.17,13.71,16.68l-2.89-9.16c-.67-2.12-1.78-3.83-3.07-5.5l-3.32-4.31-2.24,2.64-8.48-8.18-11.5-10.81-.77-1.14-.02-5.72c0-.71.07-1.5-.56-2.05l-4.5-3.99c.06,1.93.5,3.62.79,5.37ZM37.21,253.49c4.35-5.15,9.09-9.37,13.9-13.83l5.86-5.44-.18-6.53-16.41,17.51-5.06,5.83c.49.88,1.05,1.62,1.89,2.46ZM113.76,253.19l2.02-2.27-9.53-10.2-12.01-12.88-.3,6.24,2.26,2.31,12.01,11.19,5.56,5.61ZM22.91,264.52l.61,2.11,1.44,4.7,1.85-6.77,2.61-7.66,4.67-6.33-1.96-2.35c-1.23,1.06-1.9,2.76-2.78,4.29-.99,1.71-2.1,3.28-2.79,5.22l-1.19,6.23c-.4-.12-.34-.62-.28-.84.48-1.77.21-4.14,1.13-5.77l5.33-9.47-2.39-2.81c-.26-.3-.33-1.05-.95-1.41-1.87,3.5-3.66,6.88-5.1,10.64-1.31,3.44-1.17,6.82-.2,10.21ZM121.27,246.13c-.77.44-1.3,1.28-1.83,1.91l3.68,5.99,1.22,1.71c.44.62.29,1.31,1.47,1.56l-.66.58c-.15.13.21.56.25.75v.92c.01.13-.1.27-.3.2-.45-2.33-1.56-4.47-2.82-6.41l-3.19-4.9-2.05,2.09,3.21,4.15c1.72,2.21,3.13,4.43,3.88,7.27l2.26,8.54c.31-1.17.37-1.92.72-2.6.6-1.15,1.25-2.4,1.46-3.71l.41-2.61c.4-2.54.08-5.27-1-7.57l-2.47-5.24-2.46-4.7c-.71.49-1.56,1.35-1.79,2.09Z"/>
          <path class="cls-27" d="M76.19,87.52c-.24.25-.49.29-.58.51-.15.37.23.86.22,1.24l-.07,5.93c-1.65-.1-3.95.13-5.33,1.42l-6,16.04-.07,15.85c0,.94.57,1.94.84,2.64-.21.09-.34.28-.4.42-.09.23-.05.71.07,1.04l2.36,6.41c.51,1.38.88,2.75,1.94,3.26,1.32.63,2.37.62,3.84.59l7.76-.15c.09.33.27.61.24.88-.12,1.17-1.42,1.04-1.17,1.83-1.16-.03-2.44.21-3.6-.13-1.07-.32-2.07-.26-3.16,0s-2.44.02-3.57.68c.88.39,1.67-.06,2.43-.07l7.35-.06c.49,0,1.16.53,1.73.24l-.05,4.98c-3.72-1.56-7.52-1.77-10.94.31.48.3.88.14,1.09.39-.35.04-1.14.29-1.19.88-.26,3.5-.04,6.91.12,10.3l.91.1c.06.18-.33.48-.32.71l.22,9.82.2,15.79c.87-.27,1.56-.07,1.89.43l-2.11.22c-.51.05-1.26-1.07-1.3-1.82l-1-16.37c-.16-2.68-2.73-2.3-3.34-3.3.38-.52.17-1.19.14-1.85l-.85-17.85-.7.09c-.02-.32.28-1.17-.33-1.13-.2.01-.41-.32-.18-.72-.86-1.28-2.1-1.86-3.33-2.48-.98-3.47-1.07-6.99-1.41-10.67-.11-1.21-.54-2.76.46-3.64l1.78-1.58c.87-.77,1.36-1.53,1.32-2.94-.08-3.06-.07-6.08.23-9.13-.09-2.69.08-5.12.39-7.77,1.33-1.64,2.06-3.91,3.63-5.11,1.2-.53,1.53-2.67,1.61-4.17l.43-8.03c0-.11,0-.23-.04-.32,2.2-1,3.8-3.03,6.61-4.18.52-.21.92.32,1.21.46ZM61.49,132.58c-.72.05-2.1,1.1-2.04,1.95l.18,4.36.58,4.23c.43-.98,0-2-.09-3.06l-.19-2.23c-.08-.99-.24-2.42-.02-3.44l1.58-1.81c.5-.03.96-.3,1.54-.85l1.36,2.56c-.1.89.81,3.91,1.16,4.04.12,1.89,1.14,5.59,1.98,6.78.2.28.12.73.32.9.3.27.72.21.84-.12-.43.12-.71-.3-.28-.63-2.11-1.75-1.96-6.53-2.86-6.93-.08-1.34-.56-2.92-1.16-4.04.06-.96-.58-2.64-1.29-2.88-.59,0-1.29.88-1.61,1.17ZM62.5,144.94c-.03.29.24.56.34.48.09-.07.13-.36.1-.48-.06-.23-.41-.3-.44,0Z"/>
          <path class="cls-51" d="M59.51,202.77l-1.9,1.47-3.84,14.2c-1.06,1.83-2.96,3.01-4.32,4.63l-6.74,7.99c-4.02,4.77-7.06,10.28-10.54,15.82l-2.84-3.22,8.72-15.07,5.48-9.45c1.01-1.74,1.37-3.73,1.79-5.72l1.17-5.59c.29-.02.48-.31.8-.08-.28,4.24-2.55,9.94-.98,10.85.24.14.69-.11.77-.7l.68-5.3,1.19-10.16,1.21-8.19c2.7-1.46,5.63-2.37,8.55-2.93.38,3.61.17,7.27.24,11.18.2.34.51.02.57.28Z"/>
          <path class="cls-88" d="M101.66,194.89c-.09,1.11-.02,2.15.14,3.26l1.3,9.41c.6,4.3,1.06,8.98,3.01,12.67l8.16,15.42c1.87,3.54,3.75,6.79,5.11,10.59-.08.09-.2.37-.24.47-.05.11-.28.2-.42-.02l-3.47-5.41c-4.43-6.92-9.2-13.32-14.75-19.13-1.14-1.19-2.79-2.14-3.48-3.72-1.61-3.71-2.17-8-3.26-12.02-.45-1.64-.86-2.55-2.23-3.47l.55-.45.1-10.73c.27-.21.31-.33.31-.46l5.53,1.84c1.31.44,2.63.86,3.64,1.76Z"/>
          <path class="cls-12" d="M88.23,103.81c-1.29-1.43-1.76-2.95-1.85-5.17l-.29-7.11-.93-17.83-.58-8.08c-.47-6.59-.61-10.28-3.91-15.74.75-1.31.15-2.76.12-4.17-.15-7.76-1.37-14.99-3.17-22.31l-1.5-8.97-1.57,14.6-1.61,12.33c-.19,1.43-.51,2.9.12,4.11-.83,1-1.71,2.19-2.4,3.27-.27-.03-.38-.14-.47-.28-.11-.18-.18-.74-.14-1.04l2.39-18.27,1.53-10.32c.45-3,.67-6.08,1.76-8.73.35,0,.56.35.35.74l6.83,23.48,3.02,11.37c.93,3.5,1.03,7.16,1.22,10.8l.3,6.02.34,6.66.37,8.81.48,14.26c.13,3.9.01,7.61.49,11.65-.39.29-.62-.13-.9-.07Z"/>
          <path class="cls-83" d="M76.07,8.75c-.28.25-.16.93-.34,1.34-1.1,2.65-1.31,5.73-1.76,8.73l-1.53,10.32-2.39,18.27c-.04.3.03.86.14,1.04.09.15.2.25.47.28-2.69,4.25-4.08,9.15-4.36,14.64l-.38,7.25-.79,18.08c-.18,4.01.03,7.93-.57,12-.22,1.49-1.5,2.75-2.15,3.78l.04-9.89.27-11.55.86-24.05c.05-1.4.28-2.69.24-4.08-.1-3.31.2-6.33,1.09-9.58l8.1-29.38c.23-.05.28-.33.36-.62l1.22-4.3c.2-.19.13-.58-.22-.56l1.02-3.52c.61.71.52,1.29.67,1.8Z"/>
          <path class="cls-84" d="M81.02,188.98c-.24.18-.3.94-.88.93l-2.86-.06c-1.56-.03-2.92-.19-4.32-.04-.33-.49-1.01-.7-1.89-.43l-.2-15.79-.22-9.82c0-.23.38-.53.32-.71l8.61.02c.31,0,1.06-.31,1.07-.77l.21-10.2.05,9.98-.21,26.09c0,.41,0,.64.33.81Z"/>
          <path class="cls-72" d="M17.97,204.49l5.21-12.22,7.74-18.56c.59-1.41,1.35-2.38,2.42-3.28,1.83-1.53,3.37-3.33,4.94-5.04l.11,3.47c.02.93.49,2.12-.08,3.1-3.74,6.5-6.87,13.2-9.79,20.21l-2.57,2.58-2.08-2.64c-.31-.22-.84.41-.52.8l2.5,3.05,3.05-2.89,2.94,4.24-8.91,12.44-4.96-5.28Z"/>
          <path class="cls-33" d="M75.41,221.93l-4.74-6.88-.04-22.77c0-.78.22-1.38.92-1.37l8.21.06c.14.54.37,1.07.37,1.65l.02,22.42c-1.27,2.68-3.02,4.77-4.74,6.89Z"/>
          <path class="cls-134" d="M91.88,140.02c.02.24.17.72.29,1.08-.6.57-.4,1.88-.63,2.6-.48,1.54-2.06,2.01-2.97,2.91l-.91.9c-.08.04-.28.01-.41-.05-.46.68-.6,1.73-.65,2.65l-.31,5.29-.26,5.56-.18,5.88c-.01.37,0,.62.32.66.06,1.93-3.58,1.85-3.67,3.49l-.93,16.17c-.05.81-.1,1.48-.56,1.82-.33-.16-.33-.4-.33-.81l.21-26.09-.05-9.98c-3.22-.65-6.67-.7-9.73-.31-.21-.25-.61-.09-1.09-.39,3.42-2.08,7.22-1.87,10.94-.31l.05-4.98,1.09-.76c1.03.23,1.61-.9,1.61-1.99l3.04-9.08c.22-.74.49-1.35.93-2.14l4.19,2.48c.11,3.33-1.34,6.44,0,5.39ZM90.75,142.9c-.03.07.16.31.26.01.07-.68.45-1.29.31-2.04.02.02-.07-.11-.15-.18-.17.73-.49,1.42-.41,2.2Z"/>
          <path class="cls-34" d="M51.69,170.21c-.33-.21-.97-.57-1.31-.21l-.73.78-1.68,2.46-3.93-3.42c-.43-2.7-.5-5.54.57-8.07l4.49-10.62c.3-.7.83-1.69,1.59-1.83,2.21-.39,4.48.14,6.52,1.24.5,6.2.36,12.15.04,18.39-1.5.76-3.01.94-4.52,1.43-.48.15-.54.16-1.04-.15Z"/>
          <path class="cls-63" d="M101.54,175.26c-.09.03-.29.1-.23.44-.1-.2-.18-.18-.22-.23l-1.4-4.48c-.17-.54-.86-.54-1.09-.61l-4.55-1.47-.12-17.33c0-1.07.85-1.65,1.58-1.85,2.67-.74,5.02-1.24,5.95,1.06l5.1,12.6c.73,1.8.26,4.12.55,6.09l-3.2,3.11-2.37,2.67Z"/>
          <path class="cls-128" d="M75.83,255.25c.21,0,.3.14.3.44l.05,20.41c.55-.55.71-1.56.75-2.48.22-5.19.84-10.07,1.4-15.27l3.07-28.33c.23-2.1.55-4.13,1.05-6.26.08-.36-.32-1.27.3-1.31v3.4s-2.04,19.69-2.04,19.69l-3.85,33.99-1.42,9.83c-.4-.64-.47-1.49-.57-2.36l-1.55-12.76c.56-1.17.42-2.54.27-3.96l-.75-7.08c.4-.03.5-.29.48-.71l-.35-9.18-.57-10.52-1.15-16.59-.66-6.44c-.1-.99-.35-1.85.22-2.69l4.25,6.01.02,50.88.32,11.42c.51-2.12.41-4.28.42-6.64l.04-23.48Z"/>
          <path class="cls-38" d="M85.81,192.06c-.26-.25-.26-.37-.25-.87l.41-21.52c0-.16.24-.43.39-.59.6-2.48.36-5.05.52-7.53l.35-5.38c.09-2.9.06-5.81.42-8.66l.91-.9c.91-.9,2.49-1.37,2.97-2.91.22-.72.02-2.03.63-2.6-.12-.36-.26-.83-.29-1.08-.05-.51.13-1.24.18-1.86l.34-3.93.3-3.07c.1-1.03-1.06-1.9-1.68-2.22-2.12-1.08-2.59-3.09-2.64-5.53l-.33-14.35c-1.37-1.93-2.67-3.91-3.34-6.29-.21-.75-.24-1.3-.94-1.96l-.51.86-.5-3.35-.35-6.47c0-.16.04-.56-.1-.69-.09-.08-.22-.09-.34.03-.03-.13.25-.46.25-.65l-.51-12.35-.69-12.43c-.4-7.25-.22-10.23-5.41-15.21l-.1-3.13c-.01-.39,0-.64.46-.66,3.28,4.03,6.05,8.54,6.59,14.53,1.17,13.1,1.71,26.13,2.2,39.36.04,1,.4,1.7.81,2.42l3.32,5.72.89,17.72,3.83,3.69-1.03,9.94c-.17,1.67-.14,3.69-.86,5.14l-3.11,2.48-.2,14.65-.29,10.08c-.8.68-1.04,1.68-1.09,2.83l-.74,15.35c.05.69-.22,1.03-.47,1.39Z"/>
          <path class="cls-5" d="M136.6,230.25l-8.26-6.88-17.5-15.54c-.91-.74-1.71-1.31-2.47-2.36l1.32-10.6,14.82,18.43,10.4,12.8c1.45,1.78,2.92,3.3,4.03,5.5-.99.05-1.63-.76-2.35-1.36Z"/>
          <path class="cls-78" d="M112.14,164.35l-.5,5.91-3.72-1.18c-.32-1.89.24-4.12-.52-5.99l-5.05-12.36c-1.62-3.97-4.44-2.6-8.35-1.45l.32-2.71c.13-1.13.7-2.14.32-3.16-.28.3-.21.67-.16.85.08.24-.01.64-.4.54l.58-4.8.64-7.1c1.75,1.68,4.45,2.38,6.39,4.35l3.77,10.47,4.36,11.76c.66,1.77,1.01,3.78,2.31,4.86ZM101.62,143.24c.25-.71-1.9-3.01-4.04-3.46l-1.09,2.18c1.97,1.09,4.83,2.13,5.14,1.28Z"/>
          <path class="cls-64" d="M55.67,133.51l.4,3.14c-.72.62-.05,1.92-.07,2.63-.04,1.32-.2,2.18.06,3.23.59,2.38.75,5.1,1.96,7.37-2.29-1.11-4.77-2.12-7.38-1.61-1.2.23-1.93,1.67-2.42,2.81l-4.13,9.66c-.69,1.62-.91,3.24-.92,5.07v3.31s-3.88,1.22-3.88,1.22l-.12-6.38,8.54-22.29c.58-1.52.87-3.88,2.06-4.63l5.91-3.54ZM54.26,142.2c-.57-1.44-.71-1.87-1.21-2.32-1.87.78-3.53,1.68-3.75,3.92l4.96-1.6Z"/>
          <path class="cls-9" d="M113.68,190.92c-.19-.78-1.91-3.69-2.58-4.07-.1-.92-2-3.85-2.58-4.07-.1-1.35-3.59-5.4-4.93-8.87l4.47-3.59c.95-.04,2.76.38,3.52,1.34,3.93,6.31,6.82,13.01,9.99,19.87l-3.56,4.7-3.17-3.95c-.36-.45-.71-1.26-1.15-1.36Z"/>
          <path class="cls-97" d="M30.91,215.95c-6.27,5.55-12.21,10.79-18.67,15.72,3.57-5.16,7.32-9.54,11.22-14.27,6.13-7.22,11.87-14.42,17.84-22.21.67,3.39,1.16,6.73,1.45,10.34l-11.83,10.41Z"/>
          <path class="cls-66" d="M32.72,196.51c-1.51-1.23-2.2-2.84-3.28-4.21.47-1.78,1.26-3.16,2-4.79,2.53-5.58,5-10.95,8.24-16.01.84-.69,2.47-1.19,3.37-1.16l4.42,3.7c-4.63,7.76-9.28,15.15-14.75,22.47Z"/>
          <path class="cls-79" d="M116.5,249.75l-13.34-14.83-10.14-10.85,3.45-4.42c2.83,2.38,5.22,4.84,7.71,7.65,5.23,6.34,9.95,12.95,14.3,20.15l-1.97,2.31Z"/>
          <path class="cls-133" d="M34.62,249.5l-1.87-2.27c6.38-10.51,12.82-19.92,21.47-27.59l3.22,4.7-14.54,15.73-8.28,9.43Z"/>
          <path class="cls-11" d="M3.93,238.06l-.02-.51c0-.11-.14-.24-.27-.2.07-.15.03-.4.17-.4.24.15.45-.06.61-.38,2.68-5.18,4.78-10.58,7.09-15.99l5.57-13.05.61-1.71,5.03,5.15-8.49,11.81c-2.88,4.09-5.92,7.68-8.31,12.37l6.1-8.22,11.28-15.21,1.23,1.37-14.29,18.84c-1.92,2.53-4.14,4.28-6.32,6.12Z"/>
          <path class="cls-113" d="M94,149.29c-.67.59-.96,1.47-.95,2.63l.15,17.62c1.82.84,3.41,1.2,5.43,1.47.06.13.18-.45-.03-.63.23.07.93.08,1.09.61l1.4,4.48c.03.1-.24.31-.32.34s.02.48.13.48c.14,0,.45-.39.41-.59-.07-.34.14-.41.23-.44.57.03.98-.6,1.47-1.08l3.14,5.26,1.28,1.94c.35.53.53,1.19,1.09,1.4,0,.55,1.97,3.69,2.58,4.07.1.89.75,1.63,1.2,2.34-.24-.02-.62-.15-.75.01l-.45.56c-.77.46-1.17.41-1.76.06l-7.51-11c-3.77-5.52-5.04-5.44-11.31-6.81l-.06-22.16,2.23-2.08c.85-.8,1.34-1.8,1.39-2.96.39.09.48-.3.4-.54-.06-.19-.13-.56.16-.85.37,1.02-.19,2.03-.32,3.16l-.32,2.71Z"/>
          <path class="cls-41" d="M82.83,218.71l-.09,3.74c-.62.04-.22.95-.3,1.31-.5,2.13-.82,4.16-1.05,6.26l-3.07,28.33c-.56,5.2-1.18,10.08-1.4,15.27-.04.92-.2,1.93-.75,2.48l-.05-20.41c0-.3-.09-.43-.3-.44v-6.68c.08.06.21.03.21-.11l.31-7.76c.51-1.8,1.03-3.42,1.39-5.22l1.52-7.59,1.05-7.26.13-3.63.5-2c.97.86.15,3.11,1.9,3.7Z"/>
          <path class="cls-30" d="M80.67,49.88c-1.29-2.14-2.81-4.59-4.85-6.08-.99-.72-2.2,1-2.76,1.67-.63-1.21-.3-2.68-.12-4.11l1.61-12.33,1.57-14.6,1.5,8.97c1.79,7.33,3.02,14.55,3.17,22.31.03,1.42.63,2.87-.12,4.17Z"/>
          <path class="cls-31" d="M48.31,174.63c-.11.12-.02.62.17.67.13.03.32.03.44,0,.17-.05.33.09.29.31.09.46.48.88.83,1.09-.02.13,0,.3,0,.47.01.12.08.27.3.26l-10.2,14.69-14.93,20.04-1.87-2.19,8.03-10.61c2.28-3.01,4.4-5.81,6.5-8.97,3.5-5.25,6.91-10.39,10-15.91.25.18.39.17.42.17Z"/>
          <path class="cls-54" d="M32.82,254.31l1.86-2.75,2.36,2.81c.7-1.21,1.75-2.01,2.74-3.03l4.92-5.04,8.23-7.55,4.97-4.37.13-7.49c1.59-1.72,3.02-3.26,5.05-4.55l-2.2,11.94-12.36,10.78-4.77,4.25c-1.95,1.74-3.67,3.52-5.86,4.94-2.46,1.6-4.24,4.62-6.27,7.1s-3.87,4.74-5.28,7.71c-.08-2.37,1.19-3.95,1.89-5.92,1.16-3.24,2.71-6.05,4.58-8.81Z"/>
          <path class="cls-80" d="M128.05,193.26c.46.53.69,1.26,1.06,2.14l3.41,8.01c.12.29-.31.94-.48,1.15l-4.13,4.86-9.27-12.36c1.01-1.7,2.06-3.01,3.33-4.43l3.73,3.52,2.35-2.87Z"/>
          <path class="cls-35" d="M105,195.56c-.3-1.35-.51-2.5-1.63-2.99l-6.55-2.89.36-8.15.42-5.14,3.47,5.03,7.43,10.77-1.56,12.03-1.94-8.66Z"/>
          <path class="cls-97" d="M37.21,253.49c-.84-.84-1.41-1.58-1.89-2.46l5.06-5.83,16.41-17.51.18,6.53-5.86,5.44c-4.8,4.46-9.55,8.69-13.9,13.83Z"/>
          <polygon class="cls-15" points="113.76 253.19 108.2 247.58 96.19 236.39 93.94 234.08 94.23 227.84 106.25 240.72 115.78 250.92 113.76 253.19"/>
          <path class="cls-55" d="M92,204.55l-.28,16.89c0,.41-.11.65-.46.74l-2.54-2.4c-1.14-1.07-2.24-1.94-3.73-2.41-.04-4.16.04-8.12.64-12.12l2.22-2.91c1.57.56,2.79,1.32,4.16,2.21Z"/>
          <path class="cls-110" d="M49.35,191.48c-1.74.14-3.22,1.57-3.02,3.8l-2.15,9.24-1.58-12.02c3.76-5.27,7.25-10.55,10.85-16.14.53,1.72.32,3.16.3,4.71.31,2.86.39,5.58.4,8.46l-4.79,1.94Z"/>
          <path class="cls-127" d="M68.41,91.55l-.43,8.03c-.08,1.5-.41,3.64-1.61,4.17-1.57,1.21-2.3,3.47-3.63,5.11-.31,2.65-.48,5.08-.39,7.77-.3,3.06-.31,6.07-.23,9.13.04,1.41-.45,2.17-1.32,2.94l-1.78,1.58c-.99.88-.57,2.44-.46,3.64.34,3.67.42,7.2,1.41,10.67,1.23.62,2.47,1.2,3.33,2.48-.24.4-.02.73.18.72l.22,3.89.22,8.9.3,5.04c.07,1.16.31,2.59.34,3.67l.6,23.05c-.73-1.07-.67-2.34-.75-3.84l-.75-13.86c-.06-1.16-.77-2.08-.8-3.44l-.22-9.83-.12-13.93-3.16-2.54c-.88-.71-.7-2.82-.83-4.09l-1.08-10.51c1.34-1.15,2.56-2.08,3.57-3.45l1.14-18.45c1.39-2.39,3.52-4.64,4.34-7.46l.48-16.2c.05-.07.23-.03.25.09l.16,4.32c.48-.02.47.71.24.94.8.46.2.89.29,1.04s.28.37.49.41Z"/>
          <path class="cls-99" d="M102.07,195l2.64,12.62,2.36,10.08c.9,2.53,2.41,4.63,3.68,6.86l7.87,13.72,2.17,3.57c.39.64.85,1.14.73,2.02l-2.16,2.38c-1.35-3.8-3.23-7.05-5.11-10.59l-8.16-15.42c-1.96-3.7-2.41-8.38-3.01-12.67l-1.3-9.41c-.15-1.1-.23-2.15-.14-3.26.11.09.27.15.42.11Z"/>
          <path class="cls-22" d="M50.35,177.42c-.23,0-.29-.14-.3-.26-.02-.18-.03-.34,0-.47.05-.27.04-.49-.12-.71-.19-.26-.38-.42-.71-.38.04-.22-.12-.36-.29-.31-.02-.28-.37-.72-.62-.66-.6-1.26,1.52-2.41,1.35-3.86l.73-.78c.34-.36.97,0,1.31.21.08.18.04.35.13.71,2.15-.08,4.25-.34,6.28-1.32l-.09-19.73c-1.21-2.27-1.37-4.99-1.96-7.37-.26-1.06-.09-1.92-.06-3.23.02-.71-.65-2.01.07-2.63l1.42,9.14c.28,1.78,2.12,2.58,3.15,3.78l.12,22.29c-2.78.8-5.47.98-7.85,2.44-1.08.66-1.87,2.15-2.56,3.13Z"/>
          <path class="cls-59" d="M70.8,217.06c-.57.84-.32,1.7-.22,2.69l.66,6.44,1.15,16.59.57,10.52.35,9.18c.02.42-.08.69-.48.71l-.98-8.55-2.1-27.08-.62-7.52c-.42,1.03-.22,1.75-.3,2.74-.09-.83-.16-1.04-.52-1.2.09-4.6,0-9.2-.36-13.97l-.6-1.39c.15.08.26.06.34-.02.16-.16.17-.44.16-.71l-.39-7.9,2.27,3.59.11,13.82c0,.87.59,1.55.96,2.07Z"/>
          <path class="cls-121" d="M134.85,206.52c-.38.19-.51.58-.57.88-.08.43.22.78.38,1.12l4.23,8.97c.44.94.64,1.98,1.1,2.96l1.93,4.06.95,3.03,1.86,4.78c-.51-.08-.78-.4-1.16-.27l-9.15-13.31c.14-.39.44-1.16.31-1.57l-4.78-8.46,3.9-4.31c.52.51.68,1.43.98,2.12Z"/>
          <path class="cls-112" d="M115.24,168.14c-1.18.39,1.08,2.52,1.72,3.92l5.85,12.77,3.83,7.75c.23,0,.46,0,.58.3l-1.49,1.9c-1.19-1.11-2.71-1.7-3.34-3.18-3.02-7.11-6.09-13.81-9.94-20.33l.14-5.2c.56-.19.78.25,1.17.63l1.49,1.45Z"/>
          <path class="cls-122" d="M65.16,192.36l-.6-23.05c1.36.85,3.11,1.15,3.17,2.27l.83,16.26c.06,1.16.61,2.12,1.2,2.82l-.05,8.42-4.55-6.72Z"/>
          <path class="cls-68" d="M98.66,241.91c-.08-.5-.11-.95-.03-1.33l-4.68-4.63c-.21-.21-.11-.8-.08-.93l11.5,10.81,8.48,8.18,2.24-2.64,3.32,4.31c1.29,1.67,2.4,3.38,3.07,5.5l2.89,9.16c-3.86-6.51-8.36-11.83-13.71-16.68l-12.99-11.76Z"/>
          <path class="cls-42" d="M85.81,192.06l-4.81,6.8c.12-2.66-.5-5.54.16-7.87.52-1.43,1.26-2.3,1.35-4.18l.73-15.27c.45-1.1,1.95-1.45,2.73-1.86l-.41,21.52c0,.5,0,.63.25.87Z"/>
          <path class="cls-73" d="M60.36,203.69c.95,5.76.61,11.4,1.18,16.82l-3.36,3.3-3.54-4.94,3.47-13.38c.3-1.14,1.52-1.58,2.25-1.8Z"/>
          <path class="cls-55" d="M61.54,220.51c-.56-5.42-.23-11.06-1.18-16.82l2.07-1.13c1.01-.55,1.72-.08,2.27.87.92,1.61,1.6,3.14,1.63,5.12l.13,8.74c-1.92.79-3.51,1.84-4.91,3.22Z"/>
          <path class="cls-71" d="M55.67,133.51l-5.91,3.54c-1.19.75-1.47,3.11-2.06,4.63l-8.54,22.29c-.44.32-.54,1.07-.88,1.44-1.57,1.7-3.12,3.5-4.94,5.04-1.07.9-1.83,1.87-2.42,3.28l-7.74,18.56-5.21,12.22-.58-.83,13.33-32.16,7.33-7.06,10.28-27.1c.33-.87,1.02-1.38,1.68-1.79l5.32-3.36c.47-.13.29.91.34,1.31Z"/>
          <path class="cls-129" d="M143.58,232.05c.38-.14.65.19,1.16.27l-1.86-4.78-.95-3.03-1.93-4.06c-.47-.98-.66-2.02-1.1-2.96l-4.23-8.97c-.16-.33-.46-.69-.38-1.12.06-.3.19-.69.57-.88l2.89,6.8c3.52,8.27,6.87,16.26,9.8,25.28l-6.18-5.82-14.81-20.21c.45-.66.81-1.17,1.42-1.54l5.26,7.29,10.54,15.3,2.26,2.72c-.59-1.7-1.53-2.96-2.44-4.28Z"/>
          <path class="cls-40" d="M132.05,204.56c.18-.21.61-.86.48-1.15l-3.41-8.01c-.37-.88-.6-1.61-1.06-2.14l-.26-.96-8.48-19.7c-.9-2.1-2.67-3.12-4.07-4.47l-1.49-1.45c-.38-.37-.61-.82-1.17-.63.02-.69.07-1.3-.44-1.72-1.3-1.08-1.66-3.09-2.31-4.86l-4.36-11.76-3.77-10.47c-1.94-1.98-4.64-2.67-6.39-4.35v-.81c-.01-.11.22-.23.42.04,2.09,1.61,4.88,2.48,6.66,4.6l4.57,12.3,5.77,15.22,5.86,5.54c1.14,1.07,1.56,2.35,2.23,3.9l12.55,29.21c-.24.62-.71,1.31-1.32,1.65Z"/>
          <path class="cls-2" d="M75.97,46.75c-.46.02-.47.27-.46.66l.1,3.13c-.52-.2-.86,0-1.3.54-1.55,1.88-3.27,3.88-3.88,6.55-.83,3.66-.83,7.33-1,11.08l-1.06,22.52c.03.09.04.21.04.32-.21-.03-.4-.25-.49-.41s.51-.58-.29-1.04c.23-.23.24-.96-.24-.94l-.16-4.32c-.02-.12-.2-.16-.25-.09l.66-15.83c.22-5.17.55-11.48,2.68-15.46,1.44-2.68,2.93-5.2,4.95-7.53.25-.08.52.6.7.82Z"/>
          <path class="cls-6" d="M62.16,190.69l-3.45.63c-2.92.56-5.85,1.47-8.55,2.93-.34.18-1.07.45-1.2,1.07l-1.8,8.47-.68,4.04-1.17,5.59c-.41,1.99-.78,3.98-1.79,5.72l-5.48,9.45-8.72,15.07c-.16-.18-.45-.43-.47-.7-.02-.25.1-.55.29-.88l14.27-24.99,5.03-22.91c1.83-1.49,3.75-2.39,5.82-3.04l7.81-2.46c.27.93.07,1.5.08,2.02Z"/>
          <path class="cls-19" d="M88.23,103.81c.28-.06.51.35.9.07-.48-4.05-.36-7.76-.49-11.65l-.48-14.26-.37-8.81-.34-6.66-.3-6.02c-.18-3.64-.29-7.3-1.22-10.8l-3.02-11.37-6.83-23.48c.21-.39,0-.75-.35-.74.17-.41.05-1.1.34-1.34l5.85,19.96,5.25,19.09c.92,3.35.73,6.85.87,10.28l1.01,24.96.56,14.93c.1,2.77.07,5.37.32,8.2-.9-.61-1.16-1.76-1.7-2.37Z"/>
          <path class="cls-92" d="M82.83,218.71c-1.75-.59-.93-2.85-1.9-3.7l.06-14.39,5.58-7.77.07,8.23c-1.49.61-1.96,1.97-2.64,3.32-.57,3-.44,6.08-.72,9.25l-.45,5.08Z"/>
          <path class="cls-131" d="M112.3,189.19l.73,1.14.21.57c.05.15.33-.01.44.01.18,1.35,4.83,7.08,6.89,9.79l6.95,9.12-1.47,2.07c-5.77-7.41-11.58-14.56-16.71-22.08.59.36.99.4,1.76-.06l.45-.56c.13-.16.51-.04.75-.01Z"/>
          <path class="cls-16" d="M125.53,248.74c-.18.39-.05.57.08.94l2.54,7.17c.65,1.84.41,3.86.41,6.01l-.3.78c-.08.2,0,.5.33.52-.21,1.32-.86,2.56-1.46,3.71-.84-.39-.71-1.39-.89-2.34l-1.13-5.8c.2.07.31-.08.31-.2v-.92c-.05-.18-.41-.62-.26-.75l.66-.58c-1.18-.25-1.03-.94-1.47-1.56.19-.02.49-.37.38-.74-.79-2.85-2.31-5.48-3.86-7.85.23-.31.42-.75.39-1.02.23-.74,1.08-1.6,1.79-2.09l2.46,4.7Z"/>
          <path class="cls-86" d="M60.05,112.27l-.49,10.49c-.05,1.03.14,2.47-.41,3.35-.49.8-1.57,1.2-2.2,1.67-.02-.3-.28-.35-.49-.35l-3.02-10.04,5.23-4.46c.46-.39.85-.77,1.39-.66Z"/>
          <path class="cls-105" d="M93.67,127.12c-1.52-.94-2.18-.98-2.27-3.72l-.23-7.4.12-4.23c2.24,1.66,4.26,3.07,6.21,5.16l-2.83,8.11c-.29.83-.39,1.59-1.01,2.07Z"/>
          <path class="cls-102" d="M75.83,248.56v-25.48s4.6-6.09,4.6-6.09l-.13,3.63-1.05,7.26-1.52,7.59c-.36,1.79-.88,3.41-1.39,5.22l-.31,7.76c0,.13-.13.17-.21.11Z"/>
          <path class="cls-1" d="M25.09,263.12c-.14-.02-.28-.36-.43-.34-.11.01-.16.55-.2.66l-.95,3.19-.61-2.11c.22-.02.31-.42.08-.69l.2-6.12c.07-2.06,1.32-3.73,2.19-5.43l3.79-7.21,2.39,2.81-5.33,9.47c-.92,1.63-.65,4-1.13,5.77Z"/>
          <path class="cls-96" d="M62.42,104.48l-.87,1.36.22-12.61.26-5.78.26-10.86.28-7.81c.22-5.98.12-17.69,1.2-21.46l8.81-30.85c.09-.32.14-.58.44-.54l-8.1,29.38c-.9,3.25-1.2,6.27-1.09,9.58.04,1.4-.19,2.68-.24,4.08l-.86,24.05-.27,11.55-.04,9.89Z"/>
          <path class="cls-104" d="M121.53,243.86c.11-.88-.35-1.38-.73-2.02l-2.17-3.57-7.87-13.72c-1.28-2.23-2.79-4.32-3.68-6.86l-2.36-10.08-2.64-12.62c.18-.05.33-.22.59-.41l5.31,23.08,4.31,7.47,9.53,16.85c.24.42.58.61.38,1.22-.1.3-.44.41-.66.65Z"/>
          <path class="cls-17" d="M72.83,263.19l.75,7.08c.15,1.42.29,2.79-.27,3.96l-2.41-22.19-2.05-21.1c-.32-3.27-.59-6.27-.52-9.36.35.15.43.37.52,1.2.08-.99-.12-1.71.3-2.74l.62,7.52,2.1,27.08.98,8.55Z"/>
          <path class="cls-76" d="M91.26,222.17c.36-.09.46-.33.46-.74l.28-16.89c.74.48.85,1.89,1.12,2.94l2.94,11.26-3.54,4.8-1.26-1.39Z"/>
          <path class="cls-69" d="M127.79,192.31c-.28-.06-.46.19-.43.38.01.08.03.17-.15.19-.12-.29-.34-.3-.58-.3l-3.83-7.75-5.85-12.77c-.64-1.4-2.9-3.53-1.72-3.92,1.4,1.35,3.17,2.37,4.07,4.47l8.48,19.7Z"/>
          <path class="cls-114" d="M125.12,259.74l1.13,5.8c.18.95.05,1.95.89,2.34-.36.68-.41,1.43-.72,2.6l-2.26-8.54c-.75-2.84-2.16-5.05-3.88-7.27l-3.21-4.15,2.05-2.09,3.19,4.9c1.27,1.95,2.37,4.09,2.82,6.41Z"/>
          <path class="cls-45" d="M95.18,182.24c-2.18-.62-3.78-1.54-6.09-1.78-.22-1.25-.41-2.91.04-4.43.24-.79,1.78-1.44,2.43-1.36,1.4.17,2.55.76,3.97.77.38,2.33.06,4.58-.36,6.8Z"/>
          <path class="cls-28" d="M26.8,264.57c-.22-.38-.06-.76-.43-1.1-.25,1.08-.85.14-1.01.51l1.19-6.23c.69-1.94,1.8-3.52,2.79-5.22.88-1.53,1.55-3.23,2.78-4.29l1.96,2.35-4.67,6.33-2.61,7.66Z"/>
          <path class="cls-32" d="M62.16,190.69l.07,10.45-2.71,1.64c-.05-.26-.36.06-.57-.28-.07-3.9.13-7.57-.24-11.18l3.45-.63Z"/>
          <path class="cls-117" d="M17.69,205.82l-.61,1.71-5.57,13.05c-2.31,5.41-4.41,10.81-7.09,15.99-.17.32-.37.52-.61.38,2.6-7.26,5.55-14.35,8.63-21.62l4.45-10.5c.39.23.56.75.8,1Z"/>
          <path class="cls-130" d="M59.84,180.81l-4.26,1.23-.1-6.72,2.58-.28,3.66,1.14.07,4.22c-.67.39-1.36.24-1.96.41Z"/>
          <path class="cls-103" d="M93.07,228.17l.02,5.72.77,1.14c-.03.13-.13.73.08.93l4.68,4.63c-.08.38-.04.82.03,1.33l-8.76-7.93-1.1-6.48c1.53-.18,2.9,1.06,4.27.67Z"/>
          <path class="cls-48" d="M92.48,191.29c0,.12-.04.24-.31.46l-.1,10.73-.55.45-2.6-1.73.06-10.66,3.51.75Z"/>
          <path class="cls-18" d="M61.94,186.82c-2.18.46-3.94.93-5.82,1.77l-.34-5.8c.67.06,1.18-.46,1.72-.62l4.26-1.28.18,5.93Z"/>
          <path class="cls-4" d="M67.46,197.59l.39,7.9c.02.27,0,.55-.16.71-.08.08-.2.1-.34.02-.48-2.01-1.26-4.02-3.04-5.32l.08-7.72,3.06,4.41Z"/>
          <path class="cls-85" d="M93.67,127.12c.62-.48.72-1.24,1.01-2.07l2.83-8.11c-1.96-2.09-3.98-3.5-6.21-5.16l-.12,4.23c0-2.07-.37-3.95-.44-6.27l7.47,6.15c.59.49.26,1.25.09,1.77l-3.37,10.24-1.25-.78Z"/>
          <path class="cls-93" d="M29.16,245.08l-3.79,7.21c-.87,1.7-2.12,3.37-2.19,5.43l-.2,6.12c.24.27.15.67-.08.69-.97-3.39-1.11-6.77.2-10.21,1.43-3.76,3.23-7.14,5.1-10.64.63.36.69,1.1.95,1.41Z"/>
          <path class="cls-53" d="M60.05,112.27c-.54-.11-.93.27-1.39.66l-5.23,4.46,3.02,10.04c.21,0,.47.05.49.35-.27.2-.74.34-1.08.41l-2.99-9.5c-.42-1.35-.32-2.2.67-3.01l6.49-5.34c.17.81.03,1.36,0,1.94Z"/>
          <path class="cls-98" d="M102.67,194.59c-.26.19-.41.36-.59.41-.15.04-.31-.02-.42-.11-1.01-.9-2.33-1.32-3.64-1.76l-5.53-1.84-3.51-.75c0-.55-.2-1.06.05-1.83l8.81,3c1.75.6,3.43,1.33,4.83,2.88Z"/>
          <polygon class="cls-24" points="91.77 187.65 91.84 181.76 95.05 183.04 95.01 188.91 91.77 187.65"/>
          <polygon class="cls-126" points="91.84 181.76 91.77 187.65 88.88 186.61 89.05 180.76 91.84 181.76"/>
          <path class="cls-129" d="M129.97,208.72l4.78,8.46c.13.42-.18,1.18-.31,1.57l-5.94-8.47,1.48-1.56Z"/>
          <path class="cls-101" d="M93.07,228.17c-1.37.39-2.74-.85-4.27-.67-.29-1.74-.74-3.43-.79-5.37l4.5,3.99c.63.56.56,1.35.56,2.05Z"/>
          <path class="cls-39" d="M25.09,263.12c-.06.22-.13.73.28.84.15-.37.76.58,1.01-.51.36.34.21.72.43,1.1l-1.85,6.77-1.44-4.7.95-3.19c.03-.11.08-.65.2-.66.14-.02.29.32.43.34Z"/>
          <path class="cls-1" d="M124.35,255.74l-1.22-1.71-3.68-5.99c.53-.63,1.06-1.47,1.83-1.91.02.27-.17.71-.39,1.02,1.55,2.37,3.07,5,3.86,7.85.1.37-.2.72-.38.74Z"/>
          <path class="cls-23" d="M65.2,168.54c-.83-1.37-.58-3.32-.65-4.98l-.31-7.72-.45-6.91.7-.09.85,17.85c.03.66.24,1.33-.14,1.85Z"/>
          <path class="cls-125" d="M86.18,167.5c-.33-.04-.33-.29-.32-.66l.18-5.88.26-5.56.31-5.29c.05-.92.19-1.97.65-2.65.13.65-.07,1.2-.11,1.89l-.26,4.04-.28,6.19-.3,4.93c-.06,1.03-.14,2.05-.11,2.98Z"/>
          <path class="cls-20" d="M128.59,264.17c-.33-.02-.4-.32-.33-.52l.3-.78c0-2.14.24-4.17-.41-6.01l-2.54-7.17c-.13-.37-.27-.55-.08-.94l2.47,5.24c1.09,2.31,1.4,5.03,1,7.57l-.41,2.61Z"/>
          <path class="cls-95" d="M73.02,15.95c.2-.72.15-1.5.45-2.47l.91-3.01c.35-.02.41.37.22.56l-1.22,4.3c-.08.28-.13.57-.36.62Z"/>
          <path class="cls-26" d="M3.93,238.06c-.11.09-.62-.03-.56-.16l.27-.55c.13-.04.27.09.27.2l.02.51Z"/>
          <path class="cls-65" d="M81.82,102l4.23,11.3c1.11,4.11.22,8.86.68,13.12.17,1.58-.18,2.94-.52,4.2-.02-.14.14-.53-.18-.87-1.21,3.58-2.46,7.16-4.09,10.66-.41.88-1.13,1.43-1.85,1.43l-10.45-.09c-1.38-2.35-2.25-4.76-3.17-7.22l-1.26-3.38c-.26-.7-.84-1.7-.84-2.64l.07-15.85,6-16.04c1.38-1.29,3.68-1.52,5.33-1.42,5.08.31,4.44,2.48,6.06,6.81ZM71.67,117.48l8.04.44c.37-5.31-.02-10.28-.09-15.54-.02-1.27-.39-2.5-1.49-2.53l-3.12-1.3c-1.36-.64-2.68,0-3.48,1.55-.05,5.93-.25,11.77.13,17.38ZM66.04,126.76c1.6-2.86,2.93-5.48,4.75-8.06l-.03-17.96-4.78,11.8.06,14.23ZM85.02,126.78v-12.87s-4.55-10.71-4.55-10.71l-.06,16.23c2.24,2.37,2.98,5.28,4.61,7.35ZM66.97,130.86c.6,2.3,1.43,4.5,2.53,6.4-.03.72.33,1.15.56,1.65.33.7,1.04.68,1.77.65l7.73-.24c1.06-.03,3.72-7.08,4.55-10.17l.2-.3c.11-.17.02-.44-.12-.71l-1.22-2.32c-1.26-2.4-2.29-5.72-4.25-5.6-2.41.15-5.26-.51-7.8.53-1.9,1.49-2.9,4.67-4.09,6.91-.52.98-.09,2.32.14,3.2Z"/>
          <path class="cls-65" d="M75.61,50.54c5.19,4.99,5.01,7.97,5.41,15.21l.69,12.43.51,12.35c0,.19-.28.52-.25.65-.94.95-2.26-1.98-5.79-3.67-.29-.14-.69-.67-1.21-.46-2.81,1.15-4.4,3.17-6.61,4.18l1.06-22.52c.18-3.74.17-7.42,1-11.08.61-2.67,2.33-4.67,3.88-6.55.44-.53.78-.74,1.3-.54ZM71.23,60.91c-.52,5.06-.91,10.09-1,15.25l-.16,8.75-.26.76.12,2.63c2.01-2,4.55-4.07,6.67-2.81,1.49.89,2.76,1.85,4.16,3.14-.29-10.12-.65-19.76-1.61-29.49-.18-1.82-1.42-3.44-2.31-4.59-.31-.4-.53-.74-.94-1.07-.17-.13-.32-.52-.51-.61-.38-.16-3.64,3.02-4.16,8.05Z"/>
          <path class="cls-89" d="M81.97,91.19c.12-.12.25-.11.34-.03.15.13.1.53.1.69l.35,6.47.5,3.35c.03.2-.05.33-.15.37-.2.06-.54-.08-.75-.5-.07-.03-.33.44-.55.47-1.62-4.33-.98-6.5-6.06-6.81l.07-5.93c0-.38-.37-.87-.22-1.24.09-.22.34-.26.58-.51,3.53,1.7,4.84,4.62,5.79,3.67Z"/>
          <path class="cls-7" d="M86.2,130.63c.41.32.96.89,1.41,1.13-.78.53-1.02,1.49-1.3,2.37l-1.32,4.24c-.83-.45.49-1.49,0-2.71-1.15,1.25-1.34,2.89-2.02,4.32l-1.09,2.3c-.46-.22-.83.25-1.12.46l-7.76.15c-1.48.03-2.53.04-3.84-.59-1.06-.51-1.43-1.88-1.94-3.26l-2.36-6.41c-.12-.33-.16-.81-.07-1.04.05-.15.19-.33.4-.42l1.26,3.38c.92,2.47,1.79,4.87,3.17,7.22l10.45.09c.71,0,1.43-.55,1.85-1.43,1.64-3.5,2.88-7.08,4.09-10.66.32.34.17.73.18.87Z"/>
          <path class="cls-10" d="M80.86,152.11l-.21,10.2c0,.46-.75.77-1.07.77l-8.61-.02-.91-.1c-.17-3.39-.38-6.8-.12-10.3.04-.59.84-.83,1.19-.88,3.06-.39,6.52-.34,9.73.31ZM72.13,152.72c-.31,0-.63.09-1.37.16l.14,9.25h8.98s-.04-8.92-.04-8.92c0-.51-.71-.46-1.04-.46-.82-.21-1.57-.04-2.28-.31-1.71-.65-2.96.31-4.39.27Z"/>
          <path class="cls-90" d="M85,138.36l-1.27,5c-.18.72-1.03,1.78-1.61,1.99-.69.26-1.53.1-2.26.08-.25-.79,1.05-.66,1.17-1.83.03-.28-.15-.55-.24-.88.28-.21.66-.68,1.12-.46l1.09-2.3c.68-1.43.87-3.07,2.02-4.32.48,1.22-.84,2.27,0,2.71Z"/>
          <path class="cls-123" d="M79.86,145.44c.73.02,1.58.18,2.26-.08l-1.09.76c-.57.28-1.24-.25-1.73-.24l-7.35.06c-.76,0-1.55.46-2.43.07,1.14-.66,2.43-.4,3.57-.68s2.1-.32,3.16,0c1.15.34,2.43.1,3.6.13Z"/>
          <path class="cls-25" d="M61.49,132.58l-1.58,1.81c-.22,1.02-.07,2.45.02,3.44l.19,2.23c.09,1.06.51,2.08.09,3.06l-.58-4.23-.18-4.36c-.05-.85,1.32-1.9,2.04-1.95Z"/>
          <path class="cls-136" d="M65.54,138.32c.89.4.74,5.18,2.86,6.93-.43.34-.15.76.28.63-.12.34-.55.4-.84.12-.19-.18-.12-.63-.32-.9-.84-1.19-1.86-4.9-1.98-6.78Z"/>
          <path class="cls-136" d="M64.38,134.29l-1.36-2.56c-.58.55-1.04.81-1.54.85.32-.29,1.02-1.16,1.61-1.17.71.24,1.35,1.92,1.29,2.88Z"/>
          <path class="cls-136" d="M65.54,138.32c-.35-.12-1.25-3.14-1.16-4.04.59,1.12,1.07,2.7,1.16,4.04Z"/>
          <path class="cls-37" d="M62.5,144.94c.04-.3.39-.23.44,0,.03.12,0,.41-.1.48-.1.08-.38-.2-.34-.48Z"/>
          <path class="cls-109" d="M46.48,207.82l.68-4.04,1.8-8.47c.13-.61.86-.88,1.2-1.07l-1.21,8.19-1.19,10.16-.68,5.3c-.08.6-.53.84-.77.7-1.58-.91.7-6.61.98-10.85-.32-.24-.52.06-.8.08Z"/>
          <path class="cls-123" d="M92.41,134.23l-.34,3.93c-.05.62-.23,1.35-.18,1.86-1.34,1.05.12-2.06,0-5.39l-4.19-2.48c-.43.79-.7,1.4-.93,2.14l-3.04,9.08,1.27-5,1.32-4.24c.28-.88.52-1.84,1.3-2.37l4.79,2.48Z"/>
          <path class="cls-123" d="M82.12,145.36c.57-.22,1.42-1.27,1.61-1.99,0,1.09-.57,2.22-1.61,1.99Z"/>
          <path class="cls-57" d="M90.75,142.9c-.07-.78.24-1.48.41-2.2.08.07.17.2.15.18.14.75-.23,1.35-.31,2.04-.1.3-.28.06-.26-.01Z"/>
          <path class="cls-116" d="M101.32,175.7c.04.21-.27.59-.41.59-.12,0-.22-.44-.13-.48s.36-.24.32-.34c.05.05.12.03.22.23Z"/>
          <path class="cls-49" d="M92.41,134.23l-4.79-2.48c-.45-.24-1-.81-1.41-1.13.34-1.26.69-2.62.52-4.2-.45-4.26.43-9.02-.68-13.12l-4.23-11.3c.22-.03.47-.5.55-.47.2.43.55.57.75.5.1-.03.18-.17.15-.37l.51-.86c.7.66.73,1.22.94,1.96.67,2.38,1.97,4.36,3.34,6.29l.33,14.35c.06,2.45.52,4.46,2.64,5.53.62.32,1.78,1.19,1.68,2.22l-.3,3.07Z"/>
          <path class="cls-115" d="M101.62,143.24c-.31.85-3.17-.19-5.14-1.28l1.09-2.18c2.14.45,4.3,2.75,4.04,3.46ZM100.21,142.49c-.78-1.45-2.51-1.98-2.72-.68.78.46,1.78.52,2.72.68Z"/>
          <path class="cls-124" d="M54.26,142.2l-4.96,1.6c.22-2.24,1.89-3.14,3.75-3.92.5.45.64.88,1.21,2.32ZM53.34,141.8c.11-1.62-1.95-.77-3.18.89l3.18-.89Z"/>
          <path class="cls-116" d="M113.68,190.92c-.11-.03-.39.14-.44-.01l-.21-.57-.73-1.14c-.45-.71-1.1-1.44-1.2-2.34.66.38,2.39,3.28,2.58,4.07Z"/>
          <path class="cls-116" d="M111.1,186.85c-.61-.38-2.57-3.52-2.58-4.07.58.22,2.48,3.15,2.58,4.07Z"/>
          <path class="cls-116" d="M50.04,176.69c-.35-.21-.74-.63-.83-1.09.33-.04.52.12.71.38.17.23.17.44.12.71Z"/>
          <path class="cls-116" d="M48.92,175.29c-.13.04-.32.04-.44,0-.19-.05-.28-.55-.17-.67.24-.06.6.38.62.66Z"/>
          <path class="cls-50" d="M79.02,124.88c.27.16.67-.13.98-.13.08.35.36,1,.35,1.49l-.08,8.75c-.02,1.81-1.12,3.32-2.71,3.29l-6.31-.1c-1.09-.02-1.52-2.12-2.11-2.93-.41.79.38,1.49.36,2-1.1-1.9-1.93-4.1-2.53-6.4.15.05.23-.06.28-.16.09-.17.08-.37.04-.51.16-.06.45-.11.63.03.13.09.23.31.29.57.15-.08.29.02.34.12.06.12.02.45.31.66l.03-3.38c1.59-.14,2.17-1.25,2.75-2.56.94-2.14,5.32-1.91,7.36-.74Z"/>
          <path class="cls-13" d="M78.13,99.84c1.1.03,1.47,1.26,1.49,2.53.07,5.27.46,10.24.09,15.54l-8.04-.44c.59-3.91.84-7.7.72-11.62.09-.1.28-.1.31-.14l.07,5.48.17,4.12c.02.48.56.34.86.16.45-.28.09-.61.1-1.21l.04-12.16c0-1.03,1.94-.66,2.51-.92-.4-.69-2.49-.94-3.19-.12-.84.97-.56,3.1-.38,4.26.01-.49-.6-.42-.6-.31l.15-3.67c.02-.48.17-.82.4-1.05.17-.18.7-.05.99-.17,1.55-.63,2.89-.33,4.31-.29Z"/>
          <path class="cls-74" d="M66.04,126.76l-.06-14.23,4.78-11.8.03,17.96c-1.82,2.58-3.15,5.2-4.75,8.06Z"/>
          <path class="cls-36" d="M85.02,126.78c-1.63-2.06-2.37-4.98-4.61-7.35l.06-16.23,4.54,10.71v12.87Z"/>
          <path class="cls-52" d="M84.11,129.15c-.83,3.09-3.5,10.14-4.55,10.17l-7.73.24c-.73.02-1.44.04-1.77-.65-.23-.5-.59-.93-.56-1.65.02-.51-.76-1.2-.36-2,.6.81,1.02,2.92,2.11,2.93l6.31.1c1.59.02,2.69-1.49,2.71-3.29l.08-8.75c0-.5-.27-1.15-.35-1.49-.2-.88-.33-1.71-.76-2.64,1.41.27,2.29,3.37,3.25,5.35.37.5,1.51.63,1.64,1.7Z"/>
          <path class="cls-106" d="M84.11,129.15c-.12-1.06-1.26-1.2-1.64-1.7-.96-1.98-1.84-5.07-3.25-5.35.43.94.56,1.76.76,2.64-.31,0-.71.28-.98.13.06-.42.11-1.58-.21-1.87-1.69-.86-3.51-.41-5.21-.29-1.39.1-1.85.71-2.64,1.74-1.43,1.87-2.75,3.71-2.74,6.33-.06-.27-.16-.48-.29-.57-.19-.13-.48-.09-.63-.03-.12-.51-.16-1.13.23-1.71l4-6.08c1.46-.84,3.58-.46,5.13-.7l2.36-.37c-.33-.34-.34-.66-.29-1.1,1.96-.12,2.99,3.2,4.25,5.6l1.22,2.32c.14.27.23.55.12.71l-.2.3Z"/>
          <path class="cls-58" d="M78.72,120.22c-.05.44-.03.76.29,1.1l-2.36.37c-1.55.24-3.67-.14-5.13.7l-4,6.08c-.38.59-.35,1.21-.23,1.71.03.14.04.34-.04.51-.05.1-.13.22-.28.16-.23-.89-.66-2.23-.14-3.2,1.19-2.24,2.18-5.42,4.09-6.91,2.54-1.04,5.39-.38,7.8-.53Z"/>
          <path class="cls-56" d="M78.13,99.84c-1.42-.04-2.76-.33-4.31.29-.29.12-.82-.01-.99.17-.23.23-.38.57-.4,1.05l-.15,3.67c0-.11.61-.18.6.31-.16.09-.17.24-.17.38-.04.04-.22.04-.31.14.12,3.92-.14,7.71-.72,11.62-.38-5.61-.18-11.45-.13-17.38.8-1.55,2.12-2.19,3.48-1.55l3.12,1.3Z"/>
          <path class="cls-62" d="M76.84,54.54c-.27.11-.68.07-.76.25s.19.77.2,1.05l.31,29.65c-2.12-1.26-4.65.8-6.67,2.81l-.12-2.63c.15.11.32.15.59.04l.14-5.28.25-6.09.58-6.13c.22-2.37.28-4.72.93-6.88l3.14-5.52c.34-.59-.07-1.88.47-2.34.41.33.63.67.94,1.07Z"/>
          <path class="cls-132" d="M76.84,54.54c.88,1.16,2.13,2.78,2.31,4.59.96,9.73,1.31,19.36,1.61,29.49-1.41-1.29-2.67-2.25-4.16-3.14l-.31-29.65c0-.27-.27-.87-.2-1.05s.48-.14.76-.25Z"/>
          <path class="cls-119" d="M75.9,53.47c-.54.45-.14,1.74-.47,2.34l-3.14,5.52c-.14-.14-.27-.12-.35-.02-.1.14-.13.49.03.84-.24.68-.79.03-.4-.36.05-.51-.06-.76-.35-.87.51-5.03,3.77-8.21,4.16-8.05.19.08.35.47.51.61Z"/>
          <path class="cls-46" d="M72.29,61.33c-.65,2.16-.71,4.51-.93,6.88l-.58,6.13-.25,6.09-.14,5.28c-.26.11-.43.07-.59-.04l.26-.76.16-8.75c.09-5.16.48-10.19,1-15.25.29.12.4.37.35.87-.39.4.15,1.04.4.36-.16-.35-.13-.7-.03-.84.07-.1.21-.12.35.02Z"/>
          <path class="cls-120" d="M72.13,152.72l6.67.04c.33,0,1.04-.05,1.04.46l.04,8.9h-8.98s-.14-9.24-.14-9.24c.75-.07,1.06-.17,1.37-.16Z"/>
          <path class="cls-44" d="M78.8,152.76l-6.67-.04c1.43.04,2.68-.92,4.39-.27.71.27,1.46.1,2.28.31Z"/>
          <path class="cls-21" d="M100.21,142.49c-.93-.16-1.93-.22-2.72-.68.21-1.31,1.93-.77,2.72.68Z"/>
          <path class="cls-107" d="M53.34,141.8l-3.18.89c1.23-1.66,3.3-2.51,3.18-.89Z"/>
          <path class="cls-60" d="M79.02,124.88c-2.05-1.18-6.43-1.4-7.36.74-.57,1.31-1.16,2.42-2.75,2.56l-.03,3.38c-.29-.21-.25-.55-.31-.66-.05-.1-.19-.2-.34-.12-.02-2.62,1.31-4.46,2.74-6.33.78-1.03,1.25-1.64,2.64-1.74,1.7-.12,3.52-.56,5.21.29.32.28.27,1.45.21,1.87Z"/>
          <path class="cls-8" d="M72.71,105.72c0-.14,0-.29.17-.38-.18-1.16-.46-3.29.38-4.26.71-.82,2.79-.57,3.19.12-.58.26-2.51-.11-2.51.92l-.04,12.16c0,.6.36.93-.1,1.21-.29.18-.84.32-.86-.16l-.17-4.12-.07-5.48Z"/>
        </g>
      </g>
      <g id="Generative_Object-2" data-name="Generative Object">
        <g>
          <path class="cls-100" d="M68.35,96.76c-1.34,2.03-2.31,4.32-2.95,6.83-1,3.94-1.61,7.87-2.03,11.96l-.31,10.32c-.07,2.22.44,4.26.94,6.35.57,2.35,1.4,4.36,2.66,6.43.73,1.19.69,2.93.8,4.34.25,3.23,1.22,6.16,2.87,8.99h10.13c1.17-2.03,2.04-4.24,2.46-6.45.53-2.75.09-5.45,1.43-7.74,1.84-3.14,2.89-6.59,3.33-10.11.74-5.89-.05-14.36-1.28-20.53-.55-2.77-2.43-8.73-3.13-8.82-2.14-4.32-5.42-5.31-10.24-4.59-1.98.3-3.61,1.41-4.68,3.03Z"/>
          <path class="cls-75" d="M69.44,97.6c-1.45,1.93-2.01,4.26-2.69,6.66-1.47,5.15-2.01,10.75-2.19,16.28-.23,7.34-.13,13.69,5.4,18.95.11,1.49.35,2.78.85,3.98-.85.79,1.13,1.17,3.16,1.07l5.67-.28c.26-.08.29-.92.82-.83.44.07,1.13-.26,1.27.64-.03.14.4.33.71.01l.47,1.44c-.43,2.21-1.29,4.42-2.46,6.44h-10.13c-1.65-2.82-2.62-5.75-2.87-8.98-.11-1.41-.07-3.14-.8-4.34-1.26-2.07-2.09-4.07-2.66-6.43-.5-2.1-1.01-4.13-.94-6.35l.31-10.32c.42-4.09,1.03-8.02,2.03-11.96.63-2.51,1.61-4.81,2.95-6.83.59-.03.84.38,1.1.84ZM74.09,148.49c.42-.15.86.04,1.24-.17.11-.06.39-.29,0-.43l.24-.36c.17-.26-.73-1.52.28-1.46-.15-.36-.66-.58-.87-.74.21-.42-.21-.41-.28-.12-.04.16-.03.24.24.58-1.05.1-1.22.62-1.52,1.56l.65,1.13Z"/>
          <path class="cls-3" d="M83.26,98.33c.7.09,2.58,6.05,3.13,8.82,1.23,6.17,2.02,14.64,1.28,20.53-.61-.11-.21-1.13-1.09-.97l.04,1.21-.36,2.04-.72,1.93c-.55,1.47-1.25,3.83-1.96,3.9,1.59-3.04,2.59-6.36,2.8-9.97.49-8.18-.53-18.02-3.55-25.39-.69-1.68-1.59-3.49-3.09-4.45.11-.24.41-.14.6-.53,1.82.69,2.02,2.77,2.91,2.89Z"/>
          <path class="cls-47" d="M87.68,127.68c-.44,3.52-1.49,6.96-3.33,10.11-1.34,2.29-.9,4.99-1.43,7.74l-.47-1.44c-.31.32-.73.12-.71-.01-.14-.9-.84-.57-1.27-.64-.06-.26-.09-.63-.33-.67.38-1.25.44-2.62,1.01-3.76.63-.24,1.36-.82,1.32-1.5-.02-.41.42-.68.58-1.01.23.14.35.05.51-.15.1-.13.22-.32.03-.56.71-.07,1.41-2.43,1.96-3.9l.72-1.93.36-2.04-.04-1.21c.89-.16.48.85,1.09.97Z"/>
          <path class="cls-81" d="M83.26,98.33c-.89-.11-1.09-2.2-2.91-2.89-.19.4-.5.29-.6.53-2.28-1.46-5.45-1.3-8.12-.4-.87.3-1.69,1.36-2.18,2.02-.25-.46-.51-.87-1.1-.84,1.07-1.62,2.7-2.73,4.68-3.03,4.82-.72,8.1.27,10.24,4.59Z"/>
          <path class="cls-43" d="M79.75,95.98c1.5.96,2.4,2.77,3.09,4.45,3.02,7.37,4.04,17.21,3.55,25.39-.22,3.62-1.21,6.93-2.8,9.97-.23.12-.4.43-.54.71-.17.33-.61.6-.58,1.01-.46.46-1.01.88-1.32,1.5-.57,1.14-.63,2.51-1.01,3.76-.17.56-.52.91-1.11,1.47l-7.4-.06c-.35,0-.79-.46-.81-.7-.5-1.21-.74-2.5-.85-3.98-5.53-5.26-5.63-11.61-5.4-18.95.17-5.53.72-11.12,2.19-16.28.69-2.4,1.24-4.74,2.69-6.66.49-.66,1.32-1.73,2.18-2.02,2.67-.91,5.84-1.07,8.12.4ZM79.8,133.61c.31.62.69,1.14.82,1.99l.26,1.79c3.41-3.33,4.41-8.64,4.5-13.64.14-7.94-.99-16.25-3.88-23.19-1.17-2.82-3.96-4.51-6.97-4.08-2.22.32-4.11,1.3-5.06,3.47-3.27,7.46-4.07,17.26-3.96,25.78.06,4.41,1.2,8.57,4.08,11.9l.6-2.84c.2-.95.84-1.36,1.79-1.36l7.2.05.59.13ZM71.47,134.61l-.39,3.21c-.21,1.69.57,4.99,1.62,5.04,1.87.08,4.25.43,6.15-.28,1.24-1.37,1.04-6.44.68-7.07-.17-.31-.17-.66-.15-1.14h-7.8c-.06.04-.11.2-.11.25Z"/>
          <path class="cls-108" d="M75.33,147.9c-.37.12-.97.22-1.24.59l-.65-1.13c.29-.94.46-1.46,1.52-1.56-.27-.34-.28-.43-.24-.58.07-.29.49-.3.28.12.21.16.71.38.87.74-1.02-.07-.11,1.2-.28,1.46l-.24.36Z"/>
          <path class="cls-118" d="M80.47,143.43c-.53-.08-.56.75-.82.83l-5.67.28c-2.03.1-4.01-.28-3.16-1.07.02.24.46.69.81.7l7.4.06c.58-.56.93-.91,1.11-1.47.24.03.27.41.33.67Z"/>
          <path class="cls-14" d="M75.33,147.9c.39.14.12.37,0,.43-.39.21-.82.01-1.24.17.27-.37.87-.48,1.24-.59Z"/>
          <path class="cls-67" d="M81.14,139c.31-.61.86-1.03,1.32-1.5.04.67-.69,1.26-1.32,1.5Z"/>
          <path class="cls-61" d="M83.05,136.5c.14-.27.31-.59.54-.71.19.24.07.42-.03.56-.16.2-.27.29-.51.15Z"/>
          <path class="cls-70" d="M81.52,100.56c-.15.06-.27.13-.36.09-.21-.09-.14-.42-.17-.58-1,1.27-.41-.75-2.73-1.19-.07.32-.02.51.01.68-.09.02-.19.02-.28.01-1.05-1.35-5.02-.25-5.85,1.59-2.16,4.78-1.57,18.79-1.19,25.37.11,1.93,1.4,3.25,3.12,3.5,2.27.33,5,.24,6.15-1.43.37-.54.69-1.14,1.35-1.14.06.38-.2.77-.35,1.22l.77.29c-.28,1.83-1.38,3.26-3.01,3.97-.21-.22-.32-.51-.43-.54s-.27.4-.38.42c-.26.06-.47-.09-.59-.13s-.44.2-.37.46h1.95c.15,0,.4-.01.45.09l.19.39-.59-.13-7.2-.05c-.95,0-1.59.4-1.79,1.36l-.6,2.84c-2.88-3.34-4.02-7.49-4.08-11.9-.12-8.52.69-18.32,3.96-25.78.95-2.16,2.84-3.15,5.06-3.47,3.01-.43,5.79,1.26,6.97,4.08ZM68.43,120.74c.51.22.53-.23.49-.32s-.25-.18-.35-.13c-.08.05-.09.28-.48.22-.35.26,0,.73.35.23Z"/>
          <path class="cls-111" d="M81.52,100.56c2.89,6.94,4.02,15.25,3.88,23.19-.09,5-1.1,10.31-4.5,13.64l-.26-1.79c-.13-.86-.51-1.37-.82-1.99l-.19-.39c-.05-.1-.3-.08-.45-.08h-1.95c-.07-.27.25-.51.37-.46s.32.19.59.13c.11-.03.27-.45.38-.42s.23.32.43.54c1.62-.71,2.72-2.14,3.01-3.97l-.77-.29c.15-.45.41-.84.35-1.22-.04-.25.25-.65.32-.92l.37-5.42c.47.23.58-.29.32-.33-.82-.47-.19-1.29-.16-1.82.32-5.34-.06-10.6-1.1-15.99-.26-.13-.52.04-.73.03-.3-1.41-1.21-2.6-2.31-3.45-.03-.18-.08-.37-.01-.68,2.32.44,1.72,2.46,2.73,1.19.03.16-.04.49.17.58.09.04.22-.03.36-.09Z"/>
          <path class="cls-82" d="M79.52,135.51c.35.63.55,5.7-.68,7.07-1.89.71-4.28.36-6.15.28-1.05-.05-1.82-3.34-1.62-5.04l.39-3.21h7.37s.37.52.37.52c-.26.29.07.62.32.38Z"/>
          <path class="cls-135" d="M79.52,135.51c-.25.24-.58-.09-.32-.38l-.37-.52h-7.37s.05-.21.11-.24h7.8c-.02.47-.02.82.15,1.13Z"/>
          <path class="cls-77" d="M77.98,99.57c.16.48-.51.54-.69.75-.49.58-.28,1.42-.29,1.97-.04,2.36-.01,4.68.26,7.14l1.41.76c.61.33,1.72-.05,1.75-.8l.1-2.88.4.02c.23.01.35-.21.28-.54l-.64-2.99c.21,0,.47-.17.73-.03,1.05,5.39,1.42,10.65,1.1,15.99-.03.52-.66,1.34.16,1.82.26.04.15.56-.32.33l-.37,5.42c-.07.27-.35.67-.32.92-.66,0-.97.59-1.35,1.14-1.15,1.67-3.88,1.76-6.15,1.43-1.72-.25-3.01-1.57-3.12-3.5-.38-6.58-.98-20.58,1.19-25.37.83-1.83,4.8-2.93,5.85-1.59ZM80.96,125.9l.15-4.87-.07-7.14c0-.52-.4-1-.72-.89-1.39.5-.97,1.68-.84,3.95l.44,7.6.23-.19c-.03-.16-.15-.42.05-.6l.27.02c.21.6-.29,1.41.47,2.11Z"/>
          <path class="cls-87" d="M80.58,103.01l.64,2.99c.07.33-.05.55-.28.54l-.4-.02c.01-.31.06-.83-.09-1.15l-.97-2.18c-.42.09-.37.63-.3.87-.34.41-1.1.39-1.82.17-.19-1.05.07-1.95-.33-1.95,0-.55-.2-1.38.29-1.97.18-.21.84-.27.69-.75.09,0,.19.01.28-.01,1.11.85,2.01,2.05,2.31,3.45Z"/>
          <path class="cls-29" d="M68.43,120.74c-.35.5-.69.04-.35-.23.39.06.4-.18.48-.22.1-.06.32.04.35.13s.01.54-.49.32Z"/>
          <path class="cls-94" d="M80.53,106.52l-.1,2.88c-.03.75-1.14,1.13-1.75.8l-1.41-.76c-.28-2.46-.3-4.78-.26-7.14.4,0,.15.9.33,1.95.72.21,1.49.24,1.82-.17-.07-.25-.11-.79.3-.87l.97,2.18c.14.32.1.84.09,1.15Z"/>
          <path class="cls-91" d="M80.96,125.9c-.77-.7-.26-1.51-.47-2.11l-.27-.02c-.2.18-.08.44-.05.6l-.23.19-.44-7.6c-.13-2.27-.55-3.46.84-3.95.32-.11.71.36.72.89l.07,7.14-.15,4.87Z"/>
        </g>
      </g>
    </g>
  </g>
</svg>