<?xml version="1.0" encoding="UTF-8"?>
<svg id="Layer_2" data-name="Layer 2" xmlns="http://www.w3.org/2000/svg" viewBox="0 0 104.38 130.62">
  <g id="Layer_1-2" data-name="Layer 1">
    <path d="M104.19,62.49c.11-9.65-.08-19.11-1.19-28.66-.27-2.29-.64-4.4-1.19-6.58-.74-2.95-2.93-5.82-5.76-6.88l-3.73-1.4c-.21-1.41-1.05-2.44-2.07-3.47-2.1-2.13-4.4-3.96-6.83-5.65l-3.2-2.22C70.58.96,58.92-.61,47.11.19c-7.51.51-13.69,1.8-20.18,5.49-2.42,1.38-4.53,2.97-6.74,4.62-2.48,1.85-4.83,3.7-6.91,6.03-.98,1.1-1.54,2.44-1.96,3.84-1.93.81-3.77,1.5-5.52,2.61-3.53,2.24-4.87,8.15-4.57,12.35.55,7.76,1.44,15.4,2.52,23.09-1.29,1.29-3.7,3.61-3.7,4.97L0,76.85c0,2.5.18,4.75.57,7.18,1.08,6.65,2.2,13.22,4.02,19.7l1.28,4.56c.38,1.34.74,2.71,1.54,3.87,1.53,2.23,3.56,3.99,5.69,5.64l4.15,3.24c.69.53,1.39.91,2.22,1.08,1.15.24,2.28.5,3.43.65v.26h2.93c5.13,4.41,11.49,6.41,18.1,7.13,6.78.74,13.59.55,20.37-.45,7.3-1.08,13.88-3.14,19.46-8.08l2.86-3.01c.44.04.9.04,1.35-.06,1.83-.42,5.04-1.07,6.16-2.08l7.16-6.45,2.01-2.67c.39-.52.83-1.31.85-1.95l.22-8.41v-24.82s-.18-9.69-.18-9.69Z"/>
  </g>
</svg>