<?xml version="1.0" encoding="UTF-8"?>
<svg id="Layer_2" data-name="Layer 2" xmlns="http://www.w3.org/2000/svg" viewBox="0 0 55.09 80.11">
  <defs>
    <style>
      .cls-1 {
        fill: #f0461d;
      }

      .cls-2 {
        fill: #c72d0e;
      }

      .cls-3 {
        fill: #195566;
      }

      .cls-4 {
        fill: #104152;
      }

      .cls-5 {
        fill: #f99c0b;
      }

      .cls-6 {
        fill: #081421;
      }

      .cls-7 {
        fill: #2b6272;
      }

      .cls-8 {
        fill: #de7200;
      }

      .cls-9 {
        fill: #fcce09;
      }

      .cls-10 {
        fill: #f86437;
      }

      .cls-11 {
        fill: #fef110;
      }

      .cls-12 {
        fill: #ee451c;
      }

      .cls-13 {
        fill: #000206;
      }

      .cls-14 {
        fill: #febd2b;
      }

      .cls-15 {
        fill: #104253;
      }

      .cls-16 {
        fill: #f76035;
      }

      .cls-17 {
        fill: #fde418;
      }

      .cls-18 {
        fill: #cb2d0e;
      }

      .cls-19 {
        fill: #f2461d;
      }

      .cls-20 {
        fill: #04092c;
      }

      .cls-21 {
        fill: #296070;
      }

      .cls-22 {
        fill: #f1471d;
      }

      .cls-23 {
        fill: #011f2f;
      }

      .cls-24 {
        fill: #29606f;
      }

      .cls-25 {
        fill: #48919f;
      }

      .cls-26 {
        fill: #cb2e0f;
      }

      .cls-27 {
        fill: #4e8691;
      }

      .cls-28 {
        fill: #2b6171;
      }

      .cls-29 {
        fill: #114253;
      }

      .cls-30 {
        fill: #fa9f0d;
      }

      .cls-31 {
        fill: #508893;
      }

      .cls-32 {
        fill: #194f5f;
      }

      .cls-33 {
        fill: #00040b;
      }
    </style>
  </defs>
  <g id="Layer_1-2" data-name="Layer 1">
    <g>
      <path class="cls-6" d="M27.38,80.11c-1.98,0-3.73-1.36-4.18-3.29-.03-.11-.05-.22-.08-.33l-.99-.05-3.03-.11c-1.17-.04-2.77-.63-3.53-2.19-.51-1.04-.43-2.27.07-3.32l1.51-3.15c-.77-.52-1.4-1.25-1.81-2.15-.28-.62-.5-1.25-.7-1.86l-1.15.81-4.87,3.63-2.04,1.41c-.35.25-.52.37-.66.52l-5.92-2.65.13-1.56.74-9.3c.15-1.9,1.05-3.06,1.91-3.95l3.43-3.56,4.02-4.19c.54-.83,1.31-1.3,2.07-1.51l-.03-1.45c-.12-.34-.2-.71-.21-1.09-.01-.42.05-.83.17-1.2,0-26.48,13.26-38.24,13.26-38.24l2.05-1.33,2.05,1.33s13.26,11.76,13.26,38.24c.12.38.18.78.17,1.2-.01.38-.09.75-.21,1.09l-.03,1.45c.76.21,1.54.68,2.07,1.51l4.02,4.19,3.43,3.56c.86.89,1.76,2.05,1.91,3.95l.74,9.3.13,1.56-5.92,2.65c-.14-.15-.31-.27-.66-.52l-2.04-1.41-4.87-3.63-1.15-.81c-.2.62-.42,1.24-.7,1.86-.41.9-1.04,1.62-1.81,2.15l1.51,3.15c.5,1.04.58,2.28.07,3.32-.76,1.56-2.36,2.15-3.53,2.19l-3.03.11-.99.05c-.02.11-.05.22-.08.33-.45,1.93-2.2,3.29-4.18,3.29h-.33Z"/>
      <g>
        <path class="cls-23" d="M17.25,44.34c-.11.7-.06,1.35.02,2.09,0,.03.01.05.02.08-.02-.74-.03-1.48-.03-2.24,0,.03,0,.05,0,.08Z"/>
        <path class="cls-29" d="M38.85,32.48c0-.16-.01-.3-.28-.26.01-.28-.27-.18-.2.05l-4.65.13s2.18,15.75-1.34,30.02l-.07-.2-.13.57c-.04.16-.1.55-.25.74-.13.15-.53.22-.39.58l2.07-.05c.11-.01.19,0,.21.11l.85-.1c.63-.07,1.09-.44,1.34-1.01.68-1.52,1.06-3.15,1.35-4.81l.41-2.39c.23.07.25-.21.06-.23l.34-2.65c.15.06.29-.21.02-.19l.27-3.07.23-4.89.1-5.12c.25-.02.25-.15.01-.19l.03-7.03Z"/>
        <path class="cls-24" d="M33.62,64.04l-2.07.05c-.14-.36.26-.43.39-.58.15-.18.21-.57.25-.74l.13-.57.07.2c3.52-14.27,1.34-30.02,1.34-30.02l-2.88.04-8.08.12-2.06.03.91,31.44c.37.02.64.05.91-.03l-.02-.42c0-.06.12-.1.2-.06.27-1.51.83-3.01,1.79-4.26,1.05-1.36,2.76-1.85,4.16-.83,1.73,1.27,2.39,3.45,2.72,5.42-.19-.09-.18.1-.13.1.17-.02.24.11.15.3l1.55-.03c.32,0,.61-.03.9-.06-.01-.12-.1-.12-.21-.11Z"/>
        <path class="cls-1" d="M12.96,50.53c.03-.6.02-1.15-.2-1.8l-2.7,2.61-2.49,2.28-1.42,1.24-2.07,1.66c.02.68-.18,1.28-.12,1.97-.11.04-.16.02-.21,0l-.6,6.83-.03,1.28,1.03-.8,9.64-6.88c.2-.14.42-.21.36-.53-.48-2.6-.79-5.22-.98-7.85-.05,0-.11.01-.22-.02ZM13.88,57.71c.06.32.05.67.02.98l-10.56,7.52.02-1.49,3.78-3.54,3.1-2.84,3.22-2.87.42,2.24Z"/>
        <path class="cls-19" d="M30.49,6.75c2.4,2.89,4.23,6.12,5.65,9.55-.62.07-1.1-.02-1.61-.03l-3.13-.04c-.99-4.2-2.36-8.18-4.05-12.09-.11-.26-.19-.45-.19-.66-.15-.06-.32.05-.39.24-.29.76-.59,1.46-.99,2.21-1.37,2.62-2.33,5.34-3.01,8.21-.06.25-.26.53-.29.76-.07.41.02.83-.19,1.27l.36.04,8.41.02s.04.17.03.2l4.44.02c.28,0,.54.13.83.03-1.31-3.3-3.05-6.37-5.23-9.2-.24-.31-.42-.55-.67-.75,0,.06-.05.13.04.23Z"/>
        <path class="cls-22" d="M50.94,65.03l-.74-9.3c-.06-.81-.42-1.28-.95-1.83l-3.44-3.57-2.76-2.87-1.61-1.68c-.03-.08-.06-.22-.2-.23l-.06,1.43-.1,2.26-.11,1.56-.09,1.32-.11,1.15c-.04.41-.07.87-.14,1.33l-.57,3.96,3,2.11-2.85-2.19.68-4.53.09-1.01.11-1.34.09-1.33.11-1.76.08-2.54,1.74,1.78c.18.18.33.37.22.7l1.19,7.21.48,2.38c.14.69.33,1.38.88,1.9l2.51,2.37,2.36,2.1.02,1.7-2.46-1.74c-.14-.1-.25-.31-.5-.15l2.03,1.4c.44.31.82.58,1.22,1l-.13-1.57Z"/>
        <path class="cls-31" d="M22.5,63.58l.02.42c-.28.09-.54.05-.91.03l-.91-31.44v-.05s2.06.01,2.06.01l8.08-.12h-9.36s-3.87-.17-3.87-.17c0-.17-.02-.09-.03,0l-1.04-.04c-.34-.01-.75-.18-1.04.02l.02,12.62.14,2.67c.02.42.06.82.09,1.21.14-.72.04-1.52.02-2.3l-.1-3.37-.07-10.68h1.98s-.03,2.53-.03,2.53c-.03.91-.07,2.14-.13,3.73-.06.02-.11.05-.11.11.03,0,.07,0,.11-.02-.03.8-.06,1.66-.1,2.66-.02.57-.03,1.13-.04,1.68-.06.26-.12.51-.12.76l-.03,2.59c0,.22.19.5-.05.76.17.11.24.26.25.51.09,3,.34,5.92.81,8.85.63,4.55,1.37,7.52,1.37,7.52l3.1.22c-.04-.32.05-.53.09-.76-.07-.04-.2,0-.2.06ZM17.28,46.42c-.08-.74-.13-1.38-.02-2.09,0-.03,0-.05,0-.08,0,.76.01,1.5.03,2.24,0-.03-.01-.05-.02-.08Z"/>
        <path class="cls-18" d="M48.32,64.36l2.46,1.74-.02-1.7-2.36-2.1-2.51-2.37c-.55-.52-.74-1.21-.88-1.9l-.48-2.38-1.19-7.21c.1-.33-.04-.52-.22-.7l-1.74-1.78-.08,2.54-.11,1.76-.09,1.33-.11,1.34-.09,1.01-.68,4.53,2.85,2.19,4.77,3.56c.25-.16.36.05.5.15Z"/>
        <path class="cls-30" d="M20.61,30.14h12.97s-.49-4.35-.49-4.35h-11.94c-.05-.06-.04-.18-.03-.21h-.21c.01.08,0,.17-.05.24l-.25,4.33Z"/>
        <path class="cls-7" d="M17.32,47.69c0-.25-.08-.4-.25-.51.23-.26.04-.54.05-.76l.03-2.59c0-.24.06-.49.12-.76,0-.56.02-1.12.04-1.68v-2.64c0-.06.04-.09.1-.11.06-1.59.1-2.81.13-3.73l.03-2.52h-1.98s.07,10.67.07,10.67l.1,3.37c.02.78.12,1.58-.02,2.3-.05.27.02.47.04.77l.07,1.31c.01.2.04.32.05.48.31,3.36,1.02,9.65,2.47,12.17.24.43.74.56,1.11.59,0,0-.74-2.97-1.37-7.52-.47-2.92-.73-5.84-.81-8.85Z"/>
        <path class="cls-18" d="M27.34,4.13c1.69,3.91,3.06,7.89,4.05,12.09l3.13.04c.51,0,.99.1,1.61.03-1.42-3.43-3.24-6.66-5.65-9.55-.08-.1-.04-.17-.04-.23.01-.22-2.34-2.73-3.33-3.37,0,.17.03.25.03.32,0,.22.08.4.19.66Z"/>
        <path class="cls-10" d="M31.05,16.22l-8.41-.02-.36-.04c.21-.44.12-.86.19-1.27.04-.23.23-.51.29-.76.68-2.87,1.64-5.58,3.01-8.21.39-.75.7-1.45.99-2.21.07-.18.24-.3.39-.24,0-.07-.03-.15-.03-.32-1.22.95-2.28,2.14-3.34,3.43-2.43,2.96-4.27,6.27-5.68,9.87l12.97-.03s0-.16-.03-.2Z"/>
        <path class="cls-12" d="M27.09,77.82c.87-2.27,1.26-4.49,1.5-6.78l.1-.94.09-1.04.11-1.66v-4.15c0-.8-.48-1.54-.92-2.14-.37-.5-1.08-.63-1.53-.23-.29.25-.57.52-.74.88-.33.72-.57,1.54-.56,2.41,0,3.73.35,7.39,1.09,11,.19.94.43,1.83.85,2.65ZM27.54,60.9c1.23,1.02,1.33,2.85,1.26,4.59l-.11,2.66-.1,1.39-.11,1.03c-.23,2.15-.52,4.25-1.27,6.38v-4.12s.08-5.49.08-5.49c.03-2.2.13-4.29-.18-6.52.12-.06.35,0,.44.07Z"/>
        <path class="cls-15" d="M32.8,23.43c-.02-.19.15-.05.17.02,0-.04,0-.14.03-.21l4.5-.03c.17,0,.43-.12.41-.27l-.07-.58c-.01-.09-.12-.23-.1-.35.01-.06-.03-.15.11-.16l-.9-3.49-4.92-.02s0,.08-.02.11l.79,4.97Z"/>
        <path class="cls-16" d="M4.08,56.53l2.07-1.66,1.42-1.24,2.49-2.28,2.7-2.61c.21.65.23,1.2.2,1.8.11.03.17.02.22.02l-.08-.64-.26-4.09-2.13,2.24-2.61,2.71-3.67,3.75c-.48.49-.44,1.21-.5,1.87l-.13,1.55-.05.56s.1.04.21,0c-.07-.69.13-1.29.12-1.97Z"/>
        <path class="cls-4" d="M34.08,67.73l-.64-1.47-2,.25c-.03,1.88-.16,3.67-.42,5.49l1.22-.06,3.03-.11c.24,0,.69-.17.56-.44l-1.75-3.67Z"/>
        <path class="cls-27" d="M16.46,23.34l3.66.04c.3,0,.6.12.87.05-.04-.1.09-.21.19-.28l.7-4.64c.14-.1.42-.02.63.04l4.58-.04c.42,0,.79-.16,1.24.05l.64-.07c.41.13.82.05,1.26.02.27-.01.56.12.89-.03.26-.12.63-.02.88-.04.02-.03.03-.08.02-.11h-14.61s-.94,3.94-.94,3.94c.04,0,.1.01.14,0,.07-.03.04-.14.06-.2l.85-3.61h1.12s-.63,4.75-.63,4.75h-1.61c.17-.36.25-.64.08-.83-.02.24-.2.45-.11.79-.19.09-.08.26.09.17Z"/>
        <path class="cls-5" d="M16.73,30.08c.32.01.6.07.89.06l.33-4.4c-.56-.02-1.2-.09-1.79-.02-.26.11-.11.6-.14.79l-.15,1.03-.11,1.15c-.04.4-.03.81-.05,1.22-.11.04-.16.02-.23,0l.02.11,1.23.07Z"/>
        <path class="cls-28" d="M16.4,23.19h1.61s.63-4.74.63-4.74h-1.12s-.85,3.61-.85,3.61c-.01.06.02.18-.06.2-.04.02-.1,0-.14,0-.04.02-.03.09,0,.09.17.19.09.47-.08.82Z"/>
        <path class="cls-20" d="M15.64,30.23c-.06,0-.14.04-.13.07.01.03.1.12.14.16h22.92c.14,0,.17,0,.24-.04.09-.06.08-.11.03-.18h-5.22s-17.98,0-17.98,0Z"/>
        <path class="cls-13" d="M15.79,49.5c-.02-.29-.09-.5-.04-.77-.04-.38-.07-.78-.09-1.21l-.14-2.67-.02-12.62s-.1-.05-.23-.07l.08,11.1.11,3.26.09,2.28.11,1.44c.03.35.04.67.04,1.02.11.03.16.02.2.02-.01-.16-.04-.28-.05-.48l-.07-1.31Z"/>
        <path class="cls-33" d="M32.8,23.43h-11.81c-.27.07-.57-.04-.87-.05l-3.66-.04-.1.21,6.18.05h8.19s7.24-.05,7.24-.05c.09,0,.12-.06.14-.09l-5.13-.02c-.02-.07-.2-.2-.17-.02Z"/>
        <path class="cls-30" d="M37.64,25.77c.2,0,.44-.13.64-.03l.15,1.49.11,1.16c.05.51,0,1.09.18,1.63l-4,.07-1.15.05c.06.01.05.08.04.11h5.22s-.08-1.45-.08-1.45l-.1-1.17-.12-1.02c-.04-.33-.04-.65-.08-1.02h-5.35s-.02.2-.02.2l4.55-.02Z"/>
        <path class="cls-25" d="M22.92,72.02c.02-.27-.05-.45-.07-.69l-.09-1.33-.11-1.31-.09-1.62-.08-.56-.55-.08c-.51-.08-1.06-.07-1.5,0l-2.25,5.31,1.6.12,1.93.1c.41.02.77.05,1.21.06ZM18.38,71.62l2.15-5.07c.54-.21,1.15.12,1.86.04.03.47.01.92.05,1.35l.11,1.34.09,1.34c.03.43.09.75.05,1.2l-2.18-.08-2.14-.13Z"/>
        <path class="cls-9" d="M21.15,25.78h11.94s.02-.21.02-.21h-11.99s-.02.16.03.21Z"/>
        <path class="cls-11" d="M33.58,30.14h-12.97s-1.46-.04-1.46-.04c-.21,0-.3-.09-.53,0-.29.11-.7.03-1,.04-.29.01-.58-.04-.89-.06l-1.23-.07c.01.09.04.14.13.22l17.98.02s.02-.1-.04-.11Z"/>
        <path class="cls-17" d="M15.77,28.69l.11-1.15.15-1.03c.03-.19-.12-.69.14-.79.59-.07,1.23,0,1.79.02l.73.02,1.35-.02c.3,0,.56.04.83.08.06-.07.06-.16.05-.24h-4.98c.07.31-.05.56-.08.84l-.35,3.49c.07.03.13.05.23,0,.02-.41,0-.82.05-1.22Z"/>
        <path class="cls-3" d="M37.74,22.02c-.03.12.09.26.1.35l.07.58c.02.14-.24.26-.41.27l-4.5.03c-.04.07-.03.16-.03.21l5.13.02c.1-.12.02-.28-.01-.44l-.23-1.18c-.14.01-.1.11-.11.16Z"/>
        <polygon class="cls-21" points="20.7 32.59 22.76 32.56 20.7 32.55 20.7 32.59"/>
        <path class="cls-26" d="M7.13,61.18l-3.78,3.54-.02,1.49,10.56-7.52c.03-.31.04-.65-.02-.98l-.42-2.24-3.22,2.87-3.1,2.84Z"/>
        <path class="cls-32" d="M17.41,38.72s-.08.03-.11.02v2.64c.05-1,.08-1.86.11-2.66Z"/>
        <path class="cls-8" d="M38.73,30.02c-.18-.54-.13-1.12-.18-1.63l-.11-1.16-.15-1.49c-.2-.1-.44.03-.64.03l-4.55.02.49,4.35,1.15-.05,4-.07Z"/>
        <path class="cls-14" d="M18.63,30.1c.22-.09.32,0,.53,0l1.46.04.25-4.33c-.27-.03-.53-.08-.83-.08l-1.35.02-.73-.02-.33,4.4c.31-.01.71.07,1-.04Z"/>
        <path class="cls-2" d="M27.29,67.34l-.08,5.49v4.12c.75-2.13,1.04-4.23,1.27-6.38l.11-1.03.1-1.39.11-2.66c.07-1.73-.03-3.57-1.26-4.59-.09-.07-.32-.13-.44-.07.31,2.22.21,4.32.18,6.52Z"/>
        <path class="cls-21" d="M32.01,18.46c-.25.01-.62-.08-.88.04-.33.15-.62.01-.89.03-.44.02-.85.11-1.26-.02l-.64.07c-.45-.21-.82-.06-1.24-.05l-4.58.04c-.22-.06-.49-.14-.63-.04l-.7,4.64c-.1.06-.23.18-.19.28h11.81s-.79-4.97-.79-4.97Z"/>
        <path class="cls-7" d="M22.65,70.63l-.09-1.34-.11-1.34c-.04-.44-.03-.88-.05-1.35-.71.07-1.32-.25-1.86-.04l-2.15,5.07,2.14.13,2.18.08c.04-.45-.02-.78-.05-1.2Z"/>
      </g>
    </g>
  </g>
</svg>