<?xml version="1.0" encoding="UTF-8"?>
<svg id="Layer_2" data-name="Layer 2" xmlns="http://www.w3.org/2000/svg" viewBox="0 0 193.84 395.39">
  <defs>
    <style>
      .cls-1 {
        fill: #ffd900;
        opacity: .69;
      }
    </style>
  </defs>
  <g id="Layer_1-2" data-name="Layer 1">
    <path class="cls-1" d="M192.49,184.42l-.19-19.53c-.01-1.27-.88-2.74-3.23-3.03v-56.68s2.11-.37,2.11-.37l.82-3.6c-.56-.4-1.12-.78-1.66-1.14.56-.15,1.18-.42,1.78-.93l1.72-1.43-11.32-10.86-8.04-42.11c-.35-1.83-1.68-3.11-3.23-3.11-.86,0-2.37.37-2.88,2.83l-4.11,19.76-4.55,23.5-9.19,8.75,1.16,3.44,2.15.24v1.3l-2.66.13-.07,37.72-2.66-2.7-1.21.44c-.52.19-.94.48-1.29.8l-26.1-24.06-4.47-45.64-2.4-23.69,3.12-8.02-.38-.79c-.25-.52-.49-1.03-.72-1.53-.11-2.75-1.12-5.09-2.1-7.37-.12-.28-.24-.56-.36-.85-.12-1.13-.15-2.32-.1-3.61l7.98-6.79.06-.84c.47-6.55-.15-9.16-.74-10.31l.15-4.36-10.6,5.15-1-3.91-23.56.08-.32,1.23-1.03,2.75L72.59.04v4.25c-.24.46-.37.99-.37,1.54l.04,9.76,7.67,6.43-.18,4.1c-.16.37-.31.74-.47,1.1-.67,1.55-1.37,3.16-1.9,4.87-.32,1.02-.35,2.19-.1,3.57l-.39,1.22,2.94,7.15-4.05,39.85-2.96,30.22-25.45,23.74c-.51-.44-1.12-.77-1.88-.77-.49,0-.97.15-1.37.43-1.09.77-2.06,1.64-2.97,2.55l-.05-38.44-1.86-.1v-1.29c.83-.03,1.85-.22,2.87-1.05l1.73-1.41-10.21-10.02-8.39-42.93c-.37-1.89-1.57-3.11-3.05-3.11-.2,0-.4.02-.59.07-.8.19-1.86.83-2.3,2.84l-2.38,10.72-6.14,31.36L.1,96.45l1.18,3.47.68.06-1.38.66.36,3.74,3.11.82-.04,56.66c-2.95.2-3.67,1.78-3.82,2.75l-.02.15-.16,19.94.28.5v.15s.4.56.4.56l6.11,10.81.04.56-.1,47.25-1.7,18.76,2.11,8.04.31,28.12,1.46.57-.06,4.69,3.64.55.39,13.08.82,17.99.88,17.27.82,16.45.83,17.69.34,3.63c.17,1.79,1.28,2.97,2.62,3.51l.04.53,7.01-.52,7.79-122.71c.14.64.28,1.3.43,1.96l.1.44.28.35c.39.49,1.1,1.42,2.28,1.42l1.02-.04.6-.72c.64-.77.58-1.71.44-2.57l-.11-20.71-.88-48.45,7.63-11.61c.18.12.38.22.61.29.34.11.69.17,1.06.17.9,0,1.75-.34,2.38-.95l4.2-4.07c.44.1.86.16,1.27.16.26,0,.51-.02.75-.06,2.58-.43,5.56-4.32,5.4-7.05l-.83-14.18c-.17-2.97-1.87-8.09-5.67-9.15-.34-.09-.68-.14-1.01-.14,0,0-.06-3.09-.06-3.09l9.02-8.33.17,9.36,3.44,8.56-.57,10.1,1.82,20.97,6.08,59.95,4,39.96,1.01,2.91,1.63,11.04,7.91,9.14,1.44-.85c1.16-.68,1.82-1.73,2.23-2.77.37,1.89.83,4.2,1.77,6.59.35.89,1.18,1.46,2.11,1.46,1.5,0,2.65-1.46,2.9-2.51l1.14-4.75c.16.35.36.68.62.99.52.63,1.24.98,2.03.98,1.58,0,2.65-1.36,3.27-2.15.54-.68,1.2-1.31,1.89-1.97,1.4-1.34,2.98-2.85,3.82-5.08l.08-.22,1.26-9.5c.84-2.18,1.17-3.61,1.4-5.96l8.15-83.1,2.86-28.33c.44-4.4.9-8.94.11-13.64-.71-4.25.84-6.97,2.2-9.37.84-1.48,1.57-2.75,1.62-4.2l.23-7.36,8.62,7.95-.04,3.15-.6-.26-.89.54c-3.57,2.16-5.04,6.86-5.24,10.55l-.66,12.67c-.09,1.78,1.17,4.1,2.47,5.47,1.04,1.1,2.13,1.66,3.24,1.66h.24c.47-.05.96-.14,1.47-.3l3.62,3.63c1.25,1.26,2.38,1.87,3.44,1.87.53,0,1.02-.15,1.44-.42l6.97,10.66.56,26.66-.96,44.9,3.94.55.96-3.69,7.87,123.56,3.79-.14c.05.01.1.03.15.04.29.07.59.1.91.1,2.06,0,4.35-1.44,4.52-4.1l.78-11.98,1.02-17.75.69-12.65.81-15.13.88-16.83.34-11.84,3.42-.48v-3.45c.23-.12.43-.28.61-.47.51-.58.8-1.31.82-2.1l.69-28.38,1.98-7.29-1.08-10.21-.94-10.59-.09-42.25.16-2.58,7.02-12.75Z"/>
  </g>
</svg>