<?xml version="1.0" encoding="UTF-8"?>
<svg id="Layer_2" data-name="Layer 2" xmlns="http://www.w3.org/2000/svg" viewBox="0 0 108.38 134.62">
  <defs>
    <style>
      .cls-1 {
        fill: #ffd900;
      }
    </style>
  </defs>
  <g id="Layer_1-2" data-name="Layer 1">
    <path class="cls-1" d="M108.19,64.52c.09-7.89.03-18.31-1.21-28.92-.28-2.43-.67-4.6-1.24-6.83-.95-3.78-3.69-7.03-6.99-8.27l-2.76-1.04c-.49-1.37-1.39-2.43-2.32-3.37-2.02-2.04-4.34-3.97-7.12-5.89l-3.2-2.21c-7.77-5.38-17.18-7.99-28.78-7.99-1.81,0-3.69.07-5.61.2-8.82.6-14.92,2.26-21.03,5.74-2.39,1.36-4.42,2.87-6.56,4.47l-.39.29c-2.28,1.69-4.9,3.71-7.21,6.31-1.06,1.19-1.69,2.55-2.08,3.68-1.64.68-3.34,1.38-4.97,2.41-4.27,2.71-5.84,9.25-5.49,14.18.49,6.88,1.25,13.97,2.4,22.24-2,2.02-3.58,3.87-3.58,5.67L0,78.84c0,2.55.18,4.94.6,7.51,1.15,7.07,2.25,13.46,4.07,19.92l1.32,4.7c.39,1.37.82,2.93,1.78,4.33,1.73,2.52,3.96,4.41,6.11,6.09l4.15,3.24c.98.76,1.97,1.24,3.04,1.46l.56.12c.42.09.85.18,1.28.26v.57h4.21c4.83,3.94,10.93,6.28,18.61,7.12,2.8.31,5.67.46,8.54.46,4.04,0,8.19-.31,12.34-.92,8.97-1.32,15.29-3.96,20.49-8.56l.06-.06,2.31-2.43c.33-.02.65-.06.96-.13l.54-.12c2.79-.63,5.2-1.25,6.5-2.42l7.3-6.58,2.13-2.82c.36-.48,1.21-1.75,1.25-3.11l.22-8.46v-24.86s-.18-9.63-.18-9.63Z"/>
  </g>
</svg>