<?xml version="1.0" encoding="UTF-8"?>
<svg id="Layer_2" data-name="Layer 2" xmlns="http://www.w3.org/2000/svg" viewBox="0 0 189.4 390">
  <g id="Layer_1-2" data-name="Layer 1">
    <path d="M185.62,97.18v-2.07c1.23-.39,2.47.35,3.78-.74l-10.17-9.75-8.16-42.74c-.16-.85-.7-1.49-1.26-1.49-.55,0-.77.5-.93,1.24l-4.1,19.73-4.67,24.12-9.65,9.2,3.93.44v4.99s-2.67.13-2.67.13l-.08,40.69-5.17-5.26c-.77.28-1.23,1.18-1.87,1.74l-28.12-25.92-4.54-46.4-2.45-24.17,2.98-7.65c-.32-.67-.63-1.32-.91-1.94-.01-2.93-1.26-5.37-2.43-8.16-.18-1.54-.22-3.2-.1-5.09l7.99-6.8c.28-3.86.25-8.59-.77-9.57l.06-1.7-9.82,4.77-1.22-4.77-20.47.07-.21.79h-.11s-1.49,3.95-1.49,3.95l-9.85-4.81v1.7c-.19.16-.38.45-.38.88l.04,8.84,7.72,6.47-.24,5.45c-.84,2.01-1.78,4-2.44,6.12-.27.88-.2,1.95.05,3.09l-.33,1.02,2.86,6.94-4.1,40.34-3.03,30.98-27.45,25.61c-.6-.59-1.47-1.9-2.01-1.52-2.33,1.64-4.07,3.82-6.11,6.03l-.06-41.66-1.86-.1v-5.24c1.49.02,2.55.32,3.61-.55l-9.06-8.89-8.51-43.54c-.17-.89-.64-1.61-1.22-1.47-.44.1-.68.77-.81,1.33l-2.37,10.67-6.27,32.01L0,94.68l4.6.39v1.91s-4.6,2.22-4.6,2.22l4.6,1.21-.04,60.26c-1.28-.14-3.64-.24-3.85,1.01l-.16,19.25.26.46v.04s.1.15.1.15l6.38,11.3.07,1.08-.1,47.4-1.68,18.5,2.08,7.94.31,28.37c.61-.65,1.09-1.35,1.5-2.09l-.09,7.4,3.3-11.11.73,24.62.82,17.98.88,17.27.82,16.46.82,17.59.34,3.63c.14,1.48,1.47,2.1,2.51,2.04v.05s3.29-.24,3.29-.24l8.01-126.19,1.53-3.85c1.07,3.52,1.66,6.93,2.51,10.71.75.96,1.02.9.77-.5l-.11-20.85-.9-49.06,9.67-14.71.37.88c.22.53.48,1.09.84,1.2.4.13,1,.09,1.43-.32l5.08-4.92c.8.36,1.55.52,2.21.41,1.59-.26,3.83-3.23,3.73-4.96l-.83-14.18c-.14-2.43-1.58-6.61-4.21-7.34-1.46-.41-1.97,1.02-2.38,2.8l-.16-8.82,12.96-11.96.25,13.44,3.47,8.63-.58,10.41,1.8,20.8,6.08,59.95,3.97,39.73,1,2.87,1.57,10.65,6.44,7.44c2.15-1.27,1.65-4.96,2.88-5.67v.03s.04-.05.04-.05c.13-.07.27-.11.45-.11,1.8.04,1.42,5.26,3.52,10.61.23.58,1.09-.27,1.21-.78l2.27-9.43c.07-.29.46-.39.8-.34l.13.19v-.15c.17.05.32.13.39.26.8,1.45.72,3.76,1.66,4.91.68.84,1.78-.63,2.19-1.14,1.77-2.22,4.35-3.73,5.41-6.52l1.26-9.51c.8-2.05,1.13-3.3,1.36-5.66l8.15-83.11,2.82-28c.45-4.5.93-8.89.16-13.44-1.27-7.53,3.71-11.19,3.79-13.96l.36-11.74,12.5,11.52-.11,8.36c-.43-.95-1.13-1.8-2.4-2.35-2.79,1.68-4.1,5.69-4.27,8.94l-.66,12.67c-.09,1.63,2.17,5.15,3.8,5.02.66-.05,1.37-.28,2.13-.62l4.53,4.54c.6.6,2.09,1.93,2.6.9l.85-1.73,8.98,13.73.57,27.32-.96,44.9,3.11-11.93,1.49,3.97,8.04,126.27,2.18-.08c.11.04.22.07.33.1,1.09.25,2.88-.42,2.99-2.18l.78-11.97,1.02-17.74.69-12.65.81-15.12.88-16.78.65-22.88,3.1,10.6.03-6.29.3.67c.21.46.62.55.78.38.15-.17.31-.43.32-.82l.69-28.62,1.95-7.16-1.05-9.87-.95-10.67-.09-42.4.19-3.09,6.98-12.69-.18-19.01c-.01-1.22-2.27-1.21-3.23-1v-60.42s3.77-.65,3.77-.65c-1.36-.97-2.59-1.74-3.78-2.41Z"/>
  </g>
</svg>