<?xml version="1.0" encoding="UTF-8"?>
<svg id="Layer_2" data-name="Layer 2" xmlns="http://www.w3.org/2000/svg" viewBox="0 0 55.09 80.11">
  <g id="Layer_1-2" data-name="Layer 1">
    <path d="M54.96,65.82l-.74-9.3c-.15-1.9-1.05-3.06-1.91-3.95l-3.43-3.56-4.02-4.19c-.54-.83-1.31-1.3-2.07-1.51l.03-1.45c.12-.34.2-.71.21-1.09.01-.42-.05-.83-.17-1.2,0-26.48-13.26-38.24-13.26-38.24l-2.05-1.33-2.05,1.33s-13.26,11.76-13.26,38.24c-.12.38-.18.78-.17,1.2.01.38.09.75.21,1.09l.03,1.45c-.76.21-1.54.68-2.07,1.51l-4.02,4.19-3.43,3.56c-.86.89-1.76,2.05-1.91,3.95l-.74,9.3-.13,1.56,5.92,2.65c.14-.15.31-.27.66-.52l2.04-1.41,4.87-3.63,1.15-.81c.2.62.42,1.24.7,1.86.41.9,1.04,1.62,1.81,2.15l-1.51,3.15c-.5,1.04-.58,2.28-.07,3.32.76,1.56,2.36,2.15,3.53,2.19l3.03.11.99.05c.02.11.05.22.08.33.45,1.93,2.2,3.29,4.18,3.29h.33c1.98,0,3.73-1.36,4.18-3.29.03-.11.05-.22.08-.33l.99-.05,3.03-.11c1.17-.04,2.77-.63,3.53-2.19.51-1.04.43-2.27-.07-3.32l-1.51-3.15c.77-.52,1.4-1.25,1.81-2.15.28-.62.5-1.25.7-1.86l1.15.81,4.87,3.63,2.04,1.41c.35.25.52.37.66.52l5.92-2.65-.13-1.56Z"/>
  </g>
</svg>