<?xml version="1.0" encoding="UTF-8"?>
<svg id="Layer_2" data-name="Layer 2" xmlns="http://www.w3.org/2000/svg" viewBox="0 0 38.63 102.59">
  <defs>
    <style>
      .cls-1 {
        fill: #bc3e0b;
      }

      .cls-2 {
        fill: #585356;
      }

      .cls-3 {
        fill: #b3bbb1;
      }

      .cls-4 {
        fill: #838574;
      }

      .cls-5 {
        fill: none;
        stroke: #000;
        stroke-linecap: round;
        stroke-linejoin: round;
      }

      .cls-6 {
        fill: #d4ad6d;
      }

      .cls-7 {
        fill: #8c3e0b;
      }

      .cls-8 {
        fill: #d45225;
      }

      .cls-9 {
        fill: #83938d;
      }

      .cls-10 {
        fill: #f21500;
      }

      .cls-11 {
        fill: #44b7e9;
      }
    </style>
  </defs>
  <g id="Layer_1-2" data-name="Layer 1">
    <g>
      <path class="cls-2" d="M12.71,24.28c.04-.12.08-.23.12-.35.04-.1.07-.2.11-.31.06-.16.12-.32.18-.48.02-.05.04-.1.06-.15,0-.01,0-.02.01-.04l2.31-7.27,2.18-6.85,1.21-3.94h0s.52-.2.52-.2l.52.2h0s1.21,3.94,1.21,3.94l4.5,14.12s0,.03.01.04c.02.05.04.1.06.15.06.16.12.31.18.48.04.1.07.2.11.31.04.12.08.23.12.35.04.11.07.22.1.33.01.04.02.09.04.13h.53l.07-.09c.12-.17.22-.35.29-.54.02-.06.03-.13.05-.19.04-.13.08-.25.1-.38.01-.08,0-.16,0-.24,0-.12.02-.23.01-.35,0-.09-.03-.19-.04-.29-.01-.11-.02-.22-.04-.32-.02-.1-.05-.21-.08-.31-.03-.1-.05-.21-.08-.31-.03-.1-.07-.21-.11-.31-.04-.1-.07-.21-.11-.31-.04-.11-.09-.22-.14-.33-.04-.1-.08-.19-.12-.29-.07-.15-.13-.3-.2-.45-.02-.05-.04-.09-.06-.14,0-.01-.01-.02-.01-.03l-5.05-13.26-1.36-3.7h0c-.04-.11-.12-.19-.2-.25-.31-.26-.82-.18-.97.25h0l-1.36,3.7-2.45,6.44-2.6,6.82s0,.02-.01.03c-.02.05-.04.09-.06.14-.07.15-.13.3-.2.45-.04.09-.08.19-.12.29-.05.11-.09.22-.14.33-.04.1-.07.21-.11.31-.04.1-.08.21-.11.31-.03.1-.05.21-.08.31-.03.1-.06.21-.08.31-.02.11-.03.22-.04.32-.01.1-.03.19-.04.29,0,.12,0,.24.01.35,0,.08,0,.16,0,.24.02.13.06.26.1.38.02.06.02.13.05.19.07.19.17.37.29.54l.07.09h.73s.03-.09.04-.13c.03-.11.06-.22.1-.33Z"/>
      <path class="cls-4" d="M16.18,20.95l1.57-5.74.96-3.64h0s.04-.02.04-.02l.67-2.55h0s.41-.19.41-.19l.41.19h0s.96,3.64.96,3.64l3.3,12.1h1.75s-.03-.09-.04-.13c-.03-.11-.06-.22-.1-.33-.04-.12-.08-.23-.12-.35-.04-.1-.07-.2-.11-.31-.06-.16-.12-.32-.18-.48-.02-.05-.04-.1-.06-.15,0-.01,0-.02-.01-.04l-4.5-14.12-1.21-3.94h0s-.52-.2-.52-.2l-.52.2h0s-1.21,3.94-1.21,3.94l-2.18,6.85-2.31,7.27s0,.03-.01.04c-.02.05-.04.1-.06.15-.06.16-.12.31-.18.48-.04.1-.07.2-.11.31-.04.12-.08.23-.12.35-.04.11-.07.22-.1.33-.01.04-.02.09-.04.13h1.94l1.67-4.39v.61Z"/>
      <polygon class="cls-9" points="18.46 12.64 18.75 11.55 18.71 11.57 18.71 11.57 17.75 15.21 16.18 20.95 16.18 20.99 16.74 18.96 18.46 12.64"/>
      <path class="cls-3" d="M20.25,9h0s-.41-.19-.41-.19l-.41.19h0s-.67,2.55-.67,2.55l-.29,1.08-1.73,6.32-.55,2.03v3.75h.07c.2,0,.39-.1.51-.26l1.08-1.51c.45-.63,1.19-.86,1.87-.72.42.09.81.33,1.09.72l.56.79.52.73c.12.16.31.26.51.26h2.12l-3.3-12.1-.96-3.64Z"/>
      <path class="cls-6" d="M26.54,26.48l-.46.43c-.1.09-.2.17-.31.24v10.79h.77v-11.47Z"/>
      <rect class="cls-6" x="25.77" y="72.48" width=".77" height="15.16"/>
      <polygon points="15.42 37.94 15.37 27.65 14.92 27.72 14.92 37.41 14.92 37.94 15.42 37.94"/>
      <path d="M15.53,58.68s-.04-.02-.06-.03c-.17-.1-.3-.24-.39-.4-.05-.08-.08-.17-.11-.26-.03-.09-.04-.19-.04-.28,0-.1,0-.19.03-.29.02-.1.06-.19.12-.29l.44-.77-.09-17.02h-.51v31.97h.68l-.07-12.62Z"/>
      <polygon points="14.92 87.65 15.68 87.65 15.6 72.48 14.92 72.48 14.92 87.65"/>
      <path d="M38.5,98.96l-6.85-13.68c-.26-.53-.68-.96-1.2-1.24l-.44-.24v-10.86c0-.57-.3-1.1-.8-1.39l-1.41-.81c-.54-.31-.88-.89-.88-1.52v-26.77c0-.63.33-1.2.87-1.52l1.41-.81c.49-.29.8-.81.8-1.39v-12.48s-1.13-4.85-1.87-6.48l-5.03-13.22-1.5-5.26c-.22-.78-.93-1.31-1.74-1.31h-1.09c-.81,0-1.52.54-1.74,1.31l-1.5,5.26-5.03,13.22c-.74,1.62-1.87,6.48-1.87,6.48v12.48c0,.57.3,1.1.8,1.39l1.41.81c.54.31.87.89.87,1.52v26.77c0,.63-.33,1.2-.88,1.52l-1.41.81c-.5.29-.8.81-.8,1.39v10.86l-.44.24c-.52.28-.94.72-1.2,1.24L.14,98.96c-.2.39-.18.85.04,1.23l1.01,1.74c.23.4.66.65,1.13.65h8.82v-.05c.17.03.35.05.53.05h15.31c.18,0,.36-.02.53-.05v.05h8.82c.46,0,.89-.25,1.13-.65l1.01-1.74c.22-.38.23-.84.04-1.23ZM9.1,90.66v9.24H2.59l-.59-.95,7.1-14.32v6.03ZM16.88,99.89h-5.25c-.57,0-1.03-.46-1.03-1.03s.46-1.03,1.03-1.03h5.43l-.18,2.07ZM17.19,96.33h-7.58v-5.67h8.08l-.49,5.67ZM18.38,99.89l.93-15.59.93,15.59h-1.87ZM20.79,88.82l-.1-1.18h-.11l-.23-2.95c-.03-.34-.16-.6-.34-.77-.09-.09-.2-.15-.31-.19-.12-.04-.26-.06-.39-.06s-.26.02-.39.06c-.12.04-.24.11-.35.19-.21.17-.35.43-.38.77l-.04.34v-.02s-.2,2.64-.2,2.64l-.15,1.51h-5.8c-.78,0-1.41-.63-1.41-1.41v-14.34c0-.57.3-1.1.8-1.39l1.41-.81c.54-.31.87-.89.87-1.52v-29.08c0-.63-.33-1.2-.87-1.52l-1.41-.81c-.49-.29-.8-.81-.8-1.39v-11.32l.38.66h3.94v-.84s-.06,0-.08-.01c-.2,0-.4.01-.59.04l.26-.69h-2.66l-.07-.09c-.12-.17-.22-.35-.29-.54-.02-.06-.03-.13-.05-.19-.04-.13-.08-.25-.1-.38-.01-.08,0-.16,0-.24,0-.12-.02-.23-.01-.35,0-.09.03-.19.04-.29.01-.11.02-.22.04-.32.02-.1.05-.21.08-.31.03-.1.05-.21.08-.31.03-.1.07-.21.11-.31.04-.1.07-.21.11-.31.04-.11.09-.22.14-.33.04-.1.08-.19.12-.29.07-.15.13-.3.2-.45.02-.05.04-.09.06-.14,0-.01.01-.02.01-.03l2.6-6.82,2.45-6.44,1.36-3.7h0l.59-1.59.59,1.59h0l1.36,3.7,5.05,13.26s0,.02.01.03c.02.05.04.09.06.14.07.15.13.3.2.45.04.09.08.19.12.29.05.11.09.22.14.33.04.1.07.21.11.31.04.1.08.21.11.31.03.1.05.21.08.31.03.1.06.21.08.31.02.11.03.22.04.32.01.1.03.19.04.29,0,.12,0,.24-.01.35,0,.08,0,.16,0,.24-.02.13-.06.26-.1.38-.02.06-.02.13-.05.19-.07.19-.17.37-.29.54l-.07.09h-4.72l-.71-.99-.56-.79h0c-.28-.39-.67-.62-1.09-.72v1.4l1.06,1.84.43.75h6.45l.38-.66v11.32c0,.57-.3,1.1-.8,1.39l-1.41.81c-.54.31-.87.89-.87,1.52v29.08c0,.62.33,1.2.87,1.52l1.41.81c.49.29.8.81.8,1.39v14.34c0,.78-.63,1.41-1.41,1.41h-5.8l-.03-.34ZM27,99.89h-5.25l-.18-2.07h5.43c.57,0,1.03.46,1.03,1.03s-.46,1.03-1.03,1.03ZM29.03,96.33h-7.58l-.49-5.67,8.08.02v5.64ZM36.05,99.89h-6.51v-3.57h0v-5.67s0-6.03,0-6.03l7.1,14.32-.59.95Z"/>
      <path d="M19.86,51.04s-.1-.04-.16-.06h0c.05.02.11.03.16.06Z"/>
      <polygon class="cls-4" points="21.45 96.33 29.03 96.33 29.03 90.68 20.95 90.66 21.45 96.33"/>
      <polygon class="cls-9" points="29.54 90.66 29.54 90.68 29.54 96.33 29.54 96.33 29.54 99.89 36.05 99.89 36.64 98.94 29.54 84.62 29.54 90.66"/>
      <polygon class="cls-9" points="2.59 99.89 9.1 99.89 9.1 96.93 9.1 96.33 9.1 90.66 9.1 84.62 2 98.94 2.59 99.89"/>
      <path class="cls-5" d="M26.95,21.39c.04.1.08.21.11.31"/>
      <path class="cls-5" d="M26.71,20.76c.05.11.09.22.14.33"/>
      <path class="cls-5" d="M12.25,20.03c-.07.15-.13.3-.2.45"/>
      <path class="cls-5" d="M26.39,20.03c.07.15.13.3.2.45"/>
      <path class="cls-5" d="M27.15,22.02c.03.1.06.21.08.31"/>
      <path class="cls-5" d="M27.31,22.94c0-.09-.03-.19-.04-.29"/>
      <path class="cls-5" d="M27.29,23.53c.01-.08,0-.16,0-.24"/>
      <path class="cls-5" d="M11.32,22.94c0-.09.03-.19.04-.29"/>
      <path class="cls-5" d="M11.49,24.11c-.02-.06-.03-.13-.05-.19"/>
      <path class="cls-5" d="M11.79,21.08c.04-.11.09-.22.14-.33"/>
      <path class="cls-5" d="M11.57,21.71c.03-.1.07-.21.11-.31"/>
      <path class="cls-5" d="M11.49,22.02c-.03.1-.06.21-.08.31"/>
      <path class="cls-5" d="M11.34,23.53c-.01-.08,0-.16,0-.24"/>
      <path d="M21.36,23.75l.71.99h.32c-.2,0-.39-.1-.51-.26l-.52-.73Z"/>
      <polygon points="20.8 22.96 21.36 23.75 20.79 22.96 20.8 22.96"/>
      <path d="M19.71,2.64c.08.07.16.14.2.25l-.59-1.59-.59,1.59c.16-.43.67-.51.97-.25Z"/>
      <path class="cls-5" d="M27.19,23.92c-.02.06-.02.13-.05.19"/>
      <path class="cls-8" d="M27,97.83h-5.43l.18,2.07h5.25c.57,0,1.03-.46,1.03-1.03s-.46-1.03-1.03-1.03ZM27.48,99.26c0,.14-.11.25-.25.25h-.45c-.14,0-.25-.11-.25-.25,0,.14-.11.25-.25.25h-.27c-.14,0-.25-.11-.25-.25v-.87c0-.14.11-.25.25-.25h.27c.14,0,.25.11.25.25,0-.14.11-.25.25-.25h.45c.14,0,.25.11.25.25v.87Z"/>
      <polygon class="cls-4" points="18.38 99.89 20.25 99.89 19.32 84.31 18.38 99.89"/>
      <path class="cls-11" d="M18.93,83.73c.12-.04.26-.06.39-.06h0c-.13,0-.26.02-.39.06Z"/>
      <path class="cls-11" d="M20.29,51.46c-.11-.19-.26-.33-.42-.42.17.09.32.23.42.42Z"/>
      <path class="cls-11" d="M18.77,51.04c-.17.09-.32.23-.42.42.11-.19.26-.33.42-.42Z"/>
      <path d="M19.32,50.9c-.19,0-.38.05-.55.14-.17.09-.32.23-.42.42l-2.83,4.9v2.32c.16.08.34.13.53.13h6.55c.22,0,.41-.06.58-.16.17-.1.3-.24.39-.4.05-.08.08-.17.11-.26.03-.09.04-.19.04-.28,0-.1,0-.19-.03-.29-.02-.1-.06-.19-.12-.29l-3.27-5.67c-.11-.19-.26-.33-.42-.42-.05-.03-.1-.04-.16-.06-.13-.05-.26-.08-.39-.08ZM20.29,52.5l2.41,4.18c.43.75-.11,1.68-.97,1.68h-4.82c-.86,0-1.4-.93-.97-1.68l2.41-4.18c.43-.75,1.51-.75,1.94,0Z"/>
      <path class="cls-11" d="M18.35,52.5l-2.41,4.18c-.43.75.11,1.68.97,1.68h4.82c.86,0,1.4-.93.97-1.68l-2.41-4.18c-.43-.75-1.51-.75-1.94,0Z"/>
      <polygon class="cls-4" points="9.6 90.66 9.6 96.33 12.97 96.33 15.27 90.66 9.6 90.66"/>
      <path class="cls-1" d="M11.63,97.83c-.57,0-1.03.46-1.03,1.03s.46,1.03,1.03,1.03h.24l.63-2.07h-.88ZM11.62,99.51h-.45c-.14,0-.25-.11-.25-.25v-.87c0-.14.11-.25.25-.25h.45c.14,0,.25.11.25.25v.87c0,.14-.11.25-.25.25Z"/>
      <path class="cls-1" d="M14.92,87.65v-15.16h-2.63l1.36-1.18h1.27v-31.97h-1.8v-1.39h-.85v-.53h2.65v-9.69l-.16-.07h-2.89v10.29l-.95-.58v-11.12h.05l-.38-.66v11.32c0,.57.3,1.1.8,1.39l1.41.81c.54.31.87.89.87,1.52v29.08c0,.62-.33,1.2-.87,1.52l-1.41.81c-.49.29-.8.81-.8,1.39v14.34c0,.78.63,1.41,1.41,1.41h2.91l-1.48-1.51h1.48ZM11.87,88.82l-.32-.27c-.4-.33-.63-.82-.63-1.34v-13.17c0-.57.28-1.1.74-1.43l.2-.14v16.34Z"/>
      <path class="cls-8" d="M25.77,87.65v-15.16h-6.06v11.25c.11.04.22.11.31.19.18.17.31.43.34.77l.23,2.95h5.19Z"/>
      <path class="cls-8" d="M28.04,87.74v-14.34c0-.57-.3-1.1-.8-1.39l-1.41-.81c-.54-.31-.87-.89-.87-1.52v-29.08c0-.63.33-1.2.87-1.52l1.41-.81c.49-.29.8-.81.8-1.39v-11.32l-.38.66h-.17v11.12l-.95.58-2.09,1.39h-4.74v11.64c.05.02.11.03.16.06.17.09.32.23.42.42l3.27,5.67c.05.09.09.19.12.29.02.1.04.19.03.29,0,.1-.02.19-.04.28-.03.09-.06.18-.11.26-.09.16-.23.3-.39.4-.17.1-.36.16-.58.16h-2.88v12.49h4.74l2.09,1.18.2.14c.46.33.74.86.74,1.43v13.59c0,.52-.08.75-.47,1.09l-.47.09h-5.75l.03.34h5.8c.78,0,1.41-.63,1.41-1.41Z"/>
      <polygon class="cls-8" points="19.71 26.48 23.87 26.48 26.54 26.48 26.54 26.24 22.07 26.24 21.2 26.24 20.77 25.49 19.71 23.65 19.71 26.48"/>
      <path class="cls-8" d="M25.77,37.94v-10.79c-.46.32-1,.5-1.56.5h-4.5v10.29h6.06Z"/>
      <path class="cls-2" d="M16.18,24.74v-4.39l-1.67,4.39-.26.69c.19-.02.39-.04.59-.04.03,0,.06,0,.08.01v-.66h1.26Z"/>
      <path class="cls-2" d="M17.43,26.24l.43-.75,1.45-2.51.39.67v-1.4c-.68-.15-1.42.09-1.87.72l-1.08,1.51c-.12.16-.31.26-.51.26h-1.33v1.5h2.51Z"/>
      <polygon class="cls-2" points="12.97 96.33 17.19 96.33 17.68 90.66 15.27 90.66 12.97 96.33"/>
      <polygon class="cls-7" points="11.87 99.89 16.88 99.89 17.06 97.83 12.51 97.83 11.87 99.89"/>
      <path class="cls-10" d="M15.53,58.68l.07,12.62h4.11v-12.49h-3.66c-.19,0-.36-.05-.51-.13Z"/>
      <path class="cls-10" d="M15.6,72.48l.08,15.16h.71l1.77-2.62.04-.34c.03-.34.18-.6.38-.77.1-.09.22-.15.35-.19.12-.04.26-.06.39-.06h0c.13,0,.26.02.39.06v-11.25h-4.1Z"/>
      <path class="cls-10" d="M15.52,56.36l2.83-4.9c.11-.19.26-.33.42-.42.17-.09.36-.14.55-.14.13,0,.26.03.39.08h0v-11.64h-4.28l.09,17.02Z"/>
      <path class="cls-2" d="M14.95,57.42c-.02.1-.04.19-.03.29,0,.1.02.19.04.28.03.09.06.18.11.26.09.16.23.3.39.4.02.01.04.02.06.03v-2.32s-.46.77-.46.77c-.05.09-.09.19-.12.29Z"/>
      <polygon class="cls-10" points="14.92 26.37 14.92 27.65 14.76 27.65 14.92 27.72 15.37 27.65 15.42 37.94 19.71 37.94 19.71 27.65 16.03 27.65 16.03 26.48 19.71 26.48 19.71 23.65 19.32 22.98 17.87 25.49 17.43 26.24 16.57 26.24 14.92 26.24 11.87 26.24 11.87 26.37 14.92 26.37"/>
      <polygon class="cls-1" points="26.54 37.94 27.48 37.36 27.48 26.24 26.79 26.24 26.54 26.24 26.54 26.48 26.54 37.94"/>
      <path class="cls-1" d="M27.01,87.97c-.51.48-.47.89-.47.85l.47-.09c.4-.33.47-.57.47-1.09v-13.59c0-.57-.28-1.1-.74-1.43l-.2-.14v15.16l.47.33Z"/>
      <polygon class="cls-8" points="10.93 37.36 11.87 37.94 11.87 27.65 10.93 27.65 10.93 37.36"/>
      <polygon class="cls-8" points="10.93 26.37 11.87 26.37 11.87 26.24 11.84 26.24 10.98 26.24 10.93 26.24 10.93 26.37"/>
      <path class="cls-8" d="M10.93,74.05v13.17c0,.52.23,1.01.63,1.34l.32.27v-16.34l-.2.14c-.46.33-.74.86-.74,1.43Z"/>
      <rect class="cls-1" x="26.54" y="98.15" width=".95" height="1.37" rx=".25" ry=".25"/>
      <rect class="cls-8" x="10.93" y="98.15" width=".95" height="1.37" rx=".25" ry=".25"/>
      <polygon class="cls-1" points="19.71 37.94 15.42 37.94 14.92 37.94 13.12 37.94 13.12 39.34 14.92 39.34 15.43 39.34 19.71 39.34 24.45 39.34 26.54 37.94 25.77 37.94 19.71 37.94"/>
      <polygon class="cls-10" points="14.92 71.31 13.65 71.31 12.29 72.48 14.92 72.48 15.6 72.48 19.71 72.48 25.77 72.48 26.54 72.48 24.45 71.31 19.71 71.31 15.6 71.31 14.92 71.31"/>
      <path class="cls-10" d="M23.7,27.65h.51c.56,0,1.11-.18,1.56-.5.11-.08.22-.15.31-.24l.46-.43h-10.51v1.18h7.67Z"/>
      <polygon class="cls-1" points="15.68 87.65 14.92 87.65 13.44 87.65 14.92 89.16 15.69 89.16 16.39 87.65 15.68 87.65"/>
      <path class="cls-1" d="M27.01,87.97l-.47-.33h-5.85l.1,1.18h5.75s-.04-.37.47-.85Z"/>
      <polygon class="cls-7" points="17.96 87.65 18.17 85.01 18.16 85.03 16.39 87.65 17.96 87.65"/>
      <polygon class="cls-7" points="15.69 89.16 17.67 89.16 17.69 89.16 17.81 89.16 17.96 87.65 16.39 87.65 15.69 89.16"/>
      <rect class="cls-6" x="25.77" y="98.15" width=".77" height="1.37" rx=".25" ry=".25"/>
      <polygon class="cls-10" points="14.92 37.41 12.27 37.41 12.27 37.94 13.12 37.94 14.92 37.94 14.92 37.41"/>
      <polygon class="cls-10" points="14.92 26.37 11.87 26.37 10.93 26.37 10.93 27.65 11.87 27.65 14.76 27.65 14.92 27.65 14.92 26.37"/>
    </g>
  </g>
</svg>