<?xml version="1.0" encoding="UTF-8"?>
<svg id="Layer_2" data-name="Layer 2" xmlns="http://www.w3.org/2000/svg" xmlns:xlink="http://www.w3.org/1999/xlink" viewBox="0 0 122.74 200">
  <defs>
    <style>
      .cls-1 {
        fill: #ffae8c;
      }

      .cls-2 {
        fill: #b7a18b;
      }

      .cls-3 {
        fill: #ff4067;
      }

      .cls-4 {
        fill: #d12c30;
      }

      .cls-5 {
        fill: #cf163d;
      }

      .cls-6 {
        fill: #060607;
      }

      .cls-7 {
        fill: #716463;
      }

      .cls-8 {
        fill: #121213;
      }

      .cls-9 {
        fill: #ebbf86;
      }

      .cls-10 {
        fill: #2c3b4d;
      }

      .cls-11 {
        fill: #a99481;
      }

      .cls-12 {
        fill: #573e2d;
      }

      .cls-13 {
        fill: #ff3b45;
      }

      .cls-14 {
        fill: #b1242a;
      }

      .cls-15 {
        fill: #968c8c;
      }

      .cls-16 {
        fill: #da3b23;
      }

      .cls-17 {
        fill: #dc3d24;
      }

      .cls-18 {
        fill: #3b3535;
      }

      .cls-19 {
        fill: #314155;
      }

      .cls-20 {
        fill: #961d23;
      }

      .cls-21 {
        fill: #8c8266;
      }

      .cls-22 {
        fill: #968d8d;
      }

      .cls-23 {
        fill: #c7a98b;
      }

      .cls-24 {
        fill: #d2a97e;
      }

      .cls-25 {
        fill: #948b8a;
      }

      .cls-26 {
        fill: #574e4f;
      }

      .cls-27 {
        fill: #b1a496;
      }

      .cls-28 {
        fill: #a01f24;
      }

      .cls-29 {
        fill: #d0c0a9;
      }

      .cls-30 {
        fill: #ff4e56;
      }

      .cls-31 {
        fill: #8a807f;
      }

      .cls-32 {
        fill: #3a3435;
      }

      .cls-33 {
        fill: #c1a689;
      }

      .cls-34 {
        fill: #b4252c;
      }

      .cls-35 {
        fill: #2d2828;
      }

      .cls-36 {
        fill: #901c21;
      }

      .cls-37 {
        fill: #151516;
      }

      .cls-38 {
        fill: #d6a577;
      }

      .cls-39 {
        fill: #931c23;
      }

      .cls-40 {
        fill: #1b1a1b;
      }

      .cls-41 {
        fill: #ffa483;
      }

      .cls-42 {
        fill: #ba262c;
      }

      .cls-43 {
        fill: #cfae8f;
      }

      .cls-44 {
        fill: #bcb2a3;
      }

      .cls-45 {
        fill: #474040;
      }

      .cls-46 {
        fill: #e84026;
      }

      .cls-47 {
        fill: #bfa993;
      }

      .cls-48 {
        fill: #430c17;
      }

      .cls-49 {
        fill: #cb2a31;
      }

      .cls-50 {
        fill: #ff8a73;
      }

      .cls-51 {
        fill: #554c4d;
      }

      .cls-52 {
        fill: #e33d25;
      }

      .cls-53 {
        fill: #c6b7a3;
      }

      .cls-54 {
        fill: #f74428;
      }

      .cls-55 {
        fill: #d5c2a8;
      }

      .cls-56 {
        fill: #05090b;
      }

      .cls-57 {
        fill: #3f3939;
      }

      .cls-58 {
        fill: #574e50;
      }

      .cls-59 {
        fill: #ff7e6d;
      }

      .cls-60 {
        fill: url(#linear-gradient);
      }

      .cls-61 {
        fill: #c1b199;
      }

      .cls-62 {
        fill: #eb4026;
      }

      .cls-63 {
        fill: #781820;
      }

      .cls-64 {
        fill: #eec997;
      }

      .cls-65 {
        fill: #bea486;
      }

      .cls-66 {
        fill: #db3c24;
      }

      .cls-67 {
        fill: #d3b37c;
      }

      .cls-68 {
        fill: #ffab87;
      }

      .cls-69 {
        fill: #cab595;
      }

      .cls-70 {
        fill: #9a9391;
      }

      .cls-71 {
        fill: #b60d35;
      }

      .cls-72 {
        fill: #bba181;
      }

      .cls-73 {
        fill: #bb272c;
      }

      .cls-74 {
        fill: #ff967c;
      }

      .cls-75 {
        fill: #d0a799;
      }

      .cls-76 {
        fill: #363030;
      }

      .cls-77 {
        fill: #ff5d63;
      }

      .cls-78 {
        fill: #ff997c;
      }

      .cls-79 {
        fill: #ff5259;
      }

      .cls-80 {
        fill: #3f302c;
      }

      .cls-81 {
        fill: #b3a99a;
      }

      .cls-82 {
        fill: #ff9a7f;
      }

      .cls-83 {
        fill: #9c9693;
      }

      .cls-84 {
        fill: #b49b7f;
      }

      .cls-85 {
        fill: #ffa684;
      }

      .cls-86 {
        fill: #352f2f;
      }

      .cls-87 {
        fill: #0c0b0b;
      }

      .cls-88 {
        fill: #ff9176;
      }

      .cls-89 {
        fill: #ff9278;
      }

      .cls-90 {
        fill: #947748;
      }

      .cls-91 {
        fill: #c1b5a6;
      }

      .cls-92 {
        fill: #bcb3a4;
      }

      .cls-93 {
        fill: #a09992;
      }

      .cls-94 {
        fill: #b7aea0;
      }

      .cls-95 {
        fill: #d53922;
      }

      .cls-96 {
        fill: #7d5010;
      }

      .cls-97 {
        fill: #b8a797;
      }

      .cls-98 {
        fill: #f7ce65;
      }

      .cls-99 {
        fill: #ff9a7c;
      }

      .cls-100 {
        fill: #c8ab90;
      }

      .cls-101 {
        fill: #918887;
      }

      .cls-102 {
        fill: #415c7a;
      }

      .cls-103 {
        fill: #ff665d;
      }

      .cls-104 {
        fill: #c6a274;
      }

      .cls-105 {
        fill: #604432;
      }

      .cls-106 {
        fill: #847a78;
      }

      .cls-107 {
        fill: #0d0d0e;
      }

      .cls-108 {
        fill: #ff504c;
      }

      .cls-109 {
        fill: #ffa385;
      }

      .cls-110 {
        fill: #c8b597;
      }

      .cls-111 {
        fill: #4a4243;
      }

      .cls-112 {
        fill: #eb4028;
      }

      .cls-113 {
        fill: #1f1f20;
      }

      .cls-114 {
        fill: #f0802f;
      }

      .cls-115 {
        fill: #93784a;
      }

      .cls-116 {
        fill: #ff5059;
      }

      .cls-117 {
        fill: #d1c7ba;
      }

      .cls-118 {
        fill: #322d2d;
      }

      .cls-119 {
        fill: #262626;
      }

      .cls-120 {
        fill: #9b1e25;
      }

      .cls-121 {
        fill: #ffae8b;
      }

      .cls-122 {
        fill: #aa2227;
      }

      .cls-123 {
        fill: #3e5876;
      }

      .cls-124 {
        fill: #c5bcad;
      }

      .cls-125 {
        fill: #908685;
      }

      .cls-126 {
        fill: #afa7a6;
      }

      .cls-127 {
        fill: #090a0a;
      }

      .cls-128 {
        fill: #a4a29f;
      }

      .cls-129 {
        fill: #ffd85a;
      }

      .cls-130 {
        fill: #b9272b;
      }

      .cls-131 {
        fill: #4c4445;
      }

      .cls-132 {
        fill: #e8ccab;
      }

      .cls-133 {
        fill: #3d6b79;
      }

      .cls-134 {
        fill: #bcb1a1;
      }

      .cls-135 {
        fill: #ffa180;
      }

      .cls-136 {
        fill: #e94026;
      }

      .cls-137 {
        fill: #961e22;
      }

      .cls-138 {
        fill: #c0a17f;
      }

      .cls-139 {
        fill: #55141d;
      }

      .cls-140 {
        fill: #911d23;
      }

      .cls-141 {
        fill: #e8c69d;
      }

      .cls-142 {
        fill: #d5ab7e;
      }

      .cls-143 {
        fill: #e23d25;
      }

      .cls-144 {
        fill: #ffaf89;
      }

      .cls-145 {
        fill: #eedfbe;
      }

      .cls-146 {
        fill: #afa1a3;
      }

      .cls-147 {
        fill: #6a4f36;
      }

      .cls-148 {
        fill: #544b4c;
      }

      .cls-149 {
        fill: #425b77;
      }

      .cls-150 {
        fill: #ff9d84;
      }

      .cls-151 {
        fill: #ffa988;
      }

      .cls-152 {
        fill: #45423b;
      }

      .cls-153 {
        fill: #ffb28d;
      }

      .cls-154 {
        fill: #3f363b;
      }

      .cls-155 {
        fill: #ff464d;
      }

      .cls-156 {
        fill: #bb9a6f;
      }

      .cls-157 {
        fill: #35465b;
      }

      .cls-158 {
        fill: #373131;
      }

      .cls-159 {
        fill: #85765b;
      }

      .cls-160 {
        fill: #9d1f24;
      }

      .cls-161 {
        fill: #baa288;
      }

      .cls-162 {
        fill: #4b4344;
      }

      .cls-163 {
        fill: #7b6f6e;
      }

      .cls-164 {
        fill: #ff8475;
      }

      .cls-165 {
        fill: #080809;
      }

      .cls-166 {
        fill: #f44328;
      }

      .cls-167 {
        fill: #ffac8a;
      }

      .cls-168 {
        fill: #ff9e7c;
      }

      .cls-169 {
        fill: #be292e;
      }

      .cls-170 {
        fill: #8e8684;
      }

      .cls-171 {
        fill: #0c0c0c;
      }

      .cls-172 {
        fill: #050607;
      }

      .cls-173 {
        fill: #1b1d1f;
      }

      .cls-174 {
        fill: #b29a7c;
      }

      .cls-175 {
        fill: #c2b6a6;
      }

      .cls-176 {
        fill: #f5c362;
      }

      .cls-177 {
        fill: #b01d38;
      }

      .cls-178 {
        fill: #ea4127;
      }

      .cls-179 {
        fill: #d2ba97;
      }

      .cls-180 {
        fill: #ffaa86;
      }

      .cls-181 {
        fill: #500f18;
      }

      .cls-182 {
        fill: #ee4127;
      }

      .cls-183 {
        fill: #2c2727;
      }

      .cls-184 {
        fill: #bbaf9f;
      }

      .cls-185 {
        fill: #694b36;
      }

      .cls-186 {
        fill: #070607;
      }

      .cls-187 {
        fill: #8d5b14;
      }

      .cls-188 {
        fill: #c4ac96;
      }

      .cls-189 {
        fill: #877e7c;
      }

      .cls-190 {
        fill: #e4cdb1;
      }

      .cls-191 {
        fill: #252123;
      }

      .cls-192 {
        fill: #4e4647;
      }

      .cls-193 {
        fill: #ca2b2e;
      }

      .cls-194 {
        fill: #202021;
      }

      .cls-195 {
        fill: #a39a8f;
      }

      .cls-196 {
        fill: #cc2d30;
      }

      .cls-197 {
        fill: #ffd961;
      }

      .cls-198 {
        fill: #a8967d;
      }

      .cls-199 {
        fill: #a19f9c;
      }

      .cls-200 {
        fill: #ffb28b;
      }

      .cls-201 {
        fill: #4e4546;
      }

      .cls-202 {
        fill: #393333;
      }

      .cls-203 {
        fill: #dab26d;
      }

      .cls-204 {
        fill: #ffb18a;
      }

      .cls-205 {
        fill: #a59e97;
      }

      .cls-206 {
        fill: #3b3435;
      }

      .cls-207 {
        fill: #ff5d61;
      }

      .cls-208 {
        fill: #504647;
      }

      .cls-209 {
        fill: #ff967a;
      }

      .cls-210 {
        fill: #d33922;
      }

      .cls-211 {
        fill: #34465c;
      }

      .cls-212 {
        fill: #394d65;
      }

      .cls-213 {
        fill: #ff8571;
      }

      .cls-214 {
        fill: #ddbd8f;
      }

      .cls-215 {
        fill: #b99b72;
      }

      .cls-216 {
        fill: #a79d9d;
      }

      .cls-217 {
        fill: #b59b7b;
      }

      .cls-218 {
        fill: #8f1c21;
      }

      .cls-219 {
        fill: #9e2025;
      }

      .cls-220 {
        fill: #ce3621;
      }

      .cls-221 {
        fill: #3a3434;
      }

      .cls-222 {
        fill: #c5bcb2;
      }

      .cls-223 {
        fill: #161616;
      }

      .cls-224 {
        fill: #1e1f20;
      }

      .cls-225 {
        fill: #a72327;
      }

      .cls-226 {
        fill: #1b1b1b;
      }

      .cls-227 {
        fill: #55403a;
      }

      .cls-228 {
        fill: #1a2330;
      }

      .cls-229 {
        fill: #574d4d;
      }

      .cls-230 {
        fill: #e23e25;
      }

      .cls-231 {
        fill: #cfa799;
      }

      .cls-232 {
        fill: #f4462b;
      }

      .cls-233 {
        fill: #d6b687;
      }

      .cls-234 {
        fill: #6d685e;
      }

      .cls-235 {
        fill: #d7c0a4;
      }

      .cls-236 {
        fill: #473530;
      }
    </style>
    <linearGradient id="linear-gradient" x1="-403.71" y1="542" x2="-403.71" y2="751" gradientTransform="translate(203.62 -5.45) scale(.24)" gradientUnits="userSpaceOnUse">
      <stop offset="0" stop-color="#77694e"/>
      <stop offset="1" stop-color="#344253"/>
    </linearGradient>
  </defs>
  <g id="Layer_1-2" data-name="Layer 1">
    <g>
      <path d="M82.36,173.59c-14.54,1.27-27.88,1.33-41.81.33l-5.31,26.07-25.86-.53L.3,149.68c-1.45-7.95,2.66-20.57,6.97-27.73,6.93,8.21,16.07,14.53,23.16,9.27,5.31-27.42,21-40.39,6.55-58.39C44.25,48.16,52.21,24.1,61.45,0c9.58,26.28,17.32,48.7,24.25,72.89-5.53,9.8-8.81,20.84-1.65,32.44l8.57,24.63c3.02,8.67,17.35.9,21.55-7.65,4.88,5.1,9.69,17.35,8.33,24.98l-9.35,52.52-26.22-.4-4.58-25.82Z"/>
      <g id="Generative_Object" data-name="Generative Object">
        <g>
          <path class="cls-165" d="M72.01,176.61l-21.15.04c-1.33,0-2.4-.47-3-1.71l-7.49-.02c-.52.86-.63,1.82-.85,2.82l-4.44,20.26c-.15.68-.54,1.94-1.4,1.94H11.14c-.61-.08-.87-1.24-.95-1.7l-3.13-17.45-3.92-21.69-2.64-13.92c-.25-1.32-.55-2.73-.49-4.15.37-8.49,4.21-16.65,7.99-24.08.25-.5.65-.83,1.04-.86.62-.06.96.27,1.34.83,3.27,4.81,8.21,7.75,13.72,8.96.4.09,1.45.32,1.67-.04l4.18-12.35,8.74-24.67c1.2-3.39,1.27-7.2.44-10.57-.47-1.91-3.07-4.18-2.58-6.05,3.94-14.96,8.33-29.65,13.39-44.29,3.2-9.26,6.76-18.23,10.63-27.13.18-.41.46-.59.69-.72.31-.18.75.07.94.5,2.8,6.24,5.28,12.46,7.63,18.97,4.3,11.9,8.33,23.72,11.74,35.91l1.72,6.15,2.8,10.15c.68,2.47-2.28,4.68-2.68,7.03-.46,2.7-.23,5.53.19,8.15.28,1.72.96,3.17,1.49,4.86l7.18,20.18,4.72,14.14c6.2-.71,11.67-4.06,15.1-9.37.33-.51.69-.71,1.24-.64.42.06.76.31,1.08.84,4.02,6.68,7.29,14.63,8.24,22.49.2,1.62.04,3.22-.28,4.88l-2.4,12.83-4.14,23.66-3.19,17.82c-.19,1.05-.87,1.39-1.81,1.38h-20.69c-.92-.01-1.81-.34-2.03-1.4l-5.01-23.63-8.41.02c-.7.6-1.53,1.61-2.68,1.61ZM60.48,6.12c-2.26,5.28-4.35,10.69-6.36,16.24l-1.64,4.26-3.59,10.56-1.95,6.19c1.47.66,2.76,1.08,4.09,1.39.7.16,1.44.53,2.3.52l2.67-8.97,4.02-.16c.31-.01.65-.22,1.09-.15l-.05-20.72c.3.05.31.37.48.56l-.04,19.31c-.21.19-.21.52-.18.7.02.14.29.34.53.34l4.97.06,2.69,8.64c.53.35,2.08-.14,2.54-.69,1.15.08,2.28-.67,3.71-1.1-4.42-13.26-8.96-26.19-14.2-39.25-.58.7-.78,1.55-1.09,2.27ZM56.34,38.95l-2.74,9.1c1,.25,1.77-.06,2.51-.08l12.67.09c.35-.38.11-1.15-.07-1.73l-2.82-9.12h-9.03s-.52,1.73-.52,1.73ZM73.7,49.85l4.65,20.91,5.1-1.78c.08-.59-.13-1.03-.33-1.7l-2.78,1.03c-.27.1-.51.31-.81.24-.19-.05-.44-.24-.51-.57l-.79-3.4-2.95-11.93,3.36-1.28-.93-2.78-2.37.86c-.25.09-.51-.2-.45-.41l2.69-1.18-1.5-3.94c-.91.32-2.38.58-3.11,1.39-.34,1.17.35,2.82.73,4.52ZM46.72,48.28c.35.16.57.41.95.41.08.1.24.39.3.67l-2.78-1.04-.93,3.08,3.67,1.28-1.92,7.67c-.69,2.75-1.13,5.47-2.06,8.3l-4.2-1.41-.52,1.98,4.45,1.39c.31.1.76.18,1,.05.2-.11.43-.49.51-.88l3.54-17.49,1.11-5.83.03-.82-3.39-1.23-1.02,3.06c-.15.44.9.62,1.27.79ZM70.13,46.36c-1.26.24-.01,2.4-1.69,3.61l-14.16.04c-.5,0-.94-.65-.91-1l-.3-1.93c-.02-.16-.06-.44-.22-.47l-.57-.09c-.03-.1-.16-.16-.25-.09-.56-.26-1.23-.57-1.73-.13l-1.64,8.46-3.34,16.22c-.26.65-1.73.27-2.1.17.05-.09-.26-.25-.27.02l-3.69-1.27c-.34-.11-.38.75-.44,1.07-.11.53-.39,1.33-.38,2l3.12,5.43c3.36,7.67,4.81,15.96,3.73,24.41l-1.33,6.19,3.04,2.5,1.35,1.36,4.06-6.26c.56-.87-.06-2.4-.11-3.48-.08-1.58.05-3.05-.63-4.27-.14-.26-.23-.61-.48-.81-2.84-5.48-3.12-9.55-3.04-15.76.07-5.7.63-11.23,1.87-16.77,1.18-5.25,3.03-10.64,7.92-12.53.94-.37,1.82-.43,2.94-.49,6.26-.34,9.63,4.57,11.31,10.5,1.84,6.54,2.69,13.22,2.67,20.12.18,5.7-1.21,10.93-3.86,15.69-.17.25-.52.67-.5,1.07.08,1.72-.76,3.83-.24,5.68.75,2.69,2.78,4.78,4.16,7.3l2.7-2.35,1.84-1.57-.96-4.11-.25-1.74c-.08-.57-.3-1.2-.31-1.89l-.06-7.49c.5-7.44,2.98-14.46,7.07-20.72.34-1.07-.37-2.33-.6-3.31l-3.04.98c-.39.12-.76.13-1.13.36-.32.19-1.13.48-1.45.07-.44-.56-.54-1.32-.63-2.07l-5.03-22.18c.1-.31-.08-.91-.37-.86l-2.03.39ZM45.78,57.02l.9-3.53-2.68-1.03-1.06,3.38,2.84,1.18ZM77.19,56.95c.96-.59,1.69-.93,2.71-1.2l-1.02-3.22c-.96.39-1.77.51-2.54,1.12l.85,3.3ZM54.33,56.86c-1.34,2.03-2.31,4.32-2.95,6.83-1,3.94-1.61,7.87-2.03,11.96l-.31,10.32c-.07,2.22.44,4.26.94,6.35.57,2.35,1.4,4.36,2.66,6.43.73,1.19.69,2.93.8,4.34.25,3.23,1.22,6.16,2.87,8.99h10.13c1.17-2.03,2.04-4.24,2.46-6.45.53-2.75.09-5.45,1.43-7.74,1.84-3.14,2.89-6.59,3.33-10.11.74-5.89-.05-14.36-1.28-20.53-.55-2.77-2.43-8.73-3.13-8.82-2.14-4.32-5.42-5.31-10.24-4.59-1.98.3-3.61,1.41-4.68,3.03ZM45.04,59.99l.6-2.13-2.9-1.18-.64,2.36,2.95.95ZM80.66,58.83l-.64-2.2c-.8.44-1.63.73-2.61.95l.6,2.14,2.64-.88ZM79.84,67.66l2.96-1.02-1.85-6.92-2.78.76,1.67,7.18ZM43.35,67.75l1.63-7.02-3.15-.88-1.81,6.75,3.33,1.15ZM91.93,123.48l-2.77-3.93c-.21-.95-.91-1.81-1.33-2.69l-2.46-4.9c.1-.5-.25-.97-.44-1.47l-1.33-3.63c-1.02-2.78-1.44-5.76-1.94-8.82v-7.53s.35-9.51.35-9.51c-2.22,4.02-3.22,8.41-3.47,13.06-.73,13.57,5.03,24.56,11.94,35.54.46.74,1.52,1.93,2.45,1.67,1.12-.43,1.57-2.23,2.35-3.02.61-.61.24-.93.11-1.48-.42-1.81-.82-3.45-1.45-5.18l-2.17-5.92-2.84,1.32c.83,1.81,1.91,3.4,3.12,5.1l2.76,3.85c-.01.18-.38.57-.52.51s-.48-.21-.63-.42l-1.75-2.54ZM29.63,120.06c.74.23,1.21.87,1.9,1.35,1.03-1.28,1.63-2.61,2.15-4.14-.87-.69-1.65-.98-2.72-1.45l-1.12,3.05c-.15.41-.3.73-.22,1.19-.22.03-.34.32-.14.59-.96,1.54-1.34,3.28-1.96,4.9-.26.69-.33,1.29.19,2.01.79,1.1,1.43,2.68,2.44,3.62.83.81,2.73-1.74,3.62-3.34l4.93-8.93c1.38-2.51,2.36-4.96,3.2-7.65,2.15-6.86,3.3-13.95,1.91-21.12-.6-3.09-1.25-6.09-3.02-8.91l.47,13c.35,9.64-4.37,20.85-9.72,28.59l-2.58,3.73c-.08.11-.59.01-.62-.09s-.06-.2-.04-.52c-.11-.05-.42-.32-.36-.5.04-.14.33-.2.48-.39l2.76-3.3c-.5-.53-.85-.53-1.31-.4l-.27-1.3ZM38.99,95.84l1.48.64-.25-6.7c-.84,1.25-.87,2.49-.91,3.75-.7.5-1.06,2-.32,2.31ZM82.68,96.22c.29-.57.83-.77,1.62-.73l-.27-1.31c-.06-.3.08-.44-.14-.82-.1-.18-.41-.12-.76.08-.28-.4.05-.72.52-.46l-.84-3c-.93,5.58-.02,10.55,1.45,15.81l3.6-1.45-3.28-8.48c-.63.06-1.08.67-1.9.36ZM38.55,105.81c.99-2.89,1.43-5.69,1.83-8.6l-2.55-1.07-2.5,7.2c-.08.24-.31.93-.06,1.04l3.27,1.43ZM38.13,106.68l-2.2-1.02c-.39-.18-.74-.35-1.34-.43l-1.57,4.76-1.58,4.96,2.85,1.35c1.29-2.35,4.45-9.33,3.84-9.61ZM85.77,106.16l-1.08.5c.07.84.52,1.6.84,2.43.92,2.36,1.79,4.64,3.16,6.97l2.9-1.15-3.52-9.71-2.3.96ZM67.62,112.46l-.97.7c-.35.29-1.33-.27-1.86.29l-6.25-.02c-.76-.49-1.65-.09-2.48-.25-.49-.1-.82-.79-1.17-1.04l-2.04-5.07-3.71,5.63c-.38.58-.47,1.08-.18,1.74l2.17,4.92,2.58,5.53h15.17c2.04-3.81,3.55-7.52,5.23-11.42l-2.97-4.72c.06-.33-.18-.38-.29-.51-.33-.39-.4-.92-1.1-1.42-.56,2.04-1.4,3.84-2.13,5.64ZM43.59,110.47c-.16.88-.99,1.9-.94,3l1.83,19.11,4.03-1.25c.61-.19,1.13-.47,1.58-1.15l3.06-4.64c-.37-1.21-.97-2.31-1.48-3.25-.02-.4-.24-.64-.38-.96l-2.96-6.98c-.36-.86-.37-1.6-1.39-2.13-.42-.22-.79-1.04-1.4-.99-.03-.45-.72-.98-1.12-1.01l-.26-.36c-.15-.2-.3.04-.37.13-.13.17-.18.28-.22.47ZM76.72,111.6l-1.94,1.79-3.33,7.79c-.15.42-.34.77-.39,1.22-.69.64-.98,1.91-1.51,2.87l3.66,5.59,5.1,1.71,1.9-19.58-1.29-3.31-2.2,1.93ZM80.8,133.91l2.56.65c.26,1.75.07,3.32-.12,5.05-.09.76.12,1.57-.77,2,.43-.87.34-1.63.38-2.41l.2-4.11-3.36-.86-1.36,14.14,5.18.31,2.78.09,1.73.33,1.22-18.61-5.78-10.37c-.68-1.23-.99-2.48-2.01-3.69l-1.08,9.83-.74,7.32,1.16.32ZM34.5,145.53l.19,3.47,4.52-.39c.63-.05,1.55.27,2.22.04.44-.16.82-.25,1.18-.21.51.06,1.05.15,1.71-.1l-.47-5.69-.75-7.42c-1.12.11-2.07.43-3.14.85l.18,5.64c0,.09.31.36.24.35,0,.15-.08.24-.18.25-.25.03-.41-.19-.43-.5l-.38-5.93,1.94-.77c.54-.22,1.23-.22,1.76-.64l-.43-4.96-.79-8.26c-.14-1.42,0-2.81-.58-4.32-2.55,4.78-4.92,9.25-7.77,13.72l.99,14.87ZM8.9,119.4c-.59.41-.83,1.18-1.19,1.9l-1.3,2.69c-.07.01-.11.14-.08.2.05.12.19.19.29.26l2.55,1.63,5.64,4.85-1.85,4.47-.85,1.87-3.39,8.46c-.38.36-.6.18-1.08.14l-2.83-.26c-.47-.04-1.12-.05-1.58-.09-.27-.02-.94-.15-1,.25-.12.81.3,1.63.44,2.62l5.09.82c.48.08.85-.04,1.2.35.27.29.35.7.43,1.16l2.36,13.79,2.09,12.17,1.34,8.78,5.69.02c.61-1.14.78-2.38,1.04-3.59l.8-3.68-2.46-.51-.37-.11-1.78-.38c-.09-.02-.23-.07-.36-.11l-.97-.29c-.35-.4-.47-1.18-.53-1.89l-.78-8.45-.12-1.73.51-.9c.29-.5.91-.3,1.41-.22l8.6,1.41c.34-1.12.8-2.17.73-3.28-.04-.68-1.36-.76-1.91-.64-.06-.3-.34-.34-.63-.41-1.52-.38-2.91-.99-4.37-1.12-.47-.32-1.06-.6-1.7-.48-.1-.34-.38-.62-.72-.74l.03-.76c0-.13-.02-.28-.17-.28-.06-.75-.22-1.54-.46-2.2l-.08-.97c0-.24,0-.45-.16-.55-.06-.24-.13-.46-.07-.68.03-.12-.05-.33-.14-.3-.13-.3-.12-.61-.1-.93,0-.07-.02-.17.03-.26-.3-.3-.23-.6-.29-.96l-.83-4.5-.08-.46c-.48-.64-.23-1.3.13-2.03l4.01-7.93c.36-.71.95-1.26,1.72-1.48l8.17-2.36c.03-.48-.28-.75-.43-1.02-.3-.55-.61-1.43-1.25-1.67-.03-.43-.14-.55-.35-.78-.32-.35-.66-.14-1.07-.21l-3.11-.54-3.29-.92c-.45-.26-1.07-.81-1.55-.92-.12-.03-.38-.2-.5-.15-.32-.21-.71-.4-1.07-.43-.06-.41-.48-.42-.78-.65l-2.09-1.57-1.8-1.63c-.28-.25-.67-.62-.91-.92s-.4-.79-.85-.89c.11-.34-.16-.68-.48-.83-.41-.2-.44.58-.48.85ZM112.99,118.86c-.61.31-.91,1.18-1.45,1.8-6.06,7.04-14.08,7.09-14.7,7.44-.25.14-.59.48-.52.86-.83.88-1.66,1.93-1.83,2.82l6.45,2.03c.79.25,1.95.39,2.59,1.05l4.55,9.4-1.52,7.66-1.1,5.27c-.09.45-.03.83-.44,1.16-.21.17-.53.3-.92.42l-7.13,2.17c-.3.09-.96.2-.92.61.12,1.13.42,2.33.96,3.49l9.16-1.66c.45-.08.83-.05.98.39l.28.8c.13.36-.04.66-.06,1.02l-.19,3.03-.25,2.9-.31,3.36c-.07.72-.03,1.52-.84,1.9-1.4.66-3.4.85-4.89,1.28-.15.04-.51.06-.63.21-.09.11.02.4-.01.6l1.3,5.87c.06.27.44.71.71.7l5.11-.05,1.83-11.78,3.45-20.54c.21-1.25.3-2.43.81-3.69l6.44-1.07c.58-.47.65-1.82.59-2.64-1.51-.47-3.72.36-6.44.07-.06-.09-.15-.36-.24-.43l-5.58-13.08c-.18-.42-.32-.79-.21-1.11.08-.23.32-.51.6-.75l5.31-4.55,1.68-1.27c.1-.08.49-.19.58-.13s.03.32.41.32l-.89-2.01-1.4-2.57c-.07-.13-.19-.34-.35-.33-.06-.39-.28-1.04-.71-1.23-.23-.1-.31.19-.27.24ZM5.48,126.2l-.15.32c-1.65,3.47-2.77,7.25-3.44,11.19l-.09,4.36.25,2.74,3.04.23,2.7.02,2.02-4.74,3.41-7.85.29-.62c.06-.14-.11-.34-.18-.46-.26-.47-.72-1.17-1.3-1.15-.19-.39-.56-.84-.97-.75-.32-.72-1.13-1.05-1.71-1.53l-.87-.72c-.15-.12-.22-.3-.52-.2-.14-.52-1.72-1.51-2-1.46-.21.04-.41.44-.5.64ZM116.05,125.95c-.36.03-.57.26-.7.58-.48-.05-.93.48-.99.95-.38.02-.5.33-.7.5l-3.51,2.8c-.31.25-1.2.68-1.04,1.21l2.6,5.96,2.94,7.08,4.75-.29c.25-.02.66-.03.99.05.88-.46.76-1.82.74-2.68l-.1-3.72-.43-2.48c-.03-.17-.07-.21-.18-.27l-.3-1.71c-.02-.12-.06-.22-.1-.3-.06-.1-.13-.24-.11-.32.06-.24-.17-.3-.25-.37,0-.49-.01-1.21-.46-1.47.07-.37-.14-.58-.26-.73.02-.46-.27-.89-.47-1.26-.01-1.16-.75-2.16-1.18-3.19l-.14-.33c-.05-.12-.07-.35-.23-.42-.09-.04-.27-.02-.36,0-.17.02-.48.24-.5.41ZM53.59,125.99l-3.77,5.48c-.85.79-2.35.7-3.28,1.34-.58-.1-1.18.36-2.08.66l1.83,18.78,5.58-.09c-.1.17-.33.51-.51.51h-5.01c-.07.17.02.26.05.26.23,4.36.81,8.61,1.37,13.06.1.8.19,2.1.85,2.51l4.7.12c.8.02,1.66.29,2.54-.15l-.03-7.41v-33.77c0-.68-.02-1.24-.4-1.5-.63,0-1.32-.15-1.83.19ZM56.26,126.03l-.16,1.53-.02,33.63.08,7.47h10.37s-.01-7.34-.01-7.34l-.06-29.85-.02-5.42-.17-.25h-9.71c-.19-.03-.27.14-.29.24ZM67,161.31c0,2.34.12,4.64-.11,7.32h6.57c.39,0,1.27-.29,1.32-.73l1.31-11.27.27-3.7s-.03-.17-.08-.24h-5.19s-.46-.03-.46-.03c.03-.08.35-.33.09-.47l5.79.09,1.85-18.69c.03-.27-.42-.32-.6-.41-.33-.18-.75-.25-1.12-.34-.03-.1-.26-.24-.34,0l-3.09-1.14c-.53-.18-.75-.93-1.07-1.3-.16-.18-.18-.64-.59-.67.09-.33-.14-.69-.47-.73.08-.24.02-.48-.24-.5.04-.14-.05-.29-.21-.25.06-.49-.45-.73-.66-1.07l-.45-.72c-.12-.85-1.76-.93-2.65-.38l.06,8.22.08,27.02ZM18.32,139.01l-2.67,5.39,1.96,10.4.77,3.09c3.1.97,5.9,1.92,9.2,2.48l5.27-10.49c.68-1.36.03-3.33-.1-4.81l-.65-6.96-.18-3.09-.36-2.05c0-.15-.07-.48-.22-.6l-11.06,3.18-1.95,3.48ZM89.97,146.53c-.1,1.07-.07,2.23-.38,3.4l5.44,10.49,9.36-2.81,2.57-12.9c.18-.89-.42-1.77-.83-2.42-.02-.36-.27-.62-.38-.91-.04-.12-.22-.33-.34-.33l-1.56-3.16c-.23-.47-.55-.94-.9-1.27-.02-.81-.45-1.19-1.23-1.4l-7.73-2.09c-.99-.27-1.84-.75-2.94-.72.05.69-.09,1.25-.13,1.86l-.2,3.03-.25,3.63c-.07,1.06-.2,2.19-.31,3.34l-.21,2.24ZM39.06,159.57l3.38.27,3.02-.19-.96-9.46-.1-1.22c-1.02.08-1.98-.24-2.95.2-2.17,0-4.62.04-6.71.56l-5.89,11.14,4.97,4.13,5.24-5.44ZM78.2,150.12l-1,9.52c2.32.35,4.45.15,6.74.12l1.47,1.5c1.34,1.37,2.44,2.85,4.04,4.11l3.98-3.57c.1-.09.33-.13.39-.24.14-.22-.02-.47-.16-.73l-5.57-10.68-.11-.31c-.04-.1-.26-.23-.39-.24l-8.91-.6c-.46-.03-.57.83-.48,1.14ZM14.34,185.46l-5.77-32.58c-.15-.86-.25-2.32-1-2.66-1.46-.67-3.03-.65-4.72-1.05l1.46,8.3,3.41,18.88,1.68,9.18,4.94-.07ZM113.51,185.42l2.34-13.51,4.17-22.71-5.69.89-4.91,28.2-1.05,7.27,5.13-.15ZM38.31,160.96c-.06.16-.35.37-.36.53l-3.91,4.06-4.88-3.75c-.22-.17-.4-.33-.6-.33-.22,0-.43.19-.5.47l-2.73,10.96-3.09,11.6c-.19.72-.53,1.51-.88,2.05l-5.77-.09c-.21,0-.24.15-.23.25l.09,2.16.52,3.94,10.94-.02,2.62-.02,2.39-11.55,2.92-14.07c1.6-1.17,2.79-3.2,4.61-3.97l6.12-.26c.11-.61.03-1.77-.08-2.35-.02-.09-.08-.47-.2-.47l-6.02.05c-.45,0-.85.54-.96.82ZM77.03,160.59l-.07,2.35,6.65.12,4.11,3.91,4.41,21.62.84,4.09c.89.31,1.81.08,2.6.08l12.05.04.23-3.28c.07-.97.21-1.91.22-2.79,0-.24-.32-.27-.54-.27l-6.11-.14c-.68-.25-.73-1.07-.91-1.73l-1.21-4.56-1.98-7.24-2.05-8.57c-.24-.73-.27-1.61-.72-2.37-.16-.26-.59.26-.63.4-.39.05-.76.37-1.02.78l-3.44,2.76c-2.06-1.53-3.65-3.5-5.4-5.3-.1-.11-.29-.15-.42-.42l-6.29.03c-.16.06-.31.37-.31.49ZM39.68,173.51l4.94-.02,2.82-.04-1.23-8.77c-.58-.45-1.27-.04-1.68-.06l-2.24-.11-2.36.03c-1.52.83-2.71,1.91-3.91,3.12.07,1.38-.35,2.51-.6,3.76l-1.9,9.44-2.53,11.94,3.8-.04,2.96-13.44,1.24-5.63.7-.19ZM81.51,164.72l-.34-.2c-.26-.15-.59.03-.67.28-.42-.63-.94-.17-1.22-.18l-2.77-.13-1.42,9.02,9.08.03,1.93,8.75,2.17,10.57,3.35-.12-3.21-15.32-1.14-5.51c-.9-4.33-.33-4.64-3.73-7.18-.51-.38-1.52-.31-2.01,0ZM25.59,166.99c.05-.27.04-.45.28-.74l-3.93-.65c-.76-.13-1.57-.09-2.3-.09.01-.28-1.34-.47-2.6-.5-.12-.08-.24-.27-.57-.22l.3,5.16c.11,1.99.15,3.87.61,5.84l5.76,1.34,2.15-8.43.3-1.7ZM105.34,164.91l-2.61.39c-.12.02-.22.04-.22.14-.99-.03-1.9.21-2.85.34l-.26-.03c-1.02.59-2.48-.13-2.27.79l2.46,10.74,5.81-1.7.58-5.45.37-5.3c-.47-.25-.79.05-1.01.08ZM47.73,169.22l.79,3.46c.23,1.01,1.33,1.87,2.44,1.87l20.57.03c1.11,0,2.38-.63,2.55-1.66l.61-3.71c.04-.23-.28-.32-.4-.24l-.67.48h-24.11c-.26-.42-.74-.2-.94-.29l-.46-.21c-.16-.08-.37.02-.38.28ZM15.22,190.54c-.19-1.29-.07-2.64-.37-4.09l-5.18.09,1.19,6.33h4.62c.07-.77-.14-1.53-.26-2.33ZM108.55,186.68l-.61,5.99c.57.14,1.05.17,1.48.16l2.75-.07,1.12-6.32c-.7-.17-1.22-.04-1.74-.03l-2.63.05c-.19,0-.32.05-.37.22ZM29.21,193.8l-18.07.05c-.13,1.27.29,2.7.69,4.31h16.65s4.88.04,4.88.04l1.2-4.43-5.35.02ZM92.51,198.16l3.36.03,15.38.03.66-4.48-16.51.13-3.85-.12-3.04-.07.41,1.68c.25,1.03.46,2.21,1.47,2.64l2.13.16Z"/>
          <path class="cls-60" d="M113.93,125.84l-5.31,4.55c-.28.24-.52.52-.6.75-.11.32.03.69.21,1.11l5.58,13.08c-.09.21-.17.49,0,.7.47.58,1.88.11,2.75.03l1.77-.17c.66-.06,1.41-.08,2.16-.2.06.82-.02,2.18-.59,2.64l-6.44,1.07c-.51,1.26-.6,2.45-.81,3.69l-3.45,20.54-1.83,11.78-5.11.05c-.27,0-.65-.43-.71-.7l-1.3-5.87c.03-.21-.08-.5.01-.6.12-.14.48-.17.63-.21.03.34.35.34.56.26l.58-.22c1.31-.49,2.68-.47,3.81-.97.73-.33,1.06-1.07,1.12-1.84l.22-2.73.21-2.81.26-2.86c.08-.93.08-1.87.09-2.91-.32.13-.26.4-.3.58l-.28-.8c-.15-.44-.53-.47-.98-.39l-9.16,1.66c-.54-1.15-.85-2.36-.96-3.49l7.97-2.37c.44-.13,1.36-.36,1.49-.93l1.34-5.83c.06-.26-.09-.52-.29-.5l1.52-7.66-4.55-9.4c-.64-.66-1.81-.8-2.59-1.05l-6.45-2.03,1.37-1.86c.21-.32.54-.54.45-.96.7-.75,1.33-.67,2.27-.83,5.19-.88,9.96-3.27,13.43-7.48l.74-1.04c.19-.32.55-.19.64.07.04.12-.14.2.13.52-.71,1.32.68,3.33.42,5.63ZM110.83,125.59s-.29.26-.19.34c.22.18.71.09.86.11.29.03.38-.23.29-.38-.18-.29-.4-.35-.63-.43-.17-.18-.2-.15-.33-.07-.17.1-.3.3,0,.43ZM106.53,137.28c-.43-.37-.58-.35-.79-.21.25.54.69.33.79.21Z"/>
          <path class="cls-116" d="M72.53,46.83l5.03,22.18c.09.75.2,1.51.63,2.07.32.41,1.13.12,1.45-.07-.04.23.24.37.37.26l.36-.31c.25.25.59,0,.4-.3l3.04-.98c.23.97.94,2.24.6,3.31-4.1,6.26-6.58,13.27-7.07,20.72-.11.08-.57,0-.54-.13s.32-.64-.35-.58c-.11-.13-.02-.64,0-.87l-.26-.27c-.15.74-.23,1.51-.2,2.36l.2,6.14.15,1.7c.49,2.17.55,4.37.59,6.72.01.56.5,1.12.16,1.73l-2.7,2.35c-1.38-2.52-3.41-4.61-4.16-7.3-.52-1.86.32-3.96.24-5.68.45-.05.7-.7.5-1.07,2.65-4.76,4.04-9.99,3.86-15.69.03-6.9-.82-13.58-2.67-20.12-1.67-5.93-5.04-10.84-11.31-10.5-1.12.06-2,.13-2.94.49.03-.08.01-.2-.02-.29.01.03-1.51.09-1.52-2.38h11.85c.24,0,.29-.21.23-.34,1.67-1.21.43-3.37,1.69-3.61.02.32.23.24.37.26.23.04.59-.16.77-.22.69-.24.98,0,1.26.43ZM76.29,109.47c.19-.54-.5-.69-.57,0-.17.27.35.49.57,0Z"/>
          <path class="cls-79" d="M66.43,126.03l.02,5.42.06,29.85-10.43-.12.02-33.63.16-1.53h10.17ZM61.18,135.52c-.03.2.2.41.27.36.12-.09.12-.27.09-.36-.05-.17-.34-.22-.37,0Z"/>
          <path class="cls-236" d="M31.55,132.96c-.17,1.68.33,3.2.24,4.96-.13.09-.07.54.3.18l.65,6.96c.14,1.48.78,3.46.1,4.81l-5.27,10.49c-3.3-.56-6.1-1.51-9.2-2.48l-.77-3.09-1.96-10.4,2.67-5.39c.12.13.25.12.37-.02.13-.14.22-.32.34-.52l1.52-2.71,8.39-2.33c.92-.26,1.73-.69,2.61-.47ZM25.57,140.51c.02.29.03.45.14.58.31.38,1.55.48,1.78-.28.14-.47.51-1.03.39-1.54-.11-.47-.47-1.09-1.05-1.08-.46,0-.83-.09-1.1.16-.23.22-.39.46-.42,1.03-.59-.22-.58.61-.06.46.14.27.32.52.33.66ZM17.51,146.19c-.35.14-.18.27-.12.35.16.24.45.21.59.21.58.53,1.79.25,1.26-.07.2-.33.89-.54.89-1.07,0-.75-.4-1.26-1.03-1.52-.38-.16-.82-.17-1.14.06-.46.34.1.96-.6,1.57-.09.08-.06.33.14.46ZM18.36,153.51c-.01.1.08.21.22.31.2.15.3-.03.41-.12.57-.1,1.13-.15,1.46-.58s.41-1.01.32-1.62c-.14-.98-.82-1.7-1.85-1.59-.47.05-.82.17-.95.43-.2.4-.16.72.16.92.07-.41.13-.51.31-.71.1-.11.3-.03.49.2.46-.2.9-.41.99.02l.13.61c.4.39.18.87.11,1.16-.3,1.13-1.7.1-1.79.95ZM18.07,152.67c.3-.56.12-.85,0-1.01-.19.46-.13.75,0,1.01Z"/>
          <path class="cls-227" d="M102.97,136.64c.05.68.63,1.32.94,1.95l.9,1.85c.14.28.25.63.61.62.12,0,.3.21.34.33-.16.11-.23.45-.08.64.1.13.23.25.46.27.41.64,1,1.53.83,2.42l-2.57,12.9-9.36,2.81-5.44-10.49c.31-1.18.27-2.33.38-3.4.42.27.43-.48.54-2.11l.19-2.77.27-3.11.24-3.42.26-2.39,4.86,1.44,5.65,1.53.99.95ZM95.59,140.74c.09.64.54.55.85.6.53.08.96-.04,1.02-.59.02-.17.9-1.79-.27-2.49-.42-.25-1.03-.18-1.49.08-.55.32-.54.99-.63,1.78-.11.19.43.34.52.61ZM102.92,145.53c-.31.73.27,1.23.63,1.38.53.22,1.31.19,1.58-.33.38-.74.82-1.52.26-2.35-.33-.49-1.03-.45-1.44-.31-.58.2-.94.69-1.12,1.2-.24-.13-.46.1-.38.28.1.23.58.2.47.13ZM103.6,153.13c-.72-.32-.8-1.56-.55-2.06.29-.58.65-.75,1.23-.6.3.08.56.36.83.79.04-.9-.58-1.35-1.27-1.32-1.06.05-1.79,1.38-1.43,2.64-.66.03-.21.76.14.27.41.56.95.72,1.45.64s1.16-.64.78-1.31c-.07.33-.56,1.22-1.17.95Z"/>
          <path class="cls-3" d="M72.06,44.2c-.46.55-2.01,1.04-2.54.69l-2.69-8.64-4.97-.06c-.24,0-.51-.2-.53-.34-.03-.18-.04-.5.18-.7l.04-19.31c-.17-.19-.18-.5-.48-.56l.05,20.72c-.45-.07-.78.13-1.09.15l-4.02.16-2.67,8.97c-.86.01-1.6-.36-2.3-.52.04-.13.05-.24-.01-.39.82-4.22,1.76-8.17,2.92-12.32l4.74-17,2.67-8.43,2.71,7.76,4.14,14.71,2.18,8.4c.59,2.28,1.38,4.41,1.68,6.72ZM60.36,14.35c.31.21.54.24.73.1.1-.07.22-.23.09-.46-.24-.4-.5-.39-.76-.3-.32.1-.46.4-.06.66ZM59.64,29.07c-.45-.21-.59.38-.05.3.26.07.35-.26.05-.3Z"/>
          <path class="cls-166" d="M70.85,108.24c-.34.06-.2.22-.14.3.15.18.26.25.43.21l2.97,4.72c-1.68,3.9-3.19,7.61-5.23,11.42h-15.17s-2.58-5.53-2.58-5.53l-2.17-4.92c-.29-.66-.2-1.16.18-1.74l3.71-5.63,2.04,5.07c.18.46.42,1.47,1.32,1.48l9.37.11c1.07.01,1.71-.47,2.03-1.27.73-1.8,1.57-3.6,2.13-5.64.7.5.77,1.02,1.1,1.42Z"/>
          <path class="cls-102" d="M9.39,118.55c-.06.44.17.75.48.83-.14.44.41.92.85.89.24.31.63.67.91.92-.1.3.14.66.41.88l2.15,1.75c.66.54,1.33,1.14,2.13,1.23.04.24.22.44.41.49s.53-.01.66-.06c.12-.05.38.12.5.15.07.64,1,.75,1.55.92,1.97,1.16,4.39,1.67,6.94,1.76.28,0,.61.6.89.7.08.64.68,1.36,1.25,1.67.15.27.46.54.43,1.02l-8.17,2.36c-.77.22-1.36.77-1.72,1.48l-4.01,7.93c-.37.72-.61,1.39-.13,2.03-.24-.02-.35.28-.27.59.02.1.25.29.35-.13l.83,4.5c-.3.05-.23.34-.23.6,0,.33.15.47.52.36-.04.1-.02.19-.03.26-.32.06-.26.34-.26.62,0,.25.06.42.36.32.09-.03.17.18.14.3-.28-.02-.27.35-.28.56,0,.16.06.66.35.12.17.1.16.31.16.55-.3.06-.29.34-.26.62.02.13-.05.43.33.35l-.22.43c-.1.13-.32.1-.36-.05-.15-.49-.38-.15-1.03-.54-.11-.06-.33.26-.42.42-.4.04-.92-.24-1.28.21l-1.22-4.11c-.45-.7-1.95-.85-2.71-.77-.08-.45-.17-.87-.43-1.16-.36-.39-.72-.27-1.2-.35l-5.09-.82c-.14-.98-.56-1.81-.44-2.62.33.03.83.12,1-.25.46.03,1.11.04,1.58.09-.32.23,0,.59.29.38l2.91.28c.18.02.51,0,.67-.09.14-.07.38-.27.06-.45l3.39-8.46c.21.3.33-.07.4-.22l.2-.43.4-.7c.08-.15.28-.42-.15-.52l1.85-4.47-5.64-4.85.56-4.18c.07-.57.43-1.28-.16-1.79-.12-.11.04-.39-.04-.52-.1-.16-.52-.33-.62-.18.04-.27.07-1.05.48-.85Z"/>
          <path class="cls-62" d="M52.04,46.43c.09-.07.22,0,.25.09,0,.33.48.49.78.56l.3,1.93c-.11.2-.3.55-.03.81.13.13.42.39.69.4l2.35.08c.02,2.47,1.54,2.41,1.52,2.38.03.08.05.21.02.29-4.89,1.9-6.74,7.29-7.92,12.53-1.24,5.54-1.8,11.08-1.87,16.77-.08,6.21.21,10.28,3.04,15.76-.16.18-.12.46,0,.6.1.11.2.29.48.21.68,1.23.55,2.69.63,4.27.05,1.08.68,2.62.11,3.48l-4.06,6.26-1.35-1.36c0-.25.18-.52.2-.67-.85-1.05-1-2.65-.82-4.02l.92-7.16c.45-3.5.13-6.71-.36-10.15-.6-4.23-1.27-8.17-3.05-12.09-.14-.3-.33-.63-.33-.87,0-.29.29-.63.52-.76-.62.03-.84-.09-.87-.43-.02-.23-.03-.53.23-.76.19-.16.72.24.85.28.21-.37.37-.61.49-.66-.07.03-.05-1.12-.12-1.33-.09-.24-.32-.31-.59-.24.17-.45.18-.8.05-.93-.38-.35-1.22,0-.9-.55.37.11,1.84.48,2.1-.17l3.34-16.22,1.64-8.46c.58.03,1.16.58,1.73.13Z"/>
          <path class="cls-230" d="M95.26,164.23l2.05,8.57.17,1.58,1.45,5.19c-.12.3.07.56.36.46l1.21,4.56c.17.66.23,1.48.91,1.73-.07.07-.13.25-.05.39l6.71.02c0,.88-.15,1.82-.22,2.79l-.23,3.28-12.05-.04-.87-3.84-2.06-9.75-3.18-13.39,3.44-2.76c.32-.12.95-.18,1.02-.78.24-.06.61.11.65.29l.15.86c.05.26.22.51.19.73-.01.09.23.24.37.09ZM100.6,190.57c-.54-.32-.82-.13-.98,0,.45.19.72.13.98,0Z"/>
          <path class="cls-210" d="M34.04,165.56c.15.04.08.18,0,.18-.16,0-.42,0-.78-.28l-3.14,13.35-1.29,5.62-1.92,8.37-10.94.02-.52-3.94-.09-2.16,6-.16c.35-.53.69-1.33.88-2.05l3.09-11.6,2.73-10.96c.07-.28.28-.46.5-.47.2,0,.38.16.6.33l4.88,3.75Z"/>
          <path class="cls-157" d="M16.42,155.55l.43,1.33c-.23.26.02.57.25.44.16,0,.17.15.17.28-.26.02-.26.17-.27.37-.01.27.12.32.24.39.02.23.04.43.25.61.15.12.3.13.46.13.38.58,1.11.43,1.7.48.92.62,4.47,1.57,5,1.53.52.44,1.32.39,1.91.64.07,1.11-.39,2.17-.73,3.28l-8.6-1.41c-.5-.08-1.12-.28-1.41.22l-.51.9c-.25.44-.35,1.38.12,1.73l.78,8.45c.07.71.18,1.49.53,1.89.12.14.18.46.4.53.25.08.54.06.57-.24.13.04.27.09.36.11-.24.24.05.6.39.32.42.47,1.14.45,1.4.07l.37.11c-.27.25.08.61.36.29.73.43,1.41.43,2.1.22l-.8,3.68c-.26,1.21-.43,2.44-1.04,3.59l-5.69-.02-1.34-8.78-2.09-12.17-2.36-13.79c.77-.08,2.26.08,2.71.77l1.22,4.11c.36-.45.88-.18,1.28-.21.09-.17.32-.48.42-.42.66.39.89.04,1.03.54.04.14.26.18.36.05Z"/>
          <path class="cls-162" d="M83.6,106.87c-.26.36-.12.73.05,1.15l1.39,3.55c.07.19.1.46.33.4-.07.35.05.62.23.99l1.6,3.31c.14.29.24.62.64.61.43.88,1.13,1.74,1.33,2.69.12.56.36.99.71,1.53l1.26,1.92c.19.29.47.57.79.47l1.75,2.54c.14.21.49.35.63.42s.51-.33.52-.51l-2.76-3.85c-1.21-1.69-2.3-3.29-3.12-5.1l2.84-1.32,2.17,5.92c.63,1.73,1.03,3.37,1.45,5.18.13.56.5.87-.11,1.48-.78.79-1.24,2.59-2.35,3.02-.92.26-1.98-.93-2.45-1.67-6.91-10.98-12.67-21.97-11.94-35.54.25-4.65,1.25-9.04,3.47-13.06l-.35,9.51v7.53c.5,3.07.91,6.04,1.94,8.82ZM93.22,120.49c-.66-.33-.88-.08-1.14.16-.24.22-.25.29-.18.46.1.25.37.22.36.11-.01-.17.04-.3.24-.39l.72-.33Z"/>
          <path class="cls-131" d="M113.51,185.42l-5.13.15,1.05-7.27,4.91-28.2,5.69-.89-4.17,22.71-2.34,13.51ZM112.67,179.34l.3-.88c.09-.27-.59-1.04-1.27-.86-.22.06-.41.43-.31.81.16.62,1.24.49,1.11,1.01-.09.37.45.22.17-.08Z"/>
          <path class="cls-221" d="M29.63,120.06l.27,1.3c.46-.13.81-.13,1.31.4l-2.76,3.3c-.15.18-.44.25-.48.39-.05.17.25.45.36.5-.01.32,0,.42.04.52s.54.2.62.09l2.58-3.73c5.34-7.73,10.07-18.95,9.72-28.59l-.47-13c1.77,2.82,2.42,5.81,3.02,8.91,1.39,7.17.24,14.27-1.91,21.12-.84,2.69-1.82,5.14-3.2,7.65l-4.93,8.93c-.89,1.61-2.78,4.16-3.62,3.34-1.01-.94-1.65-2.52-2.44-3.62-.52-.72-.46-1.32-.19-2.01.62-1.62,1-3.36,1.96-4.9-.2-.27-.08-.56.14-.59Z"/>
          <path class="cls-111" d="M55.43,57.69c-1.45,1.93-2.01,4.26-2.69,6.66-1.47,5.15-2.01,10.75-2.19,16.28-.23,7.34-.13,13.69,5.4,18.95.11,1.49.35,2.78.85,3.98-.85.79,1.13,1.17,3.16,1.07l5.67-.28c.26-.08.29-.92.82-.83.44.07,1.13-.26,1.27.64-.03.14.4.33.71.01l.47,1.44c-.43,2.21-1.29,4.42-2.46,6.44h-10.13c-1.65-2.82-2.62-5.75-2.87-8.98-.11-1.41-.07-3.14-.8-4.34-1.26-2.07-2.09-4.07-2.66-6.43-.5-2.1-1.01-4.13-.94-6.35l.31-10.32c.42-4.09,1.03-8.02,2.03-11.96.63-2.51,1.61-4.81,2.95-6.83.59-.03.84.38,1.1.84ZM60.07,108.58c.42-.15.86.04,1.24-.17.11-.06.39-.29,0-.43l.24-.36c.17-.26-.73-1.52.28-1.46-.15-.36-.66-.58-.87-.74.21-.42-.21-.41-.28-.12-.04.16-.03.24.24.58-1.05.1-1.22.62-1.52,1.56l.65,1.13Z"/>
          <path class="cls-76" d="M14.34,185.46l-4.94.07-1.68-9.18-3.41-18.88-1.46-8.3c1.68.4,3.25.38,4.72,1.05.75.34.85,1.81,1,2.66l5.77,32.58ZM7.64,156.67c-.47.2-.91-.16-1.06.05-.06.46-.5.67-.36.82.44.43.72.68,1.16.75s.48-.53.62-.75c.24-.37.28-.6-.35-.87ZM10.89,177.22c-.6.06-1.11.67-.91,1.12.25.57.52,1.18,1.17.93.44-.17.98-.66.81-1.26-.12-.42-.5-.86-1.08-.8Z"/>
          <path class="cls-155" d="M55.82,161.07l-3.11.23-.78-8.45-5.55.09s-.12-.09-.05-.26h5.01c.18,0,.41-.34.51-.51l-1.6-18.21c-.76-.2-.47-1.16-.64-1.89-1.16.16-2,.93-3.09.74.93-.64,2.44-.55,3.28-1.34l3.77-5.48c.58.03,1.31.25,1.83-.19.38.26.4.82.4,1.5v33.77Z"/>
          <path class="cls-207" d="M69.52,126.45l.45.72c-.19.49.24.95.66,1.07.16-.04.26.11.21.25-.27,0-.23.17-.13.27.17.16.23.21.36.23-.1.32.17.71.47.73-.03.2-.01.35.12.5.11.13.21.28.47.17.32.37.54,1.12,1.07,1.3l3.09,1.14c-1.15.04-2.24-.6-3.46-.82l-.35,2.9c-.15,1.27-.37,2.46-.19,3.64.03.1.05.31-.14.32l-1.43,13.32c.25.14-.06.38-.09.47l-.99,8.65-2.3-.06-.07-35.14c.9-.24,1.6-.13,2.25.34Z"/>
          <path class="cls-194" d="M79.27,164.62l-.27,8.55h2.49s.02-8.45.02-8.45c.49-.3,1.5-.38,2.01,0,3.4,2.55,2.84,2.86,3.73,7.18l1.14,5.51,3.21,15.32-3.35.12-2.17-10.57-1.93-8.75-9.08-.03,1.42-9.02,2.77.13Z"/>
          <path class="cls-206" d="M74.69,169.21l-.61,3.71c-.17,1.03-1.44,1.66-2.55,1.66l-20.57-.03c-1.11,0-2.21-.86-2.44-1.87l-.79-3.46c.34.12.9.44,1.32.44l24.79.05c.3-.31.59-.39.85-.5Z"/>
          <path class="cls-191" d="M42.28,164.52c.07.19-.22.48-.23.74l-.27,7.91-1.93-.02c-.19,0-.29.21-.17.37l-.7.19-1.24,5.63-2.96,13.44-3.8.04,2.53-11.94,1.9-9.44c.25-1.25.67-2.38.6-3.76,1.2-1.21,2.39-2.29,3.91-3.12l2.36-.03Z"/>
          <path class="cls-16" d="M76.29,132.84c.08-.25.3-.1.34,0-.17.26.13.57.45.27.15.26.36.36.53.34.08-.01.17-.12.13-.27.17.1.63.14.6.41l-1.85,18.69-5.79-.09,1.43-13.32c.53,0,.96.09,1.34-.14l-1.2-.17c-.17-1.17.04-2.36.19-3.64l.35-2.9c1.22.22,2.32.86,3.46.82Z"/>
          <path class="cls-160" d="M51.87,152.17l-5.58.09-1.83-18.78c.91-.3,1.5-.77,2.08-.66,1.09.19,1.93-.58,3.09-.74.18.73-.12,1.7.64,1.89l1.6,18.21Z"/>
          <path class="cls-220" d="M71.08,152.68c-.04.09.03.28.23.25h5.04s-.27,3.7-.27,3.7l-1.31,11.27c-.05.44-.93.73-1.32.73h-6.57c.23-2.68.12-4.98.11-7.32.1.05.25-.07.34-.07l2.3.06.99-8.65.46.02Z"/>
          <path class="cls-163" d="M56.1,47.98c-.74.01-1.51.32-2.51.08l2.74-9.1c.24.13.54-.05.44-.37-.04-.12.23-.26.2-.81l3.44-.14c.96-.04,1.9-.41,2.88-.03.74.28,1.58.13,2.39-.07l3.08,10.27-12.67.18ZM59.19,41.45c1.25.44,2.61.13,4.01.21.18-.59.51-.97.43-1.46.22.06.55,0,.67-.2s0-.78-.35-.78l-5.34.06c-.04,1.61.29,2.77.58,2.17ZM57.25,47.3c.34-.05.51-.25.48-.56-.02-.13-.26-.22-.46-.25-.13-.02-.22-.04-.4.23-.22.09-.33.28-.22.4.18.2.33.22.6.18ZM65.96,47.32c.39,0,.5-.17.53-.35.01-.1-.14-.22-.19-.29-.29-.41-.43-.18-.6-.14-.25.06-.34.19-.3.41s.16.37.57.37Z"/>
          <path class="cls-71" d="M61.35,6.61l-2.67,8.43-4.74,17c-1.16,4.15-2.1,8.1-2.92,12.32.06.15.05.26.01.39-1.33-.31-2.62-.73-4.09-1.39l1.95-6.19,3.59-10.56,1.64-4.26c2.01-5.54,4.1-10.96,6.36-16.24.46.03.58-.57.89-1.3.37.69.16,1.24-.02,1.78Z"/>
          <path class="cls-46" d="M44.5,150.2c-.18.08-.34-.03-.33-.13l.04-.71c-.55-.27-1.23.13-1.66.24l-3.29-.12-.2,10.09-5.24,5.44-4.97-4.13,5.89-11.14c2.09-.52,4.54-.55,6.71-.56.97-.44,1.93-.13,2.95-.2l.1,1.22Z"/>
          <path class="cls-122" d="M42.67,129.53c-.35,0-.4-.16-.47-.39-.09-.31-.14-.57,0-.92l-1.73-.52.86,6.72c-.11.12-.29.35-.15.46.07.05.12.13.16.24l-1.94.77.38,5.93c.02.31.18.53.43.5.09-.01.18-.1.18-.25.27.16.94.51,1.14.29.15-.03.25.01.28.09l.18.42c.48,1.75.51,3.52.36,5.31l.27.27c-.36-.04-.74.05-1.18.21-.67.24-1.59-.09-2.22-.04l-.15-6.46-.48-7.42-.9-8.48-1.89,3.44c-.87,1.57-1.06,2.98-1.02,4.75l.27,10.78c0,.3-.42.37-.54.32l-.99-14.87c2.86-4.47,5.22-8.94,7.77-13.72.58,1.52.45,2.91.58,4.32l.79,8.26Z"/>
          <path class="cls-130" d="M42.96,71.17c0-.27.32-.11.27-.02-.32.56.52.2.9.55.14.13.12.48-.05.93.26-.07.5,0,.59.24.08.21.05,1.36.12,1.33-.12.05-.28.3-.49.66-.13-.04-.66-.44-.85-.28-.26.23-.25.53-.23.76.03.35.25.46.87.43-.23.13-.52.47-.52.76,0,.24.19.57.33.87,1.78,3.92,2.46,7.86,3.05,12.09.48,3.44.81,6.65.36,10.15l-.92,7.16c-.18,1.37-.03,2.97.82,4.02-.02.14-.19.42-.2.67l-3.04-2.5,1.33-6.19c1.08-8.45-.37-16.73-3.73-24.41l-3.12-5.43c-.01-.66.27-1.46.38-2,.13.14.35.03.34-.08s-.04-.46.09-.64c1.19.2,2.51.96,3.7.91Z"/>
          <path class="cls-5" d="M72.06,44.2c-.3-2.32-1.09-4.44-1.68-6.72l-2.18-8.4-4.14-14.71-2.71-7.76c.17-.54.39-1.09.02-1.78-.31.72-.42,1.33-.89,1.3.31-.72.51-1.57,1.09-2.27,5.23,13.07,9.77,26,14.2,39.25-1.43.43-2.55,1.18-3.71,1.1Z"/>
          <path class="cls-95" d="M73.21,130.85l1.24-6.78c.33-1.93.7-3.73.95-5.69s1.04-3.74.87-5.63c-.04-.5.39-.66.45-1.15l2.2-1.93,1.29,3.31-1.9,19.58-5.1-1.71Z"/>
          <path class="cls-39" d="M84.05,160.5c1.74,1.8,3.34,3.78,5.4,5.3l3.18,13.39,2.06,9.75.87,3.84c-.78,0-1.7.23-2.6-.08l-.84-4.09-4.41-21.62-4.11-3.91-6.65-.12.07-2.35,7.03-.1Z"/>
          <path class="cls-49" d="M85.18,126.28c-1.2,2.61-.8,6.24-.96,8.86l-.56,9.15c-.09,1.5-.46,2.96-.15,4.39l-5.18-.31,1.36-14.14,3.36.86-.2,4.11c-.04.78.05,1.54-.38,2.41.9-.43.69-1.24.77-2,.2-1.72.39-3.29.12-5.05l-2.56-.65,1.25-5.18.63-2.94.72-2.17c.98.83,1.3,1.77,1.78,2.66ZM81.71,137.71c.59-.28.3-.75.21-.81-.24.32-.35.6-.21.81Z"/>
          <path class="cls-54" d="M87.59,149.59c-.1.36.21.68.5.56l5.57,10.68c.14.27.29.51.16.73-.06.1-.3.15-.39.24,0-.39.19-.74-.21-1.11-.95,1.48-2.16,2.37-3.24,3.57l-6.19-6.99c-.21-.34-.49-1.2-.48-1.63l.12-6.14h-3.55c-.5,0-1.01-.3-1.45.15.14.28.02.6-.23.48-.1-.31.01-1.17.48-1.14l8.91.6Z"/>
          <path class="cls-20" d="M45.5,160.56c.11.58.18,1.74.08,2.35l-6.12.26c-1.82.77-3.01,2.81-4.61,3.97l-2.92,14.07-2.39,11.55-2.62.02,1.92-8.37,1.29-5.62,3.14-13.35c.36.28.62.28.78.28.08,0,.16-.14,0-.18l3.87-3.55c.18-.17.05-.41.03-.51,0-.16.3-.38.36-.53.25.23.53-.14.7-.36l6.48-.04Z"/>
          <path class="cls-28" d="M44.43,110.22c.2.43.65,1.08,1.12,1.01.03.41.56.65.87.9l1.19,8.14.91,7.74c.13,1.13.42,2.27-.01,3.31l-4.03,1.25-1.83-19.11c-.05-1.09.78-2.11.94-3,.3-.06.5-.29.84-.24Z"/>
          <path class="cls-137" d="M52.72,161.3l.6,7.32-4.7-.12c-.66-.41-.75-1.71-.85-2.51-.56-4.44-1.14-8.7-1.37-13.06l5.55-.09.78,8.45Z"/>
          <path class="cls-133" d="M113.44,128.69c.04.23.37.39.45.56l1.42,2.82c-.3.26-.04.54.25.41.16.61.11,1.12.39,1.52,1.58,2.18,2.91,4.88,2.26,7.32-.31.18-1.2.37-.86,1.04-.35.48.1,1,.61.52.38.63.92.39,1.34.33,0,.62-.3,1.16.1,1.51l-4.75.29-2.94-7.08-2.6-5.96,3.33-2.57c.34-.27.83-.54.99-.73Z"/>
          <path class="cls-17" d="M17.04,165.01c.72.61,1.69.5,2.6.5,0,.17,2.35.52,4.05.69.83.08,1.54.01,1.9.79l-.3,1.7-2.15,8.43-5.76-1.34c-.47-1.96-.5-3.85-.61-5.84l-.3-5.16c.32-.04.45.14.57.22Z"/>
          <path class="cls-182" d="M97.13,166.54l1.58-.3c.22-.04.59.05.7-.1.06-.08.04-.27,0-.39l.26.03c.51.48,1.17.14,1.94-.02.25-.05.94.24.92-.32,0-.1.1-.12.22-.14.8.42,1.91.12,2.61-.39.22-.03.55-.32,1.01-.08l-.37,5.3-.58,5.45-5.81,1.7-2.46-10.74Z"/>
          <path class="cls-136" d="M39.22,148.61l-4.52.39-.19-3.47c.12.05.55-.02.54-.32l-.27-10.78c-.04-1.77.15-3.18,1.02-4.75l1.89-3.44.9,8.48.48,7.42.15,6.46Z"/>
          <polygon class="cls-4" points="66.52 161.31 66.53 168.66 56.16 168.65 56.08 161.19 66.52 161.31"/>
          <path class="cls-123" d="M11.07,129.48c.19.42.5.78.97.75.24.49.77,1.05,1.3,1.15.07.12.25.32.18.46l-.29.62-3.41,7.85-2.02,4.74-2.7-.02s0-.26-.05-.35c-.08-.14-.36-.23-.71-.14l.67-1.54c-.5-.04-.57-.52,0-.57-.05.03-.4-.13-.41-.25l-.09-.61c.06-1.81.88-3.4,1.23-5.16.43-2.19,2.45-5.09,3.33-7.96.7.07,1.23.51,1.69,1.09l.3-.08Z"/>
          <path class="cls-35" d="M29.21,193.8l-.54,3.02c-.09.5-.27.89-.19,1.35H11.83c-.4-1.62-.82-3.05-.69-4.32l18.07-.05Z"/>
          <path class="cls-42" d="M93.43,161.8l-3.98,3.57c-1.6-1.26-2.69-2.74-4.04-4.11l-1.47-1.5c-2.29.04-4.42.23-6.74-.12l1-9.52c.25.12.36-.2.23-.48.44-.45.95-.15,1.45-.15h3.55s-.12,6.14-.12,6.14c0,.42.27,1.29.48,1.63l6.19,6.99c1.08-1.2,2.29-2.09,3.24-3.57.4.37.22.72.21,1.11Z"/>
          <path class="cls-30" d="M86.28,148.77l-2.78-.09c-.31-1.43.06-2.89.15-4.39l.56-9.15c.16-2.62-.24-6.25.96-8.86l2.78,5.12-.65,12.41c-.07,1.35,0,2.81-.48,4.03-.21.05-.47.17-.48.3l-.07.63ZM85.12,142.8c-.45-.21-.59.38-.05.3.26.07.35-.26.05-.3Z"/>
          <path class="cls-34" d="M86.28,148.77l.07-.63c.01-.14.28-.26.48-.3.47-1.23.41-2.68.48-4.03l.65-12.41-2.78-5.12c-.48-.89-.8-1.83-1.78-2.66l-.72,2.17-.63,2.94-1.25,5.18-1.16-.32.74-7.32,1.08-9.83c1.01,1.2,1.32,2.46,2.01,3.69l5.78,10.37-1.22,18.61-1.73-.33Z"/>
          <polygon class="cls-76" points="95.87 198.19 95.39 193.87 111.9 193.74 111.24 198.22 95.87 198.19"/>
          <path class="cls-211" d="M7.97,127.02c.04.12.07.19.22.38.09.11.27.15.29-.17l.87.72c-.22.12-.23.34-.28.52-.88,2.88-2.89,5.77-3.33,7.96-.35,1.76-1.18,3.35-1.23,5.16l.09.61c.02.12.37.27.41.25-.56.05-.49.53,0,.57l-.67,1.54c.35-.1.63,0,.71.14.05.09.04.31.05.35l-3.04-.23-.25-2.74c.22-.02.27-.22.25-.49-.54-6.43,3.66-14.71,3.54-14.92-.04-.08-.1-.16-.27-.14l.15-.32c.3,0,.67-.35.93-.15l.65.5c.25.19.53.59.91.47Z"/>
          <path class="cls-149" d="M117.14,125.96l.14.33c-.24-.04-.31.21-.21.41l1.38,2.78c0,.44.11,1,.47,1.26.03.09.04.25.02.34-.07.3.08.29.25.38-.06.4.15,1.21.46,1.47v.39c0,.17.08.48.36.3.05.08.08.18.1.3-.42.37-.13,1.47.3,1.71.11.06.15.1.18.27-.51.29,0,1.07,0,2.31,0,.15.29.26.42.17l.1,3.72c.02.86.14,2.21-.74,2.68-.33-.08-.74-.06-.99-.05-.4-.36-.11-.89-.1-1.51-.42.05-.96.3-1.34-.33-.51.48-.96-.04-.61-.52-.34-.68.55-.86.86-1.04.66-2.44-.68-5.14-2.26-7.32-.29-.4-.23-.9-.39-1.52-.29.12-.55-.15-.25-.41l-1.42-2.82c-.08-.16-.41-.33-.45-.56l.39-.45c.07-.08.12-.31-.17-.28.21-.17.32-.47.7-.5s.85-.57.99-.95c.21.02.33.02.49-.11.17-.14.21-.27.2-.47.02-.17.34-.38.5-.41.03.26.31.54.58.42ZM118.22,142.06c-.45-.21-.59.38-.05.3.26.07.35-.26.05-.3Z"/>
          <path class="cls-13" d="M51.29,121.33c-.37.13-.18.35-.11.52.14.33.17.48.49.44.5.93,1.11,2.04,1.48,3.25l-3.06,4.64c-.45.68-.97.96-1.58,1.15.44-1.04.14-2.19.01-3.31l-.91-7.74-1.19-8.14c-.31-.25-.84-.49-.87-.9.6-.05.98.77,1.4.99,1.01.54,1.02,1.27,1.39,2.13l2.96,6.98Z"/>
          <path class="cls-77" d="M76.72,111.6c-.06.49-.5.65-.45,1.15.17,1.89-.62,3.73-.87,5.63s-.62,3.76-.95,5.69l-1.24,6.78-3.66-5.59c.54-.95.82-2.23,1.51-2.87.44-.4.61-.61.39-1.22l3.33-7.79,1.94-1.79Z"/>
          <path class="cls-158" d="M49.84,46.48l-1.11,5.83-3.54,17.49c-.08.39-.31.77-.51.88-.24.13-.69.05-1-.05l-4.45-1.39.52-1.98,4.2,1.41c.94-2.83,1.37-5.55,2.06-8.3l1.92-7.67-3.67-1.28.93-3.08,2.78,1.04c-.07-.28-.22-.57-.3-.67-.38,0-.6-.25-.95-.41.71-1.36,1.19-2.54,2.09-2.43.49.06.84-.05,1.02.63Z"/>
          <path class="cls-7" d="M69.25,58.42c.7.09,2.58,6.05,3.13,8.82,1.23,6.17,2.02,14.64,1.28,20.53-.61-.11-.21-1.13-1.09-.97l.04,1.21-.36,2.04-.72,1.93c-.55,1.47-1.25,3.83-1.96,3.9,1.59-3.04,2.59-6.36,2.8-9.97.49-8.18-.53-18.02-3.55-25.39-.69-1.68-1.59-3.49-3.09-4.45.11-.24.41-.14.6-.53,1.82.69,2.02,2.77,2.91,2.89Z"/>
          <path class="cls-152" d="M73.7,49.85c.28-.49.75-.61,1.19-.8-.06.2.2.5.45.41l2.37-.86.93,2.78-3.36,1.28,2.95,11.93.79,3.4c.08.33.32.53.51.57.3.07.54-.13.81-.24l2.78-1.03c.2.66.4,1.11.33,1.7l-5.1,1.78-4.65-20.91Z"/>
          <path class="cls-18" d="M35.93,105.66c-.2.13-.1.4.13.38.68.38,1.4.77,2.06.65.61.28-2.55,7.26-3.84,9.61l-2.85-1.35,1.58-4.96,1.57-4.76c.6.08.95.25,1.34.43Z"/>
          <path class="cls-208" d="M84.69,106.66c.28.24.58.11.81-.07.11-.09.45.03.28-.43l2.3-.96,3.52,9.71-2.9,1.15c-1.37-2.33-2.24-4.61-3.16-6.97-.32-.83-.76-1.6-.84-2.43Z"/>
          <path class="cls-51" d="M82.68,96.22c.82.3,1.27-.3,1.9-.36l3.28,8.48-3.6,1.45c-1.47-5.25-2.37-10.23-1.45-15.81l.84,3c-.48-.26-.81.06-.52.46.36-.2.66-.26.76-.08.22.38.08.53.14.82l.27,1.31c-.79-.04-1.33.15-1.62.73Z"/>
          <polygon class="cls-73" points="42.55 149.6 42.44 159.84 39.06 159.57 39.26 149.49 42.55 149.6"/>
          <path class="cls-225" d="M15.22,190.54c.12.8.33,1.56.26,2.33h-4.62s-1.19-6.33-1.19-6.33l5.18-.09c.3,1.44.18,2.8.37,4.09Z"/>
          <path class="cls-58" d="M73.66,87.78c-.44,3.52-1.49,6.96-3.33,10.11-1.34,2.29-.9,4.99-1.43,7.74l-.47-1.44c-.31.32-.73.12-.71-.01-.14-.9-.84-.57-1.27-.64-.06-.26-.09-.63-.33-.67.38-1.25.44-2.62,1.01-3.76.63-.24,1.36-.82,1.32-1.5-.02-.41.42-.68.58-1.01.23.14.35.05.51-.15.1-.13.22-.32.03-.56.71-.07,1.41-2.43,1.96-3.9l.72-1.93.36-2.04-.04-1.21c.89-.16.48.85,1.09.97Z"/>
          <path class="cls-57" d="M38.55,105.81l-3.27-1.43c-.26-.11-.03-.8.06-1.04l2.5-7.2,2.55,1.07c-.4,2.91-.84,5.7-1.83,8.6Z"/>
          <path class="cls-218" d="M44.5,150.2l.96,9.46-3.02.19.11-10.24c.43-.11,1.11-.51,1.66-.24l-.04.71c0,.1.15.21.33.13Z"/>
          <polygon class="cls-57" points="43.35 67.75 40.02 66.6 41.83 59.85 44.97 60.73 43.35 67.75"/>
          <path class="cls-118" d="M44.52,164.63l.1,8.86-4.94.02c-.11-.16-.01-.37.17-.37l1.93.02.27-7.91c0-.25.29-.55.23-.74l2.24.11Z"/>
          <path class="cls-224" d="M28.48,198.17c-.08-.46.1-.85.19-1.35l.54-3.02,5.35-.02-1.2,4.43-4.88-.04Z"/>
          <path class="cls-219" d="M43.86,142.65c-.07.11-.24.25-.3.18-.18-.21-.15-.57-.15-.76-.43-.06.28-.49.09-.65-.24-.2-1.48.34-1.96.94-.21.22-.88-.13-1.14-.29.07,0-.24-.26-.24-.35l-.18-5.64c1.06-.42,2.02-.74,3.14-.85l.75,7.42Z"/>
          <polygon class="cls-148" points="79.84 67.66 78.17 60.48 80.95 59.72 82.8 66.64 79.84 67.66"/>
          <path class="cls-193" d="M53.32,168.62l-.6-7.32,3.11-.23.03,7.41c-.87.43-1.73.17-2.54.15Z"/>
          <path class="cls-37" d="M44.62,173.49l-.1-8.86c.41.02,1.1-.39,1.68.06l1.23,8.77-2.82.04Z"/>
          <path class="cls-32" d="M81.51,164.72l-.02,8.45h-2.49s.27-8.55.27-8.55c.29.01.81-.45,1.22.18.08-.25.41-.43.67-.28l.34.2Z"/>
          <path class="cls-125" d="M69.25,58.42c-.89-.11-1.09-2.2-2.91-2.89-.19.4-.5.29-.6.53-2.28-1.46-5.45-1.3-8.12-.4-.87.3-1.69,1.36-2.18,2.02-.25-.46-.51-.87-1.1-.84,1.07-1.62,2.7-2.73,4.68-3.03,4.82-.72,8.1.27,10.24,4.59Z"/>
          <path class="cls-192" d="M74.89,49.05c-.44.19-.91.31-1.19.8-.38-1.7-1.07-3.35-.73-4.52.73-.81,2.2-1.07,3.11-1.39l1.5,3.94-2.69,1.18Z"/>
          <path class="cls-113" d="M95.39,193.87l.47,4.32-3.36-.03-.64-1.87c-.29-.79,0-1.7-.33-2.54l3.85.12Z"/>
          <path class="cls-169" d="M109.42,192.84c.17-1.23,1.26-2.25,1.34-3.27.15-1.68-.44-2.46.46-2.29.13.02.19-.49.1-.55.18,0,.29-.15.23-.32.51,0,1.03-.13,1.74.03l-1.12,6.32-2.75.07Z"/>
          <path class="cls-196" d="M111.32,186.73c.09.06.03.58-.1.55-.9-.17-.31.61-.46,2.29-.09,1.02-1.17,2.04-1.34,3.27-.44.01-.91-.02-1.48-.16l.61-5.99,2.77.04Z"/>
          <path class="cls-202" d="M29.63,120.06c-.08-.45.07-.78.22-1.19l1.12-3.05c1.07.48,1.85.76,2.72,1.45-.53,1.52-1.13,2.86-2.15,4.14-.69-.48-1.16-1.12-1.9-1.35Z"/>
          <path class="cls-36" d="M42.67,129.53l.43,4.96c-.53.42-1.21.43-1.76.64-.04-.12-.09-.19-.16-.24-.14-.11.05-.34.15-.46l-.86-6.72,1.73.52c-.15.35-.1.61,0,.92.07.23.11.39.47.39Z"/>
          <path class="cls-86" d="M91.54,193.75c.32.84.03,1.75.33,2.54l.64,1.87-2.13-.16c-1.01-.43-1.22-1.61-1.47-2.64l-.41-1.68,3.04.07Z"/>
          <path class="cls-19" d="M9.16,126.08l-2.55-1.63c-.1-.07-.24-.14-.29-.26-.03-.06.02-.19.08-.2.27.14.43-.03.44-.34l.64-1.07c.59-.98,1.23-2.2,1.41-3.18.11-.15.52.02.62.18.08.13-.09.42.04.52.59.51.23,1.22.16,1.79l-.56,4.18Z"/>
          <path class="cls-140" d="M43.86,142.65l.47,5.69c-.66.25-1.2.15-1.71.1l-.27-.27c.15-1.79.12-3.56-.36-5.31l-.18-.42c-.03-.07-.13-.12-.28-.09.49-.6,1.72-1.14,1.96-.94.19.16-.51.58-.09.65,0,.19-.03.55.15.76.06.07.23-.08.3-.18Z"/>
          <path class="cls-178" d="M77.33,93.7l.06,7.49c0,.69.23,1.32.31,1.89-.18.05-.35.02-.49-.09-.25-.19-.31-.52-.07-.98-.4-.18-.61,0-.81.03l-.15-1.7-.2-6.14c-.03-.85.05-1.62.2-2.36l.26.27c-.02.23-.11.75,0,.87.67-.07.38.44.35.58s.43.21.54.13Z"/>
          <path class="cls-213" d="M69.52,126.45c-.66-.47-1.36-.57-2.25-.34l.07,35.14c-.09,0-.24.12-.34.07l-.08-27.02-.06-8.22c.9-.56,2.54-.47,2.65.38Z"/>
          <path class="cls-66" d="M77.7,103.08l.25,1.74.96,4.11-1.84,1.57c.35-.61-.14-1.17-.16-1.73-.05-2.35-.11-4.55-.59-6.72.21-.03.41-.21.81-.03-.24.46-.18.79.07.98.14.11.31.14.49.09Z"/>
          <polygon class="cls-12" points="45.78 57.02 42.94 55.84 44 52.46 46.68 53.5 45.78 57.02"/>
          <path class="cls-126" d="M56.1,47.98l12.67-.18-3.08-10.27c-.81.2-1.66.35-2.39.07-.99-.38-1.93-.01-2.88.03l-3.44.14c.03.56-.23.69-.2.81.09.32-.21.5-.44.37l.52-1.73h9.03s2.82,9.13,2.82,9.13c.18.58.42,1.35.07,1.73l-12.67-.09Z"/>
          <path class="cls-147" d="M77.19,56.95l-.85-3.3c.77-.61,1.58-.74,2.54-1.12l1.02,3.22c-1.02.27-1.75.61-2.71,1.2Z"/>
          <path class="cls-212" d="M113.97,119.85c.16,0,.28.2.35.33-.22.68.37,1.35.73,2l.3.53c.07.13.2.15.37.04l.89,2.01c-.39,0-.33-.26-.41-.32s-.48.05-.58.13l-1.68,1.27c.26-2.3-1.12-4.3-.42-5.63-.26-.32-.09-.4-.13-.52-.09-.27-.45-.4-.64-.07.16-.23.29-.45.24-.76.56.17.47,1.02.98.99Z"/>
          <path class="cls-97" d="M102.97,136.64l-.99-.95-5.65-1.53-4.86-1.44-.26,2.39-.24,3.42-.27,3.11-.19,2.77c-.11,1.63-.12,2.38-.54,2.11l.21-2.24c.11-1.15.23-2.28.31-3.34l.25-3.63.2-3.03c.04-.61.18-1.18.13-1.86,1.1-.03,1.95.45,2.94.72l7.73,2.09c.78.21,1.21.59,1.23,1.4Z"/>
          <path class="cls-26" d="M49.84,46.48c-.18-.68-.53-.57-1.02-.63-.9-.11-1.38,1.07-2.09,2.43-.36-.17-1.41-.35-1.27-.79l1.02-3.06,3.39,1.23-.03.82Z"/>
          <path class="cls-179" d="M112.75,119.62l-.74,1.04c-3.47,4.21-8.24,6.6-13.43,7.48-.94.16-1.56.08-2.27.83-.07-.39.28-.72.52-.86.62-.35,8.64-.4,14.7-7.44.54-.63.84-1.49,1.45-1.8.05.31-.08.53-.24.76Z"/>
          <path class="cls-146" d="M74.69,169.21c-.26.11-.55.19-.85.5l-24.79-.05c-.42,0-.98-.32-1.32-.44,0-.26.22-.35.38-.28l.46.21c.19.09.68-.13.94.3h24.11s.67-.48.67-.48c.12-.08.44,0,.4.24Z"/>
          <polygon class="cls-45" points="45.04 59.99 42.1 59.04 42.74 56.69 45.64 57.86 45.04 59.99"/>
          <path class="cls-202" d="M38.99,95.84c-.74-.32-.37-1.81.32-2.31.03-1.25.07-2.5.91-3.75l.25,6.7-1.48-.64Z"/>
          <path class="cls-185" d="M80.66,58.83l-2.64.88-.6-2.14c.98-.22,1.81-.51,2.61-.95l.64,2.2Z"/>
          <path class="cls-33" d="M96.05,161.57c-.04-.41.62-.52.92-.61l7.13-2.17c.39-.12.71-.25.92-.42.41-.32.35-.71.44-1.16l1.1-5.27c.2-.02.35.24.29.5l-1.34,5.83c-.13.57-1.05.8-1.49.93l-7.97,2.37Z"/>
          <path class="cls-205" d="M31.55,132.96c-.89-.21-1.69.22-2.61.47l-8.39,2.33-1.52,2.71c-.12.21-.2.38-.34.52-.13.14-.25.15-.37.02l1.95-3.48,11.06-3.18c.15.12.23.45.22.6Z"/>
          <path class="cls-90" d="M1.8,142.07l.09-4.36c.67-3.94,1.79-7.72,3.44-11.19.17-.01.23.06.27.14.11.21-4.09,8.49-3.54,14.92.02.27-.03.47-.25.49Z"/>
          <path class="cls-153" d="M67.62,112.46c-.33.8-.96,1.28-2.03,1.27l-9.37-.11c-.91-.01-1.14-1.03-1.32-1.48.35.25.68.94,1.17,1.04.83.16,1.72-.24,2.48.25l6.25.02c.53-.55,1.51,0,1.86-.29l.97-.7Z"/>
          <path class="cls-159" d="M105.83,177.15l-.07-.35c.81-.38.77-1.18.84-1.9l.31-3.36.25-2.9.19-3.03c.02-.36.19-.66.06-1.02.04-.18-.02-.45.3-.58,0,1.04,0,1.97-.09,2.91l-.26,2.86-.21,2.81-.22,2.73c-.06.77-.39,1.51-1.12,1.84Z"/>
          <path class="cls-167" d="M68.45,49.97c.07.13.02.34-.23.34h-11.85s-2.35-.08-2.35-.08c-.27,0-.55-.27-.69-.4-.27-.26-.08-.61.03-.81-.03.35.42.99.91,1l14.16-.04Z"/>
          <path class="cls-112" d="M45.5,160.56l-6.48.04c-.17.23-.45.59-.7.36.11-.28.51-.81.96-.82l6.02-.05c.12,0,.19.38.2.47Z"/>
          <path class="cls-143" d="M84.05,160.5l-7.03.1c0-.12.15-.43.31-.49l6.29-.03c.14.28.32.32.42.42Z"/>
          <path class="cls-29" d="M27.26,129.01c-.28-.1-.62-.69-.89-.7-2.55-.09-4.96-.6-6.94-1.76l3.29.92,3.11.54c.41.07.75-.13,1.07.21.22.23.32.36.35.78Z"/>
          <path class="cls-197" d="M66.43,126.03h-10.17c.02-.11.09-.27.29-.25h9.71s.17.25.17.25Z"/>
          <path class="cls-91" d="M120.48,145.68c-.75.12-1.5.14-2.16.2l-1.77.17c-.87.08-2.28.56-2.75-.03-.16-.2-.09-.49,0-.7.09.07.18.34.24.43,2.72.3,4.92-.54,6.44-.07Z"/>
          <path class="cls-61" d="M113.44,128.69c-.16.18-.64.46-.99.73l-3.33,2.57c-.17-.53.72-.96,1.04-1.21l3.51-2.8c.29-.04.23.2.17.28l-.39.45Z"/>
          <path class="cls-59" d="M99.29,180.04c-.29.1-.47-.16-.36-.46l-1.45-5.19-.17-1.58,1.98,7.24Z"/>
          <path class="cls-55" d="M16.32,125.05c-.8-.09-1.47-.69-2.13-1.23l-2.15-1.75c-.27-.22-.51-.58-.41-.88l1.8,1.63,2.09,1.57c.31.23.72.24.78.65Z"/>
          <path class="cls-78" d="M25.59,166.99c-.37-.78-1.08-.71-1.9-.79-1.69-.17-4.05-.51-4.05-.69.73,0,1.54-.03,2.3.09l3.93.65c-.24.29-.23.47-.28.74Z"/>
          <path class="cls-232" d="M34.04,165.56l3.91-4.06c.01.1.14.34-.03.51l-3.87,3.55Z"/>
          <path class="cls-115" d="M6.41,123.99l1.3-2.69c.36-.72.6-1.49,1.19-1.9-.18.98-.82,2.2-1.41,3.18l-.64,1.07c-.02.31-.17.48-.44.34Z"/>
          <path class="cls-189" d="M87.83,116.87c-.4.01-.5-.32-.64-.61l-1.6-3.31c-.18-.37-.3-.63-.23-.99l2.46,4.9Z"/>
          <path class="cls-47" d="M105.77,176.8l.07.35c-1.12.5-2.5.48-3.81.97l-.58.22c-.21.08-.53.08-.56-.26,1.49-.43,3.48-.63,4.89-1.28Z"/>
          <path class="cls-68" d="M108.07,186.73l-6.71-.02c-.08-.14-.02-.32.05-.39l6.11.14c.22,0,.54.03.54.27Z"/>
          <path class="cls-93" d="M105.42,141.07c-.37.02-.47-.33-.61-.62l-.9-1.85c-.31-.63-.89-1.27-.94-1.95.34.33.66.8.9,1.27l1.56,3.16Z"/>
          <path class="cls-31" d="M85.37,111.97c-.23.06-.26-.21-.33-.4l-1.39-3.55c-.17-.42-.31-.79-.05-1.15l1.33,3.63c.18.5.54.97.44,1.47Z"/>
          <path class="cls-170" d="M91.93,123.48c-.32.1-.59-.18-.79-.47l-1.26-1.92c-.36-.55-.59-.98-.71-1.53l2.77,3.93Z"/>
          <path class="cls-235" d="M24.65,161.11c-.53.04-4.08-.91-5-1.53,1.46.13,2.85.74,4.37,1.12.28.07.57.11.63.41Z"/>
          <path class="cls-82" d="M21.36,186.56l-6,.16c0-.1.02-.25.23-.25l5.77.09Z"/>
          <path class="cls-59" d="M42.96,71.17c-1.19.05-2.52-.72-3.7-.91-.13.18-.1.54-.09.64s-.21.21-.34.08c.07-.32.1-1.18.44-1.07l3.69,1.27Z"/>
          <path class="cls-106" d="M32.1,138.1c-.37.36-.43-.09-.3-.18.09-1.76-.41-3.28-.24-4.96l.36,2.05.18,3.09Z"/>
          <path class="cls-100" d="M8.71,145.73c.32.19.08.38-.06.45-.16.08-.49.11-.67.09l-2.91-.28c-.29.21-.61-.15-.29-.38l2.83.26c.48.04.7.22,1.08-.14Z"/>
          <path class="cls-50" d="M76.35,152.93h-5.04c-.2.03-.26-.16-.23-.25h5.19c.06.08.09.21.08.25Z"/>
          <path class="cls-72" d="M94.48,131.8c.17-.89,1-1.95,1.83-2.82.08.42-.24.64-.45.96l-1.37,1.86Z"/>
          <path class="cls-161" d="M118.46,129.48l-1.38-2.78c-.1-.21-.04-.45.21-.41.43,1.03,1.16,2.03,1.18,3.19Z"/>
          <path class="cls-27" d="M7.97,127.02c-.38.12-.66-.28-.91-.47l-.65-.5c-.27-.2-.64.15-.93.15.09-.19.28-.6.5-.64.28-.05,1.85.94,2,1.46Z"/>
          <path class="cls-88" d="M95.26,164.23c-.14.15-.38,0-.37-.09.03-.22-.14-.47-.19-.73l-.15-.86c-.03-.18-.4-.35-.65-.29.04-.14.47-.67.63-.4.45.76.48,1.64.72,2.37Z"/>
          <path class="cls-84" d="M115.72,122.76c-.17.11-.29.09-.37-.04l-.3-.53c-.36-.65-.95-1.32-.73-2l1.4,2.57Z"/>
          <path class="cls-135" d="M19.64,165.51c-.92,0-1.89.11-2.6-.5,1.27.03,2.61.22,2.6.5Z"/>
          <path class="cls-109" d="M72.53,46.83c-.28-.42-.57-.67-1.26-.43-.17.06-.53.25-.77.22-.14-.02-.36.06-.37-.26l2.03-.39c.29-.05.46.55.37.86Z"/>
          <path class="cls-209" d="M97.13,166.54c-.21-.92,1.25-.2,2.27-.79.04.12.06.31,0,.39-.11.15-.48.06-.7.1l-1.58.3Z"/>
          <path class="cls-1" d="M102.51,165.43c.02.56-.67.27-.92.32-.77.17-1.43.51-1.94.02.95-.13,1.87-.37,2.85-.34Z"/>
          <path class="cls-121" d="M105.34,164.91c-.7.51-1.8.81-2.61.39l2.61-.39Z"/>
          <path class="cls-81" d="M11.07,129.48l-.3.08c-.45-.58-.99-1.02-1.69-1.09.05-.17.06-.39.28-.52.58.48,1.39.82,1.71,1.53Z"/>
          <path class="cls-188" d="M22.7,178.21c-.7.21-1.37.21-2.1-.22-.28.32-.63-.04-.36-.29l2.46.51Z"/>
          <path class="cls-217" d="M121.02,138.39c-.13.08-.42-.02-.42-.17-.02-1.24-.52-2.02,0-2.31l.43,2.48Z"/>
          <path class="cls-164" d="M111.55,186.41c.06.17-.05.32-.23.32l-2.77-.04c.05-.17.18-.22.37-.22l2.63-.05Z"/>
          <path class="cls-25" d="M38.13,106.68c-.66.13-1.39-.27-2.06-.65-.24.02-.33-.24-.13-.38l2.2,1.02Z"/>
          <path class="cls-184" d="M26.56,161.75c-.59-.25-1.39-.2-1.91-.64.55-.12,1.87-.04,1.91.64Z"/>
          <path class="cls-156" d="M12.11,137.27l.85-1.87c.43.1.24.37.15.52l-.4.7-.2.43c-.07.14-.19.52-.4.22Z"/>
          <path class="cls-195" d="M28.51,130.68c-.57-.31-1.17-1.03-1.25-1.67.64.24.95,1.12,1.25,1.67Z"/>
          <path class="cls-174" d="M17.09,157.33c-.23.13-.48-.18-.25-.44l-.43-1.33.22-.43c.24.66.41,1.46.46,2.2Z"/>
          <path class="cls-175" d="M19.87,177.6c-.26.38-.98.4-1.4-.07-.33.29-.62-.08-.39-.32l1.78.38Z"/>
          <path class="cls-151" d="M52.04,46.43c-.57.45-1.15-.1-1.73-.13.5-.44,1.17-.13,1.73.13Z"/>
          <path class="cls-190" d="M13.34,131.38c-.53-.1-1.06-.65-1.3-1.15.58-.03,1.04.68,1.3,1.15Z"/>
          <path class="cls-124" d="M19.43,126.55c-.55-.17-1.49-.28-1.55-.92.49.11,1.1.66,1.55.92Z"/>
          <path class="cls-53" d="M19.66,159.58c-.58-.05-1.32.1-1.7-.48.64-.12,1.23.16,1.7.48Z"/>
          <path class="cls-138" d="M120.41,135.63c-.42-.23-.72-1.34-.3-1.71l.3,1.71Z"/>
          <path class="cls-103" d="M45.55,111.23c-.46.07-.92-.58-1.12-1.01.4.03,1.08.56,1.12,1.01Z"/>
          <path class="cls-24" d="M113.97,119.85c-.51.03-.43-.82-.98-.99-.04-.04.04-.33.27-.24.43.18.65.84.71,1.23Z"/>
          <path class="cls-215" d="M15.44,166.47c-.47-.35-.37-1.3-.12-1.73l.12,1.73Z"/>
          <path class="cls-23" d="M119.65,132.94c-.32-.26-.53-1.06-.46-1.47.45.26.47.98.46,1.47Z"/>
          <path class="cls-129" d="M55.43,125.8c-.53.44-1.26.23-1.83.19.52-.35,1.2-.19,1.83-.19Z"/>
          <path class="cls-65" d="M115.36,126.52c-.15.38-.61.93-.99.95.06-.47.51-1,.99-.95Z"/>
          <path class="cls-88" d="M93.92,162.26c-.07.59-.7.66-1.02.78.27-.4.63-.73,1.02-.78Z"/>
          <path class="cls-161" d="M118.92,130.74c-.36-.26-.46-.83-.47-1.26.19.37.48.8.47,1.26Z"/>
          <path class="cls-176" d="M70.63,128.24c-.42-.12-.85-.58-.66-1.07.21.34.72.58.66,1.07Z"/>
          <path class="cls-168" d="M80.76,70.65c.19.3-.14.55-.4.3l-.36.31c-.13.11-.41-.03-.37-.26.37-.23.74-.23,1.13-.36Z"/>
          <path class="cls-69" d="M10.72,120.27c-.44.03-.99-.45-.85-.89.45.1.62.6.85.89Z"/>
          <path class="cls-94" d="M12.04,130.23c-.48.02-.78-.33-.97-.75.41-.09.78.36.97.75Z"/>
          <path class="cls-89" d="M77.75,133.17c.04.14-.05.26-.13.27-.18.02-.38-.07-.53-.34-.32.3-.62-.01-.45-.27.37.09.79.15,1.12.34Z"/>
          <path class="cls-41" d="M70.46,99.87c-.02-.41.34-.82.5-1.07.2.37-.06,1.03-.5,1.07Z"/>
          <path class="cls-134" d="M17.96,159.11c-.16,0-.32,0-.46-.13-.22-.18-.23-.38-.25-.61.34.11.62.4.72.74Z"/>
          <path class="cls-15" d="M85.77,106.16c.17.46-.17.34-.28.43-.23.18-.52.32-.81.07l1.08-.5Z"/>
          <path class="cls-104" d="M16.1,151.43c-.37.12-.52-.03-.52-.36,0-.26-.07-.55.23-.6.07.36,0,.66.29.96Z"/>
          <path class="cls-108" d="M44.43,110.22c-.34-.05-.54.18-.84.24.03-.19.09-.3.22-.47.07-.09.22-.33.37-.13l.26.36Z"/>
          <path class="cls-99" d="M51.67,122.29c-.31.03-.35-.11-.49-.44-.07-.17-.27-.39.11-.52.14.33.36.56.38.96Z"/>
          <path class="cls-180" d="M71.06,122.39c.04-.45.24-.8.39-1.22.23.61.05.82-.39,1.22Z"/>
          <path class="cls-43" d="M17.73,177.1c-.03.3-.32.32-.57.24-.22-.07-.28-.39-.4-.53l.97.29Z"/>
          <path class="cls-44" d="M17.38,125.48c-.13.05-.48.1-.66.06s-.37-.24-.41-.49c.36.03.75.22,1.07.43Z"/>
          <path class="cls-198" d="M16.18,152.62c-.3.11-.36-.06-.36-.32,0-.27-.06-.55.26-.62-.02.32-.02.63.1.93Z"/>
          <path class="cls-204" d="M72.13,130.4c-.25.11-.35-.03-.47-.17-.13-.16-.15-.31-.12-.5.4.03.43.49.59.67Z"/>
          <path class="cls-74" d="M51.65,98.85c-.27.08-.38-.1-.48-.21-.13-.14-.16-.42,0-.6.26.2.34.55.48.81Z"/>
          <path class="cls-75" d="M106.14,142.3c-.22-.02-.36-.14-.46-.27-.15-.19-.08-.53.08-.64.1.29.36.56.38.91Z"/>
          <path class="cls-203" d="M16.39,153.6c-.29.54-.36.04-.35-.12,0-.21,0-.58.28-.56-.05.22.02.44.07.68Z"/>
          <path class="cls-144" d="M71.55,129.73c-.3-.02-.57-.42-.47-.73.33.05.55.4.47.73Z"/>
          <path class="cls-64" d="M3.21,145.53c-.16.37-.67.28-1,.25.06-.4.73-.27,1-.25Z"/>
          <path class="cls-174" d="M16.63,155.12c-.38.08-.32-.22-.33-.35-.03-.28-.05-.55.26-.62l.08.97Z"/>
          <path class="cls-150" d="M53.07,47.08c-.3-.06-.78-.23-.78-.56l.57.09c.16.02.19.31.22.47Z"/>
          <path class="cls-9" d="M9.87,119.38c-.31-.08-.55-.39-.48-.83.32.15.59.49.48.83Z"/>
          <path class="cls-110" d="M116.05,125.95c0,.2-.04.33-.2.47-.16.13-.28.13-.49.11.12-.31.34-.54.7-.58Z"/>
          <path class="cls-233" d="M14.98,145.97c-.1.41-.32.23-.35.13-.07-.3.03-.61.27-.59l.08.46Z"/>
          <path class="cls-98" d="M71.08,128.99c-.14-.02-.19-.07-.36-.23-.11-.1-.15-.27.13-.27.26.02.31.26.24.5Z"/>
          <path class="cls-67" d="M17.24,158.37c-.11-.07-.25-.13-.24-.39,0-.19,0-.35.27-.37l-.03.76Z"/>
          <path class="cls-200" d="M71.14,108.75c-.17.03-.28-.03-.43-.21-.06-.07-.2-.24.14-.3.11.13.35.18.29.51Z"/>
          <path class="cls-85" d="M88.09,150.15c-.29.12-.61-.2-.5-.56.14,0,.36.14.39.24l.11.31Z"/>
          <path class="cls-222" d="M8.49,127.22c-.03.33-.2.28-.29.17-.16-.19-.19-.25-.22-.38.29-.1.37.08.52.2Z"/>
          <path class="cls-2" d="M119.19,131.47c-.16-.09-.32-.09-.25-.38.02-.09.02-.25-.02-.34.12.15.33.36.26.73Z"/>
          <path class="cls-214" d="M117.14,125.96c-.28.12-.56-.16-.58-.42.08-.01.26-.04.36,0,.16.07.18.3.23.42Z"/>
          <path class="cls-142" d="M120.01,133.63c-.29.18-.37-.13-.36-.3v-.39c.08.07.32.13.26.37-.02.08.05.22.11.32Z"/>
          <path class="cls-92" d="M111.5,126.04c-.09-.29-.41-.37-.67-.45-.3-.13-.17-.34,0-.43.13-.07.16-.11.33.07.23.08.45.14.63.43.09.15,0,.41-.29.38Z"/>
          <path class="cls-228" d="M111.5,126.04c-.16-.02-.65.07-.86-.11-.1-.08.24-.32.19-.34.26.08.58.15.67.45Z"/>
          <path class="cls-10" d="M106.53,137.28c-.11.12-.54.33-.79-.21.21-.14.37-.16.79.21Z"/>
          <path class="cls-52" d="M76.29,109.47c-.22.49-.74.27-.57,0,.07-.69.76-.55.57,0Z"/>
          <path class="cls-63" d="M61.18,135.52c.03-.22.32-.17.37,0,.02.09.03.27-.09.36-.08.05-.3-.15-.27-.36Z"/>
          <path class="cls-171" d="M27.49,140.82c-.68.42-1.35.41-1.92-.31-.01-.14-.2-.4-.33-.66-.52.16-.53-.68.06-.46.03-.57.19-.81.42-1.03.27-.25.64-.15,1.1-.16.58,0,.94.61,1.05,1.08.12.51-.25,1.07-.39,1.54ZM27.11,139.75c-.11-.3.17-.66.04-.85-.26-.37-.61-.36-.98-.26l-.29.66c-.51.17-.11,1.03.34,1.18.41.14,1.16-.04.9-.72Z"/>
          <path class="cls-107" d="M18.36,153.51c.09-.85,1.49.18,1.79-.95.08-.29.29-.77-.11-1.16l-.13-.61c-.09-.44-.53-.23-.99-.02-.18-.23-.38-.31-.49-.2-.18.2-.24.3-.31.71-.32-.2-.36-.52-.16-.92.13-.26.49-.38.95-.43,1.03-.11,1.7.61,1.85,1.59.09.6.03,1.17-.32,1.62s-.9.48-1.46.58c-.11.08-.21.27-.41.12-.14-.11-.23-.21-.22-.31Z"/>
          <path class="cls-6" d="M19.24,146.68l-1.26.07c-.04-.24-.27-.48-.47-.57-.21-.12-.23-.38-.14-.46.7-.61.14-1.23.6-1.57.32-.23.77-.22,1.14-.06.62.26,1.03.77,1.03,1.52,0,.52-.69.73-.89,1.07ZM18.04,145.92c.4.52.86.36,1.18.02s.53-.59.22-1.07c-.16-.25-.48-.65-.92-.46s-.78,1.12-.48,1.51Z"/>
          <path class="cls-128" d="M27.49,140.82c-.23.76-1.47.65-1.78.28-.11-.13-.12-.3-.14-.58.57.72,1.23.73,1.92.31Z"/>
          <path class="cls-101" d="M19.24,146.68c.53.32-.68.6-1.26.07l1.26-.07Z"/>
          <path class="cls-173" d="M18.07,152.67c-.13-.26-.19-.55,0-1.01.13.16.31.45,0,1.01Z"/>
          <path class="cls-21" d="M17.98,146.75c-.14,0-.43.02-.59-.21-.06-.09-.23-.22.12-.35.2.09.43.33.47.57Z"/>
          <path class="cls-8" d="M97.46,140.76c-.56.53-1.2.36-1.87-.02-.09-.27-.63-.42-.52-.61.1-.79.08-1.47.63-1.78.46-.26,1.07-.33,1.49-.08,1.16.69.28,2.32.27,2.49ZM96.51,138.96c-.05.2-.43-.04-.2-.31-.59.13-.82.71-.64,1.27.09.3.39.84.88.44.21-.17.63-.04.86-.52.11-.22.1-.53-.11-.85-.13-.2-.56-.65-.78-.04Z"/>
          <path class="cls-127" d="M105.13,146.58c-.53.1-.83.34-1.35-.02-.26-.18-.68-.36-.86-1.03.11.07-.36.1-.47-.13-.08-.18.14-.4.38-.28.17-.51.53-1,1.12-1.2.41-.14,1.11-.18,1.44.31.56.83.12,1.6-.26,2.35ZM103.99,144.35c-.61.3-.83.95-.43,1.43.25.31.91.49,1.33.18.28-.2.53-.65.3-1.09-.21-.41-.69-.78-1.2-.52Z"/>
          <path class="cls-127" d="M103.6,153.13c.61.27,1.1-.63,1.17-.95.37.67-.28,1.22-.78,1.31s-1.04-.08-1.45-.64c-.35.5-.8-.23-.14-.27-.36-1.26.37-2.59,1.43-2.64.69-.03,1.31.42,1.27,1.32-.27-.42-.52-.71-.83-.79-.57-.15-.94.02-1.23.6-.25.5-.16,1.74.55,2.06Z"/>
          <path class="cls-11" d="M105.13,146.58c-.27.52-1.05.56-1.58.33-.37-.16-.94-.65-.63-1.38.18.67.6.86.86,1.03.52.35.82.11,1.35.02Z"/>
          <path class="cls-216" d="M97.46,140.76c-.06.54-.49.67-1.02.59-.31-.05-.76.04-.85-.6.67.37,1.31.55,1.87.02Z"/>
          <path class="cls-177" d="M60.36,14.35c-.39-.26-.26-.56.06-.66.26-.08.51-.1.76.3.14.23.02.38-.09.46-.19.14-.42.11-.73-.1Z"/>
          <path class="cls-139" d="M59.64,29.07c.3.03.21.37-.05.3-.54.09-.39-.5.05-.3Z"/>
          <path class="cls-181" d="M100.6,190.57c-.25.14-.53.2-.98,0,.15-.13.43-.32.98,0Z"/>
          <path class="cls-87" d="M93.22,120.49l-.72.33c-.2.09-.25.22-.24.39,0,.12-.27.14-.36-.11-.07-.17-.06-.24.18-.46.26-.23.48-.49,1.14-.16Z"/>
          <path class="cls-223" d="M112.67,179.34c.27.3-.26.45-.17.08.13-.53-.96-.39-1.11-1.01-.1-.38.09-.75.31-.81.68-.18,1.37.59,1.27.86l-.3.88ZM112.1,177.9c-.28.09-.3.41-.19.43.14.03.32.02.47,0,.11-.01.16-.16.02-.25-.06-.04-.14-.23-.3-.18Z"/>
          <path class="cls-56" d="M65.73,56.07c1.5.96,2.4,2.77,3.09,4.45,3.02,7.37,4.04,17.21,3.55,25.39-.22,3.62-1.21,6.93-2.8,9.97-.23.12-.4.43-.54.71-.17.33-.61.6-.58,1.01-.46.46-1.01.88-1.32,1.5-.57,1.14-.63,2.51-1.01,3.76-.17.56-.52.91-1.11,1.47l-7.4-.06c-.35,0-.79-.46-.81-.7-.5-1.21-.74-2.5-.85-3.98-5.53-5.26-5.63-11.61-5.4-18.95.17-5.53.72-11.12,2.19-16.28.69-2.4,1.24-4.74,2.69-6.66.49-.66,1.32-1.73,2.18-2.02,2.67-.91,5.84-1.07,8.12.4ZM65.78,93.7c.31.62.69,1.14.82,1.99l.26,1.79c3.41-3.33,4.41-8.64,4.5-13.64.14-7.94-.99-16.25-3.88-23.19-1.17-2.82-3.96-4.51-6.97-4.08-2.22.32-4.11,1.3-5.06,3.47-3.27,7.46-4.07,17.26-3.96,25.78.06,4.41,1.2,8.57,4.08,11.9l.6-2.84c.2-.95.84-1.36,1.79-1.36l7.2.05.59.13ZM57.45,94.7l-.39,3.21c-.21,1.69.57,4.99,1.62,5.04,1.87.08,4.25.43,6.15-.28,1.24-1.37,1.04-6.44.68-7.07-.17-.31-.17-.66-.15-1.14h-7.8c-.06.04-.11.2-.11.25Z"/>
          <path class="cls-183" d="M61.31,107.99c-.37.12-.97.22-1.24.59l-.65-1.13c.29-.94.46-1.46,1.52-1.56-.27-.34-.28-.43-.24-.58.07-.29.49-.3.28.12.21.16.71.38.87.74-1.02-.07-.11,1.2-.28,1.46l-.24.36Z"/>
          <path class="cls-199" d="M66.45,103.52c-.53-.08-.56.75-.82.83l-5.67.28c-2.03.1-4.01-.28-3.16-1.07.02.24.46.69.81.7l7.4.06c.58-.56.93-.91,1.11-1.47.24.03.27.41.33.67Z"/>
          <path class="cls-22" d="M61.31,107.99c.39.14.12.37,0,.43-.39.21-.82.01-1.24.17.27-.37.87-.48,1.24-.59Z"/>
          <path class="cls-172" d="M10.89,177.22c.57-.06.95.37,1.08.8.17.6-.37,1.09-.81,1.26-.65.25-.93-.37-1.17-.93-.2-.45.31-1.06.91-1.12ZM10.58,177.74c-.29.28-.08.77.06.97s.59.21.76.05c.34-.32.19-.58.02-.87-.15-.26-.47-.53-.85-.15Z"/>
          <path class="cls-226" d="M7.64,156.67c.63.27.59.5.35.87-.14.22-.19.81-.62.75s-.72-.32-1.16-.75c-.14-.14.3-.35.36-.82.15-.2.59.15,1.06-.05ZM7.07,157.14c-.45.26-.21.5.02.56.13.03.46.19.53.08.16-.24.12-.35.02-.47-.17-.21-.36-.29-.56-.17Z"/>
          <path class="cls-48" d="M72.14,138.87c.2,0,.17-.21.14-.32l1.2.17c-.39.24-.82.13-1.34.14Z"/>
          <path class="cls-105" d="M63.63,40.2c.08.5-.26.88-.43,1.46-1.4-.08-2.75.23-4.01-.21-.24-.35-.12-.65-.19-1.23l4.63-.02Z"/>
          <path class="cls-165" d="M63.63,40.2l-4.63.02c.06.58-.05.89.19,1.23-.29.6-.62-.55-.58-2.17l5.34-.06c.35,0,.47.58.35.78s-.45.25-.67.2Z"/>
          <path class="cls-186" d="M65.96,47.32c-.41,0-.53-.16-.57-.37s.06-.34.3-.41c.16-.04.31-.27.6.14.05.07.21.19.19.29-.03.18-.13.35-.53.35Z"/>
          <path class="cls-40" d="M57.25,47.3c-.27.04-.42.02-.6-.18-.1-.12,0-.31.22-.4.17-.27.27-.25.4-.23.19.03.44.13.46.25.04.31-.14.51-.48.56Z"/>
          <path class="cls-120" d="M81.71,137.71c-.14-.21-.03-.49.21-.81.09.06.38.53-.21.81Z"/>
          <path class="cls-14" d="M85.12,142.8c.3.03.21.37-.05.3-.54.09-.39-.5.05-.3Z"/>
          <path class="cls-117" d="M118.22,142.06c.3.03.21.37-.05.3-.54.09-.39-.5.05-.3Z"/>
          <path class="cls-83" d="M67.13,99.09c.31-.61.86-1.03,1.32-1.5.04.67-.69,1.26-1.32,1.5Z"/>
          <path class="cls-70" d="M69.03,96.59c.14-.27.31-.59.54-.71.19.24.07.42-.03.56-.16.2-.27.29-.51.15Z"/>
          <path class="cls-154" d="M27.11,139.75c.27.69-.49.87-.9.72-.44-.16-.85-1.01-.34-1.18l.29-.66c.37-.1.72-.11.98.26.14.19-.15.56-.04.85Z"/>
          <path class="cls-154" d="M18.04,145.92c-.3-.38.05-1.32.48-1.51s.76.21.92.46c.31.48.11.72-.22,1.07s-.78.5-1.18-.02Z"/>
          <path class="cls-229" d="M96.51,138.96c.22-.61.66-.16.78.04.21.32.21.62.11.85-.23.48-.65.35-.86.52-.49.39-.78-.14-.88-.44-.18-.56.06-1.14.64-1.27-.23.27.15.51.2.31Z"/>
          <path class="cls-201" d="M103.99,144.35c.51-.25.99.11,1.2.52.23.44-.02.89-.3,1.09-.42.3-1.07.13-1.33-.18-.39-.48-.18-1.12.43-1.43Z"/>
          <path class="cls-234" d="M112.1,177.9c.16-.05.24.14.3.18.14.09.09.24-.02.25-.15.02-.33.03-.47,0-.11-.02-.09-.34.19-.43Z"/>
          <path class="cls-96" d="M67.5,60.65c-.15.06-.27.13-.36.09-.21-.09-.14-.42-.17-.58-1,1.27-.41-.75-2.73-1.19-.07.32-.02.51.01.68-.09.02-.19.02-.28.01-1.05-1.35-5.02-.25-5.85,1.59-2.16,4.78-1.57,18.79-1.19,25.37.11,1.93,1.4,3.25,3.12,3.5,2.27.33,5,.24,6.15-1.43.37-.54.69-1.14,1.35-1.14.06.38-.2.77-.35,1.22l.77.29c-.28,1.83-1.38,3.26-3.01,3.97-.21-.22-.32-.51-.43-.54s-.27.4-.38.42c-.26.06-.47-.09-.59-.13s-.44.2-.37.46h1.95c.15,0,.4-.01.45.09l.19.39-.59-.13-7.2-.05c-.95,0-1.59.4-1.79,1.36l-.6,2.84c-2.88-3.34-4.02-7.49-4.08-11.9-.12-8.52.69-18.32,3.96-25.78.95-2.16,2.84-3.15,5.06-3.47,3.01-.43,5.79,1.26,6.97,4.08ZM54.41,80.84c.51.22.53-.23.49-.32s-.25-.18-.35-.13c-.08.05-.09.28-.48.22-.35.26,0,.73.35.23Z"/>
          <path class="cls-187" d="M67.5,60.65c2.89,6.94,4.02,15.25,3.88,23.19-.09,5-1.1,10.31-4.5,13.64l-.26-1.79c-.13-.86-.51-1.37-.82-1.99l-.19-.39c-.05-.1-.3-.08-.45-.08h-1.95c-.07-.27.25-.51.37-.46s.32.19.59.13c.11-.03.27-.45.38-.42s.23.32.43.54c1.62-.71,2.72-2.14,3.01-3.97l-.77-.29c.15-.45.41-.84.35-1.22-.04-.25.25-.65.32-.92l.37-5.42c.47.23.58-.29.32-.33-.82-.47-.19-1.29-.16-1.82.32-5.34-.06-10.6-1.1-15.99-.26-.13-.52.04-.73.03-.3-1.41-1.21-2.6-2.31-3.45-.03-.18-.08-.37-.01-.68,2.32.44,1.72,2.46,2.73,1.19.03.16-.04.49.17.58.09.04.22-.03.36-.09Z"/>
          <path class="cls-131" d="M65.5,95.6c.35.63.55,5.7-.68,7.07-1.89.71-4.28.36-6.15.28-1.05-.05-1.82-3.34-1.62-5.04l.39-3.21h7.37s.37.52.37.52c-.26.29.07.62.32.38Z"/>
          <path class="cls-231" d="M65.5,95.6c-.25.24-.58-.09-.32-.38l-.37-.52h-7.37s.05-.21.11-.24h7.8c-.02.47-.02.82.15,1.13Z"/>
          <path class="cls-119" d="M10.58,177.74c.38-.37.7-.11.85.15.17.29.32.55-.02.87-.17.16-.62.15-.76-.05s-.35-.69-.06-.97Z"/>
          <path class="cls-80" d="M7.07,157.14c.2-.12.39-.04.56.17.1.12.14.23-.02.47-.07.1-.4-.05-.53-.08-.23-.06-.47-.3-.02-.56Z"/>
          <path class="cls-114" d="M63.96,59.66c.16.48-.51.54-.69.75-.49.58-.28,1.42-.29,1.97-.04,2.36-.01,4.68.26,7.14l1.41.76c.61.33,1.72-.05,1.75-.8l.1-2.88.4.02c.23.01.35-.21.28-.54l-.64-2.99c.21,0,.47-.17.73-.03,1.05,5.39,1.42,10.65,1.1,15.99-.03.52-.66,1.34.16,1.82.26.04.15.56-.32.33l-.37,5.42c-.07.27-.35.67-.32.92-.66,0-.97.59-1.35,1.14-1.15,1.67-3.88,1.76-6.15,1.43-1.72-.25-3.01-1.57-3.12-3.5-.38-6.58-.98-20.58,1.19-25.37.83-1.83,4.8-2.93,5.85-1.59ZM66.94,85.99l.15-4.87-.07-7.14c0-.52-.4-1-.72-.89-1.39.5-.97,1.68-.84,3.95l.44,7.6.23-.19c-.03-.16-.15-.42.05-.6l.27.02c.21.6-.29,1.41.47,2.11Z"/>
          <path class="cls-132" d="M66.56,63.1l.64,2.99c.07.33-.05.55-.28.54l-.4-.02c.01-.31.06-.83-.09-1.15l-.97-2.18c-.42.09-.37.63-.3.87-.34.41-1.1.39-1.82.17-.19-1.05.07-1.95-.33-1.95,0-.55-.2-1.38.29-1.97.18-.21.84-.27.69-.75.09,0,.19.01.28-.01,1.11.85,2.01,2.05,2.31,3.45Z"/>
          <path class="cls-38" d="M54.41,80.84c-.35.5-.69.04-.35-.23.39.06.4-.18.48-.22.1-.06.32.04.35.13s.01.54-.49.32Z"/>
          <path class="cls-145" d="M66.51,66.61l-.1,2.88c-.03.75-1.14,1.13-1.75.8l-1.41-.76c-.28-2.46-.3-4.78-.26-7.14.4,0,.15.9.33,1.95.72.21,1.49.24,1.82-.17-.07-.25-.11-.79.3-.87l.97,2.18c.14.32.1.84.09,1.15Z"/>
          <path class="cls-141" d="M66.94,85.99c-.77-.7-.26-1.51-.47-2.11l-.27-.02c-.2.18-.08.44-.05.6l-.23.19-.44-7.6c-.13-2.27-.55-3.46.84-3.95.32-.11.71.36.72.89l.07,7.14-.15,4.87Z"/>
        </g>
      </g>
    </g>
  </g>
</svg>