<?xml version="1.0" encoding="UTF-8"?>
<svg id="Layer_2" data-name="Layer 2" xmlns="http://www.w3.org/2000/svg" viewBox="0 0 122.74 200">
  <g id="Layer_1-2" data-name="Layer 1">
    <path d="M82.36,173.59c-14.54,1.27-27.88,1.33-41.81.33l-5.31,26.07-25.86-.53L.3,149.68c-1.45-7.95,2.66-20.57,6.97-27.73,6.93,8.21,16.07,14.53,23.16,9.27,5.31-27.42,21-40.39,6.55-58.39C44.25,48.16,52.21,24.1,61.45,0c9.58,26.28,17.32,48.7,24.25,72.89-5.53,9.8-8.81,20.84-1.65,32.44l8.57,24.63c3.02,8.67,17.35.9,21.55-7.65,4.88,5.1,9.69,17.35,8.33,24.98l-9.35,52.52-26.22-.4-4.58-25.82Z"/>
  </g>
</svg>