<?xml version="1.0" encoding="UTF-8"?>
<svg id="Layer_2" data-name="Layer 2" xmlns="http://www.w3.org/2000/svg" viewBox="0 0 151.04 300">
  <g id="Layer_1-2" data-name="Layer 1">
    <path d="M151.04,243.44c-.76-2.75-1.59-5.39-2.47-7.98l2.47,2.68-.12-3.32-1.12-1.91-21.27-48.12-1.31-1.18-5.23-12.32c-1.68-3.97-7.04-6.73-7.71-8.52l-2.74-7.33-6.33-16.92c-.48-1.28-.77-3.11-1.89-3.88l-2.89-2c1.64-4.5,4.21-8.93,1.47-11.05l-2.18-1.69.94-2.98c.36-1.14-.6-2.37-1.34-2.96l-6.6-5.23-.99-22.88c-.83-19.13-.01-37.47-6.36-55.19-3.74-10.45-6.52-20.54-8.54-30.64l-.65,2.14-.62-2.14-2.93,9.14-9.89,34.23c-.75,2.6-1.31,4.89-1.42,7.58l-.56,13.82-.53,17.5-.61,19.53-.22,6.17-7.38,5.84c-1.66,1.32-1.87,3.1-1.2,5.24l.74,2.36c-.72.76-1.29,1.5-1.62,2.18-.85,1.77.2,5.01,1.74,8.18l-4.11,3.01c-1.21.88-1.51,2.94-2.13,4.57l-8.17,21.44c-.51,1.34-1.07,2.44-2.08,3.38l-3.99,3.73c-1.23,1.15-2.17,2.41-2.86,4.1l-9.02,21.93-12.47,29.88c-1.1,2.64-2.15,5.25-3.13,7.88l-3.71,8.46,1.3-1.42c-.46,1.48-.9,2.99-1.3,4.54,8.01-5.55,15.23-11.23,22.53-17.47l20.72-17.69-1.94,8.12-15.65,27.85c-3,5.33-6.39,11.94-5.14,18.06.2.96.42,1.9.67,2.83-.36,2.55-.19,5.24.65,8.26.47-.7.95-1.39,1.42-2.09.49,1.2,1.03,2.4,1.64,3.61,3.88-6.87,8.03-12.57,13.26-17.6,7.98-7.7,16.21-14.62,24.67-21.67l1.05-5.21c.91-.51,1.81-1.02,2.75-1.51l1.89,19.11,2.01,18.89c1.18,11.13,2.5,21.96,4.86,33.23.25-1.19.49-2.37.72-3.56l.5,3.56,9.6-71.82c.23.13.45.26.67.39l1.35,6.95c8.27,7.07,16.24,13.94,24.09,21.42,5.19,4.94,9.49,10.53,13.21,16.96.24.41.6.6.88.45.17-.09.3-.42.43-.75.58-1.41,1.15-2.79,1.67-4.16.86,1.1,1.73,2.22,2.62,3.34,1.12-3.99.82-7.56-.43-11.18.4-3.03.15-6.09-1.25-9.31-2.02-4.65-4.33-8.7-6.79-13.01l-12.8-22.45-1.74-8.55,14.45,12.46c9.31,8.03,18.6,15.66,28.46,22.7Z"/>
  </g>
</svg>