<?xml version="1.0" encoding="UTF-8"?>
<svg id="Layer_2" data-name="Layer 2" xmlns="http://www.w3.org/2000/svg" viewBox="0 0 126.73 207.75">
  <defs>
    <style>
      .cls-1 {
        fill: #ffd900;
        opacity: .69;
      }
    </style>
  </defs>
  <g id="Layer_1-2" data-name="Layer 1">
    <path class="cls-1" d="M117.61,126.64l-1.98-2.07-1.26,2.57c-2.56,5.21-9.67,10.32-14.35,10.32-1.82,0-2.94-.78-3.52-2.45l-8.64-24.83-.12-.19c-5.59-9.06-5.06-18.44,1.69-30.41l.41-.73-.23-.8c-7.06-24.65-14.82-47.02-24.3-73.02l-1.83-5.03-1.92,5c-8.75,22.82-16.77,46.69-24.53,72.97l-.3,1,.65.82c8.93,11.12,5.54,19.88.4,33.15-2.52,6.52-5.38,13.88-7.19,22.8-1.21.75-2.51,1.12-3.93,1.12-4.47,0-10.27-3.82-15.89-10.49l-1.8-2.13-1.44,2.39c-4.73,7.86-8.72,20.91-7.22,29.12l9.38,51.4,29.16.6,5.29-25.99c5.91.39,11.58.58,17.28.58,7.02,0,14-.29,21.27-.88l4.55,25.65,29.57.45,9.65-54.19c1.48-8.29-3.55-21.17-8.86-26.71Z"/>
  </g>
</svg>