<?xml version="1.0" encoding="UTF-8"?>
<svg id="Layer_2" data-name="Layer 2" xmlns="http://www.w3.org/2000/svg" viewBox="0 0 20.05 100.66">
  <defs>
    <style>
      .cls-1 {
        fill: #fdd22c;
      }

      .cls-2 {
        fill: #feef84;
      }

      .cls-3 {
        fill: #f9a925;
      }

      .cls-4 {
        fill: #feef42;
      }
    </style>
  </defs>
  <g id="Layer_1-2" data-name="Layer 1">
    <g>
      <path class="cls-3" d="M10.03,0C4.49,0,0,2.73,0,6.09v88.37c.1-3.31,4.54-5.97,10.01-5.97,0,0,0,0,0,0,0,0,0,0,0,0,5.53,0,10.02,2.73,10.02,6.09V6.09c0-3.36-4.49-6.09-10.02-6.09ZM13.1,82.46c-.99-.12-2.02-.19-3.08-.19s-2.08.07-3.08.19V4.65c.6-.26,1.63-.57,3.08-.57s2.48.3,3.08.57v77.8Z"/>
      <path class="cls-1" d="M10.02,91.95c-4.54,0-8.36,1.83-9.59,4.34,1.23,2.52,5.06,4.36,9.6,4.36s8.36-1.84,9.59-4.36c-1.24-2.51-5.06-4.34-9.59-4.34Z"/>
      <path class="cls-1" d="M10.03,88.48s0,0,0,0c5.53,0,10.01,2.73,10.01,6.09,0,.3-.04.6-.11.89.07-.29.12-.58.12-.89,0-3.36-4.49-6.09-10.02-6.09Z"/>
      <path class="cls-2" d="M10.02,88.48s0,0,0,0C4.55,88.48.11,91.15,0,94.45c0,.04,0,.08,0,.12,0,.08.02.16.03.25.01.17.03.33.06.49.02.11.05.22.08.32.05.17.11.34.19.51.02.06.04.12.06.17,0,0,0,0,0,0,1.23-2.51,5.06-4.34,9.59-4.34s8.36,1.83,9.59,4.34c0,0,0,0,0,0,.01-.02.01-.05.03-.07.12-.25.22-.51.28-.78,0,0,0,0,0,0,.07-.29.11-.58.11-.89,0-3.36-4.48-6.08-10.01-6.09Z"/>
      <path class="cls-4" d="M6.95,4.65v77.8c.99-.12,2.02-.19,3.08-.19s2.08.07,3.08.19V4.65c-.6-.26-1.63-.57-3.08-.57s-2.48.3-3.08.57Z"/>
    </g>
  </g>
</svg>