<?xml version="1.0" encoding="UTF-8"?>
<svg id="Layer_2" data-name="Layer 2" xmlns="http://www.w3.org/2000/svg" viewBox="0 0 72.51 72.52">
  <defs>
    <style>
      .cls-1 {
        fill: #081421;
      }

      .cls-2 {
        fill: #f38c29;
      }

      .cls-3 {
        fill: #594231;
      }

      .cls-4 {
        fill: #f48e29;
      }
    </style>
  </defs>
  <g id="Layer_1-2" data-name="Layer 1">
    <g>
      <path class="cls-1" d="M36.26,72.52c-9.69,0-18.79-3.77-25.64-10.62C3.77,55.05,0,45.95,0,36.26S3.77,17.47,10.62,10.62C17.47,3.77,26.58,0,36.26,0s18.79,3.77,25.64,10.62c6.84,6.84,10.61,15.95,10.61,25.64s-3.77,18.8-10.61,25.64-15.96,10.62-25.64,10.62Z"/>
      <path class="cls-2" d="M36.26,66.52c-8.08,0-15.68-3.15-21.4-8.86-5.72-5.71-8.86-13.31-8.86-21.4s3.15-15.68,8.86-21.4,13.31-8.86,21.4-8.86,15.68,3.15,21.4,8.86c11.8,11.8,11.8,31,0,42.79-5.72,5.72-13.31,8.86-21.4,8.86Z"/>
      <circle class="cls-3" cx="36.26" cy="36.26" r="26.26"/>
      <path class="cls-4" d="M50.47,35.26l.16-.16c.12.06.16.21.34.23l-.03-1.49,2.59-3.81c.05-.08.06-.16.02-.21-.04-.04-.1-.02-.16.02l-1.79,1.17-2.16,1.46-1.41-.03.26.33-.37.37-.21-.19-3.05,3.04v-.78c-.07-.04-.17,0-.26,0l-.16-4.05,3.14-3.82,1.63-1.99.8-.35c.03-.07.05-.15.08-.21.22-.22.31-.5.43-.79.1-.13.22-.26.37-.39l1.11.09c.31-.27.66-.62.66-.77l.13-.12-1.09-.38.27-.45-1.54-1.53-.07.04h0s-.41.18-.41.18l-.38-1.1-.13.13s-.06,0-.09.04l-.66.66.09,1.06-.43.39c-.21.09-.43.17-.64.28-.09.05-.16.13-.23.24l-.1.05-.31.73-3.33,2.71-2.55,2.09-3.98-.14c0-.09.03-.25-.04-.26-.3-.05-.59-.02-.91,0l3.12-3.12-.13-.15.39-.39c.11.11.17.21.31.23v-1.34s2.61-3.9,2.61-3.9c.05-.08.07-.17.02-.2-.04-.03-.11,0-.16.04l-.98.62-2.87,1.93-1.6-.07.32.37-.14.14-.51-.18.25.44-4.52,4.51c-.09-.11-.26-.29-.36-.21l-1.45,1.43-.02.05h0s0,.02,0,.02l-.37,1.33-.08.09-3.56,3.54-1.51,1.26-.44.75-2.1,2.15c.09,0,.18-.02.27-.04l-.56.55,1.08-.58-1.79,1.9-1.29,1.41-1.23,1.36-1.17,1.29-1.26,1.38-.25.3c-.1.12-.05.27.04.34h0s.26.23.26.23l10.05-8.85.4-.17c-.18.34-.39.64-.61.99-.02.13,0,.14.1.02l1.55-1.57,3.61-3.74,1.83-.38-.04.09c-.02.06-.05.12-.03.15.02.04.07.08.13.08h.75c.03.1.08.17.14.21.14.1.53.04.65-.09l1-1.12c.17-.19.38-.61.23-.87-.08-.14-.22-.07-.39.03l.65-.67,1.87.07-.99,1.03-.39.91-.82.74-1.42,1.69-4.04,4.95-2.68,3.27-.14.29-.68.92-.07,1.04c.26.07.49-.25.64-.21h0s0,0,0,0c.01,0,.03.01.04.03.13.14-.29.5-.53,1.06-.03.06.1.06.15.03l.88-.54s.06,0,.09.03v.02s0-.01,0-.01c0,.02.01.03,0,.05-.05.17-.23.34-.24.49-.01.11.18.09.25.08.3-.03.61.05.89-.08l.81-.62c.21-.09.33-.16.53-.32l6.84-5.62,2.31-1.89c.37-.3.74-.6,1.02-.99.47-.66,1.12-.56,1.33-.76l.91-.85.07,1.8-.63.62c.04-.1.05-.22,0-.36-.33-.08-.73.12-.99.35l-1,.9c-.13.12-.22.55-.09.66.05.05.12.08.21.11v.68c0,.09.01.3.13.26l.19-.07-.36,1.7-2,2.09-3.44,3.29,1.13-.66-.19.41-8.86,10.06.17.16s.01.02.02.03c.06.1.25.18.39.06l.95-.84,1.41-1.25,1-.9,1.19-1.07,1.32-1.19,1.76-1.66-.56,1.03.47-.47-.03.07c-.02.05,0,.09.03.09.02,0,.05,0,.09-.04l2.2-2.09.68-.39.66-.82.73-.87,3.17-3.18.25-.22,1.47-.43,1.41-1.44c.09-.09-.08-.26-.17-.32l4.52-4.53.33.23c-.03-.17-.06-.32-.1-.46Z"/>
    </g>
  </g>
</svg>