<?xml version="1.0" encoding="UTF-8"?>
<svg id="Layer_2" data-name="Layer 2" xmlns="http://www.w3.org/2000/svg" viewBox="0 0 400 174.01">
  <defs>
    <style>
      .cls-1 {
        fill: #f14027;
      }

      .cls-2 {
        fill: #f38c29;
      }

      .cls-3 {
        fill: #fff;
      }

      .cls-4 {
        fill: #398ccd;
      }

      .cls-5 {
        fill: #9c54ce;
      }

      .cls-6 {
        fill: #00bb8d;
      }
    </style>
  </defs>
  <g id="Layer_1-2" data-name="Layer 1">
    <g>
      <rect y="75.57" width="400" height="2.42"/>
      <rect y="154.87" width="400" height="17.18"/>
      <rect y="135.73" width="400" height="12.81"/>
      <rect y="116.59" width="400" height="8.43"/>
      <rect y="97.45" width="400" height="4.06"/>
      <path class="cls-1" d="M26.23,28.06c-.55,5.95-.93,12.4-.82,19.06,3.49-.05,5.95-4.75,5.95-9.28,0-4.92-2.02-9.61-5.13-9.78Z"/>
      <path class="cls-1" d="M130.88,29.76c-2.89,0-4.26,2.08-4.26,8.03s1.37,8.08,4.26,8.08,4.26-2.08,4.26-8.08-1.37-8.03-4.26-8.03Z"/>
      <path class="cls-1" d="M305.99,29.81s-1.37,6.66-2.13,14.91h5.3c-.76-8.25-2.13-14.91-2.13-14.91h-1.04Z"/>
      <path class="cls-1" d="M213.74,29.81h-1.04s-.82,4.04-1.55,9.7h4.14c-.73-5.67-1.55-9.7-1.55-9.7Z"/>
      <path class="cls-1" d="M0,0v75.57h400V0H0ZM28.47,56.95h-13c-1.09,0-1.97-.87-1.97-1.97.11-6.94-.38-18.13,1.2-34.29.11-1.09.93-1.97,1.97-1.97h9.72c10.27,0,16.93,7.04,16.93,19.93s-6.33,18.29-14.85,18.29ZM73.93,55.89c0,.59-.48,1.06-1.06,1.06h-25.11c-1.09,0-1.97-.87-1.97-1.97.11-6.99-.38-18.13,1.2-34.29.11-1.09.93-1.97,1.97-1.97h20.15c2.07,0,2.89.82,3.17,2.73l.87,6.44c.27,2.02-.71,2.73-1.8,2.73-.33,0-.65-.05-.93-.16-1.04-.44-2.29-1.2-4.59-1.2h-4.92c-1.97,0-2.62.55-2.73,2.29-.11,1.64.55,2.57,2.08,2.57h1.8c2.18,0,3.28-.82,4.48-.82.87,0,1.64.44,1.8,1.64.16,1.26.54,3.66.71,4.86.16,1.26-.33,2.02-1.2,2.13-1.58.16-3.99-1.69-6.23-1.69h-1.75c-1.37,0-2.18.55-2.24,2.51-.11,1.97.71,2.78,2.46,2.78h4.15c1.23,0,2.18-.14,2.95-.34.83-.51,1.77-.87,2.77-1.04.28-.09.56-.15.84-.15.13,0,.25.01.37.03.05,0,.1,0,.14,0h1.56c.59,0,1.06.48,1.06,1.06v10.8ZM111.27,54.98c0,1.09-.6,1.97-1.75,1.97h-13.75c-.59,0-1.06-.48-1.06-1.06v-6.46c0-.59.48-1.06,1.06-1.06h3.76c.27-4.2.45-8.98.22-11.89h-1.09c-.49,2.73-1.8,5.89-2.73,8.45-.38,1.09-1.37,1.2-2.24,1.2s-1.8-.11-2.19-1.2c-.98-2.57-2.24-5.72-2.73-8.45h-1.09c-.27,2.91-.08,7.7.2,11.89h3.44c.59,0,1.06.48,1.06,1.06v6.46c0,.59-.48,1.06-1.06,1.06h-13.46c-1.15,0-1.69-.87-1.69-1.97,0-7.59-.38-21.95,3.44-34.29.33-1.09,1.37-1.97,2.51-1.97h7.43c1.15,0,2.24.76,2.29,1.97,0,0,.98,13.54,1.37,15.78h1.04c.38-2.24,1.31-15.78,1.31-15.78.11-1.2,1.2-1.97,2.35-1.97h7.43c1.15,0,2.13.87,2.46,1.97,3.82,12.34,3.49,26.7,3.49,34.29ZM130.88,57.61c-10.81,0-17.04-3.39-17.04-19.82s6.23-19.77,17.04-19.77,17.04,3.39,17.04,19.77-6.23,19.82-17.04,19.82ZM181.51,54.98c-.11,1.09-1.42,1.97-2.68,1.97h-7.86c-1.2,0-2.35-.76-2.46-1.97l-4.75-18.51h-1.15c-.27,2.43-.45,6.96-.32,11.89h2.44c.59,0,1.06.48,1.06,1.06v6.46c0,.59-.48,1.06-1.06,1.06h-12.55c-1.2,0-1.8-.87-1.8-1.97,0-7.59-.16-21.73,1.04-34.29.16-1.09,1.47-1.97,2.68-1.97h7.86c1.2,0,2.35.76,2.46,1.97l4.75,18.51h1.2c.33-3.49.55-11.36-.11-18.51-.11-1.15.93-1.97,2.13-1.97h8.36c1.2,0,1.8.87,1.8,1.97,0,7.59.22,21.73-1.04,34.29ZM226.9,56.95h-8.03c-1.53,0-2.51-.82-2.51-2.51,0-2.24-.11-4.48-.22-6.66h-5.84c-.11,2.18-.22,4.42-.22,6.66,0,1.69-.98,2.51-2.51,2.51h-8.03c-1.15,0-1.8-.87-1.75-1.97.6-8.19,1.09-17.69,6.01-33.86.44-1.42,1.42-2.4,3.39-2.4h12.07c1.97,0,2.95.98,3.39,2.4,4.92,16.16,5.41,25.67,6.01,33.86.06,1.09-.6,1.97-1.75,1.97ZM257.37,32.21c-2.24,0-4.15-2.95-6.44-2.95h-2.68c.49,8.9,1.37,20.75,1.47,25.72,0,1.09-.93,1.97-1.97,1.97h-8.36c-1.09,0-2.02-.87-1.97-1.97.05-4.97.93-16.82,1.42-25.72h-2.62c-2.35,0-4.26,2.95-6.5,2.95-1.2,0-2.46-1.04-2.13-3.33l1.04-7.43c.33-1.91,1.09-2.73,3.17-2.73h23.48c2.08,0,2.89.82,3.17,2.73l1.04,7.43c.33,2.29-.93,3.33-2.13,3.33ZM289.49,32.21c-2.24,0-4.15-2.95-6.44-2.95h-2.68c.49,8.9,1.37,20.75,1.47,25.72,0,1.09-.93,1.97-1.97,1.97h-8.35c-1.09,0-2.02-.87-1.97-1.97.05-4.97.93-16.82,1.42-25.72h-2.62c-2.35,0-4.26,2.95-6.5,2.95-1.2,0-2.46-1.04-2.13-3.33l1.04-7.43c.33-1.91,1.09-2.73,3.17-2.73h23.48c2.08,0,2.89.82,3.17,2.73l1.04,7.43c.33,2.29-.93,3.33-2.13,3.33ZM320.18,56.95h-8.03c-1.53,0-2.51-.82-2.51-2.51,0-2.24-.11-4.48-.22-6.66h-5.84c-.11,2.18-.22,4.42-.22,6.66,0,1.69-.98,2.51-2.51,2.51h-8.03c-1.15,0-1.8-.87-1.75-1.97.6-8.19,1.09-17.69,6.01-33.86.44-1.42,1.42-2.4,3.39-2.4h12.07c1.97,0,2.95.98,3.39,2.4,4.92,16.16,5.41,25.67,6.01,33.86.06,1.09-.6,1.97-1.75,1.97ZM352.19,38.38h-4.37c-2.57,0-4.04-1.47-4.04-3.99,0-3.33-1.04-4.48-2.79-4.48-2.57,0-3.82,3.11-3.82,6.5,0,6.12,3.39,9.23,7.04,9.23,2.18,0,4.21-.87,5.62-1.47.27-.11.55-.16.87-.16,1.15,0,2.29.98,2.29,2.62v3.34s.02.07.02.11v6.46c0,.59-.48,1.06-1.06,1.06h-9.45c-.14,0-.29,0-.43,0-10.7,0-19.33-6.61-19.33-19.82s6.83-19.82,17.53-19.82c9.67,0,15.62,5.57,15.62,16.44,0,2.73-.98,3.99-3.71,3.99ZM387.19,54.98c0,1.09-.87,1.97-1.97,1.97h-12.05c-.59,0-1.06-.48-1.06-1.06v-6.46c0-.59.48-1.06,1.06-1.06h1.11c-.3-1.62-.64-3.18-.96-4.47-.27-1.09-2.23-1.69-2.77-1.69-.6,0-1.15.65-1.15,2.08,0,3.55.11,7.1.38,10.7.11,1.15-.87,1.97-1.97,1.97h-8.35c-1.09,0-1.97-.87-1.97-1.97.11-6.94-.38-18.13,1.2-34.29.11-1.09.93-1.97,1.97-1.97h8.41c1.04,0,2.08.87,1.97,1.97-.49,4.04-.87,8.46-1.26,13.16-.11,1.47.27,2.18.82,2.18s2.56-.71,2.94-2.18c.98-4.1,2.13-9.99,2.24-13.16.05-1.15.87-1.97,1.97-1.97h8.14c1.09,0,1.97.87,1.97,1.97,0,8.14-5.62,18.13-12.56,18.13v1.04c6.61,0,11.91,7.15,11.91,15.13Z"/>
      <rect class="cls-2" y="77.99" width="400" height="19.46"/>
      <rect class="cls-6" y="101.51" width="400" height="15.08"/>
      <rect class="cls-4" y="125.02" width="400" height="10.71"/>
      <rect class="cls-5" y="148.54" width="400" height="6.33"/>
      <rect class="cls-3" y="172.05" width="400" height="1.96"/>
      <path class="cls-3" d="M26.4,18.72h-9.72c-1.04,0-1.86.87-1.97,1.97-1.58,16.16-1.09,27.36-1.2,34.29,0,1.09.87,1.97,1.97,1.97h13c8.52,0,14.85-5.79,14.85-18.29s-6.66-19.93-16.93-19.93ZM25.41,47.12c-.11-6.66.27-13.11.82-19.06,3.11.16,5.13,4.86,5.13,9.78,0,4.53-2.46,9.23-5.95,9.28Z"/>
      <path class="cls-3" d="M105.32,18.72h-7.43c-1.15,0-2.24.76-2.35,1.97,0,0-.93,13.54-1.31,15.78h-1.04c-.38-2.24-1.37-15.78-1.37-15.78-.05-1.2-1.15-1.97-2.29-1.97h-7.43c-1.15,0-2.18.87-2.51,1.97-3.82,12.34-3.44,26.7-3.44,34.29,0,1.09.55,1.97,1.69,1.97h13.46c.59,0,1.06-.48,1.06-1.06v-6.46c0-.59-.48-1.06-1.06-1.06h-3.44c-.28-4.2-.47-8.98-.2-11.89h1.09c.49,2.73,1.75,5.89,2.73,8.45.38,1.09,1.31,1.2,2.19,1.2s1.86-.11,2.24-1.2c.93-2.57,2.24-5.72,2.73-8.45h1.09c.23,2.91.06,7.7-.22,11.89h-3.76c-.59,0-1.06.48-1.06,1.06v6.46c0,.59.48,1.06,1.06,1.06h13.75c1.15,0,1.75-.87,1.75-1.97,0-7.59.33-21.95-3.49-34.29-.33-1.09-1.31-1.97-2.46-1.97Z"/>
      <path class="cls-3" d="M130.88,18.01c-10.81,0-17.04,3.39-17.04,19.77s6.23,19.82,17.04,19.82,17.04-3.39,17.04-19.82-6.23-19.77-17.04-19.77ZM130.88,45.87c-2.89,0-4.26-2.08-4.26-8.08s1.37-8.03,4.26-8.03,4.26,2.08,4.26,8.03-1.37,8.08-4.26,8.08Z"/>
      <path class="cls-3" d="M180.75,18.72h-8.36c-1.2,0-2.24.82-2.13,1.97.65,7.15.44,15.02.11,18.51h-1.2l-4.75-18.51c-.11-1.2-1.26-1.97-2.46-1.97h-7.86c-1.2,0-2.51.87-2.68,1.97-1.2,12.56-1.04,26.7-1.04,34.29,0,1.09.6,1.97,1.8,1.97h12.55c.59,0,1.06-.48,1.06-1.06v-6.46c0-.59-.48-1.06-1.06-1.06h-2.44c-.13-4.94.06-9.47.32-11.89h1.15l4.75,18.51c.11,1.2,1.26,1.97,2.46,1.97h7.86c1.26,0,2.57-.87,2.68-1.97,1.26-12.56,1.04-26.7,1.04-34.29,0-1.09-.6-1.97-1.8-1.97Z"/>
      <path class="cls-3" d="M219.25,18.72h-12.07c-1.97,0-2.95.98-3.39,2.4-4.91,16.16-5.41,25.67-6.01,33.86-.06,1.09.6,1.97,1.75,1.97h8.03c1.53,0,2.51-.82,2.51-2.51,0-2.24.11-4.48.22-6.66h5.84c.11,2.18.22,4.42.22,6.66,0,1.69.98,2.51,2.51,2.51h8.03c1.15,0,1.8-.87,1.75-1.97-.6-8.19-1.09-17.69-6.01-33.86-.44-1.42-1.42-2.4-3.39-2.4ZM212.7,29.81h1.04s.82,4.04,1.55,9.7h-4.14c.73-5.67,1.55-9.7,1.55-9.7Z"/>
      <path class="cls-3" d="M258.47,21.46c-.27-1.91-1.09-2.73-3.17-2.73h-23.48c-2.07,0-2.84.82-3.17,2.73l-1.04,7.43c-.33,2.29.93,3.33,2.13,3.33,2.24,0,4.15-2.95,6.5-2.95h2.62c-.49,8.9-1.37,20.75-1.42,25.72-.05,1.09.87,1.97,1.97,1.97h8.36c1.04,0,1.97-.87,1.97-1.97-.11-4.97-.98-16.82-1.47-25.72h2.68c2.29,0,4.2,2.95,6.44,2.95,1.2,0,2.46-1.04,2.13-3.33l-1.04-7.43Z"/>
      <path class="cls-3" d="M291.62,28.88l-1.04-7.43c-.27-1.91-1.09-2.73-3.17-2.73h-23.48c-2.07,0-2.84.82-3.17,2.73l-1.04,7.43c-.33,2.29.93,3.33,2.13,3.33,2.24,0,4.15-2.95,6.5-2.95h2.62c-.49,8.9-1.37,20.75-1.42,25.72-.05,1.09.87,1.97,1.97,1.97h8.35c1.04,0,1.97-.87,1.97-1.97-.11-4.97-.98-16.82-1.47-25.72h2.68c2.29,0,4.2,2.95,6.44,2.95,1.2,0,2.46-1.04,2.13-3.33Z"/>
      <path class="cls-3" d="M312.54,18.72h-12.07c-1.97,0-2.95.98-3.39,2.4-4.91,16.16-5.41,25.67-6.01,33.86-.05,1.09.6,1.97,1.75,1.97h8.03c1.53,0,2.51-.82,2.51-2.51,0-2.24.11-4.48.22-6.66h5.84c.11,2.18.22,4.42.22,6.66,0,1.69.98,2.51,2.51,2.51h8.03c1.15,0,1.8-.87,1.75-1.97-.6-8.19-1.09-17.69-6.01-33.86-.44-1.42-1.42-2.4-3.39-2.4ZM303.86,44.72c.76-8.25,2.13-14.91,2.13-14.91h1.04s1.37,6.66,2.13,14.91h-5.3Z"/>
      <path class="cls-3" d="M340.29,17.96c-10.7,0-17.53,6.61-17.53,19.82s8.63,19.82,19.33,19.82c.14,0,.29,0,.43-.01h0s9.45.01,9.45.01c.59,0,1.06-.48,1.06-1.06v-6.46s-.02-.07-.02-.11v-3.34c0-1.64-1.15-2.62-2.29-2.62-.33,0-.6.06-.87.16-1.42.6-3.44,1.47-5.62,1.47-3.66,0-7.04-3.11-7.04-9.23,0-3.39,1.26-6.5,3.82-6.5,1.75,0,2.79,1.15,2.79,4.48,0,2.51,1.47,3.99,4.04,3.99h4.37c2.73,0,3.71-1.26,3.71-3.99,0-10.87-5.95-16.44-15.62-16.44Z"/>
      <path class="cls-3" d="M387.84,20.69c0-1.09-.87-1.97-1.97-1.97h-8.14c-1.09,0-1.91.82-1.97,1.97-.11,3.17-1.26,9.07-2.24,13.16-.38,1.47-2.39,2.18-2.94,2.18s-.93-.71-.82-2.18c.38-4.7.76-9.12,1.26-13.16.11-1.09-.93-1.97-1.97-1.97h-8.41c-1.04,0-1.86.87-1.97,1.97-1.58,16.16-1.09,27.36-1.2,34.29,0,1.09.87,1.97,1.97,1.97h8.35c1.09,0,2.08-.82,1.97-1.97-.27-3.6-.38-7.15-.38-10.7,0-1.42.55-2.08,1.15-2.08.55,0,2.5.6,2.77,1.69.32,1.29.66,2.85.96,4.47h-1.11c-.59,0-1.06.48-1.06,1.06v6.46c0,.59.48,1.06,1.06,1.06h12.05c1.09,0,1.97-.87,1.97-1.97,0-7.97-5.3-15.13-11.91-15.13v-1.04c6.94,0,12.56-9.99,12.56-18.13Z"/>
      <path class="cls-3" d="M72.87,44.03h-1.56s-.1,0-.14,0c-.12-.02-.24-.03-.37-.03-.28,0-.56.06-.84.15-1,.17-1.93.53-2.77,1.04-.77.2-1.72.34-2.95.34h-4.15c-1.75,0-2.57-.82-2.46-2.78.06-1.97.87-2.51,2.24-2.51h1.75c2.24,0,4.64,1.86,6.23,1.69.87-.11,1.37-.87,1.2-2.13-.16-1.2-.55-3.6-.71-4.86-.16-1.2-.93-1.64-1.8-1.64-1.2,0-2.29.82-4.48.82h-1.8c-1.53,0-2.18-.93-2.08-2.57.11-1.75.76-2.29,2.73-2.29h4.92c2.29,0,3.55.76,4.59,1.2.27.11.6.16.93.16,1.09,0,2.08-.71,1.8-2.73l-.87-6.44c-.27-1.91-1.09-2.73-3.17-2.73h-20.15c-1.04,0-1.86.87-1.97,1.97-1.58,16.16-1.09,27.3-1.2,34.29,0,1.09.87,1.97,1.97,1.97h25.11c.59,0,1.06-.48,1.06-1.06v-10.8c0-.59-.48-1.06-1.06-1.06Z"/>
    </g>
  </g>
</svg>