<?xml version="1.0" encoding="UTF-8"?>
<svg id="Layer_2" data-name="Layer 2" xmlns="http://www.w3.org/2000/svg" viewBox="0 0 72.51 72.52">
  <defs>
    <style>
      .cls-1 {
        fill: #081421;
      }

      .cls-2 {
        fill: #f38c29;
      }

      .cls-3 {
        fill: #594231;
      }

      .cls-4 {
        fill: #f48e29;
      }
    </style>
  </defs>
  <g id="Layer_1-2" data-name="Layer 1">
    <g>
      <path class="cls-1" d="M36.26,72.52c-9.69,0-18.79-3.77-25.64-10.62C3.77,55.05,0,45.95,0,36.26S3.77,17.47,10.62,10.62C17.47,3.77,26.58,0,36.26,0s18.79,3.77,25.64,10.62c6.84,6.84,10.61,15.95,10.61,25.64s-3.77,18.8-10.61,25.64-15.96,10.62-25.64,10.62Z"/>
      <path class="cls-2" d="M36.26,66.52c-8.08,0-15.68-3.15-21.4-8.86-5.72-5.71-8.86-13.31-8.86-21.4s3.15-15.68,8.86-21.4,13.31-8.86,21.4-8.86,15.68,3.15,21.4,8.86c11.8,11.8,11.8,31,0,42.79-5.72,5.72-13.31,8.86-21.4,8.86Z"/>
      <circle class="cls-3" cx="36.26" cy="36.26" r="26.26"/>
      <path class="cls-4" d="M32,53.73c.21-.38.41-.75.59-1.12l-.02.55.34-.37.09-.33,2.88-7.46v-.27s.75-1.89.75-1.89c.25-.61-.03-1.48.09-1.74l.49-1.08,1.14-2.5c.09-.19.25-.42.21-.62l-.1-.53c.66-.31,1.41-.51,1.35-1.03l-.05-.42.42-.22c.16-.08.19-.32.17-.46l-.15-1.27,2.35-2.57c1.97-2.14,4.03-4.03,5.25-6.62.72-1.53,1.51-2.91,2.38-4.21l-.3.16.16-.3-1.3.67-4.74,2.62c-.36.2-.67.38-.97.66l-1.55,1.42-1.94,1.82-2.16,2.03-.69.64-1.42-.17c-.32-.04-.53.13-.69.43l-.17.33c-.16,0-.3.02-.41.06-.28.1-.52.56-.69,1.07l-.77-.12c-.22-.03-.48.15-.72.26l-3.18,1.43c-.2.09-.38.15-.59.14l-.83-.03c-.26,0-.49.03-.75.13l-3.33,1.39-4.55,1.87c-.4.17-.79.33-1.18.51l-1.31.51h.29c-.21.1-.42.21-.63.34,1.46.26,2.84.43,4.3.54l4.13.33-1.08.66-4.68,1.31c-.89.25-1.97.6-2.49,1.39-.08.12-.16.25-.23.38-.31.24-.58.54-.82.96.13-.02.25-.05.38-.07-.08.18-.15.37-.21.56,1.15-.32,2.21-.49,3.32-.47,1.69.03,3.31.17,4.98.32l.67-.45c.15.04.3.08.46.13l-1.85,2.26-1.81,2.25c-1.07,1.32-2.09,2.63-3.05,4.09.15-.1.31-.2.46-.3l-.33.44,8.75-6.69s.02.08.03.11l-.6.89c.13,1.65.25,3.24.29,4.89.03,1.09-.11,2.15-.4,3.24-.02.07,0,.13.05.14.03,0,.08-.01.13-.03.21-.09.42-.18.63-.27-.03.21-.05.42-.08.64.55-.31.9-.72,1.16-1.25.37-.28.67-.64.87-1.13.28-.72.47-1.4.67-2.13l1.04-3.79.73-1.11.21,2.89c.14,1.86.32,3.68.62,5.5Z"/>
    </g>
  </g>
</svg>