<?xml version="1.0" encoding="UTF-8"?>
<svg id="Layer_2" data-name="Layer 2" xmlns="http://www.w3.org/2000/svg" viewBox="0 0 72.51 72.52">
  <defs>
    <style>
      .cls-1 {
        fill: #081421;
      }

      .cls-2 {
        fill: #f38c29;
      }

      .cls-3 {
        fill: #594231;
      }

      .cls-4 {
        fill: #f48e29;
      }
    </style>
  </defs>
  <g id="Layer_1-2" data-name="Layer 1">
    <g>
      <path class="cls-1" d="M36.26,72.52c-9.69,0-18.79-3.77-25.64-10.62C3.77,55.05,0,45.95,0,36.26S3.77,17.47,10.62,10.62C17.47,3.77,26.58,0,36.26,0s18.79,3.77,25.64,10.62c6.84,6.84,10.61,15.95,10.61,25.64s-3.77,18.8-10.61,25.64-15.96,10.62-25.64,10.62Z"/>
      <path class="cls-2" d="M36.26,66.52c-8.08,0-15.68-3.15-21.4-8.86-5.72-5.71-8.86-13.31-8.86-21.4s3.15-15.68,8.86-21.4,13.31-8.86,21.4-8.86,15.68,3.15,21.4,8.86c11.8,11.8,11.8,31,0,42.79-5.72,5.72-13.31,8.86-21.4,8.86Z"/>
      <circle class="cls-3" cx="36.26" cy="36.26" r="26.26"/>
      <g>
        <path class="cls-4" d="M46.11,36.16c.07-.07.12-.13,0-.22.12-.11-.04-.19-.1-.06l-1.97-1.86-1.21-1.17-3.85-3.86-1.53-1.66c.07-.07.03-.04,0-.01l-.41-.45c-.13-.14-.24-.38-.44-.42-.03,0-.02-.06-.07-.12l-4.54,4.6-1.3,1.39-.9.98-.55.64c-.13.15-.26.29-.4.44.03.06.06.07.08.09-1.26,1.51-3.55,4.4-4,6.03-.08.28.07.53.22.7l1.19,1.37c.11-.15.24-.2.35-.28.74-.51,1.58-.9,2.49-1.02.99-.13,1.9.38,2.05,1.37.19,1.23-.44,2.4-1.11,3.36-.04-.12-.12-.03-.1-.01.08.06.05.14-.06.18l.65.63c.14.13.26.24.39.35l.39.31c.29.23.63.27.97.14.91-.35,1.74-.86,2.54-1.43l1.16-.81c.06.12.19.02.12-.07l1.23-.95c.04.09.21.04.09-.07l1.38-1.16,2.11-1.92,2.15-2.07c.11.09.17.04.08-.07l2.91-2.88Z"/>
        <path class="cls-4" d="M51.34,28.18c.11.12.17.28.33.36.82-1.9,1.37-3.88,1.64-5.95.03-.22.05-.4.03-.59.1-.09.16-2.09.02-2.76-.9-.11-1.82-.06-2.79.04-2.22.22-4.34.82-6.4,1.73l5.36,5.33,1.82,1.84Z"/>
        <path class="cls-4" d="M37.68,54.55l3.53-4.14c.31-.36.35-.7.36-1.15l.05-2.89.05-2.32.03-1.35s.06-.12.01-.18l-.61.56-.97.89-.69.59-.58.51-.52.43c-.19.15-.39.33-.6.49l-1.87,1.4.37,2.1.5,3.43.26,1.41c.05.31.1.58.09.91l.59-.7Z"/>
        <path class="cls-4" d="M25.42,50.12l-.98.64c-.62.4-1.31.66-2.01.82h-.49c-.82-.03-.96-.99-1.01-1.01.09-.81.32-1.58.77-2.28l.81-1.26c-.34-.37-.66-.83-.89-.74-.1.04-.15.08-.24.17l-.62.65s0,.12-.04.16c-.04-.04-.07,0-.08.01-.64,1.44-1.25,2.88-1.69,4.41-.26.9-.47,2.12.46,2.19,1.29.1,4.23-1.15,5.59-1.78.56-.26.96-.65,1.33-1.19-.18-.41-.71-.92-.9-.79Z"/>
        <path class="cls-4" d="M22.59,49.99c1.3-.58,2.37-1.33,3.41-2.17l.43-.35.47-.39.73-.64,1.71-1.71c.33-.33.44-.83.5-1.26.05-.36-.18-.7-.53-.73-.22-.01-.45-.02-.66.06-.43.16-.87.4-1.23.76-1.53,1.54-2.9,3.19-4.08,4.98-.31.46-.58.93-.74,1.44Z"/>
        <path class="cls-4" d="M28.31,32.73l1.58-1.79-1.8.05-2.19.04-3.06.04c-.4,0-.68.32-.97.56l-.69.59-.25.21-3.06,2.57-.54.51.75.09,6.8,1.14c.14.02.26.09.37-.07.87-1.27,1.82-2.48,2.83-3.64l.23-.3Z"/>
        <path class="cls-4" d="M29.62,48.71l.34-.87-.93-.72c-.79.76-1.58,1.45-2.44,2.09l.53.48,1.29,1.21c.1.1.35.21.41.05l.79-2.23Z"/>
        <path class="cls-4" d="M40.65,23.17l-.13.05,2.52,2.56,3.37,3.37,3,2.96s.07.02.09.02c.09,0,.12-.11.17-.18l.39-.58,1.07-1.81-2.02-2.04-6.02-6.02-2.01,1.23s-.05.02-.04.04c-.11.09-.26.1-.37.28-.11-.04-.14.07-.04.11Z"/>
        <path class="cls-4" d="M23.26,45.88c.12-.1.16-.21.26-.31l.51-.59.5-.59.63-.7.2-.26-.19-.26c-.18-.24-.41-.47-.62-.62l-3.11,1.26.61.71.76.84c.16.18.3.34.47.53Z"/>
        <path class="cls-4" d="M37.47,25.67s-.08-.04-.08-.02c0,.02-.01.09,0,.12l9.44,9.44c.06.06.07.07.12.08.06.02.08-.01.09-.06l.56-.62.44-.52.37-.47c.12-.15.25-.28.39-.45l-2.2-2.21-4.94-4.94-.09-.09-2.05-2.05c-.1.16-.26.21-.38.31l-1.58,1.29-.04.05s-.04.07-.04.15Z"/>
      </g>
    </g>
  </g>
</svg>