<?xml version="1.0" encoding="UTF-8"?>
<svg id="Layer_2" data-name="Layer 2" xmlns="http://www.w3.org/2000/svg" viewBox="0 0 72.51 72.52">
  <defs>
    <style>
      .cls-1 {
        fill: #081421;
      }

      .cls-2 {
        fill: #f38c29;
      }

      .cls-3 {
        fill: #594231;
      }

      .cls-4 {
        fill: #f48e29;
      }
    </style>
  </defs>
  <g id="Layer_1-2" data-name="Layer 1">
    <g>
      <path class="cls-1" d="M36.26,72.52c-9.69,0-18.79-3.77-25.64-10.62C3.77,55.05,0,45.95,0,36.26S3.77,17.47,10.62,10.62C17.47,3.77,26.58,0,36.26,0s18.79,3.77,25.64,10.62c6.84,6.84,10.61,15.95,10.61,25.64s-3.77,18.8-10.61,25.64-15.96,10.62-25.64,10.62Z"/>
      <path class="cls-2" d="M36.26,66.52c-8.08,0-15.68-3.15-21.4-8.86-5.72-5.71-8.86-13.31-8.86-21.4s3.15-15.68,8.86-21.4,13.31-8.86,21.4-8.86,15.68,3.15,21.4,8.86c11.8,11.8,11.8,31,0,42.79-5.72,5.72-13.31,8.86-21.4,8.86Z"/>
      <circle class="cls-3" cx="36.26" cy="36.26" r="26.26"/>
      <path class="cls-4" d="M28.62,47.24c-2.35-1.97-4.34-3.95-6.26-6.17l-4.64,3.06-3.77-3.92,6-8.7c.96-1.39,3.43-2.64,5.13-3.06-.18,2.24.24,4.53,2.07,4.81,4.84-3.26,9.09-2.84,9.59-7.65,4.72-2.56,9.46-4.93,14.39-7.11-2.46,5.3-4.61,9.77-7.16,14.37-2.27.62-4.39,1.77-5.04,4.54l-2.36,4.91c-.83,1.73,2.45,2.71,4.33,2.07-.03,1.48-1.12,4-2.45,4.93l-9.14,6.36-3.84-3.96,3.13-4.49Z"/>
    </g>
  </g>
</svg>