<?xml version="1.0" encoding="UTF-8"?>
<svg id="Layer_2" data-name="Layer 2" xmlns="http://www.w3.org/2000/svg" viewBox="0 0 1920 1024">
  <defs>
    <style>
      .cls-1, .cls-2 {
        fill: none;
      }

      .cls-2 {
        stroke: #000;
        stroke-linecap: round;
        stroke-linejoin: round;
      }

      .cls-3 {
        fill: red;
      }
    </style>
  </defs>
  <g id="Layer_1-2" data-name="Layer 1">
    <g>
      <path class="cls-1" d="M1683,704.74c-.22-1.72-.38-2.92-.55-4.23-12.32,5.16-24.61,10.42-36.86,15.77,1.23,2.2,2.51,4.33,3.78,6.35,11.17-6.04,22.38-12.01,33.64-17.9Z"/>
      <path class="cls-1" d="M630.82,167.39c.98-.44,1.96-.9,2.94-1.37-22.08,1.45-44.14,3.07-66.19,4.87,20.92,1.53,43.91,5.15,63.25-3.5Z"/>
      <path class="cls-1" d="M1684.83,700.13c.04.06-.02.06-.13.03-.41.45-1.4,3.69-1.7,4.58,5.78-.83,8.68-1.24,14.47-2.04-1.58-2.16-3.17-4.31-4.75-6.46-2.89,1.2-5.78,2.39-8.66,3.6.27.16.5.27.64.32.05-.06.1-.08.13-.03Z"/>
      <path class="cls-1" d="M1768.04,404.71c-6.75-4.86-13.52-9.63-20.36-14.28,7.07,5.48,14.34,10.56,21.78,15.32-.47-.35-.94-.7-1.42-1.04Z"/>
      <path class="cls-1" d="M1731.27,687.97c-1.54-1.87-3.09-3.69-4.66-5.49-9.8,3.89-19.57,7.86-29.32,11.87,1.61,1.94,3.23,3.88,4.84,5.82,9.69-4.13,19.41-8.19,29.15-12.2Z"/>
      <path class="cls-1" d="M1839.12,647.98c-1.96-2.1-3.58-3.85-5.11-5.49-14.9,5.18-29.76,10.51-44.58,15.96-.11,2.47-.2,4.94-.31,7.41,16.62-6.08,33.29-12.04,50-17.88Z"/>
      <path class="cls-1" d="M1785.14,667c-.1-2.28-.2-4.57-.3-6.85-12.55,4.64-25.06,9.39-37.54,14.22,2.22,1.78,4.46,3.55,6.75,5.27,10.35-4.26,20.71-8.47,31.09-12.65Z"/>
      <path class="cls-1" d="M1746.46,682.87c-2.37-2.23-4.31-4.07-6.15-5.79-2.92,1.14-5.84,2.3-8.76,3.45,3.39,4.26,8.15,6.31,14.91,2.34Z"/>
      <path class="cls-1" d="M1645.85,549.53c11.41,9.12,20.55,21.45,27.85,34.82-3.26-19.59-20.13-34.39-36.04-44.94-.31.17-.61.34-.89.49,2.51,3.47,5.44,6.73,9.08,9.63Z"/>
      <path class="cls-1" d="M1784.58,578.79c1.99,15.16,3.93,30.32,5.78,45.49-.12,3.02-.26,6.04-.38,9.06.12,1.02.26,2.03.38,3.05-.23,5.72-.48,11.44-.72,17.17,13.63-4.98,27.3-9.87,40.99-14.69-1.85-1.97-3.79-4.03-6.23-6.63-11.72-19.35-24.5-36.9-39.82-53.45Z"/>
      <path class="cls-1" d="M1864.73,461.88c4.34,3.07,8.82,5.94,13.4,8.62-4.13-3.1-8.56-5.98-13.4-8.62Z"/>
      <path class="cls-1" d="M1727.89,657.16c5.24,5.1,10.69,10,16.37,14.71.71-.3,1.45-.66,2.21-1.11-6.71-6.33-10.08-9.48-16.85-15.78-.7.88-1.19,1.51-1.72,2.18Z"/>
      <path class="cls-1" d="M1659.84,365.05c14.94,30.68,31.42,60.26,49.68,88.91-17.29-29.68-33.92-59.69-49.68-88.91Z"/>
      <path class="cls-1" d="M1640.33,553.33c10.61,12.01,21.16,24.06,31.62,36.21-5.23-15.17-18.47-27.14-31.62-36.21Z"/>
      <path class="cls-1" d="M1910.04,503.74c-4.77-6.14-9.56-12.04-14.7-17.58-.47-.15-.94-.3-1.41-.45,5.49,5.86,10.81,11.92,16.11,18.03Z"/>
      <path class="cls-1" d="M1608.21,495.22c.64.53,1.26,1.06,1.86,1.61.41-.24.78-.45,1.32-.76-.64-.7-.96-1.05-1.6-1.76-.65.37-1.05.61-1.58.91Z"/>
      <path class="cls-1" d="M1683,692.63c-.34-2.62-.52-4.05-.84-6.49-.14-.23-.19-.44-.08-.6-1.11-2.93-1.91-5.04-2.75-7.25-1.5,2.79-2.62,4.58-2.59,5.55.11.22.22.44.34.66,1.59,2.94,3.1,6.01,4.07,9.1.62-.32,1.24-.66,1.86-.98Z"/>
      <path class="cls-1" d="M1674.26,603.55c-9.81-11.48-19.68-22.91-29.63-34.27.02.38.04.73.06,1.09,9.92,11.26,19.79,22.56,29.57,33.94,0-.26,0-.51,0-.77Z"/>
      <path class="cls-1" d="M945.53,966.14c-.02,4.12-.03,8.23-.05,12.35.02-.08.03-.16.05-.23.16-5.16.32-10.32.48-15.48-.16,1.12-.32,2.25-.48,3.37Z"/>
      <path class="cls-1" d="M1682.08,685.54c.03.21.05.4.08.6.48.77,2.06,1.74,2.54,1.91.05-.06.1-.08.13-.03.04.06-.02.06-.13.03-.41.45-1.4,3.69-1.7,4.58,2.52-.36,4.49-.64,6.39-.91-2.93-3.96-5.86-7.91-8.81-11.86.71,1.89,1.25,3.79,1.5,5.68Z"/>
      <path class="cls-1" d="M340.75,490.14c-14.66,2.29-29.24,5.2-42.52,10.54-6.85,2.76-13.67,5.65-20.48,8.65,1.23,1.87,2.53,3.86,4.13,6.32,19.55-8.68,39.18-17.17,58.87-25.51Z"/>
      <path class="cls-1" d="M408.96,460.35c-.05-1.38-.15-2.74-.23-4.1-4.48,1.6-8.96,3.2-13.43,4.81-.24.11-.5.21-.78.28-14.89,5.36-29.74,10.81-44.57,16.35-2.03.76-9.5,2.89-9.13,4.34.75,2.93,1.16,4.5,1.87,7.28,10.59-4.48,21.2-8.94,31.84-13.32,11.44-5.28,22.92-10.49,34.42-15.63Z"/>
      <path class="cls-1" d="M975.12,779.12c.56-.15,1.09-.28,1.59-.42,3.27-13.66,6.69-27.28,10.23-40.88-4,13.75-7.94,27.51-11.83,41.3Z"/>
      <path class="cls-1" d="M1253.4,28.24c-5.36-.24-11,.94-15.8,2.64,1.6.78,2.82,1.38,4.02,1.97,4.23-.84,8.45-1.69,12.68-2.55-.29-.7-.6-1.37-.9-2.06Z"/>
      <path class="cls-1" d="M379.4,226.85c47.77-21.89,97.31-38.7,148.31-51.21-9.55,1.32-19.09,2.67-28.63,4.06-35.28,5.82-68.7,15.96-100.92,31.55-8.73,4.45-13.08,6.68-21.76,11.18.38,1.55.74,3.11,1.11,4.67.67.11,1.31.04,1.88-.24Z"/>
      <path class="cls-1" d="M660.44,152.31c-3.28-1.86-15.03.46-18.51,2.49-2.79,1.63-4.18,2.44-6.96,4.07-1.27.74-4.44,3.45-2.97,3.73,2.47.48,4.38.85,6.24,1.21,7.32-3.74,14.7-7.96,22.31-11.42-.04-.02-.07-.05-.11-.08Z"/>
      <path class="cls-1" d="M852.48,107.6c12.61-1.36,25.24-2.65,37.86-3.88,23.41-3.01,46.84-5.82,70.29-8.45,72.24-28.57,147.76-44.41,224.51-53.15,17.93-2.04,35.69-5.19,53.44-8.67-1.12-.85-2.05-1.55-3.47-2.63-76.96,5.54-153.54,17.24-226.83,39.4-27.87,8.43-51.05,19.89-81.11,23.35-23.72,2.28-47.42,4.75-71.1,7.41-30.14,3.77-59.01,9.85-87.05,21.28-19.26,7.85-40.63,11.36-61.2,14.39-1.92.57-3.24,2.57-3.96,5.06,23.71-4.08,47.58-7.95,70.25-15.36,25.65-8.39,51.29-15.28,78.37-18.74Z"/>
      <path class="cls-1" d="M1729.13,676.75c.71-.29,1.43-.59,2.14-.89-1.47-1.79-2.95-3.53-4.45-5.25-.06.08-.11.14-.18.22.69,2.01,1.51,4.04,2.48,5.91Z"/>
      <path class="cls-1" d="M1697.47,690.59c-5.99-8.19-12.02-16.35-18.11-24.48-.45.85-.87,1.59-1.24,2.26,4.74,8.04,10.46,15.41,16.39,22.63.91-.13,1.88-.26,2.96-.41Z"/>
      <path class="cls-1" d="M1517.33,259.92c-3.71-1.97-7.77-4.29-11.98-5.92,10.41,7.01,21.55,12.9,33.14,18.34-7.04-4.16-14.09-8.31-21.16-12.42Z"/>
      <path class="cls-1" d="M1172.16,199.23c-1.4,10.42-7.68,19.68-13.02,28.4-14.24,22.18-28.28,44.48-42.13,66.91-.83,1.27-1.59,2.42-2.31,3.51,9.6-13.45,18.93-26.98,27.67-40.64,9.55-14.92,17.36-32.78,29.79-46.07,1.52-6.55,2.36-10.14,3.76-16.12-1.13,1.2-2.34,2.5-3.76,4.01Z"/>
      <path class="cls-1" d="M1204.94,168.03c-.05.15-.06.31-.03.48.74-1.42,1.46-2.84,2.18-4.27-.71,1.27-1.44,2.53-2.15,3.79Z"/>
      <path class="cls-1" d="M1281.91,59.41c-2.77-.66-8.76,3.65-10.52,6.57-21.22,35.31-41.95,70.9-62.24,106.75,3.13,2.15,7.02,4.09,8.1,4.03,46.46-2.11,92.92-3.39,139.43-3.84,13.89-1.21,27.28-.39,40.96,1.58-34.23-38.24-69.23-75.75-105.03-112.53-4.28-1.03-6.42-1.54-10.7-2.56Z"/>
      <path class="cls-1" d="M1271.65,53.48c-.09.13-.18.26-.26.39-2.01,3.34-3.99,6.7-5.99,10.04,4.91-2.99,6.88-6.61,6.25-10.43Z"/>
      <path class="cls-1" d="M1805.05,424.42c-.05.47-.09.93-.11,1.39,2.45,1.24,4.91,2.46,7.39,3.67-2.43-1.68-4.84-3.38-7.27-5.05Z"/>
      <path class="cls-1" d="M1757.28,543.94c-38.51-59.18-74.91-124.46-107.27-185.08-5.9-11.06-18.81-18.15-29.67-24.66-34-21.29-68.33-42.01-103.01-62.18-7.91-4.2-17.35-9.95-26.62-7.38,20.03,53.65,44.96,104.7,74.45,153.89,7.02,11.54,13.97,23.13,20.85,34.75,5.78,9.72,11.97,19.42,19.59,27.81,21.43,15.27,20.81,40.79,40.24,56.32,18.25,14.58,30.67,37.36,39.1,59.49,1.42,3.73,10.38,10.45,13.3,14.33,16.15,21.44,34.38,40.1,55.8,56.29,10.18-4.19,20.37-8.33,30.57-12.44-.57-13.25-1.17-26.5-1.81-39.74-1.24-26.67-11.36-49.64-25.53-71.41Z"/>
      <path class="cls-3" d="M729.32,398.1c.45.23.8.4,1.14.57-1.72-.86-2.14-1.07-1.14-.57Z"/>
      <path class="cls-3" d="M945.41,996.4c.01.55.03,1.1.04,1.65.02-6.6.05-13.2.08-19.8-.01.07-.03.16-.05.23-.02,5.97-.05,11.94-.07,17.92Z"/>
      <path class="cls-3" d="M1120.35,471.69c-1.63,7.73-2.86,15.61-3.57,23.71,4.15-13.6,8.33-27.2,12.55-40.78,5.73-18.3,11.89-35.88,20.25-53.15,38.81,5.34,76.84,13.63,114.82,23.12.89.51,1.33.76,2.22,1.27,9.57,2.77,20.42,4.39,30.36,4.4-9.4-2.43-18.82-4.81-28.24-7.15-.91-.31-1.37-.47-2.28-.78-25.94-7.36-51.94-14.44-78.02-21.26-13.6-2.58-27.21-5.07-40.83-7.5-7.37,15.92-13.02,32.12-18.29,48.94-3.02,9.72-6,19.45-8.98,29.18Z"/>
      <path class="cls-3" d="M1114.71,298.05c-3.57,5.44-5.98,9.13-10.09,15.46-6.1,8.94-12.17,17.91-18.22,26.89-5.91,7.83-11.06,18.86-12.16,28.68.96.15,1.93.32,2.89.47,2.29-6.2,5.63-12.23,9.27-17.04,6.05-8.98,12.12-17.94,18.22-26.89,4.93-7.6,7.41-11.39,12.4-18.97,13.85-22.43,27.89-44.73,42.13-66.91,5.33-8.72,11.61-17.98,13.02-28.4-12.43,13.29-20.25,31.14-29.79,46.07-8.74,13.66-18.06,27.2-27.67,40.64Z"/>
      <path class="cls-3" d="M1099.63,395.33c-4.2,8.68-8.36,17.37-12.49,26.08-5.63,15.25-11.17,30.53-16.65,45.83-16.95,51.53-33.16,103.29-48.64,155.28-12.07,38.31-23.7,76.74-34.91,115.3-3.55,13.6-6.96,27.22-10.23,40.88.75-.2,1.45-.38,2.12-.55,13.68-48.04,28.01-95.87,43.02-143.52,15.48-51.99,31.69-103.75,48.64-155.28,5.48-15.3,11.02-30.58,16.65-45.83,4.13-8.71,8.29-17.41,12.49-26.08,12.2.36,24.39.81,36.58,1.3,1.54-3.96,3.11-7.94,4.72-11.93-13.76-.58-27.53-1.08-41.3-1.49ZM1128.5,400.94c-.34-.03-.65-.05-.97-.08-.21-.02-.43-.03-.65-.05-8.52-.69-8.19-.67.65.05,3.63.29,4.75.39.97.08Z"/>
      <path class="cls-3" d="M946.01,962.77c-.16,5.16-.33,10.32-.48,15.48,5.96-42.23,12.26-84.4,18.89-126.52,4.15-23.4,10.9-43.63,23.65-63.84-3.25.83-5.48,1.4-7.96,2.04-7.78,15.64-12.51,31.73-15.69,49.68-6.46,41-12.59,82.05-18.41,123.15Z"/>
      <path class="cls-3" d="M1073.5,403.73c-5.91-8.8-8.88-13.2-14.87-21.97-1.93-.23-3.86-.44-5.79-.67-13.82,11.77-34.71,1.8-51.23,6.37,19.02,2.01,38.02,4.14,57.01,6.41,5.98,8.78,8.96,13.17,14.87,21.97,1.62,2.7,2.74,5.66,3.38,8.7,1.46-7.02.37-14.58-3.38-20.82Z"/>
      <path class="cls-3" d="M1000.37,452.1c.78.95,1.17,1.43,1.95,2.38,22.33-.62,44.66-1.03,66.99-1.27.43-1.29.86-2.58,1.29-3.87-23.42.71-46.82,1.63-70.23,2.75Z"/>
      <path class="cls-3" d="M433.02,441.05c22.34-4.96,44.72-9.73,67.15-14.32-11.37-.16-22.99-.23-34.21,1.87-15.6,3.63-31.17,7.36-46.72,11.16.56,2.32,1.02,4.21,1.54,6.34,3.31-2.27,9.43-4.42,12.25-5.05Z"/>
      <path class="cls-3" d="M1620.35,322.09c-27.07-16.95-54.35-33.52-81.85-49.75-11.59-5.45-22.73-11.34-33.14-18.34-6.01-2.33-12.34-3.28-18.5.13.29.81.6,1.62.89,2.43,1.61,1.22,2.87,3.17,3.7,6.17-.74-.58-1.4-1.1-2.03-1.59.43,1.17.85,2.35,1.29,3.53,9.27-2.58,18.71,3.18,26.62,7.38,34.68,20.17,69.01,40.88,103.01,62.18,10.86,6.51,23.77,13.6,29.67,24.66,32.36,60.61,68.76,125.9,107.27,185.08,14.17,21.77,24.29,44.74,25.53,71.41.64,13.25,1.24,26.5,1.81,39.74.17-.07.34-.14.52-.21-.72-17.22-1.5-34.43-2.33-51.65-1.24-26.67-11.36-49.64-25.53-71.41-16.35-25.13-32.32-51.36-47.76-77.86-18.26-28.64-34.75-58.23-49.68-88.91-3.31-6.14-6.59-12.25-9.83-18.3-5.9-11.06-18.81-18.15-29.67-24.66Z"/>
      <path class="cls-3" d="M1677.07,684.51c-.11-.22-.22-.44-.34-.66,0,.29.1.51.34.66Z"/>
      <path class="cls-3" d="M1855.87,483.33c.95,2.25,1.96,4.68,3.16,7.53-5.98-1.59-8.98-2.38-14.97-3.95,7.55,5.43,11.31,8.15,18.81,13.62,7.86,6.48,13.64,15.02,20.05,22.85,1.32,1.26,1.97,1.89,3.29,3.14.72.68,1.07,1.03,1.79,1.71.69.64,1.04.97,1.73,1.61,1.34,1.03,2.01,1.55,3.35,2.58,1.54,1.19,2.3,1.78,3.84,2.97,1.01-.15,1.52-.23,2.53-.38-1.18-1.15-1.77-1.73-2.95-2.88-1.34-1.05-2-1.58-3.34-2.63-1.19-.93-1.79-1.4-2.98-2.33-.64-.69-.96-1.04-1.59-1.73-.67-.77-1.01-1.15-1.68-1.91-8.87-9.98-17.09-21.41-22.63-33.86-.46-.41-.91-.83-1.39-1.23-2.7-1.97-4.91-3.58-7-5.1Z"/>
      <path class="cls-3" d="M412.67,454.84c-1.31.47-2.62.94-3.94,1.41.09,1.36.18,2.73.23,4.1-11.5,5.15-22.98,10.36-34.42,15.63-10.64,4.39-21.25,8.84-31.84,13.32.04.17.08.33.13.5-.69.11-1.39.21-2.08.32-19.69,8.34-39.32,16.83-58.87,25.51-1.61-2.46-2.9-4.44-4.13-6.32-1.39.61-2.77,1.22-4.16,1.85.82,2.17,1.67,4.43,2.76,7.3-76.34,34.61-147.61,77.73-210.41,133.02-21.72,19.12-43.72,38.03-65.94,56.72v6.34c22.19-18.29,44.19-36.79,65.74-55.75,69.34-61,149.8-112.72,232.49-146.02,13.9-5.6,29.24-8.52,44.6-10.87-.8-3.11-1.2-4.67-2-7.78-.37-1.45,7.1-3.58,9.13-4.34,20.84-7.79,41.74-15.4,62.71-22.84.86,2.11,1.47,4.19,1.89,6.23,1.2-5.52.77-11.81-1.89-18.34Z"/>
      <path class="cls-3" d="M1141.04,183.81c-13.45.6-26.65,3.38-40.13,3.51-29.55-.51-59.09-.69-88.65-.57-17.8,0-35.63-1.2-53.35,1.05,15.48.65,30.96,1.38,46.44,2.18,11.59.87,23.17,1.77,34.75,2.71,44.5-.59,88.97-.42,133.46.5.73-3.15,1.37-5.9,2.21-9.48-11.58,0-23.16,0-34.74.09Z"/>
      <path class="cls-3" d="M1849.08,455.22c-12.2-8.65-24.46-17.22-36.75-25.74-2.47-1.21-4.94-2.43-7.39-3.67-.26,4.34.57,8.36,2.12,12.12,14.07,9.71,28.07,19.51,42.02,29.4,1.66,3.88,2.97,6.96,4.21,9.9,1.7.45,3.51.93,5.73,1.52-3.94-9.42-5.93-14.13-9.95-23.54Z"/>
      <path class="cls-3" d="M1893.93,485.71c.47.15.94.3,1.41.45-5.24-5.64-10.86-10.91-17.2-15.67-4.59-2.68-9.06-5.55-13.4-8.62-2.06-1.12-4.19-2.2-6.41-3.23.86,4.8,2.21,9.48,3.94,14.04,26.16,13.39,40.66,33.83,57.74,56.19v-12.11c-3.39-4.43-6.67-8.79-9.96-13.03-5.3-6.11-10.62-12.17-16.11-18.03Z"/>
      <path class="cls-3" d="M1769.46,405.75c-7.44-4.75-14.71-9.84-21.78-15.32-19.09-12.98-38.67-25-59.57-35.27-11.6-5.43-23.24-10.8-34.9-16.1,2.43,5.2,4.91,10.37,7.43,15.51,9.18,4.2,18.34,8.42,27.47,12.7,28.38,13.95,54.33,31.11,79.93,49.55,13.12,9.45,25.65,21.37,33.37,34.98,5.84,10.29,17.39,18.98,27.77,25.71-8.46-9.2-20.39-19.02-23.51-31.72-1.61-1.97-3.06-4-4.25-6.11-7.44-13.11-19.35-24.66-31.95-33.94Z"/>
      <path class="cls-3" d="M1839.12,647.98c-16.71,5.84-33.38,11.8-50,17.88.11-2.47.21-4.94.31-7.41-1.53.56-3.06,1.13-4.59,1.7.1,2.28.2,4.57.3,6.85-10.38,4.18-20.74,8.39-31.09,12.65-2.29-1.73-4.53-3.49-6.75-5.27-2.33.9-4.66,1.8-6.99,2.71,1.83,1.72,3.78,3.56,6.15,5.79-6.76,3.97-11.52,1.92-14.91-2.34-1.65.65-3.29,1.29-4.94,1.95,1.57,1.8,3.12,3.62,4.66,5.49-9.74,4-19.46,8.07-29.15,12.2-1.61-1.94-3.22-3.88-4.84-5.82-1.52.63-3.04,1.26-4.57,1.89,1.58,2.15,3.17,4.3,4.75,6.46-5.79.8-8.69,1.21-14.47,2.04-11.25,5.89-22.47,11.86-33.64,17.9-1.27-2.02-2.54-4.15-3.78-6.35-2.24.98-4.48,1.96-6.72,2.95.52,1.97,1.04,3.94,1.57,5.91-23.15,10.26-46.16,20.78-69.06,31.57-9.87,4.69-19.72,9.41-29.55,14.17-97.49,48.5-191.9,102.45-282.99,162.13-43.21,29.14-85.51,59.45-126.97,90.99h9.39c14.69-10.89,29.47-21.65,44.34-32.28,5.65-4.36,8.48-6.53,14.17-10.86,117.65-82.66,241.6-155.27,370.84-218.27,37.33-17.75,75.03-34.57,113.08-50.48,0,0-.01-.01-.02-.02.8-.46,1.2-.68,2-1.14.07.09.13.17.2.25,76.73-32.01,154.87-60.28,234.12-84.85v-5.21c-19.45,5.93-38.85,12.02-58.19,18.32-3.69.24-7.1-.98-10.24-2.98-5.86,1.99-11.71,4-17.56,6.03,1.53,1.63,3.15,3.38,5.11,5.49Z"/>
      <path class="cls-3" d="M1607.67,495.53c.64.7.96,1.05,1.6,1.76.31-.18.56-.32.8-.46-.6-.55-1.22-1.08-1.86-1.61-.16.09-.34.2-.54.31Z"/>
      <path class="cls-3" d="M402.61,400.67c-3.76-27.99-7.46-55.98-11.13-83.98-2.77-20.43-6.16-40.27-11.9-60.08-3.03-9.31-4.55-13.97-7.59-23.27-5.65-19.19-11.32-38.38-17.02-57.55-2.98-9.66-5.97-19.31-8.96-28.97-3.77-13.09-6.81-26.09-9.16-39.3-1.1-3.39-2.2-6.79-3.3-10.18,2.49,21.04,6.59,41.21,12.46,61.59,3,9.65,5.98,19.31,8.96,28.97,5.7,19.18,11.37,38.36,17.02,57.55,3.04,9.31,4.56,13.96,7.59,23.27,5.73,19.81,9.13,39.65,11.9,60.08,3.66,28,7.37,56,11.13,83.98,2.04,12.08,4.27,23.82,5.5,35.84.28-.13.57-.26.85-.38-.63-16.23-3.65-31.59-6.35-47.57Z"/>
      <path class="cls-3" d="M1244.78,0h-8.82c4.91,6.04,9.31,12.39,13.06,19.25,1.76-.36,3.52-.71,5.28-1.07-2.66-6.5-5.87-12.5-9.52-18.18Z"/>
      <path class="cls-3" d="M1677.07,672.39c-.23-.15-.33-.38-.34-.66-7.71-15-14.22-30.12-19.72-45.7-3.17-6.4-6.34-12.8-9.55-19.19,7.03,27.03,16.52,52.17,29.28,77-.03-.97,1.09-2.76,2.59-5.55-.67-1.76-1.36-3.57-2.26-5.9Z"/>
      <path class="cls-3" d="M1920,494.47v-4.91c-6.05-2.14-12.04-4.46-17.92-7,2.41,2.7,4.79,5.44,7.17,8.18,3.59,1.22,7.18,2.46,10.75,3.74Z"/>
      <path class="cls-3" d="M271.38,499.64c-.52-.66-.78-.98-1.29-1.64-20.14-27.23-42.23-52.53-66.18-76.29C133.34,351.68,64.38,279.18,0,202.9v7.27c54.43,66.08,112.08,129.21,173.35,189.01,33.08,32.28,65.14,65.31,94.03,101.46,1.02.36,1.53.55,2.55.91.97,2.57,1.76,4.65,2.51,6.61,1.16-.53,2.32-1.07,3.48-1.6-1.35-2.06-2.76-4.2-4.55-6.92Z"/>
      <path class="cls-3" d="M485.94,172.8c3.2-.15,5.85-.27,8.33-.39,4.31-1.24,8.64-2.44,12.98-3.61-7.72,1.42-12.62,2.34-21.31,4Z"/>
      <path class="cls-3" d="M380.06,204.92c-4.05.07-6.08.11-10.13.19-.3,0-.58-.04-.86-.13-.05,1.8,1.25,4.31,3.04,6.37,2.04-2.2,4.89-4.39,7.95-6.44Z"/>
      <path class="cls-3" d="M1789.98,633.34c-.28,6.8-.56,13.6-.86,20.4.17-.06.35-.12.52-.19.24-5.72.49-11.44.72-17.17-.12-1.02-.26-2.03-.38-3.05Z"/>
      <path class="cls-3" d="M422.87,507.1c-.61-7.57-2.38-17.66-7.96-23.74-.49,3.42-1.58,6.59-3.16,9.39,8.14,5.31,10.41,17.62,11.13,26.47,9.91,47.91,19.83,95.81,29.77,143.71,1.14-.94,1.7-1.41,2.84-2.35-.63-3.51-1.26-7.03-1.9-10.54-.28.23-.58.48-.94.78-9.93-47.9-19.86-95.81-29.77-143.71Z"/>
      <path class="cls-3" d="M1824.39,632.24c2.45,2.6,4.39,4.66,6.23,6.63,2.83-1,5.66-2.01,8.49-3-5.86-6.31-8.81-9.46-14.73-15.74-12.19-20.13-25.52-38.32-41.67-55.45.63,4.7,1.23,9.4,1.85,14.1,15.31,16.55,28.09,34.1,39.82,53.45Z"/>
      <path class="cls-3" d="M1287.38,29.21c.57.6,1.14,1.19,1.71,1.79,1.96-5.3,5.21-10.58,8.35-13.85,4.84-5.05,8.39-11.19,12.28-17.14h-8.07c-1.31,1.76-2.7,3.45-4.21,5.03-5.29,5.52-10.97,16.77-10.06,24.18Z"/>
      <path class="cls-3" d="M1645.85,549.53c-3.64-2.9-6.57-6.16-9.08-9.63-2.03,1.12-3.3,1.83-5.57,3.1,3.06,3.43,6.08,6.89,9.12,10.33,13.14,9.07,26.39,21.04,31.62,36.21.77.89,1.55,1.78,2.31,2.67.07-2.7-.14-5.32-.56-7.86-7.3-13.37-16.44-25.7-27.85-34.82ZM1648.43,555.2c-.62-.71-.93-1.07-1.55-1.78.82-.47,1.23-.7,2.06-1.17.62.71.93,1.07,1.55,1.78-.82.47-1.23.7-2.06,1.17Z"/>
      <path class="cls-3" d="M1726.65,658.73c2.87,8.39,8.03,17.18,17.6,13.14-5.68-4.71-11.13-9.61-16.37-14.71-.37.47-.75.95-1.24,1.57Z"/>
      <path class="cls-3" d="M1818.3,400.24c15.21,2.32,30.4,4.71,45.58,7.18-13.3-5.93-27.45-8.65-41.64-11.44-20.87-3.96-41.76-7.76-62.68-11.41-2.7-.92-5.13-1.86-7.41-2.86,4.64,3.45,9.37,6.74,14.16,9.88,17.35,2.77,34.68,5.65,51.99,8.64Z"/>
      <path class="cls-3" d="M660.55,152.38c-7.61,3.46-14.99,7.68-22.31,11.42,2.24.44,4.4.86,7.38,1.45-3.95.25-7.9.52-11.85.78-.98.47-1.96.93-2.94,1.37-19.33,8.66-42.32,5.04-63.25,3.5-4.12.34-8.24.66-12.37,1.01-9.17,1.21-18.34,2.46-27.5,3.73-51,12.51-100.54,29.32-148.31,51.21-.57.29-1.21.35-1.88.24.49,2.04.98,4.08,1.46,6.12,7.06-3.65,11.37-5.87,19.19-9.85,32.22-15.59,65.64-25.73,100.92-31.55,18.7-2.71,37.4-5.31,56.13-7.78,30.11-2.55,60.24-4.77,90.4-6.66-5.44-1.07-8.16-1.6-13.62-2.66-1.47-.28,1.7-2.99,2.97-3.73,2.78-1.63,4.17-2.45,6.96-4.07,3.48-2.03,15.23-4.34,18.51-2.49,3.28,1.86,3.66,7.55,2.73,12.63,21.4-.29,42.8-.43,64.2-.4-8.34-3.97-12.52-5.94-20.91-9.85-.86-.4-1.54-1.19-2.06-2.22-13.74.06-27.49.17-41.23.36.91-5.02.55-10.62-2.62-12.55Z"/>
      <path class="cls-3" d="M1587.59,478.94c-6.77-11.47-13.61-22.9-20.51-34.28-33.49-56.02-61.57-114.7-81.5-176.49-6.21-19.25-17.95-36.36-32.5-50.42-15.73-15.66-31.59-31.18-47.58-46.57-36.72-41.3-74.35-81.72-112.89-121.33-4.28-1.03-6.42-1.54-10.7-2.56-2.65-.63-8.25,3.29-10.27,6.19.63,3.82-1.33,7.44-6.25,10.43-19.84,33.21-39.28,66.64-58.3,100.32-.72,1.43-1.44,2.85-2.18,4.27.21,1.1,2.03,2.71,4.24,4.22,20.29-35.85,41.02-71.44,62.24-106.75,1.76-2.92,7.76-7.23,10.52-6.57,4.28,1.02,6.42,1.53,10.7,2.56,35.8,36.79,70.8,74.29,105.03,112.53,1.13.16,2.25.32,3.39.5-.93.06-1.86.11-2.79.17,2.42,2.71,4.85,5.41,7.27,8.13,15.99,15.39,31.85,30.91,47.58,46.57,14.55,14.06,26.29,31.17,32.5,50.42,19.93,61.79,48,120.47,81.5,176.49,6.91,11.39,13.75,22.81,20.51,34.28.43.74,1.22,1.82,2.07,3.03,1.02-1.07,2.11-2.2,3.45-3.59,1.94-2.02-3.98-8.93-5.52-11.55Z"/>
      <path class="cls-3" d="M1591.41,504.37c-2.48,2.58-4.19,4.38-7.08,7.4,23.14,12.47,25.28,38.09,41.06,56.09,9.51,10.85,16.93,24.62,20.59,38.74-.32-6.08-.54-10.33-.79-14.95-3.88-13.12-10.92-25.78-19.79-35.9-14-15.96-17.27-37.92-33.98-51.38Z"/>
      <path class="cls-3" d="M1680.58,679.86c2.95,3.94,5.89,7.9,8.81,11.86,1.65-.23,3.26-.46,5.12-.72-5.92-7.22-11.64-14.59-16.39-22.63-.86,1.57-1.41,2.67-1.4,3.36.11.22.22.44.34.66,1.31,2.42,2.56,4.93,3.51,7.46Z"/>
      <path class="cls-3" d="M1624.91,622.02c-.82,31.57,4.85,61.74,12.68,92.28.95-.42,1.9-.85,2.86-1.28-8.19-30.33-14.77-60.1-15.54-91.01Z"/>
      <path class="cls-3" d="M1266.67,33.28c-3.59-3.39-8.31-4.82-13.27-5.04.3.69.62,1.36.9,2.06-4.23.86-8.45,1.71-12.68,2.55,1.29.63,2.56,1.26,4.28,2.1-2.28-.1-3.41-.15-5.69-.25-.62-.47-1.15-.87-1.64-1.24-17.74,3.48-35.51,6.63-53.44,8.67-76.75,8.74-152.27,24.58-224.51,53.15-23.46,2.63-46.88,5.44-70.29,8.45-12.63,1.23-25.25,2.52-37.86,3.88-27.08,3.47-52.72,10.35-78.37,18.74-22.67,7.42-46.55,11.28-70.25,15.36-1.02,3.49-.85,7.94.51,10.69.77-1.8,1.92-3.18,3.46-3.64,20.57-3.03,41.95-6.54,61.2-14.39,28.05-11.43,56.92-17.5,87.05-21.28,23.68-2.67,47.38-5.14,71.1-7.41,30.06-3.46,53.24-14.92,81.11-23.35,73.28-22.16,149.86-33.85,226.83-39.4,2.04,1.55,3.06,2.32,5.1,3.87,2.28.1,3.41.15,5.69.25-3.32-1.63-4.98-2.44-8.3-4.07,9.23-3.27,21.59-4.66,29.07,2.4,1.1,1.04,2.01,2.09,2.76,3.14,3.98-4.56,2.79-10.01-2.76-15.25Z"/>
      <path class="cls-3" d="M427.47,502.19c.65,2.95,1.27,5.91,1.9,8.86,14.49-22.7,48.1-28.14,72.26-33.29-14.55.49-29.1,1.05-43.65,1.68-2.15.23-4.31.47-6.46.7-10.15,5.08-18.84,12.03-24.06,22.06Z"/>
      <path class="cls-3" d="M1175.92,195.22c-1.4,5.98-2.24,9.57-3.76,16.12,5.09-5.44,7.65-8.15,12.78-13.57,25.93-1.76,51.86-3.28,77.81-4.56,46.09-2.06,92.22-3.09,138.27-6.1-14.86-2.33-29.31-3.39-44.35-2.08-46.5.45-92.97,1.73-139.43,3.84-1.2.07-5.83-2.31-9.07-4.72-7.75.48-15.49.98-23.24,1.51-3.71,3.92-6.07,6.42-9.02,9.56Z"/>
      <path class="cls-3" d="M1726.65,670.84c.06-.08.12-.15.18-.22-8.46-9.74-17.39-18.5-27.39-26.95-2.78-7.48-4.18-11.22-7-18.69-6.03-7.17-12.09-14.31-18.17-21.43,0,.26,0,.51,0,.77-9.78-11.38-19.66-22.68-29.57-33.94.26,4.64.45,8.22.65,11.83,15.89,18.14,31.58,36.42,47.1,54.88,2.82,7.47,4.22,11.21,7,18.69,8.73,7.37,16.65,14.98,24.15,23.27,1.85-.77,3.7-1.54,5.55-2.3-.98-1.87-1.8-3.9-2.48-5.91Z"/>
      <path class="cls-3" d="M1677.07,684.51c1.47,3.84,2.4,6.28,3.57,9.36.17-.09.33-.18.5-.26-.97-3.09-2.48-6.16-4.07-9.1Z"/>
      <path class="cls-3" d="M1684.83,700.13s-.08-.03-.13.03c.11.04.17.04.13-.03Z"/>
      <path class="cls-3" d="M1684.7,700.16c-.14-.05-.37-.16-.64-.32-.54.22-1.07.45-1.61.67.17,1.31.33,2.51.55,4.23.29-.88,1.29-4.13,1.7-4.58Z"/>
      <path class="cls-3" d="M1844.06,486.92c-2.68-1.76-4.02-2.64-6.7-4.4,2.11,1.91,5.52,4.55,6.7,4.4Z"/>
      <path class="cls-3" d="M491.15,906.55c-1.47-2.57-3.2-5.09-4.76-6.87,3.4,13.54,6.79,27.09,10.18,40.63.92-.35,1.85-.71,2.77-1.06-2.73-10.9-5.46-21.8-8.2-32.7Z"/>
      <path class="cls-3" d="M510.91,965.46c16.57-7.27,35.02,1.35,50.29,8.13,20.42,8.58,40.74,17.38,60.97,26.4.88-1.58,1.32-2.38,2.21-3.96-35.64-15.61-71.56-30.45-107.81-44.56-2.94.68-5.83,1.77-8.66,3.38,1,3.54,2,7.08,3,10.61Z"/>
      <path class="cls-3" d="M503.02,1015.03c-10.04,2.94-20.06,5.93-30.06,8.97h51.1c-1.06-3.49-2.12-6.98-3.18-10.47-5.96.48-11.91.99-17.86,1.5Z"/>
      <path class="cls-3" d="M502.33,952.94c-2.2-.07-4.39-.13-6.59-.2-7.83,2.98-15.65,5.99-23.45,9.05-1.2-.38-1.79-.57-2.99-.95-1.98.52-2.97.78-4.96,1.31,2.39.81,3.58,1.22,5.96,2.03,10.68.22,21.35.51,32.03.88,2.48,11.96,4.95,23.93,7.43,35.89.79-.23,1.58-.46,2.36-.69-3.27-15.77-6.54-31.54-9.8-47.31Z"/>
      <path class="cls-3" d="M253.29,968.55c-86.66,6.74-170.91,25.39-253.29,52.48v2.97h9.62c59.07-18.91,118.64-36.45,179.92-43.58,51.68-6.01,104.37-9.92,156.25-17.72-31.08-.57-61.69,2.04-92.5,5.85Z"/>
      <path class="cls-3" d="M729.32,398.1c-1-.5-.58-.29,1.14.57.39.19.82.41,1.34.67,5.57.18,12.63-2.44,19.04-7.59-23.14,2.58-46.25,5.36-69.34,8.33,15.94-.77,31.88-1.45,47.83-1.99Z"/>
      <path class="cls-3" d="M668.26,1024h9.21c-11.4-7.59-23.18-14.35-36.88-16.87,8.9,6.54,18.02,12,27.67,16.87Z"/>
      <path class="cls-3" d="M460.92,719.09c.71-.15,1.24-.27,1.78-.38.02-.02.03-.03.05-.04,0,.01,0,.02,0,.03.48-.1.97-.21,1.61-.34-.83-3.86-1.65-7.72-2.48-11.58-.29.06-.6.13-.97.21l-4.43-20.6c-.82.18-1.47.31-2.49.53,2.31,10.73,4.61,21.45,6.92,32.18Z"/>
      <path class="cls-3" d="M466.14,777.63c2.41,8.87,3.62,13.3,6.02,22.17.68-2.23,1.02-3.34,1.71-5.56-2.02-7.5-3.03-11.25-5.06-18.74-1.07.85-1.6,1.28-2.67,2.14Z"/>
      <path class="cls-3" d="M761.51,168.77c-1.24-.09-3.77.24-3.61,1.11.53,2.9.79,4.35,1.32,7.24,3.32-.26,4.97-.39,8.29-.64-3.94-6.94-4.12-7.58-6.01-7.72Z"/>
      <path class="cls-3" d="M649.5,403.84c.95.66,1.42.99,2.37,1.65,9.14-.52,19.13-2.31,27.74-5.45-11.32.08-17.55,1.23-26.29,2.54-1.14-1.08-1.4-1.48-2.02-1.39-4.83.7-7.25,1.05-12.07,1.77,4.12.35,6.17.52,10.29.88Z"/>
      <path class="cls-3" d="M462.72,730.8c-1.03.88-1.56,1.33-2.61,2.21,2,7.6,3,11.4,5,19,1.05-.89,1.57-1.34,2.62-2.23-1.04-3.98-1.81-6.91-2.59-9.9,0,0-.01.01-.02.02-.95-3.63-1.68-6.39-2.4-9.11Z"/>
      <path class="cls-3" d="M485.12,876.28c.99-.89,1.49-1.33,2.49-2.21-1.99-7.6-2.99-11.4-4.99-19-1,.89-1.51,1.33-2.51,2.22,2.01,7.6,3.01,11.4,5.01,19Z"/>
      <path class="cls-3" d="M797.53,447.17c.92.94,1.37,1.4,2.29,2.34,8.27-1.11,12.41-1.65,20.69-2.7-.91-.94-1.36-1.41-2.27-2.35-8.29,1.06-12.43,1.6-20.71,2.71Z"/>
      <path class="cls-3" d="M488.68,887.76c.41,1.89.71,3.24.89,4.08-.18-.85-.48-2.19-.89-4.08q-.78-3.57,0,0Z"/>
      <path class="cls-3" d="M704.66,454.61c.23,1.51,1.9,5.07,2.94,3.82,1.48-1.78,2.22-2.68,3.71-4.46.7-.84-6.8-.32-6.65.64Z"/>
      <path class="cls-3" d="M467.35,759.78s.01.04.02.06c-.73-2.18-.89-2.66-.02-.06Z"/>
      <path class="cls-3" d="M467.37,759.84c.12.35.25.74.39,1.17.34,1.02.62,1.85.85,2.54,0,0,0,0,0,0-.31-.93-.72-2.16-1.24-3.7Z"/>
      <path class="cls-3" d="M840.16,447.74c3.74-.02,2.65-.02-.92,0,.31,0,.59,0,.92,0Z"/>
      <path class="cls-3" d="M838.55,447.75c.24,0,.47,0,.7,0-8.82.05-9.18.06-.7,0Z"/>
      <path class="cls-3" d="M864.92,448.69c.26,0,.52,0,.76,0-8.88-.02-9.25-.02-.76,0Z"/>
      <path class="cls-3" d="M866.54,448.69c3.71,0,2.67,0-.86,0,.29,0,.55,0,.86,0Z"/>
      <path class="cls-3" d="M991.69,450.44c1.01-.04,1.51-.05,2.52-.09.97-.06,1.46-.08,2.43-.14-.97.01-1.46.02-2.44.03-1.01.04-1.51.05-2.52.09-.97.06-1.46.08-2.43.14.97-.01,1.46-.02,2.44-.03Z"/>
      <path class="cls-3" d="M891.32,411.01c-.08-.78-.12-1.17-.19-1.94.02.78.04,1.17.06,1.95.05.81.08,1.21.13,2.02.08.78.12,1.17.2,1.94-.02-.78-.04-1.17-.06-1.95-.05-.81-.08-1.21-.13-2.02Z"/>
      <path class="cls-3" d="M354.18,962.06c-.82.25-1.23.37-2.06.62.83-.21,1.25-.31,2.09-.51.86-.23,1.29-.35,2.14-.58.82-.25,1.23-.37,2.06-.61-.83.2-1.25.31-2.09.51-.86.23-1.29.35-2.14.58Z"/>
      <path class="cls-3" d="M928.48,387.27c-.99.07-1.49.11-2.48.19.99-.03,1.49-.05,2.48-.08,1.03-.06,1.54-.08,2.57-.14.99-.07,1.49-.11,2.48-.18-.99.03-1.49.05-2.48.08-1.03.05-1.54.08-2.57.14Z"/>
      <path class="cls-3" d="M973.04,451.16c1.01-.04,1.51-.06,2.52-.1.97-.06,1.46-.09,2.43-.15-.97.02-1.46.03-2.44.04-1.01.04-1.51.06-2.52.1-.97.06-1.46.09-2.43.15.97-.02,1.46-.03,2.44-.05Z"/>
      <path class="cls-3" d="M439.78,961.75c.77.43,1.16.64,1.94,1.07.49-.73.74-1.1,1.23-1.84-.77-.43-1.16-.64-1.94-1.07-.49.73-.74,1.1-1.23,1.84Z"/>
      <path class="cls-3" d="M391.66,200.55c-9.7,1.28-10.09,1.33-.83.11.29-.04.57-.07.83-.11Z"/>
      <path class="cls-3" d="M391.66,200.55c.3-.04.61-.08.93-.12,4.04-.53,2.9-.38-.93.12Z"/>
      <path class="cls-3" d="M322.91,67.29c.19.76.29,1.14.48,1.89-.13-.77-.2-1.16-.33-1.93l-.42-1.98c-.19-.76-.29-1.14-.48-1.89.13.77.2,1.16.33,1.93l.42,1.98Z"/>
      <path class="cls-3" d="M404.36,194.61c1.05-.23,1.57-.35,2.63-.58-1.06.19-1.59.28-2.65.47-1.09.22-1.64.33-2.73.54-1.05.23-1.57.35-2.62.58,1.06-.19,1.59-.29,2.65-.48,1.09-.22,1.64-.33,2.73-.54Z"/>
      <path class="cls-3" d="M1683.68,724.19c.57.72.86,1.08,1.43,1.8.8-.46,1.2-.68,2-1.14-.57-.72-.86-1.08-1.43-1.8-.8.46-1.2.68-2,1.14Z"/>
      <path class="cls-3" d="M1456.1,474.66c.66.77.99,1.15,1.65,1.92,17.28,3.97,34.54,8.04,51.77,12.23-16.21-6.57-32.23-11.22-49.32-14.87-.75-.63-1.12-.95-1.88-1.58-6.16-.55-9.24-.82-15.4-1.34,5.28,1.44,7.91,2.17,13.18,3.64Z"/>
      <path class="cls-3" d="M1077.14,590.87c6.27-14.7,12.61-29.38,19.05-44.01,7.28-15.67,17.76-31.66,19.33-49.32-8.3,17.11-16.5,34.26-24.61,51.47-6.19,13.52-12.22,26.88-13.76,41.86Z"/>
      <path class="cls-3" d="M1561.05,503.12c.82.7,1.23,1.05,2.05,1.75,7.59.88,11.38,1.34,18.96,2.27-6.68-1.9-10.02-2.85-16.71-4.71-.69-.86-1.03-1.29-1.72-2.15-9.15-1.08-13.73-1.6-22.88-2.62,6.64,3.45,14.04,5.15,20.29,5.47Z"/>
      <path class="cls-3" d="M1623.46,580.57c-.02.36-.03.69-.05,1.02.14-3.08.19-4.1.05-1.02Z"/>
      <path class="cls-3" d="M1623.41,581.59c0,.14-.01.26-.02.4,0-.04,0-.08,0-.12,0-.1,0-.18.01-.27Z"/>
      <path class="cls-3" d="M1623.39,581.99c-.3,6.42-.29,6.33,0,0h0Z"/>
      <path class="cls-3" d="M1307.85,433.77c.22.03.41.06.64.09,3.61.5,2.68.37-.64-.09Z"/>
      <path class="cls-3" d="M1306.89,433.64c.34.05.66.09.96.13-9.03-1.24-9.47-1.29-.96-.13Z"/>
      <path class="cls-3" d="M1321.69,437.56c.27.04.53.08.78.11-8.84-1.26-9.22-1.3-.78-.11Z"/>
      <path class="cls-3" d="M1322.48,437.68c.27.04.53.08.82.12,3.67.52,2.65.37-.82-.12Z"/>
      <path class="cls-3" d="M1066.52,620.04c4.45-6.97,6.07-10.19,5.52-11.15-2.22,4.46-3.32,6.69-5.52,11.15Z"/>
      <path class="cls-3" d="M1514.79,491.66c1,.12,1.49.19,2.49.31.97.1,1.45.15,2.41.25-.96-.14-1.44-.21-2.4-.36-1-.13-1.49-.19-2.49-.31-.97-.1-1.45-.15-2.41-.25.96.14,1.44.21,2.4.35Z"/>
      <path class="cls-3" d="M1525.86,493.07c1,.13,1.49.19,2.49.32.97.1,1.45.16,2.41.26-.96-.15-1.44-.22-2.4-.37-1-.13-1.49-.19-2.49-.32-.97-.1-1.45-.15-2.41-.26.96.14,1.44.22,2.4.36Z"/>
      <path class="cls-3" d="M1335.88,441.24c1.01.07,1.52.1,2.53.18.98.05,1.47.07,2.45.12-.98-.09-1.46-.14-2.44-.22-1.01-.07-1.52-.11-2.53-.18-.98-.05-1.47-.07-2.45-.11.98.09,1.46.13,2.44.22Z"/>
      <path class="cls-3" d="M1061.1,635.71c-.01.78-.02,1.17-.03,1.95.01.81.02,1.21.03,2.02.04.78.06,1.17.09,1.95.01-.78.02-1.17.03-1.95-.01-.81-.02-1.21-.03-2.02-.04-.78-.06-1.17-.09-1.95Z"/>
      <path class="cls-3" d="M1064.5,626.69c-.01.78-.02,1.17-.04,1.95.01.81.02,1.21.03,2.02.04.78.05,1.17.09,1.95.01-.78.02-1.17.04-1.95-.01-.81-.02-1.21-.03-2.02-.04-.78-.05-1.17-.09-1.95Z"/>
      <path class="cls-3" d="M1074.76,596.63c-.02.78-.03,1.17-.04,1.95,0,.81.01,1.21.02,2.02.03.78.05,1.17.08,1.95.02-.78.03-1.17.04-1.95,0-.81-.01-1.21-.02-2.02-.03-.78-.05-1.17-.08-1.95Z"/>
      <path class="cls-3" d="M1056.05,649.23c.71.59,1.07.88,1.78,1.47.69-.61,1.04-.91,1.73-1.52-.71-.59-1.07-.88-1.78-1.47-.69.61-1.04.92-1.73,1.53Z"/>
      <path class="cls-3" d="M1046.09,676.35c.71.58,1.06.88,1.77,1.46.68-.61,1.02-.92,1.71-1.53-.71-.58-1.06-.88-1.77-1.46-.68.61-1.02.92-1.71,1.53Z"/>
      <path class="cls-3" d="M1349.91,446.68c.79-.54,1.19-.81,1.98-1.35-.7-.65-1.06-.98-1.76-1.63-.79.54-1.19.81-1.98,1.36.7.65,1.06.98,1.76,1.63Z"/>
      <path class="cls-3" d="M1487.75,256.55c.55,1.53,1.11,3.05,1.68,4.58.63.49,1.29,1.01,2.03,1.59-.84-3-2.09-4.95-3.7-6.17Z"/>
      <path class="cls-3" d="M1128.5,400.94c3.78.31,2.66.21-.97-.08.32.03.63.05.97.08Z"/>
      <path class="cls-3" d="M1126.88,400.81c.23.02.44.04.65.05-8.84-.72-9.18-.74-.65-.05Z"/>
      <path d="M729.32,385.98c.99.5,1.49.74,2.48,1.24-2.84-1.42-3.7-1.85-2.48-1.24Z"/>
      <path d="M945.48,978.48c.02-4.12.03-8.23.05-12.35-.53,2.87-2.82,10.11-3.17,14.35-.76,14.5-1.5,29.01-2.23,43.52h5.95c-.21-8.65-.43-17.3-.63-25.95-.01-.55-.03-1.1-.04-1.65.02-5.97.04-11.95.07-17.92Z"/>
      <path d="M1086.39,340.4c6.05-8.98,12.12-17.94,18.22-26.89,4.11-6.33,6.52-10.03,10.09-15.46.72-1.09,1.48-2.24,2.31-3.51,13.85-22.43,27.89-44.73,42.13-66.91,5.33-8.72,11.61-17.98,13.02-28.4-12.43,13.29-20.25,31.14-29.79,46.07-25.89,40.48-56.83,79.83-85.38,119.16-13.48,18.57-37.11,5.84-55.37,10.89,17.09,1.8,34.16,3.73,51.23,5.74,1.93.23,3.86.44,5.79.67,5.98,8.78,8.96,13.17,14.87,21.97,3.75,6.24,4.84,13.79,3.38,20.82-.97,4.65-3.04,9.06-6.24,12.69-23.43.71-46.85,1.63-70.27,2.76.78.95,1.17,1.43,1.95,2.38,23.68-.65,47.35-1.09,71.04-1.31-.93,2.76-1.84,5.53-2.76,8.29-.43,1.29-.86,2.58-1.29,3.87-18.05,54.25-35.29,108.74-51.69,163.51-30.83,103.79-58.77,208.13-71.05,315.95-.36,11.15-.7,22.31-1.04,33.46.16-1.12.32-2.25.48-3.37,5.82-41.1,11.95-82.15,18.41-123.15,3.18-17.95,7.91-34.04,15.69-49.68,2.36-4.75,4.99-9.45,7.96-14.16-3.79.97-6.2,1.59-9.24,2.38-.67.17-1.37.36-2.12.55-.51.13-1.03.27-1.59.42,3.89-13.78,7.83-27.55,11.83-41.3,11.21-38.56,22.84-76.99,34.91-115.3,15.48-51.99,31.69-103.75,48.64-155.28,5.48-15.3,11.02-30.58,16.65-45.83,4.13-8.71,8.29-17.41,12.49-26.08,13.77.41,27.53.91,41.3,1.49-1.61,3.99-3.18,7.96-4.72,11.93-9.38,24.22-17.12,48.19-19.42,74.54,1.18-3.87,2.38-7.73,3.57-11.6,2.98-9.73,5.96-19.46,8.98-29.18,5.27-16.82,10.92-33.02,18.29-48.94.65-1.4,1.29-2.81,1.97-4.21,38.81,5.34,76.84,13.63,114.82,23.12.89.51,1.33.76,2.22,1.27,9.57,2.77,20.42,4.39,30.36,4.4-9.4-2.43-18.82-4.81-28.24-7.15-.91-.31-1.37-.47-2.28-.78-25.94-7.36-51.94-14.44-78.02-21.26-37.01-7.04-74.11-13.49-111.31-19.41-.96-.15-1.93-.32-2.89-.47,1.1-9.82,6.24-20.85,12.16-28.68ZM1127.53,388.75c3.63.29,4.75.39.97.08-.34-.03-.65-.05-.97-.08-.21-.02-.43-.03-.65-.05-8.52-.69-8.19-.67.65.05Z"/>
      <path d="M1920,477.45c-28.39-10.02-55.31-24.18-76.8-45.77-26.7-11.9-52.7-24.22-76.89-40.08-4.8-3.15-9.52-6.43-14.16-9.88-2.46-1.83-4.91-3.68-7.32-5.61,24.53,3.78,49.02,7.79,73.47,12.02,15.21,2.32,30.4,4.71,45.58,7.18-13.3-5.93-27.45-8.65-41.64-11.44-20.87-3.96-41.76-7.76-62.68-11.41-12.29-4.19-19.29-8.79-29.05-17.34-4.58.98-6.86,1.47-11.43,2.46-21.79-10.66-43.67-21.12-65.65-31.39-21.11-10.07-35.43-29.71-56.52-39.73-18.87-8.64-37.81-17.14-56.81-25.49-21-9.76-40.58-20.86-57.07-37.29-11.41-11.36-20.77-24.59-33.03-35.1-57.08-48.9-108.99-103.21-160.89-157.59-.57-.6-1.14-1.19-1.71-1.79-.91-7.4,4.76-18.66,10.06-24.18,1.52-1.58,2.9-3.27,4.21-5.03h-29.42c-2.72,1.55-5.48,3.06-8.32,4.51-1.42-1.5-2.83-3-4.25-4.51h-14.89c3.65,5.68,6.87,11.68,9.52,18.18-1.76.36-3.52.71-5.28,1.07-21.22,4.29-42.43,8.31-63.88,10.76-76.75,8.74-152.27,24.58-224.51,53.15-23.46,2.63-46.88,5.44-70.29,8.45-12.63,1.23-25.25,2.52-37.86,3.88-27.08,3.47-52.72,10.35-78.37,18.74-30.98,10.14-64.23,13.64-96.2,20.12-16.74,3.4-31.9,14.13-47.09,20.93-19.72,8.83-43.25,4.89-64.5,3.41-17.39-.95-34.77-1.79-52.17-2.54-2.14.04-2.58-.26-3.31-.12-9.97,1.83-14.94,2.76-24.9,4.66,9.31-.44,13.96-.64,23.26-1.02.94.14,1.41.2,2.35.34,7.63,1.1,11.44,1.66,19.05,2.81-7.82,1.89-15.6,3.9-23.35,5.99-4.34,1.17-8.66,2.37-12.98,3.61-39.27,11.27-77.61,25.25-114.87,42.33-2.08,1.04-5.06-.83-7.29-3.39-1.8-2.06-3.1-4.57-3.04-6.37,0-.06,0-.12,0-.18.33-3.91,5.32-8.2,10.99-12-4.05.07-6.08.11-10.13.19-2.7.06-4.58-3.88-5.25-6.33-2.68-9.84-5.37-19.69-8.06-29.53-4.23-13.36-8.47-26.72-12.72-40.07-3.44-10.61-6.89-21.23-10.34-31.84.89,7.52,1.99,14.94,3.3,22.29,2.35,13.2,5.39,26.21,9.16,39.3,3,9.65,5.98,19.31,8.96,28.97,5.7,19.18,11.37,38.36,17.02,57.55,3.04,9.31,4.56,13.96,7.59,23.27,5.73,19.81,9.13,39.65,11.9,60.08,3.66,28,7.37,55.99,11.13,83.98,2.7,15.97,5.73,31.34,6.35,47.57-.28.13-.57.26-.85.38-11.22,5.02-22.41,10.1-33.57,15.25-31.07,12.81-61.95,26.03-92.66,39.66-4.19-6.41-6.29-9.61-10.5-16.01-.52-.66-.78-.98-1.29-1.64-20.14-27.23-42.23-52.53-66.18-76.29C133.34,339.57,64.38,267.07,0,190.78v7.27c54.43,66.08,112.08,129.21,173.35,189.01,33.08,32.28,65.14,65.31,94.03,101.46,1.02.36,1.53.55,2.55.91,2.57,6.77,3.85,10.16,6.41,16.94-.14.06-.28.13-.42.19-1.16.53-2.32,1.06-3.48,1.6-74.86,34.31-144.78,76.88-206.5,131.23-21.72,19.12-43.72,38.04-65.94,56.72v6.34c22.19-18.29,44.19-36.79,65.74-55.75,62.43-54.92,133.88-102.32,207.85-135.52,1.39-.62,2.77-1.23,4.16-1.85,6.81-3,13.64-5.9,20.48-8.65,13.28-5.35,27.86-8.25,42.52-10.54.69-.11,1.39-.22,2.08-.32-.05-.18-.09-.34-.13-.5-.71-2.78-1.11-4.34-1.87-7.28-.37-1.45,7.1-3.58,9.13-4.34,14.83-5.54,29.68-10.99,44.57-16.35.27-.07.53-.17.78-.28,4.47-1.61,8.95-3.21,13.43-4.81,1.31-.47,2.62-.94,3.94-1.41,2.66,6.53,3.08,12.82,1.89,18.34-.58,2.68-1.54,5.19-2.82,7.44,1.18.77,2.22,1.69,3.16,2.72,5.59,6.09,7.35,16.17,7.96,23.74,9.91,47.91,19.83,95.81,29.77,143.71.36-.3.66-.55.94-.78.61-.5,1.12-.93,1.9-1.57-3.92-21.69-7.83-43.38-11.72-65.08-4.41-24.2-9.2-48.3-14.38-72.34-.64-2.95-1.25-5.91-1.9-8.86,5.21-10.02,13.9-16.97,24.06-22.06,15.64-7.83,34.78-11.22,50.11-14.49-14.55.49-29.1,1.05-43.65,1.68-9.79,1.04-19.57,2.13-29.34,3.27-1.91-3.52-5.29-13.85-6.75-19.9-.43-1.75-.78-3.23-1.11-4.6-.52-2.13-.98-4.02-1.54-6.34-.2-.84-.42-1.74-.66-2.73-.74-3.05,10.35-7.17,14.45-8.09,22.34-4.96,44.72-9.73,67.15-14.32-11.37-.16-22.99-.23-34.21,1.87-17.38,4.05-34.74,8.2-52.07,12.46-5.39-33.81-10.74-67.63-16.04-101.45-5.16-31.69-11.53-63.05-18.87-94.28-.48-2.04-.97-4.08-1.46-6.12-.37-1.55-.73-3.11-1.11-4.67,8.68-4.5,13.03-6.74,21.76-11.18,32.22-15.59,65.64-25.73,100.92-31.55,9.54-1.38,19.08-2.73,28.63-4.06,9.16-1.27,18.33-2.51,27.5-3.73,4.12-.35,8.24-.68,12.37-1.01,22.05-1.8,44.11-3.42,66.19-4.87,3.95-.26,7.9-.53,11.85-.78-2.97-.59-5.14-1.01-7.38-1.45-1.86-.36-3.77-.73-6.24-1.21-1.47-.28,1.7-2.99,2.97-3.73,2.78-1.63,4.17-2.45,6.96-4.07,3.48-2.03,15.23-4.34,18.51-2.49.04.02.07.05.11.08,3.17,1.93,3.54,7.53,2.62,12.55,13.74-.19,27.49-.3,41.23-.36,7.66-.03,15.31-.05,22.97-.04-8.34-3.97-12.52-5.94-20.91-9.85-.88-.41-1.58-1.22-2.1-2.29-1.36-2.76-1.52-7.2-.51-10.69.72-2.48,2.05-4.49,3.96-5.06,20.57-3.03,41.95-6.54,61.2-14.39,28.05-11.43,56.92-17.5,87.05-21.28,23.68-2.67,47.38-5.14,71.1-7.41,30.06-3.46,53.24-14.92,81.11-23.35,73.28-22.16,149.86-33.85,226.83-39.4,1.42,1.08,2.35,1.78,3.47,2.63.49.37,1.01.77,1.64,1.24,2.28.1,3.41.15,5.69.25-1.72-.84-2.99-1.47-4.28-2.1-1.2-.59-2.42-1.18-4.02-1.97,4.8-1.7,10.44-2.88,15.8-2.64,4.96.22,9.68,1.65,13.27,5.04,5.55,5.24,6.74,10.69,2.76,15.25-1.33,1.52-3.23,2.95-5.75,4.24-6,10.56-11.95,21.14-17.86,31.75-8.06,13.05-16.07,26.13-24.02,39.24-9.33,15.68-15.62,32.61-25.72,47.91-18.35-.1-36.69-.08-55.04.04-13.45.6-26.65,3.38-40.13,3.51-29.55-.51-59.09-.69-88.65-.57-17.8,0-35.63-1.2-53.35,1.05,15.48.65,30.96,1.38,46.44,2.18,11.59.87,23.17,1.77,34.75,2.71,45.43-.6,90.85-.42,136.28.56-.21.91-.41,1.77-.6,2.58-.84,3.58-1.48,6.33-2.21,9.48-.42,1.8-.87,3.73-1.4,6.03,1.41-1.51,2.63-2.8,3.76-4.01,2.95-3.14,5.31-5.65,9.02-9.56,7.75-.53,15.49-1.02,23.24-1.51,18.18-1.13,36.37-2.16,54.58-3.05,45.16-2.02,90.35-3.06,135.48-5.93.93-.06,1.86-.11,2.79-.17-1.13-.18-2.26-.33-3.39-.5-13.67-1.97-27.07-2.79-40.96-1.58-46.5.45-92.97,1.73-139.43,3.84-1.08.06-4.97-1.88-8.1-4.03-2.2-1.51-4.03-3.13-4.24-4.22-.03-.17-.03-.33.03-.48.71-1.27,1.44-2.53,2.15-3.79,19.02-33.68,38.47-67.12,58.3-100.32,2-3.35,3.98-6.7,5.99-10.04.08-.13.17-.26.26-.39,2.02-2.9,7.62-6.82,10.27-6.19,4.28,1.02,6.42,1.53,10.7,2.56,38.54,39.6,76.17,80.03,112.89,121.33,15.99,15.39,31.85,30.91,47.58,46.57,14.55,14.06,26.29,31.17,32.5,50.42,19.93,61.79,48,120.47,81.5,176.49,6.91,11.39,13.75,22.81,20.51,34.28,1.54,2.62,7.46,9.52,5.52,11.55-1.34,1.4-2.42,2.53-3.45,3.59-1.66,1.74-3.16,3.31-5.33,5.58,2.61,1.41,4.95,2.99,7.08,4.71,16.71,13.46,19.98,35.42,33.98,51.38,8.87,10.12,15.92,22.78,19.79,35.9.28.95.54,1.89.79,2.84-.25-4.9-.45-8.61-.65-12.29-.19-3.61-.39-7.2-.65-11.83-.02-.36-.04-.72-.06-1.09,9.96,11.36,19.83,22.78,29.63,34.27,6.08,7.12,12.14,14.26,18.17,21.43,2.82,7.47,4.22,11.21,7,18.69,10.01,8.44,18.93,17.2,27.39,26.95,1.49,1.72,2.98,3.46,4.45,5.25-.71.29-1.43.59-2.14.89-1.85.76-3.7,1.54-5.55,2.3-7.16,2.97-14.32,5.97-21.46,9.01-9.92-11.97-20.23-23.76-27.26-37.76-8.99-18.59-18.12-37.11-27.4-55.57,2.78,10.7,5.95,21.09,9.55,31.3,5.5,15.58,12.01,30.7,19.72,45.7-.02-.69.53-1.79,1.4-3.36.37-.67.78-1.41,1.24-2.26,6.08,8.12,12.12,16.28,18.11,24.48-1.07.15-2.05.28-2.96.41-1.86.26-3.47.48-5.12.72-1.9.27-3.87.55-6.39.91-.62.32-1.24.65-1.86.98-.17.09-.33.18-.5.26-10.46,5.49-20.89,11.04-31.28,16.66-5.2-8.31-10.61-18.41-12.26-28.18-3.71-27.74-7.6-55.45-11.67-83.14-.56,7.69-.71,15.29-.53,22.82.77,30.91,7.35,60.67,15.54,91.01-.95.42-1.9.85-2.86,1.28-22.18,9.86-44.25,19.95-66.2,30.29-9.87,4.69-19.72,9.41-29.55,14.17-97.49,48.5-191.9,102.45-282.99,162.13-47.43,31.99-93.79,65.37-139.13,100.27,5.15.03,7.73.05,12.88.11.94-1.76,5.21-6.82,7.62-8.62,15.04-11.15,30.16-22.16,45.39-33.05,5.65-4.36,8.48-6.53,14.17-10.86,117.65-82.66,241.6-155.27,370.84-218.27,22.61-10.75,45.37-21.16,68.25-31.24,2.24-.99,4.48-1.97,6.72-2.95,12.25-5.35,24.54-10.61,36.86-15.77.54-.22,1.07-.45,1.61-.67,2.88-1.21,5.77-2.4,8.66-3.6,1.52-.63,3.04-1.26,4.57-1.89,9.75-4.01,19.53-7.98,29.32-11.87,1.65-.65,3.29-1.3,4.94-1.95,2.92-1.15,5.84-2.31,8.76-3.45,2.33-.91,4.66-1.81,6.99-2.71,12.48-4.84,24.99-9.58,37.54-14.22,1.53-.57,3.06-1.13,4.59-1.7,14.81-5.45,29.67-10.78,44.58-15.96,5.84-2.03,11.7-4.04,17.56-6.03,22.71-7.72,45.53-15.13,68.43-22.24v-5.21c-19.45,5.93-38.85,12.02-58.19,18.32-10.85.72-19.34-11.26-25.48-18.53-13.62-16.1-30.33-30.44-42.84-47.8-7.42-10.39-14.91-20.74-22.46-31.03-11.29-16.1-22.72-32.1-34.31-47.97-29.12-40.47-54.24-82.79-76.08-127.42-2.52-5.14-5-10.31-7.43-15.51,11.66,5.3,23.3,10.67,34.9,16.1,20.9,10.27,40.48,22.29,59.57,35.27,6.84,4.65,13.61,9.42,20.36,14.28.47.34.95.69,1.42,1.04,12.6,9.28,24.51,20.82,31.95,33.94,1.19,2.11,2.64,4.14,4.25,6.11,6.27,7.65,15.26,14.25,23.51,19.61-7.49-8.15-17.7-16.78-22.11-27.46-1.55-3.76-2.38-7.78-2.12-12.12.03-.46.06-.92.11-1.39,2.43,1.68,4.85,3.37,7.27,5.05,12.29,8.52,24.55,17.09,36.75,25.74,4.02,9.41,6.01,14.12,9.95,23.54-2.22-.59-4.03-1.07-5.73-1.52-2.89-.76-5.47-1.44-9.24-2.42,4.83,3.47,8.11,5.84,11.81,8.52,2.08,1.51,4.3,3.13,7,5.1.48.39.93.82,1.39,1.23,7.15,6.31,12.64,14.27,18.66,21.62,1.32,1.26,1.97,1.89,3.29,3.14.72.68,1.07,1.03,1.79,1.71.69.64,1.04.97,1.73,1.61,1.34,1.03,2.01,1.55,3.35,2.58,1.54,1.19,2.3,1.78,3.84,2.97,1.01-.15,1.52-.23,2.53-.38-1.18-1.15-1.77-1.73-2.95-2.88-1.34-1.05-2-1.58-3.34-2.63-1.19-.93-1.79-1.4-2.98-2.33-.64-.69-.96-1.04-1.59-1.73-.67-.77-1.01-1.15-1.68-1.91-10.01-11.26-19.2-24.36-24.62-38.72-1.72-4.56-3.07-9.25-3.94-14.04,2.22,1.03,4.35,2.11,6.41,3.23,4.84,2.63,9.28,5.52,13.4,8.62,6.34,4.76,11.96,10.02,17.2,15.67,5.14,5.54,9.93,11.44,14.7,17.58,3.29,4.24,6.58,8.6,9.96,13.03v-13.62c-3.59-4.14-7.16-8.29-10.75-12.42-2.38-2.74-4.77-5.47-7.17-8.18-2.69-3.02-5.4-6.01-8.16-8.95,8.78,2.75,17.46,5.68,26.07,8.76v-4.91ZM1481.43,242.76c4.82-.12,8.29,1.67,10.02,7.85-4-3.14-6-4.71-10.02-7.85ZM1610.07,496.83c-.24.14-.49.28-.8.46-.64-.7-.96-1.05-1.6-1.76.2-.12.37-.22.54-.31.53-.31.93-.54,1.58-.91.64.7.96,1.05,1.6,1.76-.54.31-.91.52-1.32.76ZM1674.26,592.21c-.77-.89-1.55-1.78-2.31-2.67-10.46-12.14-21-24.2-31.62-36.21-3.04-3.44-6.06-6.9-9.12-10.33,2.26-1.26,3.54-1.97,5.57-3.1.28-.16.57-.32.89-.49,15.91,10.55,32.78,25.35,36.04,44.94.42,2.54.63,5.16.56,7.86ZM1744.25,671.87c-9.58,4.04-14.73-4.76-17.6-13.14.49-.61.87-1.1,1.24-1.57.53-.67,1.02-1.29,1.72-2.18,6.77,6.29,10.14,9.45,16.85,15.78-.76.45-1.5.81-2.21,1.11ZM1824.39,620.13c5.92,6.28,8.87,9.43,14.73,15.74-2.84.99-5.66,2.01-8.49,3-13.69,4.82-27.36,9.7-40.99,14.69-.17.06-.35.12-.52.19.3-6.8.58-13.6.86-20.4.13-3.02.26-6.04.38-9.06-1.85-15.17-3.79-30.34-5.78-45.49-.62-4.7-1.22-9.41-1.85-14.1,16.14,17.13,29.47,35.32,41.67,55.45ZM1659.84,365.05c15.76,29.21,32.39,59.23,49.68,88.91,15.44,26.5,31.41,52.74,47.76,77.86,14.17,21.77,24.29,44.74,25.53,71.41.83,17.21,1.61,34.43,2.33,51.65-.17.07-.34.14-.52.21-10.21,4.11-20.4,8.25-30.57,12.44-21.43-16.19-39.66-34.84-55.8-56.29-2.92-3.88-11.88-10.6-13.3-14.33-8.43-22.13-20.85-44.91-39.1-59.49-19.43-15.52-18.81-41.05-40.24-56.32-7.62-8.39-13.81-18.09-19.59-27.81-6.88-11.63-13.83-23.21-20.85-34.75-29.49-49.19-54.42-100.24-74.45-153.89-.44-1.17-.86-2.35-1.29-3.53-.56-1.52-1.12-3.05-1.68-4.58-.29-.81-.6-1.61-.89-2.43,6.16-3.41,12.49-2.46,18.5-.13,4.21,1.63,8.27,3.95,11.98,5.92,7.07,4.11,14.12,8.26,21.16,12.42,27.5,16.23,54.78,32.8,81.85,49.75,10.86,6.51,23.77,13.6,29.67,24.66,3.23,6.05,6.52,12.17,9.83,18.3Z"/>
      <path d="M1676.73,671.73c0,.29.1.51.34.66-.11-.22-.22-.44-.34-.66Z"/>
      <path d="M1677.07,672.39c.89,2.33,1.59,4.14,2.26,5.9.84,2.21,1.64,4.32,2.75,7.25-.25-1.89-.79-3.8-1.5-5.68-.95-2.54-2.2-5.04-3.51-7.46Z"/>
      <path d="M1682.16,686.14c-.03-.2-.05-.39-.08-.6-.11.16-.06.37.08.6Z"/>
      <path d="M1684.83,688.02s-.08-.03-.13.03c.11.04.17.04.13-.03Z"/>
      <path d="M1682.16,686.14c.32,2.44.5,3.86.84,6.49.29-.88,1.29-4.13,1.7-4.58-.48-.16-2.06-1.14-2.54-1.91Z"/>
      <path d="M1844.06,474.81c-2.68-1.76-4.02-2.64-6.7-4.4,2.11,1.91,5.52,4.55,6.7,4.4Z"/>
      <path d="M561.21,961.47c20.42,8.58,40.74,17.38,60.97,26.4.88-1.58,1.32-2.38,2.21-3.96-40.43-17.71-81.24-34.43-122.46-50.22-2.47-10.55-4.95-21.11-7.43-31.66-.62-2.66-2.67-6.71-4.93-10.19-1.05-1.61-2.15-3.11-3.18-4.28,1.59,6.33,3.17,12.65,4.76,18.98,2.73,10.9,5.47,21.8,8.2,32.7-.92.35-1.85.71-2.77,1.06-8.11,3.08-16.21,6.2-24.29,9.37-1.2-.38-1.79-.57-2.99-.95-1.98.52-2.97.78-4.96,1.31,2.39.81,3.58,1.22,5.96,2.03,8.48.18,16.96.41,25.44.67,2.2.07,4.39.13,6.59.2,3.26,15.77,6.53,31.54,9.8,47.31-.79.23-1.58.46-2.36.69-21.8,6.34-43.52,12.9-65.18,19.69,19.47-2.04,38.94-3.91,58.44-5.6,5.95-.52,11.9-1.02,17.86-1.5,1.06,3.49,2.12,6.98,3.18,10.47h4.81c-1.89-5.04-3.78-10.07-5.68-15.11-4.08-14.48-8.18-28.96-12.28-43.44-1-3.54-2-7.08-3-10.61,2.83-1.61,5.73-2.7,8.66-3.38,15.02-3.47,31.07,3.99,44.63,10Z"/>
      <path d="M253.29,956.43c-86.66,6.74-170.91,25.39-253.29,52.48v6.07c62.22-20.07,124.94-39.16,189.55-46.67,51.68-6.01,104.37-9.92,156.25-17.72-31.08-.57-61.69,2.04-92.5,5.85Z"/>
      <path d="M729.32,385.98c-1.22-.61-.36-.18,2.48,1.24,5.57.18,12.63-2.44,19.04-7.59-23.14,2.58-46.25,5.36-69.34,8.33,15.94-.77,31.88-1.45,47.83-1.99Z"/>
      <path d="M680.52,1013.94c-12.36-8.39-25.01-16.18-39.93-18.92,12.03,8.84,24.46,15.71,38.07,21.83,1.11,1.1,1.66,1.65,2.76,2.74,4.07.19,6.1.3,10.16.51-3.54-2.31-5.32-3.46-8.87-5.76-.88-.16-1.31-.24-2.19-.4Z"/>
      <path d="M461.89,706.77c.82-.18,1.46-.31,2.48-.53-2.29-10.73-4.59-21.46-6.88-32.19-1.39.3-2.09.45-3.48.75.83,3.86,1.66,7.72,2.49,11.58l4.43,20.6c.36-.08.67-.15.97-.21Z"/>
      <path d="M468.81,763.38c-.08.06-.13.11-.2.16,0,0,0,0,0,0-.93.74-1.48,1.18-2.47,1.97,2.41,8.87,3.62,13.3,6.02,22.17.68-2.23,1.02-3.34,1.71-5.56-2.02-7.5-3.03-11.25-5.06-18.74Z"/>
      <path d="M761.51,156.66c-1.24-.09-3.77.24-3.61,1.11.53,2.9.79,4.35,1.32,7.24,3.32-.26,4.97-.39,8.29-.64-3.94-6.94-4.12-7.58-6.01-7.72Z"/>
      <path d="M679.6,387.92c-11.32.08-17.55,1.23-26.29,2.54-1.14-1.08-1.4-1.48-2.02-1.39-4.83.7-7.25,1.05-12.07,1.77,4.12.35,6.17.52,10.29.88.95.66,1.42.99,2.37,1.65,9.14-.52,19.13-2.31,27.74-5.45Z"/>
      <path d="M462.7,718.71c-1.02.86-1.55,1.32-2.58,2.2,1.05,3.98,1.82,6.91,2.61,9.9.72,2.72,1.44,5.48,2.4,9.11,0,0,.01-.01.02-.02,1.03-.88,1.55-1.33,2.59-2.21-1.99-7.59-2.99-11.4-4.98-18.98,0-.01,0-.02,0-.03-.02.02-.03.03-.05.04Z"/>
      <path d="M487.61,861.95c-1.99-7.6-2.99-11.4-4.99-19-1,.89-1.51,1.33-2.51,2.22,2.01,7.6,3.01,11.4,5.01,19,.99-.89,1.49-1.33,2.49-2.21Z"/>
      <path d="M797.53,435.06c.92.94,1.37,1.4,2.29,2.34,8.27-1.11,12.41-1.65,20.69-2.7-.91-.94-1.36-1.41-2.27-2.35-8.29,1.06-12.43,1.6-20.71,2.71Z"/>
      <path class="cls-2" d="M489.7,880.34c-.02-.09-.04-.19-.07-.3"/>
      <path d="M489.22,878.15c.18.82.32,1.46.41,1.89-.09-.43-.23-1.07-.41-1.89Z"/>
      <path d="M488.94,876.87c-.08-.38-.17-.78-.27-1.22q-.78-3.57,0,0c.1.44.18.84.27,1.22Z"/>
      <path d="M489.18,877.94c.02.07.03.14.05.21-.02-.07-.03-.14-.05-.21Z"/>
      <path d="M488.94,876.87c.08.39.16.75.23,1.08-.07-.33-.15-.69-.23-1.08Z"/>
      <path class="cls-2" d="M489.74,880.52s-.02-.11-.04-.17"/>
      <path class="cls-2" d="M489.79,880.77s-.02-.08-.06-.25"/>
      <path d="M704.66,442.5c.23,1.51,1.9,5.07,2.94,3.82,1.48-1.78,2.22-2.68,3.71-4.46.7-.84-6.8-.32-6.65.64Z"/>
      <path d="M467.76,748.89c2.22,6.64,2.06,6.16-.39-1.17.12.35.25.74.39,1.17Z"/>
      <path d="M467.35,747.67s.01.04.02.06c-.73-2.18-.89-2.66-.02-.06Z"/>
      <path d="M838.55,435.64c.24,0,.47,0,.7,0-8.82.05-9.18.06-.7,0Z"/>
      <path d="M840.16,435.63c3.74-.02,2.65-.02-.92,0,.31,0,.59,0,.92,0Z"/>
      <path d="M864.92,436.58c.26,0,.52,0,.76,0-8.88-.02-9.25-.02-.76,0Z"/>
      <path d="M866.54,436.58c3.71,0,2.67,0-.86,0,.29,0,.55,0,.86,0Z"/>
      <path d="M994.21,438.24c.97-.06,1.46-.08,2.43-.14-.97.01-1.46.02-2.44.03-1.01.04-1.51.05-2.52.09-.97.06-1.46.08-2.43.14.97-.01,1.46-.02,2.44-.03,1.01-.04,1.51-.05,2.52-.09Z"/>
      <path d="M891.32,398.9c-.08-.78-.12-1.17-.19-1.94.02.78.04,1.17.06,1.95.05.81.08,1.21.13,2.02.08.78.12,1.17.2,1.94-.02-.78-.04-1.17-.06-1.95-.05-.81-.08-1.21-.13-2.02Z"/>
      <path d="M354.18,949.95c-.82.25-1.23.37-2.06.62.83-.21,1.25-.31,2.09-.51.86-.23,1.29-.35,2.14-.58.82-.25,1.23-.37,2.06-.61-.83.2-1.25.31-2.09.51-.86.23-1.29.35-2.14.58Z"/>
      <path d="M928.48,375.16c-.99.07-1.49.11-2.48.19.99-.03,1.49-.05,2.48-.08,1.03-.06,1.54-.08,2.57-.14.99-.07,1.49-.11,2.48-.18-.99.03-1.49.05-2.48.08-1.03.05-1.54.08-2.57.14Z"/>
      <path d="M975.56,438.95c.97-.06,1.46-.09,2.43-.15-.97.02-1.46.03-2.44.04-1.01.04-1.51.06-2.52.1-.97.06-1.46.09-2.43.15.97-.02,1.46-.03,2.44-.05,1.01-.04,1.51-.06,2.52-.1Z"/>
      <path d="M439.78,949.64c.77.43,1.16.64,1.94,1.07.49-.73.74-1.1,1.23-1.84-.77-.43-1.16-.64-1.94-1.07-.49.73-.74,1.1-1.23,1.84Z"/>
      <path d="M391.66,188.44c-9.7,1.28-10.09,1.33-.83.11.29-.04.57-.07.83-.11Z"/>
      <path d="M391.66,188.44c.3-.04.61-.08.93-.12,4.04-.53,2.9-.38-.93.12Z"/>
      <path d="M394.33,449.29c2.02-.44,3.38-2.08,3.04-3.66-.34-1.58-2.26-2.51-4.29-2.06-2.02.44-3.38,2.08-3.04,3.66.35,1.58,2.27,2.5,4.29,2.06Z"/>
      <path d="M322.91,55.18c.19.76.29,1.14.48,1.89-.13-.77-.2-1.16-.33-1.93-.17-.79-.25-1.19-.42-1.98-.19-.76-.29-1.14-.48-1.89.13.77.2,1.16.33,1.93.17.79.25,1.19.42,1.98Z"/>
      <path d="M404.36,182.5c1.05-.23,1.57-.35,2.63-.58-1.06.19-1.59.28-2.65.47-1.09.22-1.64.33-2.73.54-1.05.23-1.57.35-2.62.58,1.06-.19,1.59-.29,2.65-.48,1.09-.22,1.64-.33,2.73-.54Z"/>
      <path d="M1683.68,712.08s.01.01.02.02c.56.7.85,1.07,1.42,1.78.8-.46,1.2-.68,2-1.14-.5-.63-.79-.99-1.24-1.55-.06-.08-.12-.15-.2-.25-.8.46-1.2.68-2,1.14Z"/>
      <path d="M1509.52,476.7c-16.21-6.57-32.23-11.22-49.32-14.87-.75-.63-1.12-.95-1.88-1.58-6.16-.55-9.24-.82-15.4-1.34,5.28,1.44,7.91,2.17,13.18,3.64.66.77.99,1.15,1.65,1.92,17.28,3.97,34.54,8.04,51.77,12.23Z"/>
      <path d="M1077.14,578.76c6.27-14.7,12.61-29.38,19.05-44.01,7.28-15.67,17.76-31.66,19.33-49.32-8.3,17.11-16.5,34.26-24.61,51.47-6.19,13.52-12.22,26.88-13.76,41.86Z"/>
      <path d="M1582.07,495.02c-6.68-1.9-10.02-2.85-16.71-4.71-.69-.86-1.03-1.29-1.72-2.15-9.15-1.08-13.73-1.6-22.88-2.62,6.64,3.45,14.04,5.15,20.29,5.47.82.7,1.23,1.05,2.05,1.75,7.59.88,11.38,1.34,18.96,2.27Z"/>
      <path d="M1623.39,569.88c-.3,6.42-.29,6.33,0,0h0Z"/>
      <path d="M1623.41,569.48c0,.14-.01.26-.02.4,0-.04,0-.08,0-.13,0-.1,0-.18.01-.27Z"/>
      <path d="M1623.46,568.46c-.02.36-.03.69-.05,1.02.14-3.08.19-4.1.05-1.02Z"/>
      <path d="M1306.89,421.53c.34.05.66.09.96.13-9.03-1.24-9.47-1.29-.96-.13Z"/>
      <path d="M1307.85,421.66c.22.03.41.06.64.09,3.61.5,2.68.37-.64-.09Z"/>
      <path d="M1321.69,425.45c.27.04.53.08.78.11-8.84-1.26-9.22-1.3-.78-.11Z"/>
      <path d="M1322.48,425.56c.27.04.53.07.82.12,3.67.52,2.65.37-.82-.12Z"/>
      <path d="M1066.52,607.93c4.45-6.97,6.07-10.19,5.52-11.15-2.22,4.46-3.32,6.69-5.52,11.15Z"/>
      <path d="M1519.7,480.11c-.96-.14-1.44-.21-2.4-.36-1-.13-1.49-.19-2.49-.31-.97-.1-1.45-.15-2.41-.25.96.14,1.44.21,2.4.35,1,.12,1.49.19,2.49.31.97.1,1.45.15,2.41.25Z"/>
      <path d="M1530.76,481.54c-.96-.15-1.44-.22-2.4-.37-1-.13-1.49-.19-2.49-.32-.97-.1-1.45-.15-2.41-.26.96.14,1.44.22,2.4.36,1,.13,1.49.19,2.49.32.97.1,1.45.16,2.41.26Z"/>
      <path d="M1340.85,429.42c-.98-.09-1.46-.14-2.44-.22-1.01-.07-1.52-.11-2.53-.18-.98-.05-1.47-.07-2.45-.11.98.09,1.46.13,2.44.22,1.01.07,1.52.1,2.53.18.98.05,1.47.07,2.45.12Z"/>
      <path d="M1061.1,623.6c-.01.78-.02,1.17-.03,1.95.01.81.02,1.21.03,2.02.04.78.06,1.17.09,1.95.01-.78.02-1.17.03-1.95-.01-.81-.02-1.21-.03-2.02-.04-.78-.06-1.17-.09-1.95Z"/>
      <path d="M1064.5,614.57c-.01.78-.02,1.17-.04,1.95.01.81.02,1.21.03,2.02.04.78.05,1.17.09,1.95.01-.78.02-1.17.04-1.95-.01-.81-.02-1.21-.03-2.02-.04-.78-.05-1.17-.09-1.95Z"/>
      <path d="M1074.76,584.52c-.02.78-.03,1.17-.04,1.95,0,.81.01,1.21.02,2.02.03.78.05,1.17.08,1.95.02-.78.03-1.17.04-1.95,0-.81-.01-1.21-.02-2.02-.03-.78-.05-1.17-.08-1.95Z"/>
      <path d="M1056.05,637.12c.71.59,1.07.88,1.78,1.47.69-.61,1.04-.91,1.73-1.52-.71-.59-1.07-.88-1.78-1.47-.69.61-1.04.92-1.73,1.53Z"/>
      <path d="M1046.09,664.24c.71.58,1.06.88,1.77,1.46.68-.61,1.02-.92,1.71-1.53-.71-.58-1.06-.88-1.77-1.46-.68.61-1.02.92-1.71,1.53Z"/>
      <path d="M1350.13,431.59c-.79.54-1.19.81-1.98,1.36.7.65,1.06.98,1.76,1.63.79-.54,1.19-.81,1.98-1.35-.7-.65-1.06-.98-1.76-1.63Z"/>
      <path d="M1481.43,242.76c4.02,3.13,6.02,4.7,10.02,7.85-1.73-6.18-5.2-7.97-10.02-7.85Z"/>
      <path d="M1127.53,388.75c.32.03.63.05.97.08,3.78.31,2.66.21-.97-.08Z"/>
      <path d="M1127.53,388.75c-8.84-.72-9.18-.74-.65-.05.23.02.44.04.65.05Z"/>
      <path d="M1646.88,553.42c.62.71.93,1.07,1.55,1.78.82-.47,1.23-.7,2.06-1.17-.62-.71-.93-1.07-1.55-1.78-.82.47-1.23.7-2.06,1.17Z"/>
    </g>
  </g>
</svg>