<?xml version="1.0" encoding="UTF-8"?>
<svg id="Layer_2" data-name="Layer 2" xmlns="http://www.w3.org/2000/svg" viewBox="0 0 374.02 40.84">
  <g id="Layer_1-2" data-name="Layer 1">
    <g>
      <path d="M3.73,8.52H0V0h21.24c1.48,0,2.93.26,4.35.79,1.42.53,2.7,1.25,3.85,2.19,1.15.93,2.07,2.05,2.77,3.35.7,1.3,1.05,2.75,1.05,4.35v16.16l-12.19,14H3.73V8.52ZM24.74,23.69v-11.2c0-1.05-.26-1.85-.79-2.39-.52-.54-1.15-.93-1.87-1.17-.72-.23-1.44-.36-2.16-.38s-1.27-.03-1.66-.03h-6.01v23.8h4.96l7.53-8.63Z"/>
      <path d="M35,8.52V0h29l5.25,10.03-8.63,8.4c1.44,1.05,2.64,2.34,3.62,3.88.97,1.54,1.81,3.2,2.51,4.99s1.31,3.65,1.84,5.57c.52,1.93,1.08,3.8,1.66,5.63l-8.23,2.33c-.47-1.01-.9-2.33-1.28-3.97-.39-1.63-.86-3.28-1.4-4.93-.54-1.65-1.22-3.16-2.01-4.52-.8-1.36-1.86-2.25-3.18-2.68l-6.88,6.65v9.45h-8.52l-.06-32.32h-3.68ZM47.26,19.6l11.32-11.08h-11.32v11.08Z"/>
      <path d="M93.11,23.63h-12.02v8.69h18.14v8.52h-26.66V0h26.66v8.52h-18.14v7.88h12.02v7.23Z"/>
      <path d="M110.5,40.84h-8.63v-9.22l6.71-17.33v-2.62h8.58v4.2l-3.21,8.34h5.37l5.43,3.67c-.31-1.17-.68-2.44-1.11-3.82-.43-1.38-.91-3.1-1.46-5.16-.39-1.48-.71-2.85-.96-4.11-.25-1.26-.64-2.35-1.17-3.27-.53-.91-1.28-1.63-2.28-2.16-.99-.52-2.46-.79-4.41-.79h-1.17l-2.33.12h-1.17V.17c1.4-.12,2.82-.17,4.26-.17,3.15,0,5.7.35,7.64,1.05,1.94.7,3.53,1.75,4.75,3.15,1.23,1.4,2.2,3.13,2.92,5.19.72,2.06,1.43,4.47,2.13,7.23.19.74.53,1.87.99,3.38.47,1.52.94,3.09,1.43,4.73s.91,3.16,1.28,4.58c.37,1.42.55,2.36.55,2.83v8.69h-8.52v-1.66c0-.52-.02-1.04-.06-1.55l-8.98-6.13h-5.95l-.64,1.69v7.64Z"/>
      <path d="M138.68,8.52h-3.73V0h21.24c1.48,0,2.93.26,4.35.79,1.42.53,2.7,1.25,3.85,2.19,1.15.93,2.07,2.05,2.77,3.35.7,1.3,1.05,2.75,1.05,4.35v16.16l-12.19,14h-17.33V8.52ZM159.68,23.69v-11.2c0-1.05-.26-1.85-.79-2.39-.52-.54-1.15-.93-1.87-1.17-.72-.23-1.44-.36-2.16-.38s-1.27-.03-1.66-.03h-6.01v23.8h4.96l7.53-8.63Z"/>
      <path d="M202.74,40.84h-8.52c-1.75-4.98-3.83-9.78-6.24-14.41-2.41-4.63-5.19-9.04-8.34-13.24v27.65h-8.52V0h8.58c2.8,3.03,5.43,6.22,7.88,9.57,2.45,3.35,4.67,6.85,6.65,10.5V0h8.52v40.84Z"/>
      <path d="M214,40.84h-8.63v-9.22l6.71-17.33v-2.62h8.58v4.2l-3.21,8.34h5.37l5.43,3.67c-.31-1.17-.68-2.44-1.11-3.82-.43-1.38-.91-3.1-1.46-5.16-.39-1.48-.71-2.85-.96-4.11-.25-1.26-.64-2.35-1.17-3.27-.53-.91-1.28-1.63-2.28-2.16-.99-.52-2.46-.79-4.41-.79h-1.17l-2.33.12h-1.17V.17c1.4-.12,2.82-.17,4.26-.17,3.15,0,5.7.35,7.64,1.05,1.94.7,3.53,1.75,4.75,3.15,1.23,1.4,2.2,3.13,2.92,5.19.72,2.06,1.43,4.47,2.13,7.23.19.74.53,1.87.99,3.38.47,1.52.94,3.09,1.43,4.73s.91,3.16,1.28,4.58c.37,1.42.55,2.36.55,2.83v8.69h-8.52v-1.66c0-.52-.02-1.04-.06-1.55l-8.98-6.13h-5.95l-.64,1.69v7.64Z"/>
      <path d="M256.58,40.84c-2.84,0-5.35-.54-7.53-1.63-2.18-1.09-4.01-2.55-5.48-4.38-1.48-1.83-2.59-3.95-3.33-6.36-.74-2.41-1.11-4.94-1.11-7.58V0h8.46l.06,20.89c0,3,.56,5.46,1.69,7.41s2.74,3.19,4.84,3.73l7.99-5.72V0h8.52v40.84h-8.52v-4.03l-5.6,4.03Z"/>
      <path d="M273.74,26.84v-15.34c0-1.44.28-2.85.85-4.23.56-1.38,1.34-2.61,2.33-3.68.99-1.07,2.14-1.93,3.44-2.6,1.3-.66,2.71-.99,4.23-.99h20.77v8.52h-17.68c-1.52,0-2.65.1-3.41.29-.76.2-1.28.54-1.58,1.05-.29.51-.44,1.19-.44,2.04v11.96l7.41,8.46h7.12l.06-9.28h-6.88v-8.52h17.04v8.52h-1.69v17.79h-19.37l-12.19-14Z"/>
      <path d="M318.43,40.84h-8.52V0h8.52v16.39h6.94l7.88,5.31V0h8.52v40.84h-8.52v-10.33l-10.09-6.88h-4.73v17.21Z"/>
      <path d="M363.58,40.84h-8.52V8.52h-10.38V0h29.35v8.52h-10.44v32.32Z"/>
    </g>
  </g>
</svg>