<?xml version="1.0" encoding="UTF-8"?>
<svg id="Layer_2" data-name="Layer 2" xmlns="http://www.w3.org/2000/svg" xmlns:xlink="http://www.w3.org/1999/xlink" viewBox="0 0 1271.21 1213.93">
  <defs>
    <style>
      .cls-1 {
        fill: url(#radial-gradient);
        opacity: .69;
      }
    </style>
    <radialGradient id="radial-gradient" cx="635.6" cy="606.96" fx="635.6" fy="606.96" r="621.45" gradientUnits="userSpaceOnUse">
      <stop offset="0" stop-color="#fff" stop-opacity="0"/>
      <stop offset=".08" stop-color="#fcfff6" stop-opacity=".19"/>
      <stop offset=".2" stop-color="#f9ffeb" stop-opacity=".44"/>
      <stop offset=".3" stop-color="#f7ffe2" stop-opacity=".63"/>
      <stop offset=".37" stop-color="#f6ffdd" stop-opacity=".74"/>
      <stop offset=".41" stop-color="#f6ffdc" stop-opacity=".78"/>
      <stop offset=".48" stop-color="#f5e7b6" stop-opacity=".83"/>
      <stop offset=".59" stop-color="#f5c784" stop-opacity=".89"/>
      <stop offset=".69" stop-color="#f4ae5c" stop-opacity=".94"/>
      <stop offset=".8" stop-color="#f49c3f" stop-opacity=".97"/>
      <stop offset=".9" stop-color="#f4912e" stop-opacity=".99"/>
      <stop offset="1" stop-color="#f48e29"/>
    </radialGradient>
  </defs>
  <g id="Layer_1-2" data-name="Layer 1">
    <path id="the_Kaboom" class="cls-1" d="M737.1,6.7c-4.7,21.2-17.8,91.4-23.7,127.6-.8,4.9-1.6,7.2-2,6s-.9.1-1.4,3.7c-.4,3-1.1,6.4-1.6,7.5-.7,1.6-.8,1.4-.5-1,.3-1.7.7-9.3,1-17,.6-16.4.4-15.6-5.4,18-3.8,22.1-13.2,86.3-14.6,99.3-1.3,12.2-1.5,5.1-.5-19.9,1.7-43.7,2.3-67.4,1.7-66.8-.4.3-2,10-3.7,21.5-3.1,21.4-4.3,27.5-3.4,16.9.7-8.2,1.6-78.3,1.1-77-2.1,4.5-10.4,93.9-13.6,146.5-.6,9.6-1.9,30.1-3,45.5s-2.9,42.6-4,60.5c-1.9,32.4-6.8,94.1-7.4,94.7-.2.2-.6-9.2-1-20.9-.3-11.7-1.1-33-1.7-47.3-.9-20.1-.9-27.3,0-31.5,2.2-9.8,2.6-89.5.7-140.5-.9-24.8-2.1-58.1-2.6-74-1.4-38.8-5.7-108.9-7.9-127.5-.7-6.4-.7-6.3-1.7,6.5-1.3,19.2-1.1,193.5.4,227,1.8,41.5,2.3,56.1,1.8,55-.3-.6-1.2-11.6-2.1-24.5-4.4-64.8-12.8-150-14.9-150-1.4,0,1.2,121.6,3,142.5.3,3.8.4,6.8.1,6.5s-1.7-11.3-3.1-24.5c-7.5-68.1-23.6-184.9-25.3-183.1-.2.2.1,12.2.7,26.6.7,14.4,1,26.3.8,26.5-.2.3-1.1-3.7-1.9-8.8-4.7-30.3,1.5,59.4,8.1,117.7,1.1,9.3,1.8,17.1,1.7,17.3-.2.1-1.8-7.9-3.6-18-4.5-24.9-13-66.9-13.7-67.6-.3-.3-.3,2.1,0,5.4.4,3.3,1.3,13.9,2.1,23.5.9,9.6,1.8,19.7,2,22.5.9,9.4-.4,3-4-19-7.8-47.8-23.7-128.6-25.1-127.2-.5.4,1.8,22.4,4.2,40,.9,6.5,1.4,12,1.2,12.2s-2.5-9.4-5.2-21.3c-9.3-42.3-20.5-86.6-18.1-71.7.3,1.6,1.2,8.8,2,16,5,43.2,19.3,132.9,31.1,195.4,1.9,10.1,3.3,18.5,3.1,18.7-.2.3-2-5.8-3.9-13.3-6.1-23.8-11.2-41.6-11.6-40.5-.6,1.9,6.4,38.7,13.9,72.7,3.8,17.1,15.7,64.7,21.9,87.5,1.6,5.8,4.3,17.9,6,27,4,21.2,16.1,79.1,20.6,98.4,1.9,8.2,3.3,15,3.1,15.2s-2.4-6.5-4.9-14.9c-2.5-8.3-6.4-21.1-8.6-28.2-2.3-7.2-5.5-19.3-7.2-27-7.8-35.4-30-114.8-31.6-113.2-.5.5,8.2,38.8,11.5,50.7,2.1,7.4,2.5,9.7,1.7,8.9-1.2-1.1-17.9-55.1-21.1-67.9-13-51.8-34.5-124.9-54.4-185-11.2-33.4-22.2-64.3-22.8-63.7-.5.6,13.2,55,20.6,81.7,3.3,11.8,5.8,21.6,5.7,21.8-.2.1-2.5-5.5-5.1-12.5-8.3-22.4-17.8-46.3-18.2-45.9-.5.5,7.4,30.9,15.6,60.6,3.3,11.8,5.9,21.6,5.7,21.7-.2.2-2-4.2-4.2-9.6-2.1-5.5-4-9.8-4.2-9.6-.5.5,7.3,27.6,14.8,52,7.9,25.2,24.9,75.6,34.9,103.2,4.4,12.3,11.7,33.2,16.2,46.5,4.5,13.4,11.9,35.1,16.5,48.2,4.7,13.1,8.2,24.1,8,24.3-.2.3-.7-.6-1.1-1.9-2.8-9.1-47-117.6-64.5-158.3-2.8-6.6-10.3-25.4-16.6-41.8-16.4-42.4-40.9-100.5-42.1-99.4-.2.3,1.7,6.2,4.2,13.2,2.4,7.1,4.3,13,4.2,13.2-.2.2-3-5.4-6.2-12.4-9.4-20.7-40.4-84.6-41.6-85.8-2.6-2.6,27,78,51,138.7,4.5,11.4,8,21.2,7.7,21.6-.3.5,1.5,6.2,3.9,12.7,2.5,6.5,4.5,12.1,4.5,12.4s-6-11.6-13.3-26.4c-13.9-28.1-33.5-65.5-36.1-69-2.8-3.6,16.9,43.6,33.5,80.3,14.5,32.1,31,66.2,49.1,101.8,17,33.7,22.2,44.4,21.3,44.4-.2,0-6-10.9-12.9-24.3-6.8-13.3-17.7-33.9-24.1-45.7s-15.1-28.7-19.3-37.5c-12.5-26.2-34.6-70.3-42.2-84.6-12-22.4-25.3-45.9-25.8-45.5-.2.2,3.5,8.9,8.3,19.3,4.7,10.3,8.9,19.5,9.2,20.3s-3.3-4.8-7.9-12.5c-7.9-13.1-17.7-28.4-21.2-33-2.8-3.7,22.5,51.7,35.6,77.9,3.8,7.6,6.7,14,6.5,14.2s-3-4.2-6.2-9.8c-7.8-13.7-29.1-48.7-31.6-51.8-2.3-2.9,1.3,4.8,13.3,28.5,18.3,36.1,49.5,91.8,69.3,123.5,3.9,6.3,12.9,22.3,20,35.5,13.5,25.4,35.1,65.1,39.2,72.2,1.4,2.4,2.3,4.3,2,4.3s-3.8-5.3-7.8-11.8c-4-6.4-14-22.2-22.2-35.1s-21.4-34.3-29.4-47.5c-47.2-77.9-91.9-146.4-140.3-214.8-1.9-2.6-3.5-4.6-3.7-4.4-.3.3,6.4,13,12.4,23.6,4.1,7.3,1.4,3.7-12.7-16.5-15.2-21.7-39.6-55.3-41.8-57.5-4.4-4.4,36.2,64.8,66.6,113.5,31.3,50.1,76.5,118.8,107.2,163,8.4,12.1,19.8,29.2,25.3,38,16,25.5,37.5,58.8,57.8,89.1,10.3,15.5,18.5,28.5,18.2,28.8s.5,2.3,1.9,4.3c1.3,2.1,3.3,5.1,4.2,6.8l1.8,3-2.2-2.5c-1.2-1.4-9.6-11.7-18.8-22.9-9.1-11.2-23.6-28.5-32.2-38.5-8.5-9.9-22.5-27.3-30.9-38.6-29-38.5-74.7-94.9-107.5-132.5-16.9-19.3-41.6-46.5-42.3-46.5-.2,0,1.2,2.4,3.3,5.2,7.8,10.8,8.5,12.2,3.8,6.8-2.7-3-12.1-13.6-20.8-23.4-17.8-20-43.5-47.6-44.3-47.6-.6,0,1,2.2,13.1,18,38.8,50.8,105.4,129.1,141.6,166.5,13.7,14.1,48.5,55.5,46.7,55.5-.2,0-6.6-7.3-14.3-16.2-51.1-59.6-118.6-133-183.9-200.3-25-25.7-59.4-59.2-54.4-53,.9,1.1,7.1,9,13.9,17.5,21.5,26.9,59.4,71.8,92.9,110l6.6,7.5-5.6-5c-3.1-2.8-14.3-13.2-25-23.2s-20.7-19.2-22.3-20.4c-6.5-5.1,18.4,24.8,47.9,57.4,23.1,25.6,24.4,27.6,7.5,11.2-36.7-35.5-96.9-91.3-137.5-127.6-24.6-21.9-66.4-57.9-71-61.2-2.7-1.9-2.6-1.7.9,2.3,24.9,28.4,92.5,97.8,151.6,155.6,12.9,12.6,22,21.8,20.3,20.4s-15.5-12.9-30.5-25.6c-29.5-24.9-69.1-57-72.3-58.5-2.8-1.4,42.2,43,73.5,72.5,14.6,13.8,30.3,28.6,35,33,11.3,10.6,9.1,9.1-13.5-9.4-33.1-27-89.6-70.8-107.5-83.4-9.3-6.5,47.6,45.8,80.8,74.3,7.2,6.3,13.2,11.6,13.2,11.8s-.8-.2-1.7-.9c-1-.7-10.8-8-21.8-16.2-48.1-36-114.2-82.6-110.5-78.1,3.7,4.6,65.8,58,104.4,89.9,22.2,18.3,81.1,65.5,104.9,84,9.7,7.6,17.7,13.9,17.7,14.1s-13.6-8.5-30.2-19.4c-41.7-27.2-93.1-59.2-89.8-55.9,2.1,2.1,37.7,30.3,53.5,42.3,18.1,13.7,18.2,14.1,1,2.9-82.9-53.9-171-107.6-227.5-138.7-8-4.3-4.8-1.7,16.5,13.9,62.9,46,169.6,117.5,249,166.9,20.4,12.7,33.4,21.2,35,22.8.6.6-1-.1-3.5-1.5-22.7-12.9-43.4-23.9-41.5-22,1.3,1.2,19.4,13.2,31.3,20.6,5,3.2,9.2,6,9.2,6.3s-1-.1-2.2-.9c-19.1-12.5-136.2-77.1-202.3-111.5-41.8-21.9-119.2-59.9-120.1-59-1.1,1.1,118,73.2,137.4,83.1,1.9,1,3.2,2,2.9,2.2-.3.3-2.7-.6-5.4-1.9-7.8-4-48.5-21.8-48.9-21.5-.1.2,7.6,5,17.2,10.7,9.6,5.8,17.2,10.6,17,10.8-.2.3-1.9-.3-3.6-1.2-5.9-3.1-26.3-11.6-26.7-11.1-.5.5,37,21.8,68.2,38.8,40.2,22,73.6,39.3,124.5,64.5,67.9,33.6,107.9,53.7,107.6,54-.2.2-3.4-1.1-7.1-2.8-11.5-5.2-48.7-20.1-49.1-19.6-.2.2,10.6,5.7,24,12.3,13.4,6.5,24.3,12,24.2,12.1-.2.2-2.9-.8-6.2-2.1-11.4-4.6-62.1-22.9-86.4-31.1-13.5-4.6-42.9-15.3-65.5-23.8-22.5-8.5-50.2-18.7-61.5-22.7-44.2-15.6-114.6-38.7-115.5-37.8-.2.2,9.4,4.6,21.3,9.8s25.1,11.2,29.2,13.4c13.8,7.1,40.7,18.4,97.8,41.2,107.5,42.8,172.7,67,245.4,91,9.7,3.2,17.6,6,17.4,6.2-1.3,1.2-37.6-9.8-98.1-29.7-90.2-29.8-245.2-72.3-317.5-87.2-5.2-1.1-10.4-2.2-11.5-2.5-1.6-.4-1.7-.3-.5.5,4.9,3.1,97,33.1,143.7,46.8,8.9,2.6,16.1,4.8,15.9,5s-14.5-2.8-31.7-6.6c-63.7-14.2-159.4-33-160.7-31.6-.9.8,72.1,22.5,111.8,33.1,9.1,2.5,13.6,4,12,4.3-5.2.8,37.3,11.5,109.5,27.6,25.7,5.7,58.7,13.9,52.5,12.9-1.9-.2-14.1-2.2-27-4.4-43.1-7.2-73.9-11-55.6-6.9,12.7,2.8,3.1,1.7-25-3-51.8-8.7-118.1-18.6-170.9-25.5-39.7-5.2-97.4-11.7-103-11.5l-3,.1,3,.8c44.2,11.2,163.5,34.6,250.5,49,10.2,1.7,30,5.3,44,8s27.2,5.2,29.3,5.6c9,1.6,1.7,1.1-18.1-1.1-79.6-9-178.6-17.5-237.7-20.5-11.5-.5-24.6-1.2-28.9-1.5-4.3-.2-7.6-.2-7.3.1s8.1,1.8,17.3,3.5c94.5,16.4,247.2,34.6,377.4,45,7.4.5,14,1.2,14.5,1.4,2,.7-7.3.5-18-.5-13.5-1.2-64.2-4.5-90.5-6-56.4-3-90.2-4.4-146.5-6-36.4-1.1-134.2-1.4-133.3-.4.7.7,46.9,5.7,72.8,7.9,30.1,2.5,32.5,3.2,11.1,3.4-10.1,0-18.2.4-17.9.7,2.5,2.5,107.5,8.7,171.4,10.1,18.1.5,31.3.9,29.4,1-1.9.2-7.8.6-13,1l-9.5.7,9,.7c5,.4,12.6.8,17,.9,5.2.1,7.1.5,5.5.9-2.3.7-2.3.8-.5,1.4,1.1.3,7.4.9,14,1.4,6.6.4,11.1.8,10,1-1.1.1-18,.9-37.5,1.8-44.3,1.9-80.5,4-116,6.5-30.8,2.3-70.1,5.8-70.7,6.4-2.3,2.2,189.7,2.8,254.2.8,20.4-.7,44.4-1.5,53.5-1.8,9.1-.4,16.2-.4,15.9,0-.5.6-14.8,1.6-48.9,3.6-53.7,3.1-148.3,12.7-161.5,16.5-2.7.7-12,2.1-20.5,3-45.4,4.8-121.1,15.3-122.9,17.1-.3.3,2.6.3,6.4,0,3.9-.3,14.2-.8,23-1.2,8.8-.3,24.8-1.2,35.5-1.9,19.2-1.3,24.9-1.3,15.3,0-4,.6-55.8,9.2-67.1,11.2-7.6,1.3-.9,1.3,23.4-.2,72.1-4.4,167.1-14.2,260.7-27.1,26.2-3.6,37.1-4.2,17.2-1-21.8,3.5-133.9,25.7-137,27.1-.5.2,2.2.2,6,0,9.4-.7,7.4,0-7.5,2.5-31.3,5.2-123.7,24.6-122.6,25.8,1.1,1,56-6.7,95.6-13.4,41.1-7,42.9-7,10.5.1-55.9,12.3-157.7,37.6-165,41-3.8,1.8,56.9-7.7,105.5-16.6,42.9-7.8,112.5-21.9,155.8-31.5,11.2-2.5,20.6-4.4,20.8-4.2.2.3-2,1-4.9,1.7-12.4,3.2-73,20.8-93.2,27.1-33,10.4-35.5,11.2-35,11.9.2.4-16.6,5.8-37.3,12-41,12.2-102.1,32.4-95.7,31.5,5.8-.8,49.7-10.6,73-16.3,45.4-11.1,78.5-19.8,131-34.6,14.3-4,27.6-7.5,29.5-7.9,3.5-.6,3.4-.6-.5.8-2.2.8-12.1,3.9-22,6.9-58,17.7-135.2,43.9-184.8,62.7-7.6,2.9-13.6,5.4-13.4,5.6s8.4-1.7,18.3-4.2c41.9-10.5,94.2-25.3,144.1-40.8,11.7-3.6,21.6-6.6,22-6.5.9,0-.2.5-39.2,14.9-35.8,13.3-78.3,29.8-106.5,41.3-30.4,12.4-60,25-59.6,25.5.4.3,17.3-4.5,40.6-11.4,23.2-6.9,67.3-21.1,98.5-31.5,17.6-5.9,32.1-10.6,32.3-10.5.1.2-4.6,2.2-10.5,4.6-50.1,19.9-170.3,72.7-174,76.4-1.4,1.4,48.5-15.4,85.2-28.7,9.9-3.6,26.3-9.5,36.5-13,10.2-3.6,22.9-8.1,28.4-10.1,10.9-4,11-4,10.1-2.6-.3.5,1.3.2,3.7-.6,2.4-.9,11.1-3.9,19.3-6.9,28.8-10.1,102.2-38.6,124.9-48.4,2.7-1.2,5-2,5.2-1.8s-7.4,3.9-16.9,8.2c-41.8,19-101.7,48.5-133.2,65.6-8.2,4.4-26.9,14.4-41.5,22.1-29.7,15.8-69,37.4-70.5,38.9-4.1,4,133.1-56.2,166.7-73.2,9.3-4.7,7.9-2.8-2.2,3-4.9,2.9-9,5.4-9,5.6,0,1,33.6-14.4,71.5-32.7,16.5-8,40.4-19.4,53-25.4,12.7-6,38-18.4,56.3-27.5,18.4-9.2,33-16.3,32.5-15.9-.4.5-9.8,5.9-20.8,12.1-54.4,30.6-115.9,68.1-145.5,88.9-3.6,2.5-13.5,8.8-22,14-37.7,22.8-95.1,59.8-99,63.7-5.9,6.1,84.9-46,148.5-85,36.3-22.3,53.3-32.3,51-30-.5.6-10.4,7.2-22,14.8-20,13.1-46.9,31.6-49,33.8-2.9,2.9,36.8-20.4,63-37.1,21.6-13.7,52.1-34.2,66-44.2,6.6-4.8,19.2-13.1,27.9-18.4,21.8-13.3,55.1-34.3,72.9-45.9,8.1-5.3,14.7-9.5,14.7-9.3s-4.4,3.7-9.7,7.7c-5.4,4-20,15.2-32.4,24.9-25.2,19.4-53.9,39.6-78.9,55.3-68.9,43.2-181.2,123.6-247.3,177-13.2,10.7-17.2,14.3-13.5,12.1,19.5-11.6,116.5-76.7,130.6-87.7.6-.5,1.2-.7,1.2-.5,0,.3-3.8,3.5-8.5,7.2s-8.5,7-8.5,7.2,4-2.2,8.9-5.5,9.5-6.2,10.3-6.3c1.9-.4,20.2-12.6,36.8-24.6,19.4-14,17.8-12.9,16-11-.8.8-8.2,6.9-16.5,13.4-80.7,63.5-175,143.6-238.4,202.2-5.4,5-2.4,3.1,16.9-10.7,49.8-35.6,101.8-75.1,167.5-127.4,32.8-26.1,32.7-25.8-4.7,8-38.1,34.5-69.1,63.7-98.3,92.7-27.8,27.6-27.8,27.9.4,5.8,18.5-14.5,29.5-23.4,64.6-52.2,10.5-8.6,23.7-19.4,29.5-24,20.4-16.4,51.8-42.7,78.9-65.9,15-13,28.3-24.3,29.5-25.1,3.1-2.2-27.3,29.8-61.4,64.5-35.4,36-41.6,42.6-37.5,39.7,1.7-1.1,4.6-3.6,6.4-5.6,1.9-2,3.9-3.6,4.5-3.6s-1,2-3.4,4.5c-9.4,9.6-2.6,4.5,16.5-12.3,21.9-19.3,21.5-18.8-12,17.5-35.8,38.8-80.1,89-100.5,113.9-6,7.4-6.2,7.6-2,4,25.2-22,111.6-107,166.9-164.1l24.3-25-18.4,21.5c-45.9,53.6-91.1,109.2-116.2,142.5l-9.8,13,20.9-21c11.4-11.6,29.8-30.7,40.7-42.5,20.2-21.9,26.8-28.7,25-26-.6.8-3.9,5.2-7.3,9.8-3.5,4.6-6.1,8.5-5.9,8.7.4.4,28.8-29.9,50-53.5,22.8-25.3,55.1-62.6,79.5-91.7,10.8-12.8,19.7-23.3,20-23.3.2,0-4.1,5.5-9.5,12.2-26.8,33.3-80.8,104.3-111.3,146.3-27.4,37.7-69.9,99.2-69.9,101,0,.4,3.4-3.3,7.6-8.2,11.2-13,11.4-12.9,2.7.2-10.8,16.3-15.4,23.5-14.8,23.5,2.1,0,66.4-80.8,98-123,5.9-8,11.3-15,11.8-15.5,1.2-1.1,1.1-1-11.3,18.5-11.2,17.6-13.3,21-12.7,21,1.3,0,36.6-45.7,56.7-73.5,14.8-20.5,18.7-25,9-10.5-21.1,31.5-92.8,151-90.6,151,.4,0,18.9-24.6,29.5-39.3,3.5-4.8,6.6-8.7,6.8-8.7.3,0-.1,1-.9,2.3-11.5,17.6-66.3,113.6-75.8,132.7-3.6,7.2-.3,3.1,16.5-21,27.5-39.3,64.3-95.4,96.5-147,8.4-13.5,15.7-25,16.3-25.5.6-.6.1.6-1,2.5-8.3,14-36.6,68.7-34.5,66.5,5.9-6.1,52-81.1,79.1-128.6,8.3-14.5,15.5-27.1,16.1-27.9.5-.8-5.9,12.4-14.4,29.5-8.4,17-19.7,40.2-25.1,51.5s-19.3,40.1-31,64-23.9,49.1-27,56c-10.8,23.5-19.5,43.3-19.2,43.6s5.7-8.4,16.6-27.1c3.9-6.6,7.1-11.7,7.1-11.4,0,.4-1.2,3.3-2.6,6.5-6.7,15-5.5,13.8,5.4-5.4,16.6-29.3,28.5-51.6,49.5-92.7,11.5-22.6,20.6-40.3,20.4-39.5-.3.8-3.1,7.5-6.1,14.9-3.1,7.4-5.5,13.5-5.3,13.7.3.3,15.4-26.9,19.1-34.4.9-1.7,1.8-3.2,2-3.2s-4.3,10.9-10.1,24.2c-23.3,53.7-52.1,125.4-50.9,126.5.3.3,2.5-3.5,5-8.3,4.8-9.6,11.1-20.8,10.3-18.4-.3.8-4.5,11.6-9.3,24-11.3,29.3-23.5,63.2-22.9,63.8.4.5,27.1-53.4,33-66.6,1.5-3.4,3-6.1,3.2-5.9s-1.5,5.2-3.7,11c-15.4,41.1-41.6,116.4-40.8,117.3.5.4,18.8-38.7,30.9-65.8,19.8-44.5,45.9-106.7,67-160.1,10.8-27.3,14.9-35.9,9.4-19.7-1.4,4-2.3,7.5-2.1,7.7s2.8-5.2,5.7-12.1,5.4-12.4,5.5-12.3-6.4,20-14.5,44.2c-19.8,59.5-34,105-48.1,154-6.9,23.8-14,50.8-13.6,51.2.1.2,4.5-10.2,9.7-23.1s9.5-23.3,9.7-23.2c.1.2-.9,4.5-2.3,9.6-1.3,5.2-2.1,8.9-1.6,8.4.9-.9,13.9-34.1,22.8-57.9,4.6-12.4,5.9-15.1,4.8-10-2.5,11.6,14.7-36.4,28-78.5,5.3-16.8,16.1-50.1,24-74,7.8-23.9,16.8-51.9,20-62.2,3.2-10.4,6-18.6,6.2-18.4.2.1-3,12.4-7.1,27.2-21.1,76-46,177.1-60.6,246.4-6.4,30.3-12,59-11.9,61,.3,5.9,34.9-109.5,53.9-180,8.1-30.1,12.8-45.8,12.9-43.2.1.7-1,5.7-2.3,11-8.6,33.8-25.5,118.1-24.3,121.5.3,1,7-23.4,12.6-45.8,8.5-34,19.4-85.4,24.6-115,1.4-8.3,2.8-16.4,3.1-18,.4-2.3.3-2.6-.5-1.5-2,2.8-1.2-.8,5.8-26.3,3.8-13.9,7.5-27.6,8.2-30.4,2.6-10.5,1.9-4-1.5,14.8-6.1,33.4-13.7,82.5-13.5,87.2.1,1.3.6.3,1.4-2.3.7-2.5,1.3-4.2,1.4-3.8s-1.9,12.6-4.3,27c-11.8,70.5-20.5,130.7-26.1,182.3-1.4,12.6.8,4.4,9.4-34.5,12.9-58.8,30.4-154.7,39.2-215.2,1.2-8.7,2.4-15.6,2.6-15.4.3.2-1.2,13.4-3.1,29.3-9.2,74.5-18.1,165.5-21.5,221.8-.6,9.3-1.3,20.4-1.7,24.5-.3,4.1-.3,7.2.1,6.9.3-.4,2.4-10.5,4.5-22.5,2.2-12.1,4.2-22.4,4.4-22.9.2-.6.2,5.1,0,12.5s-.2,13,0,12.5c1.6-3.4,17.9-108,22.7-145.7.7-5.4,1.4-9.6,1.6-9.4s-.3,10.9-1.1,23.7c-2.7,42.3-4.8,105.6-3.5,104.1,1.9-2,11.9-93.4,15.9-144.7,3.5-45.2,3.7-44.6,3.9,10.4,0,28.3.3,51.2.6,50.9s1.4-9.4,2.6-20.4c1.1-10.9,2.2-20.4,2.4-20.9.2-.6.1,11.6-.1,27-.3,15.4-.1,30.9.4,34.5.8,6.4.9,6.2,1.7-8,.7-11.6,1-13.6,1.6-10,.4,2.5.8,9.7.9,16s.5,13.7.9,16.5c.6,4.7.7,4.5,1.4-4.5,3.1-39.8,5.2-83.1,6.7-139.4.6-20.3,1.2-37.1,1.3-37.3.2-.2.7,10.2,1,22.9.9,31.4,6.7,148,9.2,186.8,1.4,20,4.4,58.2,6.3,77.5l.6,7,.7-5c.4-2.8,1-26.6,1.4-53,1-64.6-1.4-174.3-5.5-249.5-.6-10.2-1.2-23.2-1.5-29l-.4-10.5.9,9c.6,4.9,2.1,22.5,3.5,39,5.5,64.5,15,152.2,22.6,208.5,5,37.4,10.7,75.1,11.4,75.9.6.6.1-18.5-1.6-54.8-.5-11.8-.8-21.5-.6-21.7s2.1,10.3,4.2,23.4c2.1,13,4.2,24.4,4.7,25.2.7,1.2.8,1,.4-.5-.9-4-1.5-38.1-.6-35,2.7,9-4.1-73.8-9.1-110.9-1.8-13.7-.4-9.2,3,9.2,1.8,9.7,4.1,21.5,5.2,26.2l1.9,8.5-.4-9.5-.4-9.5,1.4,7.5c.8,4.1,4.4,23.9,8,44,10.9,60.4,32,162.9,34,164.9.3.3.3-1.7-.1-4.4-.3-2.8-1.7-16.3-3.1-30-3.4-33.6-11.2-95.6-17-134.9l-.4-3.1,1.5,3.5c1.5,3.4,1.5,3.5,1.1.5-.3-1.7-.8-5.7-1.1-9-1.3-12.7-6.8-50.2-11.5-79-2.7-16.5-5.2-31.6-5.5-33.5s3,10.6,7.4,27.9c10.3,40.4,11.3,42,6.1,10.1-1.7-10.1-2.9-18.8-2.8-19.2.2-.5,1.8,5.7,3.6,13.9,5.4,24.2,22.4,92.5,31.2,125.3,11.2,42.2,26.7,95.2,26.9,92.4.4-5-18.4-100.9-29.9-152.3-3.8-17.3-6.9-31.6-6.7-31.7.2-.2,1.6,3.9,3.1,9.2,1.6,5.2,3.1,9.2,3.3,9,.3-.3-.9-7.1-2.7-15.1-1.7-8.1-3-14.9-2.8-15.1s2.1,4.9,4.2,11.2c2.1,6.4,4,11.4,4.2,11.2.6-.7-10.3-48.7-18.1-79.3-7.6-29.8-18.7-70.5-25-91.2-2.5-8.3-3.2-12-2.5-12.7.8-.8.9-.5.4.9-.4,1.1-.3,1.7.1,1.2.5-.4,4.8,10.4,9.5,24,10.8,30.6,17.7,49.2,19.4,51.8.7,1.1,7.3,20,14.6,42,19.8,59.7,40.9,119.6,58,165,10.8,28.8,29.2,74.6,29.7,74.1s-4.7-20-13.9-52.1c-30-105.2-80.7-254.8-118.5-350-8.2-20.5-27.7-77.4-26.9-78.2.1-.2,3.3,7,7.1,16,3.8,8.9,12.2,28.3,18.8,43.2,6.5,14.8,16.8,38.7,22.7,53,32.3,77.7,61.1,143.6,88.2,202,20.3,43.8,67.8,140.8,68.6,140.1.5-.6-10.8-31.8-24-66.1-20.2-52.6-46.4-116.2-79.6-193-15.6-36.2-22.1-51-46.4-106.5-12.8-29.2-34.2-76.3-45.2-99.5-3.7-7.7-6.3-13.5-5.8-13,.5.6,7.4,11.6,15.3,24.5s20.4,33.3,27.8,45.2c7.5,12,19.3,32.4,26.3,45.5,22.3,42,70.6,127.4,95.3,168.8,28.1,46.8,65.2,105.1,66.3,104.1.2-.3-.8-2.6-2.3-5.1-3.1-5.3-2.8-7.2.4-2.3,4.8,7.6,1.4.2-10.6-22.5-21-40.3-45.3-83.9-71.1-127.7-15.6-26.6-15.7-27-1.8-7.3,8.3,11.8,12,16,7.8,9-3.8-6.4-10.5-19.2-9.5-18.2.6.5,5.2,6.8,10.2,13.8,14,19.6,28.2,38.7,28.8,38.7.2,0-1-2.6-2.8-5.8-19.7-35-38.4-66.3-65.7-110.2-.9-1.4-1.3-2.3-1-2,.4.3,10.1,14.7,21.6,32,41.8,62.9,80.6,117.1,121.1,169.2,7.9,10.3,14.6,18.6,14.8,18.4.8-.8-28.6-47.1-51.1-80.6-16-23.8-15.2-22.5-13.6-21.5s2.5,2.6-10.7-18.3c-5.6-8.9-10.1-16.2-9.9-16.2s5.8,6.9,12.4,15.2c12.3,15.7,16.3,20.4,43.7,52.4,18.9,22.1,21.9,25.4,20.9,23.4-.4-.8-8-12.3-16.9-25.5-21.2-31.5-43.9-63.6-71.7-101.3-7.5-10.1-2.8-5,12.8,14,36.2,44.1,82.4,98.4,116.9,137.3,19.7,22.2,59.5,65.5,60.2,65.5,2.3,0-59.7-82.1-103.6-137-18.4-22.9-20.6-25.9-15.5-20.5,47.1,50,66.3,69.5,60.9,62-18.3-25.5-63.1-79.8-131.9-160-3.3-3.9-6.9-8.1-8-9.5-1.2-1.3,5.6,5,14.9,14,9.4,9.1,21.8,20.8,27.5,26s25.7,24.6,44.5,43c32,31.5,66.3,64,73,69.2,3.1,2.3-.9-2.7-14.5-18.2-3.6-4.1-9.8-11.4-13.8-16.2-8.9-10.7-25.2-28.6-39.4-43.5-6-6.1-10.8-11.4-10.8-11.8s4.8,3.8,10.8,9.3c19.1,17.8,44.2,39.8,44.2,38.8s-27.5-30.8-51.2-55.6c-11.8-12.4-42.1-42.8-67.3-67.5-25.2-24.8-62.5-61.6-82.9-81.9l-37.1-36.8,20.5,17.4c11.3,9.6,30.2,25.5,42,35.3,11.8,9.9,26.2,22.3,32,27.5,57.4,52.3,137.5,119.7,186.5,156.9,8.3,6.3,15.7,11.9,16.5,12.5,3.5,2.4-8.9-9.9-28-27.7-26.7-25-31.2-29.4-27.5-26.9,1.7,1.2,15.8,11.7,31.5,23.4,26.6,19.9,50.5,37.3,54,39.3,3.3,1.9-28.3-27.2-56.5-51.9-22.5-19.8-22.9-20.2-12.5-13.1,4.7,3.2,7.8,5,7,4-4.5-5.4-62.2-54.6-103-87.7-11.3-9.1-30.4-24.8-42.5-34.8-12.1-10.1-33.5-27.5-47.5-38.8-36.9-29.7-36.7-30,1-2.2,88.4,65.3,193.4,137.4,279.4,191.9,15.1,9.6,60.6,37.6,67.9,41.8.4.2.7.2.7-.1,0-.9-29.3-23.7-62.6-48.6-18.7-14-35.4-26.5-37-27.8l-2.9-2.3,4,2.2c2.2,1.2,3.6,1.8,3,1.2-4.6-4.8-64.6-48.1-101.5-73.4-32.8-22.4-32.6-22.2-5-6.1,26.6,15.4,26.4,14.6-1-4.4-19.7-13.7-33.3-22.6-60.5-39.9-15.7-9.9-60.7-40.5-63-42.8-.9-.9,17.8,8.7,20,10.3s42.3,22,43.1,22c2.6,0-46.5-31.4-89.6-57.2-17.3-10.5-31.7-19.2-32-19.5-1.6-1.7,13.3,6.7,32.5,18.2,22.7,13.6,54.8,31.7,83.2,46.9,19.7,10.4,75.3,38.3,84.3,42.1,3.6,1.5,19.8,8.9,36,16.3,32.2,14.7,37.8,17.2,38.8,17.2,2,0-44.9-26.7-76.3-43.5-13.2-7-25.3-13.8-27-15.1-3.7-2.8-36.4-21.1-59-33.1-32.5-17.3-94.1-47.6-142.2-70.1-9-4.1-16.2-7.7-16-7.8.2-.2,12.9,4.8,28.3,11,19.4,7.9,39.3,17,65.4,30.1,84.9,42.5,187.6,89.1,282,128,39.2,16.1,92.9,36.9,93.6,36.2.6-.6-41.1-22.1-73.6-38-47.4-23.2-111.8-53.2-156.3-72.7-5.3-2.4-9.6-4.5-9.3-4.7.2-.2,4.8,1.4,10.3,3.6,11.6,4.6,28.2,10.5,36.8,13.1,3.3,1,20.1,7,37.3,13.4,49.9,18.5,125.2,44.4,125.2,43,0-1.5-86.1-39.6-133.2-59-9.2-3.7-16.6-6.9-16.5-7.1.2-.1,8.2,2.2,17.8,5.3,13.7,4.3,41.4,12.6,63.4,19,5.6,1.7-1.7-2-16.2-8.2-8.9-3.7-16.1-6.9-16-7.1.2-.1,2.5.4,5.2,1.2,2.6.8,5,1.3,5.2,1.1.7-.6-42.9-17.6-68.2-26.6-12.6-4.5-37.8-13.8-56-20.6-18.1-6.9-43-16.2-55.2-20.6-12.3-4.5-22.2-8.3-22-8.4.1-.2,16.1,4.4,35.4,10.1,30,8.9,59.1,17.1,111.3,31.5,56.3,15.6,175.2,44.8,178.2,43.8,2.8-1-147.1-51.2-170-57-2.3-.6-4.1-1.2-3.9-1.5.3-.2,5.1.7,10.8,2.1,61.3,14.8,116.5,26.8,167,36.6,29.7,5.7,34.8,6.6,33.8,5.6-.3-.3-12.8-4.3-27.9-9-104-32-252.3-69.6-374-94.6-5.8-1.2-23.5-5.3-39.5-9-29.7-7-69-15.6-85-18.5-12.7-2.3-22.7-4.6-22.2-5.1.2-.2,16.3,2.8,35.8,6.6,19.5,3.9,54.8,10.4,78.4,14.6,23.7,4.1,52,9.3,63,11.4,25.2,4.9,36.4,6.9,70,12.5,14.9,2.4,42.8,7.1,62,10.4,61.2,10.4,108.1,17.6,164.2,25,32.2,4.3,85.4,10.3,86,9.8.4-.4-12.8-3.6-36.2-8.8-10.3-2.3-14.2-3.5-12.5-3.9,2-.5,1.5-.8-3-1.8-3-.6-14.7-3.1-26-5.6-50.9-11-102.3-20.7-167.5-31.5-34.5-5.7-52.1-8.5-119.5-18.6-34.9-5.3-52.3-8.2-49.8-8.4.9,0,9.5.6,19,1.4s25.9,1.9,36.3,2.5c10.5.6,26,1.9,34.5,3,54.3,6.8,136.2,14.4,193,18,24.7,1.5,56.6,3,62.4,2.9l5.1-.1-7.5-1.4c-46-8.5-154-20.6-250.5-27.9-32.4-2.5-47-4.1-40-4.4,1.7,0,9.5.4,17.5.9,64,4.2,199,7.6,199,5,0-.7,21.3-1,61.8-1.1,33.9-.1,65.1-.5,69.2-.9s6.4-.8,5-.8c-1.4-.1-11-1.1-21.5-2.2-20.7-2.1-58.2-5.2-85-7.1-9.3-.6-20.8-1.5-25.5-1.9l-8.5-.7,11-.2c23.1-.2,79.1-2.4,80.3-3.1,1.5-.7-4.3-1.2-41.8-3.5-69.3-4.1-174.9-5.1-315-3-59.6.9-71.1.8-98-.7-16.8-.9-37.5-2.1-46-2.5l-15.5-.8,23-1.2c13.5-.8,32-1,45-.7,36,1,192.1-3.8,250-7.7,26.4-1.7,52.9-4.1,57.5-5,6.3-1.3,9.1-1.6,38.5-4,29.6-2.3,71.5-6.6,72.3-7.4.3-.3-11.1-.5-25.4-.5-45.5,0-116.5,2.8-185.9,7.5-19.8,1.3-42.1,2.6-49.5,2.8l-13.5.5,11-1.3c6.1-.7,21.6-2,34.5-2.9,58.7-4.1,115.5-9.8,150.5-15.1l16-2.4-24.5.6c-13.5.3-28.8.5-34,.4-19.5-.4-93.1,3.9-152.8,8.9-12.9,1.1-24.4,1.9-25.5,1.9-4.5-.3,8.5-1.8,28.8-3.3,78.5-6,162.2-16.2,238.6-29.2,30-5.1,36.5-6.6,24.9-5.9-15.9,1-60.2,4.8-75.2,6.4-8.6.9-15.5,1.4-15.2,1,.2-.3,2.5-.9,5.1-1.3,15.4-2,97.8-18.5,96.9-19.3-1.8-1.8-134.5,13.2-187.5,21.2-5.7.8-10.6,1.4-10.8,1.2s5.2-1.6,11.9-3.1c6.8-1.4,18.4-4.2,25.8-6.1s21.4-5.3,31-7.4c26.7-5.9,49.5-11.3,49.9-11.7,3.1-2.9-96.3,14.1-143.9,24.7-7.4,1.7-20.2,4.1-28.5,5.5-8.2,1.4-23.6,4-34.1,5.9-26.9,4.9-26.2,4.2,1.6-1.5,12.9-2.6,30.7-6.4,39.5-8.4,8.8-2.1,22.3-5.1,30-6.7,31.4-6.7,38.1-8.3,63.9-14.6,14.8-3.7,26.4-6.9,25.8-7.1-3-1-70.9,12.2-104.7,20.3-8.2,2-25.3,5.9-38,8.6-28.1,6-68.8,16-68.1,16.6.2.3,6.4-.5,13.6-1.7,21.5-3.6,15.6-1.8-9.3,2.9-44.7,8.4-118.3,24.7-112.7,25,.8,0,6.2-.6,12-1.4,11.8-1.5,14.3-1.3,4.9.6-3.6.7-5.6,1.5-4.6,1.8.9.3-12.8,2.6-30.3,5.1-17.6,2.5-31.6,4.2-31.2,3.9,1-.8,11.1-3.7,34.2-9.9,10.7-2.8,26.9-7.4,36-10,9.1-2.7,29.3-8,45-11.9,15.7-3.8,40.4-10.4,55-14.6,14.6-4.1,36.6-9.8,49-12.6,50.2-11.3,137.6-33.9,195-50.5,40.6-11.7,101.8-30.9,103.4-32.4,2.2-2.1-91.7,18.9-134.9,30.1-11.6,3-15,3.2-6.5.4,2.8-.9,4.9-1.9,4.7-2.2-.6-.6-30.6,6.3-55.6,12.8-10.6,2.8-19.5,4.8-19.7,4.6-.3-.2,2.3-1.2,5.7-2.1,11-3.1,63.7-20.6,95.9-31.8,45.2-15.7,89-32.3,80.5-30.4-20.7,4.7-66.8,17.2-123.5,33.4-17.3,5-39.8,11.4-50,14.2s-30.4,8.8-45,13.2c-34.7,10.5-46.3,13.8-46.7,13.4-.2-.2,4.5-2.3,10.4-4.6,6-2.4,21.6-9,34.8-14.7s34.8-14.5,48-19.5c41.3-15.6,94.2-37.4,93.2-38.4-1.4-1.4-91.2,30.7-126.7,45.3-12.8,5.3-54,19.6-54.7,19-.1-.2,10.9-4.7,24.5-10.1,25.8-10.3,72.5-30.6,71.9-31.3-.3-.2-4.1,1-8.6,2.6-4.4,1.6-8.1,2.8-8.1,2.5,0-.2,4.3-2.4,9.5-4.9,5.2-2.4,9.5-4.6,9.5-4.9,0-.5-16.7,5.1-32.4,10.8-5.4,2-10.1,3.6-10.5,3.6-.3-.1,10.7-5.7,24.4-12.5,13.8-6.9,23.9-12.2,22.5-12-1.4.3,1.8-1.7,7-4.4,5.2-2.8,9.2-5,8.9-5-2.2-.2-54.8,21.8-79.9,33.4-8,3.7-24.6,11.1-37,16.5s-26,11.4-30.4,13.4c-4.3,2-8.1,3.6-8.5,3.6-.3,0,9.3-5.2,21.4-11.4,12.1-6.3,29.4-15.5,38.5-20.5s27.3-14.4,40.5-20.8c56.9-27.7,146.5-74.6,145.1-76.1-.7-.6-51.3,21.6-86.1,37.8-31.2,14.6-108.5,53.6-135,68.1-22.2,12.2-37.4,19.8-43.5,22-3.7,1.3-1.5-.1,14.9-9.1,7.9-4.4,17.6-10,21.5-12.6,3.9-2.5,16.1-9.5,27.1-15.6,30.2-16.6,83.6-48,87-51,1.5-1.4-3.4.6-11.5,4.7-4,2-7.4,3.5-7.6,3.3s8.5-5.7,19.4-12.3c21.8-13.2,57.2-35.4,57.2-36,0-.5-9.1,3.5-21.2,9.5-9,4.4-10.5,4.5-4.2.2,1.1-.6-3.2,1.3-9.5,4.4-6.2,3-11.4,5.4-11.6,5.2s6.5-4.7,14.8-10c21.5-13.7,21.6-14.2.7-3.5-39.7,20.3-102.1,56.6-141.1,82.2-19.5,12.8-24.5,15.9-53.4,33-38.4,22.7-76.5,46.7-75.8,47.8.3.6.1.7-.5.3-.7-.4-1.2-.3-1.2.2,0,.8-14.9,8.2-20,9.9-.8.3,8.2-5.3,20-12.4,75.6-45.6,158-98.6,217.5-140,28.7-19.9,51.3-36.3,50.3-36.3-.6,0-31,16.7-39.5,21.7-6.2,3.6-5.3,2.2,1.5-2.2,9.4-6.3,42.2-29.6,42.2-30.1,0-.6-5.1,2.4-23.5,13.5-25.4,15.3-56,35.4-82.5,54.2-12,8.4-36,23.5-36,22.6,0-.2,3.5-2.8,7.8-5.8,20.7-14.3,69.2-50.3,69.2-51.5,0-.3-1.7.5-3.7,1.7-10.3,6.2-32.8,20.2-40.5,25.2-4.9,3.1-8.8,5.5-8.8,5.3s5.1-4.1,11.3-8.6c19.7-14.5,69.4-52.7,94.7-72.9,25.7-20.4,58-47,58-47.6,0-.5-16.6,9.9-25.2,15.7-3.2,2.1-5.8,3.7-5.8,3.5,0-.3,5.5-5.1,12.3-10.7,13.5-11.4,16.2-13.8,13.7-12.5-.8.5-12.1,7.9-25,16.6-44.5,29.7-111.3,78.6-174,127.1-14,10.9-38.1,29.2-53.5,40.7-15.4,11.6-33.3,25-39.7,29.8s-20.8,15.5-32,23.8c-11.1,8.2-27.3,20.4-35.8,27.1-17.1,13.2-20,15.2-15.5,10.6,7.1-7.2,38.8-36.1,39.5-35.9.4.1,3.6-2.1,7.1-4.8,3.5-2.8,6.7-4.9,7.2-4.7.9.3,20.3-14.3,36.2-27.3,5.5-4.4,13.3-10.3,17.3-12.9,17.7-11.7,77.5-57.6,121.7-93.5,55.5-45.1,121.9-102.4,148.5-128,7.5-7.3,7.9-7.9,3.5-4.9-8.3,5.6-59.8,44.4-80.5,60.8-22.7,17.9-49.5,39.6-73.5,59.5-9.3,7.8-19.2,15.6-22,17.5-5.8,3.8-5.3,3.3,12.5-13.1,22.2-20.4,58.1-55.1,57.6-55.6-.3-.3-10.5,7.5-22.8,17.3-12.2,9.9-23.2,18.6-24.3,19.4s6.6-7,17-17.4c20-19.8,20.6-20.8,6-8.7-4.9,4.1-9.9,8.1-11,9-1.1.8,4.5-5.2,12.5-13.4,8-8.3,15.9-16.6,17.5-18.5,2.6-2.9,2.1-2.7-3,1.5-3.3,2.7-8.7,7.2-12,10-3.3,2.7-6.9,5.7-8,6.5s14.2-15,34-35c41-41.5,82-85,80.1-85-1.5,0-48.5,41.8-82.6,73.5-47.7,44.4-127.9,123.5-157.2,155-6.8,7.3-12.5,13.1-12.7,12.9-.4-.3,13.5-16.1,37.8-42.9,15.5-17.1,39.8-44.9,50.6-58,5.1-6.2,3.7-5.4-4.9,2.5-2.7,2.5-4.1,3.4-3,2,3.5-4.6,32.6-39.2,50.9-60.5,33.8-39.3,79.1-94.3,98-119l6.9-9-8.5,8.1c-29.8,28.8-68.2,68.7-125.3,130.4-8,8.6-7.1,7.1,2.9-5,23.3-28,54.1-67.1,76.2-96.6,19.1-25.4,21.2-28.7,13.1-20.2-49.6,52.3-111.1,124.5-193,226.5-7.1,9-13.2,16.3-13.5,16.3s-.1-.6.4-1.3c3.3-4.1,15.5-21,18.2-25.2l3.2-5-4.7,5c-6,6.4-5.5,5.6,9.1-15.5,11.7-16.8,37.2-54.9,39-58,1.3-2.4-1.1.2-11.5,12.5-9.1,10.8-12.5,14.6-10.4,11.5.6-.8,6.3-8.7,12.6-17.5,33.7-47,74.6-106.6,100.8-146.8,16.8-25.8,41-64.4,41-65.3,0-.8-15.9,18.8-32.5,40.1-25.5,32.8-71.9,95.5-94.9,128.2-3.1,4.6-6,8.3-6.3,8.3s.2-1,1-2.3c4.1-6.4,15.2-24.7,22.2-36.7,4.3-7.4,8.6-15,9.7-16.8,1.1-1.7,1.7-3.2,1.4-3.2-1.1,0-43,56.9-58.1,79-4.3,6.3-8.3,11.9-8.8,12.5-.9.9,5.2-10.9,10.5-20.5l2-3.5-2.6,3c-1.4,1.6-7.8,10.3-14.2,19.2-6.4,9-11.8,16.3-12,16.3s1.9-3.7,4.8-8.3c22.3-35.3,62.5-105.7,61.1-107-.2-.3,5.4-11,12.5-23.9,26.1-47.1,59.8-111.5,58.9-112.4-1.9-2-94.2,146.7-122.1,196.8-7.8,14.1-4.1,5.8,10.8-24,21-42,46.2-95.2,45.1-95.2-.3,0-16.5,26-23.4,37.7-2.4,4-4.5,7.3-4.6,7.3-.2,0,5.3-12,12.2-26.8,19.2-40.8,45.7-101.1,45-101.9-.8-.7-43.8,75.1-59.7,104.9-3.4,6.5-6.4,11.8-6.6,11.8s.8-2.6,2.2-5.8c10.5-23.2,37.4-88.3,37.4-90.1,0-1.7-22.4,39.7-42,77.9-8.3,16.2-14.9,28.8-14.7,28,.3-.8,4-10,8.1-20.4,4.2-10.4,7.4-19.1,7.2-19.3-.6-.6-16,30.1-27.1,53.7-13.8,29.5-31.2,69.3-41,94.2-5.3,13.4-14.1,34.4-19.5,46.8s-12.4,28.6-15.5,36-14.6,31.7-25.4,54c-10.9,22.3-24,49.6-29.1,60.7-5.2,11.1-9.6,20.1-9.7,19.9-.4-.4,5.1-16.3,7.7-22.1,3.4-7.8,19.2-47.2,30.6-76.5,5.6-14.6,15.6-39.8,22.2-56,22.8-56.5,50.1-130.3,69.7-188,11.9-35.3,23.8-73.1,23.2-73.7-.5-.4-13.2,28-22.4,50-17.5,41.9-35.6,88.3-58.3,149.7-7,19-18.2,48.9-24.8,66.5s-13.3,35.8-15,40.5c-6.4,17.7-2.8,5,9.4-32.6,24.2-75.1,42.7-136.9,60.4-201.4,8.7-31.7,26.2-101.2,25.6-101.7-.8-.9-20.7,54.3-35.7,99-5.1,15.2-9.4,27.6-9.5,27.4-.1-.1,1.1-5.6,2.7-12.2,5.1-21.2,13.1-58.7,12.6-59.2-.6-.5-20.1,58.4-28.3,85.4-3.2,10.6-6,19.1-6.1,18.9-.2-.2,1.7-9.3,4.2-20.2,9.7-41.7,23.2-107,24.9-120.4l.6-4.5-1.5,4c-.9,2.2-4.5,13.9-8.1,25.9-3.5,12.1-6.7,22.2-7,22.5s-.3-.5,0-1.9c1.3-5.6,4.7-27.3,4.3-27.6-.4-.5-8.2,25.3-15.9,52.8-2.9,10.3-5.4,18.6-5.6,18.4-.1-.2.8-6.4,2.2-13.7,3.2-16.9,8.1-46,9.6-56.4.6-4.4,1.3-9.4,1.5-11q.5-2.9-.6-.5c-3,7.1-21.4,84.8-29.6,125.3-3.3,16.6-4.2,16.7-1.4.1,4.4-25.6,11.4-76.5,10.6-77.2-.2-.2-.7.6-1,1.9s-2.3,9.8-4.5,18.9c-6.7,28.2-20.3,93.9-22.6,109.5-.4,2.7-.9,4.5-1.1,3.9s1.6-15.3,4.1-32.5c11.6-80.8,21.1-161.9,26.1-221.9.8-10.2,1.7-20.6,1.9-23.3.3-2.6.3-4.7.1-4.7s-1,3-1.9,6.7ZM723.2,243.2c-.3.7-.5.2-.5-1.2s.2-1.9.5-1.3c.2.7.2,1.9,0,2.5ZM502.9,252.6c.3.8.2,1.2-.4.9s-1-1-1-1.6c0-1.4.7-1.1,1.4.7ZM706.2,287.7c-.3,1-.5.4-.5-1.2,0-1.7.2-2.4.5-1.8.2.7.2,2.1,0,3ZM705.2,292.2c-.3.8-.6.5-.6-.6-.1-1.1.2-1.7.5-1.3.3.3.4,1.2.1,1.9ZM711.2,309.2c-.3.8-.6.5-.6-.6-.1-1.1.2-1.7.5-1.3.3.3.4,1.2.1,1.9ZM710.2,314.2c-.3.8-.6.5-.6-.6-.1-1.1.2-1.7.5-1.3.3.3.4,1.2.1,1.9ZM688.5,400.8c-1.8,14.5-11.5,63-12.7,64.2-.7.7.2-5,5.2-31.5,2.4-12.7,5.3-29,6.6-36.2,1.2-7.3,2.4-13.1,2.6-12.9s-.5,7.6-1.7,16.4ZM599.2,401.2c-.3.8-.6.5-.6-.6-.1-1.1.2-1.7.5-1.3.3.3.4,1.2.1,1.9ZM803.5,407.4c0,.2-.8,1-1.7,1.7-1.6,1.3-1.7,1.2-.4-.4s2.1-2.1,2.1-1.3ZM772.5,447.4c0,.2-.8,1-1.7,1.7-1.6,1.3-1.7,1.2-.4-.4s2.1-2.1,2.1-1.3ZM766.1,455.7c-2,2.7-4.8,6.7-6.4,9.1-2.7,4.3-36.1,46.5-38.9,49.2-2,1.9,23.6-32,37.4-49.8,5.8-7.2,10.7-13.2,11-13.2s-1.1,2.1-3.1,4.7ZM803,456.8c-.6.5-4.1,3.7-8,7.2l-7,6.4,7.1-7.2c4-4,7.5-7.2,8-7.2.4,0,.4.4-.1.8ZM608.5,468.5c0,.5-.5.3-1-.5s-1-2-1-2.5c0-.6.5-.3,1,.5s1,1.9,1,2.5ZM546.5,493.4c10.4,9,65.6,62.4,62,59.9-10.4-7.1-25.8-19.3-45.5-36.2-32.6-27.9-36.7-31.6-25-22.4,17.5,13.9,28,21.9,29.5,22.7.8.4-6.8-7.5-17-17.5-10.2-10.1-17.8-17.9-17-17.4s6.7,5.4,13,10.9ZM228.2,496.6c-.3.3-1.2.4-1.9.1-.8-.3-.5-.6.6-.6,1.1-.1,1.7.2,1.3.5ZM878.8,565.7c-.7.2-2.1.2-3,0-1-.3-.4-.5,1.2-.5,1.7,0,2.4.2,1.8.5ZM454.3,576.7c-1.5.2-4.2.2-6,0s-.6-.4,2.7-.4,4.8.2,3.3.4ZM465.8,577.7c-1.3.2-3.5.2-5,0-1.6-.2-.5-.4,2.2-.4s4,.2,2.8.4ZM508,580.5c20,1.5,70.2,7.8,71.4,9.1.8.8-20.2-.8-21.9-1.6-1.6-.9-25.5-3.6-64.5-7.5-25.3-2.6-21.3-2.5,15,0ZM542.4,615.4c-1.6,1.7-39.8,8.8-45.6,8.5-1,0,8.3-2,20.7-4.3,23.5-4.5,25.6-4.9,24.9-4.2ZM853.2,618.6c-.3.3-1.2.4-1.9.1-.8-.3-.5-.6.6-.6,1.1-.1,1.7.2,1.3.5ZM493.8,624.7c-.7.2-2.1.2-3,0-1-.3-.4-.5,1.2-.5,1.7,0,2.4.2,1.8.5ZM487.8,625.7c-.7.2-1.9.2-2.5,0-.7-.3-.2-.5,1.2-.5s1.9.2,1.3.5ZM616.4,644.2c-.7,1.2-9.7,13.5-20,27.3-10.3,13.7-24.6,33.3-31.8,43.5-17.7,24.8-19,26.4-7.1,8,11.6-17.8,10.3-16.7-13.3,11.2-8.2,9.8-15.1,17.8-15.3,17.8-.1,0,9.7-12.5,21.9-27.8,12.2-15.2,28.3-35.6,35.7-45.3,13.6-17.8,30.2-37.9,30.8-37.4.2.2-.2,1.4-.9,2.7ZM634.1,669.2c-3.8,13.3-14.4,44.9-14.5,43.4-.1-.5,3.7-13.4,8.4-28.8,4.7-15.3,8.5-28.2,8.6-28.6,0-.4.3-.1.6.5.2.7-1.1,6.8-3.1,13.5ZM286.8,663.7c-.7.2-1.9.2-2.5,0-.7-.3-.2-.5,1.2-.5s1.9.2,1.3.5ZM587.3,706.2c-.8,1.3-5.9,10.6-11.3,20.8s-12,21.4-14.5,25c-2.6,3.6-8,11.6-12,17.7-3.9,6.2-7.4,11.3-7.7,11.3-.2,0,.4-1.5,1.5-3.3,1.1-1.7,4.4-7.5,7.3-12.7,6.3-11.3,36.9-61,37.6-61,.3,0-.1,1-.9,2.2ZM618.9,717.4c-.3,1.5-.8,2.5-1.1,2.3-.2-.3-.1-1.7.3-3.1.3-1.5.8-2.5,1.1-2.3.2.3.1,1.7-.3,3.1ZM977.5,729c.8.5,1.1,1,.5,1-.5,0-1.7-.5-2.5-1s-1-1-.5-1c.6,0,1.7.5,2.5,1ZM543.5,745.4c0,.2-.8,1-1.7,1.7-1.6,1.3-1.7,1.2-.4-.4s2.1-2.1,2.1-1.3ZM589,763.4c-2.4,7.5-4.9,14.4-5.5,15.4q-1.4,2.1,4.5-15.6c2.6-7.9,4.9-14.1,5.1-13.9s-1.6,6.5-4.1,14.1ZM528.5,753.3c0,.2-1,1.2-2.2,2.3l-2.3,1.9,1.9-2.3c1.8-2.1,2.6-2.7,2.6-1.9ZM523.5,759.3c0,.2-1,1.2-2.2,2.3l-2.3,1.9,1.9-2.3c1.8-2.1,2.6-2.7,2.6-1.9ZM519.5,764.3c0,.2-1,1.2-2.2,2.3l-2.3,1.9,1.9-2.3c1.8-2.1,2.6-2.7,2.6-1.9ZM515.5,769.3c0,.2-1.2,1.4-2.7,2.8l-2.8,2.4,2.4-2.8c2.3-2.5,3.1-3.2,3.1-2.4ZM666.2,806.2c-.2,1.3-.4.5-.4-1.7-.1-2.2.1-3.2.4-2.3.2,1,.2,2.8,0,4ZM588.2,883.2c-.3.8-.6.5-.6-.6-.1-1.1.2-1.7.5-1.3.3.3.4,1.2.1,1.9ZM289.1,96c.4.8,6.6,10.5,13.7,21.5,68.8,106.3,185.6,265.3,265.5,361.2,7.8,9.5,14.5,17.3,14.7,17.3.7,0-12.4-20.3-35-54.5-60.2-90.6-162.1-228.7-231.2-313.2-21-25.6-29.1-35.2-27.7-32.3ZM544.5,138.2c-.1,2.1,10.9,55.6,15.7,76.3,9.8,42.7,28.1,112.7,30,114.5,1.7,1.6-7.2-43.1-16.2-82-11-47.6-29.2-114.8-29.5-108.8ZM789.7,195.2c-15,38.3-40.6,114.8-38.9,116.4.9.9,21.2-53.8,30.9-83.1,6.1-18.7,14.8-47.8,14.4-48.3-.2-.2-3.1,6.6-6.4,15ZM791.9,259.7c-8.9,18.8-20,44.2-29.1,66.3-9.6,23.3-23.5,60.1-23,60.6.9.9,21.6-44.7,34.7-76.6,10.2-24.8,24.3-62,23.4-62-.2,0-3,5.3-6,11.7ZM200.5,388.6c33.4,18,102.9,50.7,155.5,73.1,25.6,10.9,62.6,25.6,63.1,25,1.1-1.1-68.2-35.1-113.6-55.7-38.2-17.3-109.2-47-112.4-47-.6,0,2.7,2.1,7.4,4.6ZM817,742.6c26.5,25.9,77.6,71.5,88,78.5,4.7,3.2-30-30.6-50.1-48.7-19.7-17.8-49.6-43.4-52.3-44.7-.9-.4,5.6,6.2,14.4,14.9ZM928,748.7c2.7,2.8,45.7,28.6,72.5,43.5,18.7,10.4,50.2,26.9,50.7,26.5.8-.9-30.5-20.1-61.2-37.5-21.4-12.2-64-34.5-62-32.5ZM750,773.5c3.6,8.5,28,57.1,40.1,79.5,23.4,43.4,49,87.4,50.4,86.5.5-.3,2.3,2,4,5,1.8,3.1,3.4,5.4,3.7,5.2.6-.6-19.9-41.5-32.2-64.2-16.7-30.9-63.2-111-66.7-115-.5-.6-.2.8.7,3ZM728.5,788c-.1,1.8,14.1,43,23.5,68,14.4,38.5,39.2,98.6,40.3,97.5.6-.6-9.1-29.4-19.8-58.5-15.1-41.2-43.7-110.8-44-107ZM787.5,874.1c0,2.2,20.4,48.2,34.4,77.4,9.7,20.1,30.8,60.7,31.3,60.1.6-.5-13.6-33.3-25.7-59.1-13.8-29.7-39.9-80.9-40-78.4Z"/>
  </g>
</svg>