<?xml version="1.0" encoding="UTF-8"?>
<svg id="Layer_2" data-name="Layer 2" xmlns="http://www.w3.org/2000/svg" viewBox="0 0 209.33 40.84">
  <g id="Layer_1-2" data-name="Layer 1">
    <g>
      <path d="M20.65,23.63h-12.13v17.21H0V0h26.72v8.52H8.52v7.88h12.13v7.23Z"/>
      <path d="M38.56,40.84h-8.63V0h8.63v40.84Z"/>
      <path d="M41.89,26.84v-15.34c0-1.44.28-2.85.85-4.23.56-1.38,1.34-2.61,2.33-3.68.99-1.07,2.14-1.93,3.44-2.6,1.3-.66,2.71-.99,4.23-.99h20.77v8.52h-17.68c-1.52,0-2.65.1-3.41.29-.76.2-1.28.54-1.58,1.05-.29.51-.44,1.19-.44,2.04v11.96l7.41,8.46h7.12l.06-9.28h-6.88v-8.52h17.04v8.52h-1.69v17.79h-19.37l-12.19-14Z"/>
      <path d="M86.58,40.84h-8.52V0h8.52v16.39h6.94l7.88,5.31V0h8.52v40.84h-8.52v-10.33l-10.09-6.88h-4.73v17.21Z"/>
      <path d="M131.73,40.84h-8.52V8.52h-10.38V0h29.35v8.52h-10.44v32.32Z"/>
      <path d="M165.63,23.63h-12.02v8.69h18.14v8.52h-26.66V0h26.66v8.52h-18.14v7.88h12.02v7.23Z"/>
      <path d="M174.09,8.52V0h29l5.25,10.03-8.63,8.4c1.44,1.05,2.64,2.34,3.62,3.88.97,1.54,1.81,3.2,2.51,4.99s1.31,3.65,1.84,5.57c.52,1.93,1.08,3.8,1.66,5.63l-8.23,2.33c-.47-1.01-.9-2.33-1.28-3.97-.39-1.63-.86-3.28-1.4-4.93-.54-1.65-1.22-3.16-2.01-4.52-.8-1.36-1.86-2.25-3.18-2.68l-6.88,6.65v9.45h-8.52l-.06-32.32h-3.68ZM186.34,19.6l11.32-11.08h-11.32v11.08Z"/>
    </g>
  </g>
</svg>