<?xml version="1.0" encoding="UTF-8"?>
<svg id="Layer_2" data-name="Layer 2" xmlns="http://www.w3.org/2000/svg" viewBox="0 0 237.45 40.84">
  <g id="Layer_1-2" data-name="Layer 1">
    <g>
      <path d="M0,40.84V0h8.52v32.32h20.89v8.52H0Z"/>
      <path d="M52.86,23.63h-12.02v8.69h18.14v8.52h-26.66V0h26.66v8.52h-18.14v7.88h12.02v7.23Z"/>
      <path d="M83.14,0h8.4c0,.97.03,1.92.09,2.86.06.93.09,1.91.09,2.92,0,1.21-.12,2.39-.35,3.56-.23,1.17-.52,2.31-.85,3.44-.33,1.13-.7,2.27-1.11,3.41-.41,1.15-.79,2.29-1.14,3.41l-3.91,12.78c.54,0,1.02,0,1.43-.03s.75-.03,1.02-.03v8.52h-5.31c-.82,0-1.66,0-2.54-.03-.88-.02-1.75-.09-2.62-.2-.88-.12-1.72-.3-2.54-.55-.82-.25-1.58-.61-2.28-1.08-1.32-.89-2.49-2.21-3.5-3.94-1.01-1.73-1.89-3.71-2.63-5.95-.74-2.24-1.35-4.61-1.84-7.12-.49-2.51-.88-4.99-1.17-7.44-.29-2.45-.5-4.75-.61-6.91-.12-2.16-.17-3.98-.17-5.46,0-.7.06-1.42.17-2.16h8.58c0,.89-.05,1.76-.15,2.6-.1.84-.15,1.68-.15,2.54,0,.7.07,1.78.2,3.24.14,1.46.32,3.11.55,4.96.23,1.85.53,3.76.88,5.75.35,1.98.74,3.84,1.17,5.57s.88,3.22,1.37,4.46c.49,1.25.98,2.06,1.49,2.45l7.47-23.92c0-1.52-.01-2.73-.03-3.65-.02-.91-.03-1.77-.03-2.57V0Z"/>
      <path d="M114.87,23.63h-12.02v8.69h18.14v8.52h-26.66V0h26.66v8.52h-18.14v7.88h12.02v7.23Z"/>
      <path d="M124.5,40.84V0h8.52v32.32h20.89v8.52h-29.4Z"/>
      <path d="M187.39,40.84c-2.84,0-5.35-.54-7.53-1.63-2.18-1.09-4.01-2.55-5.48-4.38-1.48-1.83-2.59-3.95-3.33-6.36-.74-2.41-1.11-4.94-1.11-7.58V0h8.46l.06,20.89c0,3,.56,5.46,1.69,7.41s2.74,3.19,4.84,3.73l7.99-5.72V0h8.52v40.84h-8.52v-4.03l-5.6,4.03Z"/>
      <path d="M203.55,8.52V0h29l4.9,9.22-10.68,20.94-11.03.06v10.62h-8.52l-.06-32.32h-3.62ZM215.74,21.7l5.83-.06,6.24-12.31-.47-.82h-11.61v13.19Z"/>
    </g>
  </g>
</svg>