<?xml version="1.0" encoding="UTF-8"?>
<svg id="Layer_2" data-name="Layer 2" xmlns="http://www.w3.org/2000/svg" viewBox="0 0 163.76 40.9">
  <g id="Layer_1-2" data-name="Layer 1">
    <g>
      <path d="M43.87,40.9h-8.52V13.65l-10.27,12.89,3.38,5.48-7.12,4.55-12.83-20.42v24.74H0V.06h8.52l11.78,18.84L35.36.06h8.52v40.84Z"/>
      <path d="M64.53,40.9c-2.84,0-5.35-.54-7.53-1.63-2.18-1.09-4.01-2.55-5.48-4.38-1.48-1.83-2.59-3.95-3.33-6.36-.74-2.41-1.11-4.94-1.11-7.58V.06h8.46l.06,20.89c0,3,.56,5.46,1.69,7.41s2.74,3.19,4.84,3.73l7.99-5.72V.06h8.52v40.84h-8.52v-4.03l-5.6,4.03Z"/>
      <path d="M81.56,16.69l.06-4.67c0-1.44.23-2.87.7-4.29s1.14-2.7,2.01-3.85c.88-1.15,1.94-2.07,3.21-2.77,1.26-.7,2.67-1.05,4.23-1.05h22v8.52c-3.5,0-6.97,0-10.41-.03-3.44-.02-6.89-.03-10.36-.03-1.01,0-1.73.29-2.16.88-.43.58-.7,1.28-.82,2.1l24.21,12.78-.12,4.67c-.04,1.52-.3,3-.79,4.43-.49,1.44-1.18,2.71-2.07,3.82-.9,1.11-1.99,2-3.3,2.68-1.3.68-2.77,1.02-4.41,1.02h-21.41v-8.52h5.19l10.33.06h5.19c.97,0,1.66-.29,2.07-.88.41-.58.67-1.28.79-2.1l-24.15-12.78Z"/>
      <path d="M126.07,40.9h-8.63V.06h8.63v40.84Z"/>
      <path d="M137.86,20.48c0,2.45.36,4.43,1.08,5.95.72,1.52,1.69,2.7,2.92,3.56,1.22.86,2.63,1.44,4.23,1.75s3.28.49,5.05.52c1.77.04,3.57.02,5.4-.06,1.83-.08,3.58-.1,5.25-.06v8.58c-2.37.12-4.71.17-7,.17-3.42,0-6.65-.23-9.68-.7-3.03-.47-5.7-1.43-7.99-2.89-2.3-1.46-4.13-3.53-5.51-6.21-1.38-2.68-2.13-6.22-2.25-10.62-.12-3.03.31-5.8,1.28-8.31.97-2.51,2.35-4.67,4.14-6.48s3.92-3.21,6.39-4.2c2.47-.99,5.14-1.49,8.02-1.49.51,0,1.02.02,1.55.06.52.04,1.06.1,1.6.17l11.43,5.6-3.85,7.58-9.68-4.73c-1.87-.19-3.56-.06-5.08.41-1.52.47-2.81,1.22-3.88,2.25-1.07,1.03-1.91,2.31-2.51,3.85-.6,1.54-.9,3.3-.9,5.28Z"/>
    </g>
  </g>
</svg>