<?xml version="1.0" encoding="UTF-8"?>
<svg id="Layer_2" data-name="Layer 2" xmlns="http://www.w3.org/2000/svg" viewBox="0 0 201.22 40.84">
  <g id="Layer_1-2" data-name="Layer 1">
    <g>
      <path d="M43.87,40.84h-8.52V13.59l-10.27,12.89,3.38,5.48-7.12,4.55-12.83-20.42v24.74H0V0h8.52l11.78,18.84L35.36,0h8.52v40.84Z"/>
      <path d="M56.01,40.84h-8.63V0h8.63v40.84Z"/>
      <path d="M59.22,16.63l.06-4.67c0-1.44.23-2.87.7-4.29s1.14-2.7,2.01-3.85c.88-1.15,1.94-2.07,3.21-2.77,1.26-.7,2.67-1.05,4.23-1.05h22v8.52c-3.5,0-6.97,0-10.41-.03-3.44-.02-6.89-.03-10.36-.03-1.01,0-1.73.29-2.16.88-.43.58-.7,1.28-.82,2.1l24.21,12.78-.12,4.67c-.04,1.52-.3,3-.79,4.43-.49,1.44-1.18,2.71-2.07,3.82-.9,1.11-1.99,2-3.3,2.68-1.3.68-2.77,1.02-4.41,1.02h-21.41v-8.52h5.19l10.33.06h5.19c.97,0,1.66-.29,2.07-.88.41-.58.67-1.28.79-2.1l-24.15-12.78Z"/>
      <path d="M94.22,16.63l.06-4.67c0-1.44.23-2.87.7-4.29s1.14-2.7,2.01-3.85c.88-1.15,1.94-2.07,3.21-2.77,1.26-.7,2.67-1.05,4.23-1.05h22v8.52c-3.5,0-6.97,0-10.41-.03-3.44-.02-6.89-.03-10.36-.03-1.01,0-1.73.29-2.16.88-.43.58-.7,1.28-.82,2.1l24.21,12.78-.12,4.67c-.04,1.52-.3,3-.79,4.43-.49,1.44-1.18,2.71-2.07,3.82-.9,1.11-1.99,2-3.3,2.68-1.3.68-2.77,1.02-4.41,1.02h-21.41v-8.52h5.19l10.33.06h5.19c.97,0,1.66-.29,2.07-.88.41-.58.67-1.28.79-2.1l-24.15-12.78Z"/>
      <path d="M138.73,40.84h-8.63V0h8.63v40.84Z"/>
      <path d="M142.23,40.84V0h8.52v32.32h20.89v8.52h-29.4Z"/>
      <path d="M195.09,23.63h-12.02v8.69h18.14v8.52h-26.66V0h26.66v8.52h-18.14v7.88h12.02v7.23Z"/>
    </g>
  </g>
</svg>