<?xml version="1.0" encoding="UTF-8"?>
<svg id="Layer_2" data-name="Layer 2" xmlns="http://www.w3.org/2000/svg" viewBox="0 0 319.71 42.12">
  <g id="Layer_1-2" data-name="Layer 1">
    <g>
      <path d="M43.87,41.42h-8.52V14.18l-10.27,12.89,3.38,5.48-7.12,4.55-12.83-20.42v24.74H0V.58h8.52l11.78,18.84L35.36.58h8.52v40.84Z"/>
      <path d="M56.01,41.42h-8.63V.58h8.63v40.84Z"/>
      <path d="M59.22,17.21l.06-4.67c0-1.44.23-2.87.7-4.29s1.14-2.7,2.01-3.85c.88-1.15,1.94-2.07,3.21-2.77,1.26-.7,2.67-1.05,4.23-1.05h22v8.52c-3.5,0-6.97,0-10.41-.03-3.44-.02-6.89-.03-10.36-.03-1.01,0-1.73.29-2.16.88-.43.58-.7,1.28-.82,2.1l24.21,12.78-.12,4.67c-.04,1.52-.3,3-.79,4.43-.49,1.44-1.18,2.71-2.07,3.82-.9,1.11-1.99,2-3.3,2.68-1.3.68-2.77,1.02-4.41,1.02h-21.41v-8.52h5.19l10.33.06h5.19c.97,0,1.66-.29,2.07-.88.41-.58.67-1.28.79-2.1l-24.15-12.78Z"/>
      <path d="M94.22,17.21l.06-4.67c0-1.44.23-2.87.7-4.29s1.14-2.7,2.01-3.85c.88-1.15,1.94-2.07,3.21-2.77,1.26-.7,2.67-1.05,4.23-1.05h22v8.52c-3.5,0-6.97,0-10.41-.03-3.44-.02-6.89-.03-10.36-.03-1.01,0-1.73.29-2.16.88-.43.58-.7,1.28-.82,2.1l24.21,12.78-.12,4.67c-.04,1.52-.3,3-.79,4.43-.49,1.44-1.18,2.71-2.07,3.82-.9,1.11-1.99,2-3.3,2.68-1.3.68-2.77,1.02-4.41,1.02h-21.41v-8.52h5.19l10.33.06h5.19c.97,0,1.66-.29,2.07-.88.41-.58.67-1.28.79-2.1l-24.15-12.78Z"/>
      <path d="M138.73,41.42h-8.63V.58h8.63v40.84Z"/>
      <path d="M142.23,41.42V.58h8.52v32.32h20.89v8.52h-29.4Z"/>
      <path d="M195.09,24.21h-12.02v8.69h18.14v8.52h-26.66V.58h26.66v8.52h-18.14v7.88h12.02v7.23Z"/>
      <path d="M216.97,9.1V.58h29l4.9,9.22-10.68,20.94-11.03.06v10.62h-8.52l-.06-32.32h-3.62ZM229.16,22.29l5.83-.06,6.24-12.31-.47-.82h-11.61v13.19Z"/>
      <path d="M286.75,22.17c0,2.65-.38,5.17-1.14,7.58-.76,2.41-1.87,4.53-3.33,6.36-1.46,1.83-3.28,3.29-5.45,4.38-2.18,1.09-4.71,1.63-7.58,1.63s-5.36-.54-7.55-1.63c-2.2-1.09-4.03-2.55-5.48-4.38-1.46-1.83-2.57-3.95-3.33-6.36-.76-2.41-1.14-4.94-1.14-7.58v-2.33c0-2.64.38-5.17,1.14-7.58.76-2.41,1.87-4.52,3.33-6.33,1.46-1.81,3.29-3.25,5.48-4.32,2.2-1.07,4.71-1.6,7.55-1.6s5.41.54,7.58,1.6c2.18,1.07,4,2.51,5.45,4.32,1.46,1.81,2.57,3.92,3.33,6.33.76,2.41,1.14,4.94,1.14,7.58v2.33ZM260.32,22.17c0,3.54.79,6.33,2.36,8.37s3.76,3.06,6.56,3.06,4.99-1.02,6.56-3.06,2.36-4.83,2.36-8.37v-2.33c0-3.54-.79-6.31-2.36-8.31-1.58-2-3.76-3-6.56-3s-4.99,1-6.56,3c-1.58,2-2.36,4.78-2.36,8.31v2.33Z"/>
      <path d="M290.19,9.1h-3.73V.58h21.24c1.48,0,2.93.26,4.35.79,1.42.53,2.7,1.25,3.85,2.19,1.15.93,2.07,2.05,2.77,3.35.7,1.3,1.05,2.75,1.05,4.35v16.16l-12.19,14h-17.33V9.1ZM311.19,24.27v-11.2c0-1.05-.26-1.85-.79-2.39-.52-.54-1.15-.93-1.87-1.17-.72-.23-1.44-.36-2.16-.38s-1.27-.03-1.66-.03h-6.01v23.8h4.96l7.53-8.63Z"/>
    </g>
  </g>
</svg>