<?xml version="1.0" encoding="UTF-8"?>
<svg id="Layer_2" data-name="Layer 2" xmlns="http://www.w3.org/2000/svg" viewBox="0 0 193.34 42.12">
  <g id="Layer_1-2" data-name="Layer 1">
    <g>
      <path d="M0,9.1V.58h29l4.9,9.22-10.68,20.94-11.03.06v10.62H3.68l-.06-32.32H0ZM12.19,22.29l5.83-.06,6.24-12.31-.47-.82h-11.61v13.19Z"/>
      <path d="M69.78,22.17c0,2.65-.38,5.17-1.14,7.58-.76,2.41-1.87,4.53-3.33,6.36-1.46,1.83-3.28,3.29-5.45,4.38-2.18,1.09-4.71,1.63-7.58,1.63s-5.36-.54-7.55-1.63c-2.2-1.09-4.03-2.55-5.48-4.38-1.46-1.83-2.57-3.95-3.33-6.36-.76-2.41-1.14-4.94-1.14-7.58v-2.33c0-2.64.38-5.17,1.14-7.58.76-2.41,1.87-4.52,3.33-6.33,1.46-1.81,3.29-3.25,5.48-4.32,2.2-1.07,4.71-1.6,7.55-1.6s5.41.54,7.58,1.6c2.18,1.07,4,2.51,5.45,4.32,1.46,1.81,2.57,3.92,3.33,6.33.76,2.41,1.14,4.94,1.14,7.58v2.33ZM43.35,22.17c0,3.54.79,6.33,2.36,8.37s3.76,3.06,6.56,3.06,4.99-1.02,6.56-3.06,2.36-4.83,2.36-8.37v-2.33c0-3.54-.79-6.31-2.36-8.31-1.58-2-3.76-3-6.56-3s-4.99,1-6.56,3c-1.58,2-2.36,4.78-2.36,8.31v2.33Z"/>
      <path d="M71.7.58h8.58c0,.89-.05,1.76-.15,2.6-.1.84-.15,1.68-.15,2.54,0,.7.07,1.8.2,3.3.14,1.5.33,3.17.58,5.02.25,1.85.55,3.78.9,5.81.35,2.02.74,3.9,1.17,5.63.43,1.73.88,3.21,1.37,4.43.49,1.23,1,1.99,1.55,2.3.39.23,1.07.41,2.04.52l5.54-23.22c-.08-1.32-.15-2.56-.21-3.7-.06-1.15-.09-2.17-.09-3.06,0-.7.06-1.42.17-2.16h8.58c0,.89-.05,1.76-.15,2.6-.1.84-.15,1.68-.15,2.54,0,.7.07,1.8.21,3.3.14,1.5.33,3.17.58,5.02.25,1.85.55,3.78.9,5.81.35,2.02.74,3.9,1.17,5.63.43,1.73.88,3.21,1.37,4.43.49,1.23,1,1.99,1.55,2.3.23.16.55.27.96.35.41.08.88.16,1.43.23l8.29-25.03c0-1.4-.01-2.54-.03-3.41-.02-.88-.03-1.69-.03-2.45V.58h8.4c0,.89.03,1.79.09,2.68.06.9.09,1.81.09,2.74,0,1.13-.12,2.24-.35,3.33-.23,1.09-.52,2.17-.85,3.24-.33,1.07-.7,2.14-1.11,3.21-.41,1.07-.79,2.13-1.14,3.18l-4.78,14.59v7.88h-5.31c-2.26,0-4.19-.13-5.81-.38s-3-.76-4.17-1.52c-1.17-.76-2.19-1.81-3.06-3.15-.88-1.34-1.72-3.1-2.54-5.28l-.64,2.04v8.28h-5.31c-.82,0-1.66,0-2.54-.03-.88-.02-1.75-.09-2.62-.2-.88-.12-1.72-.3-2.54-.55-.82-.25-1.58-.61-2.28-1.08-1.32-.89-2.49-2.21-3.5-3.94-1.01-1.73-1.89-3.71-2.63-5.95-.74-2.24-1.35-4.61-1.84-7.12-.49-2.51-.88-4.99-1.17-7.44-.29-2.45-.5-4.75-.61-6.91-.12-2.16-.17-3.98-.17-5.46,0-.7.06-1.42.17-2.16Z"/>
      <path d="M149.64,24.21h-12.02v8.69h18.14v8.52h-26.66V.58h26.66v8.52h-18.14v7.88h12.02v7.23Z"/>
      <path d="M158.1,9.1V.58h29l5.25,10.03-8.63,8.4c1.44,1.05,2.64,2.34,3.62,3.88.97,1.54,1.81,3.2,2.51,4.99s1.31,3.65,1.84,5.57c.52,1.93,1.08,3.8,1.66,5.63l-8.23,2.33c-.47-1.01-.9-2.33-1.28-3.97-.39-1.63-.86-3.28-1.4-4.93-.54-1.65-1.22-3.16-2.01-4.52-.8-1.36-1.86-2.25-3.18-2.68l-6.88,6.65v9.45h-8.52l-.06-32.32h-3.68ZM170.36,20.19l11.32-11.08h-11.32v11.08Z"/>
    </g>
  </g>
</svg>