<?xml version="1.0" encoding="UTF-8"?>
<svg id="Layer_2" data-name="Layer 2" xmlns="http://www.w3.org/2000/svg" viewBox="0 0 1920 1024">
  <defs>
    <style>
      .cls-1 {
        fill: #398ccd;
      }
    </style>
  </defs>
  <g id="Layer_1-2" data-name="Layer 1">
    <g>
      <polygon class="cls-1" points="628.41 473.11 628.41 506.28 643.08 506.13 658.79 475.16 657.61 473.11 628.41 473.11"/>
      <polygon class="cls-1" points="718.22 500.99 746.69 473.11 718.22 473.11 718.22 500.99"/>
      <path class="cls-1" d="M1035.36,471.64c-7.04,0-12.55,2.52-16.51,7.56-3.96,5.04-5.94,12.01-5.94,20.91v5.87c0,8.9,1.98,15.92,5.94,21.06,3.96,5.14,9.47,7.71,16.51,7.71s12.55-2.57,16.51-7.71c3.96-5.14,5.94-12.16,5.94-21.06v-5.87c0-8.9-1.98-15.87-5.94-20.91-3.96-5.04-9.47-7.56-16.51-7.56Z"/>
      <path class="cls-1" d="M820.8,471.64c-7.04,0-12.55,2.52-16.51,7.56-3.96,5.04-5.94,12.01-5.94,20.91v5.87c0,8.9,1.98,15.92,5.94,21.06,3.96,5.14,9.47,7.71,16.51,7.71s12.55-2.57,16.51-7.71c3.96-5.14,5.94-12.16,5.94-21.06v-5.87c0-8.9-1.98-15.87-5.94-20.91-3.96-5.04-9.47-7.56-16.51-7.56Z"/>
      <path class="cls-1" d="M0,0v1024h1920V0H0ZM656.14,527.56l-27.74.15v26.71h-21.43l-.15-81.3h-9.1v-21.43h72.94l12.33,23.19-26.86,52.69ZM755.35,554.41c-1.17-2.54-2.25-5.87-3.23-9.98-.98-4.11-2.15-8.24-3.52-12.4-1.37-4.16-3.06-7.95-5.06-11.37-2.01-3.42-4.67-5.67-8-6.75l-17.32,16.73v23.77h-21.43l-.15-81.3h-9.25v-21.43h72.94l13.21,25.24-21.72,21.13c3.62,2.64,6.65,5.9,9.1,9.76,2.44,3.87,4.55,8.05,6.31,12.55,1.76,4.5,3.3,9.17,4.62,14.02,1.32,4.84,2.71,9.56,4.18,14.16l-20.69,5.87ZM864.83,505.98c0,6.65-.95,13.01-2.86,19.08-1.91,6.07-4.7,11.4-8.36,16-3.67,4.6-8.24,8.27-13.72,11.01-5.48,2.74-11.84,4.11-19.08,4.11s-13.48-1.37-19-4.11c-5.53-2.74-10.13-6.41-13.79-11.01-3.67-4.6-6.46-9.93-8.37-16-1.91-6.06-2.86-12.42-2.86-19.08v-5.87c0-6.65.95-13.01,2.86-19.08,1.91-6.07,4.7-11.37,8.37-15.92,3.67-4.55,8.27-8.17,13.79-10.86,5.53-2.69,11.86-4.04,19-4.04s13.6,1.35,19.08,4.04c5.48,2.69,10.05,6.31,13.72,10.86,3.67,4.55,6.46,9.86,8.36,15.92,1.91,6.07,2.86,12.43,2.86,19.08v5.87ZM983.26,554.41h-21.43v-68.54l-25.83,32.43,8.51,13.79-17.9,11.45-32.29-51.36v62.22h-21.43v-102.73h21.43l29.64,47.4,37.86-47.4h21.43v102.73ZM1079.38,505.98c0,6.65-.95,13.01-2.86,19.08-1.91,6.07-4.7,11.4-8.36,16-3.67,4.6-8.24,8.27-13.72,11.01-5.48,2.74-11.84,4.11-19.08,4.11s-13.48-1.37-19-4.11c-5.53-2.74-10.13-6.41-13.79-11.01-3.67-4.6-6.46-9.93-8.37-16-1.91-6.06-2.86-12.42-2.86-19.08v-5.87c0-6.65.95-13.01,2.86-19.08,1.91-6.07,4.7-11.37,8.37-15.92,3.67-4.55,8.27-8.17,13.79-10.86,5.53-2.69,11.86-4.04,19-4.04s13.6,1.35,19.08,4.04c5.48,2.69,10.05,6.31,13.72,10.86,3.67,4.55,6.46,9.86,8.36,15.92,1.91,6.07,2.86,12.43,2.86,19.08v5.87ZM1153.94,473.11h-26.27v81.3h-21.43v-81.3h-26.12v-21.43h73.82v21.43ZM1228.34,473.11h-45.64v19.81h30.23v18.2h-30.23v21.87h45.64v21.43h-67.07v-102.73h67.07v21.43ZM1320.8,519.19l-30.67,35.22h-43.59v-81.3h-9.39v-21.43h53.42c3.72,0,7.36.66,10.93,1.98,3.57,1.32,6.8,3.16,9.69,5.5,2.88,2.35,5.21,5.16,6.97,8.44,1.76,3.28,2.64,6.92,2.64,10.93v40.65Z"/>
      <path class="cls-1" d="M1292.69,474.14c-1.81-.59-3.62-.9-5.43-.95-1.81-.05-3.21-.07-4.18-.07h-15.12v59.88h12.47l18.93-21.72v-28.18c0-2.64-.66-4.65-1.98-6.02-1.32-1.37-2.89-2.35-4.7-2.93Z"/>
      <path d="M597.74,451.68v21.43h9.1l.15,81.3h21.43v-26.71l27.74-.15,26.86-52.69-12.33-23.19h-72.94ZM643.08,506.13l-14.68.15v-33.17h29.2l1.17,2.05-15.7,30.97Z"/>
      <path d="M767.24,520.36c-1.76-4.5-3.87-8.68-6.31-12.55-2.45-3.86-5.48-7.12-9.1-9.76l21.72-21.13-13.21-25.24h-72.94v21.43h9.25l.15,81.3h21.43v-23.77l17.32-16.73c3.33,1.08,5.99,3.33,8,6.75,2,3.43,3.69,7.22,5.06,11.37,1.37,4.16,2.54,8.29,3.52,12.4.98,4.11,2.05,7.44,3.23,9.98l20.69-5.87c-1.47-4.6-2.86-9.32-4.18-14.16-1.32-4.84-2.86-9.51-4.62-14.02ZM718.22,500.99v-27.88h28.47l-28.47,27.88Z"/>
      <path d="M853.6,465.11c-3.67-4.55-8.24-8.17-13.72-10.86-5.48-2.69-11.84-4.04-19.08-4.04s-13.48,1.35-19,4.04c-5.53,2.69-10.13,6.31-13.79,10.86-3.67,4.55-6.46,9.86-8.37,15.92-1.91,6.07-2.86,12.43-2.86,19.08v5.87c0,6.65.95,13.01,2.86,19.08,1.91,6.07,4.7,11.4,8.37,16,3.67,4.6,8.27,8.27,13.79,11.01,5.53,2.74,11.86,4.11,19,4.11s13.6-1.37,19.08-4.11c5.48-2.74,10.05-6.41,13.72-11.01,3.67-4.6,6.46-9.93,8.36-16,1.91-6.06,2.86-12.42,2.86-19.08v-5.87c0-6.65-.95-13.01-2.86-19.08-1.91-6.07-4.7-11.37-8.36-15.92ZM843.26,505.98c0,8.9-1.98,15.92-5.94,21.06-3.96,5.14-9.47,7.71-16.51,7.71s-12.55-2.57-16.51-7.71c-3.96-5.14-5.94-12.16-5.94-21.06v-5.87c0-8.9,1.98-15.87,5.94-20.91,3.96-5.04,9.47-7.56,16.51-7.56s12.55,2.52,16.51,7.56c3.96,5.04,5.94,12.01,5.94,20.91v5.87Z"/>
      <polygon points="923.97 499.08 894.33 451.68 872.9 451.68 872.9 554.41 894.33 554.41 894.33 492.19 926.61 543.55 944.52 532.11 936 518.31 961.83 485.88 961.83 554.41 983.26 554.41 983.26 451.68 961.83 451.68 923.97 499.08"/>
      <path d="M1068.16,465.11c-3.67-4.55-8.24-8.17-13.72-10.86-5.48-2.69-11.84-4.04-19.08-4.04s-13.48,1.35-19,4.04c-5.53,2.69-10.13,6.31-13.79,10.86-3.67,4.55-6.46,9.86-8.37,15.92-1.91,6.07-2.86,12.43-2.86,19.08v5.87c0,6.65.95,13.01,2.86,19.08,1.91,6.07,4.7,11.4,8.37,16,3.67,4.6,8.27,8.27,13.79,11.01,5.53,2.74,11.86,4.11,19,4.11s13.6-1.37,19.08-4.11c5.48-2.74,10.05-6.41,13.72-11.01,3.67-4.6,6.46-9.93,8.36-16,1.91-6.06,2.86-12.42,2.86-19.08v-5.87c0-6.65-.95-13.01-2.86-19.08-1.91-6.07-4.7-11.37-8.36-15.92ZM1057.81,505.98c0,8.9-1.98,15.92-5.94,21.06-3.96,5.14-9.47,7.71-16.51,7.71s-12.55-2.57-16.51-7.71c-3.96-5.14-5.94-12.16-5.94-21.06v-5.87c0-8.9,1.98-15.87,5.94-20.91,3.96-5.04,9.47-7.56,16.51-7.56s12.55,2.52,16.51,7.56c3.96,5.04,5.94,12.01,5.94,20.91v5.87Z"/>
      <polygon points="1080.12 473.11 1106.24 473.11 1106.24 554.41 1127.67 554.41 1127.67 473.11 1153.94 473.11 1153.94 451.68 1080.12 451.68 1080.12 473.11"/>
      <polygon points="1161.27 554.41 1228.34 554.41 1228.34 532.99 1182.7 532.99 1182.7 511.12 1212.93 511.12 1212.93 492.92 1182.7 492.92 1182.7 473.11 1228.34 473.11 1228.34 451.68 1161.27 451.68 1161.27 554.41"/>
      <path d="M1311.19,459.17c-2.89-2.35-6.12-4.18-9.69-5.5-3.57-1.32-7.22-1.98-10.93-1.98h-53.42v21.43h9.39v81.3h43.59l30.67-35.22v-40.65c0-4.01-.88-7.65-2.64-10.93-1.76-3.28-4.09-6.09-6.97-8.44ZM1299.37,511.27l-18.93,21.72h-12.47v-59.88h15.12c.98,0,2.37.03,4.18.07,1.81.05,3.62.37,5.43.95,1.81.59,3.38,1.57,4.7,2.93,1.32,1.37,1.98,3.38,1.98,6.02v28.18Z"/>
    </g>
  </g>
</svg>