<?xml version="1.0" encoding="UTF-8"?>
<svg id="Layer_2" data-name="Layer 2" xmlns="http://www.w3.org/2000/svg" viewBox="0 0 1920 1024">
  <defs>
    <style>
      .cls-1 {
        fill: #f48e29;
      }
    </style>
  </defs>
  <g id="Layer_1-2" data-name="Layer 1">
    <g id="ui_promoted">
      <path class="cls-1" d="M1118.28,799.3c-1.1,0-2,.9-2,2v29.17c0,1.1.9,1.99,2,1.98l10.68-.11c1.1-.01,2.41-.82,2.9-1.8l13.89-27.4c.5-.98.64-2.25.32-2.81s-1.49-1.03-2.59-1.03h-25.2Z"/>
      <path class="cls-1" d="M1206.1,825.19c0,1.1.64,1.37,1.43.6l25.61-25.08c.79-.77.53-1.4-.57-1.4h-24.47c-1.1,0-2,.9-2,2v23.88Z"/>
      <path class="cls-1" d="M1523.23,797.83c-7.04,0-12.55,2.52-16.51,7.56-3.96,5.04-5.7,18.93-5.7,18.93-.14,1.09-.25,2.88-.25,3.98v1.87c0,1.1.11,2.89.25,3.98,0,0,1.73,13.94,5.7,19.07,3.96,5.14,9.47,7.71,16.51,7.71s12.55-2.57,16.51-7.71c3.96-5.14,5.7-19.07,5.7-19.07.14-1.09.25-2.88.25-3.98v-1.87c0-1.1-.11-2.89-.25-3.98,0,0-1.73-13.89-5.7-18.93-3.96-5.04-9.47-7.56-16.51-7.56Z"/>
      <path class="cls-1" d="M1308.68,797.83c-7.04,0-12.55,2.52-16.51,7.56-3.96,5.04-5.7,18.93-5.7,18.93-.14,1.09-.25,2.88-.25,3.98v1.87c0,1.1.11,2.89.25,3.98,0,0,1.73,13.94,5.7,19.07,3.96,5.14,9.47,7.71,16.51,7.71s12.55-2.57,16.51-7.71c3.96-5.14,5.7-19.07,5.7-19.07.14-1.09.25-2.88.25-3.98v-1.87c0-1.1-.11-2.89-.25-3.98,0,0-1.73-13.89-5.7-18.93-3.96-5.04-9.47-7.56-16.51-7.56Z"/>
      <path class="cls-1" d="M1920,256.43V2c0-1.1-.9-2-2-2h-49.6l-86.24,149.37h-200.71L1497.42,3.82l-4.68,8.1c-.55.95-1.9,1.73-3,1.73h-266.11c-1.1,0-2.45-.78-3-1.73l-5.88-10.19c-.55-.95-1.9-1.73-3-1.73h-385.68c-1.1,0-2.45.78-3,1.73l-5.88,10.19c-.55.95-1.9,1.73-3,1.73h-350.79l-39.6,68.58h-200.71L183.5,13.66h-98.78c-1.1,0-2.45-.78-3-1.73l-5.88-10.19c-.55-.95-1.9-1.73-3-1.73H2C.9,0,0,.9,0,2v127.66c0,1.1.88,2.2,1.95,2.44l31.47,7.01c1.07.24,1.95,1.34,1.95,2.44v502.53s79.7,46.02,79.7,46.02v161.78L0,918.31v103.69c0,1.1.9,2,2,2h54.17l27.6-47.8h258.39l54.73-94.79h226.41l82.32,142.59h332.16l50.26-87.06h344.27l14.92,25.84h333.82l33.85,58.64,13.53.59c.1,1.1,1.08,1.99,2.18,1.99h87.38c1.1,0,2-.9,2-2v-84.55c0-1.1-.78-2.45-1.73-3l-10.19-5.88c-.95-.55-1.73-1.9-1.73-3v-266.11c0-1.1.78-2.45,1.73-3l10.19-5.88c.95-.55,1.73-1.9,1.73-3v-39.11c0-1.1-.78-2.45-1.73-3l-10.19-5.88c-.95-.55-1.73-1.9-1.73-3v-51.43l-103.1-59.52v-161.78l116.75-67.41ZM1169.97,802.84l-25.04,49.12c-.5.98-1.81,1.79-2.91,1.79l-23.74.13c-1.1,0-2,.91-2,2.01v22.71c0,1.1-.9,2-2,2h-17.43c-1.1,0-2-.9-2-2l-.14-77.3c0-1.1-.9-2-2-2h-5.1c-1.1,0-2-.9-2-2v-17.43c0-1.1.9-2,2-2h68.94c1.1,0,2.42.79,2.94,1.77l10.45,19.66c.52.97.53,2.57.03,3.55ZM1262,875.28l-16.84,4.78c-1.06.3-2.25-.29-2.64-1.32,0,0-1.54-4-2.51-8.11-.98-4.11-2.15-8.24-3.52-12.4-1.37-4.16-3.06-7.95-5.06-11.37-2.01-3.42-6.25-5.78-6.25-5.78-.96-.53-2.4-.35-3.19.42l-14.44,13.95c-.79.76-1.44,2.29-1.44,3.39v19.77c0,1.1-.9,2-2,2h-17.43c-1.1,0-2-.9-2-2l-.14-77.3c0-1.1-.9-2-2-2h-5.25c-1.1,0-2-.9-2-2v-17.43c0-1.1.9-2,2-2h68.94c1.1,0,2.42.8,2.93,1.77l11.35,21.7c.51.97.28,2.4-.51,3.17l-18.85,18.34c-.79.77-.76,1.99.06,2.72,0,0,5.16,4.57,7.6,8.43,2.44,3.87,4.55,8.05,6.31,12.55,1.76,4.5,3.3,9.17,4.62,14.02,1.32,4.84,3.6,12.25,3.6,12.25.32,1.05-.28,2.16-1.34,2.46ZM1352.71,830.17c0,1.1-.07,2.9-.15,3.99,0,0-.81,11.02-2.72,17.08-1.91,6.07-4.7,11.4-8.36,16-3.67,4.6-8.24,8.27-13.72,11.01-5.48,2.74-11.84,4.11-19.08,4.11s-13.48-1.37-19-4.11c-5.53-2.74-10.13-6.41-13.79-11.01-3.67-4.6-6.46-9.93-8.37-16-1.91-6.06-2.72-17.08-2.72-17.08-.08-1.1-.15-2.89-.15-3.99v-1.87c0-1.1.07-2.9.15-3.99,0,0,.81-11.02,2.71-17.08,1.91-6.07,4.7-11.37,8.37-15.92,3.67-4.55,8.27-8.17,13.79-10.86,5.53-2.69,11.86-4.04,19-4.04s13.6,1.35,19.08,4.04c5.48,2.69,10.05,6.31,13.72,10.86,3.67,4.55,6.46,9.86,8.36,15.92,1.91,6.07,2.72,17.08,2.72,17.08.08,1.1.15,2.89.15,3.99v1.87ZM1471.14,878.6c0,1.1-.9,2-2,2h-17.43c-1.1,0-2-.9-2-2v-64.54c0-1.1-.56-1.3-1.25-.44l-23.34,29.3c-.69.86-.77,2.33-.2,3.27l6.41,10.39c.58.94.29,2.19-.63,2.78l-14.53,9.29c-.93.59-2.16.32-2.75-.62l-30.16-47.98c-.59-.93-1.06-.79-1.06.31v58.22c0,1.1-.9,2-2,2h-17.43c-1.1,0-2-.9-2-2v-98.73c0-1.1.9-2,2-2h17.43c1.1,0,2.48.76,3.06,1.7l27.52,44.01c.58.93,1.62.99,2.31.13l35.37-44.28c.69-.86,2.15-1.56,3.25-1.56h17.43c1.1,0,2,.9,2,2v98.73ZM1567.26,830.17c0,1.1-.07,2.9-.15,3.99,0,0-.81,11.02-2.72,17.08-1.91,6.07-4.7,11.4-8.36,16-3.67,4.6-8.24,8.27-13.72,11.01-5.48,2.74-11.84,4.11-19.08,4.11s-13.48-1.37-19-4.11c-5.53-2.74-10.13-6.41-13.79-11.01-3.67-4.6-6.46-9.93-8.37-16-1.91-6.06-2.72-17.08-2.72-17.08-.08-1.1-.15-2.89-.15-3.99v-1.87c0-1.1.07-2.9.15-3.99,0,0,.81-11.02,2.71-17.08,1.91-6.07,4.7-11.37,8.37-15.92,3.67-4.55,8.27-8.17,13.79-10.86,5.53-2.69,11.86-4.04,19-4.04s13.6,1.35,19.08,4.04c5.48,2.69,10.05,6.31,13.72,10.86,3.67,4.55,6.46,9.86,8.36,15.92,1.91,6.07,2.72,17.08,2.72,17.08.08,1.1.15,2.89.15,3.99v1.87ZM1641.81,797.3c0,1.1-.9,2-2,2h-22.27c-1.1,0-2,.9-2,2v77.3c0,1.1-.9,2-2,2h-17.43c-1.1,0-2-.9-2-2v-77.3c0-1.1-.9-2-2-2h-22.12c-1.1,0-2-.9-2-2v-17.43c0-1.1.9-2,2-2h69.82c1.1,0,2,.9,2,2v17.43ZM1716.22,797.3c0,1.1-.9,2-2,2h-41.64c-1.1,0-2,.9-2,2v15.81c0,1.1.9,2,2,2h26.23c1.1,0,2,.9,2,2v14.2c0,1.1-.9,2-2,2h-26.23c-1.1,0-2,.9-2,2v17.87c0,1.1.9,2,2,2h41.64c1.1,0,2,.9,2,2v17.43c0,1.1-.9,2-2,2h-63.07c-1.1,0-2-.9-2-2v-98.73c0-1.1.9-2,2-2h63.07c1.1,0,2,.9,2,2v17.43ZM1806.03,793.8c1.76,3.28,2.41,8.95,2.41,8.95.13,1.09.23,2.89.23,3.99v36.65c0,1.1-.59,2.68-1.31,3.51l-28.04,32.21c-.72.83-2.21,1.51-3.31,1.51h-39.59c-1.1,0-2-.9-2-2v-77.3c0-1.1-.9-2-2-2h-5.39c-1.1,0-2-.9-2-2v-17.43c0-1.1.9-2,2-2h49.42c1.1,0,2.9.08,3.99.18,0,0,5.37.48,8.94,1.8,3.57,1.32,6.8,3.16,9.69,5.5,2.88,2.35,5.21,5.16,6.97,8.44Z"/>
      <path class="cls-1" d="M1780.57,800.33c-1.81-.59-3.62-.9-5.43-.95-1.81-.05-2.18-.05-2.18-.05-1.1-.01-2.9-.02-4-.02h-11.12c-1.1,0-2,.9-2,2v55.88c0,1.1.9,2,2,2h8.47c1.1,0,2.59-.68,3.31-1.51l16.3-18.7c.72-.83,1.31-2.41,1.31-3.51v-24.18c0-1.1-.13-2.89-.28-3.98,0,0-.38-2.67-1.7-4.04-1.32-1.37-2.89-2.35-4.7-2.93Z"/>
    </g>
  </g>
</svg>