<?xml version="1.0" encoding="UTF-8"?>
<svg id="Layer_2" data-name="Layer 2" xmlns="http://www.w3.org/2000/svg" viewBox="0 0 172.11 42.12">
  <g id="Layer_1-2" data-name="Layer 1">
    <g>
      <path d="M0,17.21l.06-4.67c0-1.44.23-2.87.7-4.29s1.14-2.7,2.01-3.85c.88-1.15,1.94-2.07,3.21-2.77,1.26-.7,2.67-1.05,4.23-1.05h22v8.52c-3.5,0-6.97,0-10.41-.03-3.44-.02-6.89-.03-10.36-.03-1.01,0-1.73.29-2.16.88-.43.58-.7,1.28-.82,2.1l24.21,12.78-.12,4.67c-.04,1.52-.3,3-.79,4.43-.49,1.44-1.18,2.71-2.07,3.82-.9,1.11-1.99,2-3.3,2.68-1.3.68-2.77,1.02-4.41,1.02H.58v-8.52h5.19l10.33.06h5.19c.97,0,1.66-.29,2.07-.88.41-.58.67-1.28.79-2.1L0,17.21Z"/>
      <path d="M44.16,21c0,2.45.36,4.43,1.08,5.95.72,1.52,1.69,2.7,2.92,3.56,1.22.86,2.63,1.44,4.23,1.75s3.28.49,5.05.52c1.77.04,3.57.02,5.4-.06,1.83-.08,3.58-.1,5.25-.06v8.58c-2.37.12-4.71.17-7,.17-3.42,0-6.65-.23-9.68-.7-3.03-.47-5.7-1.43-7.99-2.89-2.3-1.46-4.13-3.53-5.51-6.21-1.38-2.68-2.13-6.22-2.25-10.62-.12-3.03.31-5.8,1.28-8.31.97-2.51,2.35-4.67,4.14-6.48s3.92-3.21,6.39-4.2c2.47-.99,5.14-1.49,8.02-1.49.51,0,1.02.02,1.55.06.52.04,1.06.1,1.6.17l11.43,5.6-3.85,7.58-9.68-4.73c-1.87-.19-3.56-.06-5.08.41-1.52.47-2.81,1.22-3.88,2.25-1.07,1.03-1.91,2.31-2.51,3.85-.6,1.54-.9,3.3-.9,5.28Z"/>
      <path d="M105.66,22.17c0,2.65-.38,5.17-1.14,7.58-.76,2.41-1.87,4.53-3.33,6.36-1.46,1.83-3.28,3.29-5.45,4.38-2.18,1.09-4.71,1.63-7.58,1.63s-5.36-.54-7.55-1.63c-2.2-1.09-4.03-2.55-5.48-4.38-1.46-1.83-2.57-3.95-3.33-6.36-.76-2.41-1.14-4.94-1.14-7.58v-2.33c0-2.64.38-5.17,1.14-7.58.76-2.41,1.87-4.52,3.33-6.33,1.46-1.81,3.29-3.25,5.48-4.32,2.2-1.07,4.71-1.6,7.55-1.6s5.41.54,7.58,1.6c2.18,1.07,4,2.51,5.45,4.32,1.46,1.81,2.57,3.92,3.33,6.33.76,2.41,1.14,4.94,1.14,7.58v2.33ZM79.23,22.17c0,3.54.79,6.33,2.36,8.37s3.76,3.06,6.56,3.06,4.99-1.02,6.56-3.06,2.36-4.83,2.36-8.37v-2.33c0-3.54-.79-6.31-2.36-8.31-1.58-2-3.76-3-6.56-3s-4.99,1-6.56,3c-1.58,2-2.36,4.78-2.36,8.31v2.33Z"/>
      <path d="M126.02,41.42c-2.84,0-5.35-.54-7.53-1.63-2.18-1.09-4.01-2.55-5.48-4.38-1.48-1.83-2.59-3.95-3.33-6.36-.74-2.41-1.11-4.94-1.11-7.58V.58h8.46l.06,20.89c0,3,.56,5.46,1.69,7.41s2.74,3.19,4.84,3.73l7.99-5.72V.58h8.52v40.84h-8.52v-4.03l-5.6,4.03Z"/>
      <path d="M161.66,41.42h-8.52V9.1h-10.38V.58h29.35v8.52h-10.44v32.32Z"/>
    </g>
  </g>
</svg>