<?xml version="1.0" encoding="UTF-8"?>
<svg id="Layer_2" data-name="Layer 2" xmlns="http://www.w3.org/2000/svg" viewBox="0 0 176.66 42.12">
  <g id="Layer_1-2" data-name="Layer 1">
    <g>
      <path d="M0,17.21l.06-4.67c0-1.44.23-2.87.7-4.29s1.14-2.7,2.01-3.85c.88-1.15,1.94-2.07,3.21-2.77,1.26-.7,2.67-1.05,4.23-1.05h22v8.52c-3.5,0-6.97,0-10.41-.03-3.44-.02-6.89-.03-10.36-.03-1.01,0-1.73.29-2.16.88-.43.58-.7,1.28-.82,2.1l24.21,12.78-.12,4.67c-.04,1.52-.3,3-.79,4.43-.49,1.44-1.18,2.71-2.07,3.82-.9,1.11-1.99,2-3.3,2.68-1.3.68-2.77,1.02-4.41,1.02H.58v-8.52h5.19l10.33.06h5.19c.97,0,1.66-.29,2.07-.88.41-.58.67-1.28.79-2.1L0,17.21Z"/>
      <path d="M70.59,22.17c0,2.65-.38,5.17-1.14,7.58-.76,2.41-1.87,4.53-3.33,6.36-1.46,1.83-3.28,3.29-5.45,4.38-2.18,1.09-4.71,1.63-7.58,1.63s-5.36-.54-7.55-1.63c-2.2-1.09-4.03-2.55-5.48-4.38-1.46-1.83-2.57-3.95-3.33-6.36-.76-2.41-1.14-4.94-1.14-7.58v-2.33c0-2.64.38-5.17,1.14-7.58.76-2.41,1.87-4.52,3.33-6.33,1.46-1.81,3.29-3.25,5.48-4.32,2.2-1.07,4.71-1.6,7.55-1.6s5.41.54,7.58,1.6c2.18,1.07,4,2.51,5.45,4.32,1.46,1.81,2.57,3.92,3.33,6.33.76,2.41,1.14,4.94,1.14,7.58v2.33ZM44.16,22.17c0,3.54.79,6.33,2.36,8.37s3.76,3.06,6.56,3.06,4.99-1.02,6.56-3.06,2.36-4.83,2.36-8.37v-2.33c0-3.54-.79-6.31-2.36-8.31-1.58-2-3.76-3-6.56-3s-4.99,1-6.56,3c-1.58,2-2.36,4.78-2.36,8.31v2.33Z"/>
      <path d="M90.95,41.42c-2.84,0-5.35-.54-7.53-1.63-2.18-1.09-4.01-2.55-5.48-4.38-1.48-1.83-2.59-3.95-3.33-6.36-.74-2.41-1.11-4.94-1.11-7.58V.58h8.46l.06,20.89c0,3,.56,5.46,1.69,7.41s2.74,3.19,4.84,3.73l7.99-5.72V.58h8.52v40.84h-8.52v-4.03l-5.6,4.03Z"/>
      <path d="M139.9,41.42h-8.52c-1.75-4.98-3.83-9.78-6.24-14.41-2.41-4.63-5.19-9.04-8.34-13.24v27.65h-8.52V.58h8.58c2.8,3.03,5.43,6.22,7.88,9.57,2.45,3.35,4.67,6.85,6.65,10.5V.58h8.52v40.84Z"/>
      <path d="M147.13,9.1h-3.73V.58h21.24c1.48,0,2.93.26,4.35.79,1.42.53,2.7,1.25,3.85,2.19,1.15.93,2.07,2.05,2.77,3.35.7,1.3,1.05,2.75,1.05,4.35v16.16l-12.19,14h-17.33V9.1ZM168.14,24.27v-11.2c0-1.05-.26-1.85-.79-2.39-.52-.54-1.15-.93-1.87-1.17-.72-.23-1.44-.36-2.16-.38s-1.27-.03-1.66-.03h-6.01v23.8h4.96l7.53-8.63Z"/>
    </g>
  </g>
</svg>