<?xml version="1.0" encoding="UTF-8"?>
<svg id="Layer_2" data-name="Layer 2" xmlns="http://www.w3.org/2000/svg" viewBox="0 0 245.03 40.84">
  <g id="Layer_1-2" data-name="Layer 1">
    <g>
      <path d="M0,16.63l.06-4.67c0-1.44.23-2.87.7-4.29s1.14-2.7,2.01-3.85c.88-1.15,1.94-2.07,3.21-2.77,1.26-.7,2.67-1.05,4.23-1.05h22v8.52c-3.5,0-6.97,0-10.41-.03-3.44-.02-6.89-.03-10.36-.03-1.01,0-1.73.29-2.16.88-.43.58-.7,1.28-.82,2.1l24.21,12.78-.12,4.67c-.04,1.52-.3,3-.79,4.43-.49,1.44-1.18,2.71-2.07,3.82-.9,1.11-1.99,2-3.3,2.68-1.3.68-2.77,1.02-4.41,1.02H.58v-8.52h5.19l10.33.06h5.19c.97,0,1.66-.29,2.07-.88.41-.58.67-1.28.79-2.1L0,16.63Z"/>
      <path d="M56.42,23.63h-12.02v8.69h18.14v8.52h-26.66V0h26.66v8.52h-18.14v7.88h12.02v7.23Z"/>
      <path d="M84.36,40.84h-8.52V8.52h-10.38V0h29.35v8.52h-10.44v32.32Z"/>
      <path d="M116.04,40.84h-8.52V8.52h-10.38V0h29.35v8.52h-10.44v32.32Z"/>
      <path d="M138.04,40.84h-8.63V0h8.63v40.84Z"/>
      <path d="M173.16,40.84h-8.52c-1.75-4.98-3.83-9.78-6.24-14.41-2.41-4.63-5.19-9.04-8.34-13.24v27.65h-8.52V0h8.58c2.8,3.03,5.43,6.22,7.88,9.57,2.45,3.35,4.67,6.85,6.65,10.5V0h8.52v40.84Z"/>
      <path d="M176.48,26.84v-15.34c0-1.44.28-2.85.85-4.23.56-1.38,1.34-2.61,2.33-3.68.99-1.07,2.14-1.93,3.44-2.6,1.3-.66,2.71-.99,4.23-.99h20.77v8.52h-17.68c-1.52,0-2.65.1-3.41.29-.76.2-1.28.54-1.58,1.05-.29.51-.44,1.19-.44,2.04v11.96l7.41,8.46h7.12l.06-9.28h-6.88v-8.52h17.04v8.52h-1.69v17.79h-19.37l-12.19-14Z"/>
      <path d="M212.36,16.63l.06-4.67c0-1.44.23-2.87.7-4.29s1.14-2.7,2.01-3.85c.88-1.15,1.94-2.07,3.21-2.77,1.26-.7,2.67-1.05,4.23-1.05h22v8.52c-3.5,0-6.97,0-10.41-.03-3.44-.02-6.89-.03-10.36-.03-1.01,0-1.73.29-2.16.88-.43.58-.7,1.28-.82,2.1l24.21,12.78-.12,4.67c-.04,1.52-.3,3-.79,4.43-.49,1.44-1.18,2.71-2.07,3.82-.9,1.11-1.99,2-3.3,2.68-1.3.68-2.77,1.02-4.41,1.02h-21.41v-8.52h5.19l10.33.06h5.19c.97,0,1.66-.29,2.07-.88.41-.58.67-1.28.79-2.1l-24.15-12.78Z"/>
    </g>
  </g>
</svg>