<?xml version="1.0" encoding="UTF-8"?>
<svg id="Layer_2" data-name="Layer 2" xmlns="http://www.w3.org/2000/svg" viewBox="0 0 1920 1024">
  <defs>
    <style>
      .cls-1 {
        fill: none;
      }

      .cls-2 {
        fill: #03fe66;
      }
    </style>
  </defs>
  <g id="Layer_1-2" data-name="Layer 1">
    <g id="ui_terminated">
      <g>
        <path class="cls-1" d="M1313.01,756h-20.08c-1.1,0-2.56.7-3.25,1.56l-40.06,50.15c-.69.86-1.73.8-2.31-.13l-31.2-49.88c-.58-.93-1.96-1.7-3.06-1.7h-20.08c-1.1,0-2,.9-2,2v111.46c0,1.1.9,2,2,2h20.08c1.1,0,2-.9,2-2v-65.93c0-1.1.48-1.24,1.06-.31l34.16,54.34c.59.93,1.82,1.21,2.75.62l16.75-10.71c.93-.59,1.21-1.84.63-2.78l-7.47-12.1c-.58-.94-.49-2.41.2-3.27l26.54-33.32c.69-.86,1.25-.66,1.25.44v73.03c0,1.1.9,2,2,2h20.08c1.1,0,2-.9,2-2v-111.46c0-1.1-.9-2-2-2Z"/>
        <rect class="cls-1" x="1324.9" y="756" width="24.41" height="115.46" rx="2" ry="2"/>
        <path class="cls-1" d="M1547.15,838.88c-1.05-4.01-2.25-8.33-3.63-12.95-1.38-4.62-2.72-9.07-4.04-13.36-1.32-4.29-2.26-7.48-2.8-9.57-1.98-7.81-3.99-14.62-6.02-20.45-2.04-5.83-4.78-10.72-8.25-14.68s-7.95-6.93-13.44-8.91c-5.5-1.98-12.7-2.97-21.61-2.97-4.07,0-10.04.37-10.04.37-1.1.07-2,1.02-2,2.12v20.08c0,1.1.74,2,1.65,2s2.55-.04,3.65-.1l2.6-.13c1.1-.05,2.74-.1,3.65-.1s2.55.07,3.64.15c0,0,7.66.59,10.46,2.07,2.8,1.48,4.95,3.52,6.43,6.1,1.48,2.59,2.58,5.66,3.3,9.24.71,3.57,1.62,7.45,2.72,11.63,1.54,5.83,2.91,10.7,4.12,14.6,1.21,3.9,2.6,8.88,2.6,8.88.3,1.06-.21,1.42-1.12.8l-12.03-8.15c-.91-.62-2.56-1.12-3.66-1.12h-11.18c-1.1,0-1.68-.84-1.28-1.87l7.64-19.85c.39-1.03.72-2.77.72-3.87v-7.88c0-1.1-.9-2-2-2h-20.25c-1.1,0-2,.9-2,2v3.42c0,1.1-.33,2.84-.72,3.87l-17.52,45.26c-.4,1.03-.72,2.77-.72,3.87v22.06c0,1.1.9,2,2,2h20.41c1.1,0,2-.9,2-2v-17.61c0-1.1.32-2.84.71-3.87l.4-1.04c.39-1.03,1.61-1.87,2.71-1.87h12.82c1.1,0,2.74.51,3.65,1.13l22.1,15.07c.91.62,1.7,2.03,1.77,3.12,0,0,.05.89.05,2.37v2.7c0,1.1.9,2,2,2h20.08c1.1,0,2-.9,2-2v-20.58c0-1.1-.12-2.89-.26-3.98,0,0-.26-2-1.31-6.02Z"/>
        <path class="cls-1" d="M1446.61,756h-20.08c-1.1,0-2,.9-2,2v52.74c0,1.1-.46,1.22-1.01.28,0,0-10.86-18.51-17.79-27.96-6.93-9.46-20.95-25.54-20.95-25.54-.72-.83-2.21-1.51-3.31-1.51h-20.25c-1.1,0-2,.9-2,2v111.46c0,1.1.9,2,2,2h20.08c1.1,0,2-.9,2-2v-74.18c0-1.1.51-1.26,1.13-.35,0,0,15.63,22.71,22.45,35.79,6.82,13.09,16.92,38.88,16.92,38.88.4,1.02,1.63,1.86,2.73,1.86h20.08c1.1,0,2-.9,2-2v-111.46c0-1.1-.9-2-2-2Z"/>
        <path class="cls-1" d="M992.53,756h-78.96c-1.1,0-2,.9-2,2v20.08c0,1.1.9,2,2,2h25.36c1.1,0,2,.9,2,2v87.38c0,1.1.9,2,2,2h20.08c1.1,0,2-.9,2-2v-87.38c0-1.1.9-2,2-2h25.52c1.1,0,2-.9,2-2v-20.08c0-1.1-.9-2-2-2Z"/>
        <path class="cls-1" d="M1179.68,848.94c-1.48-5.44-3.22-10.69-5.2-15.75-1.98-5.06-4.34-9.76-7.09-14.1-2.75-4.34-8.73-9.64-8.73-9.64-.82-.73-.85-1.95-.06-2.72l21.54-20.96c.79-.77,1.02-2.19.51-3.17l-12.99-24.83c-.51-.97-1.83-1.77-2.93-1.77h-77.97c-1.1,0-2,.9-2,2v20.08c0,1.1.9,2,2,2h6.39c1.1,0,2,.9,2,2l.16,87.38c0,1.1.9,2,2,2h20.08c1.1,0,2-.9,2-2v-22.72c0-1.1.65-2.63,1.44-3.39l16.59-16.02c.79-.76,2.23-.95,3.19-.42,0,0,4.99,2.77,7.24,6.62,2.25,3.85,4.15,8.11,5.69,12.78,1.54,4.67,2.86,9.32,3.96,13.94,1.1,4.62,2.91,9.35,2.91,9.35.39,1.03,1.58,1.62,2.64,1.32l19.41-5.51c1.06-.3,1.66-1.41,1.34-2.46,0,0-2.63-8.56-4.11-14ZM1149.96,781.48l-29.14,28.54c-.79.77-1.43.5-1.43-.6v-27.34c0-1.1.9-2,2-2h28c1.1,0,1.36.63.57,1.4Z"/>
        <path class="cls-1" d="M1076.16,756h-71.38c-1.1,0-2,.9-2,2v111.46c0,1.1.9,2,2,2h71.38c1.1,0,2-.9,2-2v-20.08c0-1.1-.9-2-2-2h-47.3c-1.1,0-2-.9-2-2v-20.58c0-1.1.9-2,2-2h29.98c1.1,0,2-.9,2-2v-16.45c0-1.1-.9-2-2-2h-29.98c-1.1,0-2-.9-2-2v-18.27c0-1.1.9-2,2-2h47.3c1.1,0,2-.9,2-2v-20.08c0-1.1-.9-2-2-2Z"/>
        <path class="cls-1" d="M1620.45,756h-78.96c-1.1,0-2,.9-2,2v20.08c0,1.1.9,2,2,2h25.36c1.1,0,2,.9,2,2v87.38c0,1.1.9,2,2,2h20.08c1.1,0,2-.9,2-2v-87.38c0-1.1.9-2,2-2h25.52c1.1,0,2-.9,2-2v-20.08c0-1.1-.9-2-2-2Z"/>
        <path class="cls-1" d="M1799.18,764.41c-3.24-2.64-6.87-4.7-10.89-6.19-4.02-1.48-10.3-2.05-10.3-2.05-1.1-.1-2.89-.18-3.99-.18h-56.04c-1.1,0-2,.9-2,2v20.08c0,1.1.9,2,2,2h6.56c1.1,0,2,.9,2,2v87.38c0,1.1.9,2,2,2h44.99c1.1,0,2.59-.68,3.31-1.51l31.85-36.57c.72-.83,1.31-2.41,1.31-3.51v-41.69c0-1.1-.1-2.89-.23-3.99,0,0-.76-6.62-2.74-10.3-1.98-3.68-4.59-6.84-7.83-9.48ZM1785.91,820.96c0,1.1-.59,2.68-1.31,3.51l-18.65,21.4c-.72.83-2.21,1.51-3.31,1.51h-10.02c-1.1,0-2-.9-2-2v-63.3c0-1.1.9-2,2-2h12.99c1.1,0,2.9,0,4,.02,0,0,.66,0,2.7.06,2.03.06,4.07.41,6.1,1.07,2.03.66,3.79,1.76,5.28,3.3,1.48,1.54,1.95,4.78,1.95,4.78.15,1.09.28,2.88.28,3.98v27.67Z"/>
        <path class="cls-1" d="M1704.07,756h-71.38c-1.1,0-2,.9-2,2v111.46c0,1.1.9,2,2,2h71.38c1.1,0,2-.9,2-2v-20.08c0-1.1-.9-2-2-2h-47.3c-1.1,0-2-.9-2-2v-20.58c0-1.1.9-2,2-2h29.98c1.1,0,2-.9,2-2v-16.45c0-1.1-.9-2-2-2h-29.98c-1.1,0-2-.9-2-2v-18.27c0-1.1.9-2,2-2h47.3c1.1,0,2-.9,2-2v-20.08c0-1.1-.9-2-2-2Z"/>
        <path class="cls-2" d="M1149.39,780.08h-28c-1.1,0-2,.9-2,2v27.34c0,1.1.64,1.37,1.43.6l29.14-28.54c.79-.77.53-1.4-.57-1.4Z"/>
        <path class="cls-2" d="M1783.68,784.53c-1.48-1.54-3.25-2.64-5.28-3.3-2.04-.66-4.07-1.02-6.1-1.07-2.04-.05-2.7-.06-2.7-.06-1.1-.01-2.9-.02-4-.02h-12.99c-1.1,0-2,.9-2,2v63.3c0,1.1.9,2,2,2h10.02c1.1,0,2.59-.68,3.31-1.51l18.65-21.4c.72-.83,1.31-2.41,1.31-3.51v-27.67c0-1.1-.13-2.89-.28-3.98,0,0-.46-3.24-1.95-4.78Z"/>
      </g>
      <path class="cls-1" d="M1458.03,871.46h20.41c1.1,0,2-.9,2-2v-17.61c0-1.1.32-2.84.71-3.87l.4-1.04c.39-1.03,1.61-1.87,2.71-1.87h12.82c1.1,0,2.74.51,3.65,1.13l22.1,15.07c.91.62,1.7,2.03,1.77,3.12,0,0,.05.89.05,2.37v2.7c0,1.1.9,2,2,2h20.08c1.1,0,2-.9,2-2v-20.58c0-1.1-.12-2.89-.26-3.98,0,0-.26-2-1.31-6.02-1.05-4.01-2.25-8.33-3.63-12.95-1.38-4.62-2.72-9.07-4.04-13.36-1.32-4.29-2.26-7.48-2.8-9.57-1.98-7.81-3.99-14.62-6.02-20.45-2.04-5.83-4.78-10.72-8.25-14.68s-7.95-6.93-13.44-8.91c-5.5-1.98-12.7-2.97-21.61-2.97-4.07,0-10.04.37-10.04.37-1.1.07-2,1.02-2,2.12v20.08c0,1.1.74,2,1.65,2s2.55-.04,3.65-.1l2.6-.13c1.1-.05,2.74-.1,3.65-.1s2.55.07,3.64.15c0,0,7.66.59,10.46,2.07,2.8,1.48,4.95,3.52,6.43,6.1,1.48,2.59,2.58,5.66,3.3,9.24.71,3.57,1.62,7.45,2.72,11.63,1.54,5.83,2.91,10.7,4.12,14.6,1.21,3.9,2.6,8.88,2.6,8.88.3,1.06-.21,1.42-1.12.8l-12.03-8.15c-.91-.62-2.56-1.12-3.66-1.12h-11.18c-1.1,0-1.68-.84-1.28-1.87l7.64-19.85c.39-1.03.72-2.77.72-3.87v-7.88c0-1.1-.9-2-2-2h-20.25c-1.1,0-2,.9-2,2v3.42c0,1.1-.33,2.84-.72,3.87l-17.52,45.26c-.4,1.03-.72,2.77-.72,3.87v22.06c0,1.1.9,2,2,2Z"/>
      <rect class="cls-1" x="1324.9" y="756" width="24.41" height="115.46" rx="2" ry="2"/>
      <path class="cls-1" d="M1192.97,871.46h20.08c1.1,0,2-.9,2-2v-65.93c0-1.1.48-1.24,1.06-.31l34.16,54.34c.59.93,1.82,1.21,2.75.62l16.75-10.71c.93-.59,1.21-1.84.63-2.78l-7.47-12.1c-.58-.94-.49-2.41.2-3.27l26.54-33.32c.69-.86,1.25-.66,1.25.44v73.03c0,1.1.9,2,2,2h20.08c1.1,0,2-.9,2-2v-111.46c0-1.1-.9-2-2-2h-20.08c-1.1,0-2.56.7-3.25,1.56l-40.06,50.15c-.69.86-1.73.8-2.31-.13l-31.2-49.88c-.58-.93-1.96-1.7-3.06-1.7h-20.08c-1.1,0-2,.9-2,2v111.46c0,1.1.9,2,2,2Z"/>
      <path class="cls-1" d="M1361.21,871.46h20.08c1.1,0,2-.9,2-2v-74.18c0-1.1.51-1.26,1.13-.35,0,0,15.63,22.71,22.45,35.79,6.82,13.09,16.92,38.88,16.92,38.88.4,1.02,1.63,1.86,2.73,1.86h20.08c1.1,0,2-.9,2-2v-111.46c0-1.1-.9-2-2-2h-20.08c-1.1,0-2,.9-2,2v52.74c0,1.1-.46,1.22-1.01.28,0,0-10.86-18.51-17.79-27.96-6.93-9.46-20.95-25.54-20.95-25.54-.72-.83-2.21-1.51-3.31-1.51h-20.25c-1.1,0-2,.9-2,2v111.46c0,1.1.9,2,2,2Z"/>
      <path class="cls-1" d="M1632.7,871.46h71.38c1.1,0,2-.9,2-2v-20.08c0-1.1-.9-2-2-2h-47.3c-1.1,0-2-.9-2-2v-20.58c0-1.1.9-2,2-2h29.98c1.1,0,2-.9,2-2v-16.45c0-1.1-.9-2-2-2h-29.98c-1.1,0-2-.9-2-2v-18.27c0-1.1.9-2,2-2h47.3c1.1,0,2-.9,2-2v-20.08c0-1.1-.9-2-2-2h-71.38c-1.1,0-2,.9-2,2v111.46c0,1.1.9,2,2,2Z"/>
      <path class="cls-1" d="M1717.97,780.08h6.56c1.1,0,2,.9,2,2v87.38c0,1.1.9,2,2,2h44.99c1.1,0,2.59-.68,3.31-1.51l31.85-36.57c.72-.83,1.31-2.41,1.31-3.51v-41.69c0-1.1-.1-2.89-.23-3.99,0,0-.76-6.62-2.74-10.3-1.98-3.68-4.59-6.84-7.83-9.48-3.24-2.64-6.87-4.7-10.89-6.19-4.02-1.48-10.3-2.05-10.3-2.05-1.1-.1-2.89-.18-3.99-.18h-56.04c-1.1,0-2,.9-2,2v20.08c0,1.1.9,2,2,2Z"/>
      <path class="cls-1" d="M1541.49,780.08h25.36c1.1,0,2,.9,2,2v87.38c0,1.1.9,2,2,2h20.08c1.1,0,2-.9,2-2v-87.38c0-1.1.9-2,2-2h25.52c1.1,0,2-.9,2-2v-20.08c0-1.1-.9-2-2-2h-78.96c-1.1,0-2,.9-2,2v20.08c0,1.1.9,2,2,2Z"/>
      <path class="cls-1" d="M1095.15,782.08l.16,87.38c0,1.1.9,2,2,2h20.08c1.1,0,2-.9,2-2v-22.72c0-1.1.65-2.63,1.44-3.39l16.59-16.02c.79-.76,2.23-.95,3.19-.42,0,0,4.99,2.77,7.24,6.62,2.25,3.85,4.15,8.11,5.69,12.78,1.54,4.67,2.86,9.32,3.96,13.94,1.1,4.62,2.91,9.35,2.91,9.35.39,1.03,1.58,1.62,2.64,1.32l19.41-5.51c1.06-.3,1.66-1.41,1.34-2.46,0,0-2.63-8.56-4.11-14s-3.22-10.69-5.2-15.75c-1.98-5.06-4.34-9.76-7.09-14.1-2.75-4.34-8.73-9.64-8.73-9.64-.82-.73-.85-1.95-.06-2.72l21.54-20.96c.79-.77,1.02-2.19.51-3.17l-12.99-24.83c-.51-.97-1.83-1.77-2.93-1.77h-77.97c-1.1,0-2,.9-2,2v20.08c0,1.1.9,2,2,2h6.39c1.1,0,2,.9,2,2Z"/>
      <path class="cls-1" d="M992.53,756h-78.96c-1.1,0-2,.9-2,2v20.08c0,1.1.9,2,2,2h25.36c1.1,0,2,.9,2,2v87.38c0,1.1.9,2,2,2h20.08c1.1,0,2-.9,2-2v-87.38c0-1.1.9-2,2-2h25.52c1.1,0,2-.9,2-2v-20.08c0-1.1-.9-2-2-2Z"/>
      <path class="cls-1" d="M1076.16,756h-71.38c-1.1,0-2,.9-2,2v111.46c0,1.1.9,2,2,2h71.38c1.1,0,2-.9,2-2v-20.08c0-1.1-.9-2-2-2h-47.3c-1.1,0-2-.9-2-2v-20.58c0-1.1.9-2,2-2h29.98c1.1,0,2-.9,2-2v-16.45c0-1.1-.9-2-2-2h-29.98c-1.1,0-2-.9-2-2v-18.27c0-1.1.9-2,2-2h47.3c1.1,0,2-.9,2-2v-20.08c0-1.1-.9-2-2-2Z"/>
      <path class="cls-2" d="M1432.31,936.94l14.92,25.84h333.82l33.85,58.64,13.53.59c.1,1.1,1.08,1.99,2.18,1.99h87.38c1.1,0,2-.9,2-2v-84.55c0-1.1-.78-2.45-1.73-3l-10.19-5.88c-.95-.55-1.73-1.9-1.73-3v-266.11c0-1.1.78-2.45,1.73-3l10.19-5.88c.95-.55,1.73-1.9,1.73-3v-39.11c0-1.1-.78-2.45-1.73-3l-10.19-5.88c-.95-.55-1.73-1.9-1.73-3v-51.43l-103.1-59.52v-161.78l116.75-67.41V2c0-1.1-.9-2-2-2h-49.6l-86.24,149.37h-200.71L1497.42,3.82l-4.68,8.1c-.55.95-1.9,1.73-3,1.73h-266.11c-1.1,0-2.45-.78-3-1.73l-5.88-10.19c-.55-.95-1.9-1.73-3-1.73h-385.68c-1.1,0-2.45.78-3,1.73l-5.88,10.19c-.55.95-1.9,1.73-3,1.73h-350.79l-39.6,68.58h-200.71L183.5,13.66h-98.78c-1.1,0-2.45-.78-3-1.73l-5.88-10.19c-.55-.95-1.9-1.73-3-1.73H2C.9,0,0,.9,0,2v127.66c0,1.1.88,2.2,1.95,2.44l31.47,7.01c1.07.24,1.95,1.34,1.95,2.44v502.53s79.7,46.02,79.7,46.02v161.78L0,918.31v103.69c0,1.1.9,2,2,2h54.17l27.6-47.8h258.39l54.73-94.79h226.41l82.32,142.59h332.16l50.26-87.06h344.27ZM1715.97,758c0-1.1.9-2,2-2h56.04c1.1,0,2.9.08,3.99.18,0,0,6.28.56,10.3,2.05,4.01,1.48,7.64,3.55,10.89,6.19,3.24,2.64,5.86,5.8,7.83,9.48,1.98,3.69,2.74,10.3,2.74,10.3.13,1.09.23,2.89.23,3.99v41.69c0,1.1-.59,2.68-1.31,3.51l-31.85,36.57c-.72.83-2.21,1.51-3.31,1.51h-44.99c-1.1,0-2-.9-2-2v-87.38c0-1.1-.9-2-2-2h-6.56c-1.1,0-2-.9-2-2v-20.08ZM1630.7,758c0-1.1.9-2,2-2h71.38c1.1,0,2,.9,2,2v20.08c0,1.1-.9,2-2,2h-47.3c-1.1,0-2,.9-2,2v18.27c0,1.1.9,2,2,2h29.98c1.1,0,2,.9,2,2v16.45c0,1.1-.9,2-2,2h-29.98c-1.1,0-2,.9-2,2v20.58c0,1.1.9,2,2,2h47.3c1.1,0,2,.9,2,2v20.08c0,1.1-.9,2-2,2h-71.38c-1.1,0-2-.9-2-2v-111.46ZM1539.49,758c0-1.1.9-2,2-2h78.96c1.1,0,2,.9,2,2v20.08c0,1.1-.9,2-2,2h-25.52c-1.1,0-2,.9-2,2v87.38c0,1.1-.9,2-2,2h-20.08c-1.1,0-2-.9-2-2v-87.38c0-1.1-.9-2-2-2h-25.36c-1.1,0-2-.9-2-2v-20.08ZM1456.03,847.4c0-1.1.33-2.84.72-3.87l17.52-45.26c.4-1.03.72-2.77.72-3.87v-3.42c0-1.1.9-2,2-2h20.25c1.1,0,2,.9,2,2v7.88c0,1.1-.32,2.84-.72,3.87l-7.64,19.85c-.39,1.03.18,1.87,1.28,1.87h11.18c1.1,0,2.75.5,3.66,1.12l12.03,8.15c.91.62,1.41.25,1.12-.8,0,0-1.39-4.97-2.6-8.88-1.21-3.9-2.58-8.77-4.12-14.6-1.1-4.18-2.01-8.05-2.72-11.63-.72-3.57-1.81-6.65-3.3-9.24-1.48-2.58-3.63-4.62-6.43-6.1-2.8-1.48-10.46-2.07-10.46-2.07-1.1-.08-2.74-.15-3.64-.15s-2.55.04-3.65.1l-2.6.13c-1.1.05-2.74.1-3.65.1s-1.65-.9-1.65-2v-20.08c0-1.1.9-2.06,2-2.12,0,0,5.98-.37,10.04-.37,8.91,0,16.11.99,21.61,2.97,5.5,1.98,9.98,4.95,13.44,8.91s6.21,8.85,8.25,14.68c2.03,5.83,4.04,12.65,6.02,20.45.55,2.09,1.48,5.28,2.8,9.57,1.32,4.29,2.67,8.74,4.04,13.36,1.37,4.62,2.58,8.94,3.63,12.95,1.04,4.01,1.31,6.02,1.31,6.02.14,1.09.26,2.88.26,3.98v20.58c0,1.1-.9,2-2,2h-20.08c-1.1,0-2-.9-2-2v-2.7c0-1.48-.05-2.37-.05-2.37-.06-1.1-.86-2.5-1.77-3.12l-22.1-15.07c-.91-.62-2.55-1.13-3.65-1.13h-12.82c-1.1,0-2.32.84-2.71,1.87l-.4,1.04c-.39,1.03-.71,2.77-.71,3.87v17.61c0,1.1-.9,2-2,2h-20.41c-1.1,0-2-.9-2-2v-22.06ZM1359.21,758c0-1.1.9-2,2-2h20.25c1.1,0,2.59.68,3.31,1.51,0,0,14.03,16.09,20.95,25.54,6.93,9.46,17.79,27.96,17.79,27.96.56.95,1.01.82,1.01-.28v-52.74c0-1.1.9-2,2-2h20.08c1.1,0,2,.9,2,2v111.46c0,1.1-.9,2-2,2h-20.08c-1.1,0-2.33-.84-2.73-1.86,0,0-10.1-25.79-16.92-38.88-6.82-13.08-22.45-35.79-22.45-35.79-.62-.91-1.13-.75-1.13.35v74.18c0,1.1-.9,2-2,2h-20.08c-1.1,0-2-.9-2-2v-111.46ZM1324.9,758c0-1.1.9-2,2-2h20.41c1.1,0,2,.9,2,2v111.46c0,1.1-.9,2-2,2h-20.41c-1.1,0-2-.9-2-2v-111.46ZM1190.97,758c0-1.1.9-2,2-2h20.08c1.1,0,2.48.76,3.06,1.7l31.2,49.88c.58.93,1.62.99,2.31.13l40.06-50.15c.69-.86,2.15-1.56,3.25-1.56h20.08c1.1,0,2,.9,2,2v111.46c0,1.1-.9,2-2,2h-20.08c-1.1,0-2-.9-2-2v-73.03c0-1.1-.56-1.3-1.25-.44l-26.54,33.32c-.69.86-.77,2.33-.2,3.27l7.47,12.1c.58.94.29,2.19-.63,2.78l-16.75,10.71c-.93.59-2.16.32-2.75-.62l-34.16-54.34c-.59-.93-1.06-.79-1.06.31v65.93c0,1.1-.9,2-2,2h-20.08c-1.1,0-2-.9-2-2v-111.46ZM994.53,778.08c0,1.1-.9,2-2,2h-25.52c-1.1,0-2,.9-2,2v87.38c0,1.1-.9,2-2,2h-20.08c-1.1,0-2-.9-2-2v-87.38c0-1.1-.9-2-2-2h-25.36c-1.1,0-2-.9-2-2v-20.08c0-1.1.9-2,2-2h78.96c1.1,0,2,.9,2,2v20.08ZM1078.16,778.08c0,1.1-.9,2-2,2h-47.3c-1.1,0-2,.9-2,2v18.27c0,1.1.9,2,2,2h29.98c1.1,0,2,.9,2,2v16.45c0,1.1-.9,2-2,2h-29.98c-1.1,0-2,.9-2,2v20.58c0,1.1.9,2,2,2h47.3c1.1,0,2,.9,2,2v20.08c0,1.1-.9,2-2,2h-71.38c-1.1,0-2-.9-2-2v-111.46c0-1.1.9-2,2-2h71.38c1.1,0,2,.9,2,2v20.08ZM1084.75,778.08v-20.08c0-1.1.9-2,2-2h77.97c1.1,0,2.42.8,2.93,1.77l12.99,24.83c.51.97.28,2.4-.51,3.17l-21.54,20.96c-.79.77-.76,1.99.06,2.72,0,0,5.98,5.3,8.73,9.64,2.75,4.35,5.11,9.05,7.09,14.1,1.98,5.06,3.71,10.31,5.2,15.75s4.11,14,4.11,14c.32,1.05-.28,2.16-1.34,2.46l-19.41,5.51c-1.06.3-2.25-.29-2.64-1.32,0,0-1.81-4.73-2.91-9.35-1.1-4.62-2.42-9.26-3.96-13.94-1.54-4.67-3.44-8.93-5.69-12.78-2.26-3.85-7.24-6.62-7.24-6.62-.96-.53-2.4-.35-3.19.42l-16.59,16.02c-.79.76-1.44,2.29-1.44,3.39v22.72c0,1.1-.9,2-2,2h-20.08c-1.1,0-2-.9-2-2l-.16-87.38c0-1.1-.9-2-2-2h-6.39c-1.1,0-2-.9-2-2Z"/>
    </g>
  </g>
</svg>