<?xml version="1.0" encoding="UTF-8"?>
<svg id="Layer_2" data-name="Layer 2" xmlns="http://www.w3.org/2000/svg" viewBox="0 0 1920 1024">
  <defs>
    <style>
      .cls-1 {
        fill: #ff6306;
      }
    </style>
  </defs>
  <g id="Layer_1-2" data-name="Layer 1">
    <g>
      <path class="cls-1" d="M0,0v1024h1920V0H0ZM593.76,462.86h-29.52v91.38h-24.08v-91.38h-29.36v-24.08h82.96v24.08ZM677.38,462.86h-51.3v22.27h33.98v20.45h-33.98v24.58h51.3v24.08h-75.38v-115.46h75.38v24.08ZM760.34,554.24c-1.32-2.86-2.53-6.6-3.63-11.22-1.1-4.62-2.42-9.26-3.96-13.94-1.54-4.67-3.44-8.93-5.69-12.78-2.26-3.85-5.25-6.38-8.99-7.59l-19.46,18.8v26.72h-24.08l-.17-91.38h-10.39v-24.08h81.97l14.84,28.37-24.41,23.75c4.07,2.97,7.48,6.63,10.23,10.97,2.75,4.35,5.11,9.05,7.09,14.1,1.98,5.06,3.71,10.31,5.2,15.75s3.05,10.75,4.7,15.92l-23.26,6.6ZM914.23,554.24h-24.08v-77.03l-29.03,36.45,9.57,15.5-20.12,12.87-36.29-57.73v69.93h-24.08v-115.46h24.08l33.32,53.28,42.55-53.28h24.08v115.46ZM948.54,554.24h-24.41v-115.46h24.41v115.46ZM1047.83,554.24h-24.08c-4.95-14.07-10.83-27.65-17.65-40.74-6.82-13.08-14.68-25.57-23.59-37.44v78.18h-24.08v-115.46h24.25c7.92,8.58,15.34,17.59,22.27,27.05,6.93,9.46,13.19,19.35,18.8,29.69v-56.74h24.08v115.46ZM1147.95,554.24h-24.08v-4.7c0-1.48-.06-2.94-.16-4.37l-25.4-17.32h-16.82l-1.81,4.78v21.61h-24.41v-26.06l18.97-48.99v-7.42h24.25v11.88l-9.07,23.59h15.18l15.34,10.39c-.88-3.3-1.93-6.9-3.13-10.8-1.21-3.9-2.58-8.77-4.12-14.6-1.1-4.18-2.01-8.05-2.72-11.63-.72-3.57-1.81-6.65-3.3-9.24-1.48-2.58-3.63-4.62-6.43-6.1-2.8-1.48-6.96-2.23-12.45-2.23h-3.3l-6.6.33h-3.3v-24.08c3.96-.33,7.97-.49,12.04-.49,8.91,0,16.11.99,21.61,2.97,5.5,1.98,9.98,4.95,13.44,8.91s6.21,8.85,8.25,14.68c2.03,5.83,4.04,12.65,6.02,20.45.55,2.09,1.48,5.28,2.8,9.57,1.32,4.29,2.67,8.74,4.04,13.36,1.37,4.62,2.58,8.94,3.63,12.95,1.04,4.01,1.57,6.68,1.57,8v24.58ZM1221.67,462.86h-29.52v91.38h-24.08v-91.38h-29.36v-24.08h82.96v24.08ZM1305.3,462.86h-51.3v22.27h33.98v20.45h-33.98v24.58h51.3v24.08h-75.38v-115.46h75.38v24.08ZM1409.21,514.65l-34.47,39.59h-48.99v-91.38h-10.56v-24.08h60.04c4.18,0,8.27.74,12.29,2.23,4.01,1.48,7.64,3.55,10.89,6.19,3.24,2.64,5.86,5.8,7.83,9.48,1.98,3.69,2.97,7.78,2.97,12.29v45.69Z"/>
      <polygon class="cls-1" points="718.61 494.2 750.61 462.86 718.61 462.86 718.61 494.2"/>
      <path class="cls-1" d="M1377.62,464.02c-2.04-.66-4.07-1.02-6.1-1.07-2.04-.05-3.6-.08-4.7-.08h-16.99v67.3h14.02l21.28-24.41v-31.67c0-2.97-.74-5.22-2.23-6.76-1.48-1.54-3.25-2.64-5.28-3.3Z"/>
      <polygon points="510.79 462.86 540.15 462.86 540.15 554.24 564.23 554.24 564.23 462.86 593.76 462.86 593.76 438.78 510.79 438.78 510.79 462.86"/>
      <polygon points="602 554.24 677.38 554.24 677.38 530.16 626.08 530.16 626.08 505.58 660.06 505.58 660.06 485.13 626.08 485.13 626.08 462.86 677.38 462.86 677.38 438.78 602 438.78 602 554.24"/>
      <path d="M773.7,515.97c-1.98-5.06-4.34-9.76-7.09-14.1-2.75-4.34-6.16-8-10.23-10.97l24.41-23.75-14.84-28.37h-81.97v24.08h10.39l.17,91.38h24.08v-26.72l19.46-18.8c3.74,1.21,6.73,3.74,8.99,7.59,2.25,3.85,4.15,8.11,5.69,12.78,1.54,4.67,2.86,9.32,3.96,13.94,1.1,4.62,2.31,8.36,3.63,11.22l23.26-6.6c-1.65-5.17-3.22-10.47-4.7-15.92s-3.22-10.69-5.2-15.75ZM718.61,494.2v-31.34h32l-32,31.34Z"/>
      <polygon points="847.6 492.06 814.28 438.78 790.2 438.78 790.2 554.24 814.28 554.24 814.28 484.3 850.56 542.03 870.69 529.17 861.12 513.66 890.15 477.21 890.15 554.24 914.23 554.24 914.23 438.78 890.15 438.78 847.6 492.06"/>
      <rect x="924.13" y="438.78" width="24.41" height="115.46"/>
      <path d="M1023.75,495.52c-5.61-10.33-11.88-20.23-18.8-29.69-6.93-9.46-14.35-18.47-22.27-27.05h-24.25v115.46h24.08v-78.18c8.91,11.88,16.77,24.36,23.59,37.44,6.82,13.09,12.7,26.67,17.65,40.74h24.08v-115.46h-24.08v56.74Z"/>
      <path d="M1142.75,508.72c-1.38-4.62-2.72-9.07-4.04-13.36-1.32-4.29-2.26-7.48-2.8-9.57-1.98-7.81-3.99-14.62-6.02-20.45-2.04-5.83-4.78-10.72-8.25-14.68s-7.95-6.93-13.44-8.91c-5.5-1.98-12.7-2.97-21.61-2.97-4.07,0-8.08.16-12.04.49v24.08h3.3l6.6-.33h3.3c5.5,0,9.65.74,12.45,2.23,2.8,1.48,4.95,3.52,6.43,6.1,1.48,2.59,2.58,5.66,3.3,9.24.71,3.57,1.62,7.45,2.72,11.63,1.54,5.83,2.91,10.7,4.12,14.6,1.21,3.9,2.25,7.5,3.13,10.8l-15.34-10.39h-15.18l9.07-23.59v-11.88h-24.25v7.42l-18.97,48.99v26.06h24.41v-21.61l1.81-4.78h16.82l25.4,17.32c.11,1.43.16,2.89.16,4.37v4.7h24.08v-24.58c0-1.32-.52-3.98-1.57-8-1.05-4.01-2.25-8.33-3.63-12.95Z"/>
      <polygon points="1138.71 462.86 1168.07 462.86 1168.07 554.24 1192.15 554.24 1192.15 462.86 1221.67 462.86 1221.67 438.78 1138.71 438.78 1138.71 462.86"/>
      <polygon points="1229.92 554.24 1305.3 554.24 1305.3 530.16 1254 530.16 1254 505.58 1287.98 505.58 1287.98 485.13 1254 485.13 1254 462.86 1305.3 462.86 1305.3 438.78 1229.92 438.78 1229.92 554.24"/>
      <path d="M1398.41,447.19c-3.24-2.64-6.87-4.7-10.89-6.19-4.02-1.48-8.11-2.23-12.29-2.23h-60.04v24.08h10.56v91.38h48.99l34.47-39.59v-45.69c0-4.51-.99-8.6-2.97-12.29-1.98-3.68-4.59-6.84-7.83-9.48ZM1385.13,505.75l-21.28,24.41h-14.02v-67.3h16.99c1.1,0,2.66.03,4.7.08,2.03.06,4.07.41,6.1,1.07,2.03.66,3.79,1.76,5.28,3.3,1.48,1.54,2.23,3.79,2.23,6.76v31.67Z"/>
    </g>
  </g>
</svg>